<svg width="600" height="600" viewBox="0 0 738 647" fill="none" xmlns="http://www.w3.org/2000/svg">
<g clip-path="url(#clip0_626_20820)">
<path d="M800 567.473H-66.0352V567.819H800V567.473Z" fill="#EBEBEB"/>
<path d="M713.222 595.379H655.891V595.725H713.222V595.379Z" fill="#EBEBEB"/>
<path d="M507.628 600.227H492.559V600.573H507.628V600.227Z" fill="#EBEBEB"/>
<path d="M654.158 579.43H620.902V579.776H654.158V579.43Z" fill="#EBEBEB"/>
<path d="M99.7239 582.207H24.8984V582.553H99.7239V582.207Z" fill="#EBEBEB"/>
<path d="M126.053 582.207H115.141V582.553H126.053V582.207Z" fill="#EBEBEB"/>
<path d="M324.025 589.66H161.73V590.007H324.025V589.66Z" fill="#EBEBEB"/>
<path d="M344.468 490.168H10.0056C4.6362 490.168 0.132812 485.661 0.132812 480.288V9.87961C0.132812 4.50649 4.6362 0 10.0056 0H344.468C349.838 0 354.341 4.50649 354.341 9.87961V480.288C354.341 485.834 350.011 490.168 344.468 490.168ZM10.0056 0.346653C4.8094 0.346653 0.479228 4.50649 0.479228 9.87961V480.288C0.479228 485.488 4.6362 489.821 10.0056 489.821H344.468C349.665 489.821 353.995 485.661 353.995 480.288V9.87961C353.995 4.67982 349.838 0.346653 344.468 0.346653H10.0056Z" fill="#EBEBEB"/>
<path d="M719.113 490.168H384.65C379.281 490.168 374.777 485.661 374.777 480.288V9.87961C374.777 4.50649 379.281 0 384.65 0H719.113C724.482 0 728.986 4.50649 728.986 9.87961V480.288C728.986 485.834 724.656 490.168 719.113 490.168ZM384.65 0.346653C379.454 0.346653 375.124 4.50649 375.124 9.87961V480.288C375.124 485.488 379.281 489.821 384.65 489.821H719.113C724.309 489.821 728.639 485.661 728.639 480.288V9.87961C728.639 4.67982 724.482 0.346653 719.113 0.346653H384.65Z" fill="#EBEBEB"/>
<path d="M705.423 107.812H285.742V512.53H705.423V107.812Z" fill="#E0E0E0"/>
<path d="M705.422 115.27H292.496V505.601H705.422V115.27Z" fill="#F5F5F5"/>
<path d="M295.614 410.961V293.619H307.738V278.193L335.278 265.194V249.421H339.782V293.619H344.285V410.961H350.52V350.124H364.204V318.058H368.707V410.961H379.446V375.949H387.067V366.763H403.868V334.871H412.875V313.378H423.614V281.486H428.117V313.378H438.856V334.871H448.036V366.763H464.664V375.949H472.285V410.961H481.465V366.763H498.266V269.18H502.769V258.607H539.489V269.18H547.11V339.377H577.422V347.004H588.161V351.51H577.422V379.069H609.465V287.553H615.527V269.18H630.769V199.156H635.446V269.18H646.012V287.553H705.422V505.598H292.496V410.961H295.614Z" fill="#E6E6E6"/>
<path d="M673.729 292.227H669.398V296.56H673.729V292.227Z" fill="#F0F0F0"/>
<path d="M673.729 299.508H669.398V303.841H673.729V299.508Z" fill="#F0F0F0"/>
<path d="M673.729 328.453H669.398V332.786H673.729V328.453Z" fill="#F0F0F0"/>
<path d="M673.729 335.738H669.398V340.071H673.729V335.738Z" fill="#F0F0F0"/>
<path d="M673.729 343.02H669.398V347.353H673.729V343.02Z" fill="#F0F0F0"/>
<path d="M673.729 364.684H669.398V369.017H673.729V364.684Z" fill="#F0F0F0"/>
<path d="M673.729 371.961H669.398V376.294H673.729V371.961Z" fill="#F0F0F0"/>
<path d="M666.795 321.352H662.465V325.685H666.795V321.352Z" fill="#F0F0F0"/>
<path d="M666.795 328.453H662.465V332.786H666.795V328.453Z" fill="#F0F0F0"/>
<path d="M666.795 335.738H662.465V340.071H666.795V335.738Z" fill="#F0F0F0"/>
<path d="M666.795 343.02H662.465V347.353H666.795V343.02Z" fill="#F0F0F0"/>
<path d="M666.795 350.293H662.465V354.626H666.795V350.293Z" fill="#F0F0F0"/>
<path d="M666.795 364.684H662.465V369.017H666.795V364.684Z" fill="#F0F0F0"/>
<path d="M666.795 371.961H662.465V376.294H666.795V371.961Z" fill="#F0F0F0"/>
<path d="M660.041 292.227H655.711V296.56H660.041V292.227Z" fill="#F0F0F0"/>
<path d="M660.041 299.508H655.711V303.841H660.041V299.508Z" fill="#F0F0F0"/>
<path d="M660.041 306.793H655.711V311.126H660.041V306.793Z" fill="#F0F0F0"/>
<path d="M660.041 314.07H655.711V318.403H660.041V314.07Z" fill="#F0F0F0"/>
<path d="M660.041 321.352H655.711V325.685H660.041V321.352Z" fill="#F0F0F0"/>
<path d="M660.041 328.453H655.711V332.786H660.041V328.453Z" fill="#F0F0F0"/>
<path d="M660.041 335.738H655.711V340.071H660.041V335.738Z" fill="#F0F0F0"/>
<path d="M660.041 343.02H655.711V347.353H660.041V343.02Z" fill="#F0F0F0"/>
<path d="M660.041 350.293H655.711V354.626H660.041V350.293Z" fill="#F0F0F0"/>
<path d="M660.041 357.402H655.711V361.736H660.041V357.402Z" fill="#F0F0F0"/>
<path d="M660.041 371.961H655.711V376.294H660.041V371.961Z" fill="#F0F0F0"/>
<path d="M653.115 292.227H648.785V296.56H653.115V292.227Z" fill="#F0F0F0"/>
<path d="M653.115 299.508H648.785V303.841H653.115V299.508Z" fill="#F0F0F0"/>
<path d="M653.115 306.793H648.785V311.126H653.115V306.793Z" fill="#F0F0F0"/>
<path d="M653.115 314.07H648.785V318.403H653.115V314.07Z" fill="#F0F0F0"/>
<path d="M653.115 321.352H648.785V325.685H653.115V321.352Z" fill="#F0F0F0"/>
<path d="M653.115 328.453H648.785V332.786H653.115V328.453Z" fill="#F0F0F0"/>
<path d="M653.115 335.738H648.785V340.071H653.115V335.738Z" fill="#F0F0F0"/>
<path d="M653.115 400.91H648.785V405.243H653.115V400.91Z" fill="#F0F0F0"/>
<path d="M646.358 292.227H642.027V296.56H646.358V292.227Z" fill="#F0F0F0"/>
<path d="M646.358 299.508H642.027V303.841H646.358V299.508Z" fill="#F0F0F0"/>
<path d="M646.358 306.793H642.027V311.126H646.358V306.793Z" fill="#F0F0F0"/>
<path d="M646.358 314.07H642.027V318.403H646.358V314.07Z" fill="#F0F0F0"/>
<path d="M646.358 321.352H642.027V325.685H646.358V321.352Z" fill="#F0F0F0"/>
<path d="M646.358 328.453H642.027V332.786H646.358V328.453Z" fill="#F0F0F0"/>
<path d="M646.358 335.738H642.027V340.071H646.358V335.738Z" fill="#F0F0F0"/>
<path d="M646.358 343.02H642.027V347.353H646.358V343.02Z" fill="#F0F0F0"/>
<path d="M646.358 386.523H642.027V390.857H646.358V386.523Z" fill="#F0F0F0"/>
<path d="M646.358 393.629H642.027V397.962H646.358V393.629Z" fill="#F0F0F0"/>
<path d="M646.358 400.91H642.027V405.243H646.358V400.91Z" fill="#F0F0F0"/>
<path d="M646.358 408.188H642.027V412.521H646.358V408.188Z" fill="#F0F0F0"/>
<path d="M646.358 437.133H642.027V441.466H646.358V437.133Z" fill="#F0F0F0"/>
<path d="M639.432 292.227H635.102V296.56H639.432V292.227Z" fill="#F0F0F0"/>
<path d="M639.432 299.508H635.102V303.841H639.432V299.508Z" fill="#F0F0F0"/>
<path d="M639.432 306.793H635.102V311.126H639.432V306.793Z" fill="#F0F0F0"/>
<path d="M639.432 314.07H635.102V318.403H639.432V314.07Z" fill="#F0F0F0"/>
<path d="M639.432 321.352H635.102V325.685H639.432V321.352Z" fill="#F0F0F0"/>
<path d="M639.432 328.453H635.102V332.786H639.432V328.453Z" fill="#F0F0F0"/>
<path d="M639.432 335.738H635.102V340.071H639.432V335.738Z" fill="#F0F0F0"/>
<path d="M639.432 343.02H635.102V347.353H639.432V343.02Z" fill="#F0F0F0"/>
<path d="M639.432 350.293H635.102V354.626H639.432V350.293Z" fill="#F0F0F0"/>
<path d="M639.432 357.402H635.102V361.736H639.432V357.402Z" fill="#F0F0F0"/>
<path d="M639.432 379.242H635.102V383.575H639.432V379.242Z" fill="#F0F0F0"/>
<path d="M639.432 386.523H635.102V390.857H639.432V386.523Z" fill="#F0F0F0"/>
<path d="M639.432 393.629H635.102V397.962H639.432V393.629Z" fill="#F0F0F0"/>
<path d="M639.432 400.91H635.102V405.243H639.432V400.91Z" fill="#F0F0F0"/>
<path d="M639.432 408.188H635.102V412.521H639.432V408.188Z" fill="#F0F0F0"/>
<path d="M639.432 437.133H635.102V441.466H639.432V437.133Z" fill="#F0F0F0"/>
<path d="M632.674 292.227H628.344V296.56H632.674V292.227Z" fill="#F0F0F0"/>
<path d="M632.674 299.508H628.344V303.841H632.674V299.508Z" fill="#F0F0F0"/>
<path d="M632.674 306.793H628.344V311.126H632.674V306.793Z" fill="#F0F0F0"/>
<path d="M632.674 314.07H628.344V318.403H632.674V314.07Z" fill="#F0F0F0"/>
<path d="M632.674 321.352H628.344V325.685H632.674V321.352Z" fill="#F0F0F0"/>
<path d="M632.674 328.453H628.344V332.786H632.674V328.453Z" fill="#F0F0F0"/>
<path d="M632.674 335.738H628.344V340.071H632.674V335.738Z" fill="#F0F0F0"/>
<path d="M632.674 343.02H628.344V347.353H632.674V343.02Z" fill="#F0F0F0"/>
<path d="M632.674 350.293H628.344V354.626H632.674V350.293Z" fill="#F0F0F0"/>
<path d="M632.674 357.402H628.344V361.736H632.674V357.402Z" fill="#F0F0F0"/>
<path d="M632.674 364.684H628.344V369.017H632.674V364.684Z" fill="#F0F0F0"/>
<path d="M632.674 371.961H628.344V376.294H632.674V371.961Z" fill="#F0F0F0"/>
<path d="M632.674 379.242H628.344V383.575H632.674V379.242Z" fill="#F0F0F0"/>
<path d="M632.674 386.523H628.344V390.857H632.674V386.523Z" fill="#F0F0F0"/>
<path d="M632.674 393.629H628.344V397.962H632.674V393.629Z" fill="#F0F0F0"/>
<path d="M632.674 400.91H628.344V405.243H632.674V400.91Z" fill="#F0F0F0"/>
<path d="M632.674 408.188H628.344V412.521H632.674V408.188Z" fill="#F0F0F0"/>
<path d="M632.674 415.465H628.344V419.798H632.674V415.465Z" fill="#F0F0F0"/>
<path d="M625.748 292.227H621.418V296.56H625.748V292.227Z" fill="#F0F0F0"/>
<path d="M625.748 299.508H621.418V303.841H625.748V299.508Z" fill="#F0F0F0"/>
<path d="M625.748 306.793H621.418V311.126H625.748V306.793Z" fill="#F0F0F0"/>
<path d="M625.748 314.07H621.418V318.403H625.748V314.07Z" fill="#F0F0F0"/>
<path d="M625.748 321.352H621.418V325.685H625.748V321.352Z" fill="#F0F0F0"/>
<path d="M625.748 328.453H621.418V332.786H625.748V328.453Z" fill="#F0F0F0"/>
<path d="M625.748 335.738H621.418V340.071H625.748V335.738Z" fill="#F0F0F0"/>
<path d="M625.748 343.02H621.418V347.353H625.748V343.02Z" fill="#F0F0F0"/>
<path d="M625.748 350.293H621.418V354.626H625.748V350.293Z" fill="#F0F0F0"/>
<path d="M625.748 357.402H621.418V361.736H625.748V357.402Z" fill="#F0F0F0"/>
<path d="M625.748 379.242H621.418V383.575H625.748V379.242Z" fill="#F0F0F0"/>
<path d="M625.748 386.523H621.418V390.857H625.748V386.523Z" fill="#F0F0F0"/>
<path d="M625.748 393.629H621.418V397.962H625.748V393.629Z" fill="#F0F0F0"/>
<path d="M625.748 400.91H621.418V405.243H625.748V400.91Z" fill="#F0F0F0"/>
<path d="M618.818 292.227H614.488V296.56H618.818V292.227Z" fill="#F0F0F0"/>
<path d="M618.818 299.508H614.488V303.841H618.818V299.508Z" fill="#F0F0F0"/>
<path d="M618.818 306.793H614.488V311.126H618.818V306.793Z" fill="#F0F0F0"/>
<path d="M618.818 314.07H614.488V318.403H618.818V314.07Z" fill="#F0F0F0"/>
<path d="M618.818 321.352H614.488V325.685H618.818V321.352Z" fill="#F0F0F0"/>
<path d="M618.818 328.453H614.488V332.786H618.818V328.453Z" fill="#F0F0F0"/>
<path d="M618.818 335.738H614.488V340.071H618.818V335.738Z" fill="#F0F0F0"/>
<path d="M618.818 343.02H614.488V347.353H618.818V343.02Z" fill="#F0F0F0"/>
<path d="M618.818 350.293H614.488V354.626H618.818V350.293Z" fill="#F0F0F0"/>
<path d="M618.818 357.402H614.488V361.736H618.818V357.402Z" fill="#F0F0F0"/>
<path d="M618.818 379.242H614.488V383.575H618.818V379.242Z" fill="#F0F0F0"/>
<path d="M618.818 386.523H614.488V390.857H618.818V386.523Z" fill="#F0F0F0"/>
<path d="M618.818 393.629H614.488V397.962H618.818V393.629Z" fill="#F0F0F0"/>
<path d="M541.74 273.512H537.41V277.845H541.74V273.512Z" fill="#F0F0F0"/>
<path d="M541.74 280.793H537.41V285.126H541.74V280.793Z" fill="#F0F0F0"/>
<path d="M541.74 287.898H537.41V292.232H541.74V287.898Z" fill="#F0F0F0"/>
<path d="M541.74 295.18H537.41V299.513H541.74V295.18Z" fill="#F0F0F0"/>
<path d="M541.74 302.457H537.41V306.79H541.74V302.457Z" fill="#F0F0F0"/>
<path d="M541.74 309.734H537.41V314.068H541.74V309.734Z" fill="#F0F0F0"/>
<path d="M541.74 317.016H537.41V321.349H541.74V317.016Z" fill="#F0F0F0"/>
<path d="M541.74 324.121H537.41V328.454H541.74V324.121Z" fill="#F0F0F0"/>
<path d="M541.74 345.961H537.41V350.294H541.74V345.961Z" fill="#F0F0F0"/>
<path d="M541.74 353.242H537.41V357.575H541.74V353.242Z" fill="#F0F0F0"/>
<path d="M534.815 273.512H530.484V277.845H534.815V273.512Z" fill="#F0F0F0"/>
<path d="M534.815 280.793H530.484V285.126H534.815V280.793Z" fill="#F0F0F0"/>
<path d="M534.815 287.898H530.484V292.232H534.815V287.898Z" fill="#F0F0F0"/>
<path d="M534.815 295.18H530.484V299.513H534.815V295.18Z" fill="#F0F0F0"/>
<path d="M534.815 302.457H530.484V306.79H534.815V302.457Z" fill="#F0F0F0"/>
<path d="M534.815 309.734H530.484V314.068H534.815V309.734Z" fill="#F0F0F0"/>
<path d="M534.815 317.016H530.484V321.349H534.815V317.016Z" fill="#F0F0F0"/>
<path d="M534.815 324.121H530.484V328.454H534.815V324.121Z" fill="#F0F0F0"/>
<path d="M534.815 353.242H530.484V357.575H534.815V353.242Z" fill="#F0F0F0"/>
<path d="M527.885 273.512H523.555V277.845H527.885V273.512Z" fill="#F0F0F0"/>
<path d="M527.885 280.793H523.555V285.126H527.885V280.793Z" fill="#F0F0F0"/>
<path d="M527.885 287.898H523.555V292.232H527.885V287.898Z" fill="#F0F0F0"/>
<path d="M527.885 295.18H523.555V299.513H527.885V295.18Z" fill="#F0F0F0"/>
<path d="M527.885 302.457H523.555V306.79H527.885V302.457Z" fill="#F0F0F0"/>
<path d="M527.885 309.734H523.555V314.068H527.885V309.734Z" fill="#F0F0F0"/>
<path d="M527.885 317.016H523.555V321.349H527.885V317.016Z" fill="#F0F0F0"/>
<path d="M527.885 324.121H523.555V328.454H527.885V324.121Z" fill="#F0F0F0"/>
<path d="M521.131 273.512H516.801V277.845H521.131V273.512Z" fill="#F0F0F0"/>
<path d="M521.131 280.793H516.801V285.126H521.131V280.793Z" fill="#F0F0F0"/>
<path d="M521.131 287.898H516.801V292.232H521.131V287.898Z" fill="#F0F0F0"/>
<path d="M521.131 295.18H516.801V299.513H521.131V295.18Z" fill="#F0F0F0"/>
<path d="M521.131 302.457H516.801V306.79H521.131V302.457Z" fill="#F0F0F0"/>
<path d="M521.131 309.734H516.801V314.068H521.131V309.734Z" fill="#F0F0F0"/>
<path d="M521.131 324.121H516.801V328.454H521.131V324.121Z" fill="#F0F0F0"/>
<path d="M521.131 331.402H516.801V335.736H521.131V331.402Z" fill="#F0F0F0"/>
<path d="M521.131 353.242H516.801V357.575H521.131V353.242Z" fill="#F0F0F0"/>
<path d="M521.131 360.348H516.801V364.681H521.131V360.348Z" fill="#F0F0F0"/>
<path d="M521.131 367.625H516.801V371.958H521.131V367.625Z" fill="#F0F0F0"/>
<path d="M521.131 374.906H516.801V379.239H521.131V374.906Z" fill="#F0F0F0"/>
<path d="M521.131 382.188H516.801V386.521H521.131V382.188Z" fill="#F0F0F0"/>
<path d="M521.131 389.465H516.801V393.798H521.131V389.465Z" fill="#F0F0F0"/>
<path d="M521.131 396.574H516.801V400.907H521.131V396.574Z" fill="#F0F0F0"/>
<path d="M514.205 273.512H509.875V277.845H514.205V273.512Z" fill="#F0F0F0"/>
<path d="M514.205 280.793H509.875V285.126H514.205V280.793Z" fill="#F0F0F0"/>
<path d="M514.205 287.898H509.875V292.232H514.205V287.898Z" fill="#F0F0F0"/>
<path d="M514.205 295.18H509.875V299.513H514.205V295.18Z" fill="#F0F0F0"/>
<path d="M514.205 302.457H509.875V306.79H514.205V302.457Z" fill="#F0F0F0"/>
<path d="M514.205 309.734H509.875V314.068H514.205V309.734Z" fill="#F0F0F0"/>
<path d="M514.205 331.402H509.875V335.736H514.205V331.402Z" fill="#F0F0F0"/>
<path d="M514.205 338.684H509.875V343.017H514.205V338.684Z" fill="#F0F0F0"/>
<path d="M514.205 345.961H509.875V350.294H514.205V345.961Z" fill="#F0F0F0"/>
<path d="M514.205 353.242H509.875V357.575H514.205V353.242Z" fill="#F0F0F0"/>
<path d="M514.205 360.348H509.875V364.681H514.205V360.348Z" fill="#F0F0F0"/>
<path d="M514.205 367.625H509.875V371.958H514.205V367.625Z" fill="#F0F0F0"/>
<path d="M514.205 374.906H509.875V379.239H514.205V374.906Z" fill="#F0F0F0"/>
<path d="M514.205 382.188H509.875V386.521H514.205V382.188Z" fill="#F0F0F0"/>
<path d="M514.205 389.465H509.875V393.798H514.205V389.465Z" fill="#F0F0F0"/>
<path d="M514.205 396.574H509.875V400.907H514.205V396.574Z" fill="#F0F0F0"/>
<path d="M514.205 403.855H509.875V408.189H514.205V403.855Z" fill="#F0F0F0"/>
<path d="M514.205 418.41H509.875V422.743H514.205V418.41Z" fill="#F0F0F0"/>
<path d="M507.447 273.512H503.117V277.845H507.447V273.512Z" fill="#F0F0F0"/>
<path d="M507.447 280.793H503.117V285.126H507.447V280.793Z" fill="#F0F0F0"/>
<path d="M507.447 287.898H503.117V292.232H507.447V287.898Z" fill="#F0F0F0"/>
<path d="M507.447 295.18H503.117V299.513H507.447V295.18Z" fill="#F0F0F0"/>
<path d="M507.447 302.457H503.117V306.79H507.447V302.457Z" fill="#F0F0F0"/>
<path d="M507.447 309.734H503.117V314.068H507.447V309.734Z" fill="#F0F0F0"/>
<path d="M507.447 331.402H503.117V335.736H507.447V331.402Z" fill="#F0F0F0"/>
<path d="M507.447 338.684H503.117V343.017H507.447V338.684Z" fill="#F0F0F0"/>
<path d="M507.447 345.961H503.117V350.294H507.447V345.961Z" fill="#F0F0F0"/>
<path d="M507.447 353.242H503.117V357.575H507.447V353.242Z" fill="#F0F0F0"/>
<path d="M507.447 374.906H503.117V379.239H507.447V374.906Z" fill="#F0F0F0"/>
<path d="M507.447 382.188H503.117V386.521H507.447V382.188Z" fill="#F0F0F0"/>
<path d="M507.447 389.465H503.117V393.798H507.447V389.465Z" fill="#F0F0F0"/>
<path d="M507.447 396.574H503.117V400.907H507.447V396.574Z" fill="#F0F0F0"/>
<path d="M507.447 403.855H503.117V408.189H507.447V403.855Z" fill="#F0F0F0"/>
<path d="M507.447 418.41H503.117V422.743H507.447V418.41Z" fill="#F0F0F0"/>
<path d="M507.447 425.516H503.117V429.849H507.447V425.516Z" fill="#F0F0F0"/>
<path d="M445.096 340.762H440.766V345.095H445.096V340.762Z" fill="#F0F0F0"/>
<path d="M445.096 348.043H440.766V352.376H445.096V348.043Z" fill="#F0F0F0"/>
<path d="M445.096 355.324H440.766V359.657H445.096V355.324Z" fill="#F0F0F0"/>
<path d="M445.096 362.602H440.766V366.935H445.096V362.602Z" fill="#F0F0F0"/>
<path d="M445.096 369.883H440.766V374.216H445.096V369.883Z" fill="#F0F0F0"/>
<path d="M445.096 376.988H440.766V381.321H445.096V376.988Z" fill="#F0F0F0"/>
<path d="M445.096 384.266H440.766V388.599H445.096V384.266Z" fill="#F0F0F0"/>
<path d="M445.096 406.105H440.766V410.439H445.096V406.105Z" fill="#F0F0F0"/>
<path d="M445.096 413.215H440.766V417.548H445.096V413.215Z" fill="#F0F0F0"/>
<path d="M445.096 420.492H440.766V424.825H445.096V420.492Z" fill="#F0F0F0"/>
<path d="M438.338 340.762H434.008V345.095H438.338V340.762Z" fill="#F0F0F0"/>
<path d="M438.338 348.043H434.008V352.376H438.338V348.043Z" fill="#F0F0F0"/>
<path d="M438.338 355.324H434.008V359.657H438.338V355.324Z" fill="#F0F0F0"/>
<path d="M438.338 362.602H434.008V366.935H438.338V362.602Z" fill="#F0F0F0"/>
<path d="M438.338 369.883H434.008V374.216H438.338V369.883Z" fill="#F0F0F0"/>
<path d="M438.338 376.988H434.008V381.321H438.338V376.988Z" fill="#F0F0F0"/>
<path d="M438.338 384.266H434.008V388.599H438.338V384.266Z" fill="#F0F0F0"/>
<path d="M431.412 340.762H427.082V345.095H431.412V340.762Z" fill="#F0F0F0"/>
<path d="M431.412 348.043H427.082V352.376H431.412V348.043Z" fill="#F0F0F0"/>
<path d="M431.412 355.324H427.082V359.657H431.412V355.324Z" fill="#F0F0F0"/>
<path d="M431.412 362.602H427.082V366.935H431.412V362.602Z" fill="#F0F0F0"/>
<path d="M431.412 369.883H427.082V374.216H431.412V369.883Z" fill="#F0F0F0"/>
<path d="M431.412 376.988H427.082V381.321H431.412V376.988Z" fill="#F0F0F0"/>
<path d="M431.412 384.266H427.082V388.599H431.412V384.266Z" fill="#F0F0F0"/>
<path d="M424.654 340.762H420.324V345.095H424.654V340.762Z" fill="#F0F0F0"/>
<path d="M424.654 348.043H420.324V352.376H424.654V348.043Z" fill="#F0F0F0"/>
<path d="M424.654 355.324H420.324V359.657H424.654V355.324Z" fill="#F0F0F0"/>
<path d="M424.654 362.602H420.324V366.935H424.654V362.602Z" fill="#F0F0F0"/>
<path d="M424.654 369.883H420.324V374.216H424.654V369.883Z" fill="#F0F0F0"/>
<path d="M424.654 376.988H420.324V381.321H424.654V376.988Z" fill="#F0F0F0"/>
<path d="M424.654 384.266H420.324V388.599H424.654V384.266Z" fill="#F0F0F0"/>
<path d="M424.654 391.547H420.324V395.88H424.654V391.547Z" fill="#F0F0F0"/>
<path d="M424.654 398.824H420.324V403.157H424.654V398.824Z" fill="#F0F0F0"/>
<path d="M424.654 406.105H420.324V410.439H424.654V406.105Z" fill="#F0F0F0"/>
<path d="M424.654 413.215H420.324V417.548H424.654V413.215Z" fill="#F0F0F0"/>
<path d="M417.725 340.762H413.395V345.095H417.725V340.762Z" fill="#F0F0F0"/>
<path d="M417.725 348.043H413.395V352.376H417.725V348.043Z" fill="#F0F0F0"/>
<path d="M417.725 355.324H413.395V359.657H417.725V355.324Z" fill="#F0F0F0"/>
<path d="M417.725 362.602H413.395V366.935H417.725V362.602Z" fill="#F0F0F0"/>
<path d="M417.725 369.883H413.395V374.216H417.725V369.883Z" fill="#F0F0F0"/>
<path d="M417.725 376.988H413.395V381.321H417.725V376.988Z" fill="#F0F0F0"/>
<path d="M417.725 384.266H413.395V388.599H417.725V384.266Z" fill="#F0F0F0"/>
<path d="M417.725 391.547H413.395V395.88H417.725V391.547Z" fill="#F0F0F0"/>
<path d="M417.725 398.824H413.395V403.157H417.725V398.824Z" fill="#F0F0F0"/>
<path d="M417.725 406.105H413.395V410.439H417.725V406.105Z" fill="#F0F0F0"/>
<path d="M417.725 413.215H413.395V417.548H417.725V413.215Z" fill="#F0F0F0"/>
<path d="M417.725 420.492H413.395V424.825H417.725V420.492Z" fill="#F0F0F0"/>
<path d="M417.725 442.328H413.395V446.661H417.725V442.328Z" fill="#F0F0F0"/>
<path d="M417.725 449.438H413.395V453.771H417.725V449.438Z" fill="#F0F0F0"/>
<path d="M410.799 340.762H406.469V345.095H410.799V340.762Z" fill="#F0F0F0"/>
<path d="M410.799 348.043H406.469V352.376H410.799V348.043Z" fill="#F0F0F0"/>
<path d="M410.799 355.324H406.469V359.657H410.799V355.324Z" fill="#F0F0F0"/>
<path d="M410.799 376.988H406.469V381.321H410.799V376.988Z" fill="#F0F0F0"/>
<path d="M410.799 384.266H406.469V388.599H410.799V384.266Z" fill="#F0F0F0"/>
<path d="M410.799 391.547H406.469V395.88H410.799V391.547Z" fill="#F0F0F0"/>
<path d="M410.799 398.824H406.469V403.157H410.799V398.824Z" fill="#F0F0F0"/>
<path d="M410.799 406.105H406.469V410.439H410.799V406.105Z" fill="#F0F0F0"/>
<path d="M410.799 413.215H406.469V417.548H410.799V413.215Z" fill="#F0F0F0"/>
<path d="M410.799 420.492H406.469V424.825H410.799V420.492Z" fill="#F0F0F0"/>
<path d="M410.799 442.328H406.469V446.661H410.799V442.328Z" fill="#F0F0F0"/>
<path d="M410.799 449.438H406.469V453.771H410.799V449.438Z" fill="#F0F0F0"/>
<path d="M410.799 456.715H406.469V461.048H410.799V456.715Z" fill="#F0F0F0"/>
<path d="M338.916 297.43H334.586V301.763H338.916V297.43Z" fill="#F0F0F0"/>
<path d="M338.916 304.711H334.586V309.044H338.916V304.711Z" fill="#F0F0F0"/>
<path d="M338.916 311.82H334.586V316.153H338.916V311.82Z" fill="#F0F0F0"/>
<path d="M338.916 319.098H334.586V323.431H338.916V319.098Z" fill="#F0F0F0"/>
<path d="M338.916 326.375H334.586V330.708H338.916V326.375Z" fill="#F0F0F0"/>
<path d="M338.916 333.656H334.586V337.989H338.916V333.656Z" fill="#F0F0F0"/>
<path d="M338.916 340.762H334.586V345.095H338.916V340.762Z" fill="#F0F0F0"/>
<path d="M338.916 348.043H334.586V352.376H338.916V348.043Z" fill="#F0F0F0"/>
<path d="M338.916 355.324H334.586V359.657H338.916V355.324Z" fill="#F0F0F0"/>
<path d="M338.916 362.602H334.586V366.935H338.916V362.602Z" fill="#F0F0F0"/>
<path d="M338.916 369.883H334.586V374.216H338.916V369.883Z" fill="#F0F0F0"/>
<path d="M338.916 376.988H334.586V381.321H338.916V376.988Z" fill="#F0F0F0"/>
<path d="M338.916 384.266H334.586V388.599H338.916V384.266Z" fill="#F0F0F0"/>
<path d="M338.916 391.547H334.586V395.88H338.916V391.547Z" fill="#F0F0F0"/>
<path d="M338.916 398.824H334.586V403.157H338.916V398.824Z" fill="#F0F0F0"/>
<path d="M338.916 406.105H334.586V410.439H338.916V406.105Z" fill="#F0F0F0"/>
<path d="M338.916 413.215H334.586V417.548H338.916V413.215Z" fill="#F0F0F0"/>
<path d="M338.916 420.492H334.586V424.825H338.916V420.492Z" fill="#F0F0F0"/>
<path d="M338.916 427.773H334.586V432.107H338.916V427.773Z" fill="#F0F0F0"/>
<path d="M338.916 435.051H334.586V439.384H338.916V435.051Z" fill="#F0F0F0"/>
<path d="M338.916 442.328H334.586V446.661H338.916V442.328Z" fill="#F0F0F0"/>
<path d="M338.916 449.438H334.586V453.771H338.916V449.438Z" fill="#F0F0F0"/>
<path d="M338.916 456.715H334.586V461.048H338.916V456.715Z" fill="#F0F0F0"/>
<path d="M332.162 297.43H327.832V301.763H332.162V297.43Z" fill="#F0F0F0"/>
<path d="M332.162 304.711H327.832V309.044H332.162V304.711Z" fill="#F0F0F0"/>
<path d="M332.162 311.82H327.832V316.153H332.162V311.82Z" fill="#F0F0F0"/>
<path d="M332.162 319.098H327.832V323.431H332.162V319.098Z" fill="#F0F0F0"/>
<path d="M332.162 326.375H327.832V330.708H332.162V326.375Z" fill="#F0F0F0"/>
<path d="M332.162 333.656H327.832V337.989H332.162V333.656Z" fill="#F0F0F0"/>
<path d="M332.162 340.762H327.832V345.095H332.162V340.762Z" fill="#F0F0F0"/>
<path d="M332.162 348.043H327.832V352.376H332.162V348.043Z" fill="#F0F0F0"/>
<path d="M332.162 355.324H327.832V359.657H332.162V355.324Z" fill="#F0F0F0"/>
<path d="M332.162 362.602H327.832V366.935H332.162V362.602Z" fill="#F0F0F0"/>
<path d="M332.162 369.883H327.832V374.216H332.162V369.883Z" fill="#F0F0F0"/>
<path d="M332.162 376.988H327.832V381.321H332.162V376.988Z" fill="#F0F0F0"/>
<path d="M332.162 384.266H327.832V388.599H332.162V384.266Z" fill="#F0F0F0"/>
<path d="M332.162 391.547H327.832V395.88H332.162V391.547Z" fill="#F0F0F0"/>
<path d="M332.162 398.824H327.832V403.157H332.162V398.824Z" fill="#F0F0F0"/>
<path d="M332.162 406.105H327.832V410.439H332.162V406.105Z" fill="#F0F0F0"/>
<path d="M332.162 413.215H327.832V417.548H332.162V413.215Z" fill="#F0F0F0"/>
<path d="M332.162 420.492H327.832V424.825H332.162V420.492Z" fill="#F0F0F0"/>
<path d="M332.162 427.773H327.832V432.107H332.162V427.773Z" fill="#F0F0F0"/>
<path d="M325.233 297.43H320.902V301.763H325.233V297.43Z" fill="#F0F0F0"/>
<path d="M325.233 304.711H320.902V309.044H325.233V304.711Z" fill="#F0F0F0"/>
<path d="M325.233 311.82H320.902V316.153H325.233V311.82Z" fill="#F0F0F0"/>
<path d="M325.233 319.098H320.902V323.431H325.233V319.098Z" fill="#F0F0F0"/>
<path d="M325.233 326.375H320.902V330.708H325.233V326.375Z" fill="#F0F0F0"/>
<path d="M325.233 333.656H320.902V337.989H325.233V333.656Z" fill="#F0F0F0"/>
<path d="M325.233 340.762H320.902V345.095H325.233V340.762Z" fill="#F0F0F0"/>
<path d="M325.233 348.043H320.902V352.376H325.233V348.043Z" fill="#F0F0F0"/>
<path d="M325.233 355.324H320.902V359.657H325.233V355.324Z" fill="#F0F0F0"/>
<path d="M325.233 362.602H320.902V366.935H325.233V362.602Z" fill="#F0F0F0"/>
<path d="M325.233 369.883H320.902V374.216H325.233V369.883Z" fill="#F0F0F0"/>
<path d="M325.233 376.988H320.902V381.321H325.233V376.988Z" fill="#F0F0F0"/>
<path d="M325.233 384.266H320.902V388.599H325.233V384.266Z" fill="#F0F0F0"/>
<path d="M325.233 391.547H320.902V395.88H325.233V391.547Z" fill="#F0F0F0"/>
<path d="M325.233 398.824H320.902V403.157H325.233V398.824Z" fill="#F0F0F0"/>
<path d="M325.233 406.105H320.902V410.439H325.233V406.105Z" fill="#F0F0F0"/>
<path d="M325.233 413.215H320.902V417.548H325.233V413.215Z" fill="#F0F0F0"/>
<path d="M325.233 420.492H320.902V424.825H325.233V420.492Z" fill="#F0F0F0"/>
<path d="M325.233 427.773H320.902V432.107H325.233V427.773Z" fill="#F0F0F0"/>
<path d="M318.479 297.43H314.148V301.763H318.479V297.43Z" fill="#F0F0F0"/>
<path d="M318.479 304.711H314.148V309.044H318.479V304.711Z" fill="#F0F0F0"/>
<path d="M318.479 311.82H314.148V316.153H318.479V311.82Z" fill="#F0F0F0"/>
<path d="M318.479 319.098H314.148V323.431H318.479V319.098Z" fill="#F0F0F0"/>
<path d="M318.479 326.375H314.148V330.708H318.479V326.375Z" fill="#F0F0F0"/>
<path d="M318.479 333.656H314.148V337.989H318.479V333.656Z" fill="#F0F0F0"/>
<path d="M318.479 340.762H314.148V345.095H318.479V340.762Z" fill="#F0F0F0"/>
<path d="M318.479 348.043H314.148V352.376H318.479V348.043Z" fill="#F0F0F0"/>
<path d="M318.479 355.324H314.148V359.657H318.479V355.324Z" fill="#F0F0F0"/>
<path d="M318.479 362.602H314.148V366.935H318.479V362.602Z" fill="#F0F0F0"/>
<path d="M318.479 369.883H314.148V374.216H318.479V369.883Z" fill="#F0F0F0"/>
<path d="M318.479 376.988H314.148V381.321H318.479V376.988Z" fill="#F0F0F0"/>
<path d="M318.479 384.266H314.148V388.599H318.479V384.266Z" fill="#F0F0F0"/>
<path d="M318.479 391.547H314.148V395.88H318.479V391.547Z" fill="#F0F0F0"/>
<path d="M318.479 398.824H314.148V403.157H318.479V398.824Z" fill="#F0F0F0"/>
<path d="M311.549 297.43H307.219V301.763H311.549V297.43Z" fill="#F0F0F0"/>
<path d="M311.549 304.711H307.219V309.044H311.549V304.711Z" fill="#F0F0F0"/>
<path d="M311.549 311.82H307.219V316.153H311.549V311.82Z" fill="#F0F0F0"/>
<path d="M311.549 319.098H307.219V323.431H311.549V319.098Z" fill="#F0F0F0"/>
<path d="M311.549 326.375H307.219V330.708H311.549V326.375Z" fill="#F0F0F0"/>
<path d="M311.549 333.656H307.219V337.989H311.549V333.656Z" fill="#F0F0F0"/>
<path d="M311.549 340.762H307.219V345.095H311.549V340.762Z" fill="#F0F0F0"/>
<path d="M311.549 348.043H307.219V352.376H311.549V348.043Z" fill="#F0F0F0"/>
<path d="M311.549 355.324H307.219V359.657H311.549V355.324Z" fill="#F0F0F0"/>
<path d="M311.549 362.602H307.219V366.935H311.549V362.602Z" fill="#F0F0F0"/>
<path d="M311.549 369.883H307.219V374.216H311.549V369.883Z" fill="#F0F0F0"/>
<path d="M311.549 376.988H307.219V381.321H311.549V376.988Z" fill="#F0F0F0"/>
<path d="M311.549 384.266H307.219V388.599H311.549V384.266Z" fill="#F0F0F0"/>
<path d="M304.795 297.43H300.465V301.763H304.795V297.43Z" fill="#F0F0F0"/>
<path d="M304.795 304.711H300.465V309.044H304.795V304.711Z" fill="#F0F0F0"/>
<path d="M304.795 311.82H300.465V316.153H304.795V311.82Z" fill="#F0F0F0"/>
<path d="M304.795 319.098H300.465V323.431H304.795V319.098Z" fill="#F0F0F0"/>
<path d="M304.795 326.375H300.465V330.708H304.795V326.375Z" fill="#F0F0F0"/>
<path d="M304.795 333.656H300.465V337.989H304.795V333.656Z" fill="#F0F0F0"/>
<path d="M304.795 340.762H300.465V345.095H304.795V340.762Z" fill="#F0F0F0"/>
<path d="M304.795 348.043H300.465V352.376H304.795V348.043Z" fill="#F0F0F0"/>
<path d="M304.795 355.324H300.465V359.657H304.795V355.324Z" fill="#F0F0F0"/>
<path d="M304.795 362.602H300.465V366.935H304.795V362.602Z" fill="#F0F0F0"/>
<path d="M304.795 369.883H300.465V374.216H304.795V369.883Z" fill="#F0F0F0"/>
<path d="M304.795 376.988H300.465V381.321H304.795V376.988Z" fill="#F0F0F0"/>
<path d="M704.904 295.18H700.574V299.513H704.904V295.18Z" fill="#F0F0F0"/>
<path d="M704.904 302.457H700.574V306.79H704.904V302.457Z" fill="#F0F0F0"/>
<path d="M704.904 309.734H700.574V314.068H704.904V309.734Z" fill="#F0F0F0"/>
<path d="M704.904 317.016H700.574V321.349H704.904V317.016Z" fill="#F0F0F0"/>
<path d="M704.904 324.121H700.574V328.454H704.904V324.121Z" fill="#F0F0F0"/>
<path d="M704.904 331.402H700.574V335.736H704.904V331.402Z" fill="#F0F0F0"/>
<path d="M704.904 338.684H700.574V343.017H704.904V338.684Z" fill="#F0F0F0"/>
<path d="M704.904 345.961H700.574V350.294H704.904V345.961Z" fill="#F0F0F0"/>
<path d="M704.904 353.242H700.574V357.575H704.904V353.242Z" fill="#F0F0F0"/>
<path d="M704.904 360.348H700.574V364.681H704.904V360.348Z" fill="#F0F0F0"/>
<path d="M704.904 367.625H700.574V371.958H704.904V367.625Z" fill="#F0F0F0"/>
<path d="M704.904 374.906H700.574V379.239H704.904V374.906Z" fill="#F0F0F0"/>
<path d="M704.904 382.188H700.574V386.521H704.904V382.188Z" fill="#F0F0F0"/>
<path d="M704.904 389.465H700.574V393.798H704.904V389.465Z" fill="#F0F0F0"/>
<path d="M704.904 396.574H700.574V400.907H704.904V396.574Z" fill="#F0F0F0"/>
<path d="M704.904 403.855H700.574V408.189H704.904V403.855Z" fill="#F0F0F0"/>
<path d="M704.904 411.133H700.574V415.466H704.904V411.133Z" fill="#F0F0F0"/>
<path d="M704.904 425.516H700.574V429.849H704.904V425.516Z" fill="#F0F0F0"/>
<path d="M704.904 432.797H700.574V437.13H704.904V432.797Z" fill="#F0F0F0"/>
<path d="M704.904 440.078H700.574V444.411H704.904V440.078Z" fill="#F0F0F0"/>
<path d="M704.904 447.355H700.574V451.689H704.904V447.355Z" fill="#F0F0F0"/>
<path d="M704.904 454.641H700.574V458.974H704.904V454.641Z" fill="#F0F0F0"/>
<path d="M698.147 295.18H693.816V299.513H698.147V295.18Z" fill="#F0F0F0"/>
<path d="M698.147 302.457H693.816V306.79H698.147V302.457Z" fill="#F0F0F0"/>
<path d="M698.147 309.734H693.816V314.068H698.147V309.734Z" fill="#F0F0F0"/>
<path d="M698.147 317.016H693.816V321.349H698.147V317.016Z" fill="#F0F0F0"/>
<path d="M698.147 324.121H693.816V328.454H698.147V324.121Z" fill="#F0F0F0"/>
<path d="M698.147 331.402H693.816V335.736H698.147V331.402Z" fill="#F0F0F0"/>
<path d="M698.147 338.684H693.816V343.017H698.147V338.684Z" fill="#F0F0F0"/>
<path d="M698.147 345.961H693.816V350.294H698.147V345.961Z" fill="#F0F0F0"/>
<path d="M698.147 353.242H693.816V357.575H698.147V353.242Z" fill="#F0F0F0"/>
<path d="M698.147 360.348H693.816V364.681H698.147V360.348Z" fill="#F0F0F0"/>
<path d="M698.147 367.625H693.816V371.958H698.147V367.625Z" fill="#F0F0F0"/>
<path d="M698.147 374.906H693.816V379.239H698.147V374.906Z" fill="#F0F0F0"/>
<path d="M698.147 382.188H693.816V386.521H698.147V382.188Z" fill="#F0F0F0"/>
<path d="M698.147 389.465H693.816V393.798H698.147V389.465Z" fill="#F0F0F0"/>
<path d="M698.147 396.574H693.816V400.907H698.147V396.574Z" fill="#F0F0F0"/>
<path d="M698.147 403.855H693.816V408.189H698.147V403.855Z" fill="#F0F0F0"/>
<path d="M698.147 447.355H693.816V451.689H698.147V447.355Z" fill="#F0F0F0"/>
<path d="M698.147 454.641H693.816V458.974H698.147V454.641Z" fill="#F0F0F0"/>
<path d="M691.221 295.18H686.891V299.513H691.221V295.18Z" fill="#F0F0F0"/>
<path d="M691.221 302.457H686.891V306.79H691.221V302.457Z" fill="#F0F0F0"/>
<path d="M691.221 309.734H686.891V314.068H691.221V309.734Z" fill="#F0F0F0"/>
<path d="M691.221 317.016H686.891V321.349H691.221V317.016Z" fill="#F0F0F0"/>
<path d="M691.221 324.121H686.891V328.454H691.221V324.121Z" fill="#F0F0F0"/>
<path d="M691.221 331.402H686.891V335.736H691.221V331.402Z" fill="#F0F0F0"/>
<path d="M691.221 338.684H686.891V343.017H691.221V338.684Z" fill="#F0F0F0"/>
<path d="M691.221 345.961H686.891V350.294H691.221V345.961Z" fill="#F0F0F0"/>
<path d="M691.221 353.242H686.891V357.575H691.221V353.242Z" fill="#F0F0F0"/>
<path d="M691.221 360.348H686.891V364.681H691.221V360.348Z" fill="#F0F0F0"/>
<path d="M691.221 367.625H686.891V371.958H691.221V367.625Z" fill="#F0F0F0"/>
<path d="M691.221 374.906H686.891V379.239H691.221V374.906Z" fill="#F0F0F0"/>
<path d="M691.221 382.188H686.891V386.521H691.221V382.188Z" fill="#F0F0F0"/>
<path d="M691.221 389.465H686.891V393.798H691.221V389.465Z" fill="#F0F0F0"/>
<path d="M691.221 396.574H686.891V400.907H691.221V396.574Z" fill="#F0F0F0"/>
<path d="M691.221 403.855H686.891V408.189H691.221V403.855Z" fill="#F0F0F0"/>
<path d="M691.221 418.41H686.891V422.743H691.221V418.41Z" fill="#F0F0F0"/>
<path d="M691.221 425.516H686.891V429.849H691.221V425.516Z" fill="#F0F0F0"/>
<path d="M691.221 432.797H686.891V437.13H691.221V432.797Z" fill="#F0F0F0"/>
<path d="M691.221 440.078H686.891V444.411H691.221V440.078Z" fill="#F0F0F0"/>
<path d="M691.221 454.641H686.891V458.974H691.221V454.641Z" fill="#F0F0F0"/>
<path d="M571.705 345.961H567.375V350.294H571.705V345.961Z" fill="#F0F0F0"/>
<path d="M571.705 353.242H567.375V357.575H571.705V353.242Z" fill="#F0F0F0"/>
<path d="M571.705 360.348H567.375V364.681H571.705V360.348Z" fill="#F0F0F0"/>
<path d="M571.705 367.625H567.375V371.958H571.705V367.625Z" fill="#F0F0F0"/>
<path d="M571.705 374.906H567.375V379.239H571.705V374.906Z" fill="#F0F0F0"/>
<path d="M571.705 382.188H567.375V386.521H571.705V382.188Z" fill="#F0F0F0"/>
<path d="M571.705 389.465H567.375V393.798H571.705V389.465Z" fill="#F0F0F0"/>
<path d="M571.705 396.574H567.375V400.907H571.705V396.574Z" fill="#F0F0F0"/>
<path d="M571.705 403.855H567.375V408.189H571.705V403.855Z" fill="#F0F0F0"/>
<path d="M571.705 411.133H567.375V415.466H571.705V411.133Z" fill="#F0F0F0"/>
<path d="M571.705 418.41H567.375V422.743H571.705V418.41Z" fill="#F0F0F0"/>
<path d="M571.705 425.516H567.375V429.849H571.705V425.516Z" fill="#F0F0F0"/>
<path d="M571.705 432.797H567.375V437.13H571.705V432.797Z" fill="#F0F0F0"/>
<path d="M571.705 447.355H567.375V451.689H571.705V447.355Z" fill="#F0F0F0"/>
<path d="M571.705 454.641H567.375V458.974H571.705V454.641Z" fill="#F0F0F0"/>
<path d="M571.705 461.746H567.375V466.079H571.705V461.746Z" fill="#F0F0F0"/>
<path d="M571.705 469.02H567.375V473.353H571.705V469.02Z" fill="#F0F0F0"/>
<path d="M571.705 483.586H567.375V487.919H571.705V483.586Z" fill="#F0F0F0"/>
<path d="M571.705 490.863H567.375V495.196H571.705V490.863Z" fill="#F0F0F0"/>
<path d="M571.705 497.969H567.375V502.302H571.705V497.969Z" fill="#F0F0F0"/>
<path d="M564.779 345.961H560.449V350.294H564.779V345.961Z" fill="#F0F0F0"/>
<path d="M564.779 353.242H560.449V357.575H564.779V353.242Z" fill="#F0F0F0"/>
<path d="M564.779 360.348H560.449V364.681H564.779V360.348Z" fill="#F0F0F0"/>
<path d="M564.779 367.625H560.449V371.958H564.779V367.625Z" fill="#F0F0F0"/>
<path d="M564.779 374.906H560.449V379.239H564.779V374.906Z" fill="#F0F0F0"/>
<path d="M564.779 382.188H560.449V386.521H564.779V382.188Z" fill="#F0F0F0"/>
<path d="M564.779 389.465H560.449V393.798H564.779V389.465Z" fill="#F0F0F0"/>
<path d="M564.779 396.574H560.449V400.907H564.779V396.574Z" fill="#F0F0F0"/>
<path d="M564.779 403.855H560.449V408.189H564.779V403.855Z" fill="#F0F0F0"/>
<path d="M564.779 411.133H560.449V415.466H564.779V411.133Z" fill="#F0F0F0"/>
<path d="M564.779 418.41H560.449V422.743H564.779V418.41Z" fill="#F0F0F0"/>
<path d="M564.779 425.516H560.449V429.849H564.779V425.516Z" fill="#F0F0F0"/>
<path d="M564.779 432.797H560.449V437.13H564.779V432.797Z" fill="#F0F0F0"/>
<path d="M564.779 454.641H560.449V458.974H564.779V454.641Z" fill="#F0F0F0"/>
<path d="M564.779 461.746H560.449V466.079H564.779V461.746Z" fill="#F0F0F0"/>
<path d="M564.779 476.301H560.449V480.634H564.779V476.301Z" fill="#F0F0F0"/>
<path d="M564.779 483.586H560.449V487.919H564.779V483.586Z" fill="#F0F0F0"/>
<path d="M564.779 490.863H560.449V495.196H564.779V490.863Z" fill="#F0F0F0"/>
<path d="M564.779 497.969H560.449V502.302H564.779V497.969Z" fill="#F0F0F0"/>
<path d="M557.854 345.961H553.523V350.294H557.854V345.961Z" fill="#F0F0F0"/>
<path d="M557.854 353.242H553.523V357.575H557.854V353.242Z" fill="#F0F0F0"/>
<path d="M557.854 360.348H553.523V364.681H557.854V360.348Z" fill="#F0F0F0"/>
<path d="M557.854 367.625H553.523V371.958H557.854V367.625Z" fill="#F0F0F0"/>
<path d="M557.854 374.906H553.523V379.239H557.854V374.906Z" fill="#F0F0F0"/>
<path d="M557.854 382.188H553.523V386.521H557.854V382.188Z" fill="#F0F0F0"/>
<path d="M557.854 389.465H553.523V393.798H557.854V389.465Z" fill="#F0F0F0"/>
<path d="M557.854 396.574H553.523V400.907H557.854V396.574Z" fill="#F0F0F0"/>
<path d="M557.854 403.855H553.523V408.189H557.854V403.855Z" fill="#F0F0F0"/>
<path d="M557.854 411.133H553.523V415.466H557.854V411.133Z" fill="#F0F0F0"/>
<path d="M557.854 418.41H553.523V422.743H557.854V418.41Z" fill="#F0F0F0"/>
<path d="M557.854 425.516H553.523V429.849H557.854V425.516Z" fill="#F0F0F0"/>
<path d="M557.854 432.797H553.523V437.13H557.854V432.797Z" fill="#F0F0F0"/>
<path d="M557.854 440.078H553.523V444.411H557.854V440.078Z" fill="#F0F0F0"/>
<path d="M557.854 454.641H553.523V458.974H557.854V454.641Z" fill="#F0F0F0"/>
<path d="M557.854 469.02H553.523V473.353H557.854V469.02Z" fill="#F0F0F0"/>
<path d="M557.854 476.301H553.523V480.634H557.854V476.301Z" fill="#F0F0F0"/>
<path d="M557.854 483.586H553.523V487.919H557.854V483.586Z" fill="#F0F0F0"/>
<path d="M557.854 490.863H553.523V495.196H557.854V490.863Z" fill="#F0F0F0"/>
<path d="M557.854 497.969H553.523V502.302H557.854V497.969Z" fill="#F0F0F0"/>
<path d="M599.592 387.219H595.262V391.552H599.592V387.219Z" fill="#F0F0F0"/>
<path d="M599.592 394.492H595.262V398.825H599.592V394.492Z" fill="#F0F0F0"/>
<path d="M599.592 401.773H595.262V406.107H599.592V401.773Z" fill="#F0F0F0"/>
<path d="M599.592 408.879H595.262V413.212H599.592V408.879Z" fill="#F0F0F0"/>
<path d="M599.592 416.156H595.262V420.489H599.592V416.156Z" fill="#F0F0F0"/>
<path d="M599.592 423.441H595.262V427.775H599.592V423.441Z" fill="#F0F0F0"/>
<path d="M599.592 445.109H595.262V449.443H599.592V445.109Z" fill="#F0F0F0"/>
<path d="M599.592 452.387H595.262V456.72H599.592V452.387Z" fill="#F0F0F0"/>
<path d="M599.592 459.664H595.262V463.997H599.592V459.664Z" fill="#F0F0F0"/>
<path d="M599.592 466.945H595.262V471.278H599.592V466.945Z" fill="#F0F0F0"/>
<path d="M599.592 474.223H595.262V478.556H599.592V474.223Z" fill="#F0F0F0"/>
<path d="M599.592 481.332H595.262V485.665H599.592V481.332Z" fill="#F0F0F0"/>
<path d="M599.592 488.613H595.262V492.946H599.592V488.613Z" fill="#F0F0F0"/>
<path d="M592.666 387.219H588.336V391.552H592.666V387.219Z" fill="#F0F0F0"/>
<path d="M592.666 394.492H588.336V398.825H592.666V394.492Z" fill="#F0F0F0"/>
<path d="M592.666 401.773H588.336V406.107H592.666V401.773Z" fill="#F0F0F0"/>
<path d="M592.666 408.879H588.336V413.212H592.666V408.879Z" fill="#F0F0F0"/>
<path d="M592.666 416.156H588.336V420.489H592.666V416.156Z" fill="#F0F0F0"/>
<path d="M592.666 423.441H588.336V427.775H592.666V423.441Z" fill="#F0F0F0"/>
<path d="M592.666 445.109H588.336V449.443H592.666V445.109Z" fill="#F0F0F0"/>
<path d="M592.666 452.387H588.336V456.72H592.666V452.387Z" fill="#F0F0F0"/>
<path d="M592.666 459.664H588.336V463.997H592.666V459.664Z" fill="#F0F0F0"/>
<path d="M592.666 466.945H588.336V471.278H592.666V466.945Z" fill="#F0F0F0"/>
<path d="M592.666 474.223H588.336V478.556H592.666V474.223Z" fill="#F0F0F0"/>
<path d="M592.666 481.332H588.336V485.665H592.666V481.332Z" fill="#F0F0F0"/>
<path d="M592.666 495.891H588.336V500.224H592.666V495.891Z" fill="#F0F0F0"/>
<path d="M364.897 355.324H360.566V359.657H364.897V355.324Z" fill="#F0F0F0"/>
<path d="M364.897 362.602H360.566V366.935H364.897V362.602Z" fill="#F0F0F0"/>
<path d="M364.897 369.883H360.566V374.216H364.897V369.883Z" fill="#F0F0F0"/>
<path d="M364.897 376.988H360.566V381.321H364.897V376.988Z" fill="#F0F0F0"/>
<path d="M364.897 384.266H360.566V388.599H364.897V384.266Z" fill="#F0F0F0"/>
<path d="M364.897 391.547H360.566V395.88H364.897V391.547Z" fill="#F0F0F0"/>
<path d="M364.897 398.824H360.566V403.157H364.897V398.824Z" fill="#F0F0F0"/>
<path d="M364.897 406.105H360.566V410.439H364.897V406.105Z" fill="#F0F0F0"/>
<path d="M364.897 413.215H360.566V417.548H364.897V413.215Z" fill="#F0F0F0"/>
<path d="M364.897 420.492H360.566V424.825H364.897V420.492Z" fill="#F0F0F0"/>
<path d="M364.897 427.773H360.566V432.107H364.897V427.773Z" fill="#F0F0F0"/>
<path d="M364.897 442.328H360.566V446.661H364.897V442.328Z" fill="#F0F0F0"/>
<path d="M364.897 449.438H360.566V453.771H364.897V449.438Z" fill="#F0F0F0"/>
<path d="M364.897 456.715H360.566V461.048H364.897V456.715Z" fill="#F0F0F0"/>
<path d="M364.897 463.996H360.566V468.329H364.897V463.996Z" fill="#F0F0F0"/>
<path d="M364.897 471.277H360.566V475.611H364.897V471.277Z" fill="#F0F0F0"/>
<path d="M364.897 478.383H360.566V482.716H364.897V478.383Z" fill="#F0F0F0"/>
<path d="M364.897 485.664H360.566V489.997H364.897V485.664Z" fill="#F0F0F0"/>
<path d="M364.897 492.941H360.566V497.275H364.897V492.941Z" fill="#F0F0F0"/>
<path d="M357.971 355.324H353.641V359.657H357.971V355.324Z" fill="#F0F0F0"/>
<path d="M357.971 362.602H353.641V366.935H357.971V362.602Z" fill="#F0F0F0"/>
<path d="M357.971 369.883H353.641V374.216H357.971V369.883Z" fill="#F0F0F0"/>
<path d="M357.971 376.988H353.641V381.321H357.971V376.988Z" fill="#F0F0F0"/>
<path d="M357.971 384.266H353.641V388.599H357.971V384.266Z" fill="#F0F0F0"/>
<path d="M357.971 391.547H353.641V395.88H357.971V391.547Z" fill="#F0F0F0"/>
<path d="M357.971 398.824H353.641V403.157H357.971V398.824Z" fill="#F0F0F0"/>
<path d="M357.971 406.105H353.641V410.439H357.971V406.105Z" fill="#F0F0F0"/>
<path d="M357.971 413.215H353.641V417.548H357.971V413.215Z" fill="#F0F0F0"/>
<path d="M357.971 420.492H353.641V424.825H357.971V420.492Z" fill="#F0F0F0"/>
<path d="M357.971 427.773H353.641V432.107H357.971V427.773Z" fill="#F0F0F0"/>
<path d="M357.971 435.051H353.641V439.384H357.971V435.051Z" fill="#F0F0F0"/>
<path d="M357.971 442.328H353.641V446.661H357.971V442.328Z" fill="#F0F0F0"/>
<path d="M357.971 449.438H353.641V453.771H357.971V449.438Z" fill="#F0F0F0"/>
<path d="M357.971 456.715H353.641V461.048H357.971V456.715Z" fill="#F0F0F0"/>
<path d="M357.971 463.996H353.641V468.329H357.971V463.996Z" fill="#F0F0F0"/>
<path d="M357.971 471.277H353.641V475.611H357.971V471.277Z" fill="#F0F0F0"/>
<path d="M357.971 478.383H353.641V482.716H357.971V478.383Z" fill="#F0F0F0"/>
<path d="M357.971 485.664H353.641V489.997H357.971V485.664Z" fill="#F0F0F0"/>
<path d="M357.971 492.941H353.641V497.275H357.971V492.941Z" fill="#F0F0F0"/>
<path d="M398.67 383.574H394.34V387.907H398.67V383.574Z" fill="#F0F0F0"/>
<path d="M398.67 390.855H394.34V395.189H398.67V390.855Z" fill="#F0F0F0"/>
<path d="M398.67 397.957H394.34V402.29H398.67V397.957Z" fill="#F0F0F0"/>
<path d="M398.67 405.238H394.34V409.571H398.67V405.238Z" fill="#F0F0F0"/>
<path d="M398.67 412.516H394.34V416.849H398.67V412.516Z" fill="#F0F0F0"/>
<path d="M398.67 419.801H394.34V424.134H398.67V419.801Z" fill="#F0F0F0"/>
<path d="M398.67 427.082H394.34V431.415H398.67V427.082Z" fill="#F0F0F0"/>
<path d="M398.67 434.184H394.34V438.517H398.67V434.184Z" fill="#F0F0F0"/>
<path d="M398.67 441.469H394.34V445.802H398.67V441.469Z" fill="#F0F0F0"/>
<path d="M398.67 448.746H394.34V453.079H398.67V448.746Z" fill="#F0F0F0"/>
<path d="M391.744 383.574H387.414V387.907H391.744V383.574Z" fill="#F0F0F0"/>
<path d="M391.744 390.855H387.414V395.189H391.744V390.855Z" fill="#F0F0F0"/>
<path d="M391.744 397.957H387.414V402.29H391.744V397.957Z" fill="#F0F0F0"/>
<path d="M391.744 405.238H387.414V409.571H391.744V405.238Z" fill="#F0F0F0"/>
<path d="M391.744 412.516H387.414V416.849H391.744V412.516Z" fill="#F0F0F0"/>
<path d="M391.744 419.801H387.414V424.134H391.744V419.801Z" fill="#F0F0F0"/>
<path d="M391.744 427.082H387.414V431.415H391.744V427.082Z" fill="#F0F0F0"/>
<path d="M391.744 434.184H387.414V438.517H391.744V434.184Z" fill="#F0F0F0"/>
<path d="M391.744 441.469H387.414V445.802H391.744V441.469Z" fill="#F0F0F0"/>
<path d="M432.622 108.68H425.348V512.704H432.622V108.68Z" fill="#E0E0E0"/>
<path d="M568.939 108.68H561.664V512.704H568.939V108.68Z" fill="#E0E0E0"/>
<path d="M705.251 108.68H697.977V512.704H705.251V108.68Z" fill="#E0E0E0"/>
<path d="M242.269 567.302H182.34V480.986C182.34 476.826 185.804 473.359 189.961 473.359H234.648C238.805 473.359 242.269 476.826 242.269 480.986V567.302Z" fill="#F0F0F0"/>
<path d="M242.269 486.012H182.34V492.771H242.269V486.012Z" fill="#E6E6E6"/>
<path d="M231.357 556.039H216.462C214.21 556.039 212.305 557.946 212.305 560.199V567.479H235.514V560.199C235.514 557.772 233.609 556.039 231.357 556.039Z" fill="#E0E0E0"/>
<path d="M235.515 567.301H218.887C217.502 567.301 216.289 566.088 216.289 564.701C216.289 563.315 217.502 562.102 218.887 562.102H235.515C236.901 562.102 238.113 563.315 238.113 564.701C238.286 566.088 237.074 567.301 235.515 567.301Z" fill="#E6E6E6"/>
<path d="M501.572 89.7059C523.543 84.5145 537.148 62.4829 531.96 40.4971C526.772 18.5113 504.756 4.89684 482.785 10.0883C460.815 15.2798 447.21 37.3113 452.397 59.2971C457.585 81.2829 479.602 94.8974 501.572 89.7059Z" fill="#E0E0E0"/>
<path d="M497.762 84.129C516.648 81.0619 529.472 63.2556 526.407 44.3575C523.342 25.4593 505.548 12.6257 486.663 15.6927C467.778 18.7598 454.953 36.5661 458.018 55.4642C461.083 74.3624 478.877 87.196 497.762 84.129Z" fill="#F0F0F0"/>
<path d="M493.77 26.1719V50.4376L509.878 41.2513" fill="#F0F0F0"/>
<path d="M493.77 26.1719V50.4376L509.878 41.2513" stroke="#E0E0E0" stroke-width="2" stroke-miterlimit="10" stroke-linecap="round" stroke-linejoin="round"/>
<path d="M101.801 448.398C98.6832 443.198 93.487 447.705 93.487 447.705C94.1798 437.825 85.173 431.065 85.173 431.065C85.173 431.065 95.7387 431.065 97.1243 421.012C98.51 410.959 93.487 415.639 88.6372 415.639C83.7874 415.639 78.7644 429.679 85.173 437.652C91.5817 445.625 89.8496 459.144 75.127 472.144C71.4897 475.263 69.0648 479.597 67.5059 484.103C68.5452 472.144 69.238 455.331 65.7738 444.065C59.8848 424.999 71.1433 419.799 74.4342 410.266C77.7251 400.733 65.7738 392.587 65.7738 392.587C65.7738 392.587 77.0323 387.387 71.4897 381.494C65.9471 375.601 54.6886 376.467 54.6886 384.094C54.6886 391.72 62.3097 394.667 62.3097 394.667C62.3097 394.667 71.1433 403.853 71.1433 408.533C71.1433 413.386 62.3097 423.612 62.3097 423.612C62.3097 423.612 66.2935 414.773 58.326 414.426C50.1852 414.079 47.7603 424.652 51.0512 429.505C54.3422 434.358 59.8848 430.199 59.8848 430.199C59.8848 430.199 60.5776 440.425 62.4829 446.665C63.3489 449.438 63.0025 460.184 62.3097 471.45C60.7508 467.464 58.3259 463.651 55.2082 460.877C40.4856 447.878 38.7535 434.358 45.1622 426.385C51.5709 418.412 46.5479 404.373 41.6981 404.373C36.8483 404.373 31.8253 399.693 33.2109 409.746C34.5966 419.799 45.1622 419.799 45.1622 419.799C45.1622 419.799 36.1554 426.559 36.8483 436.438C36.8483 436.438 31.6521 431.932 28.5343 437.132C22.9917 446.318 35.809 452.038 38.0607 447.531C38.0607 447.531 65.4274 466.944 58.8456 494.849L60.4044 497.103C60.2312 499.356 60.058 500.742 60.058 500.742L62.1365 499.876L64.5614 503.516C64.3882 510.449 65.2542 515.649 65.2542 515.649L71.8361 505.942C65.2542 478.037 92.6209 458.624 92.6209 458.624C94.5262 463.304 107.344 457.584 101.801 448.398Z" fill="#E0E0E0"/>
<path opacity="0.2" d="M101.801 448.398C98.6832 443.198 93.487 447.705 93.487 447.705C94.1798 437.825 85.173 431.065 85.173 431.065C85.173 431.065 95.7387 431.065 97.1243 421.012C98.51 410.959 93.487 415.639 88.6372 415.639C83.7874 415.639 78.7644 429.679 85.173 437.652C91.5817 445.625 89.8496 459.144 75.127 472.144C71.4897 475.263 69.0648 479.597 67.5059 484.103C68.5452 472.144 69.238 455.331 65.7738 444.065C59.8848 424.999 71.1433 419.799 74.4342 410.266C77.7251 400.733 65.7738 392.587 65.7738 392.587C65.7738 392.587 77.0323 387.387 71.4897 381.494C65.9471 375.601 54.6886 376.467 54.6886 384.094C54.6886 391.72 62.3097 394.667 62.3097 394.667C62.3097 394.667 71.1433 403.853 71.1433 408.533C71.1433 413.386 62.3097 423.612 62.3097 423.612C62.3097 423.612 66.2935 414.773 58.326 414.426C50.1852 414.079 47.7603 424.652 51.0512 429.505C54.3422 434.358 59.8848 430.199 59.8848 430.199C59.8848 430.199 60.5776 440.425 62.4829 446.665C63.3489 449.438 63.0025 460.184 62.3097 471.45C60.7508 467.464 58.3259 463.651 55.2082 460.877C40.4856 447.878 38.7535 434.358 45.1622 426.385C51.5709 418.412 46.5479 404.373 41.6981 404.373C36.8483 404.373 31.8253 399.693 33.2109 409.746C34.5966 419.799 45.1622 419.799 45.1622 419.799C45.1622 419.799 36.1554 426.559 36.8483 436.438C36.8483 436.438 31.6521 431.932 28.5343 437.132C22.9917 446.318 35.809 452.038 38.0607 447.531C38.0607 447.531 65.4274 466.944 58.8456 494.849L60.4044 497.103C60.2312 499.356 60.058 500.742 60.058 500.742L62.1365 499.876L64.5614 503.516C64.3882 510.449 65.2542 515.649 65.2542 515.649L71.8361 505.942C65.2542 478.037 92.6209 458.624 92.6209 458.624C94.5262 463.304 107.344 457.584 101.801 448.398Z" fill="#E0E0E0"/>
<path d="M96.4313 567.297H33.9035L27.1484 498.66H103.186L96.4313 567.297Z" fill="#E6E6E6"/>
<path d="M106.477 491.211H23.6836V506.29H106.477V491.211Z" fill="#F0F0F0"/>
<path d="M366.985 645.816C552.469 645.816 702.834 637.047 702.834 626.23C702.834 615.413 552.469 606.645 366.985 606.645C181.501 606.645 31.1367 615.413 31.1367 626.23C31.1367 637.047 181.501 645.816 366.985 645.816Z" fill="#F5F5F5"/>
<path d="M644.806 571.628C645.152 569.895 651.214 527.95 638.917 513.564C636.145 510.444 632.854 508.711 628.871 508.538C604.275 508.018 600.984 527.603 600.984 527.95L603.929 528.47C604.102 527.777 606.873 511.137 628.871 511.657C631.988 511.657 634.587 513.044 636.838 515.644C648.097 529.163 642.034 570.935 642.034 571.455L644.806 571.628Z" fill="#005DA4"/>
<path d="M646.368 569.725L649.313 569.551C649.313 569.205 648.273 531.073 667.153 523.1C685.513 515.3 693.827 531.246 694.173 531.939L696.771 530.553C696.598 530.379 686.899 511.487 665.941 520.326C645.329 529.166 646.368 567.991 646.368 569.725Z" fill="#005DA4"/>
<path d="M646.362 572.671C646.362 571.978 646.536 511.66 658.314 493.981C669.572 476.995 687.759 484.968 688.625 485.314L689.837 482.714C689.664 482.541 668.533 473.355 655.889 492.421C643.591 510.793 643.418 570.244 643.418 572.671H646.362Z" fill="#005DA4"/>
<path d="M625.408 509.925C625.408 509.925 636.146 513.911 632.855 523.271C629.565 532.631 595.789 547.883 595.789 547.883C595.789 547.883 581.586 534.884 594.577 513.738C607.914 492.592 625.234 503.339 625.408 509.925Z" fill="#005DA4"/>
<path d="M658.836 490.862C658.836 490.862 651.215 489.995 651.908 485.488C652.601 480.809 681.526 469.022 698.5 488.262C698.5 488.262 687.588 506.981 671.827 507.328C655.892 507.328 658.836 490.862 658.836 490.862Z" fill="#005DA4"/>
<path d="M666.629 521.715C666.629 521.715 661.432 517.555 666.975 515.475C672.691 513.395 700.404 513.915 700.75 541.474C700.75 541.474 668.361 546.847 664.377 536.448C660.393 525.875 666.629 521.715 666.629 521.715Z" fill="#005DA4"/>
<path opacity="0.2" d="M625.408 509.925C625.408 509.925 636.146 513.911 632.855 523.271C629.565 532.631 595.789 547.883 595.789 547.883C595.789 547.883 581.586 534.884 594.577 513.738C607.914 492.592 625.234 503.339 625.408 509.925Z" fill="black"/>
<path opacity="0.2" d="M658.836 490.862C658.836 490.862 651.215 489.995 651.908 485.488C652.601 480.809 681.526 469.022 698.5 488.262C698.5 488.262 687.588 506.981 671.827 507.328C655.892 507.328 658.836 490.862 658.836 490.862Z" fill="black"/>
<path opacity="0.2" d="M666.629 521.715C666.629 521.715 661.432 517.555 666.975 515.475C672.691 513.395 700.404 513.915 700.75 541.474C700.75 541.474 668.361 546.847 664.377 536.448C660.393 525.875 666.629 521.715 666.629 521.715Z" fill="black"/>
<path d="M619.69 627.62H669.92L675.289 572.676H614.32L619.69 627.62Z" fill="#005DA4"/>
<path opacity="0.5" d="M619.69 627.62H669.92L675.289 572.676H614.32L619.69 627.62Z" fill="white"/>
<path d="M611.759 578.711H678.098V566.578H611.759V578.711Z" fill="#005DA4"/>
<path opacity="0.2" d="M611.759 578.711H678.098V566.578H611.759V578.711Z" fill="white"/>
<path d="M562.879 588.269L512.995 583.416V513.219H493.25V583.416L443.193 588.269C438.17 588.789 434.359 592.949 434.359 597.975V605.428H501.217H504.855H571.713V597.975C571.713 592.949 567.902 588.789 562.879 588.269Z" fill="#263238"/>
<path opacity="0.2" d="M562.879 588.269L512.995 583.416V513.219H493.25V583.416L443.193 588.269C438.17 588.789 434.359 592.949 434.359 597.975V605.428H501.217H504.855H571.713V597.975C571.713 592.949 567.902 588.789 562.879 588.269Z" fill="white"/>
<path d="M439.729 627.788C446.903 627.788 452.719 621.968 452.719 614.789C452.719 607.609 446.903 601.789 439.729 601.789C432.554 601.789 426.738 607.609 426.738 614.789C426.738 621.968 432.554 627.788 439.729 627.788Z" fill="#263238"/>
<path d="M566.346 627.788C573.52 627.788 579.337 621.968 579.337 614.789C579.337 607.609 573.52 601.789 566.346 601.789C559.172 601.789 553.355 607.609 553.355 614.789C553.355 621.968 559.172 627.788 566.346 627.788Z" fill="#263238"/>
<path d="M509.184 528.296H496.887C492.903 528.296 489.785 525.003 489.785 521.19V465.898H516.459V521.19C516.459 525.003 513.168 528.296 509.184 528.296Z" fill="#263238"/>
<path opacity="0.3" d="M509.184 528.296H496.887C492.903 528.296 489.785 525.003 489.785 521.19V465.898H516.459V521.19C516.459 525.003 513.168 528.296 509.184 528.296Z" fill="white"/>
<path d="M550.41 356.008C550.41 356.008 554.221 449.604 528.066 465.724H557.858C557.858 465.724 580.895 433.831 574.313 356.008H550.41Z" fill="#263238"/>
<path opacity="0.3" d="M550.41 356.008C550.41 356.008 554.221 449.604 528.066 465.724H557.858C557.858 465.724 580.895 433.831 574.313 356.008H550.41Z" fill="white"/>
<path d="M443.367 452.555H559.243C564.093 452.555 567.903 456.368 567.903 461.221V472.834H434.707V461.221C434.707 456.541 438.691 452.555 443.367 452.555Z" fill="#263238"/>
<path d="M432.624 462.781H569.978C571.883 462.781 573.442 464.341 573.442 466.248V469.368C573.442 471.274 571.883 472.834 569.978 472.834H432.624C430.719 472.834 429.16 471.274 429.16 469.368V466.248C429.16 464.341 430.719 462.781 432.624 462.781Z" fill="#263238"/>
<path opacity="0.6" d="M432.624 462.781H569.978C571.883 462.781 573.442 464.341 573.442 466.248V469.368C573.442 471.274 571.883 472.834 569.978 472.834H432.624C430.719 472.834 429.16 471.274 429.16 469.368V466.248C429.16 464.341 430.719 462.781 432.624 462.781Z" fill="white"/>
<path d="M581.76 375.077H534.128C520.098 375.077 508.84 363.811 508.84 349.771V331.052C508.84 317.012 520.098 305.746 534.128 305.746H581.76C595.79 305.746 607.048 317.012 607.048 331.052V349.771C606.875 363.637 595.617 375.077 581.76 375.077Z" fill="#263238"/>
<path d="M389.672 229.312L380.145 204.18C380.145 204.18 384.302 200.366 381.358 196.553C378.587 192.74 361.093 181.994 357.802 183.9C354.684 185.807 347.583 192.913 351.393 196.9C355.204 200.886 372.178 207.473 372.178 207.473L380.665 240.405L389.672 229.312Z" fill="#FFBF9D"/>
<path d="M456.013 276.976C456.013 276.976 412.711 268.136 408.035 265.883C403.358 263.803 385.864 212.672 385.864 212.672L372.527 218.912C372.527 218.912 383.266 270.043 394.178 282.349C405.09 294.482 452.029 304.882 452.029 304.882L456.013 276.976Z" fill="#005DA4"/>
<path opacity="0.2" d="M452.201 304.882C452.201 304.882 451.855 304.882 451.335 304.708C448.91 304.188 441.636 302.455 432.802 299.855C418.599 295.695 400.586 289.456 394.35 282.349C383.438 270.216 372.699 218.912 372.699 218.912L386.036 212.672C386.036 212.672 403.53 263.63 408.207 265.883C412.883 267.963 456.185 276.976 456.185 276.976L452.201 304.882Z" fill="black"/>
<path d="M386.208 211.805L388.98 217.178L371.832 223.071L372.352 216.658L386.208 211.805Z" fill="#005DA4"/>
<path opacity="0.2" d="M452.544 304.188C450.119 303.841 442.671 302.628 433.664 300.721C438.86 291.881 453.756 287.375 453.756 287.375L452.544 304.188Z" fill="black"/>
<path d="M516.977 241.792C516.977 241.792 519.575 265.711 510.568 271.604C501.735 277.497 458.087 270.564 453.064 261.031C448.041 251.325 466.747 225.152 466.747 225.152L516.977 241.792Z" fill="#263238"/>
<path d="M340.309 557.071L351.74 559.844L357.456 544.072L362.652 529.859L349.662 524.312L344.639 541.645L340.309 557.071Z" fill="#FFBF9D"/>
<path opacity="0.2" d="M344.637 541.645L357.454 544.072L362.65 529.859L349.66 524.312L344.637 541.645Z" fill="black"/>
<path d="M345.852 533.328L361.613 539.221C361.613 539.221 403.703 433.839 412.363 433.492C421.023 433.145 509.186 473.704 531.356 451.171C553.527 428.639 521.484 374.561 521.484 374.561C521.484 374.561 468.309 366.935 464.325 379.068C463.459 381.321 462.766 386.001 462.073 389.814C461.381 393.454 461.034 396.574 461.034 396.574C459.475 396.227 405.954 382.361 384.996 396.574C363.692 410.96 345.852 533.328 345.852 533.328Z" fill="#005DA4"/>
<path opacity="0.6" d="M345.852 533.328L361.613 539.221C361.613 539.221 403.703 433.839 412.363 433.492C421.023 433.145 509.186 473.704 531.356 451.171C553.527 428.639 521.484 374.561 521.484 374.561C521.484 374.561 468.309 366.935 464.325 379.068C463.459 381.321 462.766 386.001 462.073 389.814C461.381 393.454 461.034 396.574 461.034 396.574C459.475 396.227 405.954 382.361 384.996 396.574C363.692 410.96 345.852 533.328 345.852 533.328Z" fill="white"/>
<path d="M436.78 602.137L448.038 599.191L445.96 582.898L443.881 567.992L429.852 569.205L433.489 586.711L436.78 602.137Z" fill="#FFBF9D"/>
<path opacity="0.2" d="M433.489 587.057L445.96 583.243L443.881 568.164L429.852 569.377L433.489 587.057Z" fill="black"/>
<path d="M368.193 533.327L345.156 525.527L344.117 535.06L361.611 541.127L368.193 533.327Z" fill="#005DA4"/>
<path d="M493.249 456.543C493.249 456.543 489.612 456.543 433.839 453.943C433.839 453.943 442.153 523.62 446.656 575.965L430.029 578.738C430.029 578.738 390.191 466.943 390.537 449.09C390.884 431.237 411.322 426.211 411.322 426.211C411.322 426.211 451.16 449.263 493.249 456.543Z" fill="#005DA4"/>
<path opacity="0.6" d="M493.249 456.543C493.249 456.543 489.612 456.543 433.839 453.943C433.839 453.943 442.153 523.62 446.656 575.965L430.029 578.738C430.029 578.738 390.191 466.943 390.537 449.09C390.884 431.237 411.322 426.211 411.322 426.211C411.322 426.211 451.16 449.263 493.249 456.543Z" fill="white"/>
<path opacity="0.1" d="M493.249 456.543C493.249 456.543 489.612 456.543 433.839 453.943C433.839 453.943 442.153 523.62 446.656 575.965L430.029 578.738C430.029 578.738 390.191 466.943 390.537 449.09C390.884 431.237 411.322 426.211 411.322 426.211C411.322 426.211 451.16 449.263 493.249 456.543Z" fill="black"/>
<path d="M449.255 570.938L426.219 573.537L430.722 582.55L449.255 580.124V570.938Z" fill="#005DA4"/>
<path opacity="0.1" d="M461.031 396.4L492.209 402.813C492.209 402.813 475.061 393.28 462.071 389.641C461.551 393.28 461.031 396.4 461.031 396.4Z" fill="black"/>
<path d="M520.269 366.234L521.482 374.381L464.323 378.887L462.938 369.008L520.269 366.234Z" fill="#263238"/>
<path opacity="0.2" d="M520.269 366.234L521.482 374.381L464.323 378.887L462.938 369.008L520.269 366.234Z" fill="black"/>
<path d="M502.204 379.967L504.961 379.684L503.49 365.372L500.733 365.656L502.204 379.967Z" fill="#005DA4"/>
<path d="M476.879 378.617L489.324 377.816L488.713 368.303L476.269 369.104L476.879 378.617Z" fill="white"/>
<path d="M467.267 381.67L470.023 381.387L468.553 367.077L465.796 367.361L467.267 381.67Z" fill="#005DA4"/>
<path opacity="0.6" d="M502.204 379.967L504.961 379.684L503.49 365.372L500.733 365.656L502.204 379.967Z" fill="white"/>
<path opacity="0.6" d="M467.267 381.67L470.023 381.387L468.553 367.077L465.796 367.361L467.267 381.67Z" fill="white"/>
<path d="M454.97 276.285C454.97 276.285 469.519 280.792 487.879 279.925C506.239 279.058 528.063 287.898 528.063 287.898L520.269 366.242L462.937 369.188C462.937 369.015 443.538 303.671 454.97 276.285Z" fill="#005DA4"/>
<path d="M464.148 232.084C464.148 232.084 467.439 194.126 499.136 207.818C538.974 225.151 507.277 271.429 487.878 262.07C468.305 252.537 464.148 232.084 464.148 232.084Z" fill="#263238"/>
<path opacity="0.2" d="M472.98 282.002L473.847 303.495L480.948 293.442C480.948 293.442 478.35 317.188 479.909 330.187C479.909 330.187 481.294 306.961 484.412 293.442L492.033 303.495L502.945 282.176C503.118 282.176 485.451 275.763 472.98 282.002Z" fill="black"/>
<path d="M482.855 285.99L499.31 281.31C489.264 274.377 494.287 258.777 494.287 258.777L478.005 264.497C478.871 267.27 479.391 269.524 479.738 271.43C481.47 281.656 476.793 282.35 476.793 282.35L482.855 285.99Z" fill="#FFBF9D"/>
<path opacity="0.2" d="M478.004 264.497C478.87 267.27 479.39 269.524 479.736 271.43C487.53 268.31 494.285 258.777 494.285 258.777L478.004 264.497Z" fill="black"/>
<path d="M488.748 215.794C474.372 212.674 467.963 219.26 463.633 233.993C458.263 252.192 459.476 266.405 478.355 266.405C503.99 266.405 512.65 221.167 488.748 215.794Z" fill="#FFBF9D"/>
<path d="M472.984 235.207C472.984 235.207 470.213 238.5 467.441 240.234C467.441 240.234 468.307 242.487 470.906 242.66L472.984 235.207Z" fill="#DE5753"/>
<path d="M482.165 235.9C481.819 237.113 482.338 238.153 483.031 238.327C483.897 238.5 484.763 237.807 484.936 236.593C485.283 235.38 484.763 234.34 484.07 234.167C483.377 233.993 482.511 234.86 482.165 235.9Z" fill="#263238"/>
<path d="M484.416 234.342L482.164 232.782C482.164 232.608 482.857 235.209 484.416 234.342Z" fill="#263238"/>
<path d="M467.614 232.084C467.268 233.297 467.787 234.337 468.48 234.51C469.346 234.684 470.212 233.99 470.385 232.777C470.732 231.564 470.212 230.524 469.519 230.351C468.653 230.177 467.787 230.871 467.614 232.084Z" fill="#263238"/>
<path d="M469.866 230.527L467.441 228.793C467.441 228.793 468.307 231.22 469.866 230.527Z" fill="#263238"/>
<path d="M484.418 226.023C484.418 226.023 488.575 226.37 490.134 229.664" stroke="#263238" stroke-width="0.7247" stroke-miterlimit="10" stroke-linecap="round" stroke-linejoin="round"/>
<path d="M474.199 223.076C474.199 223.076 471.947 221.517 468.137 223.076" stroke="#263238" stroke-width="0.7247" stroke-miterlimit="10" stroke-linecap="round" stroke-linejoin="round"/>
<path d="M498.967 243.529C498.967 243.529 494.81 230.183 497.928 221.343C497.928 221.343 471.947 203.317 464.152 232.089C464.152 232.089 467.097 205.744 492.039 210.597C516.981 215.45 508.84 251.848 493.598 259.821C493.598 259.648 501.565 251.848 498.967 243.529Z" fill="#263238"/>
<path d="M496.02 246.124C496.713 243.87 499.831 240.404 504.161 241.79C508.491 243.35 508.664 252.883 497.059 252.71C495.327 252.71 494.808 250.977 496.02 246.124Z" fill="#FFBF9D"/>
<path d="M468.484 248.21C469.004 250.117 469.177 253.584 469.177 253.584C469.524 253.584 469.87 253.584 470.043 253.757C474.373 254.103 476.452 252.89 477.491 251.33C478.011 250.464 478.357 249.597 478.357 248.904C478.53 248.037 478.357 247.344 478.357 247.344C475.932 248.557 471.948 248.557 469.697 248.384C469.004 248.21 468.484 248.21 468.484 248.21Z" fill="#263238"/>
<path d="M469.871 248.212L470.218 249.772C474.201 250.119 477.146 249.772 478.531 248.732C478.705 247.865 478.531 247.172 478.531 247.172C476.107 248.385 471.95 248.385 469.871 248.212Z" fill="white"/>
<path d="M470.043 253.587C474.373 253.934 476.452 252.721 477.491 251.16C476.105 251.16 474.2 251.16 472.641 251.68C471.429 252.2 470.736 252.894 470.043 253.587Z" fill="#DE5753"/>
<path d="M488.747 217.009C488.747 217.009 489.266 241.968 504.335 245.088C519.404 248.035 502.95 212.85 502.95 212.85C502.95 212.85 480.606 198.29 465.71 208.516C450.815 218.743 464.151 232.089 464.151 232.089C464.151 232.089 467.269 213.37 488.747 217.009Z" fill="#263238"/>
<path d="M489.267 215.273C489.267 215.273 483.897 231.046 494.463 239.366" stroke="#263238" stroke-width="0.5" stroke-miterlimit="10" stroke-linecap="round" stroke-linejoin="round"/>
<path d="M508.664 250.112C506.758 255.139 501.909 258.085 497.752 256.526C493.595 254.966 491.863 249.592 493.768 244.566C495.673 239.54 500.523 236.593 504.68 238.153C508.837 239.713 510.569 245.086 508.664 250.112Z" fill="#005DA4"/>
<path opacity="0.4" d="M508.664 250.112C506.758 255.139 501.909 258.085 497.752 256.526C493.595 254.966 491.863 249.592 493.768 244.566C495.673 239.54 500.523 236.593 504.68 238.153C508.837 239.713 510.569 245.086 508.664 250.112Z" fill="black"/>
<path d="M503.814 241.791C503.814 241.791 510.049 213.885 496.02 206.605C496.02 206.605 498.964 206.952 500.696 207.472C502.428 207.992 513.687 219.258 507.971 244.391L503.814 241.791Z" fill="#005DA4"/>
<path opacity="0.2" d="M503.814 241.791C503.814 241.791 510.049 213.885 496.02 206.605C496.02 206.605 498.964 206.952 500.696 207.472C502.428 207.992 513.687 219.258 507.971 244.391L503.814 241.791Z" fill="black"/>
<path d="M477.664 257.739C477.318 257.739 476.971 257.565 476.625 257.565L476.971 255.832C489.442 257.912 498.796 251.152 498.969 251.152L500.008 252.539C499.662 252.886 490.482 259.472 477.664 257.739Z" fill="#005DA4"/>
<g opacity="0.2">
<path d="M477.664 257.739C477.318 257.739 476.971 257.565 476.625 257.565L476.971 255.832C489.442 257.912 498.796 251.152 498.969 251.152L500.008 252.539C499.662 252.886 490.482 259.472 477.664 257.739Z" fill="black"/>
</g>
<path d="M508.144 249.422C506.931 252.715 503.64 254.621 500.869 253.581C498.098 252.541 496.885 249.075 498.271 245.608C499.484 242.315 502.774 240.409 505.546 241.449C508.144 242.489 509.356 246.128 508.144 249.422Z" fill="#005DA4"/>
<path d="M476.276 258.259L474.89 258.085C473.851 257.912 473.158 257.045 473.331 256.005C473.504 254.965 474.37 254.271 475.41 254.445L476.795 254.618C477.835 254.791 478.527 255.658 478.354 256.698C478.181 257.739 477.315 258.432 476.276 258.259Z" fill="#005DA4"/>
<path opacity="0.4" d="M476.276 258.259L474.89 258.085C473.851 257.912 473.158 257.045 473.331 256.005C473.504 254.965 474.37 254.271 475.41 254.445L476.795 254.618C477.835 254.791 478.527 255.658 478.354 256.698C478.181 257.739 477.315 258.432 476.276 258.259Z" fill="black"/>
<path d="M494.982 275.418L484.59 285.471L488.747 297.95L503.123 282.178L494.982 275.418Z" fill="#005DA4"/>
<path d="M480.082 277.496L481.641 285.296L476.445 296.389L472.98 282.003L480.082 277.496Z" fill="#005DA4"/>
<path d="M492.73 284.257L498.793 262.418C498.793 262.418 495.848 257.045 496.541 255.832C497.234 254.618 500.352 240.059 502.43 238.326C504.682 236.766 513.688 239.539 514.728 240.926C515.594 242.486 506.067 262.418 506.067 262.418L502.603 286.164L492.73 284.257Z" fill="#FFBF9D"/>
<path d="M528.065 287.897C544.52 304.709 511.611 342.841 492.731 341.281C473.851 339.721 493.251 270.391 493.251 270.391L505.375 272.297C505.375 272.297 501.045 302.283 502.431 304.536C503.816 307.136 522.696 282.177 528.065 287.897Z" fill="#005DA4"/>
<path opacity="0.2" d="M528.065 287.897C544.52 304.709 511.611 342.841 492.731 341.281C473.851 339.721 493.251 270.391 493.251 270.391L505.375 272.297C505.375 272.297 501.045 302.283 502.431 304.536C503.816 307.136 522.696 282.177 528.065 287.897Z" fill="black"/>
<path d="M492.209 268.137L490.477 273.857L507.278 275.416V270.39L492.209 268.137Z" fill="#005DA4"/>
<path opacity="0.6" d="M466.75 329.15H459.995C459.302 329.15 458.609 328.457 458.609 327.764V314.937C458.609 314.244 459.302 313.551 459.995 313.551H466.75C467.443 313.551 468.136 314.244 468.136 314.937V327.764C467.963 328.457 467.443 329.15 466.75 329.15Z" fill="white"/>
<path opacity="0.2" d="M466.923 314.418H459.129V324.991H466.923V314.418Z" fill="black"/>
<path d="M463.978 309.738H462.246V315.978H463.978V309.738Z" fill="#263238"/>
<path d="M321.427 579.26C323.159 578.393 325.064 578.046 326.969 577.873C326.969 577.873 333.551 574.06 340.133 558.98H347.408C350.006 558.98 352.258 560.54 353.124 562.967C353.297 563.313 353.297 563.66 353.297 564.007C353.297 565.74 352.95 567.473 352.777 569.38C352.084 574.926 348.447 586.713 348.447 586.713L347.235 586.366L349.486 575.446C350.179 571.806 346.369 575.273 344.463 579.086C342.731 582.899 339.787 586.539 331.819 584.806C322.293 582.379 318.482 580.993 321.427 579.26Z" fill="#005DA4"/>
<path d="M341.345 554.993C341.345 554.993 332.165 574.232 326.969 577.872C326.969 577.872 334.07 582.032 341.345 572.672C350.871 560.539 353.123 564.006 353.123 564.006C353.123 564.006 352.777 559.846 351.911 557.766C350.698 553.953 341.345 554.993 341.345 554.993Z" fill="#FFBF9D"/>
<path d="M422.233 625.017C423.792 623.803 425.351 622.937 427.256 622.417C427.256 622.417 432.799 617.044 435.57 600.924L442.672 599.191C445.097 598.671 447.695 599.711 449.081 601.791C449.254 602.138 449.427 602.311 449.6 602.658C449.947 604.391 450.12 606.124 450.293 607.857C450.986 613.404 450.293 625.71 450.293 625.71H449.081L448.734 614.617C448.561 610.804 445.616 615.31 444.75 619.297C443.884 623.457 442.152 627.617 433.838 627.79C423.792 627.79 419.809 627.27 422.233 625.017Z" fill="#005DA4"/>
<path d="M435.918 596.593C435.918 596.593 431.588 617.392 427.258 622.246C427.258 622.246 435.052 624.672 440.075 613.753C446.484 599.713 449.428 602.486 449.428 602.486C449.428 602.486 448.043 598.5 446.83 596.767C444.579 593.3 435.918 596.593 435.918 596.593Z" fill="#FFBF9D"/>
<path d="M597.002 220.646H536.552C531.703 220.646 527.719 216.659 527.719 211.806V185.98C527.719 181.127 531.703 177.141 536.552 177.141H597.002C601.851 177.141 605.835 181.127 605.835 185.98V211.806C605.662 216.659 601.851 220.646 597.002 220.646Z" fill="#005DA4"/>
<path d="M548.676 215.621L530.316 240.407L559.762 217.354L548.676 215.621Z" fill="#005DA4"/>
<path d="M549.196 198.803C549.196 200.19 547.984 201.403 546.598 201.403C545.212 201.403 544 200.19 544 198.803C544 197.416 545.212 196.203 546.598 196.203C548.157 196.376 549.196 197.416 549.196 198.803Z" fill="white"/>
<path d="M562.532 198.803C562.532 200.19 561.32 201.403 559.934 201.403C558.548 201.403 557.336 200.19 557.336 198.803C557.336 197.416 558.548 196.203 559.934 196.203C561.32 196.203 562.532 197.416 562.532 198.803Z" fill="white"/>
<path d="M575.872 198.803C575.872 200.19 574.66 201.403 573.274 201.403C571.888 201.403 570.676 200.19 570.676 198.803C570.676 197.416 571.888 196.203 573.274 196.203C574.833 196.376 575.872 197.416 575.872 198.803Z" fill="white"/>
<path d="M589.208 198.803C589.208 200.19 587.995 201.403 586.61 201.403C585.224 201.403 584.012 200.19 584.012 198.803C584.012 197.416 585.224 196.203 586.61 196.203C588.169 196.376 589.208 197.416 589.208 198.803Z" fill="white"/>
<path d="M353.82 186.498L310.691 163.273C309.479 162.579 309.132 161.193 309.652 159.98L323.335 134.501C324.028 133.287 325.414 132.941 326.626 133.461L369.755 156.686C370.967 157.38 371.314 158.766 370.794 159.98L357.111 185.459C356.418 186.672 355.032 187.018 353.82 186.498Z" fill="#005DA4"/>
<path opacity="0.7" d="M353.82 186.498L310.691 163.273C309.479 162.579 309.132 161.193 309.652 159.98L323.335 134.501C324.028 133.287 325.414 132.941 326.626 133.461L369.755 156.686C370.967 157.38 371.314 158.766 370.794 159.98L357.111 185.459C356.418 186.672 355.032 187.018 353.82 186.498Z" fill="white"/>
<path opacity="0.2" d="M322.469 136.406L335.979 161.539C337.018 163.445 339.097 164.658 341.348 164.485L369.408 161.712L340.829 165.872C338.231 166.218 335.806 164.832 334.593 162.579L322.469 136.406Z" fill="black"/>
<path d="M289.557 131.726C290.077 122.02 297.178 102.607 305.839 96.7144C314.499 90.8213 308.783 98.9676 308.783 98.9676C308.783 98.9676 316.924 90.9946 321.427 91.1679C325.757 91.3413 321.427 96.3677 321.427 96.3677C321.427 96.3677 330.261 90.8213 334.418 91.1679C338.575 91.3413 334.418 96.1944 334.418 96.1944C334.418 96.1944 341.692 90.9946 344.637 93.4212C347.582 96.0211 306.705 122.887 302.201 133.806C297.698 145.072 289.211 141.606 289.557 131.726Z" fill="#005DA4"/>
<path opacity="0.4" d="M289.557 131.726C290.077 122.02 297.178 102.607 305.839 96.7144C314.499 90.8213 308.783 98.9676 308.783 98.9676C308.783 98.9676 316.924 90.9946 321.427 91.1679C325.757 91.3413 321.427 96.3677 321.427 96.3677C321.427 96.3677 330.261 90.8213 334.418 91.1679C338.575 91.3413 334.418 96.1944 334.418 96.1944C334.418 96.1944 341.692 90.9946 344.637 93.4212C347.582 96.0211 306.705 122.887 302.201 133.806C297.698 145.072 289.211 141.606 289.557 131.726Z" fill="white"/>
<path d="M324.723 130.34L330.266 133.806C330.612 133.98 330.439 134.673 329.92 134.673L324.204 134.153L324.723 138.486C324.723 139.006 324.204 139.18 323.857 138.833L320.566 135.02L324.723 130.34Z" fill="#005DA4"/>
<path opacity="0.3" d="M324.723 130.34L330.266 133.806C330.612 133.98 330.439 134.673 329.92 134.673L324.204 134.153L324.723 138.486C324.723 139.006 324.204 139.18 323.857 138.833L320.566 135.02L324.723 130.34Z" fill="white"/>
<path d="M248.164 108.671C248.164 108.671 255.785 103.471 267.044 106.765C267.044 106.765 270.335 121.844 279.341 126.871C284.191 129.644 296.316 129.47 305.842 126.351C317.274 122.711 322.816 122.711 324.722 126.871C326.627 130.857 324.548 135.537 315.888 137.617C307.228 139.697 300.299 154.776 284.538 154.949C268.776 155.123 260.462 139.35 264.446 125.484C264.619 125.484 259.769 115.258 248.164 108.671Z" fill="#005DA4"/>
<path opacity="0.5" d="M248.164 108.671C248.164 108.671 255.785 103.471 267.044 106.765C267.044 106.765 270.335 121.844 279.341 126.871C284.191 129.644 296.316 129.47 305.842 126.351C317.274 122.711 322.816 122.711 324.722 126.871C326.627 130.857 324.548 135.537 315.888 137.617C307.228 139.697 300.299 154.776 284.538 154.949C268.776 155.123 260.462 139.35 264.446 125.484C264.619 125.484 259.769 115.258 248.164 108.671Z" fill="white"/>
<path d="M320.565 129.821C320.565 130.167 320.219 130.514 319.873 130.514C319.526 130.514 319.18 130.167 319.18 129.821C319.18 129.474 319.526 129.127 319.873 129.127C320.219 128.954 320.565 129.301 320.565 129.821Z" fill="#263238"/>
<path d="M281.073 142.472C271.72 145.071 251.108 144.205 242.794 137.792C234.481 131.379 244.007 134.325 244.007 134.325C244.007 134.325 233.788 128.952 232.748 124.792C231.709 120.632 237.771 123.232 237.771 123.232C237.771 123.232 229.804 116.473 228.765 112.486C227.725 108.5 233.615 110.926 233.615 110.926C233.615 110.926 226.34 105.553 227.899 101.913C229.458 98.2733 267.563 128.952 279.514 129.819C291.119 130.685 290.426 139.872 281.073 142.472Z" fill="#005DA4"/>
<path opacity="0.4" d="M281.073 142.472C271.72 145.071 251.108 144.205 242.794 137.792C234.481 131.379 244.007 134.325 244.007 134.325C244.007 134.325 233.788 128.952 232.748 124.792C231.709 120.632 237.771 123.232 237.771 123.232C237.771 123.232 229.804 116.473 228.765 112.486C227.725 108.5 233.615 110.926 233.615 110.926C233.615 110.926 226.34 105.553 227.899 101.913C229.458 98.2733 267.563 128.952 279.514 129.819C291.119 130.685 290.426 139.872 281.073 142.472Z" fill="white"/>
<path d="M220.104 99.658C218.545 99.1379 216.813 98.6178 215.254 98.0977" stroke="#005DA4" stroke-width="0.75" stroke-linecap="round" stroke-linejoin="round"/>
<path d="M205.035 95.5008C198.973 94.2876 192.738 93.4209 186.675 92.9009C169.874 91.6877 143.374 90.1277 133.154 106.767C123.801 122.02 139.91 148.192 145.625 162.405C152.727 179.738 161.041 201.403 152.727 219.776C135.579 257.561 62.6592 237.975 37.8906 203.137" stroke="#005DA4" stroke-width="0.75" stroke-linecap="round" stroke-linejoin="round" stroke-dasharray="6.03 6.03"/>
<path d="M35.1189 198.801C34.2528 197.241 33.56 195.681 32.8672 194.121" stroke="#005DA4" stroke-width="0.75" stroke-linecap="round" stroke-linejoin="round"/>
<path d="M245.393 336.43H179.574V349.949H245.393V336.43Z" fill="white"/>
<path opacity="0.1" d="M245.393 336.43H179.574V349.949H245.393V336.43Z" fill="black"/>
<path opacity="0.1" d="M207.287 336.43H179.574V349.949H207.287V336.43Z" fill="black"/>
<path opacity="0.1" d="M179.574 338.332H238.118L179.574 340.066V338.332Z" fill="black"/>
<path opacity="0.1" d="M245.394 340.766L194.645 341.978H245.394V340.766Z" fill="black"/>
<path opacity="0.1" d="M182.344 344.404L207.286 343.363L244.179 344.404L207.286 345.097L182.344 344.404Z" fill="black"/>
<path opacity="0.1" d="M179.574 347.348H223.049L179.574 348.387V347.348Z" fill="black"/>
<path opacity="0.1" d="M245.396 348.387L216.297 348.906H245.396V348.387Z" fill="black"/>
<path d="M236.385 322.906H170.566V336.426H236.385V322.906Z" fill="white"/>
<path opacity="0.1" d="M236.385 322.906H170.566V336.426H236.385V322.906Z" fill="black"/>
<path opacity="0.1" d="M198.28 322.906H170.566V336.426H198.28V322.906Z" fill="black"/>
<path opacity="0.1" d="M170.566 324.809H229.11L170.566 326.542V324.809Z" fill="black"/>
<path opacity="0.1" d="M236.215 327.242L185.465 328.455H236.215V327.242Z" fill="black"/>
<path opacity="0.1" d="M173.164 331.056L198.279 330.016L234.999 331.056L198.279 331.576L173.164 331.056Z" fill="black"/>
<path opacity="0.1" d="M170.566 333.824H213.868L170.566 334.863V333.824Z" fill="black"/>
<path opacity="0.1" d="M236.215 334.863L207.289 335.383H236.215V334.863Z" fill="black"/>
<path d="M243.83 309.387H178.012V322.906H243.83V309.387Z" fill="white"/>
<path opacity="0.1" d="M243.83 309.387H178.012V322.906H243.83V309.387Z" fill="black"/>
<path opacity="0.1" d="M205.725 309.387H178.012V322.906H205.725V309.387Z" fill="black"/>
<path opacity="0.1" d="M178.012 311.289H236.556L178.012 313.023V311.289Z" fill="black"/>
<path opacity="0.1" d="M243.832 313.723L193.082 314.935H243.832V313.723Z" fill="black"/>
<path opacity="0.1" d="M180.609 317.536L205.724 316.496L242.444 317.536L205.724 318.056L180.609 317.536Z" fill="black"/>
<path opacity="0.1" d="M178.012 320.305H221.313L178.012 321.344V320.305Z" fill="black"/>
<path opacity="0.1" d="M243.66 321.344L214.734 321.863H243.833L243.66 321.344Z" fill="black"/>
<path d="M287.48 349.601L289.213 343.188H359.535L391.924 346.307L393.137 349.601H287.48Z" fill="#263238"/>
<path opacity="0.4" d="M359.535 343.188V349.601H287.48L289.213 343.188H359.535Z" fill="black"/>
<path d="M345.33 312.161C345.677 315.628 343.079 318.401 339.788 318.401H232.226C228.762 318.401 225.818 315.628 225.471 312.161L219.063 243.177C219.063 242.484 219.062 241.791 219.236 241.097C219.755 238.671 222.007 236.938 224.605 236.938H332.34C335.804 236.938 338.749 239.711 339.095 243.177L345.33 312.161Z" fill="#263238"/>
<path opacity="0.4" d="M339.441 318.401H232.226C228.762 318.401 225.818 315.628 225.471 312.162L219.063 243.178C219.063 242.484 219.062 241.791 219.236 241.098H326.451C329.915 241.098 332.86 243.871 333.206 247.337L339.615 316.321C339.615 317.015 339.615 317.708 339.441 318.401Z" fill="black"/>
<path d="M265.482 276.109H287.825L281.763 339.894L317.097 345.093V349.6H242.965V345.093L258.034 339.894L265.482 276.109Z" fill="#263238"/>
<path opacity="0.1" d="M287.827 276.109L271.372 348.56L258.035 348.213L265.483 276.109H287.827Z" fill="white"/>
<path d="M287.654 627.614H277.088L258.035 362.078H272.065L287.654 627.614Z" fill="#263238"/>
<path opacity="0.4" d="M287.654 627.615H277.088L258.901 375.252L258.035 362.426H272.065L272.758 375.252L287.654 627.615Z" fill="white"/>
<path opacity="0.2" d="M272.758 374.559H258.901L258.035 362.426H272.065L272.758 374.559Z" fill="black"/>
<path d="M365.596 627.614H354.857L353.125 362.078H367.328L365.596 627.614Z" fill="#263238"/>
<path opacity="0.5" d="M367.328 362.426L366.982 405.237L365.596 627.615H354.857L353.471 405.237L353.125 362.426H367.328Z" fill="white"/>
<path opacity="0.2" d="M367.328 362.426L366.982 405.757H353.471L353.125 362.426H367.328Z" fill="black"/>
<path d="M478.181 627.614H467.615L448.562 362.078H462.592L478.181 627.614Z" fill="#263238"/>
<path opacity="0.5" d="M478.181 627.615H467.615L449.429 375.252L448.562 362.426H462.592L463.285 375.252L478.181 627.615Z" fill="white"/>
<path opacity="0.2" d="M463.285 374.559H449.429L448.562 362.426H462.592L463.285 374.559Z" fill="black"/>
<path d="M166.238 627.614H155.672L171.261 362.078H185.29L166.238 627.614Z" fill="#263238"/>
<path opacity="0.5" d="M185.29 362.426L184.424 375.252L166.238 627.615H155.672L170.568 375.252L171.261 362.426H185.29Z" fill="white"/>
<path opacity="0.2" d="M171.263 362.426H185.293L184.427 374.559H170.57L171.263 362.426Z" fill="black"/>
<path d="M470.044 368.663H163.814C161.736 368.663 160.004 366.929 160.004 364.849V355.316H473.682V364.849C473.855 366.929 472.123 368.663 470.044 368.663Z" fill="#005DA4"/>
<path opacity="0.6" d="M470.044 368.663H163.814C161.736 368.663 160.004 366.929 160.004 364.849V355.316H473.682V364.849C473.855 366.929 472.123 368.663 470.044 368.663Z" fill="white"/>
<path opacity="0.2" d="M473.854 355.316H160.176V361.903H473.854V355.316Z" fill="black"/>
<path d="M480.26 357.052H153.592C151.513 357.052 149.781 355.319 149.781 353.239C149.781 351.159 151.513 349.426 153.592 349.426H480.433C482.512 349.426 484.244 351.159 484.244 353.239C484.071 355.492 482.339 357.052 480.26 357.052Z" fill="#005DA4"/>
<path opacity="0.6" d="M480.26 357.052H153.592C151.513 357.052 149.781 355.319 149.781 353.239C149.781 351.159 151.513 349.426 153.592 349.426H480.433C482.512 349.426 484.244 351.159 484.244 353.239C484.071 355.492 482.339 357.052 480.26 357.052Z" fill="white"/>
<path d="M403.012 338.157L406.996 332.09C407.862 330.877 409.074 330.184 410.633 330.184H415.656C416.002 330.184 416.522 330.184 416.868 330.357L435.055 335.903C436.094 336.25 436.96 336.943 437.48 337.81L440.078 342.143L403.012 338.157Z" fill="#005DA4"/>
<path opacity="0.2" d="M440.251 342.141L413.751 339.194L403.012 337.981L406.996 331.914C407.862 330.701 409.074 330.008 410.633 330.008H415.656C416.002 330.008 416.522 330.008 416.868 330.181L417.215 330.354L434.882 335.728C435.921 336.074 436.787 336.768 437.307 337.634L440.251 342.141Z" fill="black"/>
<path opacity="0.2" d="M440.251 342.142L413.75 339.195L417.387 330.355L435.054 335.729C436.094 336.075 436.96 336.769 437.479 337.635L440.251 342.142Z" fill="black"/>
<path d="M452.721 349.076V349.596H429.684H396.602L398.68 341.45C399.546 338.33 402.317 336.25 405.435 336.25H430.377C431.243 336.25 431.936 336.423 432.802 336.597L435.92 337.81L448.217 342.49C450.989 343.53 452.721 346.13 452.721 349.076Z" fill="#005DA4"/>
<path opacity="0.2" d="M452.72 349.08V349.6H429.684L430.896 340.76C431.242 338.507 433.667 336.947 435.746 337.813L448.043 342.493C450.988 343.533 452.72 346.133 452.72 349.08Z" fill="black"/>
<path d="M433.324 343.704L440.599 321.691C440.945 320.825 441.985 320.305 442.851 320.825C443.543 321.171 443.89 321.865 443.717 322.731L437.481 346.304C437.654 346.13 433.497 347.69 433.324 343.704Z" fill="#263238"/>
<path opacity="0.2" d="M403.01 347.864H399.719L400.412 344.57H403.703L403.01 347.864Z" fill="black"/>
<path opacity="0.2" d="M407.861 347.689H404.57L405.263 344.395H408.554L407.861 347.689Z" fill="black"/>
</g>
<defs>
<clipPath id="clip0_626_20820">
<rect width="800" height="646.279" fill="white"/>
</clipPath>
</defs>
</svg>
