<svg width="1296" height="556" viewBox="0 0 1296 556" fill="none" xmlns="http://www.w3.org/2000/svg">
<g clip-path="url(#clip0_1250_7392)">
<path d="M1048 483.699H248V484.019H1048V483.699Z" fill="#EBEBEB"/>
<path d="M967.843 509.453H914.883V509.773H967.843V509.453Z" fill="#EBEBEB"/>
<path d="M777.92 513.93H764V514.25H777.92V513.93Z" fill="#EBEBEB"/>
<path d="M913.282 494.738H882.562V495.058H913.282V494.738Z" fill="#EBEBEB"/>
<path d="M401.12 497.297H332V497.617H401.12V497.297Z" fill="#EBEBEB"/>
<path d="M425.439 497.297H415.359V497.617H425.439V497.297Z" fill="#EBEBEB"/>
<path d="M608.318 504.176H458.398V504.496H608.318V504.176Z" fill="#EBEBEB"/>
<path d="M627.197 412.359H318.237C313.277 412.359 309.117 408.2 309.117 403.241V-30.8824C309.117 -35.8411 313.277 -40 318.237 -40H627.197C632.157 -40 636.317 -35.8411 636.317 -30.8824V403.241C636.317 408.36 632.317 412.359 627.197 412.359ZM318.237 -39.6801C313.437 -39.6801 309.437 -35.8411 309.437 -30.8824V403.241C309.437 408.04 313.277 412.039 318.237 412.039H627.197C631.997 412.039 635.997 408.2 635.997 403.241V-30.8824C635.997 -35.6812 632.157 -39.6801 627.197 -39.6801H318.237Z" fill="#EBEBEB"/>
<path d="M973.283 412.359H664.323C659.363 412.359 655.203 408.2 655.203 403.241V-30.8824C655.203 -35.8411 659.363 -40 664.323 -40H973.283C978.243 -40 982.403 -35.8411 982.403 -30.8824V403.241C982.403 408.36 978.403 412.359 973.283 412.359ZM664.323 -39.6801C659.523 -39.6801 655.523 -35.8411 655.523 -30.8824V403.241C655.523 408.04 659.363 412.039 664.323 412.039H973.283C978.083 412.039 982.083 408.2 982.083 403.241V-30.8824C982.083 -35.6812 978.243 -39.6801 973.283 -39.6801H664.323Z" fill="#EBEBEB"/>
<path d="M371.038 381.328V404.042L361.438 411.08H406.237L391.997 405.802V382.928L371.038 381.328Z" fill="#E0E0E0"/>
<path d="M292 410.438V481.938H492V410.438H292ZM488.32 438.43H331.84V415.076H488.32V438.43Z" fill="#E0E0E0"/>
<path d="M327.039 410.438V481.938H491.999V410.438H327.039ZM488.319 438.43H331.839V415.076H488.319V438.43Z" fill="#EBEBEB"/>
<path d="M488.476 415.078H456.156V438.432H488.476V415.078Z" fill="#E0E0E0"/>
<path d="M371.684 426.754H331.844V438.431H371.684V426.754Z" fill="#E0E0E0"/>
<path d="M404.799 431.555H374.719V438.433H404.799V431.555Z" fill="#E0E0E0"/>
<path d="M440.32 424.195H411.68V438.431H440.32V424.195Z" fill="#E0E0E0"/>
<path d="M360.164 443.551L359.364 446.27H347.844L347.044 443.551H331.844V474.582H382.084V443.551H360.164Z" fill="#E0E0E0"/>
<path d="M419.997 443.551L419.197 446.27H407.677L406.877 443.551H384.797V474.582H435.197V443.551H419.997Z" fill="#E0E0E0"/>
<path d="M466.242 443.551L465.442 446.27H453.922L452.962 443.551H437.922V474.582H488.162V443.551H466.242Z" fill="#E0E0E0"/>
<path d="M462.72 394.923H313.92C310.88 394.923 308.32 392.363 308.32 389.324V303.907C308.32 300.868 310.88 298.309 313.92 298.309H462.72C465.76 298.309 468.32 300.868 468.32 303.907V389.324C468.32 392.363 465.76 394.923 462.72 394.923Z" fill="#E0E0E0"/>
<path d="M466.4 394.923H317.6C314.56 394.923 312 392.363 312 389.324V303.907C312 300.868 314.56 298.309 317.6 298.309H466.4C469.44 298.309 472 300.868 472 303.907V389.324C472.16 392.363 469.6 394.923 466.4 394.923Z" fill="#E6E6E6"/>
<path d="M467.414 390.356V303.02H316.694V390.356H467.414Z" fill="#F0F0F0"/>
<path d="M745.449 289.828H888.649C904.169 289.828 916.809 302.465 916.809 317.981V429.791H717.289V317.981C717.289 302.465 729.929 289.828 745.449 289.828Z" fill="#E6E6E6"/>
<path d="M674.886 372.688H700.486C709.766 372.688 717.126 380.205 717.126 389.323V481.778H658.086V389.323C658.246 380.205 665.606 372.688 674.886 372.688Z" fill="#E0E0E0"/>
<path d="M674.886 372.688H675.366C684.646 372.688 692.006 380.205 692.006 389.323V481.778H658.086V389.323C658.246 380.205 665.606 372.688 674.886 372.688Z" fill="#EBEBEB"/>
<path d="M896.007 439.547H699.367V482.095H896.007V439.547Z" fill="#E6E6E6"/>
<path d="M699.046 400.68H888.646C898.086 400.68 905.606 408.358 905.606 417.635V428.192C905.606 437.63 897.926 445.148 888.646 445.148H699.046C689.606 445.148 682.086 437.47 682.086 428.192V417.635C682.086 408.198 689.606 400.68 699.046 400.68Z" fill="#F5F5F5"/>
<path d="M864.804 400.68H888.324C897.764 400.68 905.284 408.358 905.284 417.635V428.192C905.284 437.63 897.604 445.148 888.324 445.148H864.804C855.364 445.148 847.844 437.47 847.844 428.192V417.635C847.844 408.198 855.364 400.68 864.804 400.68Z" fill="#E0E0E0"/>
<path d="M890.886 372.688H916.486C925.766 372.688 933.126 380.205 933.126 389.323V481.778H874.086V389.323C874.086 380.205 881.606 372.688 890.886 372.688Z" fill="#E0E0E0"/>
<path d="M890.886 372.688H891.366C900.646 372.688 908.006 380.205 908.006 389.323V481.778H874.086V389.323C874.086 380.205 881.606 372.688 890.886 372.688Z" fill="#F0F0F0"/>
<path d="M823.547 238.375L1013.31 238.375V42.2677L823.547 42.2677V238.375Z" fill="#EBEBEB"/>
<path d="M817 238.375L1006.76 238.375V42.2677L817 42.2677V238.375Z" fill="#F0F0F0"/>
<path d="M1002.01 46.8555H822.01V233.685H1002.01V46.8555Z" fill="#E0E0E0"/>
<path d="M1002.01 46.8555H826.486V233.685H1002.01V46.8555Z" fill="#F5F5F5"/>
<path d="M912.396 233.828H915.916V46.9983H912.396V233.828Z" fill="#EBEBEB"/>
<path d="M891.929 46.8555L841.849 233.845H837.049L887.129 46.8555H891.929Z" fill="white"/>
<path d="M910.915 237.406H913.955V44.0182H910.915V237.406Z" fill="#F0F0F0"/>
<path d="M873.846 46.8555L826.486 223.768V126.514L847.766 46.8555H873.846Z" fill="white"/>
<path d="M1002.01 63.8086V81.7238L961.208 233.843H956.408L1002.01 63.8086Z" fill="white"/>
<path d="M1002.01 100.121V197.215L992.246 233.845H966.166L1002.01 100.121Z" fill="white"/>
<path d="M280.253 193.25H395.133V53.4475H280.253V193.25Z" fill="#E6E6E6"/>
<path d="M306.569 158.666L366.889 99.3224L301.609 88.4453L306.569 158.666Z" fill="#E0E0E0"/>
<path d="M365.447 144.592L368.487 99.0039L323.047 110.201L319.688 145.072L365.447 144.592Z" fill="#F0F0F0"/>
<path d="M319.032 93.4212C326.217 86.2376 326.217 74.5906 319.032 67.4069C311.846 60.2233 300.196 60.2233 293.011 67.4069C285.825 74.5906 285.825 86.2376 293.011 93.4212C300.196 100.605 311.846 100.605 319.032 93.4212Z" fill="#FAFAFA"/>
<path d="M359.531 160.747C359.531 155.788 363.531 151.789 368.491 151.789C373.451 151.789 377.451 155.788 377.451 160.747C377.451 165.705 373.451 169.704 368.491 169.704C363.531 169.704 359.531 165.705 359.531 160.747Z" fill="#E0E0E0"/>
<path d="M366.408 176.423L340.648 160.747L362.248 142.992L366.408 176.423Z" fill="#F5F5F5"/>
<path d="M336.011 71.1719H330.891V182.822H336.011V71.1719Z" fill="#E0E0E0"/>
<path d="M384.49 71.1719H377.93V177.863H384.49V71.1719Z" fill="#EBEBEB"/>
<path d="M325.292 145.07H291.852V178.501H325.292V145.07Z" fill="#EBEBEB"/>
<path d="M647.998 556.002C819.339 556.002 958.238 547.909 958.238 537.927C958.238 527.944 819.339 519.852 647.998 519.852C476.657 519.852 337.758 527.944 337.758 537.927C337.758 547.909 476.657 556.002 647.998 556.002Z" fill="#F5F5F5"/>
<path d="M957.962 497.457H610.922V256.562C610.922 252.723 613.962 249.684 617.802 249.684H951.242C955.082 249.684 958.122 252.723 958.122 256.562V497.457H957.962Z" fill="#263238"/>
<path d="M951.237 265.039H617.797V478.102H951.237V265.039Z" fill="#005DA4"/>
<path opacity="0.2" d="M781.321 261.199C783.177 261.199 784.681 259.695 784.681 257.84C784.681 255.984 783.177 254.48 781.321 254.48C779.465 254.48 777.961 255.984 777.961 257.84C777.961 259.695 779.465 261.199 781.321 261.199Z" fill="white"/>
<path opacity="0.2" d="M788.365 260.4C789.779 260.4 790.925 259.254 790.925 257.841C790.925 256.427 789.779 255.281 788.365 255.281C786.951 255.281 785.805 256.427 785.805 257.841C785.805 259.254 786.951 260.4 788.365 260.4Z" fill="white"/>
<path opacity="0.2" d="M785.799 482.422C785.319 482.262 784.839 482.262 784.359 482.262C781.959 482.262 780.039 484.181 780.039 486.581C780.039 488.98 781.959 490.899 784.359 490.899C786.759 490.899 788.679 488.98 788.679 486.581C788.679 486.421 788.679 486.421 788.679 486.421C787.079 485.621 785.959 484.181 785.799 482.422Z" fill="white"/>
<path d="M983.88 494.098V497.297C983.88 498.097 983.56 498.896 983.24 499.696C982.6 500.656 981.8 501.456 980.68 501.776L956.52 508.974C953.48 509.933 950.44 510.253 947.24 510.253H621.8C618.76 510.253 615.56 509.773 612.52 508.974L588.36 501.776C587.24 501.456 586.28 500.656 585.64 499.696C585.16 499.056 585 498.257 585 497.297V494.098H983.88Z" fill="#263238"/>
<path opacity="0.2" d="M983.88 494.098V497.297C983.88 498.097 983.56 498.896 983.24 499.696C982.6 500.656 981.8 501.456 980.68 501.776L956.52 508.974C953.48 509.933 950.44 510.253 947.24 510.253H621.8C618.76 510.253 615.56 509.773 612.52 508.974L588.36 501.776C587.24 501.456 586.28 500.656 585.64 499.696C585.16 499.056 585 498.257 585 497.297V494.098H983.88Z" fill="white"/>
<path opacity="0.2" d="M983.88 494.098V497.297C983.88 498.097 983.72 498.896 983.24 499.696H585.64C585.16 499.056 585 498.257 585 497.297V494.098H983.88Z" fill="white"/>
<path opacity="0.2" d="M812.523 494.098V495.538C812.523 496.338 811.883 496.978 811.083 496.978H757.643C756.843 496.978 756.203 496.338 756.203 495.538V494.098H812.523Z" fill="#171717"/>
<path opacity="0.1" d="M951.081 265.039C951.081 265.039 905.001 448.03 617.641 478.102V265.039H951.081Z" fill="white"/>
<path d="M845.841 181.54V381.967L812.401 415.398H680.401C677.521 415.398 675.281 413.158 675.281 410.279V181.54C675.281 178.661 677.521 176.422 680.401 176.422H840.561C843.441 176.422 845.841 178.661 845.841 181.54Z" fill="#005DA4"/>
<path opacity="0.6" d="M845.841 190.34V381.968L812.401 415.399H680.401C677.521 415.399 675.281 413.16 675.281 410.281V190.34H845.841Z" fill="white"/>
<path opacity="0.6" d="M841.362 182.821C841.362 184.261 840.242 185.38 838.802 185.38C837.362 185.38 836.242 184.261 836.242 182.821C836.242 181.381 837.362 180.262 838.802 180.262C840.242 180.262 841.362 181.381 841.362 182.821Z" fill="white"/>
<path opacity="0.6" d="M831.925 182.821C831.925 184.261 830.805 185.38 829.365 185.38C827.925 185.38 826.805 184.261 826.805 182.821C826.805 181.381 827.925 180.262 829.365 180.262C830.805 180.262 831.925 181.381 831.925 182.821Z" fill="white"/>
<path opacity="0.6" d="M822.323 182.821C822.323 184.261 821.203 185.38 819.763 185.38C818.323 185.38 817.203 184.261 817.203 182.821C817.203 181.381 818.323 180.262 819.763 180.262C821.203 180.262 822.323 181.381 822.323 182.821Z" fill="white"/>
<path d="M778.96 205.696H687.6C686.64 205.696 686 205.056 686 204.096C686 203.136 686.64 202.496 687.6 202.496H778.96C779.92 202.496 780.56 203.136 780.56 204.096C780.56 205.056 779.92 205.696 778.96 205.696Z" fill="#005DA4"/>
<path d="M753.2 214.493H687.6C686.64 214.493 686 213.853 686 212.893C686 211.933 686.64 211.293 687.6 211.293H753.2C754.16 211.293 754.8 211.933 754.8 212.893C754.8 213.853 754 214.493 753.2 214.493Z" fill="#005DA4"/>
<path d="M823.923 349.657H707.123C706.163 349.657 705.523 349.017 705.523 348.057C705.523 347.097 706.163 346.457 707.123 346.457H823.923C824.883 346.457 825.523 347.097 825.523 348.057C825.523 349.017 824.883 349.657 823.923 349.657Z" fill="#005DA4"/>
<path d="M804.4 384.528H687.6C686.64 384.528 686 383.888 686 382.928C686 381.968 686.64 381.328 687.6 381.328H804.4C805.36 381.328 806 381.968 806 382.928C806 383.888 805.36 384.528 804.4 384.528Z" fill="#005DA4"/>
<path d="M823.92 358.294H687.6C686.64 358.294 686 357.654 686 356.694C686 355.734 686.64 355.094 687.6 355.094H823.92C824.88 355.094 825.52 355.734 825.52 356.694C825.52 357.654 824.88 358.294 823.92 358.294Z" fill="#005DA4"/>
<path d="M823.92 367.091H687.6C686.64 367.091 686 366.451 686 365.491C686 364.531 686.64 363.891 687.6 363.891H823.92C824.88 363.891 825.52 364.531 825.52 365.491C825.52 366.451 824.88 367.091 823.92 367.091Z" fill="#005DA4"/>
<path d="M823.92 375.891H687.6C686.64 375.891 686 375.251 686 374.291C686 373.331 686.64 372.691 687.6 372.691H823.92C824.88 372.691 825.52 373.331 825.52 374.291C825.52 375.091 824.88 375.891 823.92 375.891Z" fill="#005DA4"/>
<path opacity="0.5" d="M845.838 381.965L812.398 415.236V381.965H845.838Z" fill="#005DA4"/>
<path opacity="0.4" d="M845.838 190.34H836.398V381.968H845.838V190.34Z" fill="#171717"/>
<path d="M841.043 290.471C839.123 290.471 837.523 288.871 837.523 286.952V267.437C837.523 265.518 839.123 263.918 841.043 263.918C842.963 263.918 844.563 265.518 844.563 267.437V286.952C844.563 288.871 842.963 290.471 841.043 290.471Z" fill="#005DA4"/>
<path d="M823.923 301.669H707.123C706.163 301.669 705.523 301.029 705.523 300.069C705.523 299.109 706.163 298.469 707.123 298.469H823.923C824.883 298.469 825.523 299.109 825.523 300.069C825.523 301.029 824.883 301.669 823.923 301.669Z" fill="#005DA4"/>
<path d="M804.4 336.54H687.6C686.64 336.54 686 335.9 686 334.94C686 333.98 686.64 333.34 687.6 333.34H804.4C805.36 333.34 806 333.98 806 334.94C806 335.9 805.36 336.54 804.4 336.54Z" fill="#005DA4"/>
<path d="M823.92 310.305H687.6C686.64 310.305 686 309.665 686 308.705C686 307.745 686.64 307.105 687.6 307.105H823.92C824.88 307.105 825.52 307.745 825.52 308.705C825.52 309.665 824.88 310.305 823.92 310.305Z" fill="#005DA4"/>
<path d="M823.92 319.102H687.6C686.64 319.102 686 318.462 686 317.502C686 316.542 686.64 315.902 687.6 315.902H823.92C824.88 315.902 825.52 316.542 825.52 317.502C825.52 318.462 824.88 319.102 823.92 319.102Z" fill="#005DA4"/>
<path d="M823.92 327.903H687.6C686.64 327.903 686 327.263 686 326.303C686 325.343 686.64 324.703 687.6 324.703H823.92C824.88 324.703 825.52 325.343 825.52 326.303C825.52 327.103 824.88 327.903 823.92 327.903Z" fill="#005DA4"/>
<path d="M823.925 224.891H687.125V275.917H823.925V224.891Z" fill="#005DA4"/>
<path opacity="0.2" d="M687.125 267.759H690.965V258.482H695.125V240.246H701.205V251.443H709.365V266.479H719.285V255.922H727.285L732.725 250.644V238.167H735.925V255.922H744.245V262.321H752.725V230.009L755.125 227.61V236.567H760.565V240.406L765.845 245.685V255.122H773.365V247.764H792.885V242.166H797.365V232.409H798.965V247.764H801.525L807.125 242.006H812.405V236.887H815.125V242.166H818.645V263.28H822.325V252.723L823.925 252.883V224.891H687.125V267.759Z" fill="#171717"/>
<path d="M823.923 284.075H787.123C786.163 284.075 785.523 283.435 785.523 282.475C785.523 281.515 786.163 280.875 787.123 280.875H823.923C824.883 280.875 825.523 281.515 825.523 282.475C825.523 283.435 824.883 284.075 823.923 284.075Z" fill="#005DA4"/>
<path opacity="0.2" d="M741.358 176.422V341.977L716.237 367.251H675.438V181.7C675.438 178.821 677.678 176.582 680.558 176.582H741.358V176.422Z" fill="#171717"/>
<path opacity="0.4" d="M841.043 290.471C839.123 290.471 837.523 288.871 837.523 286.952V267.437C837.523 265.518 839.123 263.918 841.043 263.918C842.963 263.918 844.563 265.518 844.563 267.437V286.952C844.563 288.871 842.963 290.471 841.043 290.471Z" fill="white"/>
<path d="M626.56 206.494V406.92L593.12 440.351H461.12C458.24 440.351 456 438.111 456 435.232V206.494C456 203.614 458.24 201.375 461.12 201.375H621.28C624.32 201.375 626.56 203.614 626.56 206.494Z" fill="#005DA4"/>
<path opacity="0.6" d="M626.56 215.293V406.922L593.12 440.353H461.12C458.24 440.353 456 438.113 456 435.234V215.293H626.56Z" fill="white"/>
<path opacity="0.6" d="M622.237 207.774C622.237 209.214 621.117 210.333 619.677 210.333C618.237 210.333 617.117 209.214 617.117 207.774C617.117 206.335 618.237 205.215 619.677 205.215C621.117 205.215 622.237 206.335 622.237 207.774Z" fill="white"/>
<path opacity="0.6" d="M612.643 207.774C612.643 209.214 611.523 210.333 610.083 210.333C608.643 210.333 607.523 209.214 607.523 207.774C607.523 206.335 608.643 205.215 610.083 205.215C611.523 205.215 612.643 206.335 612.643 207.774Z" fill="white"/>
<path opacity="0.6" d="M603.198 207.774C603.198 209.214 602.078 210.333 600.638 210.333C599.198 210.333 598.078 209.214 598.078 207.774C598.078 206.335 599.198 205.215 600.638 205.215C602.078 205.215 603.198 206.335 603.198 207.774Z" fill="white"/>
<path d="M496.803 231.606H468.483C467.523 231.606 466.883 230.966 466.883 230.006C466.883 229.046 467.523 228.406 468.483 228.406H496.803C497.763 228.406 498.403 229.046 498.403 230.006C498.403 230.806 497.603 231.606 496.803 231.606Z" fill="#005DA4"/>
<path d="M510.243 240.403H468.483C467.523 240.403 466.883 239.763 466.883 238.803C466.883 237.843 467.523 237.203 468.483 237.203H510.243C511.203 237.203 511.843 237.843 511.843 238.803C511.843 239.603 511.043 240.403 510.243 240.403Z" fill="#005DA4"/>
<path d="M497.283 249.04H468.483C467.523 249.04 466.883 248.4 466.883 247.44C466.883 246.48 467.523 245.84 468.483 245.84H497.283C498.243 245.84 498.883 246.48 498.883 247.44C498.883 248.4 498.083 249.04 497.283 249.04Z" fill="#005DA4"/>
<path d="M604.806 392.204H488.006C487.046 392.204 486.406 391.564 486.406 390.604C486.406 389.644 487.046 389.004 488.006 389.004H604.806C605.766 389.004 606.406 389.644 606.406 390.604C606.406 391.564 605.606 392.204 604.806 392.204Z" fill="#005DA4"/>
<path d="M540.803 400.841H468.483C467.523 400.841 466.883 400.201 466.883 399.241C466.883 398.281 467.523 397.641 468.483 397.641H540.803C541.763 397.641 542.403 398.281 542.403 399.241C542.403 400.201 541.603 400.841 540.803 400.841Z" fill="#005DA4"/>
<path opacity="0.5" d="M626.561 406.918L593.281 440.349V406.918H626.561Z" fill="#005DA4"/>
<path opacity="0.4" d="M626.557 215.293H617.117V406.922H626.557V215.293Z" fill="#171717"/>
<path d="M621.918 393.803C619.998 393.803 618.398 392.203 618.398 390.284V370.769C618.398 368.85 619.998 367.25 621.918 367.25C623.838 367.25 625.438 368.85 625.438 370.769V390.284C625.438 392.203 623.838 393.803 621.918 393.803Z" fill="#005DA4"/>
<path d="M604.801 231.606H582.881C581.921 231.606 581.281 230.966 581.281 230.006C581.281 229.046 581.921 228.406 582.881 228.406H604.801C605.761 228.406 606.401 229.046 606.401 230.006C606.401 230.806 605.601 231.606 604.801 231.606Z" fill="#005DA4"/>
<path d="M604.804 240.403H593.444C592.484 240.403 591.844 239.763 591.844 238.803C591.844 237.843 592.484 237.203 593.444 237.203H604.804C605.764 237.203 606.404 237.843 606.404 238.803C606.404 239.603 605.604 240.403 604.804 240.403Z" fill="#005DA4"/>
<path d="M604.806 272.235H488.006C487.046 272.235 486.406 271.595 486.406 270.635C486.406 269.675 487.046 269.035 488.006 269.035H604.806C605.766 269.035 606.406 269.675 606.406 270.635C606.406 271.435 605.606 272.235 604.806 272.235Z" fill="#005DA4"/>
<path d="M604.803 280.872H468.483C467.523 280.872 466.883 280.232 466.883 279.272C466.883 278.312 467.523 277.672 468.483 277.672H604.803C605.763 277.672 606.403 278.312 606.403 279.272C606.403 280.232 605.603 280.872 604.803 280.872Z" fill="#005DA4"/>
<path d="M524.803 289.669H468.483C467.523 289.669 466.883 289.029 466.883 288.069C466.883 287.109 467.523 286.469 468.483 286.469H524.803C525.763 286.469 526.403 287.109 526.403 288.069C526.403 289.029 525.603 289.669 524.803 289.669Z" fill="#005DA4"/>
<path opacity="0.7" d="M544.799 301.348H491.039V315.744H544.799V301.348Z" fill="#005DA4"/>
<path opacity="0.3" d="M515.359 318.941H491.039V372.047H515.359V318.941Z" fill="#005DA4"/>
<path opacity="0.3" d="M576 318.941H548V372.047H576V318.941Z" fill="#005DA4"/>
<path opacity="0.7" d="M604.8 301.348H548V315.744H604.8V301.348Z" fill="#005DA4"/>
<path opacity="0.3" d="M604.639 318.941H579.039V372.047H604.639V318.941Z" fill="#005DA4"/>
<path opacity="0.5" d="M487.837 318.941H468.477V372.047H487.837V318.941Z" fill="#005DA4"/>
<path d="M487.837 301.348H468.477V315.744H487.837V301.348Z" fill="#005DA4"/>
<path opacity="0.3" d="M544.795 318.941H518.555V372.047H544.795V318.941Z" fill="#005DA4"/>
<path opacity="0.4" d="M621.918 393.803C619.998 393.803 618.398 392.203 618.398 390.284V370.769C618.398 368.85 619.998 367.25 621.918 367.25C623.838 367.25 625.438 368.85 625.438 370.769V390.284C625.438 392.203 623.838 393.803 621.918 393.803Z" fill="white"/>
<path opacity="0.2" d="M626.561 206.494V373.169H530.081C527.201 373.169 524.961 370.929 524.961 368.05V201.375H621.441C624.321 201.375 626.561 203.614 626.561 206.494Z" fill="#171717"/>
<path d="M728.56 56.1186V256.545L695.12 289.976H563.12C560.24 289.976 558 287.736 558 284.857V56.1186C558 53.2394 560.24 51 563.12 51H723.28C726.32 51 728.56 53.3994 728.56 56.1186Z" fill="#005DA4"/>
<path opacity="0.6" d="M728.56 64.918V256.547L695.12 289.978H563.12C560.24 289.978 558 287.738 558 284.859V64.918H728.56Z" fill="white"/>
<path opacity="0.6" d="M721.677 59.9585C723.091 59.9585 724.237 58.8126 724.237 57.3992C724.237 55.9857 723.091 54.8398 721.677 54.8398C720.263 54.8398 719.117 55.9857 719.117 57.3992C719.117 58.8126 720.263 59.9585 721.677 59.9585Z" fill="white"/>
<path opacity="0.6" d="M712.083 59.9585C713.497 59.9585 714.643 58.8126 714.643 57.3992C714.643 55.9857 713.497 54.8398 712.083 54.8398C710.67 54.8398 709.523 55.9857 709.523 57.3992C709.523 58.8126 710.67 59.9585 712.083 59.9585Z" fill="white"/>
<path opacity="0.6" d="M705.198 57.3992C705.198 58.8388 704.078 59.9585 702.638 59.9585C701.198 59.9585 700.078 58.8388 700.078 57.3992C700.078 55.9595 701.198 54.8398 702.638 54.8398C704.078 54.9998 705.198 55.9595 705.198 57.3992Z" fill="white"/>
<path d="M654.803 81.2313H622.163C621.202 81.2313 620.562 80.5913 620.562 79.6313C620.562 78.6712 621.202 78.0312 622.163 78.0312H654.803C655.763 78.0312 656.403 78.6712 656.403 79.6313C656.403 80.5913 655.763 81.2313 654.803 81.2313Z" fill="#005DA4"/>
<path d="M668.241 90.0281H608.881C607.921 90.0281 607.281 89.3881 607.281 88.4281C607.281 87.4681 607.921 86.8281 608.881 86.8281H668.241C669.201 86.8281 669.841 87.4681 669.841 88.4281C669.841 89.2281 669.041 90.0281 668.241 90.0281Z" fill="#005DA4"/>
<path d="M655.278 98.6648H621.678C620.718 98.6648 620.078 98.0248 620.078 97.0648C620.078 96.1048 620.718 95.4648 621.678 95.4648H655.278C656.238 95.4648 656.878 96.1048 656.878 97.0648C656.878 98.0248 656.238 98.6648 655.278 98.6648Z" fill="#005DA4"/>
<path d="M706.642 121.86H589.842C588.882 121.86 588.242 121.22 588.242 120.26C588.242 119.3 588.882 118.66 589.842 118.66H706.642C707.602 118.66 708.242 119.3 708.242 120.26C708.242 121.06 707.602 121.86 706.642 121.86Z" fill="#005DA4"/>
<path d="M687.119 156.731H570.319C569.359 156.731 568.719 156.091 568.719 155.131C568.719 154.171 569.359 153.531 570.319 153.531H687.119C688.079 153.531 688.719 154.171 688.719 155.131C688.719 156.091 688.079 156.731 687.119 156.731Z" fill="#005DA4"/>
<path d="M706.639 130.657H570.319C569.359 130.657 568.719 130.017 568.719 129.057C568.719 128.097 569.359 127.457 570.319 127.457H706.639C707.599 127.457 708.239 128.097 708.239 129.057C708.239 129.857 707.599 130.657 706.639 130.657Z" fill="#005DA4"/>
<path d="M706.639 139.294H570.319C569.359 139.294 568.719 138.654 568.719 137.694C568.719 136.734 569.359 136.094 570.319 136.094H706.639C707.599 136.094 708.239 136.734 708.239 137.694C708.239 138.654 707.599 139.294 706.639 139.294Z" fill="#005DA4"/>
<path d="M706.639 148.095H570.319C569.359 148.095 568.719 147.455 568.719 146.495C568.719 145.535 569.359 144.895 570.319 144.895H706.639C707.599 144.895 708.239 145.535 708.239 146.495C708.239 147.295 707.599 148.095 706.639 148.095Z" fill="#005DA4"/>
<path d="M706.642 209.837H589.842C588.882 209.837 588.242 209.197 588.242 208.237C588.242 207.277 588.882 206.637 589.842 206.637H706.642C707.602 206.637 708.242 207.277 708.242 208.237C708.242 209.037 707.602 209.837 706.642 209.837Z" fill="#005DA4"/>
<path d="M687.119 244.708H570.319C569.359 244.708 568.719 244.068 568.719 243.108C568.719 242.148 569.359 241.508 570.319 241.508H687.119C688.079 241.508 688.719 242.148 688.719 243.108C688.719 244.068 688.079 244.708 687.119 244.708Z" fill="#005DA4"/>
<path d="M706.639 218.634H570.319C569.359 218.634 568.719 217.994 568.719 217.034C568.719 216.074 569.359 215.434 570.319 215.434H706.639C707.599 215.434 708.239 216.074 708.239 217.034C708.239 217.834 707.599 218.634 706.639 218.634Z" fill="#005DA4"/>
<path d="M706.639 227.27H570.319C569.359 227.27 568.719 226.63 568.719 225.67C568.719 224.71 569.359 224.07 570.319 224.07H706.639C707.599 224.07 708.239 224.71 708.239 225.67C708.239 226.63 707.599 227.27 706.639 227.27Z" fill="#005DA4"/>
<path d="M706.639 236.071H570.319C569.359 236.071 568.719 235.431 568.719 234.471C568.719 233.511 569.359 232.871 570.319 232.871H706.639C707.599 232.871 708.239 233.511 708.239 234.471C708.239 235.271 707.599 236.071 706.639 236.071Z" fill="#005DA4"/>
<path d="M706.64 77.7109H690.32V99.4651H706.64V77.7109Z" fill="#005DA4"/>
<path d="M579.44 95.946C584.477 95.946 588.56 91.864 588.56 86.8285C588.56 81.793 584.477 77.7109 579.44 77.7109C574.403 77.7109 570.32 81.793 570.32 86.8285C570.32 91.864 574.403 95.946 579.44 95.946Z" fill="#005DA4"/>
<path d="M569.844 168.248C569.844 169.367 570.644 170.167 571.764 170.167C572.884 170.167 573.684 169.367 573.684 168.248C573.684 167.128 572.884 166.328 571.764 166.328C570.644 166.328 569.844 167.128 569.844 168.248Z" fill="#005DA4"/>
<path d="M569.844 177.044C569.844 178.164 570.644 178.964 571.764 178.964C572.884 178.964 573.684 178.164 573.684 177.044C573.684 175.925 572.884 175.125 571.764 175.125C570.644 175.125 569.844 175.925 569.844 177.044Z" fill="#005DA4"/>
<path d="M569.844 185.681C569.844 186.801 570.644 187.601 571.764 187.601C572.884 187.601 573.684 186.801 573.684 185.681C573.684 184.561 572.884 183.762 571.764 183.762C570.644 183.762 569.844 184.721 569.844 185.681Z" fill="#005DA4"/>
<path d="M569.844 194.482C569.844 195.602 570.644 196.401 571.764 196.401C572.884 196.401 573.684 195.602 573.684 194.482C573.684 193.362 572.884 192.562 571.764 192.562C570.644 192.562 569.844 193.362 569.844 194.482Z" fill="#005DA4"/>
<path d="M599.127 169.848H578.327C577.367 169.848 576.727 169.208 576.727 168.248C576.727 167.288 577.367 166.648 578.327 166.648H599.127C600.087 166.648 600.727 167.288 600.727 168.248C600.727 169.048 600.087 169.848 599.127 169.848Z" fill="#005DA4"/>
<path d="M618.647 178.645H578.327C577.367 178.645 576.727 178.005 576.727 177.045C576.727 176.085 577.367 175.445 578.327 175.445H618.647C619.607 175.445 620.247 176.085 620.247 177.045C620.247 177.845 619.607 178.645 618.647 178.645Z" fill="#005DA4"/>
<path d="M594.647 187.282H578.327C577.367 187.282 576.727 186.642 576.727 185.682C576.727 184.722 577.367 184.082 578.327 184.082H594.647C595.607 184.082 596.247 184.722 596.247 185.682C596.247 186.642 595.607 187.282 594.647 187.282Z" fill="#005DA4"/>
<path d="M612.247 196.083H578.327C577.367 196.083 576.727 195.443 576.727 194.483C576.727 193.523 577.367 192.883 578.327 192.883H612.247C613.207 192.883 613.847 193.523 613.847 194.483C613.847 195.283 613.207 196.083 612.247 196.083Z" fill="#005DA4"/>
<path opacity="0.5" d="M728.557 256.543L695.117 289.974V256.543H728.557Z" fill="#005DA4"/>
<path opacity="0.2" d="M706.64 77.7109L690.32 99.4651H706.64V77.7109Z" fill="#171717"/>
<path opacity="0.2" d="M584.716 81.5508H574.156V92.108H584.716V81.5508Z" fill="#171717"/>
<path opacity="0.4" d="M728.557 64.918H719.117V256.547H728.557V64.918Z" fill="#171717"/>
<path d="M723.918 101.068C721.998 101.068 720.398 99.4689 720.398 97.5494V78.0347C720.398 76.1152 721.998 74.5156 723.918 74.5156C725.838 74.5156 727.438 76.1152 727.438 78.0347V97.5494C727.278 99.4689 725.838 101.068 723.918 101.068Z" fill="#005DA4"/>
<path opacity="0.4" d="M723.918 101.068C721.998 101.068 720.398 99.4689 720.398 97.5494V78.0347C720.398 76.1152 721.998 74.5156 723.918 74.5156C725.838 74.5156 727.438 76.1152 727.438 78.0347V97.5494C727.278 99.4689 725.838 101.068 723.918 101.068Z" fill="white"/>
<path d="M248.16 206.332H304C308.48 206.332 312.16 210.011 312.16 214.49V268.715C312.16 273.194 308.48 276.873 304 276.873H281.28L283.68 293.189L272.48 276.873H248.16C243.68 276.873 240 273.194 240 268.715V214.33C240.16 209.851 243.68 206.332 248.16 206.332Z" fill="#005DA4"/>
<path opacity="0.6" d="M248.16 206.332H304C308.48 206.332 312.16 210.011 312.16 214.49V268.715C312.16 273.194 308.48 276.873 304 276.873H281.28L283.68 293.189L272.48 276.873H248.16C243.68 276.873 240 273.194 240 268.715V214.33C240.16 209.851 243.68 206.332 248.16 206.332Z" fill="white"/>
<path d="M271.523 230.326V234.645L273.763 234.805C274.083 236.244 274.563 237.684 275.363 238.803L273.923 240.563L276.963 243.602L278.723 242.163C279.843 242.962 281.283 243.602 282.723 243.762L282.883 246.002H287.203L287.363 243.762C288.803 243.442 290.243 242.962 291.363 242.163L293.123 243.602L296.163 240.563L294.723 238.803C295.523 237.684 296.163 236.244 296.323 234.805L298.563 234.645V230.326L296.323 230.166C296.003 228.726 295.523 227.287 294.723 226.167L296.163 224.407L293.123 221.368L291.363 222.808C290.243 222.008 288.803 221.368 287.363 221.208L287.203 218.969H282.883L282.723 221.208C281.283 221.528 279.843 222.008 278.723 222.808L276.963 221.368L273.923 224.407L275.363 226.167C274.563 227.287 273.923 228.726 273.763 230.166L271.523 230.326ZM285.123 226.487C288.323 226.487 291.043 229.046 291.043 232.405C291.043 235.604 288.483 238.324 285.123 238.324C281.923 238.324 279.203 235.764 279.203 232.405C279.363 229.206 281.923 226.487 285.123 226.487Z" fill="#F5F5F5"/>
<path d="M274.402 261.839C275.522 261.679 276.642 261.199 277.602 260.559L278.882 261.679L281.282 259.28L280.162 258C280.802 257.04 281.282 256.081 281.442 254.801L283.202 254.641V251.282L281.442 251.122C281.282 250.002 280.802 248.882 280.162 247.923L281.282 246.643L278.882 244.244L277.602 245.363C276.642 244.724 275.682 244.244 274.402 244.084L274.242 242.324H270.882L270.722 244.084C269.602 244.244 268.482 244.724 267.522 245.363L266.242 244.244L263.842 246.643L264.962 247.923C264.322 248.882 263.842 249.842 263.682 251.122L261.922 251.282V254.641L263.682 254.801C263.842 255.921 264.322 257.04 264.962 258L263.842 259.28L266.242 261.679L267.522 260.559C268.482 261.199 269.442 261.679 270.722 261.839L270.882 263.599H274.242L274.402 261.839ZM267.842 252.881C267.842 250.322 269.922 248.243 272.482 248.243C275.042 248.243 277.122 250.322 277.122 252.881C277.122 255.441 275.042 257.52 272.482 257.52C269.922 257.52 267.842 255.441 267.842 252.881Z" fill="#F5F5F5"/>
<path d="M265.441 242.644L266.401 243.763L268.801 242.164L268.161 240.884C268.801 240.244 269.281 239.445 269.761 238.485L271.201 238.645L271.681 235.766L270.241 235.286C270.241 234.326 270.081 233.366 269.601 232.566L270.721 231.607L269.121 229.207L267.841 229.847C267.201 229.207 266.401 228.727 265.441 228.248L265.601 226.808L262.721 226.328L262.241 227.768C261.281 227.768 260.321 227.928 259.521 228.408L258.561 227.288L256.161 228.887L256.801 230.167C256.161 230.807 255.681 231.607 255.201 232.566L253.761 232.406L253.281 235.286L254.721 235.766C254.721 236.725 254.881 237.685 255.361 238.485L254.241 239.445L255.841 241.844L257.121 241.204C257.761 241.844 258.561 242.324 259.521 242.804L259.361 244.243L262.241 244.723L262.721 243.284C263.681 243.284 264.641 243.124 265.441 242.644ZM258.721 234.966C259.041 232.886 261.121 231.447 263.201 231.927C265.281 232.247 266.721 234.326 266.241 236.405C265.921 238.485 263.841 239.924 261.761 239.445C259.681 238.965 258.401 237.045 258.721 234.966Z" fill="#F5F5F5"/>
<path d="M1020.16 389H1076C1080.48 389 1084.16 392.679 1084.16 397.158V451.383C1084.16 455.862 1080.48 459.541 1076 459.541H1053.28L1055.68 475.857L1044.48 459.541H1020.16C1015.68 459.541 1012 455.862 1012 451.383V396.998C1012.16 392.519 1015.68 389 1020.16 389Z" fill="#005DA4"/>
<path opacity="0.6" d="M1020.16 389H1076C1080.48 389 1084.16 392.679 1084.16 397.158V451.383C1084.16 455.862 1080.48 459.541 1076 459.541H1053.28L1055.68 475.857L1044.48 459.541H1020.16C1015.68 459.541 1012 455.862 1012 451.383V396.998C1012.16 392.519 1015.68 389 1020.16 389Z" fill="white"/>
<path d="M1043.52 412.994V417.313L1045.76 417.472C1046.08 418.912 1046.56 420.352 1047.36 421.471L1045.92 423.231L1048.96 426.27L1050.72 424.83C1051.84 425.63 1053.28 426.27 1054.72 426.43L1054.88 428.669H1059.2L1059.36 426.43C1060.8 426.11 1062.24 425.63 1063.36 424.83L1065.12 426.27L1068.16 423.231L1066.72 421.471C1067.52 420.352 1068.16 418.912 1068.32 417.472L1070.56 417.313V412.994L1068.32 412.834C1068 411.394 1067.52 409.954 1066.72 408.835L1068.16 407.075L1065.12 404.036L1063.36 405.476C1062.24 404.676 1060.8 404.036 1059.36 403.876L1059.2 401.637H1054.88L1054.72 403.876C1053.28 404.196 1051.84 404.676 1050.72 405.476L1048.96 404.036L1045.92 407.075L1047.36 408.835C1046.56 409.954 1045.92 411.394 1045.76 412.834L1043.52 412.994ZM1057.12 409.155C1060.32 409.155 1063.04 411.714 1063.04 415.073C1063.04 418.272 1060.48 420.992 1057.12 420.992C1053.92 420.992 1051.2 418.432 1051.2 415.073C1051.36 411.874 1053.92 409.155 1057.12 409.155Z" fill="#F5F5F5"/>
<path d="M1046.4 444.507C1047.52 444.347 1048.64 443.867 1049.6 443.227L1050.88 444.347L1053.28 441.948L1052.16 440.668C1052.8 439.708 1053.28 438.748 1053.44 437.469L1055.2 437.309V433.95L1053.44 433.79C1053.28 432.67 1052.8 431.55 1052.16 430.591L1053.28 429.311L1050.88 426.912L1049.6 428.031C1048.64 427.392 1047.68 426.912 1046.4 426.752L1046.24 424.992H1042.88L1042.72 426.752C1041.6 426.912 1040.48 427.392 1039.52 428.031L1038.24 426.912L1035.84 429.311L1036.96 430.591C1036.32 431.55 1035.84 432.51 1035.68 433.79L1033.92 433.95V437.309L1035.68 437.469C1035.84 438.589 1036.32 439.708 1036.96 440.668L1035.84 441.948L1038.24 444.347L1039.52 443.227C1040.48 443.867 1041.44 444.347 1042.72 444.507L1042.88 446.266H1046.24L1046.4 444.507ZM1039.84 435.549C1039.84 432.99 1041.92 430.911 1044.48 430.911C1047.04 430.911 1049.12 432.99 1049.12 435.549C1049.12 438.109 1047.04 440.188 1044.48 440.188C1041.92 440.188 1039.84 438.109 1039.84 435.549Z" fill="#F5F5F5"/>
<path d="M1037.44 425.312L1038.4 426.431L1040.8 424.832L1040.16 423.552C1040.8 422.912 1041.28 422.113 1041.76 421.153L1043.2 421.313L1043.68 418.434L1042.24 417.954C1042.24 416.994 1042.08 416.034 1041.6 415.234L1042.72 414.275L1041.12 411.875L1039.84 412.515C1039.2 411.875 1038.4 411.395 1037.44 410.916L1037.6 409.476L1034.72 408.996L1034.24 410.436C1033.28 410.436 1032.32 410.596 1031.52 411.076L1030.56 409.956L1028.16 411.555L1028.8 412.835C1028.16 413.475 1027.68 414.275 1027.2 415.234L1025.76 415.074L1025.28 417.954L1026.72 418.434C1026.72 419.393 1026.88 420.353 1027.36 421.153L1026.24 422.113L1027.84 424.512L1029.12 423.872C1029.76 424.512 1030.56 424.992 1031.52 425.472L1031.36 426.911L1034.24 427.391L1034.72 425.952C1035.68 425.952 1036.64 425.792 1037.44 425.312ZM1030.72 417.634C1031.04 415.554 1033.12 414.115 1035.2 414.595C1037.28 414.915 1038.72 416.994 1038.24 419.073C1037.92 421.153 1035.84 422.592 1033.76 422.113C1031.68 421.633 1030.4 419.713 1030.72 417.634Z" fill="#F5F5F5"/>
<path d="M209.142 405C209.142 405 213.142 440.35 214.422 444.669C215.702 448.828 233.782 471.382 233.782 471.382L228.662 474.101C228.662 474.101 209.462 454.427 206.422 448.508C203.382 442.59 198.742 412.038 198.742 412.038L209.142 405Z" fill="#FFBF9D"/>
<path d="M205.462 389.164C212.182 392.683 214.262 441.79 214.262 441.79L217.622 446.909L207.382 454.107C207.382 454.107 203.062 446.909 200.982 441.47C198.902 436.031 194.102 408.999 194.102 408.999L205.462 389.164Z" fill="#263238"/>
<path opacity="0.1" d="M205.462 389.164C212.182 392.683 214.262 441.79 214.262 441.79L217.622 446.909L207.382 454.107C207.382 454.107 203.062 446.909 200.982 441.47C198.902 436.031 194.102 408.999 194.102 408.999L205.462 389.164Z" fill="white"/>
<path d="M205.945 454.266L217.625 444.988L220.185 450.267L209.305 457.945L205.945 454.266Z" fill="#005DA4"/>
<path opacity="0.4" d="M205.945 454.266L217.625 444.988L220.185 450.267L209.305 457.945L205.945 454.266Z" fill="white"/>
<path d="M179.38 452.506L191.38 471.381C215.06 465.782 291.22 454.265 300.5 480.338C312.18 512.81 228.18 538.563 181.78 540.162C135.38 541.762 98.0999 515.369 127.38 447.707L179.38 452.506Z" fill="#005DA4"/>
<path opacity="0.2" d="M179.38 452.506L191.38 471.381C215.06 465.782 291.22 454.265 300.5 480.338C312.18 512.81 228.18 538.563 181.78 540.162C135.38 541.762 98.0999 515.369 127.38 447.707L179.38 452.506Z" fill="#171717"/>
<path d="M286.902 526.247C286.742 526.247 286.582 526.247 286.582 526.247C286.422 526.247 286.422 526.087 286.422 525.927C286.582 525.447 288.182 520.968 289.622 520.489C289.942 520.329 290.262 520.489 290.582 520.808C291.062 521.128 291.222 521.768 291.062 522.248C290.742 523.048 290.262 523.848 289.622 524.327C288.822 525.127 288.022 525.767 286.902 526.247ZM287.382 525.447C288.822 524.807 289.942 523.688 290.742 522.248C290.902 521.928 290.742 521.448 290.422 521.288C290.262 521.128 290.262 521.128 290.102 521.128C289.942 521.128 289.782 521.288 289.782 521.288C288.502 522.568 287.862 523.848 287.382 525.447Z" fill="#005DA4"/>
<path d="M286.898 526.406C286.738 526.406 286.738 526.406 286.578 526.246C286.418 526.086 284.338 523.367 284.658 521.607C284.818 521.128 284.978 520.808 285.458 520.488C285.778 520.168 286.258 520.168 286.738 520.328C287.858 521.128 287.698 524.807 287.218 526.086L286.898 526.406C286.898 526.246 286.898 526.246 286.898 526.406ZM285.618 520.968C285.458 521.128 285.298 521.287 285.298 521.607C285.138 522.727 286.098 524.487 286.738 525.286C287.058 523.687 286.898 521.128 286.258 520.808C286.258 520.808 286.098 520.648 285.618 520.968Z" fill="#005DA4"/>
<path d="M205.297 533.926C205.297 533.766 205.457 533.766 205.617 533.766C205.777 533.766 205.777 533.926 205.777 533.926C205.937 534.405 206.737 539.044 205.617 540.324C205.297 540.484 204.977 540.644 204.657 540.484C204.017 540.324 203.697 540.004 203.377 539.364C203.217 538.564 203.217 537.605 203.697 536.805C204.177 535.845 204.657 534.885 205.297 533.926ZM205.457 534.885C204.497 536.165 204.017 537.765 204.177 539.204C204.337 539.524 204.657 539.844 204.977 539.844C205.137 539.844 205.297 539.844 205.297 539.684C205.457 539.524 205.457 539.524 205.457 539.364C205.777 537.925 205.617 536.325 205.457 534.885Z" fill="#005DA4"/>
<path d="M235.703 510.41L216.663 517.128L207.383 520.487L209.783 530.565L218.743 528.645L240.343 524.007L235.703 510.41Z" fill="#FFBF9D"/>
<path d="M212.34 530.886L210.74 519.049C210.58 518.41 210.1 517.93 209.3 518.09L203.38 519.049C203.38 519.049 195.38 519.849 193.78 521.769C189.14 527.687 192.02 554.08 195.06 554.88C196.18 555.2 197.3 553.6 197.94 552.64C199.54 549.281 202.26 540.324 203.54 537.604C205.14 534.245 209.3 532.646 211.22 532.166C212.02 532.006 212.34 531.526 212.34 530.886Z" fill="#263238"/>
<path d="M205.297 533.764C205.297 533.605 205.457 533.605 205.617 533.764C205.777 533.764 208.977 535.204 209.617 536.964C209.777 537.444 209.777 537.923 209.457 538.243C209.297 538.723 208.817 539.043 208.497 538.883C207.057 538.723 205.457 535.524 205.297 534.084V533.764ZM208.977 537.763C209.137 537.444 209.137 537.284 208.977 536.964C208.657 535.844 206.897 534.884 205.937 534.404C206.417 536.004 207.697 538.083 208.497 538.243C208.657 538.243 208.817 538.403 208.977 537.763Z" fill="#005DA4"/>
<path opacity="0.2" d="M235.696 510.41L216.656 517.128L218.736 528.645L240.336 524.007L235.696 510.41Z" fill="#171717"/>
<path d="M222.097 530.247L227.537 530.726L223.857 511.852L217.617 515.211L222.097 530.247Z" fill="#005DA4"/>
<path opacity="0.6" d="M222.097 530.247L227.537 530.726L223.857 511.852L217.617 515.211L222.097 530.247Z" fill="white"/>
<path opacity="0.2" d="M142.422 456.824L171.062 488.496C171.062 488.496 202.742 487.856 241.142 506.571C241.142 506.571 282.422 489.615 286.102 475.379C291.062 456.824 191.382 471.38 191.382 471.38L142.422 456.824Z" fill="#171717"/>
<path d="M276.497 479.223V483.861C276.497 485.141 275.057 485.621 273.937 485.621H180.017C178.737 485.621 177.297 485.141 177.297 483.861V479.223H276.497Z" fill="#263238"/>
<path opacity="0.4" d="M276.497 479.223V483.861C276.497 485.141 275.057 485.621 273.937 485.621H180.017C178.737 485.621 177.297 485.141 177.297 483.861V479.223H276.497Z" fill="white"/>
<path opacity="0.2" d="M276.493 479.223V483.861C276.493 485.141 275.053 485.621 273.933 485.621H212.013C210.733 485.621 209.453 485.141 209.453 483.861V479.223H276.493Z" fill="#171717"/>
<path d="M292.336 430.434L281.136 481.141C280.816 482.74 279.216 484.02 277.457 484.02H216.336C214.736 484.02 213.616 482.58 214.096 480.821L225.296 430.434C225.616 428.835 227.216 427.875 228.976 427.875H290.096C291.536 428.035 292.656 428.835 292.336 430.434Z" fill="#263238"/>
<path opacity="0.4" d="M292.335 430.434L281.135 481.141C280.815 482.74 279.215 484.02 277.455 484.02H218.415C216.815 484.02 215.695 482.58 216.175 480.821L227.375 430.434C227.695 428.835 229.295 427.875 231.055 427.875H290.095C291.535 428.035 292.655 428.835 292.335 430.434Z" fill="white"/>
<path opacity="0.2" d="M262.098 456.346C262.098 460.665 257.458 464.184 254.098 464.184C250.738 464.184 248.658 460.665 249.618 456.346C250.578 452.027 253.938 448.668 257.298 448.508C256.338 452.827 258.418 456.346 261.778 456.346C261.938 456.346 262.098 456.346 262.098 456.346Z" fill="#171717"/>
<path d="M248.977 532.166L268.977 535.365L278.577 536.965L281.457 527.047L272.657 524.488L251.537 517.93L248.977 532.166Z" fill="#FFBF9D"/>
<path d="M279.383 525.449L275.063 536.646C274.743 537.285 275.063 537.925 275.703 538.245L281.303 540.165C281.303 540.165 288.663 543.364 291.063 542.404C297.943 539.365 308.183 515.051 305.943 512.812C305.143 512.012 303.383 512.812 302.423 513.452C299.383 515.691 292.663 522.089 290.263 523.849C287.383 525.928 282.743 525.289 280.823 524.809C280.183 524.649 279.703 524.969 279.383 525.449Z" fill="#263238"/>
<path opacity="0.2" d="M248.977 532.166L268.977 535.365L272.657 524.488L251.537 517.93L248.977 532.166Z" fill="#171717"/>
<path d="M269.304 522.408C269.304 522.408 187.704 476.5 159.544 477.939C131.384 479.219 127.384 504.012 138.904 519.528C150.584 535.044 172.024 538.883 172.024 538.883C172.024 538.883 157.464 518.249 159.544 512.49C161.624 506.732 169.944 514.73 169.944 514.73C169.944 514.73 221.304 531.365 266.104 535.044L269.304 522.408Z" fill="#005DA4"/>
<path d="M270.583 521.129L265.943 517.93L260.023 536.165H267.223L270.583 521.129Z" fill="#005DA4"/>
<path opacity="0.6" d="M270.583 521.129L265.943 517.93L260.023 536.165H267.223L270.583 521.129Z" fill="white"/>
<path d="M127.383 447.869L179.383 452.668C179.383 452.668 187.543 435.872 193.783 429.314C200.023 422.756 205.623 389.325 205.623 389.325C201.303 387.245 196.823 385.486 192.663 384.046C176.183 378.448 161.143 377.488 152.983 377.328H152.663C148.823 377.328 146.583 377.488 146.583 377.488C145.303 378.128 144.023 379.728 142.903 381.647C137.303 391.244 132.983 413.638 130.263 429.634C128.343 440.031 127.383 447.869 127.383 447.869Z" fill="#263238"/>
<path opacity="0.2" d="M129.945 429.635C141.465 424.357 156.985 415.559 156.185 406.442C155.225 396.524 147.225 386.607 142.585 381.488C136.985 391.246 132.665 413.64 129.945 429.635Z" fill="#171717"/>
<path d="M155.227 377.168C155.227 377.168 161.147 396.683 177.307 398.762C193.467 400.842 196.187 385.166 196.187 385.166C196.187 385.166 175.387 373.809 155.227 377.168Z" fill="#263238"/>
<path opacity="0.1" d="M155.227 377.168C155.227 377.168 161.147 396.683 177.307 398.762C193.467 400.842 196.187 385.166 196.187 385.166C196.187 385.166 175.387 373.809 155.227 377.168Z" fill="white"/>
<path d="M158.586 377.806C158.586 377.806 166.266 395.881 180.026 395.881C193.786 395.881 194.266 385.804 194.266 385.804C194.266 385.804 180.506 376.687 158.586 377.806Z" fill="#005DA4"/>
<path opacity="0.4" d="M158.586 377.806C158.586 377.806 166.266 395.881 180.026 395.881C193.786 395.881 194.266 385.804 194.266 385.804C194.266 385.804 180.506 376.687 158.586 377.806Z" fill="white"/>
<path d="M183.537 380.528C183.697 383.727 185.457 384.527 185.457 384.527C186.097 390.445 180.977 392.365 178.417 392.045C168.177 390.925 164.977 378.768 164.977 378.768C172.337 375.889 174.097 367.571 174.417 362.773C174.577 360.533 174.417 358.934 174.417 358.934L188.337 367.731C186.897 369.971 185.937 372.05 185.297 373.81C183.857 376.849 183.537 378.928 183.537 380.528Z" fill="#FFBF9D"/>
<path opacity="0.2" d="M187.377 366.612C186.257 369.011 185.457 371.091 184.977 373.01C184.017 376.049 183.857 378.289 184.177 379.888C176.337 380.528 173.297 363.253 173.297 363.253V363.093C173.137 360.853 172.977 359.254 172.977 359.254L187.377 366.612Z" fill="#171717"/>
<path d="M196.183 328.221C196.183 328.221 206.423 316.544 194.103 306.626C181.943 296.869 157.943 301.188 153.463 323.422C148.983 345.496 155.223 354.933 155.223 354.933C155.223 354.933 155.223 340.857 159.223 336.698C159.223 336.698 157.943 343.417 159.223 347.575C160.503 351.574 159.223 349.015 159.223 349.015C159.223 349.015 162.903 331.42 180.983 336.378C199.223 341.497 196.183 328.221 196.183 328.221Z" fill="#263238"/>
<path d="M198.745 332.06C212.185 336.219 214.265 344.697 211.065 358.773C207.065 376.368 199.385 387.565 183.865 378.767C162.425 366.771 176.345 325.342 198.745 332.06Z" fill="#FFBF9D"/>
<path d="M202.58 355.414C202.58 355.414 203.38 359.413 204.82 362.132C204.82 362.132 203.06 363.572 200.82 362.612L202.58 355.414Z" fill="#D58745"/>
<path d="M194.585 351.736C194.265 352.856 193.465 353.656 192.665 353.336C191.865 353.176 191.545 352.056 191.865 350.936C192.185 349.817 192.985 349.017 193.785 349.337C194.585 349.657 194.905 350.616 194.585 351.736Z" fill="#263238"/>
<path d="M193.625 349.336L196.345 349.016C196.185 349.016 194.425 350.776 193.625 349.336Z" fill="#263238"/>
<path d="M208.499 355.416C208.179 356.535 207.379 357.335 206.579 357.015C205.779 356.855 205.459 355.736 205.779 354.616C206.099 353.496 206.899 352.696 207.699 353.016C208.499 353.176 208.819 354.296 208.499 355.416Z" fill="#263238"/>
<path d="M207.375 353.015L210.095 352.695C210.095 352.695 208.335 354.455 207.375 353.015Z" fill="#263238"/>
<path d="M190.905 343.256C190.745 343.256 190.585 343.096 190.425 342.936C190.265 342.616 190.265 342.296 190.585 342.136C193.625 340.056 197.465 341.816 197.625 341.816C197.945 341.976 198.105 342.296 197.945 342.616C197.785 342.936 197.465 343.096 197.145 342.936C197.145 342.936 193.785 341.496 191.225 343.096C191.065 343.256 191.065 343.256 190.905 343.256Z" fill="#263238"/>
<path d="M212.342 348.215C212.182 348.215 212.022 348.215 211.862 348.055C209.782 345.496 207.382 345.496 207.382 345.496C207.062 345.496 206.742 345.336 206.742 345.016C206.742 344.696 206.902 344.376 207.222 344.376C207.382 344.376 210.102 344.216 212.662 347.256C212.822 347.576 212.822 347.896 212.662 348.055C212.502 348.215 212.342 348.215 212.342 348.215Z" fill="#263238"/>
<path d="M177.14 350.135C177.14 350.135 186.74 341.018 188.34 332.22C188.34 332.22 218.26 329.501 211.22 356.853C211.22 356.853 221.14 333.66 198.26 326.142C175.38 318.624 165.14 352.375 174.1 365.971C174.1 365.971 171.22 355.894 177.14 350.135Z" fill="#263238"/>
<path d="M197.626 368.53C191.066 368.371 190.266 362.292 190.266 362.292C190.266 361.972 190.426 361.652 190.746 361.652C191.066 361.652 191.386 361.812 191.386 362.132C191.386 362.292 192.186 367.251 197.626 367.411C197.946 367.411 198.266 367.731 198.266 368.051C198.266 368.371 197.946 368.53 197.626 368.53Z" fill="#263238"/>
<path d="M174.742 347.574C174.742 347.734 174.742 347.894 174.902 348.054C174.902 348.054 174.902 348.054 175.062 348.054L188.662 351.253C188.182 353.812 189.462 356.372 192.182 357.651C195.542 359.251 199.542 358.131 201.302 355.092C201.462 354.772 201.622 354.452 201.782 354.132C202.582 353.652 203.062 353.492 203.542 353.652C204.022 353.812 204.182 354.452 204.182 354.452C203.702 356.851 204.982 359.411 207.702 360.69C211.062 362.29 215.062 361.17 216.822 358.131C218.582 355.092 217.302 351.413 214.102 349.813C210.742 348.214 206.742 349.333 204.982 352.373C204.822 352.693 204.662 353.012 204.502 353.332C204.342 353.172 204.182 353.013 203.862 352.853C203.382 352.693 202.742 352.693 202.102 353.012C202.582 350.453 201.302 347.894 198.582 346.614C195.222 345.015 191.222 346.134 189.462 349.174C189.302 349.493 188.982 349.973 188.982 350.293L175.382 347.094C175.062 347.254 174.902 347.254 174.742 347.574ZM205.622 352.853C207.222 350.293 210.742 349.333 213.622 350.613C216.502 352.053 217.622 355.252 216.022 357.811C214.422 360.371 210.902 361.33 208.022 360.051C205.142 358.611 204.182 355.412 205.622 352.853ZM190.262 349.653C191.862 347.094 195.382 346.134 198.262 347.414C201.142 348.854 202.262 352.053 200.662 354.612C199.062 357.171 195.542 358.131 192.662 356.851C189.782 355.412 188.662 352.213 190.262 349.653Z" fill="#263238"/>
<g opacity="0.3">
<path d="M174.742 347.574C174.742 347.734 174.742 347.894 174.902 348.054C174.902 348.054 174.902 348.054 175.062 348.054L188.662 351.253C188.182 353.812 189.462 356.372 192.182 357.651C195.542 359.251 199.542 358.131 201.302 355.092C201.462 354.772 201.622 354.452 201.782 354.132C202.582 353.652 203.062 353.492 203.542 353.652C204.022 353.812 204.182 354.452 204.182 354.452C203.702 356.851 204.982 359.411 207.702 360.69C211.062 362.29 215.062 361.17 216.822 358.131C218.582 355.092 217.302 351.413 214.102 349.813C210.742 348.214 206.742 349.333 204.982 352.373C204.822 352.693 204.662 353.012 204.502 353.332C204.342 353.172 204.182 353.013 203.862 352.853C203.382 352.693 202.742 352.693 202.102 353.012C202.582 350.453 201.302 347.894 198.582 346.614C195.222 345.015 191.222 346.134 189.462 349.174C189.302 349.493 188.982 349.973 188.982 350.293L175.382 347.094C175.062 347.254 174.902 347.254 174.742 347.574ZM205.622 352.853C207.222 350.293 210.742 349.333 213.622 350.613C216.502 352.053 217.622 355.252 216.022 357.811C214.422 360.371 210.902 361.33 208.022 360.051C205.142 358.611 204.182 355.412 205.622 352.853ZM190.262 349.653C191.862 347.094 195.382 346.134 198.262 347.414C201.142 348.854 202.262 352.053 200.662 354.612C199.062 357.171 195.542 358.131 192.662 356.851C189.782 355.412 188.662 352.213 190.262 349.653Z" fill="white"/>
</g>
<path d="M178.422 353.653C179.062 351.414 177.942 347.095 173.782 346.295C169.462 345.495 164.982 353.333 174.582 358.612C176.022 359.411 177.302 358.292 178.422 353.653Z" fill="#FFBF9D"/>
<path d="M152.338 394.922C152.338 394.922 154.098 429.153 156.978 436.831C159.858 444.509 190.098 472.821 190.098 472.821C190.098 472.821 198.578 470.901 199.858 471.541C201.298 472.021 209.298 479.539 209.298 479.539H186.098L184.018 476.02C184.018 476.02 152.818 452.826 149.298 447.388C146.738 443.229 138.578 401.8 138.578 401.8L152.338 394.922Z" fill="#FFBF9D"/>
<path d="M146.263 377.328C151.703 374.449 154.263 383.566 157.623 401.961C160.823 420.356 160.343 436.992 160.343 436.992L164.983 445.15L153.303 455.867C153.303 455.867 144.503 447.869 140.983 436.832C137.303 426.115 127.383 387.245 146.263 377.328Z" fill="#263238"/>
<path opacity="0.1" d="M146.263 377.328C151.703 374.449 154.263 383.566 157.623 401.961C160.823 420.356 160.343 436.992 160.343 436.992L164.983 445.15L153.303 455.867C153.303 455.867 144.503 447.869 140.983 436.832C137.303 426.115 127.383 387.245 146.263 377.328Z" fill="white"/>
<path d="M150.266 456.027L164.986 442.91L168.506 447.869L155.226 460.665L150.266 456.027Z" fill="#005DA4"/>
<path opacity="0.4" d="M150.266 456.027L164.986 442.91L168.506 447.869L155.226 460.665L150.266 456.027Z" fill="white"/>
</g>
<defs>
<clipPath id="clip0_1250_7392">
<rect width="1296" height="556" fill="white"/>
</clipPath>
</defs>
</svg>
