<svg width="595" height="551" viewBox="0 0 595 551" fill="none" xmlns="http://www.w3.org/2000/svg">
    <g clip-path="url(#clip0_316_11312)">
        <path d="M529.47 275.5C529.47 391.999 435.053 486.417 318.553 486.417C202.124 486.417 107.637 391.999 107.637 275.5C107.637 159.001 202.054 64.5835 318.553 64.5835C435.053 64.5835 529.47 159.001 529.47 275.5Z" fill="white" />
        <path d="M45.1308 278.823C44.231 204.133 73.6499 129.374 132.626 74.759C191.603 20.1436 268.369 -3.4608 342.712 3.1152L344.72 1.24623C339.528 0.761685 334.337 0.41558 329.076 0.207916C255.563 -2.63015 185.304 23.397 131.311 73.3746C77.3187 123.352 46.0307 191.397 43.2619 264.979C43.0542 270.239 43.0542 275.431 43.1234 280.623L45.1308 278.823Z" fill="white" />
        <path d="M554.737 137.335L556.191 135.951C546.223 118.991 534.317 103.001 520.611 88.2572C501.229 67.2832 479.009 49.701 454.782 35.926L453.259 37.3797C477.279 50.947 499.568 68.3215 519.296 89.5724C533.071 104.455 544.908 120.514 554.737 137.335Z" fill="white" />
        <path d="M589.9 241.443C600.422 325.893 571.556 414.081 504.481 476.241C393.797 578.758 220.329 572.113 117.812 461.428C98.0841 440.177 82.4401 416.573 70.811 391.653L69.2881 393.107C81.1941 418.303 96.9765 441.769 116.497 462.743C166.475 516.736 234.519 548.024 308.101 550.793C381.614 553.631 451.873 527.603 505.866 477.626C559.858 427.648 591.146 359.604 593.915 286.022C594.538 270.378 593.776 254.872 591.838 239.713L589.9 241.443Z" fill="white" />
        <path d="M119.68 166.477C128.056 151.248 138.301 136.712 150.484 123.283C232.718 32.4648 372.268 23.8122 465.024 102.378L466.27 101.063C421.83 63.4067 365.692 44.3016 307.269 47.2089C246.286 50.2546 190.147 76.8355 149.168 122.106C136.778 135.812 126.187 150.694 117.604 166.546H119.68V166.477Z" fill="white" />
        <path d="M92.2699 262.417H90.3317C89.9163 270.516 89.8471 278.615 90.2624 286.783C93.1697 345.206 117.674 399.198 159.553 439.692L160.799 438.377C111.79 390.961 88.6704 326.17 92.2699 262.417Z" fill="white" />
        <path d="M519.641 166.477C517.357 162.254 514.934 158.101 512.303 154.017L510.988 155.471C513.273 159.07 515.349 162.739 517.426 166.477H519.641Z" fill="white" />
        <path d="M546.776 262.417H544.838C548.229 321.048 529.055 380.855 486.623 427.717C417.125 504.483 306.648 522.481 218.114 478.802L216.799 480.256C251.479 497.561 290.104 505.729 329.837 503.791C390.821 500.745 446.959 474.165 487.938 428.963C528.917 383.693 549.822 325.201 546.845 264.217C546.845 263.594 546.776 263.04 546.776 262.417Z" fill="white" />
        <path d="M411.103 502.684C414.426 501.3 417.818 499.777 421.071 498.254L420.31 496.593C417.056 498.116 413.734 499.569 410.411 500.954L411.103 502.684Z" fill="white" />
        <path d="M120.099 421.418L118.646 422.526C120.791 425.433 123.076 428.341 125.36 431.109L126.744 429.933C124.529 427.164 122.245 424.326 120.099 421.418Z" fill="white" />
        <path d="M107.985 403.628L106.462 404.598C108.331 407.643 110.338 410.758 112.346 413.735L113.869 412.696C111.861 409.72 109.923 406.674 107.985 403.628Z" fill="white" />
        <path d="M81.7501 344.583L80.0195 345.068C81.0578 348.529 82.1654 352.059 83.3421 355.451L85.0727 354.897C83.8959 351.505 82.7884 348.044 81.7501 344.583Z" fill="white" />
        <path d="M148.826 453.606L147.58 454.922C150.21 457.414 152.91 459.836 155.679 462.19L156.856 460.805C154.156 458.521 151.456 456.098 148.826 453.606Z" fill="white" />
        <path d="M97.5335 384.731L95.9414 385.562C97.5335 388.815 99.264 392 100.995 395.184L102.587 394.284C100.856 391.169 99.1256 387.985 97.5335 384.731Z" fill="white" />
        <path d="M88.7404 365.003L87.0791 365.695C88.3943 369.087 89.7787 372.41 91.3016 375.732L92.9629 374.971C91.44 371.718 90.0556 368.326 88.7404 365.003Z" fill="white" />
        <path d="M390.684 510.16C394.145 509.052 397.606 507.876 400.998 506.63L400.375 504.899C396.983 506.145 393.591 507.322 390.13 508.36L390.684 510.16Z" fill="white" />
        <path d="M347.974 517.774L348.181 519.574C351.781 519.089 355.38 518.536 358.911 517.913L358.564 516.113C355.103 516.805 351.573 517.359 347.974 517.774Z" fill="white" />
        <path d="M369.295 514.036L369.71 515.836C373.241 515.075 376.771 514.175 380.301 513.275L379.817 511.544C376.286 512.375 372.756 513.275 369.295 514.036Z" fill="white" />
        <path d="M165.231 467.658L164.123 469.112C166.961 471.327 169.868 473.542 172.845 475.619L173.883 474.165C170.976 472.088 168.069 469.873 165.231 467.658Z" fill="white" />
        <path d="M182.813 480.256L181.844 481.779C184.889 483.786 188.004 485.655 191.119 487.524L192.019 485.932C188.904 484.132 185.789 482.264 182.813 480.256Z" fill="white" />
        <path d="M227.668 503.307C225.384 502.407 223.1 501.507 220.885 500.538L220.192 502.199C222.754 503.307 225.315 504.345 227.945 505.314L227.668 503.307Z" fill="white" />
        <path d="M201.363 491.263L200.532 492.855C203.716 494.585 206.97 496.177 210.223 497.769L210.985 496.108C207.8 494.585 204.547 492.993 201.363 491.263Z" fill="white" />
        <path d="M133.804 438.17L132.42 439.346C134.843 442.046 137.335 444.746 139.827 447.307L141.142 446.061C138.65 443.5 136.158 440.8 133.804 438.17Z" fill="white" />
        <path d="M127.366 120.652L125.982 119.476C123.698 122.244 121.413 125.152 119.268 128.059L120.721 129.167C122.867 126.259 125.082 123.421 127.366 120.652Z" fill="white" />
        <path d="M156.37 88.4648C153.602 90.8184 150.902 93.2411 148.271 95.7331L149.517 97.0483C152.148 94.6255 154.847 92.2028 157.547 89.8493L156.37 88.4648Z" fill="white" />
        <path d="M140.52 103.278C138.028 105.839 135.467 108.539 133.044 111.239L134.359 112.415C136.782 109.716 139.274 107.085 141.766 104.524L140.52 103.278Z" fill="white" />
        <path d="M171.946 76.2124C169.523 77.9429 167.101 79.7427 164.816 81.6117L165.924 83.0653C168.001 81.4732 170.077 79.8811 172.223 78.289L171.946 76.2124Z" fill="white" />
        <path d="M273.355 35.1647L273.008 33.365C269.824 33.9188 266.571 34.611 263.387 35.3032L263.594 37.1029C266.848 36.3415 270.101 35.7185 273.355 35.1647Z" fill="white" />
        <path d="M326.585 519.643L326.793 521.443C330.323 521.304 333.853 521.028 337.383 520.751L337.245 518.951C333.715 519.297 330.115 519.505 326.585 519.643Z" fill="white" />
        <path d="M112.899 136.851C110.892 139.827 108.884 142.873 106.946 145.988L108.469 146.957C110.338 143.911 112.346 140.865 114.353 137.889L112.899 136.851Z" fill="white" />
        <path d="M101.409 155.402C99.6097 158.517 97.9484 161.77 96.2871 165.024L97.8792 165.854C99.4713 162.67 101.202 159.417 102.932 156.302L101.409 155.402Z" fill="white" />
        <path d="M77.3202 215.97C76.4203 219.5 75.6589 223.031 74.8975 226.63L76.6972 226.976C77.3894 223.446 78.2201 219.916 79.12 216.386L77.3202 215.97Z" fill="white" />
        <path d="M91.6492 174.853C90.1956 178.175 88.742 181.498 87.4268 184.89L89.0881 185.582C90.4033 182.259 91.8569 178.867 93.3106 175.614L91.6492 174.853Z" fill="white" />
        <path d="M83.5501 195.065C82.3734 198.457 81.2659 201.988 80.2275 205.449L81.9581 205.933C82.9964 202.472 84.1039 199.011 85.2807 195.619L83.5501 195.065Z" fill="white" />
        <path d="M551.969 346.037C553.007 342.575 553.976 339.045 554.876 335.515L553.146 335.1C552.246 338.561 551.277 342.091 550.308 345.552L551.969 346.037Z" fill="white" />
        <path d="M539.441 176.514L541.102 175.753C539.648 172.43 538.056 169.108 536.464 165.924L534.872 166.754C536.464 169.938 537.987 173.261 539.441 176.514Z" fill="white" />
        <path d="M505.659 121.483L507.044 120.307C504.759 117.538 502.406 114.7 499.983 112L498.599 113.177C501.021 115.946 503.375 118.714 505.659 121.483Z" fill="white" />
        <path d="M430.832 493.408C434.016 491.747 437.2 489.947 440.315 488.147L439.415 486.555C436.3 488.355 433.185 490.155 430.001 491.816L430.832 493.408Z" fill="white" />
        <path d="M518.536 138.789L520.058 137.75C518.051 134.774 515.905 131.797 513.759 128.89L512.306 129.998C514.452 132.905 516.528 135.881 518.536 138.789Z" fill="white" />
        <path d="M316.825 31.3574V29.5576C313.225 29.5576 309.557 29.6268 305.957 29.7653L306.026 31.565C309.626 31.4266 313.294 31.3574 316.825 31.3574Z" fill="white" />
        <path d="M284.015 33.5032L284.569 33.434C288.169 32.9495 291.768 32.6034 295.298 32.2573L295.16 30.4575C291.56 30.7344 287.961 31.1497 284.361 31.6343L283.808 31.7035L284.015 33.5032Z" fill="white" />
        <path d="M338.422 32.3266L338.56 30.5268C334.96 30.1807 331.292 29.973 327.692 29.7654L327.623 31.5651C331.223 31.7728 334.891 32.0497 338.422 32.3266Z" fill="white" />
        <path d="M401.551 46.7244L402.174 45.0631C398.783 43.8171 395.321 42.5712 391.86 41.4636L391.307 43.1942C394.698 44.3017 398.16 45.4784 401.551 46.7244Z" fill="white" />
        <path d="M380.925 40.0792L381.409 38.3487C377.948 37.3796 374.349 36.4797 370.819 35.7183L370.403 37.518C373.934 38.2102 377.533 39.1101 380.925 40.0792Z" fill="white" />
        <path d="M359.811 35.2336L360.158 33.4339C356.627 32.8109 352.959 32.1879 349.428 31.7034L349.151 33.5031C352.751 34.0569 356.281 34.6107 359.811 35.2336Z" fill="white" />
        <path d="M529.819 157.201L531.411 156.301C529.681 153.117 527.812 150.002 525.943 146.957L524.42 147.926C526.22 150.902 528.089 154.017 529.819 157.201Z" fill="white" />
        <path d="M499.015 440.246C501.438 437.547 503.792 434.778 506.076 432.009L504.691 430.832C502.407 433.601 500.054 436.37 497.631 439L499.015 440.246Z" fill="white" />
        <path d="M512.859 423.426C515.005 420.519 517.151 417.542 519.227 414.566L517.704 413.527C515.697 416.504 513.551 419.411 511.405 422.318L512.859 423.426Z" fill="white" />
        <path d="M525.181 405.498C527.119 402.452 528.988 399.268 530.719 396.153L529.127 395.253C527.396 398.368 525.527 401.483 523.589 404.529L525.181 405.498Z" fill="white" />
        <path d="M449.522 482.471C452.568 480.533 455.544 478.457 458.521 476.38L457.482 474.926C454.575 477.003 451.529 479.01 448.553 480.949L449.522 482.471Z" fill="white" />
        <path d="M535.84 386.462C537.501 383.208 539.024 379.955 540.547 376.632L538.886 375.871C537.432 379.124 535.84 382.447 534.248 385.631L535.84 386.462Z" fill="white" />
        <path d="M467.243 469.873C470.081 467.658 472.919 465.374 475.688 463.02L474.511 461.636C471.812 463.989 468.974 466.274 466.136 468.489L467.243 469.873Z" fill="white" />
        <path d="M483.787 455.752C486.417 453.26 489.048 450.699 491.609 448.138L490.294 446.892C487.802 449.453 485.171 452.014 482.541 454.437L483.787 455.752Z" fill="white" />
        <path d="M557.576 238.536L559.376 238.26C558.822 234.66 558.199 231.061 557.507 227.53L555.707 227.876C556.399 231.407 557.022 235.006 557.576 238.536Z" fill="white" />
        <path d="M544.771 366.664C546.086 363.273 547.401 359.881 548.578 356.42L546.847 355.797C545.67 359.188 544.424 362.58 543.04 365.903L544.771 366.664Z" fill="white" />
        <path d="M547.333 196.657L549.063 196.104C547.887 192.712 546.641 189.251 545.325 185.859L543.664 186.551C544.91 189.804 546.156 193.266 547.333 196.657Z" fill="white" />
        <path d="M553.354 217.355L555.084 216.94C554.254 213.409 553.284 209.879 552.246 206.418L550.516 206.903C551.554 210.364 552.523 213.894 553.354 217.355Z" fill="white" />
        <path d="M561.729 259.926C561.521 256.326 561.175 252.657 560.76 249.058L558.96 249.266C559.375 252.865 559.652 256.465 559.929 259.995L561.729 259.926Z" fill="white" />
        <path d="M557.3 324.924C557.992 321.394 558.684 317.794 559.238 314.195L557.438 313.918C556.884 317.448 556.261 321.048 555.5 324.578L557.3 324.924Z" fill="white" />
        <path d="M560.691 303.396C561.107 299.797 561.453 296.128 561.66 292.529L559.861 292.39C559.584 295.99 559.307 299.589 558.892 303.119L560.691 303.396Z" fill="white" />
        <path d="M562.144 281.661C562.214 278.062 562.214 274.393 562.144 270.793L560.345 270.863C560.414 274.462 560.414 278.062 560.345 281.661H562.144Z" fill="white" />
        <path d="M561.174 169.315C561.174 175.199 556.397 179.975 550.514 179.975C544.63 179.975 539.854 175.199 539.854 169.315C539.854 163.431 544.63 158.655 550.514 158.655C556.397 158.655 561.174 163.431 561.174 169.315Z" fill="white" />
        <path d="M575.501 164.054C574.74 160.455 573.286 157.201 571.209 154.363L574.255 151.179L567.471 144.742L564.426 147.926C561.518 145.988 558.127 144.672 554.527 144.119L554.389 139.688L545.044 139.896L545.182 144.326C544.213 144.534 543.313 144.742 542.413 145.088C539.921 145.918 537.568 147.095 535.491 148.618L532.307 145.572L525.87 152.356L529.054 155.402C527.116 158.309 525.8 161.701 525.247 165.3L520.816 165.439L521.024 174.784L525.454 174.645C526.216 178.245 527.669 181.498 529.746 184.336L526.7 187.52L533.484 193.958L536.53 190.774C539.437 192.712 542.829 194.027 546.428 194.581L546.567 199.011L555.911 198.803L555.773 194.373C556.742 194.165 557.642 193.958 558.542 193.612C561.034 192.781 563.387 191.604 565.464 190.081L568.648 193.127L575.086 186.344L571.902 183.298C573.84 180.321 575.155 176.999 575.709 173.399L580.139 173.261L579.931 163.916L575.501 164.054ZM559.788 169.107C559.857 173.261 557.227 176.929 553.42 178.175C552.589 178.452 551.689 178.591 550.72 178.66C545.598 178.798 541.306 174.714 541.237 169.592C541.167 165.439 543.798 161.77 547.605 160.524C548.436 160.247 549.335 160.109 550.305 160.039C555.358 159.901 559.649 163.985 559.788 169.107Z" fill="#F76031" />
        <path d="M547.674 174.16L544.836 169.315L547.674 164.469H553.281L556.05 169.315L553.281 174.16H547.674Z" fill="#161D21" />
        <path fill-rule="evenodd" clip-rule="evenodd" d="M1.1748 109.092V109.231V110.892V112.899V113.384V118.368V118.852V121.137V121.76V123.421V123.698H161.975V109.092H1.1748Z" fill="#FFD11D" />
        <path d="M163.152 124.875H-0.00195312V107.846H163.152V124.875ZM2.35156 122.521H160.799V110.269H2.35156V122.521Z" fill="#FFD11D" />
        <path d="M161.975 109.092H141.485V123.698H161.975V109.092Z" fill="white" />
        <path d="M163.152 124.875H140.309V107.846H163.152V124.875ZM142.662 122.521H160.798V110.269H142.662V122.521Z" fill="#FFD11D" />
        <path d="M83.2022 113.869H62.0205V118.783H83.2022V113.869Z" fill="white" />
        <path d="M57.8672 113.869H36.6855V118.783H57.8672V113.869Z" fill="white" />
        <path d="M32.5332 113.869H11.3516V118.783H32.5332V113.869Z" fill="white" />
        <path d="M125.361 242.551H0.0703125V162.116H125.361V242.551Z" fill="white" />
        <path d="M120.721 166.961H4.6377V228.43H120.721V166.961Z" fill="#F76031" />
        <path d="M120.721 233.622H4.6377V238.952H120.721V233.622Z" fill="#161D21" />
        <path d="M62.7833 216.454C53.0924 216.454 45.2012 208.563 45.2012 198.872C45.2012 189.181 53.0924 181.29 62.7833 181.29C72.4743 181.29 80.3655 189.181 80.3655 198.872C80.3655 208.563 72.4743 216.454 62.7833 216.454ZM62.7833 182.397C53.6461 182.397 46.2395 189.804 46.2395 198.941C46.2395 208.078 53.6461 215.485 62.7833 215.485C71.9205 215.485 79.3272 208.078 79.3272 198.941C79.2579 189.804 71.8513 182.397 62.7833 182.397Z" fill="white" />
        <path d="M74.896 198.872L65.6204 204.271L56.3447 209.601V198.872V188.212L65.6204 193.542L74.896 198.872Z" fill="white" stroke="white" stroke-width="0.692211" stroke-miterlimit="10" />
        <path d="M31.4271 236.321C31.4271 237.774 30.2503 239.02 28.7274 239.02H19.5902C18.1366 239.02 16.8906 237.844 16.8906 236.321C16.8906 234.867 18.0674 233.621 19.5902 233.621H28.7274C30.1811 233.621 31.4271 234.867 31.4271 236.321Z" fill="white" />
        <path d="M83.966 418.373C83.966 418.373 81.0587 423.772 101.756 428.341H534.941C534.941 428.341 549.409 427.441 553.216 420.588V416.85L83.966 418.373Z" fill="#B0B0B0" />
        <path d="M84.0357 407.436H553.355V419.481C553.355 419.481 554.047 421.073 548.509 420.657H88.4658C88.4658 420.657 84.1741 421.903 83.7588 419.065L84.0357 407.436Z" fill="white" />
        <path d="M531.55 414.496C531.55 414.981 531.273 415.327 530.858 415.327H514.868C514.453 415.327 514.176 414.981 514.176 414.496C514.176 414.012 514.453 413.666 514.868 413.666H530.858C531.273 413.597 531.55 414.012 531.55 414.496Z" fill="#B0B0B0" />
        <path d="M286.853 407.505C286.853 407.505 285.054 413.527 291.076 414.15H345.553C345.553 414.15 351.368 414.912 350.606 407.713L286.853 407.505Z" fill="#B0B0B0" />
        <path d="M507.252 407.367V193.473C507.252 183.782 499.292 175.822 489.601 175.822H147.579C137.888 175.822 129.928 183.782 129.928 193.473V407.367H507.252Z" fill="#161D21" />
        <path d="M495.071 189.044H142.043V394.215H495.071V189.044Z" fill="white" />
        <path d="M589.835 446.684H289.346V474.026H589.835V446.684Z" fill="#FFD11D" />
        <path d="M564.707 460.32C564.707 456.582 567.753 453.468 571.56 453.468C575.298 453.468 578.413 456.513 578.413 460.32C578.413 464.058 575.367 467.173 571.56 467.173C567.822 467.173 564.707 464.128 564.707 460.32Z" fill="white" />
        <path d="M437.478 449.384H434.225V463.366H437.478V449.384Z" fill="white" />
        <path d="M447.999 449.384H444.745V457.344H447.999V449.384Z" fill="white" />
        <path d="M458.452 449.384H455.198V457.344H458.452V449.384Z" fill="white" />
        <path d="M468.906 449.384H465.652V457.344H468.906V449.384Z" fill="white" />
        <path d="M478.734 449.384H475.48V463.366H478.734V449.384Z" fill="white" />
        <path d="M489.187 449.384H485.934V457.344H489.187V449.384Z" fill="white" />
        <path d="M499.639 449.384H496.386V457.344H499.639V449.384Z" fill="white" />
        <path d="M510.092 449.384H506.839V457.344H510.092V449.384Z" fill="white" />
        <path d="M519.921 449.383H516.668V463.366H519.921V449.383Z" fill="white" />
        <path d="M530.373 449.383H527.119V457.343H530.373V449.383Z" fill="white" />
        <path d="M540.826 449.383H537.572V457.343H540.826V449.383Z" fill="white" />
        <path d="M551.278 449.383H548.024V457.343H551.278V449.383Z" fill="white" />
        <path d="M313.02 449.383H309.767V463.366H313.02V449.383Z" fill="white" />
        <path d="M323.472 449.383H320.219V457.343H323.472V449.383Z" fill="white" />
        <path d="M333.994 449.383H330.74V457.343H333.994V449.383Z" fill="white" />
        <path d="M344.448 449.383H341.194V457.343H344.448V449.383Z" fill="white" />
        <path d="M354.271 449.383H351.018V463.366H354.271V449.383Z" fill="white" />
        <path d="M364.723 449.383H361.47V457.343H364.723V449.383Z" fill="white" />
        <path d="M375.175 449.383H371.922V457.343H375.175V449.383Z" fill="white" />
        <path d="M385.627 449.383H382.374V457.343H385.627V449.383Z" fill="white" />
        <path d="M395.461 449.383H392.208V463.366H395.461V449.383Z" fill="white" />
        <path d="M405.914 449.383H402.66V457.344H405.914V449.383Z" fill="white" />
        <path d="M416.366 449.383H413.112V457.344H416.366V449.383Z" fill="white" />
        <path d="M426.818 449.383H423.564V457.344H426.818V449.383Z" fill="white" />
        <path d="M179.972 512.167C179.972 512.583 179.695 512.929 179.28 512.929H168.62C168.274 512.929 167.928 512.583 167.928 512.167V491.124C167.928 490.709 168.205 490.363 168.62 490.363H179.28C179.626 490.363 179.972 490.709 179.972 491.124V512.167Z" fill="#F76031" />
        <path d="M183.157 490.432H179.28V512.929H183.157C183.503 512.929 183.849 512.582 183.849 512.167V491.124C183.849 490.709 183.503 490.432 183.157 490.432Z" fill="white" />
        <path d="M351.848 490.432H343.333H231.195H212.713H183.502V512.859H212.713H231.195H343.333H351.848H388.95V490.432H351.848Z" fill="#FFD11D" />
        <path d="M351.848 498.6H343.333H231.195H212.713H183.502V504.691H212.713H231.195H343.333H351.848H388.95V498.6H351.848Z" fill="#161D21" />
        <path d="M388.882 512.929L383.137 501.646L388.882 490.363L415.186 501.646L388.882 512.929Z" fill="white" />
        <path d="M404.248 496.938V506.352L415.185 501.645L404.248 496.938Z" fill="#161D21" />
        <path d="M421.209 102.309H215.899V377.532H421.209V102.309Z" fill="#161D21" />
        <path d="M421.209 114.699H215.899V138.027H421.209V114.699Z" fill="white" />
        <path d="M421.209 102.309H215.899V122.729H421.209V102.309Z" fill="#161D21" />
        <path d="M312.047 169.938H234.173V174.783H312.047V169.938Z" fill="white" />
        <path d="M275.707 185.374H267.746V190.22H275.707V185.374Z" fill="white" />
        <path d="M290.45 185.374H282.489V190.22H290.45V185.374Z" fill="white" />
        <path d="M305.541 185.374H297.58V190.22H305.541V185.374Z" fill="white" />
        <path d="M311.977 200.811H248.917V205.656H311.977V200.811Z" fill="#FFD11D" />
        <path d="M312.048 216.247H267.746V221.092H312.048V216.247Z" fill="white" />
        <path d="M400.511 216.247H322.638V221.092H400.511V216.247Z" fill="#F76031" />
        <path d="M347.35 200.811H322.638V205.656H347.35V200.811Z" fill="white" />
        <path d="M392.482 200.811H367.771V205.656H392.482V200.811Z" fill="white" />
        <path d="M366.939 185.374H322.638V190.22H366.939V185.374Z" fill="white" />
        <path d="M309.625 110.546H265.323V115.392H309.625V110.546Z" fill="white" />
        <path d="M364.448 110.546H320.146V115.392H364.448V110.546Z" fill="white" />
        <path d="M309.625 128.474H265.323V133.32H309.625V128.474Z" fill="#161D21" />
        <path d="M274.252 236.667H234.173V241.512H274.252V236.667Z" fill="white" />
        <path d="M276.951 252.172H261.307V257.018H276.951V252.172Z" fill="white" />
        <path d="M263.939 267.609H248.572V272.454H263.939V267.609Z" fill="#FFD11D" />
        <path d="M274.253 283.045H251.479V287.89H274.253V283.045Z" fill="white" />
        <path d="M319.73 283.045H279.651V287.89H319.73V283.045Z" fill="white" />
        <path d="M302.425 267.609H279.651V272.454H302.425V267.609Z" fill="#FFD11D" />
        <path d="M309.209 252.172H286.436V257.018H309.209V252.172Z" fill="white" />
        <path d="M387.844 283.045H347.765V287.891H387.844V283.045Z" fill="white" />
        <path d="M370.538 267.609H347.765V272.455H370.538V267.609Z" fill="white" />
        <path d="M370.538 252.173H347.765V257.018H370.538V252.173Z" fill="white" />
        <path d="M370.538 236.667H347.765V241.513H370.538V236.667Z" fill="white" />
        <path d="M342.296 236.667H302.217V241.513H342.296V236.667Z" fill="white" />
        <path d="M342.296 252.173H319.522V257.018H342.296V252.173Z" fill="#F76031" />
        <path d="M342.296 267.609H319.522V272.455H342.296V267.609Z" fill="white" />
        <path d="M312.047 303.465H234.173V308.311H312.047V303.465Z" fill="white" />
        <path d="M312.048 318.971H267.746V323.816H312.048V318.971Z" fill="white" />
        <path d="M284.981 334.407H253.347V339.253H284.981V334.407Z" fill="white" />
        <path d="M312.048 349.843H267.746V354.689H312.048V349.843Z" fill="white" />
        <path d="M400.511 349.843H322.638V354.689H400.511V349.843Z" fill="white" />
        <path d="M341.674 334.407H297.372V339.253H341.674V334.407Z" fill="white" />
        <path d="M366.939 318.971H322.638V323.816H366.939V318.971Z" fill="#FFD11D" />
    </g>
    <defs>
        <clipPath id="clip0_316_11312">
            <rect width="594.056" height="551" fill="white" />
        </clipPath>
    </defs>
</svg>