<svg width="155" height="294" viewBox="0 0 155 294" fill="none" xmlns="http://www.w3.org/2000/svg">
<path d="M130.205 206.181H134.546C136.826 206.181 138.779 204.444 138.997 202.273C139.865 195.218 141.493 175.68 141.602 175.463L138.562 175.246C138.562 175.463 136.826 195.001 136.066 201.948C135.957 202.599 135.415 203.142 134.655 203.142H130.313V206.181H130.205Z" fill="#E0E0E0"/>
<path d="M130.194 206.179C130.194 206.179 130.194 206.071 130.194 205.962C130.194 205.854 130.194 205.636 130.194 205.419C130.194 204.877 130.194 204.117 130.194 203.14V203.031H130.303C130.954 203.031 131.823 203.031 132.691 203.031C133.125 203.031 133.668 203.031 134.102 203.031C134.319 203.031 134.645 203.031 134.862 203.031C135.079 203.031 135.296 202.814 135.513 202.706C135.73 202.489 135.839 202.272 135.839 202.055C135.839 201.837 135.947 201.512 135.947 201.186C135.947 200.643 136.056 199.992 136.164 199.341C136.273 198.038 136.381 196.736 136.49 195.325C137.033 189.572 137.684 182.734 138.335 175.244V175.027H138.552C139.312 175.136 140.072 175.136 140.832 175.244C141.157 175.244 141.374 175.244 141.592 175.353H141.809V175.57C140.832 185.99 139.855 195.325 139.204 202.163C139.095 203.9 137.901 205.311 136.707 205.854C136.056 206.179 135.405 206.288 134.862 206.288C134.319 206.288 133.776 206.288 133.234 206.288C132.257 206.288 131.606 206.288 131.063 206.288C130.846 206.288 130.629 206.288 130.52 206.288C130.303 206.179 130.194 206.179 130.194 206.179C130.194 206.179 130.303 206.179 130.412 206.179C130.52 206.179 130.737 206.179 130.954 206.179C131.497 206.179 132.257 206.179 133.125 206.179C134.102 206.179 135.296 206.288 136.49 205.636C137.684 205.094 138.769 203.683 138.878 202.055C139.529 195.216 140.398 185.882 141.374 175.462L141.592 175.679C141.374 175.679 141.049 175.679 140.832 175.57C140.072 175.462 139.312 175.462 138.552 175.353L138.769 175.136C138.01 182.625 137.358 189.464 136.816 195.216C136.707 196.627 136.49 198.038 136.381 199.232C136.273 199.884 136.273 200.426 136.164 201.078C136.164 201.403 136.164 201.62 136.056 201.946C135.947 202.272 135.839 202.489 135.622 202.706C135.405 202.923 135.187 203.031 134.862 203.14C134.536 203.249 134.319 203.14 134.102 203.14C133.559 203.14 133.125 203.14 132.691 203.14C131.823 203.14 130.954 203.14 130.303 203.14L130.412 203.031C130.412 204.008 130.412 204.768 130.412 205.311C130.412 205.528 130.412 205.745 130.412 205.962C130.303 206.071 130.194 206.179 130.194 206.179Z" fill="#263238"/>
<path d="M62.0465 207.059L51.5178 284.233H55.6424L71.1641 209.881L62.0465 207.059Z" fill="#455A64"/>
<path d="M62.0473 207.059C62.0473 207.059 62.2644 207.059 62.59 207.276C63.0242 207.384 63.5669 207.601 64.3267 207.818C65.8463 208.253 68.2342 209.012 71.1649 209.881H71.2734V209.989C68.5599 223.34 62.8071 250.91 56.2945 282.604C56.186 283.147 56.0774 283.798 55.9689 284.341V284.45H55.8603C54.4493 284.45 53.0382 284.45 51.7357 284.45H51.5186V284.233C54.4493 262.633 57.1629 243.312 59.0081 229.31C59.985 222.363 60.7448 216.827 61.2875 212.92C61.5046 210.966 61.7217 209.555 61.9387 208.47C62.0473 207.927 62.0473 207.601 62.1558 207.384C61.9387 207.167 62.0473 207.059 62.0473 207.059C62.0473 207.059 62.0473 207.167 62.0473 207.493C62.0473 207.818 61.9387 208.144 61.9387 208.687C61.8302 209.772 61.6131 211.183 61.396 213.137C60.8533 217.045 60.0935 222.58 59.2252 229.636C57.3799 243.529 54.7749 262.85 51.9528 284.341L51.7357 284.124C53.0382 284.124 54.3407 284.124 55.8603 284.124L55.6433 284.233C55.7518 283.69 55.8603 283.147 55.9689 282.496C62.59 250.801 68.4513 223.232 71.1649 209.881L71.2734 209.989C68.3428 209.012 66.0634 208.253 64.5438 207.818C63.784 207.601 63.2413 207.384 62.8071 207.276C62.1558 207.167 62.0473 207.059 62.0473 207.059Z" fill="#263238"/>
<path d="M61.5055 209.874H130.43C133.035 209.874 135.098 207.811 135.098 205.206C135.098 202.601 133.035 200.539 130.43 200.539H61.5055C58.9005 200.539 56.8382 202.601 56.8382 205.206C56.9467 207.811 59.009 209.874 61.5055 209.874Z" fill="#455A64"/>
<path d="M145.184 177.636L154.627 103.935C154.952 101.438 153.107 99.0504 150.611 98.7248C148.114 98.3992 145.726 100.244 145.401 102.741L135.957 176.442C135.632 178.938 137.477 181.326 139.973 181.652C142.47 181.977 144.858 180.241 145.184 177.636Z" fill="#455A64"/>
<path d="M129.557 207.059L140.086 284.233H135.961L120.44 209.881L129.557 207.059Z" fill="#455A64"/>
<path d="M60.9493 209.877C60.9493 209.769 76.688 209.66 96.1172 209.66C115.546 209.66 131.285 209.769 131.285 209.877C131.285 209.986 115.546 210.094 96.1172 210.094C76.688 210.094 60.9493 209.986 60.9493 209.877Z" fill="#263238"/>
<path d="M111.76 9.72802C111.977 7.34007 114.473 5.49484 116.753 5.92902C118.055 3.32398 121.637 2.23856 124.242 3.64962C125.436 4.30088 126.413 5.3863 127.498 6.1461C128.584 6.79736 129.995 7.12299 131.189 7.66571C132.383 8.20842 133.577 9.18531 133.685 10.5964C133.902 12.116 132.708 13.4185 131.297 13.9612C129.886 14.5039 128.367 14.3954 126.956 14.3954C127.607 14.721 127.715 15.6979 127.39 16.3491C127.064 17.0004 126.413 17.4346 125.653 17.7602C123.374 18.6286 120.552 18.1944 118.706 16.4577L115.993 14.2868C113.713 14.3954 111.543 12.116 111.76 9.72802Z" fill="#263238"/>
<path d="M118.706 18.9492C119.249 19.4919 120.118 19.3833 120.66 18.9492C121.203 18.515 121.311 17.6467 121.094 16.9954C120.877 16.3441 120.335 15.6929 119.792 15.3673C119.141 14.9331 118.489 14.716 117.838 14.4989C116.753 14.1733 115.667 13.9562 114.582 13.8477C114.148 13.8477 113.822 13.8477 113.388 13.9562C113.062 14.0647 112.737 14.3904 112.628 14.8245C112.628 15.3673 113.062 15.8014 113.496 16.1271C115.125 17.321 116.97 18.4065 118.815 19.2748" fill="#FF725E"/>
<path d="M120.332 18.7333C122.937 15.8026 129.45 16.2368 131.078 18.082C133.357 16.8881 136.505 17.865 137.59 20.2529C139.87 20.7956 142.258 21.2298 144.537 21.7725C145.731 21.9896 146.925 22.3152 147.902 23.075C148.77 23.8348 149.205 25.3544 148.553 26.3313C151.05 26.9826 152.027 30.5645 150.181 32.3012C151.158 33.3866 151.05 35.2318 149.856 36.1002C151.81 38.3796 153.329 40.9846 154.415 43.8067C154.849 45.0007 155.174 46.3032 154.74 47.4972C154.306 48.6912 152.787 49.451 151.81 48.7997C152.461 49.7766 152.569 51.0791 152.027 52.1645C153.221 52.1645 153.546 54.0098 152.787 54.8781C152.027 55.7465 150.724 55.855 149.53 55.855C148.336 55.855 147.034 55.7465 146.165 56.5063C146.165 56.8319 146.382 57.049 146.6 57.2661C148.662 58.8942 149.205 61.7163 147.685 63.7786C147.576 63.9957 147.468 64.1043 147.251 64.3213C146.6 65.2982 144.863 66.1666 143.886 66.7093C141.281 68.1203 139.653 67.9033 136.722 68.3374C137.59 70.2912 132.815 74.5244 127.279 70.3998C116.316 73.439 108.392 74.6329 97.104 74.7415C95.4758 74.7415 93.5221 74.5244 92.7623 73.1133C91.4597 73.439 90.0487 72.8962 89.0718 71.9193C88.0949 70.9425 87.4436 69.7485 86.9009 68.5545C84.0788 67.7947 81.908 65.0812 81.7994 62.259C79.8456 60.7394 78.6517 58.46 78.4346 56.0721C75.721 55.3123 74.2014 51.7304 75.3954 49.1253C75.9381 45.7605 77.1321 42.5042 78.6517 39.5736C76.8064 39.1394 76.0467 36.6429 76.8064 34.9062C77.5663 33.1695 79.1944 31.9756 80.8225 30.9987C79.4115 31.4328 78.2175 29.5876 78.5431 28.2851C78.8688 26.874 80.0627 25.8971 81.3652 25.1373C83.2105 24.0519 85.0557 23.1836 87.118 22.5323C87.7693 20.0358 90.917 17.3223 93.1964 16.1283C101.988 11.3524 108.392 10.1584 120.332 18.7333Z" fill="#263238"/>
<path d="M127.821 33.4952C127.93 31.5414 128.255 29.5877 126.301 29.3706L106.655 23.4007C100.36 22.4238 95.6923 30.1304 95.041 36.4259C94.2812 43.4812 93.63 52.1646 94.1727 57.4832C95.3666 68.229 104.81 71.0511 104.81 71.0511L104.701 80.3858C105.57 85.3787 106.655 88.2009 108.609 90.1546C115.556 88.8521 126.953 73.5476 126.953 73.5476L127.821 33.4952Z" fill="#FFBF9D"/>
<path d="M104.923 52.7018C104.923 52.5933 104.055 52.3762 102.535 52.1591C102.209 52.0506 101.775 52.0506 101.775 51.7249C101.667 51.3993 101.884 51.0737 102.101 50.6395C102.535 49.7712 102.861 48.7943 103.295 47.8174C105.032 43.8013 106.334 40.545 106.117 40.4365C106.008 40.3279 104.38 43.5842 102.752 47.6003C102.318 48.5772 101.884 49.5541 101.558 50.4224C101.45 50.8566 101.124 51.2908 101.341 51.8335C101.45 52.1591 101.667 52.3762 101.884 52.3762C102.101 52.4847 102.318 52.4847 102.535 52.4847C104.055 52.7018 104.923 52.8104 104.923 52.7018Z" fill="#263238"/>
<path d="M104.916 71.1503C104.916 71.1503 110.669 70.8247 117.941 66.8086C117.941 66.8086 115.553 73.6468 104.916 74.4066V71.1503Z" fill="#FF9A6C"/>
<path d="M111.212 36.3163C111.32 36.7505 112.84 36.642 114.577 36.8591C116.313 37.0761 117.616 37.7274 117.942 37.2932C118.05 37.0761 117.833 36.7505 117.29 36.3163C116.748 35.8822 115.879 35.448 114.902 35.3395C113.926 35.2309 112.949 35.3395 112.297 35.5565C111.538 35.7736 111.212 36.0993 111.212 36.3163Z" fill="#263238"/>
<path d="M97.1007 36.1064C97.3178 36.432 98.4032 36.1064 99.5972 36.2149C100.791 36.2149 101.877 36.5406 102.094 36.2149C102.202 35.9978 102.094 35.6722 101.659 35.3466C101.225 35.0209 100.466 34.6953 99.7057 34.6953C98.8374 34.6953 98.0776 34.9124 97.6434 35.238C97.1007 35.5637 96.9921 35.8893 97.1007 36.1064Z" fill="#263238"/>
<path d="M89.8294 41.6358C89.9379 40.0076 90.4806 38.2709 91.566 37.0769C92.2173 36.4257 92.9771 35.883 93.5198 35.1232C94.7138 33.6036 94.4967 31.3242 95.0394 29.4789C95.6907 26.9824 97.6444 24.9201 100.032 24.0518C101.986 23.292 104.266 23.4005 106.219 22.4236C107.63 21.6638 108.607 20.3613 110.127 19.7101C112.949 18.4076 116.097 19.8186 118.702 21.4468C119.244 23.5091 117.942 25.3543 116.639 27.091C115.337 28.8277 113.275 29.9131 111.212 30.0217C109.584 30.1302 107.63 29.696 106.436 30.89C105.242 32.084 105.677 34.3634 104.7 35.7744C103.289 37.8368 99.9238 37.077 97.753 38.2709C96.1248 39.2478 95.365 41.2016 94.4967 42.9383C93.6284 44.675 92.2173 46.5202 90.2635 46.4116C90.0464 45.0006 89.8294 43.2639 89.8294 41.6358Z" fill="#263238"/>
<path d="M114.579 25.2434C119.463 25.1349 124.348 26.0032 128.798 27.8484C130.101 28.3912 131.512 29.0424 132.271 30.2364C132.923 31.3218 133.031 32.6243 133.031 33.9269C133.031 37.9429 131.403 42.8274 129.884 46.5178L124.891 49.4485C121.092 48.5802 122.828 41.959 123.045 38.5942C120.332 37.4002 118.486 34.5781 118.486 31.6474C116.316 30.3449 114.796 27.8485 114.579 25.2434Z" fill="#263238"/>
<path d="M125.001 48.1386C125.11 45.8592 127.932 45.425 129.886 46.619C130.971 47.2703 131.731 48.5728 131.623 50.9607C131.297 57.3648 124.893 55.7366 124.893 55.5195C124.893 55.3024 124.893 50.7437 125.001 48.1386Z" fill="#FFBF9D"/>
<path d="M127.079 53.1512C127.079 53.1512 127.187 53.2597 127.404 53.3683C127.622 53.4768 127.947 53.5854 128.273 53.4768C128.924 53.2598 129.575 52.1743 129.684 51.0889C129.684 50.5462 129.684 49.8949 129.467 49.4608C129.25 49.0266 129.033 48.5924 128.707 48.5924C128.381 48.4839 128.164 48.7009 128.056 48.8095C127.947 49.0266 127.947 49.1351 127.947 49.1351C127.947 49.1351 127.839 49.0266 127.839 48.701C127.839 48.5924 127.947 48.3753 128.164 48.2668C128.273 48.1582 128.598 48.0497 128.816 48.1582C129.358 48.2668 129.684 48.701 129.901 49.2437C130.118 49.7864 130.227 50.4376 130.227 51.0889C130.118 52.3914 129.358 53.5854 128.381 53.8025C127.947 53.911 127.513 53.6939 127.404 53.5854C127.079 53.2598 127.079 53.1512 127.079 53.1512Z" fill="#FF9A6C"/>
<path d="M127.714 55.8527C127.714 55.9613 127.714 56.0698 127.822 56.1783C127.931 56.3954 128.148 56.6125 128.582 56.8296C129.016 57.0467 129.559 57.1552 130.21 57.1552C130.536 57.1552 130.862 57.1552 131.296 57.0467C131.621 56.9381 132.056 56.9381 132.381 56.7211H132.273C132.381 57.5894 133.032 58.5663 134.009 59.109C134.986 59.6517 136.397 59.5432 137.374 58.7834H137.266C137.483 59.109 137.808 59.3261 138.134 59.3261C138.46 59.4346 138.894 59.3261 139.219 59.2175C139.545 59.109 139.871 58.8919 140.088 58.5663C140.305 58.2407 140.413 57.915 140.413 57.4809C140.413 56.7211 140.196 55.9613 139.762 55.31C139.328 54.6587 138.677 54.116 138.025 53.6819V53.7904C138.568 53.4648 138.894 52.922 139.002 52.2708C139.111 51.6195 139.111 50.9683 138.785 50.317C138.568 49.6658 138.134 49.1231 137.7 48.6889C137.266 48.2547 136.723 47.8205 136.18 47.3864V47.4949C136.614 47.0607 136.831 46.3009 136.831 45.6497C136.831 44.9984 136.506 44.2386 136.072 43.6959C135.203 42.6105 134.009 42.0678 132.924 41.525V41.6336C133.25 40.2225 132.815 38.7029 131.947 37.726C130.97 36.7492 129.559 36.2064 128.257 36.4235L128.365 36.5321C128.582 35.3381 128.148 34.2527 127.497 33.3843C126.846 32.516 125.76 32.0818 124.783 32.0818L124.892 32.1903C124.892 30.9964 124.24 30.0195 123.481 29.3682C122.721 28.717 121.635 28.4999 120.767 28.6084L120.876 28.717C120.876 28.0657 120.659 27.523 120.333 27.0888C120.007 26.6547 119.682 26.2205 119.356 25.8949C118.596 25.2436 117.836 25.0265 117.185 24.918C117.077 24.918 116.968 24.918 116.968 24.918C116.86 24.918 116.86 24.918 116.751 24.918C116.642 24.918 116.425 24.918 116.317 24.918C116.1 25.0265 115.883 25.0265 115.666 25.1351C115.557 25.2436 115.34 25.2436 115.34 25.2436C115.231 25.2436 115.231 25.3522 115.231 25.3522C115.231 25.3522 115.231 25.3522 115.34 25.3522C115.449 25.3522 115.557 25.2436 115.666 25.2436C115.774 25.1351 115.991 25.1351 116.317 25.1351C116.425 25.1351 116.534 25.1351 116.751 25.1351C116.86 25.1351 116.86 25.1351 116.968 25.1351C117.077 25.1351 117.077 25.1351 117.185 25.1351C117.836 25.1351 118.596 25.4607 119.356 26.1119C119.682 26.4376 120.007 26.7632 120.333 27.3059C120.55 27.7401 120.767 28.2828 120.876 28.9341V29.0426H120.984C121.853 28.9341 122.829 29.1511 123.589 29.8024C124.349 30.4537 125 31.4305 125 32.516V32.6245H125.109C126.086 32.6245 127.063 33.1672 127.714 33.927C128.365 34.6868 128.799 35.8808 128.582 36.9662V37.0748H128.691C129.885 36.9662 131.296 37.4004 132.164 38.3773C133.032 39.3542 133.467 40.7653 133.141 42.1763V42.2848H133.25C134.335 42.8276 135.529 43.3703 136.289 44.4557C136.723 44.9984 136.94 45.6497 136.94 46.3009C136.94 46.9522 136.831 47.6034 136.397 48.0376L136.289 48.1462L136.397 48.2547C137.483 49.0145 138.46 49.8829 139.002 51.0768C139.219 51.6195 139.328 52.2708 139.219 52.9221C139.111 53.4648 138.785 54.0075 138.243 54.3331L138.134 54.4416L138.243 54.5502C138.894 55.0929 139.437 55.5271 139.871 56.1783C140.305 56.8296 140.63 57.4809 140.522 58.2407C140.522 58.8919 140.088 59.6517 139.437 59.8688C138.785 60.0859 138.025 59.9773 137.7 59.4346V59.3261H137.591C136.614 60.0859 135.312 60.0859 134.335 59.6517C133.358 59.2175 132.815 58.2407 132.707 57.3723V57.2638H132.598C132.273 57.4809 131.838 57.5894 131.513 57.5894C131.187 57.6979 130.862 57.6979 130.536 57.6979C129.885 57.6979 129.342 57.5894 128.908 57.3723C128.474 57.1552 128.257 56.9381 128.148 56.7211C127.822 55.9613 127.714 55.8527 127.714 55.8527Z" fill="#455A64"/>
<path d="M152.352 48.9082C152.352 48.9082 152.46 48.7996 152.569 48.474C152.677 48.2569 152.895 47.8227 152.895 47.1715C152.895 46.6288 152.786 45.869 152.352 45.1092C151.918 44.4579 151.049 43.8066 149.964 43.5896L150.072 43.6981C150.289 42.7212 150.072 41.5273 149.53 40.5504C149.204 40.0077 148.77 39.5735 148.227 39.2478C147.684 38.9222 147.033 38.7051 146.49 38.3795C146.165 38.271 145.948 38.0539 145.622 37.8368C145.405 37.6197 145.188 37.4026 145.079 37.077C144.754 36.4257 144.754 35.7745 144.32 35.0147C143.56 33.7122 142.04 32.8438 140.412 33.0609L140.521 33.1694C140.738 31.6498 140.304 30.0217 139.218 28.9363C138.133 27.7423 136.396 27.1996 134.876 27.3081L134.985 27.4167C135.202 25.5714 134.117 23.7262 132.597 22.8579C131.077 22.0981 129.232 22.3151 127.93 23.0749H128.038C127.387 22.4237 126.519 21.9895 125.759 21.6639C124.999 21.3383 124.239 21.2297 123.479 21.1212C121.96 20.9041 120.657 21.1212 119.68 21.3383C118.595 21.5553 117.835 21.9895 117.401 22.3151C117.184 22.4237 116.967 22.6408 116.858 22.7493C116.75 22.8579 116.641 22.8579 116.641 22.8579C116.641 22.8579 116.858 22.6408 117.401 22.4237C117.835 22.0981 118.595 21.7724 119.68 21.5554C120.657 21.3383 121.96 21.1212 123.479 21.3383C124.239 21.4468 124.999 21.5553 125.759 21.881C126.519 22.2066 127.278 22.6408 127.93 23.1835H128.038C129.232 22.3152 131.077 22.2066 132.488 22.9664C134.008 23.7262 134.985 25.4629 134.768 27.3081V27.4167H134.876C136.396 27.1996 138.024 27.7423 139.11 28.9363C140.195 30.0217 140.629 31.6498 140.412 33.0609V33.1694H140.521C142.04 32.9524 143.56 33.8207 144.211 35.0147C144.537 35.6659 144.645 36.3172 144.971 36.9684C145.079 37.2941 145.297 37.6197 145.622 37.8368C145.948 38.0539 146.165 38.271 146.49 38.3795C147.142 38.5966 147.684 38.8137 148.227 39.1393C148.77 39.4649 149.204 39.8991 149.421 40.4418C150.072 41.4187 150.181 42.6127 149.964 43.481V43.5896H150.072C151.049 43.6981 151.918 44.3494 152.352 45.0006C152.786 45.6519 152.895 46.4117 152.895 46.9544C152.895 47.4971 152.677 47.9313 152.569 48.2569C152.46 48.7996 152.352 48.9082 152.352 48.9082Z" fill="#455A64"/>
<path d="M90.5918 50.6421C90.5918 50.6421 90.7003 50.4251 90.5918 50.0994C90.4832 49.8823 90.3747 49.7738 90.2662 49.5567C90.0491 49.3396 89.832 49.2311 89.5064 49.1226C89.1807 49.014 88.8551 48.9055 88.5295 48.6884C88.2038 48.4713 87.9868 48.1457 87.7697 47.603C87.6611 47.1688 87.5526 46.6261 87.6611 46.0833C87.6611 45.5406 87.7697 44.9979 87.7697 44.3467C87.7697 43.1527 87.227 41.8502 86.9013 40.5477C86.7928 39.8964 86.6842 39.1366 86.7928 38.3768C86.9013 37.617 87.3355 36.9657 87.9868 36.5316C88.638 36.0974 89.5064 35.9889 90.2662 35.7718C90.7003 35.6632 91.026 35.4461 91.4601 35.229C91.7858 35.012 92.1114 34.5778 92.3285 34.2522C92.7626 33.4924 92.7627 32.5155 92.9797 31.7557C93.0883 31.3215 93.1968 30.8873 93.4139 30.5617C93.631 30.2361 93.9566 29.9105 94.3908 29.6934C94.9335 29.4763 95.5848 29.4763 96.1275 29.4763C96.4531 29.4763 96.7787 29.3677 96.9958 29.2592C97.3215 29.1506 97.5385 28.9336 97.7556 28.6079C98.0813 28.0652 98.2983 27.5225 98.4069 26.9798C98.624 26.4371 98.8411 25.8944 99.1667 25.5687C99.9265 24.7004 100.903 24.2662 101.989 24.2662C103.074 24.2662 104.051 24.5918 104.702 25.2431L104.811 25.3517V25.2431C105.571 23.5064 107.199 22.3124 108.61 21.8783C109.37 21.6612 110.13 21.6612 110.781 21.6612C111.432 21.7697 112.083 21.8783 112.517 22.2039C113.494 22.7466 114.146 23.3979 114.363 23.9406C114.471 24.1577 114.58 24.3748 114.688 24.5918C114.688 24.7004 114.797 24.7004 114.797 24.7004C114.797 24.7004 114.797 24.7004 114.797 24.5918C114.797 24.5918 114.797 24.4833 114.688 24.3748C114.58 24.2662 114.58 24.0491 114.363 23.7235C114.037 23.1808 113.494 22.421 112.517 21.8783C111.975 21.6612 111.432 21.4441 110.672 21.3355C110.021 21.227 109.261 21.3356 108.501 21.5526C106.982 21.9868 105.354 23.0722 104.594 24.9175H104.702C103.943 24.2662 102.966 23.832 101.88 23.832C100.795 23.832 99.7094 24.3748 98.9496 25.2431C98.5154 25.6773 98.2983 26.22 98.0813 26.7627C97.8642 27.3054 97.7556 27.8481 97.43 28.3908C97.1044 28.825 96.5617 29.0421 95.9104 29.1507C95.3677 29.2592 94.7164 29.1507 94.0652 29.3677C93.631 29.5848 93.1968 29.9105 92.9797 30.2361C92.7627 30.6703 92.6541 31.1044 92.5456 31.5386C92.3285 32.4069 92.2199 33.2753 91.8943 34.0351C91.6772 34.3607 91.4601 34.7949 91.1345 35.012C90.8089 35.2291 90.3747 35.4461 90.0491 35.5547C89.2893 35.7718 88.4209 35.8803 87.7697 36.3145C87.444 36.5316 87.1184 36.8572 86.9013 37.1828C86.6842 37.5085 86.5757 37.9426 86.4672 38.2683C86.3586 39.0281 86.3586 39.7879 86.5757 40.4391C86.9013 41.8502 87.444 43.0441 87.444 44.2381C87.444 44.7808 87.3355 45.4321 87.3355 45.9748C87.3355 46.5175 87.3355 47.0602 87.5526 47.4944C87.6611 47.9286 87.9868 48.3628 88.3124 48.5798C88.638 48.7969 89.0722 48.9055 89.3978 49.014C89.7235 49.1225 89.9405 49.2311 90.1576 49.3396C90.3747 49.4482 90.4833 49.6653 90.4833 49.8823C90.7003 50.5336 90.5918 50.6421 90.5918 50.6421Z" fill="#455A64"/>
<path d="M78.0038 40.6587C78.0038 40.6587 78.0038 40.6587 78.1124 40.5502C78.1124 40.4416 78.2209 40.3331 78.3294 40.2245C78.438 39.8989 78.7636 39.4647 78.9807 38.8135C79.3063 38.1622 79.632 37.4024 80.0661 36.6426C80.5003 35.7743 81.1516 34.9059 82.237 34.3632C82.7797 34.0376 83.3224 33.929 83.9737 33.6034C84.2993 33.4949 84.6249 33.2778 84.842 33.0607C85.1677 32.8436 85.3847 32.518 85.4933 32.1923C85.8189 31.5411 85.8189 30.7813 86.036 30.0215C86.1445 29.6958 86.3616 29.3702 86.6873 29.1531C87.0129 28.9361 87.3385 28.8275 87.7727 28.719C88.0983 28.6104 88.5325 28.5019 88.9667 28.2848C89.2923 28.0677 89.6179 27.7421 89.835 27.4165C90.2692 26.6567 90.2692 25.7883 90.3777 24.92C90.4863 24.4858 90.5948 24.0516 90.8119 23.726C91.029 23.4004 91.4631 23.1833 91.7888 23.0747C92.6571 22.8576 93.5255 23.1833 94.5023 23.0747C94.9365 22.9662 95.3707 22.7491 95.6963 22.4235C96.0219 22.0978 96.239 21.6637 96.4561 21.338C96.6732 20.9039 96.8903 20.5782 97.2159 20.2526C97.433 19.927 97.7586 19.6014 98.1928 19.4928C98.9526 19.1672 99.8209 19.3843 100.581 19.4928C101.341 19.7099 102.209 19.927 103.077 19.7099C103.837 19.6014 104.597 19.1672 105.248 18.733C105.899 18.2988 106.442 17.8647 107.202 17.6476C108.504 17.2134 109.915 17.2134 111.001 17.539C112.195 17.8647 113.063 18.4074 113.823 18.9501C114.583 19.6014 115.017 20.2526 115.343 20.7953C115.668 21.338 115.885 21.8808 115.994 22.2064C116.102 22.3149 116.102 22.532 116.102 22.532C116.102 22.6406 116.102 22.6406 116.211 22.6406C116.211 22.6406 116.211 22.6406 116.211 22.532C116.211 22.4235 116.102 22.3149 116.102 22.0979C115.994 21.7722 115.777 21.2295 115.451 20.6868C115.126 20.1441 114.583 19.3843 113.932 18.8416C113.172 18.1903 112.195 17.6476 111.109 17.322C109.915 16.9963 108.504 16.9963 107.202 17.4305C106.551 17.6476 105.899 18.0818 105.248 18.5159C104.597 18.9501 103.946 19.2757 103.186 19.4928C102.426 19.6014 101.666 19.4928 100.798 19.2757C100.364 19.1672 99.9295 19.0586 99.4953 19.0586C99.0611 19.0586 98.627 19.0586 98.1928 19.2757C97.7586 19.4928 97.433 19.8184 97.2159 20.1441C96.8903 20.4697 96.6732 20.9039 96.4561 21.2295C96.239 21.6637 96.0219 21.9893 95.6963 22.3149C95.3707 22.6406 95.0451 22.8576 94.6109 22.9662C93.7425 23.0747 92.7657 22.8576 91.8973 22.9662C91.4631 23.0747 91.029 23.2918 90.7033 23.726C90.4863 24.1602 90.3777 24.5943 90.2692 25.0285C90.1606 25.8969 90.0521 26.7652 89.7265 27.525C89.5094 27.8506 89.2923 28.1762 88.9667 28.3933C88.641 28.6104 88.2069 28.719 87.8812 28.8275C87.5556 28.9361 87.1214 29.0446 86.7958 29.3702C86.4702 29.5873 86.2531 30.0215 86.1445 30.3471C85.9275 31.1069 85.9275 31.8667 85.6018 32.4094C85.3847 33.0607 84.7335 33.3863 84.1908 33.7119C83.648 33.929 82.9968 34.1461 82.4541 34.4717C81.3686 35.123 80.7174 35.9913 80.2832 36.8597C79.849 37.728 79.5234 38.4878 79.1978 39.0305C78.9807 39.6818 78.7636 40.116 78.5465 40.4416C78.438 40.5501 78.438 40.7672 78.438 40.7672C78.1124 40.6587 78.0038 40.6587 78.0038 40.6587Z" fill="#455A64"/>
<path d="M84.9475 33.9287C84.9475 33.9287 84.9475 33.9287 84.839 33.9287C84.7304 33.9287 84.6219 33.9287 84.5133 34.0372C84.1877 34.1458 83.8621 34.5799 83.8621 35.2312C83.8621 35.5568 83.9706 35.8824 83.9706 36.2081C84.0792 36.5337 84.1877 36.9679 84.1877 37.2935C84.1877 37.7277 83.9706 38.0533 83.7535 38.4875C83.5364 38.9216 83.2108 39.2473 82.8852 39.6814C82.6681 40.1156 82.451 40.7669 82.7766 41.3096C82.9937 41.8523 83.4279 42.2865 83.5364 42.8292C83.7535 43.3719 83.645 44.0232 83.3194 44.5659C83.1023 45.1086 82.6681 45.7598 82.451 46.4111C82.3425 46.7367 82.2339 47.0624 82.2339 47.4965C82.2339 47.8222 82.3425 48.2563 82.451 48.582C82.7766 49.2332 83.2108 49.7759 83.645 50.4272C84.0792 50.9699 84.4048 51.7297 84.2962 52.4895C84.1877 53.2493 83.7535 53.9006 83.5364 54.6604C83.4279 54.986 83.3194 55.4202 83.3194 55.8543C83.3194 56.2885 83.4279 56.6141 83.645 57.0483C83.9706 57.8081 84.5133 58.3508 85.056 58.8935C85.4902 59.4363 85.9244 60.0875 86.1415 60.7388C86.3586 61.39 86.4671 62.1498 86.7927 62.8011C86.9013 63.1267 87.1184 63.4523 87.444 63.6694C87.7696 63.8865 88.0952 63.9951 88.3123 64.1036C88.638 64.2121 88.9636 64.3207 89.1807 64.4292C89.5063 64.5378 89.7234 64.7549 89.9405 64.972C90.3746 65.4061 90.7003 65.8403 91.0259 66.383C91.3515 66.8172 91.5686 67.3599 91.8943 67.7941C92.5455 68.6624 93.3053 69.2051 94.1737 69.4222C94.9335 69.6393 95.6933 69.7478 96.236 69.6393C96.7787 69.5307 97.2129 69.4222 97.5385 69.3137C97.8641 69.2051 97.9727 69.0966 97.9727 69.0966C97.9727 69.0966 97.4299 69.5307 96.236 69.6393C95.6933 69.7478 94.9335 69.6393 94.1737 69.4222C93.4139 69.2051 92.5455 68.6624 92.0028 67.7941C91.6772 67.3599 91.4601 66.9257 91.1344 66.383C90.8088 65.9488 90.4832 65.4061 90.049 64.972C89.8319 64.7549 89.5063 64.5378 89.2892 64.4292C88.9636 64.3207 88.638 64.2121 88.4209 64.1036C88.0952 63.9951 87.7696 63.8865 87.5525 63.6694C87.3354 63.4523 87.1184 63.2353 86.9013 62.9096C86.5756 62.2584 86.4671 61.6071 86.25 60.9558C86.0329 60.196 85.5988 59.6533 85.056 59.1106C84.6219 58.5679 84.0792 58.0252 83.645 57.3739C83.4279 57.0483 83.3194 56.7227 83.3194 56.2885C83.3194 55.9629 83.4279 55.5287 83.5364 55.2031C83.7535 54.4433 84.1877 53.792 84.2962 52.9237C84.2962 52.4895 84.2962 52.1639 84.1877 51.7297C84.0792 51.4041 83.8621 51.0784 83.645 50.7528C83.2108 50.1016 82.7766 49.5588 82.451 48.9076C82.3425 48.582 82.2339 48.2563 82.2339 47.9307C82.2339 47.6051 82.3425 47.2794 82.451 46.9538C82.6681 46.3026 82.9937 45.7598 83.3194 45.1086C83.5364 44.5659 83.7535 43.8061 83.5364 43.2634C83.3194 42.6121 82.8852 42.1779 82.7766 41.7437C82.5596 41.201 82.6681 40.6583 82.8852 40.2242C83.1023 39.79 83.4279 39.3558 83.645 39.0302C83.8621 38.596 84.0792 38.1618 84.0792 37.7277C84.0792 37.2935 83.9706 36.9679 83.8621 36.5337C83.7535 36.2081 83.645 35.8824 83.7535 35.5568C83.7535 35.0141 84.0792 34.5799 84.2962 34.4714C84.7304 33.8201 84.9475 33.9287 84.9475 33.9287Z" fill="#455A64"/>
<path d="M131.625 54.767C131.625 54.767 132.059 54.8756 132.602 55.3098C133.145 55.7439 133.905 56.6123 134.122 57.9148C134.23 58.5661 134.23 59.3259 134.122 60.0857C133.905 60.8455 133.579 61.6053 132.928 62.2565C132.385 62.9078 131.625 63.4505 130.648 63.7761C129.78 64.1017 128.695 64.1017 127.718 63.8847C126.741 63.6676 125.872 63.1248 125.221 62.365C124.57 61.7138 124.136 60.8454 124.027 59.9771C123.702 58.2404 124.353 56.6123 125.33 55.7439C125.764 55.3098 126.307 54.9841 126.849 54.767C127.284 54.55 127.718 54.4414 128.152 54.4414C128.477 54.4414 128.803 54.4414 129.02 54.4414C129.237 54.4414 129.346 54.55 129.346 54.55C129.346 54.55 128.912 54.4414 128.26 54.55C127.935 54.55 127.501 54.6585 127.066 54.8756C126.632 55.0927 126.09 55.4183 125.655 55.8525C124.787 56.7208 124.244 58.2404 124.461 59.9771C124.57 60.8454 125.004 61.6053 125.547 62.2565C126.198 62.9078 126.958 63.4505 127.935 63.6676C128.803 63.8846 129.78 63.8846 130.648 63.6676C131.517 63.3419 132.276 62.9078 132.819 62.2565C133.362 61.6053 133.796 60.954 134.013 60.1942C134.23 59.4344 134.23 58.7831 134.122 58.1319C133.905 56.8294 133.145 56.0696 132.711 55.6354C131.951 54.9841 131.517 54.767 131.625 54.767Z" fill="#E0E0E0"/>
<path d="M110.131 45.983C110.022 46.7428 110.674 47.3941 111.433 47.5026C112.193 47.6112 112.844 47.0685 112.953 46.3087C113.062 45.5489 112.41 44.8976 111.65 44.7891C110.891 44.7891 110.239 45.3318 110.131 45.983Z" fill="#263238"/>
<path d="M97.0019 45.4344C96.8934 46.1942 97.5447 46.8454 98.3045 46.954C99.0643 47.0625 99.7155 46.5198 99.8241 45.76C99.9326 45.0002 99.2813 44.3489 98.5215 44.2404C97.7617 44.1318 97.0019 44.6746 97.0019 45.4344Z" fill="#263238"/>
<path d="M97.2226 40.9801C97.3312 41.1971 98.4166 40.4373 99.8276 40.6544C101.239 40.763 102.107 41.7399 102.324 41.5228C102.433 41.4142 102.324 41.0886 101.89 40.6544C101.456 40.2202 100.805 39.7861 99.9362 39.6775C99.0678 39.569 98.308 39.8946 97.8739 40.2203C97.3312 40.5459 97.2226 40.8715 97.2226 40.9801Z" fill="#263238"/>
<path d="M110.344 42.0726C110.561 42.2897 111.755 41.4214 113.383 41.4214C115.011 41.4214 116.205 42.2897 116.422 42.0726C116.531 41.9641 116.314 41.6385 115.771 41.2043C115.228 40.7701 114.36 40.3359 113.383 40.3359C112.297 40.3359 111.429 40.7701 110.995 41.2043C110.452 41.6385 110.344 41.9641 110.344 42.0726Z" fill="#263238"/>
<path d="M78.7604 14.0683C78.7604 14.0683 79.3031 13.5255 80.4971 13.0914C81.1484 12.8743 81.9082 12.6572 82.7765 12.6572C83.6448 12.6572 84.7303 12.8743 85.7072 13.5255L85.8157 13.6341L85.9242 13.5255C86.5755 12.4401 87.6609 11.5718 89.1805 11.1376C90.5916 10.7034 92.3283 10.9205 93.7393 11.8974L93.9564 12.0059L94.065 11.7889C95.2589 10.1607 97.3213 8.8582 99.6007 8.42402C101.337 8.09839 103.183 8.42402 104.594 9.18382C106.113 9.94362 107.307 11.0291 108.067 12.3316L108.176 12.4401H108.284C110.238 12.5487 112.083 12.9828 113.494 13.7426C115.014 14.3939 116.099 15.2622 116.968 16.1306C118.704 17.7587 119.247 19.0612 119.355 18.9527C119.355 18.9527 119.355 18.8441 119.247 18.7356C119.138 18.6271 119.03 18.41 118.921 18.0843C118.596 17.5416 118.053 16.7818 117.185 15.9135C116.316 15.0451 115.231 14.1768 113.711 13.417C112.192 12.6572 110.455 12.1145 108.393 12.0059L108.501 12.1145C107.633 10.812 106.439 9.61799 104.811 8.85819C103.291 8.09839 101.337 7.77276 99.4921 8.09839C97.1042 8.53256 94.9333 9.83508 93.7393 11.6803H94.065C92.5454 10.5949 90.7001 10.4863 89.1805 10.9205C87.6609 11.3547 86.467 12.3316 85.8157 13.5255L86.0328 13.417C84.9474 12.7657 83.8619 12.5487 82.885 12.5487C81.9081 12.5487 81.1484 12.7657 80.4971 13.0914C79.8458 13.3085 79.4117 13.6341 79.1946 13.8512C78.8689 13.8512 78.7604 13.9597 78.7604 14.0683Z" fill="#263238"/>
<path d="M122.504 11.7876C122.504 11.7876 123.047 12.1132 124.132 12.2217C125.217 12.3303 126.846 12.0046 128.365 10.7021C129.125 10.0509 129.668 9.07398 129.993 7.88001C130.21 6.68604 130.21 5.38353 129.668 4.18955C129.125 2.99558 128.04 1.91014 126.737 1.36743C125.434 0.824715 123.806 0.716172 122.287 1.36743L122.504 1.47598C121.961 0.716179 120.984 0.282004 120.116 0.064918C119.356 -0.043625 118.488 -0.0436283 117.728 0.282001C116.968 0.607629 116.317 1.15035 115.991 1.69306C115.123 2.99558 115.014 4.62372 115.666 5.92623L115.991 5.70915C114.906 5.05789 113.603 5.16643 112.626 5.6006C111.65 6.03477 110.89 7.01166 110.673 7.88001C110.13 9.83378 110.998 11.5705 111.975 12.5474C112.952 13.5242 114.146 13.8499 114.797 14.067C115.123 14.1755 115.449 14.1755 115.666 14.1755C115.883 14.1755 115.991 14.1755 115.991 14.1755C115.991 14.1755 115.557 14.1755 114.906 13.9584C114.255 13.7413 113.169 13.4157 112.192 12.4388C111.215 11.5705 110.564 9.83378 111.107 8.09709C111.324 7.22875 111.975 6.46895 112.952 6.03478C113.82 5.60061 115.014 5.6006 115.883 6.14331L116.425 6.46895L116.1 5.8177C115.557 4.73227 115.666 3.21267 116.425 2.01869C116.86 1.47598 117.402 1.04179 118.054 0.716166C118.705 0.49908 119.465 0.39054 120.116 0.499083C120.984 0.607626 121.744 1.15035 122.287 1.69306L122.395 1.8016L122.504 1.69306C123.806 1.15035 125.326 1.15035 126.628 1.69306C127.931 2.23578 128.908 3.21266 129.451 4.29809C129.993 5.38352 129.993 6.68603 129.776 7.77146C129.559 8.85689 129.016 9.72524 128.365 10.3765C126.954 11.679 125.326 12.0046 124.349 12.0046C123.047 12.0046 122.504 11.679 122.504 11.7876Z" fill="#263238"/>
<path d="M153.221 28.6154C153.221 28.6154 153.221 28.5068 153.329 28.3983C153.438 28.1812 153.547 27.9641 153.547 27.6385C153.764 26.9872 153.872 25.9018 153.655 24.7078C153.438 23.5138 152.787 21.9942 151.376 20.8003C150.073 19.7148 148.011 18.8465 145.949 19.1721L146.166 19.2807C145.297 17.544 143.778 16.0244 141.824 15.156C140.304 14.5048 138.785 14.3962 137.265 14.6133C135.854 14.8304 134.443 15.4817 133.466 16.2415H133.683C132.164 15.3731 130.535 15.156 129.124 15.156C127.713 15.156 126.519 15.4817 125.542 15.9158C124.566 16.35 123.914 16.7842 123.48 17.1098C123.046 17.4354 122.829 17.6525 122.829 17.6525C122.829 17.7611 123.697 16.7842 125.542 16.1329C126.519 15.8073 127.713 15.4817 129.016 15.4817C130.427 15.4817 131.947 15.8073 133.466 16.5671L133.575 16.6757L133.683 16.5671C134.66 15.8073 135.963 15.2646 137.374 15.0475C138.785 14.8304 140.304 14.939 141.715 15.5902C143.561 16.35 145.08 17.8696 145.84 19.4978L145.949 19.6063H146.057C148.011 19.3892 149.965 20.0405 151.267 21.1259C152.57 22.2113 153.221 23.6224 153.547 24.8164C153.764 26.0103 153.764 26.9872 153.547 27.747C153.329 28.1812 153.221 28.5068 153.221 28.6154Z" fill="#263238"/>
<path d="M38.1668 148.334L41.8573 142.799L47.7186 139.868L47.9357 139.76C49.8895 138.349 52.2774 137.914 54.5568 138.566C56.9447 139.217 60.0925 139.977 62.8061 140.411L69.1016 138.674V150.939L37.407 148.986L38.1668 148.334Z" fill="#FFBF9D"/>
<path d="M38.3854 148.01C38.3854 148.01 38.8196 147.468 39.6879 146.816C40.5563 146.057 41.7502 145.08 43.0527 144.103C43.4869 143.777 43.9211 143.452 44.3553 143.126C45.6578 142.909 46.7432 142.692 47.6116 142.583C48.3714 142.475 48.9141 142.366 48.9141 142.475C48.9141 142.475 48.4799 142.692 47.6116 142.8C46.8517 143.017 45.6578 143.234 44.3553 143.452H44.4638C44.0296 143.777 43.5955 144.103 43.1613 144.428C41.8588 145.514 40.5563 146.382 39.6879 147.033C39.0367 147.576 38.4939 148.01 38.3854 148.01Z" fill="#FF9A6C"/>
<path d="M40.8866 148.989C40.8866 148.88 42.8403 147.686 45.4454 146.275C45.8795 146.058 46.2052 145.841 46.5308 145.624C48.8102 145.516 50.5469 145.516 50.5469 145.516C50.5469 145.624 48.8102 145.841 46.5308 145.95H46.6393C46.3137 146.167 45.8795 146.384 45.5539 146.601C43.0574 148.012 40.9951 149.098 40.8866 148.989Z" fill="#FF9A6C"/>
<path d="M1.37667 113.603C2.4621 113.061 3.76463 113.278 4.52443 114.255L30.032 148.88L70.41 149.422C72.0381 149.531 73.9919 152.787 72.5808 154.307L26.9928 153.656L0.616875 117.077C-0.251472 115.991 0.0741577 114.363 1.37667 113.603Z" fill="#455A64"/>
<path d="M1.37669 113.602C1.37669 113.602 1.26816 113.602 1.15961 113.71C1.05107 113.819 0.833984 113.927 0.616898 114.144C0.291267 114.579 -0.25145 115.556 0.291267 116.641C0.508354 117.184 0.94252 117.618 1.37669 118.269C1.81087 118.812 2.24505 119.463 2.67922 120.114C3.65611 121.525 4.74153 123.045 6.04404 124.782C11.037 131.837 18.2009 141.823 26.7758 153.763L26.8843 153.871H26.9928C40.1265 154.088 55.4311 154.305 71.8211 154.522C72.1467 154.522 72.3638 154.522 72.6894 154.522H72.798L72.9065 154.414C73.3407 153.98 73.4492 153.328 73.4492 152.786C73.4492 152.243 73.2321 151.7 73.015 151.158C72.798 150.615 72.4723 150.181 72.0382 149.855C71.604 149.529 71.0613 149.095 70.5186 149.095C68.4562 149.095 66.2854 148.987 64.3316 148.987C60.207 148.987 56.1909 148.878 52.2833 148.878C44.4683 148.77 37.0873 148.661 30.2491 148.553L30.3577 148.661C21.9999 137.481 15.1617 128.146 10.2772 121.634C7.88928 118.378 5.9355 115.881 4.63298 114.036C3.87318 113.168 2.89631 113.059 2.35359 113.168C1.59379 113.385 1.37669 113.602 1.37669 113.602C1.37669 113.602 1.5938 113.493 2.13651 113.385C2.67922 113.276 3.65611 113.385 4.30737 114.253C5.60989 115.99 7.4551 118.595 9.84305 121.851C14.6189 128.364 21.5657 137.807 29.8149 148.987L29.9235 149.095H30.032C36.7617 149.204 44.1426 149.312 52.0663 149.421C55.9738 149.529 59.9899 149.529 64.1145 149.638C66.1768 149.638 68.2392 149.747 70.3015 149.747C70.7356 149.747 71.1698 149.964 71.604 150.398C71.9296 150.723 72.2552 151.158 72.4723 151.592C72.9065 152.46 73.1236 153.654 72.3638 154.305L72.4723 154.197C72.2552 154.197 71.9296 154.197 71.604 154.197C55.3225 153.98 39.9095 153.763 26.7758 153.654L26.8843 153.763C18.3094 141.823 11.037 131.945 6.04404 124.89C4.74153 123.153 3.65611 121.634 2.67922 120.223C2.13651 119.572 1.70233 118.92 1.26816 118.378C0.833992 117.835 0.399818 117.292 0.182732 116.749C-0.251442 115.664 0.182739 114.687 0.508362 114.253C1.05108 113.71 1.37669 113.602 1.37669 113.602Z" fill="#263238"/>
<path d="M126.737 73.7633C126.737 73.7633 130.211 75.6085 131.73 77.1281C134.335 79.6246 135.855 82.7723 136.506 85.9201C137.374 90.0447 136.723 105.675 136.723 110.234C136.723 114.901 135.529 132.268 134.986 135.09C134.444 138.021 135.312 142.254 136.723 145.076C139.111 150.069 135.421 152.674 135.421 152.674L85.8165 152.348L86.0336 150.503C86.3592 147.247 85.1652 143.991 86.3592 140.951C87.6617 137.804 89.5069 131.182 88.53 125.43C88.53 125.43 82.3431 117.723 87.4446 105.349C90.3753 98.294 94.9341 85.9201 104.16 78.7563C104.16 78.7563 116.86 74.6316 115.123 75.1743C114.58 75.3914 123.806 73.4376 126.737 73.7633Z" fill="#EDDAD3"/>
<path d="M65.4111 137.259L107.743 128.467L108.828 91.6712C108.828 91.6712 110.348 76.6923 117.837 75.2812L135.855 97.7496C134.879 109.038 135.747 130.53 130.537 138.779C125.327 147.028 120.225 153.649 107.417 153.107C94.6091 152.564 66.2794 152.238 66.2794 152.238L65.4111 137.259Z" fill="#EDDAD3"/>
<path d="M107.635 128.577C107.527 128.686 108.503 129.988 109.372 131.833C110.24 133.679 110.566 135.307 110.783 135.307C110.891 135.307 110.674 133.57 109.806 131.725C108.938 129.663 107.744 128.469 107.635 128.577Z" fill="#263238"/>
<g opacity="0.3">
<path d="M109.148 90.0469C104.915 103.072 105.784 123.044 97.7514 130.425L107.737 128.363C107.737 128.363 107.412 124.455 107.629 121.307C108.497 111.104 108.606 100.576 109.148 90.0469Z" fill="black"/>
</g>
<path d="M110.018 85.3789C110.018 85.3789 109.692 86.3558 109.258 88.3096C109.041 89.2865 108.824 90.4804 108.716 92C108.607 93.4111 108.607 95.1478 108.498 96.993C108.281 104.482 107.956 115.228 107.522 128.362L107.63 128.145C95.4733 130.641 81.0371 133.681 65.2984 136.937H65.0813V137.154C65.4069 141.93 65.7326 147.031 66.0582 152.241V152.458H66.2753C67.9034 152.458 69.6401 152.458 71.3768 152.567C78.7577 152.676 85.9215 152.784 92.8683 152.893C96.3417 153.001 99.7065 153.001 103.071 153.218C106.436 153.327 109.692 153.652 112.84 153.11C114.468 152.893 115.988 152.458 117.399 151.916C118.81 151.265 120.221 150.613 121.415 149.745C123.912 148.008 125.865 145.729 127.494 143.449C128.362 142.255 129.122 141.17 129.881 139.976L130.424 139.108C130.641 138.782 130.75 138.456 130.858 138.239C130.967 137.914 131.184 137.588 131.293 137.371C131.401 137.045 131.51 136.72 131.618 136.394C132.595 133.898 133.138 131.401 133.463 129.013C134.223 124.237 134.44 119.896 134.657 116.097C134.874 112.298 134.983 108.933 134.983 106.328C135.092 103.614 135.2 101.552 135.2 100.141C135.2 99.4895 135.309 98.9468 135.309 98.5126C135.309 98.187 135.309 97.9699 135.309 97.9699C135.309 97.9699 135.309 98.187 135.2 98.5126C135.2 98.8382 135.092 99.381 135.092 100.141C134.983 101.552 134.874 103.614 134.766 106.328C134.657 109.041 134.549 112.298 134.332 116.097C134.115 119.896 133.789 124.237 133.029 129.013C132.595 131.401 132.052 133.898 131.075 136.286C130.967 136.611 130.858 136.937 130.75 137.154C130.641 137.48 130.424 137.697 130.316 138.022C130.207 138.348 129.99 138.565 129.881 138.891L129.339 139.759C128.579 140.953 127.819 142.038 126.951 143.232C125.323 145.512 123.369 147.791 120.872 149.528C119.678 150.396 118.267 151.156 116.856 151.699C115.445 152.241 113.926 152.676 112.297 152.893C109.15 153.435 105.893 153.11 102.529 153.001C99.1638 152.893 95.799 152.784 92.3256 152.676C85.3788 152.567 78.215 152.458 70.8341 152.35C69.0974 152.35 67.3607 152.35 65.7326 152.241L65.9496 152.458C65.624 147.248 65.2984 142.255 64.9728 137.371L64.7557 137.588C80.4944 134.332 94.9306 131.293 107.087 128.688H107.196V128.579C107.522 115.445 107.847 104.7 108.064 97.2101C108.173 95.3649 108.173 93.6282 108.281 92.2171C108.39 90.8061 108.607 89.6121 108.716 88.6352C108.933 87.6583 109.041 86.8985 109.15 86.4643C109.258 86.2472 109.258 86.0302 109.258 85.9216C110.018 85.4874 110.018 85.3789 110.018 85.3789Z" fill="#263238"/>
<path d="M42.0717 227.465L48.3672 273.813L31.9772 276.526L20.2546 235.388L42.0717 227.465Z" fill="#FFBF9D"/>
<path d="M92 156.263C92 156.263 31.8672 152.355 19.3848 154.309C11.7868 155.503 5.38272 167.334 9.39881 174.389C11.3526 177.754 14.3918 188.174 14.3918 188.174L46.7376 180.793L92 156.263Z" fill="#005DA4"/>
<path d="M46.7366 188.172L59.7617 208.035L44.4572 218.021L27.8501 192.514L46.7366 188.172Z" fill="#FFBF9D"/>
<path d="M134.113 152.678C134.113 152.678 140.192 180.465 130.206 191.645C120.22 202.933 105.458 202.933 90.3703 200.763C75.1743 198.592 39.1381 197.832 39.1381 197.832C39.1381 197.832 40.7662 207.709 41.9602 218.889C43.1542 230.178 43.3712 237.233 43.3712 237.233L20.7943 239.078C20.7943 239.078 8.20332 200.871 6.24954 193.273C4.29576 185.675 4.94702 175.581 11.6767 171.782C17.3209 168.634 62.0406 156.151 83.315 154.415L85.5944 152.461L134.113 152.678Z" fill="#005DA4"/>
<path d="M28.2121 188.863C28.2121 188.957 29.0552 189.05 30.3197 189.424C30.952 189.61 31.6897 189.89 32.5327 190.357C33.2704 190.731 34.1135 191.291 34.9565 191.851C35.6942 192.505 36.4319 193.158 36.9588 193.812C37.4857 194.465 37.9072 195.119 38.2234 195.679C38.8556 196.8 39.0664 197.547 39.0664 197.547C39.0664 197.547 39.0664 197.36 38.961 196.987C38.8556 196.613 38.7503 196.146 38.4341 195.586C38.118 195.026 37.8018 194.372 37.2749 193.625C36.748 192.972 36.1157 192.225 35.2727 191.571C34.4296 190.917 33.5866 190.451 32.7435 189.984C31.9005 189.61 31.1628 189.33 30.4251 189.143C29.7928 188.957 29.1606 188.863 28.8444 188.863C28.4229 188.863 28.2121 188.863 28.2121 188.863Z" fill="#080808"/>
<path d="M30.7844 165.594C30.8929 165.594 30.4588 164.508 29.5904 163.315C28.7221 162.121 27.9623 161.252 27.8537 161.361C27.7452 161.469 28.3964 162.338 29.2648 163.532C30.0246 164.617 30.6758 165.594 30.7844 165.594Z" fill="#0A0A0A"/>
<path d="M5.27792 182.63C5.27792 182.63 5.27793 182.522 5.38647 182.413C5.38647 182.196 5.49501 182.088 5.49501 181.762C5.60355 181.219 5.82064 180.351 6.14627 179.374C6.4719 178.289 7.01462 177.095 7.77441 175.684C8.53422 174.381 9.61965 172.862 11.3563 171.993C14.9383 170.365 19.3885 168.846 24.3815 167.326C29.3745 165.806 34.9102 164.287 40.6629 162.767C52.277 159.728 62.9142 157.449 70.7293 156.146C74.6369 155.495 77.7846 155.061 79.9555 154.735C81.0409 154.626 81.9093 154.518 82.452 154.409C82.6691 154.409 82.8861 154.301 83.1032 154.301C82.8861 154.301 82.6691 154.301 82.452 154.409C81.8007 154.518 81.0409 154.518 79.9555 154.626C77.7846 154.844 74.6369 155.278 70.7293 155.929C62.9142 157.123 52.277 159.294 40.6629 162.442C34.8016 163.961 29.3745 165.589 24.3815 167.109C19.3885 168.628 14.9383 170.148 11.3563 171.885C9.51111 172.862 8.42567 174.381 7.66587 175.684C6.90607 177.095 6.4719 178.289 6.14627 179.374C5.82064 180.46 5.60355 181.219 5.49501 181.871C5.49501 182.088 5.38647 182.305 5.38647 182.522C5.27793 182.522 5.27792 182.63 5.27792 182.63Z" fill="#0A0A0A"/>
<path d="M30.6733 275.229L30.1306 273.167C37.0774 272.407 43.3728 269.802 48.2573 265.352L53.793 277.4L16.6713 293.898C15.2602 290.425 30.6733 275.229 30.6733 275.229Z" fill="#455A64"/>
<path d="M53.7852 277.505L52.3741 274.574L17.2062 291.507C17.2062 291.507 15.9037 292.918 16.5549 294.003L53.7852 277.505Z" fill="#E0E0E0"/>
<path d="M31.1012 275.015C31.2097 275.232 32.1866 274.906 33.272 275.015C34.466 275.124 35.2258 275.666 35.4429 275.558C35.5514 275.449 34.7916 274.472 33.3806 274.364C32.0781 274.255 30.9926 274.906 31.1012 275.015Z" fill="#263238"/>
<path d="M45.6544 273.709C45.8715 274.252 46.5228 274.469 47.0655 274.252C47.6082 274.035 47.8253 273.383 47.6082 272.841C47.3911 272.298 46.7399 272.081 46.1972 272.298C45.5459 272.624 45.3288 273.275 45.6544 273.709Z" fill="#E0E0E0"/>
<path d="M31.3174 274.796C31.3174 274.796 31.643 274.796 32.1857 274.688C32.7284 274.579 33.4882 274.362 34.248 273.602C34.4651 273.385 34.5736 273.168 34.6822 272.951C34.7907 272.734 35.0078 272.408 35.0078 272.083C35.0078 271.757 34.7907 271.323 34.4651 271.214C34.1395 271.106 33.7053 271.106 33.3797 271.214C32.0772 271.865 31.1003 273.277 31.1003 274.796L31.643 274.688C31.5344 274.362 31.4259 274.145 31.3174 273.819C30.449 272.3 28.8209 271.54 27.3013 271.54C27.0842 271.54 26.8671 271.54 26.65 271.648C26.4329 271.757 26.2158 271.974 26.2158 272.191C26.1073 272.625 26.3244 272.951 26.4329 273.277C26.8671 273.819 27.3013 274.145 27.844 274.471C28.9294 274.905 29.7977 274.796 30.449 274.905C30.9917 274.905 31.3174 274.796 31.3174 274.796C31.3174 274.796 30.9917 274.688 30.3405 274.688C29.7977 274.579 28.8209 274.688 27.9525 274.145C27.5183 273.928 27.0842 273.602 26.7585 273.059C26.65 272.842 26.5415 272.517 26.5415 272.3C26.5415 272.083 26.7586 271.974 27.0842 271.974C28.3867 271.974 29.9063 272.734 30.6661 274.036C30.7746 274.253 30.8832 274.579 30.9917 274.796C30.9917 274.905 31.2088 275.013 31.3174 275.013C31.4259 275.013 31.5344 274.905 31.5344 274.796C31.5344 273.385 32.4028 272.191 33.4882 271.648C34.0309 271.431 34.5736 271.648 34.5736 272.083C34.5736 272.517 34.248 273.059 33.9224 273.385C33.2711 274.036 32.5113 274.362 32.0771 274.579C31.643 274.688 31.3174 274.796 31.3174 274.796Z" fill="#263238"/>
<path d="M28.2842 277.613C28.2842 277.722 29.4782 277.396 30.7807 277.831C32.0832 278.156 32.9516 278.916 33.0601 278.807C33.1687 278.699 32.4089 277.722 30.8893 277.396C29.3696 276.962 28.2842 277.505 28.2842 277.613Z" fill="#263238"/>
<path d="M26.2253 280.004C26.2253 280.113 27.2022 280.113 28.3962 280.438C29.5902 280.764 30.35 281.307 30.4585 281.198C30.567 281.089 29.8072 280.33 28.5047 280.004C27.3107 279.678 26.2253 279.895 26.2253 280.004Z" fill="#263238"/>
<path d="M41.5257 215.751L40.6574 213.906C47.387 212.061 53.1398 208.37 57.2644 203.16L64.7539 214.123L30.8885 236.7C28.9347 233.335 41.5257 215.751 41.5257 215.751Z" fill="#455A64"/>
<path d="M64.7539 214.022L62.9087 211.309L31.1056 233.994C31.1056 233.994 30.0202 235.622 30.8885 236.599L64.7539 214.022Z" fill="#E0E0E0"/>
<path d="M41.9695 215.432C42.078 215.54 42.9464 215.106 44.1403 215.106C45.3343 214.997 46.2026 215.432 46.3112 215.323C46.4197 215.215 45.5514 214.346 44.1403 214.455C42.7293 214.455 41.8609 215.323 41.9695 215.432Z" fill="#263238"/>
<path d="M56.0696 211.729C56.3953 212.163 57.0465 212.272 57.5892 211.946C58.0234 211.621 58.2405 210.97 57.8063 210.535C57.4807 210.101 56.8294 209.993 56.2867 210.318C55.8525 210.644 55.6355 211.295 56.0696 211.729Z" fill="#E0E0E0"/>
<path d="M42.1882 215.214C42.1882 215.214 42.5138 215.106 42.948 214.888C43.3822 214.671 44.2505 214.346 44.7932 213.477C44.9018 213.26 45.1188 213.043 45.1188 212.718C45.2274 212.501 45.3359 212.175 45.3359 211.849C45.3359 211.524 45.0103 211.089 44.5761 211.089C44.142 210.981 43.8163 211.089 43.4907 211.307C42.2967 212.175 41.6455 213.694 41.8626 215.214L42.4053 214.997C42.2967 214.78 42.0796 214.454 41.8626 214.237C40.7771 212.935 38.9319 212.392 37.5208 212.718C37.3038 212.718 37.0867 212.826 36.9781 212.935C36.761 213.043 36.6525 213.369 36.6525 213.586C36.6525 214.02 36.8696 214.346 37.0867 214.563C37.5208 215.106 38.1721 215.323 38.7148 215.431C39.8002 215.757 40.6686 215.431 41.3198 215.431C41.8626 215.323 42.1882 215.214 42.1882 215.214C42.1882 215.214 41.8626 215.214 41.2113 215.214C40.6686 215.214 39.8002 215.431 38.8234 215.106C38.3892 214.997 37.8465 214.671 37.4123 214.237C37.1952 214.02 37.0867 213.803 37.0867 213.586C37.0867 213.369 37.3038 213.26 37.6294 213.26C38.9319 213.043 40.56 213.477 41.4284 214.671C41.6455 214.888 41.754 215.106 41.8626 215.323C41.9711 215.431 42.0796 215.54 42.1882 215.431C42.2967 215.323 42.4053 215.214 42.2967 215.106C42.0796 213.694 42.7309 212.392 43.7078 211.632C44.142 211.307 44.7932 211.415 44.7932 211.849C44.7932 212.283 44.5761 212.826 44.359 213.152C43.8163 213.912 43.1651 214.346 42.7309 214.671C42.4053 214.997 42.1882 215.106 42.1882 215.214Z" fill="#263238"/>
<path d="M39.5722 218.46C39.5722 218.569 40.6576 218.135 42.0687 218.243C43.3712 218.352 44.3481 219.003 44.4566 218.894C44.5652 218.786 43.5883 217.918 42.0687 217.809C40.5491 217.7 39.5722 218.352 39.5722 218.46Z" fill="#263238"/>
<path d="M37.9469 221.179C37.9469 221.287 38.9238 221.07 40.1178 221.287C41.3118 221.396 42.2886 221.83 42.2886 221.721C42.3972 221.613 41.4203 220.961 40.1178 220.853C38.9238 220.636 37.9469 221.07 37.9469 221.179Z" fill="#263238"/>
<path d="M107.194 55.7522C107.736 55.1009 108.713 54.7753 109.582 54.8839C110.233 54.9924 110.884 55.318 111.21 55.8607C111.535 56.4034 111.644 57.1633 111.21 57.5974C110.776 58.1401 110.016 58.2487 109.256 58.0316C108.605 57.8145 107.953 57.2718 107.411 56.8376C107.302 56.7291 107.085 56.6205 106.977 56.4034C106.977 56.0778 106.977 55.8607 107.194 55.7522Z" fill="#FF9A6C"/>
<path d="M110.995 53.3633C110.778 53.3633 110.669 54.8829 109.258 55.9683C107.847 57.0538 106.219 56.8367 106.111 57.0538C106.111 57.1623 106.436 57.3794 107.196 57.3794C107.847 57.3794 108.933 57.2708 109.801 56.6196C110.669 55.9683 111.103 55.1 111.103 54.4487C111.212 53.7975 111.103 53.3633 110.995 53.3633Z" fill="#263238"/>
</svg>
