<svg width="800" height="596" viewBox="0 0 800 596" fill="none" xmlns="http://www.w3.org/2000/svg">
<g clip-path="url(#clip0_609_17265)">
<path d="M800 523.699H0V524.019H800V523.699Z" fill="#EBEBEB"/>
<path d="M719.839 549.453H666.879V549.773H719.839V549.453Z" fill="#EBEBEB"/>
<path d="M529.92 553.93H516V554.25H529.92V553.93Z" fill="#EBEBEB"/>
<path d="M665.279 534.738H634.559V535.058H665.279V534.738Z" fill="#EBEBEB"/>
<path d="M153.12 537.297H84V537.617H153.12V537.297Z" fill="#EBEBEB"/>
<path d="M177.439 537.297H167.359V537.617H177.439V537.297Z" fill="#EBEBEB"/>
<path d="M360.318 544.176H210.398V544.496H360.318V544.176Z" fill="#EBEBEB"/>
<path d="M379.201 452.359H70.2411C65.2811 452.359 61.1211 448.2 61.1211 443.241V9.11755C61.1211 4.15888 65.2811 0 70.2411 0H379.201C384.161 0 388.321 4.15888 388.321 9.11755V443.241C388.321 448.36 384.321 452.359 379.201 452.359ZM70.2411 0.319914C65.4411 0.319914 61.4411 4.15888 61.4411 9.11755V443.241C61.4411 448.04 65.2811 452.039 70.2411 452.039H379.201C384.001 452.039 388.001 448.2 388.001 443.241V9.11755C388.001 4.31884 384.161 0.319914 379.201 0.319914H70.2411Z" fill="#EBEBEB"/>
<path d="M725.279 452.359H416.319C411.359 452.359 407.199 448.2 407.199 443.241V9.11755C407.199 4.15888 411.359 0 416.319 0H725.279C730.239 0 734.399 4.15888 734.399 9.11755V443.241C734.399 448.36 730.399 452.359 725.279 452.359ZM416.319 0.319914C411.519 0.319914 407.519 4.15888 407.519 9.11755V443.241C407.519 448.04 411.359 452.039 416.319 452.039H725.279C730.079 452.039 734.079 448.2 734.079 443.241V9.11755C734.079 4.31884 730.239 0.319914 725.279 0.319914H416.319Z" fill="#EBEBEB"/>
<path d="M234.24 97.0958C234.24 87.0185 226.08 79.0206 216.16 79.0206C214.4 79.0206 212.64 79.3406 210.88 79.8204C211.2 78.0609 211.36 76.1414 211.36 74.2219C211.36 52.9476 194.24 35.8322 172.96 35.8322C170.56 35.8322 168.16 35.9922 165.92 36.4721C160 26.8746 149.44 20.3164 137.28 20.3164C118.88 20.3164 104 35.0325 103.68 53.4275C103.52 53.4275 103.36 53.4275 103.2 53.4275C86.0803 53.4275 72.3203 67.3438 72.3203 84.2992C72.3203 101.415 86.2403 115.171 103.2 115.171H216.8C226.4 114.851 234.24 106.853 234.24 97.0958Z" fill="#F0F0F0"/>
<path d="M167.679 124.288V88.9375H138.719V124.288H115.359L153.119 156.279L191.039 124.288H167.679Z" fill="#E0E0E0"/>
<path d="M669.281 87.4973C669.281 82.3787 665.121 78.0598 659.841 78.0598C658.881 78.0598 657.921 78.2198 657.121 78.3797C657.281 77.42 657.281 76.4602 657.281 75.5005C657.281 64.4635 648.321 55.6658 637.441 55.6658C636.161 55.6658 635.041 55.8258 633.761 55.9857C630.721 51.0271 625.281 47.668 618.881 47.668C609.441 47.668 601.601 55.3459 601.441 64.7834C601.281 64.7834 601.281 64.7834 601.121 64.7834C592.321 64.7834 585.121 71.9814 585.121 80.7791C585.121 89.5767 592.321 96.7748 601.121 96.7748H660.001C665.121 96.7748 669.281 92.6159 669.281 87.4973Z" fill="#F0F0F0"/>
<path d="M619.84 88.2957V106.531H634.72V88.2957H646.88L627.36 71.6602L607.68 88.2957H619.84Z" fill="#E0E0E0"/>
<path d="M211.121 195.58L71.9258 226.336L94.956 330.509L234.152 299.753L211.121 195.58Z" fill="#FAFAFA"/>
<path d="M205.784 203.839L80.4922 231.523L100.449 321.797L225.741 294.113L205.784 203.839Z" fill="#E0E0E0"/>
<path d="M223.203 281.846L225.923 294.163L100.483 321.836L90.7227 277.848L111.683 249.535L158.403 278.487L175.363 259.293L223.203 281.846Z" fill="#EBEBEB"/>
<path d="M190.243 232.261C191.523 237.859 188.003 243.298 182.403 244.578C176.803 245.857 171.363 242.338 170.083 236.74C168.803 231.141 172.323 225.703 177.923 224.423C183.523 223.143 188.963 226.662 190.243 232.261Z" fill="#EBEBEB"/>
<path opacity="0.3" d="M190.243 232.261C191.523 237.859 188.003 243.298 182.403 244.578C176.803 245.857 171.363 242.338 170.083 236.74C168.803 231.141 172.323 225.703 177.923 224.423C183.523 223.143 188.963 226.662 190.243 232.261Z" fill="#EBEBEB"/>
<path d="M247.089 414.033L161.574 390.09L130.332 501.614L215.847 525.557L247.089 414.033Z" fill="#EBEBEB"/>
<path d="M229.923 426.153L169.992 409.371L168.309 415.378L228.24 432.16L229.923 426.153Z" fill="#E0E0E0"/>
<path d="M226.888 436.688L166.957 419.906L165.274 425.913L225.205 442.695L226.888 436.688Z" fill="#E0E0E0"/>
<path d="M224.001 447.262L164.07 430.48L162.387 436.487L222.318 453.269L224.001 447.262Z" fill="#E0E0E0"/>
<path d="M220.966 457.797L161.035 441.016L159.352 447.022L219.283 463.804L220.966 457.797Z" fill="#E0E0E0"/>
<path d="M218.079 468.375L158.148 451.594L156.466 457.601L216.396 474.382L218.079 468.375Z" fill="#E0E0E0"/>
<path d="M215.044 478.907L155.113 462.125L153.43 468.132L213.361 484.913L215.044 478.907Z" fill="#E0E0E0"/>
<path d="M212.157 489.485L152.227 472.703L150.544 478.71L210.475 495.492L212.157 489.485Z" fill="#E0E0E0"/>
<path d="M188.066 494.203L149.242 483.332L147.559 489.339L186.383 500.21L188.066 494.203Z" fill="#E0E0E0"/>
<path d="M226.28 368.951L140.766 345.008L109.524 456.532L195.038 480.475L226.28 368.951Z" fill="#FAFAFA"/>
<path d="M208.962 381.036L149.031 364.254L147.348 370.261L207.279 387.042L208.962 381.036Z" fill="#E0E0E0"/>
<path d="M206.079 391.614L146.148 374.832L144.466 380.839L204.396 397.621L206.079 391.614Z" fill="#E0E0E0"/>
<path d="M203.04 402.145L143.109 385.363L141.426 391.37L201.357 408.152L203.04 402.145Z" fill="#E0E0E0"/>
<path d="M200.157 412.723L140.227 395.941L138.544 401.948L198.475 418.73L200.157 412.723Z" fill="#E0E0E0"/>
<path d="M197.118 423.258L137.188 406.477L135.505 412.483L195.435 429.265L197.118 423.258Z" fill="#E0E0E0"/>
<path d="M194.232 433.832L134.301 417.051L132.618 423.058L192.549 439.839L194.232 433.832Z" fill="#E0E0E0"/>
<path d="M191.197 444.368L131.266 427.586L129.583 433.593L189.514 450.374L191.197 444.368Z" fill="#E0E0E0"/>
<path d="M167.101 449.086L128.277 438.215L126.594 444.222L165.419 455.093L167.101 449.086Z" fill="#E0E0E0"/>
<path d="M709.119 200.747C699.999 193.709 687.679 170.195 687.839 170.195L675.839 252.573C676.159 250.654 668.799 248.574 663.999 247.774C652.159 246.015 641.919 251.134 640.799 259.131C639.679 267.129 648.479 274.967 660.319 276.727C672.159 278.486 682.239 273.208 683.359 265.21C683.519 263.93 682.559 262.65 682.719 261.531L691.999 198.028C691.999 198.028 698.239 206.506 708.959 212.104C717.759 216.583 720.639 229.06 720.639 229.06C720.639 229.06 723.359 211.784 709.119 200.747Z" fill="#E0E0E0"/>
<path d="M619.361 240.735C613.121 235.777 604.641 219.621 604.641 219.621L596.321 276.406C596.481 275.126 591.521 273.527 588.161 273.047C580.001 271.927 572.961 275.446 572.161 280.885C571.361 286.483 577.441 291.922 585.601 293.041C593.761 294.161 600.641 290.642 601.601 285.203C601.761 284.404 601.121 283.444 601.281 282.644L607.681 238.816C607.681 238.816 612.001 244.734 619.361 248.573C625.441 251.612 627.361 260.25 627.361 260.25C627.361 260.25 629.121 248.253 619.361 240.735Z" fill="#E0E0E0"/>
<path d="M616.323 404.055L612.003 400.535C610.403 399.256 608.323 398.776 606.403 399.416L584.323 405.814C582.403 406.294 580.963 407.894 580.483 409.653L579.043 414.772C578.563 416.691 577.123 418.131 575.203 418.611L562.083 422.45C558.883 423.409 557.283 426.608 558.403 429.648L583.843 502.108C584.963 505.147 588.323 507.067 591.523 506.107L696.003 476.035C699.203 475.075 700.803 471.876 699.683 468.837L674.243 396.377C673.123 393.337 669.763 391.418 666.563 392.378L622.083 405.174C620.003 405.654 617.923 405.334 616.323 404.055Z" fill="#E0E0E0"/>
<path d="M678.883 396.377L583.203 423.89C579.203 425.009 576.643 429.328 577.443 433.327L590.083 498.75C590.883 502.748 594.723 505.148 598.723 504.028L694.403 476.516C698.403 475.396 700.963 471.077 700.163 467.078L687.523 401.656C686.723 397.657 682.723 395.257 678.883 396.377Z" fill="#E6E6E6"/>
<path d="M400.002 596.002C571.343 596.002 710.242 587.909 710.242 577.927C710.242 567.944 571.343 559.852 400.002 559.852C228.661 559.852 89.7617 567.944 89.7617 577.927C89.7617 587.909 228.661 596.002 400.002 596.002Z" fill="#F5F5F5"/>
<path d="M720.159 294.322C720.159 385.337 651.359 459.238 566.879 459.238C482.399 459.238 413.599 385.177 413.599 294.322C413.599 203.306 482.399 129.406 566.879 129.406C619.039 129.406 666.879 157.399 695.359 204.426L684.159 211.944L713.599 221.061L718.559 189.07L707.999 196.108C676.799 144.442 624.159 113.57 566.879 113.57C474.239 113.57 398.719 194.669 398.719 294.482C398.719 394.295 474.079 475.393 566.879 475.393C659.519 475.393 735.039 394.295 735.039 294.482H720.159V294.322Z" fill="#407BFF"/>
<path opacity="0.7" d="M720.159 294.322C720.159 385.337 651.359 459.238 566.879 459.238C482.399 459.238 413.599 385.177 413.599 294.322C413.599 203.306 482.399 129.406 566.879 129.406C619.039 129.406 666.879 157.399 695.359 204.426L684.159 211.944L713.599 221.061L718.559 189.07L707.999 196.108C676.799 144.442 624.159 113.57 566.879 113.57C474.239 113.57 398.719 194.669 398.719 294.482C398.719 394.295 474.079 475.393 566.879 475.393C659.519 475.393 735.039 394.295 735.039 294.482H720.159V294.322Z" fill="white"/>
<path d="M589.439 260.253V238.499L579.039 237.379C577.599 230.021 574.879 223.303 571.359 217.224L578.079 208.587L563.839 193.231L555.839 200.429C550.239 196.43 543.999 193.551 537.119 192.111L536.159 180.914H515.999L515.039 192.111C508.319 193.551 501.919 196.59 496.319 200.429L488.319 193.231L474.079 208.587L480.799 217.224C477.119 223.303 474.399 230.021 473.119 237.379L462.719 238.499V260.253L473.119 261.372C474.559 268.73 477.279 275.449 480.799 281.527L474.079 290.165L488.319 305.521L496.319 298.323C501.919 302.321 508.159 305.201 515.039 306.64L515.999 317.837H535.999L536.959 306.64C543.679 305.201 550.079 302.162 555.679 298.323L563.679 305.521L577.919 290.165L571.199 281.527C574.879 275.449 577.599 268.73 578.879 261.372L589.439 260.253ZM525.919 278.808C510.879 278.808 498.559 265.691 498.559 249.376C498.559 233.06 510.879 219.944 525.919 219.944C540.959 219.944 553.279 233.06 553.279 249.376C553.279 265.691 540.959 278.808 525.919 278.808Z" fill="#407BFF"/>
<path d="M671.36 321.676V304.561L663.2 303.761C662.08 298.003 660 292.724 657.12 288.085L662.4 281.207L651.2 269.211L644.8 274.809C640.48 271.77 635.52 269.37 630.24 268.251L629.44 259.453H613.6L612.8 268.251C607.52 269.37 602.56 271.77 598.24 274.809L591.84 269.211L580.64 281.207L585.92 288.085C583.04 292.724 580.96 298.163 579.84 303.761L571.68 304.561V321.676L579.84 322.476C580.96 328.235 583.04 333.513 585.92 338.152L580.64 345.03L591.84 357.027L598.24 351.428C602.56 354.468 607.52 356.707 612.8 357.987L613.6 366.784H629.44L630.24 357.987C635.52 356.867 640.48 354.468 644.8 351.428L651.2 357.027L662.4 345.03L657.12 338.152C660 333.513 662.08 328.075 663.2 322.476L671.36 321.676ZM621.6 336.233C609.76 336.233 600.16 325.835 600.16 313.199C600.16 300.402 609.76 290.165 621.6 290.165C633.44 290.165 643.04 300.562 643.04 313.199C643.04 325.835 633.44 336.233 621.6 336.233Z" fill="#407BFF"/>
<path d="M589.438 369.982V355.746L582.558 355.106C581.598 350.307 579.838 345.829 577.438 341.83L581.758 336.071L572.318 325.994L567.038 330.793C563.358 328.233 559.198 326.314 554.718 325.354L554.077 317.996H540.798L540.158 325.354C535.678 326.314 531.517 328.233 527.837 330.793L522.558 325.994L513.118 336.071L517.438 341.83C515.038 345.829 513.278 350.307 512.318 355.106L505.438 355.746V369.982L512.318 370.622C513.278 375.421 515.038 379.899 517.438 383.898L513.118 389.657L522.558 399.734L527.837 394.935C531.517 397.495 535.678 399.414 540.158 400.374L540.798 407.732H554.077L554.718 400.374C559.198 399.414 563.358 397.495 567.038 394.935L572.318 399.734L581.758 389.657L577.598 383.898C579.998 379.899 581.758 375.421 582.718 370.622L589.438 369.982ZM547.677 382.139C537.757 382.139 529.598 373.501 529.598 362.784C529.598 352.067 537.597 343.429 547.677 343.429C557.597 343.429 565.758 352.067 565.758 362.784C565.598 373.501 557.597 382.139 547.677 382.139Z" fill="#407BFF"/>
<path opacity="0.7" d="M589.439 260.253V238.499L579.039 237.379C577.599 230.021 574.879 223.303 571.359 217.224L578.079 208.587L563.839 193.231L555.839 200.429C550.239 196.43 543.999 193.551 537.119 192.111L536.159 180.914H515.999L515.039 192.111C508.319 193.551 501.919 196.59 496.319 200.429L488.319 193.231L474.079 208.587L480.799 217.224C477.119 223.303 474.399 230.021 473.119 237.379L462.719 238.499V260.253L473.119 261.372C474.559 268.73 477.279 275.449 480.799 281.527L474.079 290.165L488.319 305.521L496.319 298.323C501.919 302.321 508.159 305.201 515.039 306.64L515.999 317.837H535.999L536.959 306.64C543.679 305.201 550.079 302.162 555.679 298.323L563.679 305.521L577.919 290.165L571.199 281.527C574.879 275.449 577.599 268.73 578.879 261.372L589.439 260.253ZM525.919 278.808C510.879 278.808 498.559 265.691 498.559 249.376C498.559 233.06 510.879 219.944 525.919 219.944C540.959 219.944 553.279 233.06 553.279 249.376C553.279 265.691 540.959 278.808 525.919 278.808Z" fill="white"/>
<path opacity="0.5" d="M671.36 321.676V304.561L663.2 303.761C662.08 298.003 660 292.724 657.12 288.085L662.4 281.207L651.2 269.211L644.8 274.809C640.48 271.77 635.52 269.37 630.24 268.251L629.44 259.453H613.6L612.8 268.251C607.52 269.37 602.56 271.77 598.24 274.809L591.84 269.211L580.64 281.207L585.92 288.085C583.04 292.724 580.96 298.163 579.84 303.761L571.68 304.561V321.676L579.84 322.476C580.96 328.235 583.04 333.513 585.92 338.152L580.64 345.03L591.84 357.027L598.24 351.428C602.56 354.468 607.52 356.707 612.8 357.987L613.6 366.784H629.44L630.24 357.987C635.52 356.867 640.48 354.468 644.8 351.428L651.2 357.027L662.4 345.03L657.12 338.152C660 333.513 662.08 328.075 663.2 322.476L671.36 321.676ZM621.6 336.233C609.76 336.233 600.16 325.835 600.16 313.199C600.16 300.402 609.76 290.165 621.6 290.165C633.44 290.165 643.04 300.562 643.04 313.199C643.04 325.835 633.44 336.233 621.6 336.233Z" fill="white"/>
<path opacity="0.3" d="M589.438 369.982V355.746L582.558 355.106C581.598 350.307 579.838 345.829 577.438 341.83L581.758 336.071L572.318 325.994L567.038 330.793C563.358 328.233 559.198 326.314 554.718 325.354L554.077 317.996H540.798L540.158 325.354C535.678 326.314 531.517 328.233 527.837 330.793L522.558 325.994L513.118 336.071L517.438 341.83C515.038 345.829 513.278 350.307 512.318 355.106L505.438 355.746V369.982L512.318 370.622C513.278 375.421 515.038 379.899 517.438 383.898L513.118 389.657L522.558 399.734L527.837 394.935C531.517 397.495 535.678 399.414 540.158 400.374L540.798 407.732H554.077L554.718 400.374C559.198 399.414 563.358 397.495 567.038 394.935L572.318 399.734L581.758 389.657L577.598 383.898C579.998 379.899 581.758 375.421 582.718 370.622L589.438 369.982ZM547.677 382.139C537.757 382.139 529.598 373.501 529.598 362.784C529.598 352.067 537.597 343.429 547.677 343.429C557.597 343.429 565.758 352.067 565.758 362.784C565.598 373.501 557.597 382.139 547.677 382.139Z" fill="white"/>
<path opacity="0.1" d="M562.88 51.666V536.496C562.88 540.495 559.68 543.534 555.68 543.534H329.92C328.16 543.534 326.56 542.894 325.44 541.774C324.32 540.655 323.52 538.895 323.52 537.136V51.1862C323.52 47.987 325.92 45.2678 328.96 45.2678H393.12C394.88 45.2678 396.64 46.3875 397.28 48.147L400 54.7052C400.64 56.4648 402.24 57.5845 404.16 57.5845H482.56C484.32 57.5845 486.08 56.4648 486.72 54.7052L489.44 48.147C490.08 46.3875 491.68 45.2678 493.6 45.2678H556.8C560.16 45.1078 562.88 48.147 562.88 51.666Z" fill="black"/>
<path d="M524.641 63.8228V524.499C524.641 528.338 521.601 531.217 517.761 531.217H303.361C301.601 531.217 300.161 530.577 299.041 529.458C297.921 528.338 297.281 526.739 297.281 524.979V63.3429C297.281 60.3037 299.521 57.7444 302.561 57.7444H363.521C365.281 57.7444 366.721 58.8641 367.521 60.4637L370.081 66.702C370.721 68.3016 372.321 69.4213 374.081 69.4213H448.641C450.401 69.4213 451.841 68.3016 452.641 66.702L455.201 60.4637C455.841 58.8641 457.441 57.7444 459.201 57.7444H519.201C522.081 57.5844 524.641 60.4637 524.641 63.8228Z" fill="#005DA4"/>
<path opacity="0.6" d="M325.495 76.1755H328.695V72.0166H325.495V76.1755Z" fill="white"/>
<path opacity="0.6" d="M320.448 76.2029H323.648V70.6044H320.448V76.2029Z" fill="white"/>
<path opacity="0.6" d="M315.241 76.2341H318.441V69.196H315.241V76.2341Z" fill="white"/>
<path opacity="0.6" d="M310.034 76.2654H313.234V67.7877H310.034V76.2654Z" fill="white"/>
<path opacity="0.6" d="M495.682 70.3943H493.762V74.5532H495.682V70.3943Z" fill="white"/>
<path opacity="0.6" d="M496.792 76.1443H511.832V68.7862H496.792V76.1443Z" fill="white"/>
<path opacity="0.3" d="M338.883 312.875H483.043C487.523 312.875 491.203 316.554 491.203 321.033C491.203 325.511 487.523 329.19 483.043 329.19H338.883C334.403 329.19 330.723 325.511 330.723 321.033C330.723 316.554 334.403 312.875 338.883 312.875Z" fill="black"/>
<path d="M417.444 314.316C421.124 314.316 424.164 317.355 424.164 321.034C424.164 324.713 421.124 327.753 417.444 327.753H338.884C335.204 327.753 332.164 324.713 332.164 321.034C332.164 317.355 335.204 314.316 338.884 314.316H417.444Z" fill="#407BFF"/>
<path d="M417.444 314.316C421.124 314.316 424.164 317.355 424.164 321.034C424.164 324.713 421.124 327.753 417.444 327.753H338.884C335.204 327.753 332.164 324.713 332.164 321.034C332.164 317.355 335.204 314.316 338.884 314.316H417.444Z" fill="white"/>
<path d="M391.522 307.596L389.602 297.199H391.202L392.482 305.357L393.762 297.199H395.362L393.442 307.596H391.522Z" fill="white"/>
<path d="M396.801 307.596V297.199H401.281V298.799H398.401V301.678H400.481V303.277H398.401V306.157H401.281V307.756H396.801V307.596Z" fill="white"/>
<path d="M404.802 297.199C405.602 297.199 406.242 297.519 406.722 297.999C407.042 298.479 407.202 298.958 407.202 299.758V301.198C407.202 301.998 406.882 302.478 406.402 303.117L407.522 307.596H405.762L404.802 303.757H404.642H403.682V307.596H402.082V297.199H404.802ZM405.762 299.758C405.762 299.118 405.442 298.799 404.802 298.799H403.842V302.158H404.802C405.122 302.158 405.282 301.998 405.442 301.838C405.602 301.678 405.762 301.518 405.762 301.198V299.758Z" fill="white"/>
<path d="M408.641 305.996H410.241V307.595H408.641V305.996Z" fill="white"/>
<path d="M412.48 300.078C412.48 299.118 412.8 298.319 413.28 297.839C413.76 297.359 414.4 297.199 415.04 297.199C415.68 297.199 416.32 297.519 416.8 297.999C417.28 298.479 417.6 299.118 417.6 299.758C417.6 300.398 417.44 301.198 417.12 301.838C416.96 302.158 416.48 302.797 415.84 303.757C415.68 304.077 415.36 304.397 415.04 304.877L414.72 305.357C414.56 305.677 414.4 305.837 414.24 305.997C414.24 306.157 414.24 306.157 414.24 306.157H417.28V307.756H412.32V306.317C412.32 306.317 412.48 306.157 412.64 305.677C412.8 305.517 412.8 305.357 412.96 305.197L413.44 304.557C413.6 304.237 414.08 303.757 414.56 302.957C415.04 302.318 415.36 301.678 415.68 301.198C415.84 300.718 416 300.398 416 299.918C416 299.598 415.84 299.278 415.68 299.118C415.52 298.958 415.2 298.799 414.88 298.799C414.4 298.799 414.08 299.118 413.92 299.598C413.92 299.758 413.76 299.918 413.76 300.238V300.558H412.16V300.078H412.48Z" fill="white"/>
<path d="M418.562 305.996H420.163V307.595H418.562V305.996Z" fill="white"/>
<path d="M426.241 305.197C426.241 305.836 425.921 306.476 425.441 306.956C424.961 307.436 424.321 307.756 423.681 307.756C423.041 307.756 422.401 307.436 421.921 306.956C421.441 306.476 421.121 305.836 421.121 305.197V299.598C421.121 298.958 421.441 298.318 421.921 297.839C422.401 297.359 423.041 297.039 423.681 297.039C424.321 297.039 424.961 297.359 425.441 297.839C425.921 298.318 426.241 298.958 426.241 299.598V305.197ZM424.641 299.438C424.641 299.118 424.481 298.958 424.321 298.798C424.161 298.638 424.001 298.478 423.681 298.478C423.361 298.478 423.201 298.638 423.041 298.798C422.881 298.958 422.721 299.118 422.721 299.438V305.037C422.721 305.357 422.881 305.517 423.041 305.677C423.201 305.836 423.361 305.996 423.681 305.996C424.001 305.996 424.161 305.836 424.321 305.677C424.481 305.517 424.641 305.357 424.641 305.037V299.438Z" fill="white"/>
<path d="M429.283 298.798V301.038C429.443 300.878 429.603 300.718 429.923 300.558C430.083 300.558 430.243 300.398 430.403 300.398C431.043 300.398 431.523 300.558 431.843 301.198C432.163 301.678 432.323 302.157 432.323 302.957V305.197C432.323 305.996 432.003 306.636 431.523 307.116C431.043 307.596 430.403 307.756 429.763 307.756C429.123 307.756 428.483 307.436 428.003 306.956C427.523 306.476 427.363 305.836 427.363 305.197V304.877L428.803 304.717V305.037C428.803 305.517 428.963 305.676 429.283 305.836C429.443 305.836 429.443 305.836 429.603 305.836C430.243 305.836 430.563 305.517 430.563 304.877V302.317C430.563 301.997 430.403 301.838 430.243 301.518C430.083 301.358 429.923 301.358 429.763 301.358C429.443 301.358 429.283 301.518 429.123 301.678C428.963 301.838 428.963 301.997 428.963 302.317V302.637H427.363V297.039H432.003V298.638H429.283V298.798Z" fill="white"/>
<path opacity="0.2" d="M435.999 367.263H385.919C382.239 367.263 379.359 364.224 379.359 360.705V349.988C379.359 346.309 382.399 343.429 385.919 343.429H435.999C439.679 343.429 442.559 346.469 442.559 349.988V360.705C442.559 364.384 439.679 367.263 435.999 367.263Z" fill="black"/>
<path d="M395.681 359.904C395.041 359.904 394.401 359.584 393.921 359.105C393.441 358.625 393.121 357.985 393.121 357.345V351.747C393.121 351.107 393.441 350.467 393.921 349.987C394.401 349.507 395.041 349.187 395.681 349.187C396.321 349.187 396.961 349.507 397.441 349.987C397.921 350.467 398.241 351.107 398.241 351.747V352.866H396.641V351.587C396.641 351.267 396.481 351.107 396.321 350.947C396.161 350.787 396.001 350.627 395.681 350.627C395.361 350.627 395.201 350.787 395.041 350.947C394.881 351.107 394.721 351.267 394.721 351.587V357.345C394.721 357.665 394.881 357.825 395.041 357.985C395.201 358.145 395.361 358.305 395.681 358.305C396.001 358.305 396.161 358.145 396.321 357.985C396.481 357.825 396.641 357.665 396.641 357.345V355.905H398.241V357.345C398.241 357.985 397.921 358.625 397.441 359.105C396.961 359.584 396.321 359.904 395.681 359.904Z" fill="white"/>
<path d="M400.963 357.345L400.643 359.745H399.043L400.803 349.347H402.883L404.643 359.745H403.043L402.723 357.345H400.963ZM401.923 351.747L401.283 355.906H402.403L401.923 351.747Z" fill="white"/>
<path d="M407.682 349.347L409.762 356.386V349.347H411.362V359.745H409.602L407.522 353.026V359.745H405.922V349.347H407.682Z" fill="white"/>
<path d="M415.201 359.904C414.561 359.904 413.921 359.584 413.441 359.105C412.961 358.625 412.641 357.985 412.641 357.345V351.747C412.641 351.107 412.961 350.467 413.441 349.987C413.921 349.507 414.561 349.187 415.201 349.187C415.841 349.187 416.481 349.507 416.961 349.987C417.441 350.467 417.761 351.107 417.761 351.747V352.866H416.161V351.587C416.161 351.267 416.001 351.107 415.841 350.947C415.681 350.787 415.521 350.627 415.201 350.627C414.881 350.627 414.721 350.787 414.561 350.947C414.401 351.107 414.241 351.267 414.241 351.587V357.345C414.241 357.665 414.401 357.825 414.561 357.985C414.721 358.145 414.881 358.305 415.201 358.305C415.521 358.305 415.681 358.145 415.841 357.985C416.001 357.825 416.161 357.665 416.161 357.345V355.905H417.761V357.345C417.761 357.985 417.441 358.625 416.961 359.105C416.481 359.584 415.841 359.904 415.201 359.904Z" fill="white"/>
<path d="M419.043 359.745V349.347H423.523V350.947H420.643V353.826H422.723V355.426H420.643V358.305H423.523V359.905H419.043V359.745Z" fill="white"/>
<path d="M428.8 359.745H424.48V349.347H426.08V358.145H428.8V359.745Z" fill="white"/>
<g opacity="0.3">
<path d="M468.16 457.319H353.76C352.64 457.319 351.68 456.359 351.68 455.239C351.68 454.12 352.64 453.16 353.76 453.16H468.16C469.28 453.16 470.24 454.12 470.24 455.239C470.24 456.519 469.28 457.319 468.16 457.319Z" fill="white"/>
<path d="M482.721 469.475H339.201C338.081 469.475 337.121 468.515 337.121 467.396C337.121 466.276 338.081 465.316 339.201 465.316H482.721C483.841 465.316 484.801 466.276 484.801 467.396C484.801 468.675 483.841 469.475 482.721 469.475Z" fill="white"/>
<path d="M453.602 481.631H368.322C367.202 481.631 366.242 480.672 366.242 479.552C366.242 478.432 367.202 477.472 368.322 477.472H453.602C454.722 477.472 455.682 478.432 455.682 479.552C455.682 480.831 454.722 481.631 453.602 481.631Z" fill="white"/>
<path d="M482.721 505.948H339.201C338.081 505.948 337.121 504.988 337.121 503.868C337.121 502.749 338.081 501.789 339.201 501.789H482.721C483.841 501.789 484.801 502.749 484.801 503.868C484.801 504.988 483.841 505.948 482.721 505.948Z" fill="white"/>
</g>
<g opacity="0.1">
<path d="M399.521 69.2628L334.081 314.317L333.281 317.036L332.161 321.515L331.361 324.234L297.121 452.2V297.521L361.121 57.7459H363.201C364.961 57.7459 366.401 58.8656 367.201 60.4651L369.761 66.7035C370.401 68.303 372.001 69.4227 373.761 69.4227H399.521V69.2628Z" fill="white"/>
<path d="M524.643 194.508V349.346L483.843 502.265L482.883 505.944L476.163 531.217H434.723L441.443 505.944L442.563 501.945L448.003 481.63L449.123 477.632L451.203 469.474L452.323 465.475L454.403 457.317L455.523 453.318L489.603 325.832L491.203 319.914L524.643 194.508Z" fill="white"/>
<path d="M421.921 69.2615L356.801 312.876L356.481 314.316L352.961 327.592L352.641 329.032L299.041 529.458C297.921 528.338 297.281 526.739 297.281 524.979V501.465L343.361 329.192L343.681 327.752L347.201 314.476L347.521 313.036L412.641 69.4214H421.921V69.2615Z" fill="white"/>
</g>
<path d="M644.8 482.91C642.24 478.752 638.08 482.431 638.08 482.431C638.72 474.273 631.2 468.834 631.2 468.834C631.2 468.834 639.84 468.834 641.12 460.517C642.4 452.199 638.08 456.038 634.08 456.038C630.08 456.038 625.92 467.555 631.2 474.113C636.48 480.671 635.04 491.708 623.04 502.425C620.16 504.985 618.08 508.504 616.8 512.183C617.76 502.425 618.24 488.509 615.36 479.391C610.4 463.716 619.84 459.557 622.56 451.719C625.28 443.881 615.36 437.323 615.36 437.323C615.36 437.323 624.64 433.164 620.16 428.365C615.68 423.566 606.24 424.206 606.24 430.445C606.24 436.683 612.64 439.082 612.64 439.082C612.64 439.082 619.84 446.6 619.84 450.599C619.84 454.438 612.64 462.916 612.64 462.916C612.64 462.916 616 455.718 609.28 455.398C602.72 455.078 600.48 463.876 603.2 467.715C605.92 471.554 610.4 468.354 610.4 468.354C610.4 468.354 610.88 476.832 612.48 481.951C613.12 484.19 612.8 492.988 612.32 502.265C611.04 498.906 609.12 495.867 606.4 493.628C594.4 482.911 592.96 471.873 598.24 465.315C603.52 458.757 599.36 447.24 595.36 447.24C591.36 447.24 587.2 443.401 588.32 451.719C589.6 460.037 598.24 460.037 598.24 460.037C598.24 460.037 590.88 465.635 591.36 473.633C591.36 473.633 587.2 469.954 584.64 474.113C580 481.631 590.72 486.27 592.48 482.591C592.48 482.591 614.88 498.426 609.6 521.46L610.88 523.38C610.72 525.299 610.56 526.419 610.56 526.419L612.32 525.619L614.24 528.498C614.08 534.257 614.72 538.416 614.72 538.416L620.16 530.418C614.72 507.544 637.28 491.548 637.28 491.548C638.72 495.067 649.44 490.428 644.8 482.91Z" fill="#407BFF"/>
<path opacity="0.2" d="M644.8 482.91C642.24 478.752 638.08 482.431 638.08 482.431C638.72 474.273 631.2 468.834 631.2 468.834C631.2 468.834 639.84 468.834 641.12 460.517C642.4 452.199 638.08 456.038 634.08 456.038C630.08 456.038 625.92 467.555 631.2 474.113C636.48 480.671 635.04 491.708 623.04 502.425C620.16 504.985 618.08 508.504 616.8 512.183C617.76 502.425 618.24 488.509 615.36 479.391C610.4 463.716 619.84 459.557 622.56 451.719C625.28 443.881 615.36 437.323 615.36 437.323C615.36 437.323 624.64 433.164 620.16 428.365C615.68 423.566 606.24 424.206 606.24 430.445C606.24 436.683 612.64 439.082 612.64 439.082C612.64 439.082 619.84 446.6 619.84 450.599C619.84 454.438 612.64 462.916 612.64 462.916C612.64 462.916 616 455.718 609.28 455.398C602.72 455.078 600.48 463.876 603.2 467.715C605.92 471.554 610.4 468.354 610.4 468.354C610.4 468.354 610.88 476.832 612.48 481.951C613.12 484.19 612.8 492.988 612.32 502.265C611.04 498.906 609.12 495.867 606.4 493.628C594.4 482.911 592.96 471.873 598.24 465.315C603.52 458.757 599.36 447.24 595.36 447.24C591.36 447.24 587.2 443.401 588.32 451.719C589.6 460.037 598.24 460.037 598.24 460.037C598.24 460.037 590.88 465.635 591.36 473.633C591.36 473.633 587.2 469.954 584.64 474.113C580 481.631 590.72 486.27 592.48 482.591C592.48 482.591 614.88 498.426 609.6 521.46L610.88 523.38C610.72 525.299 610.56 526.419 610.56 526.419L612.32 525.619L614.24 528.498C614.08 534.257 614.72 538.416 614.72 538.416L620.16 530.418C614.72 507.544 637.28 491.548 637.28 491.548C638.72 495.067 649.44 490.428 644.8 482.91Z" fill="#407BFF"/>
<g opacity="0.3">
<path d="M644.8 482.91C642.24 478.752 638.08 482.431 638.08 482.431C638.72 474.273 631.2 468.834 631.2 468.834C631.2 468.834 639.84 468.834 641.12 460.517C642.4 452.199 638.08 456.038 634.08 456.038C630.08 456.038 625.92 467.555 631.2 474.113C636.48 480.671 635.04 491.708 623.04 502.425C620.16 504.985 618.08 508.504 616.8 512.183C617.76 502.425 618.24 488.509 615.36 479.391C610.4 463.716 619.84 459.557 622.56 451.719C625.28 443.881 615.36 437.323 615.36 437.323C615.36 437.323 624.64 433.164 620.16 428.365C615.68 423.566 606.24 424.206 606.24 430.445C606.24 436.683 612.64 439.082 612.64 439.082C612.64 439.082 619.84 446.6 619.84 450.599C619.84 454.438 612.64 462.916 612.64 462.916C612.64 462.916 616 455.718 609.28 455.398C602.72 455.078 600.48 463.876 603.2 467.715C605.92 471.554 610.4 468.354 610.4 468.354C610.4 468.354 610.88 476.832 612.48 481.951C613.12 484.19 612.8 492.988 612.32 502.265C611.04 498.906 609.12 495.867 606.4 493.628C594.4 482.911 592.96 471.873 598.24 465.315C603.52 458.757 599.36 447.24 595.36 447.24C591.36 447.24 587.2 443.401 588.32 451.719C589.6 460.037 598.24 460.037 598.24 460.037C598.24 460.037 590.88 465.635 591.36 473.633C591.36 473.633 587.2 469.954 584.64 474.113C580 481.631 590.72 486.27 592.48 482.591C592.48 482.591 614.88 498.426 609.6 521.46L610.88 523.38C610.72 525.299 610.56 526.419 610.56 526.419L612.32 525.619L614.24 528.498C614.08 534.257 614.72 538.416 614.72 538.416L620.16 530.418C614.72 507.544 637.28 491.548 637.28 491.548C638.72 495.067 649.44 490.428 644.8 482.91Z" fill="black"/>
<path opacity="0.2" d="M644.8 482.91C642.24 478.752 638.08 482.431 638.08 482.431C638.72 474.273 631.2 468.834 631.2 468.834C631.2 468.834 639.84 468.834 641.12 460.517C642.4 452.199 638.08 456.038 634.08 456.038C630.08 456.038 625.92 467.555 631.2 474.113C636.48 480.671 635.04 491.708 623.04 502.425C620.16 504.985 618.08 508.504 616.8 512.183C617.76 502.425 618.24 488.509 615.36 479.391C610.4 463.716 619.84 459.557 622.56 451.719C625.28 443.881 615.36 437.323 615.36 437.323C615.36 437.323 624.64 433.164 620.16 428.365C615.68 423.566 606.24 424.206 606.24 430.445C606.24 436.683 612.64 439.082 612.64 439.082C612.64 439.082 619.84 446.6 619.84 450.599C619.84 454.438 612.64 462.916 612.64 462.916C612.64 462.916 616 455.718 609.28 455.398C602.72 455.078 600.48 463.876 603.2 467.715C605.92 471.554 610.4 468.354 610.4 468.354C610.4 468.354 610.88 476.832 612.48 481.951C613.12 484.19 612.8 492.988 612.32 502.265C611.04 498.906 609.12 495.867 606.4 493.628C594.4 482.911 592.96 471.873 598.24 465.315C603.52 458.757 599.36 447.24 595.36 447.24C591.36 447.24 587.2 443.401 588.32 451.719C589.6 460.037 598.24 460.037 598.24 460.037C598.24 460.037 590.88 465.635 591.36 473.633C591.36 473.633 587.2 469.954 584.64 474.113C580 481.631 590.72 486.27 592.48 482.591C592.48 482.591 614.88 498.426 609.6 521.46L610.88 523.38C610.72 525.299 610.56 526.419 610.56 526.419L612.32 525.619L614.24 528.498C614.08 534.257 614.72 538.416 614.72 538.416L620.16 530.418C614.72 507.544 637.28 491.548 637.28 491.548C638.72 495.067 649.44 490.428 644.8 482.91Z" fill="black"/>
</g>
<path d="M640.479 580.485H588.959L583.359 524.18H645.919L640.479 580.485Z" fill="#407BFF"/>
<path opacity="0.3" d="M640.479 580.485H588.959L583.359 524.18H645.919L640.479 580.485Z" fill="white"/>
<path d="M648.641 517.941H580.641V530.418H648.641V517.941Z" fill="#407BFF"/>
<path opacity="0.5" d="M648.641 517.941H580.641V530.418H648.641V517.941Z" fill="white"/>
<path d="M252.641 199.785C258.721 200.105 284.161 234.176 284.161 234.176L293.601 221.859C293.601 221.859 308.161 250.172 300.961 263.608C293.761 277.044 255.841 240.254 255.841 240.254L252.641 199.785Z" fill="#EDDAD3"/>
<path opacity="0.6" d="M252.641 199.785L255.201 226.978L255.841 240.254C255.841 240.254 262.081 246.333 269.921 252.571C281.441 261.848 296.641 271.606 300.961 263.608C308.161 250.172 293.601 221.859 293.601 221.859L284.161 234.176V234.016C282.561 232.096 258.561 200.105 252.641 199.785Z" fill="white"/>
<path opacity="0.2" d="M255.203 226.979L255.843 240.256C255.843 240.256 262.083 246.334 269.923 252.572C270.723 236.577 255.843 213.383 255.843 213.383L255.203 226.979Z" fill="black"/>
<path opacity="0.2" d="M284.162 234.174L282.882 236.733L286.882 252.089C286.882 252.089 276.002 242.171 282.882 232.414L284.162 234.174Z" fill="black"/>
<path d="M253.763 285.039L202.562 289.038C202.562 289.038 201.922 258.486 197.762 242.491C196.483 237.372 194.723 231.614 192.643 224.895C191.683 222.016 190.723 218.977 189.763 215.778C188.803 212.739 187.683 209.54 186.562 206.34C193.603 204.101 200.643 202.341 208.003 201.222C215.683 199.942 223.363 198.982 231.203 198.822C241.283 198.662 252.803 199.942 252.803 199.942C252.803 199.942 254.402 200.262 255.522 210.979C256.162 220.737 255.843 248.729 253.763 285.039Z" fill="#EDDAD3"/>
<path opacity="0.6" d="M253.763 285.041L202.563 289.04C202.563 289.04 202.563 288.4 202.563 287.28C202.403 280.562 201.283 256.249 197.923 242.492C196.963 238.813 195.843 234.814 194.563 230.336C194.083 228.576 193.443 226.657 192.803 224.737C191.843 221.858 190.883 218.819 189.923 215.62C188.963 212.58 187.843 209.381 186.723 206.182C193.763 203.943 200.803 202.183 208.163 201.063C215.843 199.624 223.523 198.824 231.363 198.664C241.443 198.664 252.963 199.784 252.963 199.784C252.963 199.784 254.563 200.104 255.683 210.821C256.163 220.738 255.843 248.731 253.763 285.041Z" fill="white"/>
<path d="M189.441 544.012L197.121 548.491C197.121 548.491 200.801 543.212 208.801 534.575C211.041 532.175 213.441 529.616 215.841 526.737C220.801 521.138 226.081 514.74 231.521 507.862C233.121 505.782 234.881 503.703 236.481 501.624C255.841 477.31 276.801 448.678 284.481 429.323C286.881 423.245 288.161 418.126 287.521 414.447C285.921 402.93 281.441 385.495 276.321 368.699C268.481 342.946 259.681 318.633 259.681 318.633L238.401 355.423C238.401 355.423 244.961 371.259 251.041 388.054C256.961 404.53 262.401 422.125 260.321 426.604C260.161 427.084 259.841 427.563 259.681 428.203C256.161 435.561 246.241 452.357 234.881 471.072C233.761 472.991 232.641 474.911 231.521 476.67C225.441 486.588 219.201 496.825 213.281 506.102C211.041 509.781 208.801 513.3 206.721 516.659C196.801 532.495 189.441 544.012 189.441 544.012Z" fill="#FFBF9D"/>
<path opacity="0.2" d="M237.123 501.782C226.883 514.578 217.123 526.255 209.763 534.733C208.643 529.454 207.683 523.376 206.883 516.658C215.363 503.062 225.603 486.426 235.043 470.91C234.883 479.068 235.203 491.225 237.123 501.782Z" fill="black"/>
<path d="M198.562 396.052C201.282 414.287 205.122 430.763 207.522 440.68C208.962 446.599 210.082 450.118 210.082 450.118C209.922 468.513 211.362 488.187 213.442 506.103C214.242 513.461 215.202 520.499 216.002 527.057C219.362 551.21 222.882 568.646 222.882 568.646L232.162 567.366L231.842 508.022L231.682 476.511L231.362 433.642L231.202 426.124L230.722 393.653L230.082 345.666L198.082 331.27C193.762 349.665 195.362 373.978 198.562 396.052Z" fill="#FFBF9D"/>
<path opacity="0.2" d="M276.802 369.5L248.962 382.136C243.682 367.74 238.402 355.423 238.402 355.423L260.002 318.953C260.002 318.953 268.802 343.267 276.642 369.02C276.642 369.02 276.802 369.18 276.802 369.5Z" fill="black"/>
<path opacity="0.2" d="M230.563 386.615L197.603 388.694C195.043 368.699 194.243 347.585 198.083 331.27L230.083 345.666L230.563 386.615Z" fill="black"/>
<path d="M190.081 539.052C191.041 538.413 199.041 550.249 199.041 550.249C199.041 550.249 197.281 562.726 200.801 570.724C204.321 578.722 197.441 578.082 191.681 570.404C185.921 562.726 181.441 556.968 177.281 551.529C173.121 546.25 180.321 546.09 190.081 539.052Z" fill="#263238"/>
<path d="M201.763 559.208C200.002 558.728 198.723 553.609 198.562 552.649V552.489C198.562 552.489 198.562 552.489 198.562 552.329C198.562 552.329 198.562 552.329 198.562 552.17H198.722C198.882 552.17 202.243 551.05 204.003 552.17C204.643 552.489 204.962 552.969 205.122 553.609C205.282 554.249 205.123 554.889 204.803 555.049C204.163 555.529 202.883 555.049 201.763 554.569C202.562 555.529 203.363 556.488 203.363 557.288C203.363 557.768 203.363 558.088 203.043 558.408C202.563 558.888 202.242 559.048 201.922 559.048C201.922 559.368 201.763 559.368 201.763 559.208ZM201.922 558.568C201.922 558.568 202.243 558.568 202.562 558.248C202.722 558.088 202.722 557.928 202.722 557.608C202.562 556.488 200.802 554.729 199.522 553.609C200.162 555.849 201.122 558.408 201.922 558.568ZM199.843 552.809C201.763 553.929 203.843 554.889 204.483 554.569C204.643 554.409 204.643 554.089 204.483 553.929C204.323 553.449 204.163 553.129 203.683 552.969C203.203 552.649 202.562 552.649 201.922 552.649C201.282 552.489 200.483 552.649 199.843 552.809Z" fill="#407BFF"/>
<path d="M219.52 562.565C219.52 561.446 233.92 562.245 233.92 562.245C233.92 562.245 242.72 571.203 251.36 573.283C259.84 575.362 255.2 580.481 245.6 580.481C236 580.481 228.8 580.481 221.92 580.481C215.04 580.481 219.36 574.722 219.52 562.565Z" fill="#263238"/>
<path d="M235.523 564.167C235.363 564.007 235.363 564.007 235.363 564.007C235.363 564.007 235.363 564.007 235.363 563.847V563.687C235.363 563.527 236.643 560.168 238.563 559.368C239.203 559.048 239.843 559.208 240.483 559.368C241.123 559.688 241.443 560.008 241.443 560.648C241.443 561.448 240.323 562.088 239.203 562.727C240.483 562.567 241.603 562.567 242.403 563.047C242.883 563.207 243.043 563.527 243.203 564.007C243.363 564.807 243.203 565.287 242.883 565.607C242.563 565.927 242.083 565.926 241.603 565.926C239.523 566.086 236.323 564.647 235.523 564.167ZM236.803 564.007C238.883 564.967 241.603 565.767 242.243 565.127C242.243 565.127 242.403 564.967 242.403 564.327C242.403 564.167 242.243 564.007 241.923 563.847C241.603 563.687 240.963 563.527 240.163 563.527C239.203 563.527 237.763 563.687 236.803 564.007ZM238.883 560.168C237.763 560.648 236.803 562.248 236.483 563.207C238.563 562.407 240.643 561.288 240.643 560.648C240.643 560.488 240.323 560.328 240.163 560.168C240.003 560.008 239.683 560.008 239.523 560.008C239.203 560.008 239.043 560.008 238.883 560.168Z" fill="#407BFF"/>
<path d="M226.722 210.18C213.922 208.581 210.242 203.142 210.242 203.142C215.362 198.183 214.562 190.985 213.122 186.507C212.482 183.947 211.522 182.348 211.522 182.348L226.882 185.227C226.562 187.786 226.242 189.866 226.242 191.625C226.242 193.545 226.402 195.144 226.722 196.424C227.842 201.063 230.402 201.063 230.402 201.063C233.122 206.021 226.722 210.18 226.722 210.18Z" fill="#FFBF9D"/>
<path opacity="0.2" d="M226.4 191.625C226.4 193.545 226.56 195.144 226.88 196.424C220.8 195.624 216.16 190.825 213.28 186.507C212.64 183.947 211.68 182.348 211.68 182.348L227.04 185.227C226.56 187.626 226.4 189.706 226.4 191.625Z" fill="black"/>
<path d="M213.122 133.883C191.522 135.642 178.722 191.947 209.282 186.509C218.242 184.909 255.682 156.277 241.442 145.4C227.202 134.522 213.122 133.883 213.122 133.883Z" fill="#263238"/>
<path d="M228.963 144.439C242.083 146.359 245.443 154.037 244.323 167.793C243.043 184.909 237.603 196.425 221.603 190.507C200.003 182.189 207.043 141.24 228.963 144.439Z" fill="#FFBF9D"/>
<path d="M236.003 165.715C236.003 165.715 237.283 169.394 239.043 171.793C239.043 171.793 237.603 173.393 235.363 172.753L236.003 165.715Z" fill="#D4827D"/>
<path d="M228.161 163.475C228.001 164.595 227.361 165.394 226.561 165.234C225.761 165.074 225.281 164.275 225.441 163.155C225.601 162.035 226.241 161.235 227.041 161.395C227.681 161.555 228.161 162.515 228.161 163.475Z" fill="#263238"/>
<path d="M226.723 161.394L229.123 160.754C229.123 160.754 227.683 162.673 226.723 161.394Z" fill="#263238"/>
<path d="M241.602 164.916C241.442 166.036 240.802 166.836 240.002 166.676C239.202 166.516 238.722 165.716 238.882 164.596C239.042 163.477 239.682 162.677 240.482 162.837C241.282 162.837 241.762 163.797 241.602 164.916Z" fill="#263238"/>
<path d="M240.164 162.835L242.564 162.195C242.724 162.195 241.284 164.115 240.164 162.835Z" fill="#263238"/>
<path d="M229.283 154.358C229.283 154.358 225.603 153.398 223.203 155.478" stroke="#263238" stroke-width="0.708" stroke-miterlimit="10" stroke-linecap="round" stroke-linejoin="round"/>
<path d="M238.883 155.317C238.883 155.317 241.283 154.837 244.003 157.236" stroke="#263238" stroke-width="0.708" stroke-miterlimit="10" stroke-linecap="round" stroke-linejoin="round"/>
<path d="M211.363 164.595C211.363 164.595 219.043 154.678 219.363 146.2C219.363 146.2 247.043 139.322 244.483 166.035C244.483 166.035 250.403 142.841 227.843 139.002C205.283 135.163 200.483 168.434 210.883 179.951C210.883 179.951 206.563 170.833 211.363 164.595Z" fill="#263238"/>
<path d="M213.122 167.631C213.282 165.552 211.682 161.553 207.682 161.393C203.522 161.233 200.322 169.391 210.242 172.91C211.682 173.39 212.642 172.11 213.122 167.631Z" fill="#FFBF9D"/>
<path d="M232.481 179.631C232.481 179.631 226.721 180.111 225.121 174.832" stroke="#263238" stroke-width="0.708" stroke-miterlimit="10" stroke-linecap="round" stroke-linejoin="round"/>
<path d="M213.121 133.882C213.121 133.882 232.481 131.323 244.481 143C256.641 154.677 220.961 152.757 220.961 152.757L229.921 148.598C229.921 148.598 218.721 151.797 213.761 150.198L213.121 133.882Z" fill="#263238"/>
<path d="M198.721 168.113C198.721 168.113 192.801 178.351 198.721 187.308C198.721 187.308 194.081 196.906 203.681 203.784C203.681 203.784 201.921 209.222 210.241 215.621C210.241 215.621 212.801 224.098 210.721 230.177L216.801 227.137C216.801 227.137 216.801 219.619 213.121 215.141C213.121 215.141 215.041 203.144 210.241 199.145C210.241 199.145 212.481 191.627 211.521 188.268C211.521 188.268 209.121 174.032 208.801 172.432C208.801 172.432 200.641 171.312 198.721 168.113Z" fill="#263238"/>
<path d="M242.721 142.199C242.721 142.199 248.801 145.558 247.841 149.877C246.881 154.196 232.641 155.156 232.641 155.156" stroke="#263238" stroke-width="0.4885" stroke-miterlimit="10" stroke-linecap="round" stroke-linejoin="round"/>
<path d="M261.923 222.337C261.763 223.137 262.403 223.777 263.203 223.777H277.763C278.563 223.777 279.363 223.137 279.363 222.337L282.563 193.545C282.723 192.745 282.083 191.945 281.283 191.945H266.723C265.923 191.945 265.123 192.745 265.123 193.545L261.923 222.337Z" fill="#263238"/>
<path opacity="0.5" d="M266.723 193.225L263.363 222.337C263.203 223.137 263.683 223.777 264.483 223.777H276.963C277.763 223.777 279.363 223.297 279.363 222.497L282.723 193.225C282.883 192.425 281.443 191.785 280.643 191.785H268.163C267.363 191.785 266.883 192.425 266.723 193.225Z" fill="white"/>
<path opacity="0.6" d="M233.441 291.598C233.441 293.038 234.561 294.158 236.001 294.158C237.441 294.158 238.561 293.038 238.561 291.598C238.561 290.159 237.441 289.039 236.001 289.039C234.721 289.039 233.441 290.159 233.441 291.598Z" fill="white"/>
<path d="M292.482 224.737L284.802 211.78C284.802 211.78 284.802 205.062 284.162 203.463C283.522 201.863 276.002 198.184 274.562 198.824C273.122 199.304 272.642 212.74 273.922 214.5C275.202 216.259 280.002 218.339 280.002 218.339L279.682 220.898L284.162 234.334L292.482 224.737Z" fill="#FFBF9D"/>
<path d="M295.521 223.298L293.121 220.738L281.121 234.175L282.721 239.453L295.521 223.298Z" fill="#407BFF"/>
<path d="M280.642 365.022L241.282 378.938L240.002 375.419L238.402 370.94L237.762 377.338L237.282 382.297H189.602C189.602 382.297 189.442 380.857 189.282 378.458C188.802 370.78 188.162 352.545 191.202 331.431C192.962 318.794 196.162 305.038 201.282 292.081C201.602 291.122 202.082 290.162 202.562 289.202L253.762 285.203L254.242 287.602L257.442 305.998L263.522 321.513L278.562 359.743L280.642 365.022Z" fill="#005DA4"/>
<path opacity="0.2" d="M234.722 244.732C234.722 244.732 220.642 276.883 202.402 287.28C202.242 280.562 201.122 256.248 197.762 242.492C196.802 238.813 195.682 234.814 194.402 230.335L200.002 223.617C200.002 223.617 203.842 235.454 202.082 245.851L223.362 232.895L234.722 244.732Z" fill="black"/>
<path d="M221.121 237.375L238.401 223.779C238.401 223.779 240.961 216.421 242.081 215.141C243.201 213.862 258.401 208.263 259.521 208.103C260.641 207.943 259.521 220.58 257.601 222.659C255.681 224.739 243.521 229.057 243.521 229.057L225.441 246.173L221.121 237.375Z" fill="#FFBF9D"/>
<path d="M186.401 206.344C176.161 211.462 171.681 268.887 189.441 278.804C207.041 288.722 233.441 243.934 233.441 243.934L223.201 233.057C223.201 233.057 201.761 251.132 199.041 249.372C196.481 247.773 199.361 230.177 199.361 230.177C199.361 230.177 202.401 224.899 196.001 216.421C189.761 208.103 186.401 206.344 186.401 206.344Z" fill="#EDDAD3"/>
<path opacity="0.6" d="M186.401 206.344C176.161 211.462 171.681 268.887 189.441 278.804C207.041 288.722 233.441 243.934 233.441 243.934L223.201 233.057C223.201 233.057 201.761 251.132 199.041 249.372C196.481 247.773 199.361 230.177 199.361 230.177C199.361 230.177 202.401 224.899 196.001 216.421C189.761 208.103 186.401 206.344 186.401 206.344Z" fill="white"/>
<path d="M233.761 247.93L236.801 246.01L225.281 229.215L220.961 231.454L233.761 247.93Z" fill="#407BFF"/>
<path opacity="0.2" d="M213.763 293.678C213.763 293.678 208.003 325.669 191.203 331.267C192.963 318.631 196.163 304.874 201.283 291.918L213.763 293.678Z" fill="black"/>
<path opacity="0.2" d="M263.523 321.352C250.083 314.794 250.403 289.041 250.403 289.041L254.243 287.602L257.443 305.997L263.523 321.352Z" fill="black"/>
<path opacity="0.2" d="M237.761 377.336L237.281 382.295H189.601C189.601 382.295 189.441 380.855 189.281 378.456L237.761 377.336Z" fill="black"/>
<path opacity="0.2" d="M280.64 365.021L241.44 378.937L240 375.258L278.56 359.582L280.64 365.021Z" fill="black"/>
<path opacity="0.2" d="M238.402 370.938L239.362 357.821L250.242 336.547C250.242 336.547 253.602 348.704 248.322 359.741C242.882 370.618 238.402 370.938 238.402 370.938Z" fill="black"/>
<path opacity="0.5" d="M202.56 289.042L200.32 294.48L254.88 291.601L253.76 285.043L202.56 289.042Z" fill="black"/>
<path d="M231.363 287.123L232.003 293.041C232.003 293.681 232.643 294.161 233.283 294.161L241.283 293.521C241.923 293.521 242.403 292.881 242.403 292.241L241.763 286.323C241.763 285.683 241.123 285.203 240.483 285.203L232.483 285.683C231.683 285.843 231.203 286.483 231.363 287.123Z" fill="#407BFF"/>
<path d="M217.923 287.762L217.283 294.8H215.363L215.683 287.762H217.923Z" fill="#263238"/>
<path d="M246.562 285.683L247.362 293.041H249.282L248.642 285.363L246.562 285.683Z" fill="#263238"/>
<path d="M353.775 261.32H348.911V238.92H353.775V261.32ZM373.068 255.016V238.92H377.932V261.32H370.924L361.1 245.256H360.556V261.32H355.692V238.92H362.252V238.952H362.7L372.492 255.016H373.068ZM390.22 247.752C395.244 248.584 400.972 249.32 400.972 254.376C400.972 259.944 397.26 261.32 390.7 261.32C379.66 261.32 379.692 255.208 379.692 253.064C380.684 253.064 381.932 253.064 384.684 253.064C384.684 256.424 387.66 256.968 390.572 256.968C394.252 256.968 395.788 256.104 395.788 254.376C395.788 252.872 394.252 252.584 389.868 251.944C383.148 250.952 380.14 249.576 380.14 245.48C380.14 242.312 382.476 238.664 389.804 238.664C398.508 238.664 400.236 243.528 400.236 246.92C400.236 246.92 396.844 246.92 395.116 246.92C395.116 245.384 394.444 243.08 389.804 243.08C386.028 243.08 385.164 244.424 385.164 245.512C385.164 246.696 386.476 247.144 390.22 247.752ZM401.036 243.368V238.92H422.828V243.368H414.348V261.32H409.484V243.368H401.036ZM434.29 238.952L442.29 261.32H437.234L435.922 257.64H424.498L423.154 261.32H418.13L426.13 238.952H434.29ZM426.066 253.192H434.322L430.834 243.368H429.586L426.066 253.192ZM448.306 238.92V256.936H461.842V261.32H443.442V238.92H448.306ZM468.494 238.92V256.936H482.03V261.32H463.63V238.92H468.494Z" fill="white"/>
</g>
<defs>
<clipPath id="clip0_609_17265">
<rect width="800" height="596" fill="white"/>
</clipPath>
</defs>
</svg>
