<svg width="383" height="426" viewBox="0 0 383 426" fill="none" xmlns="http://www.w3.org/2000/svg">
<g clip-path="url(#clip0_609_18441)">
<path d="M127.802 384.6L110.402 401.1C110.402 401.1 127.602 420.7 125.402 424.7L83.6016 400.6L109.502 371.5L127.802 384.6Z" fill="#455A64"/>
<g opacity="0.6">
<path d="M98.9013 391.401C98.0013 391.101 96.9013 391.701 96.5013 392.601C96.2013 393.501 96.7013 394.601 97.6013 394.901C98.5013 395.201 99.9013 394.601 100.101 393.601C100.301 392.701 99.6013 391.401 98.6013 391.301" fill="white"/>
</g>
<g opacity="0.6">
<path d="M83.5 400.602L86.1 397.602L125.1 422.002C125.1 422.002 126.1 423.402 125.3 425.202L83.5 400.602Z" fill="white"/>
</g>
<path d="M111.2 401.302C111.1 401.502 110 401.002 108.6 401.002C107.2 401.002 106.2 401.502 106 401.302C105.8 401.102 106.9 400.102 108.6 400.102C110.3 400.202 111.4 401.202 111.2 401.302Z" fill="#263238"/>
<path d="M114.399 405.799C114.299 405.999 113.199 405.799 111.999 406.199C110.799 406.599 109.999 407.399 109.799 407.299C109.599 407.199 110.199 405.999 111.699 405.499C113.299 404.999 114.499 405.599 114.399 405.799Z" fill="#263238"/>
<path d="M113.6 412.501C113.4 412.401 113.7 411.301 114.9 410.501C116.1 409.701 117.3 409.901 117.3 410.101C117.3 410.301 116.3 410.501 115.4 411.201C114.4 411.801 113.8 412.601 113.6 412.501Z" fill="#263238"/>
<path d="M113.9 396.302C113.7 396.402 113 395.602 111.8 394.902C110.6 394.202 109.5 394.102 109.5 393.802C109.5 393.602 110.8 393.402 112.2 394.102C113.5 395.002 114.1 396.202 113.9 396.302Z" fill="#263238"/>
<path d="M116.598 392.098C116.598 392.198 115.698 391.798 114.598 390.798C113.998 390.298 113.398 389.598 112.898 388.798C112.598 388.398 112.398 387.898 112.098 387.398C111.998 387.198 111.798 386.898 111.798 386.498C111.698 386.198 111.898 385.498 112.398 385.398C112.798 385.198 113.298 385.298 113.598 385.498C113.898 385.698 114.098 385.898 114.298 386.098C114.698 386.498 114.998 386.898 115.298 387.298C115.898 388.098 116.198 388.998 116.398 389.698C116.798 391.198 116.698 392.098 116.598 392.098C116.498 392.098 116.398 391.198 115.898 389.898C115.598 389.198 115.298 388.498 114.698 387.698C114.398 387.298 114.098 386.998 113.798 386.598C113.398 386.198 113.098 385.998 112.798 386.098C112.698 386.098 112.698 386.198 112.698 386.398C112.698 386.598 112.798 386.798 112.898 386.998C113.098 387.498 113.298 387.898 113.598 388.298C114.098 389.098 114.598 389.798 115.098 390.298C115.998 391.398 116.698 391.998 116.598 392.098Z" fill="#263238"/>
<path d="M116.201 392.201C116.101 392.201 116.201 391.201 116.901 389.901C117.301 389.201 117.801 388.501 118.601 387.801C119.001 387.501 119.401 387.201 119.901 386.901C120.401 386.601 121.001 386.301 121.901 386.701C122.301 386.901 122.501 387.501 122.401 387.801C122.401 388.201 122.201 388.401 122.101 388.701C121.901 389.201 121.601 389.701 121.201 390.101C120.501 390.901 119.701 391.401 119.001 391.701C117.501 392.301 116.601 392.001 116.601 391.901C116.601 391.801 117.501 391.801 118.801 391.201C119.401 390.901 120.101 390.401 120.701 389.701C121.001 389.301 121.201 388.901 121.401 388.501C121.601 388.001 121.701 387.601 121.501 387.501C121.301 387.401 120.701 387.501 120.401 387.701C120.001 387.901 119.601 388.201 119.201 388.501C118.501 389.101 117.901 389.701 117.501 390.301C116.601 391.401 116.301 392.201 116.201 392.201Z" fill="#263238"/>
<path d="M258.6 386.098L262.7 408.498C262.7 408.498 287.5 416.598 287.6 421.198L240.5 421.798L237 386.198H258.6V386.098Z" fill="#455A64"/>
<g opacity="0.6">
<path d="M244.501 407.697C243.601 407.897 242.901 408.997 243.101 409.897C243.301 410.797 244.301 411.497 245.301 411.297C246.201 411.097 247.101 409.897 246.801 408.897C246.501 407.997 245.201 407.197 244.401 407.697" fill="white"/>
</g>
<g opacity="0.6">
<path d="M240.598 421.697L239.898 418.297L286.198 418.897C286.198 418.897 287.798 419.597 287.998 421.497L240.598 421.697Z" fill="white"/>
</g>
<path d="M263.601 408.198C263.601 408.398 262.401 408.498 261.201 409.198C260.001 409.898 259.401 410.898 259.201 410.798C259.001 410.698 259.401 409.298 260.801 408.498C262.201 407.698 263.601 407.998 263.601 408.198Z" fill="#263238"/>
<path d="M268.602 410.398C268.602 410.598 267.602 410.998 266.802 411.998C265.902 412.998 265.702 413.998 265.502 413.998C265.302 413.998 265.202 412.598 266.202 411.498C267.202 410.298 268.602 410.198 268.602 410.398Z" fill="#263238"/>
<path d="M271.301 416.597C271.101 416.597 270.801 415.497 271.401 414.197C272.001 412.897 273.201 412.397 273.201 412.597C273.301 412.797 272.601 413.497 272.101 414.497C271.601 415.497 271.501 416.497 271.301 416.597Z" fill="#263238"/>
<path d="M261.601 402.996C261.501 403.196 260.401 402.896 259.101 402.896C257.801 402.896 256.701 403.296 256.601 403.096C256.501 402.896 257.501 402.096 259.101 401.996C260.601 401.996 261.701 402.796 261.601 402.996Z" fill="#263238"/>
<path d="M149.902 223.5C149.102 224 147.302 250.9 149.902 256.7L143.402 305C143.402 305 125.902 332.8 122.402 336.8C118.902 340.8 96.1016 380.2 96.1016 380.2L121.902 402.4C121.902 402.4 166.702 343.9 173.902 333.5C185.202 317.2 198.502 256.1 198.502 256.1L200.202 225.8L149.902 223.5Z" fill="#005DA4"/>
<path d="M185.102 262.2C185.902 263.6 220.702 317.2 220.702 317.2C220.702 317.2 226.002 345.6 227.202 358.1C228.402 370.6 236.902 402.8 236.902 402.8L265.002 400.6C265.002 400.6 257.402 317.7 252.702 301.5C248.002 285.3 235.002 254.1 235.002 254.1L224.002 225L192.302 225.6L185.102 262.2Z" fill="#005DA4"/>
<path d="M204.9 233.801C204.9 233.801 204.9 234.101 204.7 234.701C204.6 235.301 204.4 236.101 204.1 237.201C203.5 239.401 202.8 242.401 201.8 246.201C199.8 253.801 197.1 264.301 194 275.901C190.8 287.501 187.8 297.901 185.4 305.401C184.2 309.101 183.3 312.201 182.6 314.301C182.3 315.301 182 316.101 181.8 316.701C181.6 317.201 181.5 317.501 181.5 317.501C181.5 317.501 181.6 317.201 181.7 316.601C181.9 316.001 182.1 315.201 182.4 314.201C183 312.001 184 309.001 185.1 305.301C187.4 297.801 190.4 287.401 193.5 275.801C196.6 264.201 199.4 253.801 201.5 246.201C202.5 242.401 203.4 239.401 204 237.201C204.3 236.201 204.5 235.401 204.7 234.801C204.8 234.101 204.9 233.801 204.9 233.801Z" fill="#0A0A0A"/>
<path d="M291.098 107.3C291.098 107.3 293.998 105 294.998 105C295.998 105.1 301.898 105.9 301.898 105.9C301.898 105.9 302.298 108.4 300.598 109.2C298.898 110 296.398 110.1 296.398 110.1L294.998 111.1L291.098 107.3Z" fill="#FFBF9D"/>
<path d="M213.699 115.502L260.199 152.002L283.199 130.402L283.799 126.202C283.999 125.002 284.299 123.802 284.799 122.702L290.699 108.602L304.599 131.102C304.599 131.102 270.499 175.702 264.499 177.202C256.599 179.302 217.299 152.702 217.299 152.702L213.699 115.502Z" fill="#FFBF9D"/>
<path d="M290.399 121C290.499 120.9 292.499 123 293.399 126.4C294.299 129.8 293.599 132.6 293.499 132.5C293.299 132.5 293.799 129.7 292.899 126.5C292.099 123.2 290.299 121.1 290.399 121Z" fill="#FF9A6C"/>
<path d="M183.603 49.9982L182.703 97.5982C182.403 105.698 182.003 117.798 194.803 117.698C206.003 116.798 209.203 106.298 209.503 98.6982C209.603 95.0982 209.803 92.0982 209.803 91.6982C209.803 91.6982 222.003 90.9982 223.403 78.9982C224.103 73.1982 224.403 61.0982 224.603 50.1982C224.803 38.4982 216.003 28.5982 204.303 27.3982L203.103 27.2982C190.603 26.7982 183.803 37.3982 183.603 49.9982Z" fill="#FFBF9D"/>
<path d="M209.903 91.7C209.903 91.7 202.303 91.4 194.703 85.5C194.703 85.5 197.603 94.7 209.703 94.8L209.903 91.7Z" fill="#FF935C"/>
<path d="M204.404 56.4002C204.104 56.5002 203.004 55.5002 201.004 55.0002C199.104 54.4002 197.504 54.6002 197.304 54.4002C197.204 54.3002 197.504 54.1002 198.204 54.1002C198.904 54.0002 200.004 54.1002 201.204 54.4002C202.404 54.8002 203.304 55.3002 203.804 55.7002C204.504 56.1002 204.604 56.4002 204.404 56.4002Z" fill="#263238"/>
<path d="M202.104 58.7992C202.004 59.6992 201.304 60.2992 200.404 60.2992C199.504 60.2992 198.804 59.4992 198.904 58.6992C199.004 57.7992 199.704 57.1992 200.604 57.1992C201.404 57.1992 202.104 57.8992 202.104 58.7992Z" fill="#263238"/>
<path d="M208.902 68.8001C208.902 68.7001 210.102 68.6001 212.002 68.6001C212.502 68.6001 212.902 68.5001 213.002 68.2001C213.102 67.9001 213.002 67.3001 212.802 66.8001C212.502 65.6001 212.102 64.4001 211.802 63.1001C210.402 57.8001 209.402 53.4001 209.602 53.4001C209.802 53.3001 211.102 57.6001 212.602 62.9001C212.902 64.2001 213.302 65.5001 213.602 66.6001C213.702 67.2001 214.002 67.8001 213.702 68.5001C213.502 68.8001 213.202 69.1001 212.902 69.1001C212.602 69.2001 212.302 69.1001 212.102 69.1001C210.102 69.1001 208.902 68.9001 208.902 68.8001Z" fill="#263238"/>
<path d="M203.602 47.1C203.402 47.5 201.802 47.2 199.902 47.2C198.002 47.2 196.402 47.6 196.202 47.2C196.102 47 196.402 46.6 197.102 46.2C197.802 45.8 198.802 45.5 200.002 45.5C201.202 45.5 202.202 45.8 202.902 46.1C203.402 46.5 203.702 46.9 203.602 47.1Z" fill="#263238"/>
<path d="M222.602 51.3C222.402 51.7 220.802 51.2 218.902 51.1C217.002 51 215.402 51.2 215.202 50.8C215.102 50.6 215.402 50.3 216.102 50C216.802 49.7 217.802 49.5 218.902 49.6C220.002 49.7 221.002 50 221.702 50.4C222.402 50.8 222.702 51.2 222.602 51.3Z" fill="#263238"/>
<path d="M183.702 59.0976C183.502 58.9976 175.202 55.8976 174.802 64.5976C174.402 73.2976 183.202 71.7976 183.202 71.5976C183.302 71.3976 183.702 59.0976 183.702 59.0976Z" fill="#FFBF9D"/>
<path d="M180.803 68.1969C180.803 68.1969 180.603 68.2969 180.403 68.3969C180.103 68.4969 179.703 68.5969 179.303 68.3969C178.403 67.9969 177.703 66.4969 177.703 64.9969C177.703 64.1969 177.903 63.4969 178.203 62.8969C178.503 62.2969 178.903 61.8969 179.403 61.7969C179.903 61.6969 180.203 61.9969 180.303 62.2969C180.403 62.4969 180.303 62.6969 180.403 62.6969C180.403 62.6969 180.603 62.5969 180.503 62.1969C180.503 61.9969 180.403 61.7969 180.203 61.5969C180.003 61.3969 179.703 61.2969 179.403 61.2969C178.703 61.2969 178.103 61.8969 177.803 62.5969C177.403 63.2969 177.203 64.0969 177.203 64.9969C177.203 66.6969 178.003 68.3969 179.203 68.7969C179.803 68.9969 180.303 68.7969 180.603 68.5969C180.803 68.3969 180.803 68.1969 180.803 68.1969Z" fill="#FFBF9D"/>
<path d="M209.102 74.6C209.102 74.4 207.402 74.3 206.002 73.1C205.302 72.5 204.702 71.8 204.402 71.3C204.002 70.8 203.702 70.5 203.702 70.5C203.602 70.5 203.702 70.9 204.002 71.5C204.302 72.1 204.802 72.9 205.602 73.6C206.402 74.3 207.402 74.6 208.002 74.6C208.602 74.8 209.102 74.7 209.102 74.6Z" fill="#263238"/>
<path d="M222.199 55.4C221.999 55.6 220.499 55.4 218.599 55.9C216.699 56.4 215.299 57.3 215.099 57.3C214.999 57.3 215.199 57 215.699 56.6C216.299 56.2 217.299 55.7 218.499 55.4C219.699 55.1 220.799 55 221.399 55.1C222.099 55.2 222.299 55.4 222.199 55.4Z" fill="#263238"/>
<path d="M219.6 59.6977C219.5 60.5977 218.8 61.1977 217.9 61.1977C217 61.1977 216.3 60.3977 216.4 59.5977C216.5 58.6977 217.2 58.0977 218.1 58.0977C219 58.0977 219.7 58.7977 219.6 59.6977Z" fill="#263238"/>
<path d="M241.201 39.8995C241.101 39.3995 240.701 38.9995 240.301 38.6995C239.401 38.0995 238.301 38.1995 237.201 38.0995C234.601 37.9995 232.001 37.2995 229.701 35.9995C230.501 35.5995 231.301 35.0995 232.001 34.4995C233.401 33.1995 234.201 31.1995 233.601 29.3995C233.501 29.0995 233.301 28.6995 233.001 28.5995C232.501 28.3995 232.001 28.8995 231.601 29.2995C230.301 30.5995 229.201 31.1995 227.401 30.9995C226.301 30.8995 225.201 30.5995 224.301 29.9995L224.201 29.8995C223.801 29.3995 223.401 28.9995 223.001 28.5995C220.001 25.3995 217.401 23.2995 214.701 22.0995C210.701 20.3995 204.001 19.4995 199.801 20.4995C195.601 21.4995 191.701 24.7995 191.001 29.0995C188.701 27.0995 185.201 26.9995 182.301 27.9995H182.201C179.001 28.9995 177.101 32.3995 176.101 35.5995C176.001 35.7995 176.001 35.9995 175.901 36.0995C174.801 37.7995 173.301 39.1995 171.501 40.1995C171.201 40.3995 170.801 40.5995 170.801 40.8995C170.801 41.2995 171.001 41.4995 171.301 41.7995C172.001 42.3995 172.901 42.7995 173.801 42.8995C173.501 43.6995 173.101 44.3995 172.701 45.0995C172.301 45.6995 171.901 46.3995 172.201 47.0995C172.401 47.5995 173.001 47.7995 173.601 47.7995C174.101 47.6995 174.601 47.3995 175.101 47.1995C174.701 47.9995 174.301 48.8995 174.001 49.6995C175.101 49.8995 176.301 49.8995 177.501 49.5995C178.101 52.6995 178.801 56.5995 179.501 58.5995C180.801 58.5995 182.101 58.3995 182.901 59.0995C184.001 60.0995 184.401 61.9995 186.301 61.3995C187.301 61.0995 188.201 59.0995 188.501 58.1995C190.801 51.8995 191.601 45.0995 191.101 38.3995C192.501 36.9995 194.101 35.8995 195.901 35.1995L195.801 35.2995C199.201 34.1995 203.001 33.1995 206.201 34.7995C208.601 36.0995 210.001 38.6995 211.801 40.7995C215.201 44.7995 219.401 46.9995 224.601 47.2995C225.001 50.8995 224.501 55.4995 224.501 58.8995L227.801 53.4995C228.001 53.0995 228.201 52.6995 228.401 52.2995L228.501 52.1995C228.801 51.5995 229.101 50.8995 229.501 50.2995C231.301 51.9995 234.101 49.5995 232.701 47.5995C232.401 47.1995 232.101 46.7995 231.701 46.4995C232.501 47.2995 233.801 47.6995 234.901 47.3995C236.001 47.0995 236.901 45.9995 236.801 44.8995C236.801 44.0995 236.201 43.3995 235.501 43.0995C237.001 43.2995 238.501 42.9995 239.801 42.2995C240.601 41.7995 241.501 40.9995 241.201 39.8995Z" fill="#263238"/>
<path d="M194.801 30.5977C194.801 30.5977 194.301 30.8977 193.601 31.6977C192.901 32.4977 192.101 33.7977 191.601 35.5977C191.401 36.4977 191.201 37.4977 191.201 38.6977C191.201 39.7977 191.201 40.9977 191.301 42.2977C191.301 43.5977 191.401 44.8977 191.301 46.1977C191.201 46.8977 191.101 47.5977 191.001 48.2977C190.801 48.9977 190.601 49.6977 190.101 50.2977C189.701 50.7977 189.001 50.9977 188.401 50.7977C187.801 50.6977 187.301 50.2977 186.901 49.8977C186.101 48.9977 186.001 47.7977 185.801 46.7977H186.101C185.701 47.6977 185.201 48.5977 184.601 49.2977C184.001 49.9977 183.101 50.4977 182.201 50.4977C181.801 50.4977 181.301 50.3977 181.001 50.1977C180.601 49.9977 180.401 49.6977 180.201 49.2977C180.001 48.9977 179.901 48.5977 180.001 48.1977C180.001 47.7977 180.201 47.4977 180.401 47.2977L180.501 47.3977C179.501 48.3977 178.501 48.9977 177.901 49.2977C177.601 49.3977 177.301 49.4977 177.101 49.5977C177.301 49.4977 177.501 49.3977 177.901 49.2977C178.601 48.9977 179.501 48.3977 180.401 47.3977L180.501 47.4977C180.101 47.8977 180.001 48.6977 180.401 49.2977C180.601 49.5977 180.801 49.8977 181.101 50.0977C181.401 50.2977 181.801 50.2977 182.201 50.2977C183.001 50.1977 183.801 49.7977 184.401 49.0977C185.001 48.3977 185.401 47.5977 185.901 46.6977L186.101 46.2977L186.201 46.6977C186.401 47.6977 186.501 48.7977 187.201 49.6977C187.501 50.0977 188.001 50.3977 188.501 50.4977C189.001 50.5977 189.601 50.4977 190.001 50.0977C190.501 49.5977 190.701 48.8977 190.801 48.1977C191.001 47.4977 191.101 46.7977 191.101 46.1977C191.201 44.8977 191.201 43.4977 191.101 42.2977C191.101 40.9977 191.001 39.8977 191.101 38.6977C191.101 37.5977 191.301 36.4977 191.501 35.5977C192.001 33.6977 192.801 32.3977 193.601 31.5977C194.201 30.8977 194.801 30.5977 194.801 30.5977Z" fill="#455A64"/>
<path d="M231.701 43.3C231.501 43.4 231.401 43.5 231.301 43.6C231.201 43.7 231.001 43.8 230.801 43.9C230.601 44 230.301 44.2 230.101 44.3C229.001 44.8 227.201 45.3 224.901 45.1C222.701 44.9 220.001 44.1 217.701 42.2C215.301 40.4 213.301 37.8 211.701 34.8C210.901 33.3 210.201 31.8 209.401 30.4C208.701 29 207.801 27.7 206.801 26.7C205.801 25.7 204.601 24.9 203.401 24.5C202.801 24.3 202.201 24.2 201.601 24.2C201.001 24.2 200.401 24.3 199.901 24.5C198.901 24.8 198.001 25.4 197.401 25.9C196.701 26.5 196.301 27.1 196.001 27.6C195.401 28.7 195.401 29.4 195.301 29.4C195.301 29.4 195.301 29.4 195.301 29.3C195.301 29.2 195.301 29.1 195.401 28.9C195.501 28.6 195.601 28.1 195.901 27.6C196.201 27.1 196.601 26.4 197.301 25.8C198.001 25.2 198.801 24.6 199.901 24.3C200.401 24.1 201.001 24 201.601 24C202.201 24 202.901 24.1 203.501 24.3C204.801 24.7 206.001 25.5 207.001 26.5C208.001 27.6 208.901 28.9 209.601 30.3C210.401 31.7 211.001 33.2 211.901 34.7C213.501 37.6 215.501 40.2 217.901 42C220.201 43.8 222.801 44.7 225.001 44.9C227.201 45.1 229.001 44.7 230.101 44.2C231.101 43.7 231.701 43.3 231.701 43.3Z" fill="#455A64"/>
<path d="M232.899 38.1014C232.899 38.1014 232.799 38.2014 232.499 38.4014C232.199 38.6014 231.799 38.8014 231.199 39.0014C230.599 39.2014 229.899 39.4014 229.199 39.6014C228.399 39.8014 227.499 39.9014 226.599 39.9014C225.699 39.9014 224.799 39.8014 223.999 39.7014C223.199 39.5014 222.499 39.3014 221.999 39.1014C221.399 38.9014 220.999 38.7014 220.699 38.5014C220.399 38.3014 220.199 38.2014 220.299 38.2014C220.299 38.2014 220.999 38.5014 222.099 38.9014C222.699 39.1014 223.399 39.3014 224.099 39.4014C224.899 39.5014 225.699 39.6014 226.699 39.6014C227.599 39.6014 228.499 39.5014 229.199 39.4014C229.999 39.2014 230.699 39.1014 231.199 38.9014C232.199 38.4014 232.899 38.0014 232.899 38.1014Z" fill="#455A64"/>
<path d="M199.801 98.8984L212.201 103.898C215.201 104.798 221.001 109.698 224.501 112.998L238.901 132.198L216.901 158.998L199.801 98.8984Z" fill="#455A64"/>
<path d="M182.599 89.8984L180.599 92.9984C180.599 92.9984 151.499 100.598 149.099 106.398C145.699 114.598 150.199 139.998 150.199 139.998L156.299 194.698L147.899 224.998L224.899 226.298C224.899 226.298 220.199 146.898 219.099 138.498C217.999 130.098 210.699 101.598 210.699 101.598L182.599 89.8984Z" fill="#EDDAD3"/>
<path d="M217.899 123C217.899 123 217.899 123.1 217.899 123.3C217.899 123.5 217.999 123.7 217.999 124C218.099 124.7 218.199 125.7 218.299 126.9C218.599 129.4 218.899 133 219.299 137.5C220.099 146.5 220.899 158.9 221.799 172.6C222.699 186.3 223.499 198.7 224.099 207.7C224.399 212.2 224.699 215.8 224.899 218.3C224.999 219.5 225.099 220.5 225.099 221.2C225.099 221.5 225.099 221.8 225.099 222C225.099 221.8 224.999 221.6 224.999 221.3C224.899 220.6 224.799 219.6 224.699 218.4C224.399 215.9 224.099 212.3 223.699 207.8C222.899 198.8 222.099 186.4 221.199 172.7C220.299 159 219.499 146.6 218.899 137.6C218.599 133.1 218.299 129.5 218.099 127C217.999 125.8 217.899 124.8 217.899 124.1C217.899 123.8 217.899 123.5 217.899 123.3C217.799 123.1 217.799 123 217.899 123Z" fill="#263238"/>
<path opacity="0.3" d="M151.602 211.6L159.402 214.5L163.702 200.9C163.702 200.9 171.102 206.6 176.302 205.8C181.502 205.1 188.902 200.9 188.902 200.9L205.702 204L224.102 210.2L222.702 187.5L174.102 185L159.402 186.7L151.602 211.6Z" fill="black"/>
<path d="M104.899 230.799L117.399 224.799C118.599 220.899 119.699 216.999 120.999 212.799C126.299 215.199 131.099 217.299 135.999 219.499C137.799 213.899 139.399 208.999 140.999 203.799C146.199 206.099 150.999 208.099 156.099 210.299C157.799 204.799 159.299 199.799 160.999 194.499C165.299 196.499 168.999 198.399 172.799 199.699C174.799 200.399 177.399 200.499 179.299 199.699C184.699 197.499 189.899 194.799 195.299 192.099C196.099 193.599 196.599 194.499 196.999 195.399C199.599 200.799 199.799 200.899 205.299 198.299C211.199 195.599 216.999 192.899 222.799 190.099C225.299 188.899 227.099 189.099 229.599 190.499C248.699 201.199 267.899 201.799 286.399 189.299C303.899 177.499 311.499 160.399 308.999 139.599C306.399 118.899 294.599 104.499 275.099 97.199C244.299 85.699 210.899 105.599 205.799 138.099C205.399 140.799 204.399 142.199 201.899 143.199C196.899 145.299 191.999 147.699 187.099 149.899C178.799 153.699 178.799 153.699 181.499 162.499C179.799 163.399 178.499 164.199 176.999 164.899C157.799 173.699 106.799 196.499 89.9992 203.899L84.1992 223.999L104.899 230.799ZM296.099 141.899C291.899 152.999 279.399 158.499 268.299 154.199C257.399 149.899 251.799 137.699 255.799 126.799C259.999 115.499 272.599 109.799 283.899 114.099C294.899 118.299 300.399 130.599 296.099 141.899Z" fill="#E0E0E0"/>
<path opacity="0.3" d="M183.6 176.999L97.1002 214.499C95.7002 215.099 94.0002 214.499 93.3002 212.999C92.7002 211.599 93.3002 209.899 94.8002 209.199L181.3 171.699C182.7 171.099 184.4 171.699 185.1 173.199C185.7 174.699 185.1 176.399 183.6 176.999Z" fill="black"/>
<path d="M188.401 177.301C188.401 177.301 188.301 177.401 188.101 177.401C187.901 177.501 187.601 177.601 187.301 177.801C186.601 178.101 185.601 178.601 184.301 179.201C181.701 180.401 177.901 182.101 173.301 184.201C164.001 188.401 151.201 194.301 137.001 200.601C122.801 206.901 109.901 212.601 100.501 216.501C95.8008 218.501 92.0008 220.001 89.4008 221.101C88.1008 221.601 87.1008 222.001 86.4008 222.301C86.1008 222.401 85.8008 222.501 85.6008 222.601C85.4008 222.701 85.3008 222.701 85.3008 222.701C85.3008 222.701 85.4008 222.601 85.6008 222.601C85.8008 222.501 86.1008 222.401 86.4008 222.301C87.1008 222.001 88.1008 221.601 89.4008 221.001C92.1008 219.901 95.8008 218.201 100.501 216.201C109.901 212.201 122.701 206.501 136.901 200.201C151.101 193.901 163.901 188.101 173.201 183.901C177.801 181.901 181.601 180.201 184.201 179.001C185.501 178.401 186.501 178.001 187.201 177.701C187.501 177.601 187.801 177.501 188.001 177.401C188.301 177.301 188.401 177.301 188.401 177.301Z" fill="#263238"/>
<path d="M197.901 196.299C197.801 196.399 193.801 188.399 189.101 178.599C184.401 168.699 180.601 160.699 180.801 160.599C180.901 160.499 184.901 168.499 189.601 178.299C194.301 188.199 198.001 196.299 197.901 196.299Z" fill="#263238"/>
<path d="M306.398 146.498C306.398 146.498 306.398 146.198 306.298 145.698C306.298 145.198 306.198 144.398 306.198 143.398C306.198 142.898 306.098 142.298 306.098 141.698C305.998 141.098 305.898 140.398 305.798 139.698C305.698 138.998 305.598 138.198 305.398 137.298C305.298 136.398 304.998 135.598 304.798 134.598C303.898 130.798 302.198 126.398 299.398 121.698C296.598 116.998 292.598 112.098 287.098 107.898C286.398 107.398 285.698 106.898 284.998 106.298C284.298 105.798 283.498 105.398 282.698 104.898C281.898 104.498 281.198 103.898 280.298 103.498C279.498 103.098 278.598 102.698 277.798 102.298C277.398 102.098 276.898 101.898 276.498 101.698C276.098 101.498 275.598 101.398 275.198 101.198C274.298 100.898 273.398 100.498 272.498 100.198C271.598 99.8977 270.598 99.6977 269.598 99.3977C268.598 99.1977 267.698 98.7977 266.698 98.6977C264.698 98.3977 262.698 97.9977 260.598 97.9977C259.598 97.9977 258.498 97.8977 257.398 97.8977C256.298 97.9977 255.298 97.9977 254.198 98.0977C253.698 98.0977 253.098 98.0977 252.598 98.1977C252.098 98.2977 251.498 98.3977 250.998 98.3977C249.898 98.5977 248.798 98.6977 247.698 98.8977C245.598 99.4977 243.298 99.8977 241.198 100.798L239.598 101.398C239.298 101.498 239.098 101.598 238.798 101.698L237.998 102.098C236.998 102.598 235.898 103.098 234.898 103.598C233.898 104.198 232.898 104.798 231.898 105.398C231.398 105.698 230.898 105.998 230.398 106.298L228.998 107.398C226.998 108.798 225.298 110.398 223.498 112.098C222.698 112.998 221.898 113.898 220.998 114.798L220.398 115.498L219.798 116.198L218.698 117.698L217.598 119.198L216.598 120.798L215.598 122.398L215.098 123.198C214.998 123.498 214.798 123.798 214.698 123.998C214.198 125.098 213.598 126.298 213.098 127.398C212.698 128.598 212.198 129.798 211.798 130.998C210.198 135.898 209.398 140.998 209.298 146.298C209.398 151.598 210.198 156.698 211.798 161.598C212.198 162.798 212.698 163.998 213.098 165.198C213.698 166.298 214.198 167.498 214.698 168.598L215.098 169.398L215.598 170.198L216.598 171.798L217.598 173.398L218.698 174.898L219.798 176.398L220.398 177.098L220.998 177.798C221.798 178.698 222.598 179.598 223.498 180.498C225.298 182.098 226.998 183.798 228.998 185.198L230.398 186.298C230.898 186.698 231.398 186.898 231.898 187.198C232.898 187.798 233.898 188.398 234.898 188.998C235.898 189.498 236.998 189.998 237.998 190.498L238.798 190.898C239.098 190.998 239.298 191.098 239.598 191.198L241.198 191.798C243.298 192.698 245.498 193.098 247.698 193.698C248.798 193.898 249.898 194.098 250.998 194.198C251.498 194.298 252.098 194.398 252.598 194.398C253.098 194.498 253.698 194.498 254.198 194.498C255.298 194.598 256.298 194.598 257.398 194.698C258.498 194.698 259.498 194.598 260.598 194.598C262.698 194.598 264.698 194.198 266.698 193.898C267.698 193.798 268.698 193.498 269.598 193.198C270.598 192.898 271.498 192.698 272.498 192.398C273.398 192.098 274.298 191.698 275.198 191.398C275.698 191.198 276.098 191.098 276.498 190.898C276.898 190.698 277.398 190.498 277.798 190.298C278.598 189.898 279.498 189.498 280.298 189.098C281.098 188.698 281.898 188.198 282.698 187.698C283.498 187.198 284.198 186.798 284.998 186.298C285.698 185.798 286.398 185.298 287.098 184.698C292.598 180.498 296.598 175.598 299.398 170.898C302.198 166.198 303.898 161.698 304.798 157.998C304.998 157.098 305.298 156.198 305.398 155.298C305.498 154.498 305.698 153.698 305.798 152.898C305.898 152.198 305.998 151.498 306.098 150.898C306.098 150.298 306.198 149.698 306.198 149.198C306.298 148.198 306.298 147.398 306.298 146.898C306.398 146.798 306.398 146.498 306.398 146.498C306.398 146.498 306.398 146.798 306.398 147.298C306.398 147.798 306.298 148.598 306.298 149.598C306.298 150.098 306.298 150.698 306.198 151.298C306.098 151.898 305.998 152.598 305.898 153.298C305.798 153.998 305.698 154.798 305.498 155.698C305.398 156.598 305.098 157.398 304.898 158.398C304.098 162.198 302.298 166.698 299.598 171.398C296.798 176.098 292.798 181.098 287.198 185.298C286.498 185.798 285.798 186.298 285.098 186.898C284.398 187.398 283.598 187.798 282.798 188.298C281.998 188.798 281.298 189.298 280.398 189.698C279.598 190.098 278.698 190.498 277.898 190.898C277.498 191.098 276.998 191.298 276.598 191.498C276.198 191.698 275.698 191.798 275.198 191.998C274.298 192.298 273.398 192.698 272.398 192.998C271.498 193.298 270.498 193.498 269.498 193.798C268.498 193.998 267.598 194.398 266.498 194.498C264.498 194.798 262.398 195.198 260.298 195.198C259.198 195.198 258.198 195.298 257.098 195.298C255.998 195.198 254.898 195.198 253.898 195.098C253.398 195.098 252.798 195.098 252.298 194.998C251.798 194.898 251.198 194.798 250.698 194.798C249.598 194.598 248.498 194.498 247.398 194.298C245.198 193.698 242.998 193.298 240.898 192.398C240.398 192.198 239.798 191.998 239.298 191.798C238.998 191.698 238.798 191.598 238.498 191.498L237.698 191.098C236.698 190.598 235.598 190.098 234.498 189.598C233.498 188.998 232.498 188.398 231.398 187.798C230.898 187.498 230.398 187.198 229.898 186.798L228.498 185.698C226.498 184.298 224.798 182.598 222.898 180.998C222.098 180.098 221.198 179.198 220.398 178.298L219.798 177.598L219.198 176.898L218.098 175.398L216.998 173.898L215.998 172.298L214.998 170.698L214.498 169.898L214.098 168.998C213.498 167.898 212.998 166.698 212.398 165.498C211.998 164.298 211.498 163.098 211.098 161.898C209.498 156.998 208.598 151.798 208.598 146.398C208.698 141.098 209.498 135.898 211.098 130.998C211.498 129.798 211.998 128.598 212.398 127.398C212.998 126.198 213.498 125.098 214.098 123.898C214.198 123.598 214.398 123.298 214.498 122.998L214.998 122.198L215.998 120.598L216.998 118.998L218.098 117.498L219.198 115.998L219.798 115.298L220.398 114.598C221.198 113.698 222.098 112.798 222.898 111.898C224.698 110.298 226.498 108.598 228.498 107.198L229.898 106.098C230.398 105.698 230.898 105.498 231.398 105.098C232.398 104.498 233.398 103.798 234.498 103.298C235.598 102.798 236.598 102.298 237.698 101.798L238.498 101.398C238.798 101.298 238.998 101.198 239.298 101.098C239.798 100.898 240.398 100.698 240.898 100.498C242.998 99.5977 245.298 99.1977 247.398 98.5977C248.498 98.3977 249.598 98.1977 250.698 98.0977C251.198 97.9977 251.798 97.8977 252.298 97.8977C252.798 97.7977 253.398 97.7977 253.898 97.7977C254.998 97.6977 256.098 97.6977 257.098 97.5977C258.198 97.5977 259.198 97.6977 260.298 97.6977C262.398 97.6977 264.498 98.0977 266.498 98.3977C267.498 98.4977 268.498 98.8977 269.498 99.0977C270.498 99.3977 271.398 99.5977 272.398 99.8977C273.298 100.198 274.198 100.598 275.198 100.898C275.698 101.098 276.098 101.198 276.598 101.398C276.998 101.598 277.498 101.798 277.898 101.998C278.798 102.398 279.598 102.798 280.398 103.198C281.198 103.598 281.998 104.098 282.798 104.598C283.598 105.098 284.398 105.498 285.098 105.998C285.798 106.498 286.498 107.098 287.198 107.598C292.698 111.798 296.798 116.798 299.598 121.498C302.398 126.298 304.098 130.698 304.898 134.498C305.098 135.398 305.398 136.298 305.498 137.198C305.598 137.998 305.698 138.798 305.898 139.598C305.998 140.298 306.098 140.998 306.198 141.598C306.198 142.198 306.298 142.798 306.298 143.298C306.298 144.298 306.398 145.098 306.398 145.598C306.398 146.198 306.398 146.498 306.398 146.498Z" fill="#263238"/>
<path d="M299.699 134.097C299.699 134.097 299.699 133.997 299.699 133.697C299.699 133.397 299.699 132.997 299.599 132.597C299.599 132.297 299.599 132.097 299.499 131.797C299.499 131.497 299.399 131.197 299.299 130.797C299.199 130.097 299.099 129.197 298.799 128.297C298.399 126.397 297.499 124.197 296.099 121.897C294.699 119.597 292.699 117.197 289.999 115.097C287.299 113.097 283.899 111.297 279.899 110.597C275.999 109.897 271.599 110.097 267.299 111.697C266.199 111.997 265.199 112.597 264.199 113.097C263.199 113.697 262.199 114.197 261.299 114.997C260.299 115.697 259.499 116.497 258.599 117.297C257.799 118.197 256.999 119.097 256.299 120.097C254.899 122.097 253.599 124.297 252.899 126.697C252.099 129.097 251.699 131.597 251.699 134.197C251.699 136.797 252.199 139.297 252.899 141.697C253.699 144.097 254.899 146.297 256.299 148.297C256.999 149.297 257.799 150.197 258.599 151.097C259.499 151.897 260.299 152.697 261.299 153.397C262.199 154.097 263.199 154.697 264.199 155.297C265.199 155.797 266.199 156.297 267.299 156.697C271.499 158.297 275.899 158.397 279.899 157.797C283.799 157.097 287.299 155.397 289.999 153.297C292.699 151.197 294.699 148.797 296.099 146.497C297.499 144.197 298.399 141.997 298.799 140.097C299.099 139.197 299.199 138.297 299.299 137.597C299.399 137.197 299.399 136.897 299.499 136.597C299.499 136.297 299.499 135.997 299.599 135.797C299.599 135.297 299.699 134.897 299.699 134.697C299.699 134.197 299.699 134.097 299.699 134.097C299.699 134.097 299.699 134.197 299.699 134.497C299.699 134.797 299.699 135.197 299.699 135.697C299.699 135.997 299.699 136.197 299.699 136.497C299.699 136.797 299.599 137.097 299.599 137.497C299.499 138.197 299.399 139.097 299.099 139.997C298.699 141.897 297.799 144.097 296.499 146.497C295.099 148.897 293.099 151.297 290.399 153.397C287.699 155.497 284.199 157.297 280.199 157.997C276.199 158.697 271.699 158.597 267.399 156.997C266.299 156.697 265.299 156.097 264.199 155.597C263.199 154.997 262.099 154.397 261.199 153.697C260.199 152.997 259.299 152.197 258.399 151.397C257.599 150.497 256.699 149.597 255.999 148.597C254.499 146.597 253.299 144.297 252.499 141.897C251.699 139.397 251.299 136.797 251.199 134.197C251.199 131.597 251.699 128.897 252.499 126.497C253.299 123.997 254.499 121.797 255.999 119.797C256.699 118.797 257.599 117.897 258.399 116.997C259.299 116.197 260.199 115.297 261.199 114.697C262.099 113.897 263.199 113.397 264.199 112.797C265.299 112.297 266.299 111.797 267.399 111.397C271.699 109.797 276.199 109.697 280.199 110.397C284.199 111.097 287.699 112.897 290.399 114.997C293.099 117.097 295.199 119.597 296.499 121.897C297.899 124.297 298.699 126.497 299.099 128.397C299.399 129.297 299.499 130.197 299.599 130.897C299.599 131.297 299.699 131.597 299.699 131.897C299.699 132.197 299.699 132.497 299.699 132.697C299.699 133.197 299.699 133.597 299.699 133.897C299.699 133.997 299.699 134.097 299.699 134.097Z" fill="#263238"/>
<path opacity="0.3" d="M235 99.1977V193.498C235 193.498 240.6 196.398 248.5 197.998L247.5 95.0977C243.1 95.8977 238.9 97.1977 235 99.1977Z" fill="white"/>
<path d="M228.101 189.998C228.001 189.998 227.801 170.598 227.801 146.798C227.801 122.898 227.901 103.598 228.101 103.598C228.301 103.598 228.401 122.998 228.401 146.798C228.401 170.598 228.301 189.998 228.101 189.998Z" fill="white"/>
<path d="M217.799 113.598C217.799 113.598 217.599 113.998 216.999 114.798C216.499 115.498 215.799 116.598 214.899 117.998C214.099 119.398 213.099 121.098 212.199 122.998C211.299 124.898 210.399 127.098 209.599 129.398C208.799 131.698 208.299 133.998 207.899 136.098C207.499 138.198 207.199 140.098 207.099 141.698C206.999 143.298 206.899 144.598 206.899 145.498C206.899 146.398 206.799 146.898 206.799 146.898C206.799 146.898 206.699 146.398 206.699 145.498C206.699 144.598 206.699 143.298 206.799 141.598C206.899 139.998 207.099 137.998 207.499 135.898C207.899 133.798 208.499 131.498 209.199 129.098C209.999 126.698 210.899 124.598 211.799 122.598C212.799 120.698 213.699 118.998 214.599 117.598C215.499 116.198 216.199 115.198 216.799 114.498C217.499 113.998 217.799 113.598 217.799 113.598Z" fill="white"/>
<path d="M203.099 146.499C203.199 146.599 199.199 148.699 194.199 150.999C189.199 153.399 185.199 155.199 185.099 155.099C184.999 154.999 188.999 152.899 193.999 150.599C198.999 148.199 203.099 146.299 203.099 146.499Z" fill="white"/>
<path d="M177.299 167.598C177.299 167.598 177.199 167.598 177.099 167.698C176.899 167.798 176.699 167.898 176.499 167.998C175.899 168.298 175.099 168.698 174.099 169.198C171.999 170.198 169.099 171.598 165.399 173.398C157.999 176.898 147.799 181.598 136.399 186.598C124.999 191.598 114.599 195.998 106.999 199.098C103.199 200.698 100.199 201.898 97.9992 202.698C96.9992 203.098 96.1992 203.398 95.4992 203.698C95.1992 203.798 94.9992 203.898 94.8992 203.898C95.0992 203.798 95.2992 203.698 95.4992 203.598C96.0992 203.298 96.8992 202.998 97.8992 202.598C99.9992 201.698 103.099 200.398 106.799 198.798C114.299 195.598 124.699 191.198 136.099 186.098C147.499 181.098 157.799 176.398 165.199 172.998C168.899 171.298 171.899 169.898 173.999 168.998C174.999 168.498 175.799 168.198 176.399 167.898C176.699 167.798 176.899 167.698 176.999 167.598C177.199 167.598 177.299 167.598 177.299 167.598Z" fill="white"/>
<path d="M276.3 107.799C276.3 107.899 274.6 107.499 271.8 107.599C269 107.699 265.2 108.399 261.4 110.399C257.7 112.399 255 115.299 253.4 117.499C251.8 119.799 251.1 121.399 251 121.299C251 121.299 251.1 120.899 251.4 120.199C251.7 119.499 252.2 118.499 253 117.299C254.5 114.999 257.3 111.999 261.1 109.899C264.9 107.799 268.9 107.199 271.7 107.199C273.1 107.199 274.2 107.299 275 107.399C275.9 107.599 276.3 107.799 276.3 107.799Z" fill="white"/>
<path d="M284.001 102.6C284.001 102.6 283.501 102.4 282.801 102C282.001 101.6 280.901 101.1 279.501 100.5C278.101 99.9 276.301 99.2 274.401 98.6C272.401 98 270.201 97.5 267.901 97.1C265.601 96.7 263.301 96.5 261.301 96.4C259.301 96.3 257.401 96.4 255.901 96.5C254.401 96.6 253.101 96.7 252.201 96.9C251.301 97 250.901 97.1 250.801 97C250.801 97 251.301 96.9 252.101 96.7C253.001 96.5 254.201 96.3 255.801 96.2C257.401 96 259.201 96 261.301 96C263.401 96.1 265.601 96.3 268.001 96.6C270.401 97 272.601 97.6 274.501 98.2C276.501 98.8 278.201 99.5 279.601 100.2C281.001 100.9 282.101 101.4 282.901 101.9C283.601 102.3 284.001 102.6 284.001 102.6Z" fill="white"/>
<path opacity="0.3" d="M163.502 175.498L166.902 158.298L170.902 158.098L172.902 135.598L168.602 153.498L164.202 152.498L160.102 174.798L163.502 175.498Z" fill="black"/>
<path d="M198.702 182.398C198.702 182.398 204.702 177.998 206.702 177.298C208.802 176.598 215.702 175.298 218.202 173.598C218.202 173.598 220.402 174.798 218.502 176.698C216.602 178.598 213.302 180.598 211.502 181.098C209.702 181.598 210.302 182.898 211.602 183.298C212.902 183.698 221.902 185.298 221.902 185.298C221.902 185.298 232.302 185.498 233.202 186.598C234.102 187.698 233.302 189.098 232.502 189.398C231.902 189.598 222.902 190.198 222.902 190.198L218.302 189.698C218.302 189.698 232.602 192.298 233.502 193.598C234.302 194.798 233.602 195.598 232.902 196.098C232.202 196.498 225.802 195.298 225.802 195.298L217.202 194.198L232.902 198.698C232.902 198.698 234.302 199.298 234.002 200.498C233.702 201.698 231.802 201.898 231.802 201.898L215.202 198.698C215.202 198.698 223.302 204.398 223.602 205.098C224.002 206.098 222.302 206.998 221.702 206.598C221.102 206.198 210.702 201.698 210.702 201.698L198.802 196.298L190.902 196.398L194.302 181.798L198.702 182.398Z" fill="#FFBF9D"/>
<path d="M163.1 196.7L196.9 196.2L196.2 182.1L160.1 174.8L165.3 148.2L140.7 142.5C137.1 157.7 135.9 170.5 135 180.7C135 180.7 133.3 191.3 145.4 194.3C152.9 196.3 163.1 196.7 163.1 196.7Z" fill="#FFBF9D"/>
<path d="M134.602 145.899L168.602 153.499C168.602 153.499 174.502 131.399 174.702 125.199C174.902 119.099 166.502 99.5985 154.602 103.599C154.602 103.599 151.002 102.899 147.702 107.699C146.502 109.599 134.602 145.899 134.602 145.899Z" fill="#EDDAD3"/>
<path d="M173.301 122.099C173.201 122.099 173.601 120.199 172.901 117.199C172.601 115.699 172.001 113.999 171.101 112.199C170.201 110.399 169.001 108.399 167.101 107.099C165.201 105.799 163.101 104.999 161.101 104.699C159.101 104.399 157.301 104.399 155.701 104.399C154.201 104.499 152.901 104.699 152.101 104.899C151.301 105.099 150.801 105.299 150.801 105.199C150.801 105.199 150.901 105.099 151.101 104.999C151.301 104.899 151.601 104.799 152.001 104.599C152.801 104.299 154.101 104.099 155.601 103.999C157.201 103.899 159.001 103.899 161.101 104.099C163.201 104.399 165.401 105.199 167.401 106.499C169.401 107.899 170.601 109.999 171.501 111.799C172.401 113.699 173.001 115.399 173.301 116.999C173.601 118.499 173.601 119.799 173.501 120.699C173.501 121.099 173.401 121.499 173.401 121.699C173.301 121.899 173.301 122.099 173.301 122.099Z" fill="#263238"/>
<path d="M173.301 133.098C173.301 133.098 173.301 133.198 173.301 133.498C173.201 133.798 173.201 134.198 173.101 134.698C172.901 135.798 172.601 137.198 172.201 138.998C171.401 142.698 170.201 147.798 169.001 153.698L168.901 153.898L168.701 153.798C166.601 153.298 164.301 152.798 161.901 152.298C154.401 150.598 147.601 149.098 142.701 147.898C140.301 147.298 138.301 146.898 136.901 146.498C136.301 146.298 135.701 146.198 135.301 146.098C134.901 145.998 134.801 145.898 134.801 145.898C134.801 145.898 135.001 145.898 135.401 145.998C135.801 146.098 136.401 146.198 137.001 146.298C138.501 146.598 140.401 146.998 142.901 147.498C147.901 148.598 154.701 150.098 162.201 151.698C164.501 152.198 166.801 152.698 169.001 153.198L168.701 153.398C170.101 147.598 171.301 142.498 172.101 138.798C172.501 136.998 172.901 135.598 173.101 134.498C173.201 133.998 173.301 133.698 173.401 133.398C173.201 133.198 173.201 133.098 173.301 133.098Z" fill="#263238"/>
<path d="M306.9 130.399C306.9 130.399 307.9 130.799 309 129.799C310.1 128.799 311.9 126.299 311.1 125.299C310.3 124.299 308.3 123.999 308.3 123.999C308.3 123.999 309.8 122.199 309.1 120.799C308.2 118.899 306.4 119.699 306.4 119.699C306.4 119.699 307.2 118.299 306.5 116.099C306.3 115.499 305.8 114.999 305.2 114.799L303.5 113.999C303.5 113.999 305.1 111.699 303.3 109.799C302.9 109.399 302.5 109.099 301.9 108.799C299.6 107.699 296.8 107.899 295.1 109.799C296.5 111.199 298.1 112.699 297.7 113.899C297.7 113.899 290.4 118.799 292.3 121.399C293.5 123.099 294.8 122.299 294.8 122.299C294.8 122.299 293 123.999 293.9 125.099C294.2 125.399 294.6 125.599 295.1 125.699C296.1 125.899 296.8 125.899 297.9 125.299L299.1 124.599C299.1 124.599 298.6 126.199 299.6 126.999C299.7 127.099 299.8 127.099 299.9 127.199C300.8 127.799 302 127.699 302.8 127.099L305.5 125.299L305.7 126.599C305.7 126.599 304.1 128.499 306.9 130.399Z" fill="#FFCAAE"/>
<path d="M306.9 130.399C306.9 130.399 306.5 130.199 306 129.699C305.7 129.399 305.4 128.999 305.3 128.499C305.1 127.899 305.2 127.199 305.7 126.599V126.699C305.6 126.299 305.5 125.799 305.4 125.399L305.6 125.499C305.1 125.799 304.6 126.199 304 126.599C303.7 126.799 303.4 126.999 303.1 127.199C302.8 127.399 302.4 127.599 302 127.699C301.2 127.899 300.2 127.799 299.5 127.299C299.1 126.999 298.9 126.599 298.8 126.099C298.7 125.599 298.7 125.099 298.9 124.599L299.2 124.799C298.6 125.099 298.1 125.499 297.4 125.799C296.7 126.099 295.9 126.099 295.2 125.899C294.8 125.799 294.4 125.699 294.1 125.399C293.8 125.199 293.5 124.699 293.5 124.199C293.5 123.699 293.7 123.299 293.9 122.999C294.1 122.599 294.4 122.299 294.7 121.999L295 122.399C294.5 122.699 293.9 122.699 293.3 122.399C292.8 122.199 292.4 121.799 292.1 121.299C291.8 120.799 291.8 120.099 291.9 119.599C292.1 118.999 292.4 118.599 292.7 118.099C294 116.299 295.8 114.899 297.7 113.599L297.6 113.699C297.7 113.299 297.5 112.799 297.2 112.399C296.9 111.999 296.6 111.499 296.2 111.099C295.8 110.699 295.4 110.299 295 109.899L294.8 109.699L295 109.499C295.8 108.599 297 107.999 298.3 107.799C299.5 107.599 300.7 107.799 301.8 108.299C302.9 108.699 303.9 109.499 304.3 110.699C304.7 111.899 304.4 112.999 303.8 113.999L303.7 113.599C304.3 113.899 304.9 114.099 305.5 114.399C306.1 114.699 306.6 115.299 306.8 115.899C307.2 117.099 307.3 118.499 306.7 119.599L306.4 119.299C307 119.099 307.7 119.099 308.3 119.399C308.9 119.699 309.2 120.299 309.4 120.799C309.6 121.399 309.4 121.999 309.2 122.499C309 122.999 308.7 123.499 308.4 123.899L308.3 123.599C309.1 123.799 309.9 124.099 310.6 124.499C310.9 124.699 311.2 124.899 311.4 125.399C311.5 125.799 311.4 126.199 311.3 126.499C310.8 127.799 310.1 128.599 309.4 129.299C308.8 129.999 308.1 130.299 307.6 130.299C307.4 130.299 307.2 130.299 307 130.299C306.9 130.399 306.8 130.399 306.9 130.399C306.9 130.399 307.1 130.499 307.6 130.399C308.1 130.399 308.7 129.999 309.3 129.299C309.9 128.599 310.6 127.699 311 126.499C311.1 126.199 311.1 125.899 311 125.599C310.9 125.299 310.6 125.099 310.3 124.899C309.7 124.499 308.9 124.299 308.1 124.099L307.8 123.999L308 123.799C308.5 122.999 309.1 121.999 308.9 120.999C308.7 120.499 308.4 119.999 307.9 119.799C307.4 119.599 306.8 119.499 306.3 119.699L305.8 119.899L306.1 119.399C306.6 118.499 306.5 117.199 306.1 116.099C305.9 115.599 305.5 115.099 305 114.899C304.4 114.599 303.8 114.399 303.2 114.099L302.9 113.999L303 113.799C303.5 112.999 303.8 111.899 303.4 110.899C303.1 109.899 302.2 109.199 301.2 108.799C300.2 108.399 299.1 108.199 297.9 108.399C296.8 108.599 295.7 109.099 295 109.899V109.499C295.4 109.899 295.8 110.299 296.2 110.699C296.6 111.099 297 111.599 297.3 112.099C297.6 112.599 297.9 113.199 297.7 113.899V113.999L297.6 114.099C295.8 115.399 294 116.799 292.7 118.499C292.1 119.299 291.6 120.399 292.1 121.099C292.4 121.499 292.7 121.799 293.1 121.999C293.5 122.199 294 122.199 294.3 121.999L295.7 121.299L294.6 122.399C294.1 122.899 293.6 123.599 293.5 124.199C293.5 124.799 294.2 125.299 294.8 125.399C295.5 125.599 296.2 125.599 296.8 125.299C297.4 124.999 298 124.699 298.6 124.299L299 124.099L298.9 124.599C298.7 125.399 298.8 126.399 299.4 126.799C300 127.299 300.9 127.399 301.6 127.199C302.3 126.999 302.9 126.499 303.5 126.099C304.1 125.699 304.6 125.399 305.1 124.999L305.3 124.899V125.099C305.4 125.599 305.5 125.999 305.5 126.399V126.499C305.1 126.999 305 127.699 305.1 128.199C305.2 128.699 305.5 129.099 305.7 129.399C306.5 130.099 306.9 130.299 306.9 130.399Z" fill="#FFBF9D"/>
<path d="M303.802 113.199C303.902 113.199 303.802 113.899 303.302 114.999C302.802 116.099 301.902 117.399 300.502 118.599C299.202 119.799 297.802 120.599 296.802 121.199C295.802 121.799 295.102 122.099 295.102 121.999C295.102 121.899 295.602 121.499 296.602 120.899C297.602 120.299 298.902 119.399 300.202 118.199C301.502 117.099 302.402 115.799 303.002 114.799C303.502 113.899 303.702 113.199 303.802 113.199Z" fill="#FF9A6C"/>
<path d="M306.399 119.2C306.499 119.2 306.299 119.8 305.599 120.4C304.899 121 303.899 121.6 302.799 122.4C300.599 123.9 298.7 125 298.7 124.9C298.6 124.8 300.299 123.5 302.599 122C303.699 121.3 304.699 120.6 305.499 120.2C306.099 119.6 306.399 119.1 306.399 119.2Z" fill="#FF9A6C"/>
<path d="M308.499 123.901C308.599 124.001 307.999 124.601 306.999 125.001C306.099 125.401 305.199 125.501 305.199 125.301C305.199 125.201 305.899 124.901 306.799 124.501C307.699 124.101 308.399 123.701 308.499 123.901Z" fill="#FF9A6C"/>
<path d="M307.999 125.298C307.999 125.398 307.299 125.598 306.599 126.098C305.899 126.598 305.499 127.198 305.399 127.098C305.299 127.098 305.499 126.198 306.299 125.698C307.199 125.098 307.999 125.198 307.999 125.298Z" fill="#FF9A6C"/>
</g>
<defs>
<clipPath id="clip0_609_18441">
<rect width="382.1" height="425.2" fill="white"/>
</clipPath>
</defs>
</svg>
