<svg width="303" height="180" viewBox="0 0 303 180" fill="none" xmlns="http://www.w3.org/2000/svg">
    <g clip-path="url(#clip0_381_341)">
        <path d="M67.8127 126.107L82.2318 128.412L81.2121 125.948L69.6141 119.482L67.8127 126.107Z" fill="#324C8E" />
        <path d="M75.9853 111.516L55.9255 147.148C54.9843 148.816 52.6347 148.972 51.4846 147.423L12.1836 94.8359C10.9048 93.1168 12.0469 90.6615 14.1785 90.5743L84.8866 87.3391C86.9729 87.2512 88.3576 89.4941 87.3327 91.3248L75.9853 111.516Z" fill="#005DA4" />
        <path d="M22.5308 97.1646L70.3411 121.542L82.0115 128.332C82.8737 128.782 83.8136 127.867 83.387 126.993L75.8821 111.714L22.5308 97.1646Z" fill="#F2F2F2" />
        <path d="M309.05 106.812C309.104 106.795 309.141 106.768 309.191 106.737C309.369 106.591 309.405 106.323 309.254 106.13C308.978 105.781 308.702 105.431 308.417 105.099C308.271 104.92 307.991 104.888 307.812 105.035C307.634 105.182 307.603 105.463 307.75 105.642C308.021 105.978 308.31 106.323 308.581 106.659C308.706 106.816 308.886 106.864 309.05 106.812ZM218.782 135.037C218.795 135.033 218.795 135.033 218.809 135.028C219.355 134.81 219.91 134.575 220.443 134.316C220.652 134.219 220.751 133.962 220.65 133.738C220.553 133.527 220.297 133.428 220.074 133.529C219.554 133.783 219.027 134.011 218.49 134.21C218.263 134.297 218.16 134.541 218.247 134.769C218.335 134.998 218.564 135.106 218.782 135.037ZM214.559 136.193C214.764 136.128 214.893 135.921 214.856 135.707C214.813 135.48 214.594 135.308 214.354 135.354C213.796 135.44 213.221 135.517 212.655 135.575C212.419 135.59 212.249 135.809 212.264 136.046C212.279 136.282 212.498 136.454 212.733 136.439C213.331 136.386 213.92 136.305 214.505 136.21C214.518 136.206 214.532 136.201 214.559 136.193ZM224.151 132.103C224.191 132.09 224.232 132.077 224.269 132.05C224.744 131.704 225.215 131.344 225.681 130.97C225.86 130.823 225.891 130.542 225.744 130.363C225.597 130.184 225.317 130.152 225.139 130.298C224.686 130.668 224.229 131.023 223.777 131.347C223.58 131.485 223.545 131.752 223.682 131.95C223.775 132.101 223.973 132.159 224.151 132.103ZM208.437 136.413C208.6 136.362 208.72 136.218 208.736 136.033C208.753 135.801 208.579 135.585 208.349 135.568C207.78 135.522 207.202 135.449 206.633 135.358C206.398 135.326 206.179 135.486 206.149 135.722C206.118 135.957 206.278 136.178 206.513 136.209C207.095 136.296 207.7 136.36 208.287 136.416C208.328 136.448 208.382 136.431 208.437 136.413ZM228.725 128.034C228.793 128.012 228.857 127.977 228.912 127.914C229.303 127.489 229.702 127.046 230.098 126.59C230.25 126.406 230.226 126.143 230.056 125.986C229.887 125.828 229.61 125.856 229.454 126.025C229.068 126.464 228.682 126.902 228.306 127.323C228.149 127.493 228.146 127.765 228.32 127.936C228.413 128.042 228.589 128.077 228.725 128.034ZM182.226 141.953C182.458 141.88 182.578 141.646 182.505 141.413C182.431 141.18 182.198 141.058 181.966 141.132C181.421 141.304 180.858 141.467 180.304 141.612C180.081 141.668 179.933 141.911 180.007 142.143C180.067 142.38 180.305 142.516 180.537 142.443C181.104 142.293 181.667 142.13 182.226 141.953ZM186.327 140.414C186.341 140.41 186.354 140.405 186.368 140.401C186.682 140.256 187.01 140.108 187.324 139.963C187.547 139.862 187.752 139.752 187.971 139.638C188.176 139.528 188.26 139.275 188.164 139.064C188.054 138.858 187.802 138.772 187.592 138.869C187.387 138.979 187.178 139.075 186.968 139.172C186.654 139.316 186.34 139.461 186.026 139.605C185.817 139.702 185.718 139.959 185.801 140.174C185.898 140.384 186.123 140.479 186.327 140.414ZM202.428 135.242C202.564 135.199 202.665 135.092 202.713 134.957C202.775 134.726 202.656 134.493 202.422 134.416C201.876 134.257 201.323 134.071 200.778 133.867C200.558 133.786 200.307 133.895 200.232 134.13C200.152 134.351 200.261 134.603 200.496 134.679C201.054 134.879 201.625 135.075 202.188 135.243C202.256 135.267 202.346 135.268 202.428 135.242ZM176.263 143.389C176.467 143.324 176.597 143.117 176.559 142.903C176.517 142.676 176.298 142.504 176.057 142.55C175.504 142.65 174.915 142.731 174.344 142.821C174.113 142.849 173.942 143.069 173.975 143.314C174.004 143.546 174.223 143.718 174.468 143.686C175.057 143.605 175.641 143.51 176.213 143.42C176.235 143.397 176.249 143.393 176.263 143.389ZM305.31 102.483C305.365 102.466 305.429 102.43 305.474 102.386C305.648 102.225 305.652 101.953 305.492 101.778C305.086 101.349 304.681 100.92 304.266 100.509C304.092 100.338 303.825 100.347 303.664 100.503C303.494 100.678 303.504 100.946 303.66 101.107C304.062 101.522 304.477 101.933 304.869 102.366C304.984 102.496 305.16 102.53 305.31 102.483ZM191.683 137.438C191.724 137.426 191.764 137.413 191.801 137.386C192.281 137.053 192.774 136.717 193.245 136.357C193.441 136.219 193.472 135.938 193.325 135.759C193.188 135.561 192.908 135.529 192.729 135.676C192.268 136.018 191.793 136.364 191.322 136.679C191.126 136.816 191.073 137.074 191.21 137.272C191.307 137.437 191.506 137.495 191.683 137.438ZM170.174 144.096C170.365 144.035 170.489 143.86 170.47 143.656C170.455 143.419 170.249 143.243 170.014 143.258C169.443 143.303 168.864 143.32 168.276 143.356C168.04 143.37 167.861 143.562 167.862 143.803C167.877 144.039 168.069 144.22 168.309 144.219C168.902 144.197 169.49 144.162 170.065 144.13C170.106 144.117 170.147 144.104 170.174 144.096ZM232.582 123.258C232.664 123.232 232.75 123.175 232.801 123.098C233.133 122.632 233.47 122.133 233.794 121.639C233.928 121.446 233.872 121.178 233.666 121.047C233.474 120.912 233.206 120.967 233.076 121.173C232.753 121.667 232.425 122.148 232.093 122.614C231.959 122.807 232.001 123.08 232.193 123.215C232.315 123.267 232.459 123.297 232.582 123.258ZM164.043 144.244C164.22 144.188 164.336 144.031 164.347 143.831C164.346 143.59 164.164 143.392 163.924 143.393C163.354 143.392 162.766 143.383 162.174 143.359C161.934 143.36 161.737 143.543 161.738 143.783C161.74 144.024 161.922 144.222 162.162 144.222C162.768 144.241 163.356 144.25 163.926 144.251C163.948 144.274 164.002 144.257 164.043 144.244ZM196.445 133.581C196.499 133.564 196.563 133.529 196.609 133.484C197.035 133.078 197.453 132.645 197.857 132.216C198.013 132.046 198.016 131.773 197.842 131.603C197.673 131.445 197.401 131.441 197.232 131.615C197.076 131.785 196.915 131.941 196.759 132.111C196.256 131.849 195.753 131.586 195.273 131.301C195.071 131.184 194.808 131.253 194.692 131.455C194.576 131.657 194.645 131.922 194.847 132.039C195.268 132.282 195.69 132.525 196.121 132.75C196.089 132.79 196.053 132.817 196.02 132.857C195.846 133.018 195.843 133.29 196.003 133.465C196.132 133.59 196.295 133.629 196.445 133.581ZM157.909 144.001C158.072 143.949 158.192 143.806 158.208 143.62C158.225 143.389 158.038 143.177 157.807 143.16C157.225 143.118 156.642 143.077 156.059 143.035C155.828 143.018 155.613 143.191 155.601 143.436C155.584 143.668 155.758 143.884 156.002 143.897C156.584 143.938 157.167 143.98 157.75 144.021C157.8 144.036 157.854 144.018 157.909 144.001ZM300.873 98.2234C300.941 98.2019 301.019 98.1623 301.07 98.086C301.221 97.9024 301.198 97.6387 301.028 97.4815C300.577 97.0972 300.125 96.7129 299.664 96.3466C299.481 96.1937 299.205 96.2209 299.057 96.4182C298.906 96.6019 298.933 96.8793 299.13 97.0278C299.573 97.3847 300.025 97.769 300.472 98.1396C300.593 98.237 300.737 98.2666 300.873 98.2234ZM235.852 118.051C235.947 118.02 236.029 117.949 236.09 117.855C236.372 117.374 236.646 116.865 236.952 116.317C237.068 116.114 236.999 115.85 236.784 115.737C236.582 115.62 236.319 115.689 236.207 115.905C235.901 116.453 235.623 116.948 235.34 117.429C235.224 117.632 235.293 117.896 235.495 118.013C235.621 118.079 235.743 118.085 235.852 118.051ZM200.48 128.945C200.562 128.919 200.635 128.866 200.699 128.785C201.045 128.314 201.382 127.816 201.706 127.322C201.839 127.129 201.784 126.86 201.578 126.73C201.385 126.595 201.118 126.649 200.988 126.856C200.674 127.332 200.333 127.817 200.001 128.283C199.867 128.476 199.908 128.75 200.087 128.889C200.217 128.968 200.357 128.984 200.48 128.945ZM151.787 143.514C151.95 143.462 152.07 143.319 152.09 143.147C152.107 142.915 151.934 142.699 151.703 142.682C151.116 142.626 150.543 142.567 149.955 142.512C149.721 142.481 149.51 142.668 149.493 142.899C149.476 143.13 149.65 143.347 149.88 143.364C150.467 143.419 151.041 143.479 151.628 143.534C151.678 143.548 151.732 143.531 151.787 143.514ZM191.532 129.668C191.614 129.642 191.687 129.589 191.752 129.509C191.886 129.316 191.848 129.056 191.665 128.903C191.213 128.564 190.739 128.202 190.291 127.832C190.108 127.679 189.832 127.706 189.68 127.89C189.528 128.073 189.556 128.351 189.739 128.504C190.204 128.884 190.665 129.25 191.135 129.598C191.252 129.682 191.41 129.707 191.532 129.668ZM145.68 142.886C145.83 142.838 145.95 142.695 145.97 142.523C146.001 142.287 145.827 142.071 145.593 142.04C145.015 141.967 144.427 141.912 143.85 141.839C143.615 141.807 143.4 141.981 143.369 142.216C143.339 142.452 143.512 142.668 143.747 142.699C144.325 142.773 144.917 142.841 145.49 142.901C145.571 142.92 145.626 142.903 145.68 142.886ZM238.825 112.666C238.934 112.631 239.017 112.56 239.077 112.466C239.351 111.957 239.634 111.431 239.908 110.922C240.024 110.72 239.941 110.46 239.74 110.343C239.538 110.226 239.279 110.308 239.163 110.51C238.875 111.023 238.606 111.545 238.332 112.054C238.22 112.27 238.298 112.516 238.5 112.633C238.594 112.694 238.716 112.7 238.825 112.666ZM295.99 94.497C296.086 94.4668 296.159 94.4135 296.219 94.3192C296.353 94.1262 296.298 93.8574 296.105 93.7226C295.612 93.3966 295.119 93.0706 294.617 92.7627C294.41 92.6321 294.147 92.7004 294.031 92.9028C293.902 93.1094 293.97 93.3739 294.172 93.4907C294.657 93.7893 295.15 94.1153 295.638 94.4276C295.741 94.5155 295.881 94.5315 295.99 94.497ZM203.664 123.705C203.773 123.67 203.869 123.594 203.925 123.486C204.19 122.951 204.438 122.405 204.671 121.864C204.765 121.639 204.66 121.401 204.448 121.302C204.237 121.204 203.983 121.299 203.889 121.525C203.665 122.047 203.413 122.579 203.157 123.097C203.059 123.309 203.142 123.569 203.353 123.668C203.447 123.728 203.569 123.735 203.664 123.705ZM139.594 142.131C139.744 142.084 139.868 141.954 139.888 141.782C139.919 141.546 139.759 141.326 139.524 141.295C138.946 141.221 138.364 141.135 137.786 141.062C137.551 141.03 137.332 141.19 137.301 141.426C137.271 141.661 137.431 141.882 137.666 141.913C138.248 142 138.826 142.073 139.408 142.16C139.467 142.156 139.526 142.153 139.594 142.131ZM186.907 125.619C186.975 125.598 187.025 125.567 187.085 125.518C187.259 125.357 187.258 125.071 187.089 124.914C186.687 124.499 186.282 124.07 185.908 123.646C185.747 123.471 185.472 123.453 185.298 123.613C185.123 123.774 185.106 124.05 185.266 124.226C185.659 124.659 186.068 125.101 186.488 125.526C186.581 125.632 186.757 125.667 186.907 125.619ZM241.799 107.281C241.895 107.251 241.977 107.18 242.037 107.085C242.338 106.568 242.644 106.065 242.926 105.584C243.042 105.381 242.987 105.113 242.785 104.996C242.579 104.865 242.316 104.933 242.2 105.136C241.904 105.621 241.598 106.125 241.301 106.655C241.185 106.858 241.254 107.122 241.456 107.239C241.568 107.309 241.69 107.316 241.799 107.281ZM133.509 141.24C133.659 141.193 133.783 141.063 133.803 140.891C133.834 140.655 133.674 140.435 133.453 140.399C132.871 140.313 132.302 140.221 131.729 140.117C131.494 140.085 131.271 140.232 131.24 140.467C131.21 140.703 131.356 140.928 131.591 140.959C132.173 141.046 132.746 141.15 133.328 141.237C133.382 141.265 133.455 141.258 133.509 141.24ZM290.668 91.4215C290.777 91.387 290.874 91.3114 290.929 91.2033C291.027 90.9916 290.945 90.7315 290.734 90.6326C290.203 90.3787 289.66 90.129 289.12 89.8931C288.895 89.7986 288.659 89.9036 288.561 90.1153C288.467 90.3408 288.572 90.5786 288.784 90.6774C289.305 90.904 289.845 91.14 290.361 91.3982C290.455 91.4588 290.559 91.456 290.668 91.4215ZM205.851 117.966C205.988 117.923 206.089 117.816 206.132 117.667C206.293 117.088 206.441 116.514 206.558 115.935C206.606 115.709 206.456 115.47 206.23 115.421C206.005 115.372 205.768 115.522 205.719 115.749C205.598 116.314 205.46 116.87 205.307 117.43C205.245 117.661 205.378 117.89 205.612 117.967C205.693 117.986 205.783 117.988 205.851 117.966ZM127.454 140.205C127.603 140.157 127.714 140.032 127.752 139.869C127.796 139.629 127.636 139.409 127.397 139.364C126.824 139.259 126.251 139.154 125.678 139.049C125.439 139.004 125.22 139.164 125.172 139.39C125.128 139.63 125.287 139.851 125.513 139.9C126.086 140.005 126.659 140.11 127.245 140.21C127.327 140.23 127.399 140.222 127.454 140.205ZM245.109 102.106C245.191 102.08 245.278 102.023 245.329 101.946C245.67 101.462 246.016 100.991 246.357 100.551C246.508 100.368 246.467 100.095 246.284 99.9419C246.1 99.789 245.828 99.8299 245.677 100.014C245.326 100.471 244.967 100.946 244.626 101.431C244.492 101.624 244.533 101.897 244.726 102.032C244.847 102.129 244.987 102.145 245.109 102.106ZM284.951 89.1793C285.087 89.1361 285.188 89.0289 285.235 88.8934C285.297 88.6629 285.178 88.4294 284.944 88.3529C284.381 88.1847 283.804 88.0208 283.232 87.8705C283.002 87.8077 282.765 87.9581 282.717 88.1843C282.655 88.4148 282.805 88.6534 283.03 88.7025C283.585 88.8434 284.144 88.9979 284.707 89.1662C284.796 89.213 284.869 89.2052 284.951 89.1793ZM182.942 120.909C182.983 120.896 183.024 120.883 183.056 120.843C183.253 120.706 183.288 120.438 183.151 120.241C182.809 119.777 182.49 119.29 182.171 118.804C182.047 118.602 181.776 118.552 181.576 118.676C181.379 118.813 181.326 119.071 181.45 119.273C181.773 119.773 182.106 120.255 182.456 120.747C182.581 120.903 182.779 120.961 182.942 120.909ZM121.436 139.052C121.586 139.004 121.696 138.879 121.725 138.734C121.769 138.494 121.623 138.269 121.384 138.224C120.807 138.106 120.243 137.983 119.666 137.865C119.44 137.815 119.203 137.966 119.154 138.192C119.106 138.418 119.257 138.657 119.482 138.706C120.059 138.824 120.623 138.947 121.2 139.066C121.291 139.067 121.368 139.073 121.436 139.052ZM206.903 111.909C207.067 111.858 207.186 111.714 207.203 111.528C207.242 110.943 207.273 110.331 207.282 109.741C207.28 109.5 207.098 109.302 206.858 109.303C206.618 109.303 206.421 109.486 206.422 109.727C206.41 110.303 206.384 110.884 206.34 111.455C206.323 111.686 206.496 111.903 206.74 111.916C206.804 111.926 206.862 111.922 206.903 111.909ZM249.051 97.4092C249.105 97.3919 249.169 97.3566 249.215 97.312C249.627 96.9103 250.058 96.5179 250.497 96.1529C250.676 96.0061 250.693 95.7294 250.546 95.5499C250.4 95.3704 250.124 95.3523 249.945 95.4991C249.497 95.8821 249.057 96.2925 248.631 96.6985C248.457 96.8591 248.453 97.1314 248.613 97.3066C248.725 97.4219 248.901 97.4566 249.051 97.4092ZM278.962 87.8814C279.112 87.834 279.236 87.7044 279.256 87.5322C279.287 87.2966 279.127 87.0761 278.879 87.0493C278.301 86.9761 277.695 86.9116 277.108 86.8564C276.878 86.839 276.663 87.0125 276.646 87.2437C276.629 87.475 276.803 87.6912 277.033 87.7087C277.602 87.7545 278.194 87.8233 278.758 87.9007C278.849 87.9022 278.908 87.8987 278.962 87.8814ZM115.42 137.762C115.556 137.719 115.671 137.608 115.709 137.445C115.758 137.219 115.621 136.976 115.382 136.931C114.814 136.794 114.25 136.671 113.668 136.539C113.443 136.49 113.201 136.627 113.157 136.867C113.109 137.093 113.246 137.336 113.485 137.381C114.053 137.517 114.634 137.649 115.198 137.772C115.275 137.778 115.352 137.784 115.42 137.762ZM253.857 93.5983C253.898 93.5853 253.925 93.5767 253.962 93.5501C254.446 93.2312 254.934 92.9261 255.426 92.6346C255.627 92.5108 255.694 92.2486 255.584 92.0425C255.46 91.8407 255.198 91.7728 254.993 91.8829C254.487 92.1787 253.972 92.4924 253.488 92.8113C253.287 92.9351 253.238 93.2066 253.362 93.4085C253.482 93.5966 253.68 93.6543 253.857 93.5983ZM272.842 87.5892C273.019 87.5331 273.144 87.3582 273.142 87.1629C273.127 86.9266 272.935 86.7464 272.695 86.7469C272.102 86.7689 271.514 86.8045 270.93 86.8538C270.694 86.8681 270.524 87.0877 270.539 87.324C270.554 87.5603 270.773 87.732 271.008 87.7177C271.579 87.6727 272.167 87.6371 272.742 87.6057C272.769 87.5971 272.801 87.6022 272.842 87.5892ZM259.252 90.7006C259.266 90.6962 259.28 90.6919 259.293 90.6876C259.821 90.4603 260.363 90.2287 260.899 90.0287C261.126 89.9417 261.229 89.6983 261.142 89.4698C261.055 89.2414 260.812 89.1375 260.585 89.2245C260.034 89.4288 259.479 89.6647 258.938 89.8963C258.728 89.9927 258.626 90.2362 258.713 90.4646C258.819 90.657 259.048 90.7653 259.252 90.7006ZM266.758 88.31C266.962 88.2453 267.091 88.0386 267.049 87.8109C267.007 87.5832 266.779 87.4296 266.538 87.4756C265.962 87.5977 265.373 87.7241 264.805 87.8736C264.569 87.9332 264.435 88.1716 264.49 88.395C264.546 88.6183 264.788 88.7676 265.011 88.7123C265.564 88.5671 266.141 88.445 266.703 88.3272C266.73 88.3186 266.744 88.3143 266.758 88.31ZM179.736 115.658C179.763 115.649 179.777 115.645 179.804 115.636C180.009 115.526 180.094 115.273 179.993 115.049C179.724 114.532 179.469 114.01 179.228 113.484C179.131 113.274 178.875 113.174 178.665 113.27C178.456 113.367 178.357 113.624 178.458 113.848C178.704 114.388 178.963 114.923 179.237 115.454C179.32 115.624 179.545 115.718 179.736 115.658ZM206.753 105.751C206.944 105.69 207.078 105.497 207.045 105.297C206.976 104.701 206.88 104.114 206.784 103.527C206.742 103.299 206.523 103.128 206.282 103.173C206.042 103.219 205.885 103.435 205.932 103.676C206.037 104.245 206.115 104.823 206.188 105.387C206.217 105.619 206.436 105.791 206.667 105.763C206.712 105.764 206.726 105.759 206.753 105.751ZM109.451 136.338C109.587 136.295 109.702 136.183 109.745 136.034C109.807 135.803 109.656 135.565 109.431 135.516C108.863 135.379 108.29 135.229 107.736 135.088C107.506 135.025 107.269 135.176 107.221 135.402C107.172 135.628 107.309 135.871 107.535 135.92C108.107 136.07 108.675 136.207 109.243 136.343C109.293 136.358 109.383 136.359 109.451 136.338ZM103.502 134.786C103.638 134.743 103.753 134.631 103.782 134.487C103.844 134.256 103.712 134.027 103.482 133.964C102.923 133.81 102.351 133.659 101.788 133.491C101.558 133.428 101.33 133.561 101.254 133.796C101.192 134.026 101.325 134.255 101.559 134.332C102.118 134.486 102.694 134.65 103.253 134.805C103.344 134.806 103.434 134.808 103.502 134.786ZM177.354 109.98C177.586 109.907 177.702 109.659 177.628 109.426C177.559 109.207 177.494 109.002 177.425 108.783C177.316 108.44 177.212 108.112 177.118 107.765C177.044 107.532 176.81 107.411 176.588 107.466C176.352 107.525 176.236 107.773 176.291 107.997C176.386 108.343 176.499 108.699 176.607 109.041C176.676 109.261 176.746 109.48 176.815 109.699C176.884 109.918 177.122 110.053 177.354 109.98ZM205.452 99.7457C205.684 99.6724 205.805 99.4383 205.731 99.2056C205.554 98.6442 205.358 98.0735 205.153 97.5208C205.066 97.2924 204.823 97.1885 204.596 97.2755C204.368 97.3625 204.265 97.606 204.353 97.8344C204.553 98.3734 204.744 98.9305 204.918 99.4781C204.983 99.6835 205.234 99.8148 205.452 99.7457ZM97.6003 133.099C97.7366 133.056 97.8376 132.949 97.8847 132.814C97.9467 132.583 97.8278 132.35 97.5937 132.273C97.0306 132.105 96.4676 131.937 95.9182 131.764C95.6884 131.701 95.456 131.82 95.3804 132.055C95.3184 132.285 95.4373 132.519 95.6715 132.595C96.2345 132.763 96.7975 132.932 97.3606 133.1C97.4281 133.124 97.5186 133.125 97.6003 133.099ZM91.732 131.281C91.8546 131.243 91.9736 131.145 92.0164 130.996C92.092 130.761 91.9595 130.532 91.739 130.451C91.1852 130.265 90.6222 130.096 90.0684 129.91C89.8479 129.829 89.6019 129.952 89.5263 130.187C89.4507 130.422 89.5696 130.655 89.8037 130.732C90.3575 130.918 90.9249 131.1 91.4743 131.273C91.5598 131.306 91.6502 131.307 91.732 131.281ZM175.84 104.012C176.044 103.948 176.174 103.741 176.136 103.527C176.044 102.953 175.953 102.38 175.875 101.802C175.846 101.57 175.627 101.398 175.396 101.426C175.165 101.454 174.995 101.674 175.023 101.906C175.101 102.484 175.183 103.075 175.279 103.662C175.321 103.89 175.541 104.062 175.781 104.016C175.813 104.021 175.826 104.017 175.84 104.012ZM203.057 94.0721C203.084 94.0635 203.111 94.0548 203.134 94.0325C203.339 93.9224 203.42 93.6559 203.31 93.4498C203.023 92.9229 202.727 92.4141 202.431 91.9053C202.307 91.7035 202.046 91.6356 201.845 91.7594C201.644 91.8831 201.577 92.1454 201.701 92.3472C202.006 92.838 202.289 93.3511 202.567 93.8506C202.645 94.0516 202.866 94.1325 203.057 94.0721ZM175.292 97.8744C175.469 97.8183 175.598 97.657 175.596 97.4618C175.59 96.876 175.603 96.2997 175.615 95.7233C175.628 95.4784 175.445 95.2801 175.205 95.2807C174.961 95.2676 174.764 95.4504 174.765 95.6911C174.744 96.2854 174.735 96.8755 174.745 97.4749C174.746 97.7155 174.943 97.9095 175.178 97.8952C175.21 97.9003 175.251 97.8873 175.292 97.8744ZM199.65 88.9446C199.704 88.9273 199.741 88.9007 199.791 88.8697C199.969 88.7229 200 88.4419 199.853 88.2624C199.484 87.8069 199.084 87.3462 198.692 86.913C198.531 86.7378 198.256 86.7196 198.081 86.8802C197.907 87.0407 197.89 87.3174 198.05 87.4925C198.438 87.9121 198.821 88.3633 199.186 88.8052C199.306 88.948 199.486 88.9963 199.65 88.9446ZM175.765 91.7444C175.915 91.6969 176.026 91.5717 176.05 91.4132C176.153 90.8383 176.288 90.2685 176.435 89.7398C176.497 89.5093 176.365 89.2801 176.135 89.2173C175.905 89.1545 175.677 89.2869 175.615 89.5174C175.463 90.0778 175.319 90.6656 175.211 91.2721C175.167 91.512 175.327 91.7326 175.552 91.7817C175.638 91.7695 175.711 91.7616 175.765 91.7444ZM195.295 84.614C195.377 84.5881 195.45 84.5348 195.505 84.4722C195.657 84.2886 195.615 84.0155 195.432 83.8626C194.953 83.487 194.47 83.143 193.977 82.817C193.77 82.6865 193.516 82.7368 193.387 82.9434C193.257 83.1501 193.308 83.4052 193.514 83.5357C193.985 83.8386 194.455 84.1869 194.912 84.5395C195.019 84.6412 195.159 84.6571 195.295 84.614ZM177.835 85.9678C177.931 85.9376 178.013 85.8663 178.073 85.772C178.365 85.2729 178.697 84.8062 179.029 84.385C179.181 84.2014 179.153 83.924 178.969 83.7711C178.786 83.6183 178.51 83.6455 178.358 83.8291C177.994 84.2907 177.644 84.7933 177.333 85.3284C177.217 85.5308 177.286 85.7952 177.488 85.9121C177.591 86 177.713 86.0066 177.835 85.9678ZM189.935 81.6559C190.058 81.6171 190.163 81.5235 190.211 81.3881C190.29 81.1669 190.167 80.9197 189.933 80.8432C189.348 80.6519 188.757 80.4923 188.18 80.3738C187.941 80.329 187.722 80.4888 187.673 80.715C187.629 80.9548 187.789 81.1754 188.015 81.2245C188.556 81.3243 189.101 81.4832 189.65 81.6557C189.75 81.6846 189.84 81.6861 189.935 81.6559ZM182.239 81.8324C182.253 81.8281 182.28 81.8195 182.294 81.8151C182.335 81.8022 182.371 81.7756 182.412 81.7626C182.885 81.5526 183.372 81.3836 183.875 81.2694C184.111 81.2097 184.25 80.985 184.19 80.748C184.13 80.5109 183.906 80.371 183.67 80.4306C183.125 80.5578 182.585 80.744 182.061 80.985C182.02 80.998 181.984 81.0246 181.929 81.0419C181.72 81.1383 181.621 81.3954 181.722 81.6195C181.81 81.8026 182.035 81.8971 182.239 81.8324Z" fill="#005DA4" />
    </g>
    <defs>
        <clipPath id="clip0_381_341">
            <rect width="280" height="116.881" fill="white" transform="matrix(-0.953384 0.301761 0.301761 0.953384 266.947 0)" />
        </clipPath>
    </defs>
</svg>