<svg width="348" height="259" viewBox="0 0 348 259" fill="none" xmlns="http://www.w3.org/2000/svg">
    <g clip-path="url(#clip0_382_494)">
        <path d="M348 227.581H0V227.72H348V227.581Z" fill="#E5E7EB" />
        <path d="M262.879 234.949H238.937V235.088H262.879V234.949Z" fill="#E5E7EB" />
        <path d="M77.3256 235.088H63.8232V235.227H77.3256V235.088Z" fill="#E5E7EB" />
        <path d="M174.696 234.67H147.413V234.809H174.696V234.67Z" fill="#E5E7EB" />
        <path d="M146.648 232.168H134.468V232.307H146.648V232.168Z" fill="#E5E7EB" />
        <path d="M295.522 232.237H258.634V232.376H295.522V232.237Z" fill="#E5E7EB" />
        <path d="M164.952 196.579H30.5541C28.3965 196.579 26.5869 194.771 26.5869 192.617V3.96216C26.5869 1.8073 28.3965 0 30.5541 0H164.952C167.109 0 168.919 1.8073 168.919 3.96216V192.617C168.919 194.841 167.179 196.579 164.952 196.579ZM30.5541 0.139023C28.4661 0.139023 26.7261 1.8073 26.7261 3.96216V192.617C26.7261 194.702 28.3965 196.44 30.5541 196.44H164.952C167.04 196.44 168.78 194.771 168.78 192.617V3.96216C168.78 1.87681 167.109 0.139023 164.952 0.139023H30.5541Z" fill="#E5E7EB" />
        <path d="M315.497 196.579H181.099C178.941 196.579 177.132 194.771 177.132 192.617V3.96216C177.132 1.8073 178.941 0 181.099 0H315.497C317.654 0 319.464 1.8073 319.464 3.96216V192.617C319.464 194.841 317.724 196.579 315.497 196.579ZM181.099 0.139023C179.011 0.139023 177.271 1.8073 177.271 3.96216V192.617C177.271 194.702 178.941 196.44 181.099 196.44H315.497C317.585 196.44 319.325 194.771 319.325 192.617V3.96216C319.325 1.87681 317.654 0.139023 315.497 0.139023H181.099Z" fill="#E5E7EB" />
        <path d="M305.753 140.621C297.192 127.622 304.987 113.581 303.734 99.1225C302.412 84.6641 288.631 81.4666 291.276 69.2325C294.269 54.9827 286.265 41.3584 277.147 41.3584C268.03 41.3584 259.956 55.0522 263.018 69.2325C265.594 81.5361 251.813 84.6641 250.56 99.1225C249.238 113.581 257.103 127.622 248.542 140.621C239.981 153.62 242.208 170.858 247.08 179.408C248.402 181.772 250.003 183.857 251.674 185.664C265.385 200.47 289.118 200.47 302.83 185.664C304.57 183.788 306.101 181.702 307.423 179.408C312.087 170.858 314.314 153.62 305.753 140.621Z" fill="#CFF5D0" />
        <path d="M281.393 227.58H272.763V154.801C272.763 152.438 274.712 150.491 277.078 150.491C279.444 150.491 281.393 152.438 281.393 154.801V227.58Z" fill="#E5E7EB" />
        <path d="M222.651 227.581H210.889V154.802C210.889 151.535 213.533 148.894 216.805 148.894C220.076 148.894 222.721 151.535 222.721 154.802V227.581H222.651Z" fill="#E5E7EB" />
        <path d="M216.735 207.978C236.8 207.978 253.066 191.733 253.066 171.693C253.066 151.654 236.8 135.408 216.735 135.408C196.669 135.408 180.403 151.654 180.403 171.693C180.403 191.733 196.669 207.978 216.735 207.978Z" fill="#CFF5D0" />
        <path d="M259.445 160.835C261.354 153.16 256.672 145.392 248.987 143.486C241.303 141.579 233.525 146.255 231.616 153.93C229.707 161.605 234.389 169.373 242.074 171.28C249.759 173.186 257.536 168.51 259.445 160.835Z" fill="#F0F0F0" />
        <path d="M52.4744 49.5677C54.2144 44.4933 52.8224 40.9482 48.5768 40.9482C45.932 40.9482 42.6608 42.3385 39.4592 44.6323C39.1112 43.3116 38.0672 42.547 36.4664 42.547C33.6128 42.547 29.6456 44.9799 26.5136 48.386C25.748 47.6213 24.704 47.1348 23.2424 47.0652C20.4584 46.9262 17.1176 48.3165 14.264 50.6103C13.9856 50.2628 13.568 49.9847 13.0112 49.9847C11.4104 49.9152 9.2528 51.3055 8.2088 53.1128C8.1392 53.2518 8.0696 53.3213 8 53.4603H11.2712H13.916H23.0336H27.488H30.968H36.3272H37.3016H50.5952H53.24C53.4488 51.8616 53.1704 50.4713 52.4744 49.5677Z" fill="#F0F0F0" />
        <path d="M174 259C248.534 259 308.955 255.483 308.955 251.145C308.955 246.807 248.534 243.29 174 243.29C99.467 243.29 39.0459 246.807 39.0459 251.145C39.0459 255.483 99.467 259 174 259Z" fill="#E5E7EB" />
        <path d="M182.074 30.5145L191.261 73.6117C191.748 75.9751 190.287 78.2689 187.92 78.7555L105.723 96.2724C103.356 96.759 101.059 95.2993 100.572 92.9359L91.385 49.8387C91.1066 48.5875 91.385 47.4058 92.081 46.4327C92.7074 45.5985 93.6122 44.9034 94.7258 44.6949L176.923 27.178C178.037 26.9694 179.151 27.178 180.055 27.734C181.03 28.2901 181.795 29.3328 182.074 30.5145Z" fill="#407BFF" />
        <path d="M182.074 30.5145L191.261 73.6117C191.748 75.9751 190.287 78.2689 187.92 78.7555L105.723 96.2724C103.356 96.759 101.059 95.2993 100.572 92.9359L91.385 49.8387C91.1066 48.5875 91.385 47.4058 92.081 46.4327C92.7074 45.5985 93.6122 44.9034 94.7258 44.6949L176.923 27.178C178.037 26.9694 179.151 27.178 180.055 27.734C181.03 28.2901 181.795 29.3328 182.074 30.5145Z" fill="white" />
        <path d="M180.055 27.734L152.563 61.3776C147.343 67.7727 138.295 69.719 130.918 65.9654L92.0811 46.4327C92.7075 45.5985 93.6123 44.9034 94.7259 44.6949L176.923 27.178C178.037 26.9694 179.151 27.178 180.055 27.734Z" fill="#E6E6E6" />
        <path d="M81.7434 96.3758L81.3916 96.9756L95.9239 105.479L96.2757 104.879L81.7434 96.3758Z" fill="#407BFF" />
        <path d="M102.707 108.693L102.355 109.293L107.58 112.35L107.932 111.75L102.707 108.693Z" fill="#407BFF" />
        <path d="M209.078 139.232C208.939 139.232 208.73 139.232 208.591 139.163L187.224 130.683C186.528 130.405 186.18 129.57 186.458 128.875C186.737 128.18 187.572 127.833 188.268 128.111L209.566 136.522C210.262 136.8 210.61 137.634 210.331 138.329C210.122 138.885 209.635 139.232 209.078 139.232Z" fill="#407BFF" />
        <path opacity="0.3" d="M209.078 139.232C208.939 139.232 208.73 139.232 208.591 139.163L187.224 130.683C186.528 130.405 186.18 129.57 186.458 128.875C186.737 128.18 187.572 127.833 188.268 128.111L209.566 136.522C210.262 136.8 210.61 137.634 210.331 138.329C210.122 138.885 209.635 139.232 209.078 139.232Z" fill="black" />
        <path d="M207.825 126.998C207.686 126.998 207.477 126.998 207.338 126.928L195.854 122.41C195.158 122.132 194.81 121.298 195.088 120.603C195.367 119.908 196.202 119.56 196.898 119.838L208.382 124.356C209.078 124.634 209.426 125.469 209.148 126.164C208.869 126.72 208.382 126.998 207.825 126.998Z" fill="#407BFF" />
        <path opacity="0.5" d="M207.825 126.998C207.686 126.998 207.477 126.998 207.338 126.928L195.854 122.41C195.158 122.132 194.81 121.298 195.088 120.603C195.367 119.908 196.202 119.56 196.898 119.838L208.382 124.356C209.078 124.634 209.426 125.469 209.148 126.164C208.869 126.72 208.382 126.998 207.825 126.998Z" fill="white" />
        <path d="M183.883 139.024C183.744 139.024 183.535 139.024 183.396 138.954L162.585 130.683C161.889 130.405 161.541 129.57 161.82 128.875C162.098 128.18 162.933 127.833 163.629 128.111L184.44 136.313C185.136 136.591 185.484 137.425 185.205 138.12C184.927 138.676 184.44 139.024 183.883 139.024Z" fill="#407BFF" />
        <path opacity="0.3" d="M183.883 139.024C183.744 139.024 183.535 139.024 183.396 138.954L162.585 130.683C161.889 130.405 161.541 129.57 161.82 128.875C162.098 128.18 162.933 127.833 163.629 128.111L184.44 136.313C185.136 136.591 185.484 137.425 185.205 138.12C184.927 138.676 184.44 139.024 183.883 139.024Z" fill="black" />
        <path d="M259.121 76.3926C260.931 80.0072 262.671 83.5523 264.272 87.3059C265.872 90.99 267.404 94.7436 268.656 98.6363L269.144 100.096C269.213 100.374 269.352 100.791 269.422 101.069C269.492 101.417 269.561 101.695 269.561 102.042C269.77 103.224 269.77 104.336 269.77 105.448C269.77 107.603 269.631 109.619 269.492 111.635C269.074 115.667 268.448 119.629 267.612 123.591L263.784 123.174C263.715 119.281 263.715 115.319 263.576 111.426C263.506 109.48 263.367 107.603 263.228 105.796C263.158 104.892 262.949 103.989 262.81 103.294C262.74 103.085 262.74 102.946 262.671 102.807C262.601 102.668 262.601 102.598 262.532 102.39L261.975 101.069C260.513 97.5241 258.912 93.979 257.242 90.5034L252.161 79.9377L259.121 76.3926Z" fill="#E4897B" />
        <path d="M263.854 121.993L262.044 125.33L267.751 126.928C267.751 126.928 268.865 124.218 267.542 122.132L263.854 121.993Z" fill="#E4897B" />
        <path d="M259.887 130.125L265.176 130.542L267.821 126.858L262.114 125.329L259.887 130.125Z" fill="#E4897B" />
        <path d="M235.179 52.3428C235.109 52.7599 234.831 53.0379 234.552 52.9684C234.274 52.8989 234.135 52.5514 234.204 52.1343C234.274 51.7172 234.552 51.4392 234.831 51.5087C235.109 51.5782 235.248 51.9258 235.179 52.3428Z" fill="#263238" />
        <path d="M234.83 53.0371C234.83 53.0371 233.438 55.192 232.186 56.0956C232.742 56.9298 234.065 56.8602 234.065 56.8602L234.83 53.0371Z" fill="#DE5753" />
        <path d="M237.127 50.396C237.057 50.396 236.988 50.396 236.918 50.3265C236.222 49.5618 235.317 49.7009 235.317 49.7009C235.178 49.7009 235.039 49.6314 235.039 49.4923C235.039 49.3533 235.109 49.2143 235.248 49.2143C235.317 49.2143 236.431 49.0058 237.336 50.0484C237.405 50.1179 237.405 50.3265 237.336 50.396C237.197 50.396 237.127 50.396 237.127 50.396Z" fill="#263238" />
        <path d="M246.663 58.042C245.897 61.7956 245.201 68.6077 247.846 71.1102C247.846 71.1102 246.802 74.9333 239.842 74.9333C232.186 74.9333 236.223 71.1102 236.223 71.1102C240.399 70.137 240.259 67.009 239.563 64.0895L246.663 58.042Z" fill="#E4897B" />
        <path d="M248.89 73.4739C249.447 71.6666 250.073 69.5813 248.82 68.8861C247.428 68.191 239.842 67.4264 237.267 68.8166C234.691 70.1374 235.387 73.891 235.387 73.891L248.89 73.4739Z" fill="#263238" />
        <path d="M264.898 246.835C264.341 246.835 263.854 246.765 263.645 246.487C263.575 246.348 263.506 246.209 263.645 245.931C263.714 245.792 263.854 245.723 263.993 245.653C264.758 245.514 266.15 246.418 266.22 246.487C266.29 246.487 266.29 246.557 266.29 246.626C266.29 246.696 266.22 246.696 266.22 246.696C266.011 246.765 265.454 246.835 264.898 246.835ZM264.271 245.862C264.202 245.862 264.202 245.862 264.132 245.862C264.062 245.862 263.923 245.931 263.923 246.001C263.784 246.209 263.854 246.279 263.923 246.279C264.132 246.557 265.176 246.557 265.942 246.418C265.454 246.209 264.758 245.862 264.271 245.862Z" fill="#407BFF" />
        <path d="M266.22 246.696C265.663 246.418 264.619 245.306 264.689 244.681C264.689 244.611 264.758 244.403 265.106 244.333C265.315 244.333 265.454 244.333 265.594 244.472C266.22 244.959 266.29 246.418 266.29 246.488C266.359 246.557 266.359 246.627 266.22 246.696C266.29 246.696 266.29 246.696 266.22 246.696ZM265.176 244.611C264.967 244.611 264.967 244.681 264.967 244.75C264.898 245.098 265.524 245.932 266.081 246.349C266.011 245.932 265.872 245.028 265.454 244.75C265.385 244.611 265.315 244.611 265.176 244.611Z" fill="#407BFF" />
        <path d="M234.204 246.835C233.578 246.835 232.882 246.766 232.673 246.418C232.604 246.349 232.534 246.14 232.673 245.862C232.743 245.723 232.882 245.653 233.091 245.584C233.926 245.375 235.736 246.349 235.805 246.418C235.875 246.418 235.875 246.488 235.875 246.557C235.875 246.627 235.805 246.627 235.805 246.627C235.457 246.766 234.831 246.835 234.204 246.835ZM233.439 245.792C233.369 245.792 233.3 245.792 233.23 245.792C233.091 245.792 233.021 245.862 233.021 245.931C232.952 246.071 232.952 246.14 233.021 246.21C233.23 246.557 234.552 246.557 235.527 246.418C234.9 246.279 233.996 245.792 233.439 245.792Z" fill="#407BFF" />
        <path d="M235.735 246.696C235.039 246.418 233.856 245.306 233.926 244.75C233.926 244.611 234.065 244.472 234.343 244.402C234.622 244.402 234.831 244.472 235.039 244.611C235.666 245.167 235.805 246.488 235.805 246.557C235.805 246.627 235.805 246.627 235.735 246.696C235.805 246.696 235.805 246.696 235.735 246.696ZM234.552 244.611H234.483C234.274 244.611 234.274 244.75 234.274 244.75C234.204 245.097 235.039 245.932 235.666 246.349C235.596 245.932 235.387 245.097 234.97 244.75C234.831 244.68 234.691 244.611 234.552 244.611Z" fill="#407BFF" />
        <path d="M241.373 246.557H236.292L235.735 234.74H240.886L241.373 246.557Z" fill="#E4897B" />
        <path d="M272.066 246.557H266.985L264.41 234.74H269.491L272.066 246.557Z" fill="#E4897B" />
        <path d="M266.638 245.932H272.415C272.624 245.932 272.833 246.071 272.833 246.279L273.877 250.797C274.016 251.284 273.598 251.701 273.111 251.701C271.093 251.701 270.118 251.562 267.613 251.562C266.081 251.562 262.88 251.701 260.722 251.701C258.634 251.701 258.286 249.616 259.191 249.407C263.158 248.573 264.62 247.391 265.873 246.21C266.012 246.071 266.29 245.932 266.638 245.932Z" fill="#263238" />
        <path d="M236.292 245.932H241.86C242.069 245.932 242.278 246.071 242.278 246.279L243.322 250.797C243.461 251.284 243.043 251.701 242.556 251.701C240.538 251.701 237.614 251.562 235.109 251.562C232.116 251.562 229.61 251.701 226.13 251.701C224.042 251.701 223.416 249.616 224.321 249.407C228.288 248.504 231.559 248.434 235.039 246.279C235.457 246.14 235.874 245.932 236.292 245.932Z" fill="#263238" />
        <path d="M233.856 80.0769C229.541 79.7293 225.365 79.1732 221.12 78.4086C219.032 77.9915 216.874 77.5745 214.786 76.9489C212.698 76.3928 210.54 75.7672 208.383 74.8635C207.826 74.655 207.339 74.3769 206.782 74.1684C206.086 73.8209 205.529 73.4733 205.042 73.1257C204.068 72.4306 203.163 71.805 202.328 71.1099C200.657 69.7197 199.056 68.3294 197.456 66.8697C194.324 64.0197 191.4 61.0307 188.547 57.9027L191.122 55.0527L201.214 62.2819C202.884 63.4636 204.555 64.6453 206.225 65.7575C207.06 66.3136 207.896 66.8002 208.661 67.2868C209.079 67.4953 209.427 67.7038 209.636 67.7733C210.053 67.9124 210.471 68.1209 210.888 68.2599C214.438 69.4416 218.405 70.2063 222.372 70.8319C226.34 71.4575 230.446 71.944 234.413 72.3611L233.856 80.0769Z" fill="#E4897B" />
        <path d="M256.963 72.2217C261.765 73.3339 266.568 87.3057 266.568 87.3057L256.685 94.3959C256.685 94.3959 253.901 87.8618 251.186 82.1619C248.472 76.2534 252.091 71.1095 256.963 72.2217Z" fill="#407BFF" />
        <path opacity="0.4" d="M256.963 72.2217C261.765 73.3339 266.568 87.3057 266.568 87.3057L256.685 94.3959C256.685 94.3959 253.901 87.8618 251.186 82.1619C248.472 76.2534 252.091 71.1095 256.963 72.2217Z" fill="#0A0A0A" />
        <path d="M254.179 79.8682L252.23 84.2474C254.249 88.6266 256.128 92.9363 256.615 94.118C256.546 88.9742 255.571 82.5096 254.179 79.8682Z" fill="#407BFF" />
        <path opacity="0.6" d="M254.179 79.8682L252.23 84.2474C254.249 88.6266 256.128 92.9363 256.615 94.118C256.546 88.9742 255.571 82.5096 254.179 79.8682Z" fill="black" />
        <path d="M228.358 72.5011C228.358 72.5011 222.929 78.6182 228.079 116.641C236.292 116.641 251.395 116.641 255.432 116.641C255.641 112.47 252.996 91.9644 257.033 72.2231C257.033 72.2231 252.37 71.2499 247.846 71.0414C244.366 70.9024 239.285 70.7633 236.223 71.0414C232.116 71.4585 228.358 72.5011 228.358 72.5011Z" fill="#407BFF" />
        <path opacity="0.4" d="M228.358 72.5011C228.358 72.5011 222.929 78.6182 228.079 116.641C236.292 116.641 251.395 116.641 255.432 116.641C255.641 112.47 252.996 91.9644 257.033 72.2231C257.033 72.2231 252.37 71.2499 247.846 71.0414C244.366 70.9024 239.285 70.7633 236.223 71.0414C232.116 71.4585 228.358 72.5011 228.358 72.5011Z" fill="#0A0A0A" />
        <path d="M226.339 79.8682C226.131 81.3279 225.991 82.9962 225.922 85.012C228.149 84.3169 231.003 83.2047 233.508 81.4669L226.339 79.8682Z" fill="#407BFF" />
        <path opacity="0.6" d="M226.339 79.8682C226.131 81.3279 225.991 82.9962 225.922 85.012C228.149 84.3169 231.003 83.2047 233.508 81.4669L226.339 79.8682Z" fill="black" />
        <path d="M238.032 80.6341C234.343 83.9012 220.423 83.5536 220.423 83.5536L219.936 70.0684C219.936 70.0684 227.87 71.2501 234.204 71.111C241.999 70.972 241.999 77.089 238.032 80.6341Z" fill="#407BFF" />
        <path opacity="0.4" d="M238.032 80.6341C234.343 83.9012 220.423 83.5536 220.423 83.5536L219.936 70.0684C219.936 70.0684 227.87 71.2501 234.204 71.111C241.999 70.972 241.999 77.089 238.032 80.6341Z" fill="#0A0A0A" />
        <path d="M191.261 55.1227L187.781 51.0215L184.022 55.1922C184.022 55.1922 186.319 59.0848 190.008 58.4592L191.261 55.1227Z" fill="#E4897B" />
        <path d="M182.77 46.2256L181.447 51.578L183.953 55.1926L187.711 51.0219L182.77 46.2256Z" fill="#E4897B" />
        <path d="M235.805 234.74L236.014 240.857H241.164L240.886 234.74H235.805Z" fill="#CE6F64" />
        <path d="M269.491 234.74H264.41L265.733 240.857H270.883L269.491 234.74Z" fill="#CE6F64" />
        <path d="M238.867 47.2677C234.273 45.1824 232.812 35.9373 246.036 38.2312C246.036 38.2312 244.017 40.4556 248.054 41.8458C252.091 43.1665 248.75 51.8555 238.867 47.2677Z" fill="#263238" />
        <path d="M248.82 54.2184C247.498 59.0843 247.01 62.0732 243.948 64.0891C239.424 67.1476 233.717 63.6025 233.578 58.4586C233.438 53.8014 235.596 46.5722 240.886 45.599C246.036 44.6258 250.142 49.3526 248.82 54.2184Z" fill="#E4897B" />
        <path d="M245.827 40.6638C248.959 42.4016 253.204 43.4442 252.787 45.9467C252.3 48.9356 255.362 47.0588 254.596 51.5771C254.109 54.4966 248.68 63.394 244.852 62.977C239.076 62.3514 239.841 53.5234 239.841 48.9356C239.841 46.2247 239.702 37.2577 245.827 40.6638Z" fill="#263238" />
        <path d="M239.146 44.627C237.754 44.9745 235.875 52.9683 241.304 53.733C247.498 54.4976 239.146 44.627 239.146 44.627Z" fill="#263238" />
        <path d="M239.284 47.4755C237.544 47.6146 233.716 45.5987 234.204 42.4707C234.204 42.4707 236.64 46.0853 239.284 47.4755Z" fill="#263238" />
        <path d="M241.791 54.2881C241.234 55.4698 240.26 56.443 239.285 56.9991C237.824 57.7637 236.988 56.6515 237.336 55.1918C237.615 53.871 238.728 51.8552 240.26 51.7162C241.791 51.5076 242.417 52.8979 241.791 54.2881Z" fill="#E4897B" />
        <path d="M249.446 48.6583C250.49 48.1022 252.857 46.9205 253.483 43.584C253.483 43.584 255.78 49.979 249.446 48.6583Z" fill="#263238" />
        <path d="M255.293 48.589C254.806 48.3109 253.623 47.6158 251.952 48.2414C251.952 48.2414 254.11 45.461 255.293 48.589Z" fill="#263238" />
        <path d="M237.753 116.641C237.753 116.641 243.53 155.637 246.731 170.304C250.211 186.291 263.366 239.676 263.366 239.676H272.762C272.762 239.676 264.062 187.612 262.113 171.763C259.955 154.524 255.431 116.641 255.431 116.641H237.753Z" fill="#407BFF" />
        <path opacity="0.5" d="M237.753 116.641C237.753 116.641 243.53 155.637 246.731 170.304C250.211 186.291 263.366 239.676 263.366 239.676H272.762C272.762 239.676 264.062 187.612 262.113 171.763C259.955 154.524 255.431 116.641 255.431 116.641H237.753Z" fill="white" />
        <path d="M261.835 236.199C261.766 236.199 262.81 239.814 262.81 239.814H273.319L273.111 236.616L261.835 236.199Z" fill="#407BFF" />
        <path opacity="0.1" d="M261.835 236.199C261.766 236.199 262.81 239.814 262.81 239.814H273.319L273.111 236.616L261.835 236.199Z" fill="black" />
        <path d="M241.373 130.543C248.054 131.864 247.358 156.818 246.593 169.678C244.644 160.572 241.86 143.124 239.911 130.682C240.329 130.543 240.816 130.473 241.373 130.543Z" fill="#407BFF" />
        <path opacity="0.4" d="M241.373 130.543C248.054 131.864 247.358 156.818 246.593 169.678C244.644 160.572 241.86 143.124 239.911 130.682C240.329 130.543 240.816 130.473 241.373 130.543Z" fill="white" />
        <path d="M228.009 116.641C228.009 116.641 227.313 154.802 227.87 170.373C228.427 186.569 234.134 239.607 234.134 239.607H242.765C242.765 239.607 243.113 187.542 243.461 171.624C243.878 154.316 245.966 116.641 245.966 116.641H228.009Z" fill="#407BFF" />
        <path opacity="0.5" d="M228.009 116.641C228.009 116.641 227.313 154.802 227.87 170.373C228.427 186.569 234.134 239.607 234.134 239.607H242.765C242.765 239.607 243.113 187.542 243.461 171.624C243.878 154.316 245.966 116.641 245.966 116.641H228.009Z" fill="white" />
        <path d="M235.944 233.42C235.874 233.42 235.874 233.42 235.874 233.351C234.343 218.684 230.724 183.164 230.306 170.443C229.819 157.444 230.236 128.249 230.376 119.63C230.376 119.561 230.445 119.561 230.445 119.561C230.515 119.561 230.515 119.63 230.515 119.63C230.376 128.249 229.958 157.444 230.445 170.443C230.932 183.164 234.482 218.684 236.013 233.351C236.013 233.351 236.013 233.42 235.944 233.42Z" fill="#407BFF" />
        <path opacity="0.4" d="M235.944 233.42C235.874 233.42 235.874 233.42 235.874 233.351C234.343 218.684 230.724 183.164 230.306 170.443C229.819 157.444 230.236 128.249 230.376 119.63C230.376 119.561 230.445 119.561 230.445 119.561C230.515 119.561 230.515 119.63 230.515 119.63C230.376 128.249 229.958 157.444 230.445 170.443C230.932 183.164 234.482 218.684 236.013 233.351C236.013 233.351 236.013 233.42 235.944 233.42Z" fill="white" />
        <path d="M232.464 236.199C232.394 236.199 232.951 239.814 232.951 239.814H243.461L243.739 236.616L232.464 236.199Z" fill="#407BFF" />
        <path opacity="0.1" d="M232.464 236.199C232.394 236.199 232.951 239.814 232.951 239.814H243.461L243.739 236.616L232.464 236.199Z" fill="black" />
    </g>
    <defs>
        <clipPath id="clip0_382_494">
            <rect width="348" height="259" fill="white" />
        </clipPath>
    </defs>
</svg>