<svg width="289" height="384" viewBox="0 0 289 384" fill="none" xmlns="http://www.w3.org/2000/svg">
<g clip-path="url(#clip0_609_17550)">
<path d="M65.4165 136.157C66.4567 131.534 69.115 127.373 71.6577 123.328C75.8186 125.871 80.3261 127.951 84.9492 129.338L83.5623 153.378C78.2457 153.494 72.2356 153.263 68.4216 149.449C65.0698 146.097 64.2608 140.78 65.4165 136.157Z" fill="#FFBF9D"/>
<path d="M82.4048 93.7383L94.0781 120.321C89.8017 124.598 86.3344 129.683 84.1384 135.231C77.0882 131.763 70.7314 127.14 65.2992 121.593C71.0781 113.618 77.6661 97.4368 82.4048 93.7383Z" fill="#EDDAD3"/>
<path d="M98.5573 34.9186L103.296 80.9187C104.105 88.778 106.879 99.9891 119.13 98.1398C129.648 95.7127 131.381 85.3107 130.572 78.0293C130.226 74.5619 129.879 71.6725 129.879 71.3257C129.879 71.3257 141.437 69.0142 141.09 57.3408C140.974 51.6775 139.587 40.1197 138.316 29.7176C136.929 18.5066 127.105 10.185 115.894 10.6473H114.738C102.718 12.0342 97.0548 22.8985 98.5573 34.9186Z" fill="#FFBF9D"/>
<path d="M130.045 71.2024C130.045 71.2024 122.763 72.127 114.673 67.5039C114.673 67.5039 118.602 75.7099 130.16 74.2074L130.045 71.2024Z" fill="#EB996E"/>
<path d="M136.924 35.5939C136.692 35.8251 135.074 35.5939 132.994 36.1718C130.914 36.7497 129.642 38.0211 129.295 37.9055C129.18 37.9055 129.295 37.4432 129.873 36.9809C130.451 36.403 131.491 35.8251 132.763 35.3628C134.034 35.016 135.19 35.016 135.883 35.1316C136.692 35.2472 137.039 35.4784 136.924 35.5939Z" fill="#263238"/>
<path d="M119.127 38.2393C118.896 38.3548 117.509 37.4302 115.429 37.0835C113.348 36.7367 111.615 37.1991 111.384 36.9679C111.268 36.8523 111.615 36.6212 112.308 36.39C113.002 36.1589 114.273 36.0433 115.544 36.2744C116.816 36.5056 117.856 36.9679 118.434 37.4302C119.012 37.8925 119.243 38.2393 119.127 38.2393Z" fill="#263238"/>
<path d="M119.016 42.062C119.016 42.7555 118.553 43.3334 117.86 43.449C117.166 43.5645 116.588 42.9867 116.473 42.2932C116.473 41.5997 116.935 41.0218 117.629 40.9062C118.322 40.9062 119.016 41.3686 119.016 42.062Z" fill="#263238"/>
<path d="M136.141 40.6753C136.141 41.3688 135.678 41.9467 134.985 42.0622C134.291 42.1778 133.713 41.5999 133.598 40.9065C133.598 40.213 134.06 39.6351 134.754 39.5195C135.447 39.5195 136.025 40.0974 136.141 40.6753Z" fill="#263238"/>
<path d="M125.601 49.6097C125.601 49.4941 126.641 49.2629 128.49 48.9162C128.952 48.8006 129.415 48.685 129.415 48.4539C129.53 48.1071 129.299 47.6448 129.068 47.0669C128.606 46.0267 128.143 44.871 127.566 43.5996C125.485 38.7453 123.983 34.7001 124.098 34.5845C124.329 34.4689 126.179 38.3986 128.259 43.2529C128.721 44.4087 129.299 45.5644 129.646 46.7202C129.877 47.1825 130.108 47.7604 129.993 48.4539C129.877 48.8006 129.53 49.0318 129.299 49.1473C128.952 49.2629 128.721 49.2629 128.49 49.2629C126.757 49.7252 125.716 49.7252 125.601 49.6097Z" fill="#263238"/>
<path d="M117.645 29.6129C117.529 30.0752 115.911 29.9596 114.062 30.1908C112.212 30.4219 110.71 31.1154 110.479 30.6531C110.363 30.4219 110.594 30.0752 111.172 29.6129C111.75 29.1506 112.675 28.6883 113.83 28.5727C114.986 28.4571 115.911 28.5727 116.604 28.8038C117.298 29.035 117.645 29.3817 117.645 29.6129Z" fill="#263238"/>
<path d="M136.357 30.9694C136.241 31.3161 134.623 31.085 132.774 31.3161C130.925 31.4317 129.422 31.894 129.191 31.5473C129.076 31.4317 129.307 31.085 130 30.7382C130.578 30.3915 131.503 30.0448 132.659 29.9292C133.814 29.8136 134.739 30.0448 135.432 30.2759C136.126 30.5071 136.473 30.8538 136.357 30.9694Z" fill="#263238"/>
<path d="M99.9543 43.5889C99.7231 43.4733 91.8638 41.5085 92.4417 49.4833C93.0196 57.4582 100.879 55.1467 100.879 55.0311C100.879 54.6844 99.9543 43.5889 99.9543 43.5889Z" fill="#FFBF9D"/>
<path d="M98.2305 52.1032C98.2305 52.1032 98.1149 52.2188 97.8837 52.3344C97.6526 52.4499 97.3058 52.5655 96.8435 52.4499C96.0345 52.2188 95.2254 50.9474 94.9943 49.4449C94.8787 48.7514 94.9943 48.058 95.2254 47.4801C95.4566 46.9022 95.8033 46.4399 96.1501 46.3243C96.6124 46.2087 96.8435 46.4399 96.9591 46.671C97.0747 46.9022 97.0747 47.0178 97.0747 47.0178C97.0747 47.0178 97.1903 46.9022 97.1903 46.5555C97.1903 46.4399 97.0747 46.2087 96.8435 46.0931C96.6124 45.9776 96.3812 45.862 96.0345 45.9776C95.4566 46.0931 94.8787 46.671 94.6475 47.3645C94.4164 48.058 94.3008 48.7514 94.3008 49.5605C94.4164 51.1786 95.4566 52.5655 96.6124 52.7967C97.1903 52.9122 97.6526 52.6811 97.8837 52.4499C98.2305 52.3344 98.2305 52.1032 98.2305 52.1032Z" fill="#EB996E"/>
<path d="M124.479 55.364C124.594 55.1329 122.976 54.9017 121.705 53.5148C121.127 52.8213 120.664 52.1278 120.318 51.5499C119.971 50.972 119.855 50.6253 119.74 50.7409C119.624 50.7409 119.74 51.2032 119.971 51.7811C120.202 52.359 120.549 53.2836 121.242 53.9771C121.936 54.7861 122.86 55.1329 123.438 55.2484C124.016 55.364 124.479 55.364 124.479 55.364Z" fill="#263238"/>
<path d="M147.476 21.3808C148.17 21.6119 148.748 22.1898 148.979 22.9988C149.21 24.039 148.517 25.1948 147.476 25.6571C146.436 26.1195 145.165 25.8883 144.356 25.1948C144.818 25.426 145.165 25.7727 145.396 26.1195C147.014 27.8531 144.703 30.5114 142.738 29.1245C142.507 29.8179 142.275 30.3958 142.044 31.0893V31.2049C141.929 31.6672 141.813 32.0139 141.582 32.4762L139.501 38.024C138.924 34.7878 138.692 30.1647 138.115 26.9285C133.029 27.2752 128.29 25.7727 124.476 22.421C122.512 20.6873 120.778 18.3757 118.235 17.4511C114.999 16.2953 111.532 17.7978 108.411 19.3004L108.527 19.1848C106.908 20.1094 105.522 21.3808 104.481 22.8833C105.984 29.2401 105.984 35.828 104.713 42.1848C104.481 43.1094 103.903 45.1898 103.094 45.5366C101.361 46.4612 100.667 44.7275 99.5115 43.8029C98.5869 43.225 97.4311 43.225 96.1597 43.3406C95.2351 41.4913 94.0793 38.2551 93.0391 35.3657L91.6522 32.7074V29.4712C92.9235 26.4662 89.3406 25.426 89.8029 22.1898C90.3808 18.9536 91.6522 15.6019 94.6572 14.0993H94.7728C97.4311 12.7124 100.783 12.2501 103.21 13.8682C103.326 9.70737 106.562 6.00888 110.376 4.50636C114.305 3.00385 120.778 2.88827 124.823 3.92847C127.944 4.73752 131.064 6.9335 134.994 10.0541C136.612 11.441 138.808 16.4109 140.195 17.9134L147.476 21.3808Z" fill="#263238"/>
<path d="M105.177 0.928095C104.6 1.04367 91.3081 6.24468 89.3433 16.9934C87.3784 27.7422 88.8809 30.7472 88.8809 30.7472C88.8809 30.7472 88.1875 31.3251 87.6096 32.2497C87.1473 33.0588 88.4186 36.0638 90.1523 35.4859C102.75 27.511 118.584 24.6216 136.384 22.5412L149.906 20.3452C153.72 20.2296 154.992 19.0738 153.258 18.2648C151.871 17.6869 140.544 15.0286 140.544 15.0286L138.233 13.7573L131.529 6.82257C131.529 6.82257 132.107 5.66679 130.605 4.97333C129.102 4.27986 116.157 -2.30809 105.177 0.928095Z" fill="#EDDAD3"/>
<path d="M138.219 13.75C138.219 13.75 137.988 13.75 137.641 13.8656C137.179 13.8656 136.716 13.9812 136.138 14.0967C134.867 14.2123 132.902 14.559 130.591 14.9058C125.967 15.7148 119.495 17.3329 112.676 19.8756C105.857 22.4184 99.9624 25.3078 95.686 27.3882C93.6056 28.4284 91.872 29.353 90.7162 29.9309C91.872 29.2375 93.6056 28.4284 95.686 27.2726C99.9624 25.0766 105.857 22.1872 112.676 19.6445C119.495 17.1018 125.967 15.5992 130.591 14.7902C135.214 13.8656 138.219 13.75 138.219 13.75Z" fill="#263238"/>
<g opacity="0.3">
<path d="M93.5 8.79127C93.5 8.79127 107.947 4.16815 115.113 6.36413C114.882 6.24855 114.535 6.13297 114.304 6.13297C116.5 6.71086 118.812 7.40433 121.008 7.98222C122.163 8.32896 123.435 8.56011 124.359 7.86665C124.359 7.86665 120.545 5.32393 114.073 4.16815C107.485 3.01237 97.5453 3.59026 93.5 8.79127Z" fill="black"/>
</g>
<path d="M93.2653 8.89517C93.2653 8.89517 93.612 8.43286 94.4211 7.85497C95.2301 7.1615 96.5015 6.35246 98.1196 5.54341C99.7377 4.73437 101.934 4.0409 104.361 3.69416C106.788 3.34743 109.562 3.23185 112.336 4.0409C113.723 4.38763 114.994 4.96552 116.265 5.42783C117.537 6.00572 118.692 6.35246 119.848 6.93035C120.888 7.50824 121.929 8.08613 122.969 8.31728C124.009 8.66402 125.049 8.54844 125.974 8.43286C129.672 7.97055 131.753 6.81477 131.522 6.69919C131.522 6.69919 131.522 6.81477 131.29 7.04593C131.059 7.1615 130.713 7.39266 130.25 7.62382C129.326 7.97055 127.823 8.43286 125.974 8.66402C125.049 8.7796 124.009 8.89517 122.969 8.54844C121.929 8.20171 120.888 7.73939 119.733 7.1615C118.692 6.58361 117.421 6.23688 116.265 5.65899C114.994 5.19668 113.723 4.61879 112.451 4.27205C109.793 3.46301 107.019 3.57859 104.592 3.92532C102.165 4.27205 100.084 4.96552 98.3507 5.65899C96.6171 6.46804 95.4613 7.27708 94.6522 7.85497C94.1899 8.20171 93.9588 8.43286 93.7276 8.54844C93.3809 8.7796 93.2653 8.89517 93.2653 8.89517Z" fill="#263238"/>
<g opacity="0.3">
<path d="M88.7605 21.38C91.4188 20.9177 93.3836 19.993 95.9264 19.0684C98.7002 18.0282 101.359 17.1036 104.017 15.9478C106.097 15.0232 108.409 14.2141 109.565 12.4805C109.911 13.5207 109.796 14.5609 109.102 15.4855C108.409 16.4101 105.866 17.6815 104.941 18.1438C99.047 20.6865 94.8862 22.5358 88.6449 23.9227C88.4138 23.2292 88.7605 21.38 88.7605 21.38Z" fill="black"/>
</g>
<path d="M89.6922 15.8375C88.0742 16.7621 87.1495 17.4556 87.2651 18.9581C87.3807 20.1139 87.843 21.6164 89.1144 21.6164C89.4611 21.6164 89.8078 21.5008 90.1546 21.3852C96.049 19.3048 102.059 17.1088 107.954 15.0284C108.531 14.7973 109.225 14.5661 109.572 13.9882C110.034 13.1792 109.456 12.0234 108.531 11.5611C107.607 11.0988 106.567 11.2144 105.642 11.3299C100.094 11.9078 94.7777 13.6415 89.6922 15.8375Z" fill="#EDDAD3"/>
<path d="M109.331 14.1023C109.331 14.1023 109.677 13.8712 109.677 13.1777C109.793 12.5998 109.562 11.5596 108.637 10.9817C107.713 10.4038 106.21 10.4038 104.823 10.7506C103.321 11.0973 101.703 11.3285 100.084 11.7908C96.7327 12.5998 93.8432 13.64 91.7628 14.5646C90.7226 15.027 89.9136 15.4893 89.3357 15.7204C89.1045 15.836 88.8733 15.9516 88.6422 16.0672C88.8733 15.9516 88.9889 15.836 89.2201 15.7204C89.798 15.3737 90.607 14.9114 91.6472 14.4491C93.7276 13.5244 96.6171 12.3687 99.9688 11.5596C101.587 11.0973 103.205 10.7506 104.708 10.5194C106.21 10.2883 107.597 10.2883 108.637 10.8661C109.677 11.5596 109.793 12.5998 109.793 13.1777C109.793 13.5244 109.562 13.7556 109.562 13.8712C109.331 14.1023 109.331 14.1023 109.331 14.1023Z" fill="#263238"/>
<path d="M133.603 8.89844L121.929 10.401L123.432 13.5216L135.914 11.4412L133.603 8.89844Z" fill="white"/>
<path d="M117.665 21.7325C117.665 21.617 122.635 20.23 128.876 18.3808C135.118 16.6471 140.203 15.1446 140.203 15.2602C140.203 15.3757 135.233 16.7627 128.992 18.6119C122.751 20.4612 117.665 21.8481 117.665 21.7325Z" fill="#263238"/>
<path d="M35.8283 179.493L29.9338 164.121L14.9086 157.417L3.35083 166.432L-0.000915527 163.081C2.54181 152.101 10.4011 142.508 21.7278 138.116C35.1348 133.03 49.6976 136.498 59.175 145.859L214.859 86.5679C215.668 73.1609 224.105 60.794 237.512 55.593C248.839 51.201 261.09 53.0503 270.452 59.5227L273.803 62.8744L255.542 65.3016L248.839 80.3267L254.733 95.6986L269.758 102.402L285.592 97.5478L288.02 99.975C284.668 109.452 272.994 117.774 262.939 121.704C249.648 126.789 235.085 123.322 225.492 113.96L69.6926 173.367C68.8836 186.774 60.4464 199.141 47.0393 204.226C35.7127 208.618 22.0745 207.347 12.7127 200.875L29.0092 194.518L35.8283 179.493Z" fill="#E0E0E0"/>
<g opacity="0.3">
<path d="M35.8283 179.493L29.9338 164.121L14.9086 157.417L3.35083 166.432L-0.000915527 163.081C2.54181 152.101 10.4011 142.508 21.7278 138.116C35.1348 133.03 49.6976 136.498 59.175 145.859L214.859 86.5679C215.668 73.1609 224.105 60.794 237.512 55.593C248.839 51.201 261.09 53.0503 270.452 59.5227L273.803 62.8744L255.542 65.3016L248.839 80.3267L254.733 95.6986L269.758 102.402L285.592 97.5478L288.02 99.975C284.783 109.568 273.226 117.774 262.939 121.704C249.648 126.789 235.085 123.322 225.492 113.96L69.6926 173.367C68.8836 186.774 60.4464 199.141 47.0393 204.226C35.7127 208.618 22.0745 207.347 12.7127 200.875L29.0092 194.518L35.8283 179.493Z" fill="black"/>
</g>
<path d="M39.0668 182.844L33.1723 167.472L18.1472 160.769L3.23758 166.548C5.7803 155.568 13.6396 145.975 24.9662 141.583C38.3733 136.497 52.9361 139.965 62.4135 149.327L218.213 89.8039C219.022 76.3968 227.459 64.03 240.75 58.9446C252.077 54.5526 264.328 56.4018 273.69 62.8742L258.781 68.6531L252.077 83.6783L257.972 99.0501L272.997 105.754L287.906 99.9748C285.364 110.955 277.504 120.548 266.178 124.94C252.886 130.025 238.323 126.558 228.73 117.196L73.0467 176.719C72.2377 190.126 63.8005 202.492 50.3934 207.578C39.0668 211.97 26.8155 210.121 17.4537 203.648L32.3632 197.869L39.0668 182.844Z" fill="#E0E0E0"/>
<path d="M219.256 96.7422C219.256 96.7422 219.256 97.0889 219.256 97.6668C219.256 98.2447 219.371 99.1693 219.487 100.21C219.833 102.406 220.527 105.295 222.029 108.416C223.532 111.421 225.381 113.848 226.884 115.466C227.693 116.275 228.271 116.853 228.733 117.2C229.195 117.546 229.426 117.777 229.542 117.777C229.658 117.662 228.617 116.737 227.23 115.119C225.844 113.501 224.11 111.074 222.607 108.069C221.22 105.064 220.411 102.174 219.949 100.094C219.487 98.0135 219.371 96.7422 219.256 96.7422Z" fill="#263238"/>
<path d="M39.0654 182.847C39.0654 182.847 38.9498 183.194 38.6031 183.771C38.2563 184.465 37.9096 185.39 37.3317 186.661C36.1759 189.204 34.5578 192.902 32.3618 197.872C28.3166 199.49 23.2312 201.339 17.4523 203.535L17.2211 203.651L17.4523 203.766C21.1508 206.309 25.7739 208.505 31.0905 209.545C36.4071 210.586 42.5327 210.47 48.5428 208.505C54.5528 206.656 60.4473 202.842 65.0704 197.41C69.578 191.977 72.6986 184.696 73.2765 176.837L73.1609 177.068C114.885 161.118 168.397 140.661 228.96 117.661L228.613 117.545C232.89 121.706 238.437 124.942 244.332 126.56C250.226 128.178 256.699 128.178 262.824 126.56C268.95 124.942 274.613 121.59 279.121 117.083C283.628 112.46 286.865 106.565 288.367 100.209L288.367 99.3995L287.789 99.6306C283.051 101.48 277.965 103.445 272.88 105.41H273.111C268.372 103.329 263.287 101.018 258.086 98.706L258.317 98.9372C256.468 94.0829 254.387 88.8819 252.422 83.5653V83.7965C254.618 78.711 256.93 73.7412 259.126 68.7713L259.01 68.8869C263.98 66.9221 268.95 65.0728 273.92 63.108L274.498 62.8768L274.036 62.5301C268.719 58.8316 262.362 56.6356 256.005 56.1733C249.649 55.711 243.176 57.0979 237.513 59.9874C234.739 61.3743 232.081 63.2236 229.769 65.304C227.458 67.3844 225.493 69.8115 223.759 72.3542C220.407 77.5552 218.442 83.5653 218.096 89.5754L218.327 89.3442C158.573 112.229 105.292 132.57 62.6433 148.982H62.8744C57.3267 143.55 50.392 140.314 43.4574 139.274C36.5227 138.118 29.7036 139.274 23.9247 141.701C18.1458 144.128 13.407 148.058 9.93973 152.45C6.47238 156.842 4.39197 161.696 3.23618 166.319L3.12061 166.55L3.35175 166.435C9.36182 164.123 13.985 162.274 18.2613 160.656H18.1458C24.5025 163.43 29.2412 165.626 33.1709 167.244C35.2513 172.445 36.7538 176.374 37.6785 178.802C38.1408 180.073 38.4875 180.998 38.8342 181.575C38.9498 182.5 39.0654 182.847 39.0654 182.847C39.0654 182.847 38.9498 182.5 38.7186 181.922C38.4875 181.344 38.1408 180.42 37.6785 179.148C36.7538 176.606 35.2513 172.792 33.2865 167.475C29.3568 165.741 24.6181 163.661 18.2613 160.771C13.985 162.39 9.36182 164.239 3.35175 166.435L3.58292 166.55C4.73871 161.927 6.81909 157.073 10.2864 152.797C13.6382 148.52 18.3769 144.706 24.1558 142.163C29.8191 139.736 36.6382 138.696 43.4574 139.736C50.2764 140.776 57.2111 144.128 62.6433 149.445L62.7589 149.56H62.8744C105.523 133.264 158.804 112.922 218.558 90.1532L218.789 90.0377V89.8065C219.136 83.7965 221.101 77.902 224.337 72.8165C225.955 70.2738 227.92 67.8467 230.231 65.8819C232.543 63.8015 235.086 62.0678 237.86 60.6809C243.407 57.907 249.764 56.52 256.005 56.8668C262.247 57.3291 268.488 59.4095 273.804 63.108L273.92 62.5301C268.95 64.3793 263.98 66.3442 259.01 68.309H258.895V68.4246C256.699 73.3944 254.503 78.3643 252.191 83.4497V83.5653V83.6809C254.272 88.8819 256.236 94.1985 258.086 99.0528V99.1683H258.201C263.402 101.48 268.488 103.791 273.226 105.872H273.342H273.458C278.543 103.907 283.628 101.942 288.367 100.093L288.02 99.7462C286.518 105.987 283.397 111.766 279.005 116.274C274.613 120.781 268.95 124.018 263.056 125.636C257.046 127.254 250.689 127.254 244.91 125.636C239.015 124.018 233.699 121.013 229.422 116.852L229.307 116.736L229.191 116.852C168.744 139.967 115.116 160.54 73.5076 176.49H73.392V176.606C72.9297 184.349 69.8091 191.515 65.3016 196.947C60.794 202.38 54.8996 206.078 49.0051 207.927C42.995 209.892 36.985 210.008 31.784 208.967C26.4674 207.927 21.8442 205.847 18.1458 203.304V203.535C23.9247 201.339 29.0101 199.374 33.0553 197.756C35.2513 192.787 36.8694 189.088 38.0252 186.545C38.6031 185.274 38.9498 184.349 39.2965 183.656C38.9498 183.194 39.0654 182.847 39.0654 182.847Z" fill="#263238"/>
<path d="M143.778 87.9583L154.873 176.375C155.451 180.652 152.677 184.697 148.516 185.737L91.4208 195.677C88.0691 196.255 84.9485 193.712 84.8329 190.245C84.7173 178.109 84.1394 151.757 82.4058 135.345C80.5565 117.2 75.7022 102.521 82.4058 93.8528C89.1093 85.1844 100.898 79.1744 100.898 79.1744L102.17 73.7422C102.17 73.7422 126.788 73.7422 131.064 77.4407L133.722 81.9482L143.778 87.9583Z" fill="#EDDAD3"/>
<path d="M79.9794 108.293C79.9794 108.293 79.9794 108.524 79.9794 108.871C79.9794 109.333 79.9794 109.795 80.0949 110.489C80.2105 111.991 80.3261 113.956 80.5573 116.499C80.904 121.584 81.4819 128.519 82.1754 136.147C82.8688 143.891 83.4467 150.826 84.0246 155.796C84.2557 158.223 84.4869 160.303 84.6025 161.806C84.7181 162.499 84.7181 162.961 84.8336 163.424C84.8336 163.77 84.9492 164.002 84.9492 164.002C84.9492 164.002 84.9492 163.77 84.9492 163.424C84.9492 162.961 84.9492 162.499 84.8336 161.806C84.7181 160.303 84.6025 158.338 84.3713 155.796C84.0246 150.71 83.4467 143.775 82.7532 136.147C82.0598 128.519 81.4819 121.469 80.904 116.499C80.6728 114.072 80.4417 111.991 80.3261 110.489C80.2105 109.795 80.2105 109.333 80.0949 108.871C80.0949 108.409 79.9794 108.293 79.9794 108.293Z" fill="#263238"/>
<path d="M100.899 79.0554C100.899 79.0554 101.361 79.171 102.171 79.171C103.095 79.171 104.251 79.2865 105.638 79.2865C108.643 79.4021 112.688 79.6333 117.196 80.0956C121.703 80.5579 125.748 81.0202 128.753 81.3669C130.14 81.4825 131.296 81.5981 132.221 81.7137C133.03 81.8292 133.492 81.8293 133.492 81.8293C133.492 81.8293 133.03 81.7137 132.221 81.4825C131.412 81.3669 130.256 81.1358 128.753 80.9046C125.864 80.4423 121.703 79.8644 117.196 79.5177C112.688 79.0554 108.527 78.9398 105.638 78.8242C104.135 78.8242 102.98 78.8242 102.171 78.8242C101.361 79.0554 100.899 79.0554 100.899 79.0554Z" fill="#263238"/>
<path d="M191.419 311.724L181.71 333.337C181.71 333.337 207.253 343.277 207.484 348.131L157.786 347.206L157.901 343.046L168.881 307.332L191.419 311.724Z" fill="#EDDAD3"/>
<path d="M167.122 329.526C166.197 329.757 165.504 330.798 165.619 331.838C165.85 332.762 166.891 333.572 167.931 333.34C168.855 333.109 169.78 331.838 169.433 330.913C169.087 329.989 167.815 329.18 166.891 329.642" fill="#E0E0E0"/>
<path d="M157.765 347.216L157.88 343.055L205.499 345.597C205.499 345.597 207.695 346.638 207.463 348.14L157.765 347.216Z" fill="#263238"/>
<path d="M182.513 333.1C182.513 333.331 181.242 333.447 180.086 334.14C178.815 334.834 178.237 335.874 178.006 335.758C177.775 335.758 178.121 334.256 179.624 333.331C181.126 332.522 182.629 332.869 182.513 333.1Z" fill="#263238"/>
<path d="M187.676 335.422C187.676 335.653 186.636 336 185.827 337.04C184.902 338.081 184.671 339.121 184.44 339.121C184.208 339.121 184.093 337.734 185.133 336.462C186.289 335.191 187.676 335.191 187.676 335.422Z" fill="#263238"/>
<path d="M190.62 341.672C190.389 341.672 190.042 340.516 190.736 339.129C191.429 337.858 192.585 337.28 192.585 337.511C192.7 337.742 192.007 338.435 191.429 339.476C190.851 340.631 190.851 341.672 190.62 341.672Z" fill="#263238"/>
<path d="M184.355 327.443C184.24 327.674 183.2 327.327 181.813 327.327C180.426 327.327 179.385 327.789 179.27 327.558C179.154 327.327 180.195 326.518 181.813 326.402C183.315 326.518 184.471 327.327 184.355 327.443Z" fill="#263238"/>
<path d="M105.631 381.652L104.475 422.914L126.204 422.798L127.359 382.577L105.631 381.652Z" fill="#EDDAD3"/>
<path d="M115.343 420.832C115.574 420.832 115.806 412.048 115.921 401.183C116.037 390.319 116.037 381.535 115.921 381.535C115.69 381.535 115.459 390.319 115.343 401.183C115.112 412.048 115.112 420.832 115.343 420.832Z" fill="#263238"/>
<path d="M102.288 193.476L149.675 185.27L149.906 190.355C161.348 199.486 191.861 225.722 210.353 243.752C210.353 243.752 217.172 252.767 214.514 261.204L188.971 326.737L159.614 319.918L177.529 264.44L122.514 238.667C111.765 234.737 102.172 221.214 99.8604 213.471C97.78 206.883 102.056 201.913 102.288 193.476Z" fill="#005DA4"/>
<path d="M140.082 245.488L128.755 397.011L100.67 397.704C100.67 397.704 95.8156 352.976 96.3935 324.428C96.9714 295.88 97.087 225.84 97.087 225.84L140.082 245.488Z" fill="#005DA4"/>
<path d="M102.285 193.477L87.4913 196.135C87.4913 196.135 86.9134 232.426 87.9536 236.125C88.9938 239.823 97.8933 250.225 97.8933 250.225L139.039 258.085V225.607L102.285 193.477Z" fill="#005DA4"/>
<path d="M97.8945 212.777L96.8543 222.948H85.5277L87.4925 212.777H97.8945Z" fill="#005DA4"/>
<path d="M106.099 222.949C106.099 222.949 106.214 223.18 106.445 223.758C106.676 224.221 107.023 225.03 107.601 225.954C108.641 227.804 110.49 230.346 113.38 232.889C116.154 235.432 119.968 237.974 124.475 240.286C128.983 242.597 134.068 244.793 139.269 247.221C149.787 252.075 159.264 256.351 166.199 259.587C169.666 261.09 172.44 262.361 174.405 263.286C175.33 263.633 176.023 263.979 176.601 264.211C177.063 264.442 177.41 264.557 177.41 264.557C177.41 264.557 177.179 264.442 176.717 264.095C176.139 263.864 175.445 263.517 174.521 263.055C172.556 262.13 169.782 260.859 166.43 259.241C159.496 256.005 150.018 251.613 139.501 246.758C134.3 244.331 129.214 242.135 124.707 239.939C120.199 237.628 116.501 235.201 113.611 232.658C110.722 230.115 108.872 227.688 107.832 225.954C106.676 223.989 106.214 222.949 106.099 222.949Z" fill="#171717"/>
<path d="M96.5126 248.148C96.397 248.264 100.327 250.922 105.297 254.043C110.266 257.164 114.312 259.475 114.427 259.36C114.543 259.244 110.613 256.586 105.643 253.465C100.673 250.46 96.6282 248.033 96.5126 248.148Z" fill="#171717"/>
<path d="M87.4938 212.777C87.3782 212.777 87.1471 213.818 86.8003 215.667C86.4536 217.516 85.8757 220.059 85.2978 222.948L85.1822 223.295H85.529C87.2626 223.295 89.1119 223.295 91.0767 223.295C93.0415 223.295 95.0064 223.295 96.74 223.295H96.9712V223.064C97.3179 220.059 97.4335 217.516 97.6647 215.667C97.7802 213.818 97.8958 212.777 97.7803 212.777C97.6647 212.777 97.5491 213.818 97.3179 215.667C97.0868 217.516 96.74 220.059 96.3933 223.064L96.6245 222.833C94.8908 222.833 92.926 222.833 90.9611 222.833C88.9963 222.833 87.1471 222.833 85.4134 222.833L85.6446 223.179C86.2224 220.174 86.5692 217.632 86.9159 215.782C87.3782 213.818 87.4938 212.777 87.4938 212.777Z" fill="#171717"/>
<path d="M141.12 205.84C141.12 205.84 141.004 205.84 140.658 205.955C140.311 206.071 139.733 206.071 139.155 206.187C137.768 206.418 135.919 206.764 133.492 207.227C128.638 208.151 121.818 209.423 113.959 210.925H113.728V211.156C114.19 214.393 114.768 217.86 115.23 221.443V221.79L115.577 221.674C115.693 221.674 115.808 221.674 115.924 221.558C127.135 219.016 137.19 216.589 143.894 215.086H144.125L144.009 214.855C143.085 212.081 142.276 209.769 141.813 208.151C141.582 207.458 141.351 206.88 141.236 206.418C141.236 205.955 141.12 205.84 141.12 205.84C141.12 205.84 141.12 206.071 141.236 206.533C141.351 206.996 141.582 207.574 141.813 208.383C142.276 210.001 142.969 212.197 143.778 214.971L143.894 214.739C137.19 216.242 127.135 218.438 115.808 221.096C115.693 221.096 115.577 221.096 115.462 221.212L115.808 221.443C115.23 217.86 114.768 214.393 114.306 211.272L114.075 211.619C121.818 210.001 128.522 208.729 133.376 207.689C135.688 207.227 137.653 206.764 139.04 206.533C139.617 206.418 140.195 206.302 140.542 206.187C140.889 205.84 141.12 205.84 141.12 205.84Z" fill="#171717"/>
<path d="M196.598 262.015C196.598 261.9 195.442 261.669 193.477 261.438C191.512 261.206 188.854 261.091 185.849 261.438C182.844 261.784 180.186 262.478 178.452 263.171C176.603 263.865 175.562 264.443 175.562 264.558C175.562 264.674 176.718 264.211 178.567 263.634C180.417 263.056 182.959 262.362 185.964 262.131C188.854 261.784 191.628 261.9 193.477 262.015C195.326 261.9 196.482 262.131 196.598 262.015Z" fill="#171717"/>
<path d="M141.933 190.815C142.048 190.815 142.048 190.006 141.933 189.081C141.817 188.157 141.471 187.348 141.355 187.348C141.239 187.348 141.239 188.157 141.355 189.081C141.471 190.122 141.817 190.815 141.933 190.815Z" fill="#171717"/>
<path d="M139.623 191.514C139.739 191.514 139.739 190.589 139.508 189.434C139.277 188.278 139.045 187.469 138.814 187.469C138.699 187.469 138.699 188.393 138.93 189.549C139.161 190.705 139.508 191.514 139.623 191.514Z" fill="#171717"/>
<path d="M120.433 194.748C120.549 194.748 120.664 193.823 120.433 192.783C120.317 191.743 119.971 190.934 119.855 190.934C119.739 190.934 119.739 191.858 119.855 192.898C119.971 193.939 120.317 194.748 120.433 194.748Z" fill="#171717"/>
<path d="M118.234 195.676C118.349 195.676 118.349 194.635 118.234 193.364C118.118 192.093 117.771 191.168 117.656 191.168C117.54 191.168 117.54 192.208 117.656 193.48C117.887 194.751 118.118 195.791 118.234 195.676Z" fill="#171717"/>
<path d="M99.7467 198.906C99.8623 198.906 99.9779 197.866 99.8623 196.71C99.7467 195.555 99.5156 194.514 99.4 194.63C99.2844 194.63 99.1688 195.67 99.2844 196.826C99.4 197.982 99.6311 198.906 99.7467 198.906Z" fill="#171717"/>
<path d="M96.9694 199.6C97.0849 199.6 97.2005 198.445 97.0849 197.173C96.9694 195.786 96.8538 194.746 96.6226 194.746C96.5071 194.746 96.3915 195.902 96.507 197.173C96.6226 198.56 96.7382 199.6 96.9694 199.6Z" fill="#171717"/>
<path d="M164.582 136.147L129.331 146.318C129.331 146.318 124.014 126.439 121.356 114.765C118.582 101.936 120.778 95.2327 129.331 89.3382C131.411 87.8357 133.723 87.1422 135.803 86.7955C142.507 85.8709 148.979 89.9161 151.753 96.0417C153.255 99.5091 155.22 104.595 157.416 112.223C160.884 123.549 164.582 136.147 164.582 136.147Z" fill="#EDDAD3"/>
<path d="M121.353 114.653C121.353 114.653 121.353 114.884 121.468 115.231C121.584 115.694 121.7 116.271 121.815 116.965C122.162 118.467 122.624 120.663 123.318 123.437C124.589 128.985 126.669 136.96 129.097 146.206L129.212 146.437L129.443 146.322C136.147 144.357 143.659 142.276 151.634 139.965C156.142 138.694 160.534 137.422 164.695 136.151L164.926 136.035L164.81 135.804C161.343 124.246 158.453 114.075 156.142 107.025C154.986 103.442 153.946 100.668 153.137 98.8191C152.79 97.8945 152.443 97.201 152.212 96.6232C151.981 96.1608 151.865 95.9297 151.865 95.9297C151.865 95.9297 151.981 96.1608 152.097 96.7387C152.328 97.3166 152.559 98.0101 152.906 98.9347C153.599 100.9 154.639 103.673 155.795 107.256C157.991 114.422 160.881 124.477 164.232 136.151L164.463 135.804C160.303 136.96 155.911 138.231 151.403 139.618C143.428 141.93 135.916 144.126 129.212 146.091L129.559 146.322C127.016 137.075 124.936 129.216 123.549 123.553C122.855 120.779 122.277 118.583 121.931 117.08C121.7 116.387 121.584 115.809 121.468 115.347C121.468 114.884 121.468 114.653 121.353 114.653Z" fill="#263238"/>
<path d="M123.781 95.349C123.897 95.4646 124.59 94.3088 125.977 92.9219C127.364 91.535 129.676 89.8013 132.565 88.7611C135.455 87.7209 138.229 87.4897 140.194 87.6053C142.158 87.7209 143.43 88.0676 143.43 87.952C143.43 87.952 143.199 87.8365 142.621 87.6053C142.043 87.4897 141.234 87.2586 140.194 87.143C138.113 86.9118 135.224 87.0274 132.219 88.0676C129.214 89.2234 126.902 90.9571 125.631 92.4596C124.937 93.2686 124.475 93.8465 124.128 94.4244C123.897 95.0023 123.781 95.349 123.781 95.349Z" fill="#263238"/>
<path d="M160.996 137.188L162.73 143.082L196.363 128.52L203.645 139.731C203.645 139.731 177.177 159.379 168.856 165.62C160.534 171.861 150.941 169.665 145.393 162.384C139.614 154.871 137.418 144.007 137.418 144.007L160.996 137.188Z" fill="#FFBF9D"/>
<path d="M159.27 150.482C159.501 150.482 159.848 148.749 160.888 146.668C161.928 144.703 163.084 143.201 162.969 143.085C162.853 142.97 161.466 144.241 160.426 146.322C159.27 148.633 159.039 150.482 159.27 150.482Z" fill="#EB996E"/>
<path d="M191.278 131.295L195.786 128.174C198.097 121.124 202.605 108.41 203.876 108.757C205.263 109.219 205.957 110.491 205.494 113.149C204.454 119.621 206.072 122.511 209.886 121.702C211.158 121.355 222.484 119.621 222.484 119.621C222.484 119.621 225.605 121.471 222.484 124.476C222.484 124.476 223.987 128.521 219.826 129.445C219.826 129.445 219.248 133.953 216.127 134.184C216.127 134.184 212.776 136.033 205.725 138.692L200.062 142.043L191.278 131.295Z" fill="#FFBF9D"/>
<path d="M213.816 126.901C213.816 127.132 216.012 126.669 218.67 125.745C219.595 125.398 220.52 125.167 221.213 124.936L221.097 124.473L220.635 124.589L220.751 125.051C221.791 124.705 222.484 124.473 222.484 124.358C222.484 124.242 221.791 124.358 220.635 124.589L220.751 125.051H221.213L221.097 124.589C220.288 124.705 219.479 124.936 218.555 125.282C215.896 126.092 213.816 126.785 213.816 126.901Z" fill="#EB996E"/>
<path d="M213.007 131.989C213.007 132.105 214.74 131.758 216.59 131.065C218.439 130.371 219.941 129.447 219.826 129.331C219.71 129.216 218.208 129.794 216.358 130.487C214.509 131.296 213.007 131.874 213.007 131.989Z" fill="#EB996E"/>
</g>
<defs>
<clipPath id="clip0_609_17550">
<rect width="288.367" height="422.9" fill="white" transform="matrix(-1 0 0 1 288.367 0)"/>
</clipPath>
</defs>
</svg>
