<svg width="273" height="313" viewBox="0 0 273 313" fill="none" xmlns="http://www.w3.org/2000/svg">
<g clip-path="url(#clip0_1250_7066)">
<path d="M80.2012 281.3C83.6012 301 67.7012 310.8 52.2012 305.9C41.7012 302.6 31.2012 305.1 24.1012 308.5C22.8012 309.1 21.6012 307.5 22.5012 306.4C23.7012 304.9 25.1012 303.5 26.3012 302.3C27.3012 301.3 26.3012 299.6 25.0012 300C18.8012 301.9 9.80122 303.6 1.00122 301.6C-0.198784 301.3 -0.398784 299.7 0.601216 299.1C9.30122 293.9 22.7012 280.3 35.2012 275.9C36.7012 275.4 36.2012 273.2 34.7012 273.3C32.7012 273.4 30.7012 273.7 28.8012 274C27.3012 274.3 26.6012 272.3 27.8012 271.5C45.4012 260.6 75.9012 256 80.2012 281.3Z" fill="#005DA4"/>
<path opacity="0.7" d="M80.2012 281.3C83.6012 301 67.7012 310.8 52.2012 305.9C41.7012 302.6 31.2012 305.1 24.1012 308.5C22.8012 309.1 21.6012 307.5 22.5012 306.4C23.7012 304.9 25.1012 303.5 26.3012 302.3C27.3012 301.3 26.3012 299.6 25.0012 300C18.8012 301.9 9.80122 303.6 1.00122 301.6C-0.198784 301.3 -0.398784 299.7 0.601216 299.1C9.30122 293.9 22.7012 280.3 35.2012 275.9C36.7012 275.4 36.2012 273.2 34.7012 273.3C32.7012 273.4 30.7012 273.7 28.8012 274C27.3012 274.3 26.6012 272.3 27.8012 271.5C45.4012 260.6 75.9012 256 80.2012 281.3Z" fill="white"/>
<path d="M58.7022 310.1L52.0022 258.4C51.8022 257.2 52.8022 256.2 54.0022 256.3L86.5022 258.6C87.4022 258.7 88.1022 259.4 88.3022 260.3L93.3022 299.1C93.4022 300 92.9022 300.9 92.0022 301.1L61.2022 311.6C60.1022 312 58.9022 311.3 58.7022 310.1Z" fill="#171717"/>
<path d="M52.2037 300.399L48.2037 269.499C48.1037 268.399 48.9037 267.399 50.1037 267.399L87.4037 266.699C88.4037 266.699 89.2037 267.399 89.3037 268.399L92.3037 291.199C92.4037 292.199 91.8037 293.099 90.9037 293.299L54.6037 301.999C53.5037 302.299 52.4037 301.499 52.2037 300.399Z" fill="#263238"/>
<path d="M214.974 294.802L195.438 298.02L195.6 299.006L215.137 295.789L214.974 294.802Z" fill="#005DA4"/>
<path d="M190.371 298.835L184.648 299.777L184.811 300.764L190.534 299.822L190.371 298.835Z" fill="#005DA4"/>
<path d="M272.705 256.099C272.705 256.099 245.805 230.899 207.305 235.899L86.0048 247.299C76.6048 248.199 69.8048 256.699 71.1048 265.999L75.2048 297.799C76.4048 307.099 85.1048 313.599 94.4048 312.099L214.605 292.299C253.105 287.299 272.705 256.099 272.705 256.099Z" fill="#005DA4"/>
<path opacity="0.3" d="M272.698 256.098C272.298 256.698 264.998 267.998 250.898 277.898C246.498 280.998 240.298 278.298 239.598 272.898L236.398 248.098C235.698 242.698 240.998 238.498 246.098 240.398C262.698 246.698 272.698 256.098 272.698 256.098Z" fill="white"/>
<path d="M208.454 267.965C208.965 256.544 200.12 246.872 188.699 246.362C177.278 245.852 167.606 254.697 167.096 266.118C166.585 277.538 175.43 287.21 186.851 287.721C198.272 288.231 207.944 279.386 208.454 267.965Z" fill="white"/>
<path opacity="0.3" d="M201.698 268.2C201.198 274.6 196.198 280.1 189.598 280.9C189.398 280.9 189.198 281 188.998 281C188.098 281.1 187.198 281.1 186.298 281C185.998 281 185.698 280.9 185.398 280.9C185.198 280.9 184.998 280.8 184.698 280.8C179.198 279.5 174.698 274.9 173.998 269C173.898 268.3 173.898 267.7 173.898 267C173.998 260.2 179.098 254.3 186.098 253.4C193.698 252.4 200.698 257.8 201.698 265.5C201.698 266.3 201.698 267.2 201.698 268.2Z" fill="#005DA4"/>
<path opacity="0.3" d="M201.698 268.199C201.198 274.599 196.198 280.099 189.598 280.899C189.398 280.899 189.198 280.999 188.998 280.999C188.098 281.099 187.198 281.099 186.298 280.999C185.998 280.999 185.698 280.899 185.398 280.899C185.198 280.899 184.998 280.799 184.698 280.799C179.198 279.499 174.698 274.899 173.998 268.999C173.898 268.299 173.898 267.699 173.898 266.999C174.398 260.999 179.298 255.899 185.998 255.099C193.598 254.199 200.698 259.299 201.698 266.399C201.598 266.999 201.698 267.599 201.698 268.199Z" fill="#005DA4"/>
<path d="M158.703 235.9L165.003 235.2L165.903 221L159.603 221.6L158.703 235.9Z" fill="#CF7A64"/>
<path d="M122.898 239.602L128.998 239.002L130.298 224.402L124.198 225.002L122.898 239.602Z" fill="#CF7A64"/>
<path d="M129.403 237.602L122.503 238.302C122.203 238.302 122.103 238.502 122.003 238.802L121.503 244.402C121.403 245.002 122.003 245.502 122.503 245.402C124.903 245.102 126.103 244.902 129.103 244.602C131.003 244.402 133.503 244.202 136.103 244.002C138.603 243.702 138.703 241.202 137.603 241.002C132.703 240.402 132.103 239.202 130.403 238.002C130.103 237.602 129.703 237.502 129.403 237.602Z" fill="#263238"/>
<path d="M165.197 234.003L158.497 234.703C158.197 234.703 158.097 234.903 157.997 235.203L157.497 240.803C157.397 241.403 157.897 241.903 158.497 241.803C160.897 241.503 164.397 241.003 167.497 240.703C171.097 240.303 171.097 240.503 175.297 240.103C177.797 239.803 178.197 237.203 177.097 237.103C172.197 236.503 171.297 236.503 166.797 234.403C166.197 234.103 165.697 233.903 165.197 234.003Z" fill="#263238"/>
<path d="M141.203 35.4008C142.803 35.5008 144.503 35.7008 146.203 35.8008C147.903 35.9008 149.603 35.9008 151.203 35.9008C152.803 35.9008 154.403 35.8008 155.903 35.6008C157.403 35.4008 158.803 35.1008 159.503 34.7008L157.703 37.5008C157.703 37.8008 157.803 37.8008 157.703 37.6008C157.703 37.4008 157.503 37.1008 157.303 36.7008C156.903 36.0008 156.303 35.1008 155.703 34.3008C154.303 32.7008 152.703 31.0008 151.103 29.4008C149.403 27.8008 147.703 26.2008 145.903 24.7008C144.103 23.1008 142.303 21.6008 140.403 20.1008L142.803 16.3008C145.003 17.4008 147.103 18.7008 149.303 20.0008C151.403 21.3008 153.503 22.7008 155.503 24.2008C157.503 25.7008 159.503 27.3008 161.403 29.2008C162.303 30.2008 163.303 31.2008 164.203 32.5008C164.603 33.2008 165.103 33.9008 165.403 34.9008C165.703 35.8008 166.003 37.1008 165.903 38.6008L165.703 40.4008L164.103 41.5008C161.803 43.0008 159.703 43.6008 157.603 44.0008C155.603 44.4008 153.603 44.6008 151.603 44.7008C149.703 44.8008 147.803 44.8008 145.903 44.7008C144.003 44.6008 142.203 44.5008 140.203 44.2008L141.203 35.4008Z" fill="#CE7A63"/>
<path d="M144.898 18.5023L141.198 13.9023L138.398 20.5023C138.398 20.5023 141.698 24.4023 145.298 22.4023L144.898 18.5023Z" fill="#CF7A64"/>
<path d="M136.303 11.5L135.703 18.9L138.403 20.4L141.203 13.8L136.303 11.5Z" fill="#CF7A64"/>
<path d="M131.798 12.4019L137.398 10.1019C137.798 9.9019 138.298 10.1019 138.398 10.5019L141.998 22.0019C142.098 22.4019 141.898 22.9019 141.498 23.0019L135.898 25.3019C135.498 25.5019 134.998 25.3019 134.898 24.9019L131.298 13.4019C131.098 13.0019 131.398 12.6019 131.798 12.4019Z" fill="#263238"/>
<path d="M135.099 46.3995C139.199 51.2995 155.799 46.6995 155.799 46.6995L154.399 35.3995C154.399 35.3995 150.199 34.0995 141.799 33.8995C133.299 33.5995 130.599 40.9995 135.099 46.3995Z" fill="#005DA4"/>
<path opacity="0.2" d="M165.903 221L165.403 228.3L159.203 228.9L159.603 221.6L165.903 221Z" fill="#171717"/>
<path opacity="0.2" d="M124.2 224.998L130.3 224.398L129.6 231.898L123.5 232.498L124.2 224.998Z" fill="#171717"/>
<path d="M147.898 37.1C150.298 43.4 156.298 62.1 154.198 90.4L121.298 93.7C120.398 88.7 120.298 61.2 112.398 37.9C112.398 37.9 117.898 36.2 123.198 35.4C127.398 34.8 133.498 34 137.198 34C139.898 34 142.498 34.2 144.398 34.4C145.998 34.6 147.298 35.6 147.898 37.1Z" fill="#005DA4"/>
<path opacity="0.2" d="M135.3 42.201C134.9 42.301 134.4 42.301 134 42.401C134.1 53.401 134.3 56.401 124.4 66.701C122.3 68.901 120.7 70.801 119.5 72.601C119.6 73.901 119.8 75.201 119.9 76.401C122.5 74.101 125.9 71.001 128.5 68.801C140 59.101 135.6 42.001 135.3 42.201Z" fill="#171717"/>
<path opacity="0.2" d="M120.303 42.9997C121.303 46.8997 121.303 56.2997 118.903 67.4997C117.803 59.1997 116.103 49.5997 113.203 40.1997C115.303 39.6997 119.303 39.3997 120.303 42.9997Z" fill="#171717"/>
<path d="M123.497 22.1016C124.897 26.5016 126.097 32.0016 123.297 35.3016C123.297 35.3016 125.697 39.7016 133.997 38.8016C141.597 38.0016 137.197 33.9016 137.197 33.9016C131.997 33.2016 131.497 27.0016 131.997 23.4016L123.497 22.1016Z" fill="#CF7A64"/>
<path d="M134.403 38.5027L136.403 40.3027C136.503 40.4027 136.603 40.6027 136.603 40.8027L136.203 42.6027C136.203 42.8027 136.003 43.0027 135.803 43.0027L133.903 43.3027C133.703 43.3027 133.503 43.3027 133.403 43.1027L132.103 41.5027C131.903 41.3027 131.903 41.0027 132.103 40.9027L133.803 38.6027C133.803 38.3027 134.103 38.3027 134.403 38.5027Z" fill="#263238"/>
<path d="M133.697 38.4027C132.697 41.4027 130.397 44.6027 130.397 44.6027C130.397 44.6027 122.297 40.9027 121.797 35.6027C121.797 35.4027 121.897 35.2027 121.997 35.1027C122.297 34.9027 122.897 34.4027 123.397 34.0027C123.697 33.8027 124.097 33.8027 124.297 34.1027C124.997 35.2027 127.097 37.5027 133.697 38.4027Z" fill="white"/>
<path d="M134 38.4024C136.7 40.4024 138.2 43.2024 138.2 43.2024C138.2 43.2024 140.8 39.2024 138.9 34.2024C138.8 34.0024 138.7 33.9024 138.5 33.8024C138.2 33.7024 137.5 33.5024 136.8 33.4024C136.4 33.3024 136.1 33.7024 136.1 34.0024C136.3 35.1024 136.3 37.3024 134 38.4024Z" fill="white"/>
<path d="M135.203 42.1021C135.503 42.0021 138.803 57.3021 127.603 66.6021C123.003 70.4021 115.703 77.202 115.703 77.1021C116.403 74.4021 118.503 70.3021 123.903 64.8021C133.603 55.0021 133.603 52.3021 134.003 42.3021C134.403 42.3021 134.803 42.2021 135.203 42.1021Z" fill="#263238"/>
<path opacity="0.2" d="M132 23.5016C131.7 25.6016 131.8 28.6016 133 30.9016C132.2 30.9016 131.5 30.7016 130.7 30.4016C127.7 29.4016 126 27.4016 124.2 24.4016C124 23.6016 123.8 22.8016 123.5 22.1016L132 23.5016Z" fill="#171717"/>
<path d="M128.598 8.50038C129.798 -0.899617 136.698 9.00038 134.798 13.7004C133.598 16.6004 128.298 10.7004 128.598 8.50038Z" fill="#263238"/>
<path d="M119.099 17.0006C121.499 22.7006 122.599 26.2006 126.499 28.2006C132.499 31.3006 138.699 26.3006 137.999 20.0006C137.399 14.3006 133.599 5.90061 127.199 5.50061C120.899 5.00061 116.699 11.3006 119.099 17.0006Z" fill="#CF7A64"/>
<path d="M121.797 22.5009C124.297 22.2009 124.997 19.6009 124.997 19.6009C124.097 19.2009 121.797 18.1009 120.697 16.3009C120.697 16.3009 123.197 12.7009 122.997 10.5009C126.297 10.5009 133.897 7.40085 132.197 3.90085C130.497 0.400852 123.597 -1.29915 119.597 1.20085C115.597 3.70085 112.897 3.80085 110.997 3.80085C112.197 4.60085 113.897 5.00085 113.897 5.00085C113.897 5.00085 110.297 8.10085 110.497 13.5009C110.697 18.0009 108.297 19.8009 108.297 19.8009C108.297 19.8009 111.297 20.3009 112.197 18.9009C111.797 20.4009 114.297 25.5009 119.697 26.2009C125.797 26.9009 121.797 22.5009 121.797 22.5009Z" fill="#263238"/>
<path d="M119.301 25.2994C121.601 26.2994 123.301 26.5994 124.501 25.9994C125.801 25.1994 125.301 22.9994 123.901 21.6994C122.601 20.4994 119.901 19.3994 118.401 20.6994C116.801 21.8994 117.001 24.1994 119.301 25.2994Z" fill="#CF7A64"/>
<path d="M154.197 90.3008C154.197 90.3008 168.397 136.901 169.397 154.501C170.497 173.801 167.697 225.001 167.697 225.001L156.597 226.101C156.597 226.101 154.497 177.301 151.697 158.501C148.597 138.001 133.297 92.5008 133.297 92.5008L154.197 90.3008Z" fill="#263238"/>
<path opacity="0.2" d="M144.497 112.301L142.797 122.501C145.197 130.801 147.697 139.601 149.497 147.201C150.497 128.601 144.497 112.301 144.497 112.301Z" fill="#171717"/>
<path d="M155.602 223.302L156.002 227.402L168.402 226.102L168.802 221.402L155.602 223.302Z" fill="#005DA4"/>
<path d="M142.5 91.5C142.5 91.5 147.1 133.1 145.5 151.1C143.7 170.8 132.3 229.6 132.3 229.6L121 230.7C121 230.7 127.2 174 127.2 154.7C127.2 133.8 121.2 93.6 121.2 93.6L142.5 91.5Z" fill="#263238"/>
<path d="M120.7 227.102L120.5 231.002L132.9 229.802L134.2 225.402L120.7 227.102Z" fill="#005DA4"/>
<path d="M128.397 15.8004C128.597 16.3004 128.897 16.6004 129.297 16.5004C129.597 16.4004 129.697 15.9004 129.597 15.5004C129.397 15.0004 129.097 14.7004 128.697 14.8004C128.397 14.9004 128.297 15.3004 128.397 15.8004Z" fill="#263238"/>
<path d="M133.803 14.1012C134.003 14.6012 134.303 14.9012 134.703 14.8012C135.003 14.7012 135.103 14.2012 135.003 13.8012C134.803 13.3012 134.503 13.0012 134.103 13.1012C133.703 13.1012 133.603 13.6012 133.803 14.1012Z" fill="#263238"/>
<path d="M132.203 14.9023C132.203 14.9023 134.203 17.3023 135.903 18.2023C135.303 19.3023 133.803 19.4023 133.803 19.4023L132.203 14.9023Z" fill="#BA4D3C"/>
<path d="M132.502 21.3016C132.602 21.3016 132.602 21.2016 132.602 21.1016C132.602 21.0016 132.502 21.0016 132.402 21.0016C130.402 21.7016 128.902 20.6016 128.802 20.6016C128.702 20.6016 128.602 20.6016 128.602 20.6016C128.602 20.7016 128.602 20.8016 128.602 20.8016C128.802 20.9016 130.302 22.1016 132.502 21.3016Z" fill="#263238"/>
<path d="M126.203 14.6009C126.303 14.6009 126.403 14.5009 126.403 14.4009C126.803 13.2009 127.803 12.9009 127.803 12.9009C127.903 12.9009 128.003 12.7009 128.003 12.5009C128.003 12.3009 127.803 12.2009 127.603 12.3009C127.503 12.3009 126.203 12.7009 125.703 14.2009C125.703 14.4009 125.703 14.5009 125.903 14.6009C126.103 14.6009 126.203 14.6009 126.203 14.6009Z" fill="#263238"/>
<path d="M135.497 11.3999C135.497 11.3999 135.597 11.3999 135.597 11.2999C135.697 11.1999 135.697 10.9999 135.597 10.8999C134.397 9.79987 133.097 10.0999 132.997 10.0999C132.797 10.0999 132.797 10.2999 132.797 10.4999C132.797 10.6999 132.997 10.7999 133.197 10.6999C133.197 10.6999 134.297 10.4999 135.197 11.2999C135.297 11.3999 135.397 11.3999 135.497 11.3999Z" fill="#263238"/>
<path d="M108.5 48L116.9 51.4C116.9 51.4 110 71.9 111.5 74.7C113.5 78.5 118.9 84.5 122.1 88.5C122 89.5 120.9 92 120.1 92.6C113.4 89.4 102.7 79.3 102.2 75.5C101 66.7 108.5 48 108.5 48Z" fill="#CF7A64"/>
<path d="M112.402 37.9007C105.502 40.1007 104.602 55.4007 104.602 55.4007L115.202 60.8007C115.202 60.8007 119.802 55.7007 121.602 48.3007C123.402 40.5007 118.402 35.9007 112.402 37.9007Z" fill="#005DA4"/>
<path d="M131.501 238.4C132.001 238.4 132.401 238.2 132.601 238C132.801 237.8 132.901 237.5 132.801 237.2C132.801 237 132.601 236.9 132.501 236.8C131.801 236.5 129.901 237.9 129.701 238.1C129.701 238.1 129.601 238.2 129.701 238.3C129.701 238.4 129.801 238.4 129.801 238.4C130.301 238.4 131.001 238.5 131.501 238.4ZM132.301 237.1C132.401 237.1 132.401 237.1 132.501 237.1C132.501 237.1 132.601 237.1 132.601 237.3C132.601 237.5 132.601 237.7 132.501 237.8C132.201 238.1 131.401 238.2 130.301 238.1C130.901 237.7 131.801 237.1 132.301 237.1Z" fill="#005DA4"/>
<path d="M129.903 238.4C130.603 238 131.603 236.5 131.403 235.8C131.403 235.7 131.203 235.5 130.903 235.5C130.703 235.5 130.503 235.6 130.303 235.7C129.703 236.4 129.703 238.1 129.703 238.2C129.803 238.3 129.803 238.3 129.903 238.4ZM130.903 235.8C131.203 235.8 131.203 235.9 131.203 235.9C131.303 236.3 130.703 237.4 130.103 237.9C130.103 237.4 130.203 236.3 130.603 235.9C130.603 235.8 130.703 235.8 130.903 235.8Z" fill="#005DA4"/>
<path d="M167.903 234.8C168.503 234.7 169.103 234.6 169.303 234.3C169.503 234.1 169.503 233.9 169.503 233.6C169.503 233.4 169.403 233.3 169.203 233.2C168.403 232.9 166.103 234.4 165.803 234.5C165.703 234.5 165.703 234.6 165.703 234.7C165.703 234.8 165.803 234.8 165.803 234.8C166.403 234.8 167.203 234.8 167.903 234.8ZM168.803 233.4C168.903 233.4 169.003 233.4 169.103 233.4C169.203 233.4 169.203 233.5 169.203 233.5C169.203 233.7 169.203 233.9 169.103 234C168.803 234.4 167.803 234.5 166.403 234.4C167.203 234 168.203 233.4 168.803 233.4Z" fill="#005DA4"/>
<path d="M165.903 234.699C166.003 234.699 166.003 234.699 165.903 234.699C166.703 234.299 168.003 232.799 167.803 232.099C167.803 231.899 167.603 231.699 167.203 231.699C166.903 231.699 166.603 231.799 166.403 231.999C165.703 232.699 165.703 234.399 165.703 234.499C165.803 234.699 165.803 234.699 165.903 234.699ZM167.103 232.099C167.503 232.099 167.503 232.199 167.503 232.199C167.603 232.599 166.803 233.799 166.003 234.299C166.003 233.799 166.103 232.799 166.603 232.299C166.803 232.199 166.903 232.099 167.103 232.099Z" fill="#005DA4"/>
<path d="M120.603 87.6992L126.503 87.8992L122.903 93.9992C122.903 93.9992 117.803 93.6992 117.203 89.5992L120.603 87.6992Z" fill="#CF7A64"/>
<path d="M129.197 89.9023L125.597 95.3023L122.797 94.0023L126.497 87.9023L129.197 89.9023Z" fill="#CF7A64"/>
</g>
<defs>
<clipPath id="clip0_1250_7066">
<rect width="272.7" height="312.4" fill="white"/>
</clipPath>
</defs>
</svg>
