<svg width="966" height="587" viewBox="0 0 966 587" fill="none" xmlns="http://www.w3.org/2000/svg">
<path d="M5.27689 328.119C19.6775 269.149 95.3895 252.558 114.215 235.374C143.554 208.586 108.972 162.618 129.153 129.318C149.36 95.9705 205.862 71.5364 246.123 79.5226C309.915 92.1913 332.501 130.34 404.12 137.542C438.907 141.036 456.607 126.204 501.497 118.883C536.463 113.179 565.264 134.595 588.412 131.457C633.226 120.904 637.139 82.6601 694.767 80.0218C743.75 76.0049 761.476 97.1114 785.136 132.455C825.37 192.519 896.734 129.342 933.797 208.206C957.253 258.12 896.427 313.786 909.575 337.935C916.992 351.531 937.941 374.8 945.077 388.539C963.852 424.691 941.061 457.919 916.967 494L68.2764 490.696C67.4067 490.696 66.0767 490.34 65.3349 489.912C65.2837 489.864 -21.9896 439.831 5.27689 328.119Z" fill="#005DA4"/>
<g opacity="0.4">
<line x1="112.352" y1="67.3517" x2="112.352" y2="469.648" stroke="#005DA4" stroke-width="0.703316" stroke-linecap="round" stroke-dasharray="4.22 4.22"/>
<line x1="170.727" y1="67.3517" x2="170.727" y2="469.648" stroke="#005DA4" stroke-width="0.703316" stroke-linecap="round" stroke-dasharray="4.22 4.22"/>
<line x1="229.102" y1="67.3517" x2="229.102" y2="469.648" stroke="#005DA4" stroke-width="0.703316" stroke-linecap="round" stroke-dasharray="4.22 4.22"/>
<line x1="287.477" y1="67.3517" x2="287.477" y2="469.648" stroke="#005DA4" stroke-width="0.703316" stroke-linecap="round" stroke-dasharray="4.22 4.22"/>
<line x1="345.853" y1="67.3517" x2="345.853" y2="469.648" stroke="#005DA4" stroke-width="0.703316" stroke-linecap="round" stroke-dasharray="4.22 4.22"/>
<line x1="404.228" y1="67.3517" x2="404.228" y2="469.648" stroke="#005DA4" stroke-width="0.703316" stroke-linecap="round" stroke-dasharray="4.22 4.22"/>
<g opacity="0.6">
<line x1="46.2403" y1="418.306" x2="469.637" y2="418.306" stroke="#005DA4" stroke-width="0.703316" stroke-linecap="round" stroke-dasharray="4.22 4.22"/>
<line x1="46.2403" y1="359.931" x2="469.637" y2="359.931" stroke="#005DA4" stroke-width="0.703316" stroke-linecap="round" stroke-dasharray="4.22 4.22"/>
<line x1="46.2403" y1="301.556" x2="469.637" y2="301.556" stroke="#005DA4" stroke-width="0.703316" stroke-linecap="round" stroke-dasharray="4.22 4.22"/>
<line x1="46.2403" y1="243.181" x2="469.637" y2="243.181" stroke="#005DA4" stroke-width="0.703316" stroke-linecap="round" stroke-dasharray="4.22 4.22"/>
<line x1="46.2403" y1="184.805" x2="469.637" y2="184.805" stroke="#005DA4" stroke-width="0.703316" stroke-linecap="round" stroke-dasharray="4.22 4.22"/>
<line x1="46.2403" y1="126.43" x2="469.637" y2="126.43" stroke="#005DA4" stroke-width="0.703316" stroke-linecap="round" stroke-dasharray="4.22 4.22"/>
</g>
</g>
<path opacity="0.6" d="M157.541 375L161.946 386.954C166.98 387.583 172.013 388.842 176.418 390.1L185.856 381.292L211.026 399.538L205.992 411.492C209.138 415.267 211.655 419.672 213.543 424.076L226.127 424.705L231.161 455.535L219.206 459.939C218.576 464.973 217.318 470.006 216.06 474.411L224.869 483.848L206.621 509.016L194.666 503.982C190.89 507.128 186.486 509.645 182.081 511.532L181.452 524.116L150.62 529.149L146.215 517.195C141.181 516.566 136.147 515.307 131.743 514.049L122.304 522.858L97.1349 504.611L102.169 492.657C99.0226 488.882 96.5056 484.477 94.618 480.073L82.0333 479.444L76.9996 448.614L88.9549 444.21C89.5841 439.176 90.8426 434.143 92.1011 429.739L83.2919 420.301L101.54 395.134L113.495 400.167C117.27 397.021 121.675 394.504 126.08 392.617L126.709 380.033L157.541 375ZM177.677 396.392L175.789 395.763C170.755 393.875 165.092 392.617 159.429 391.988L157.541 391.988L153.136 381.292L131.113 385.067L130.484 397.021L129.226 397.65C124.192 400.167 119.158 402.684 115.383 406.459L114.124 407.717L103.427 402.684L90.8426 420.93L99.0227 429.739L98.3934 431.626C96.5057 436.66 95.2472 442.322 94.618 447.985L94.618 449.872L83.921 454.277L87.6965 476.298L99.6518 476.927L100.281 478.186C102.798 483.219 105.315 488.253 109.09 492.028L110.349 493.286L105.315 503.982L123.563 516.566L132.372 508.386L134.26 509.016C139.293 510.903 144.956 512.161 150.62 512.791L152.507 512.791L156.912 523.487L178.935 519.712L179.564 507.757L180.823 507.128C185.857 504.611 190.89 502.095 194.666 498.319L195.924 497.061L206.621 502.095L219.206 483.848L211.026 475.04L211.655 473.152C213.543 468.119 214.801 462.456 215.43 456.793L215.43 454.906L226.127 450.502L222.352 428.48L210.397 427.851L209.767 426.593C207.25 421.559 204.733 416.526 200.958 412.751L199.7 411.492L204.733 400.796L186.486 388.213L177.677 396.392ZM155.024 416.526C161.946 416.526 169.496 418.413 175.789 422.818C191.52 434.143 195.295 456.164 183.969 472.523C178.306 480.073 170.126 485.107 160.687 486.994C151.249 488.882 141.81 486.365 134.26 480.702C118.529 469.377 114.753 447.356 126.079 430.997C132.372 421.559 143.698 416.526 155.024 416.526ZM154.395 481.961C156.283 481.961 157.541 481.961 159.429 481.332C167.609 480.073 174.53 475.669 178.935 469.377C188.373 456.164 185.227 437.289 172.013 427.222C158.8 417.784 139.923 420.93 129.855 434.143C125.45 440.435 123.563 448.614 124.821 456.793C126.08 464.973 130.484 471.894 136.777 476.298C142.44 480.073 148.732 481.961 154.395 481.961Z" fill="#A1D4FF"/>
<path d="M817.072 286.062C816.059 286.062 815.197 285.185 815.197 284.154V283.844C814.082 283.483 813.322 282.4 813.322 281.213L813.272 275.437H814.386C813.93 268.267 808.661 258.26 808.61 258.157C806.988 255.682 806.127 252.741 806.127 249.75C806.127 241.291 812.866 234.431 821.176 234.431C829.487 234.431 836.226 241.291 836.226 249.75C836.226 252.741 835.364 255.682 833.743 258.157C833.54 258.57 828.422 268.267 827.966 275.385H829.081L829.132 281.162C829.132 282.348 828.372 283.431 827.257 283.792V284.102C827.257 285.185 826.396 286.01 825.382 286.01L817.072 286.062ZM813.677 275.952L813.728 281.265C813.728 282.297 814.437 283.225 815.451 283.483L815.603 283.535V284.154C815.603 284.979 816.261 285.598 817.072 285.598L825.382 285.546C826.193 285.546 826.801 284.876 826.801 284.05V283.431L826.953 283.38C827.966 283.122 828.676 282.193 828.625 281.11L828.574 275.798H827.46V275.54C827.814 268.319 833.084 258.312 833.287 257.899C834.858 255.475 835.719 252.638 835.719 249.698C835.719 241.497 829.183 234.843 821.126 234.843C813.069 234.843 806.532 241.497 806.532 249.698C806.532 252.638 807.343 255.424 808.965 257.899C809.015 257.951 814.488 268.37 814.792 275.643V275.901L813.677 275.952ZM821.328 265.121C821.227 265.121 821.176 265.121 821.176 265.121C821.126 265.121 820.67 265.121 819.859 265.069L819.91 264.605C820.822 264.708 821.531 264.708 822.443 264.605L822.494 265.069C821.936 265.069 821.531 265.121 821.328 265.121Z" fill="#78C2FF"/>
<path d="M825.28 275.488H816.97V275.952H825.28V275.488Z" fill="#78C2FF"/>
<path d="M821.531 222H820.67V229.685H821.531V222Z" fill="#78C2FF"/>
<path d="M835.622 225.521L830.283 230.956L830.892 231.576L836.231 226.141L835.622 225.521Z" fill="#78C2FF"/>
<path d="M806.609 225.496L806 226.116L811.339 231.55L811.948 230.93L806.609 225.496Z" fill="#78C2FF"/>
<path d="M815.181 258.946L814.737 259.052L816.775 267.89L817.219 267.784L815.181 258.946Z" fill="#6AAFE8"/>
<path d="M827.15 258.927L825.104 267.763L825.547 267.869L827.594 259.034L827.15 258.927Z" fill="#6AAFE8"/>
<path d="M838 249.853H837.544C837.544 240.62 830.146 233.09 821.076 233.09V232.625C830.45 232.677 838 240.414 838 249.853Z" fill="#78C2FF"/>
<path d="M834.251 249.853H833.795C833.795 242.735 828.12 236.958 821.127 236.958C814.134 236.958 808.459 242.735 808.459 249.853H808.003C808.003 242.477 813.881 236.494 821.127 236.494C828.373 236.546 834.251 242.529 834.251 249.853Z" fill="#78C2FF"/>
<path d="M231.681 85.6599C232.821 89.5472 234.982 94.0273 238.008 98.4247C245.077 108.701 258.354 111.842 258.354 111.842C258.354 111.842 260.167 98.3191 253.098 88.0432C250.072 83.6458 246.661 80.0255 243.438 77.5712L231.681 85.6599Z" fill="#FAAF3B"/>
<path d="M232.792 84.8956C233.681 87.08 234.946 89.4148 236.539 91.7292C241.602 99.089 251.165 101.342 251.165 101.342C251.165 101.342 252.472 91.6445 247.416 84.2456C245.824 81.9312 244.096 79.9149 242.374 78.3037L232.792 84.8956Z" fill="#FBED21"/>
<path d="M233.81 84.195C234.291 85.0919 234.842 86.0423 235.479 86.968C239.141 92.2912 246.03 93.9282 246.03 93.9282C246.03 93.9282 246.964 86.9094 243.302 81.5862C242.665 80.6605 241.975 79.8056 241.309 79.0361L233.81 84.195Z" fill="#F1F1F1"/>
<path d="M201.702 62.0592C201.702 62.0592 200.578 70.9821 197.245 73.275C193.912 75.5678 207.476 99.8919 224.678 98.6276C224.678 98.6276 216.516 89.887 224.572 84.9927L201.702 62.0592Z" fill="#C0272D"/>
<path d="M232.113 41.1366C232.113 41.1366 240.888 43.2837 244.181 40.9837C247.514 38.6908 265.382 60.0532 258.052 75.6669C258.052 75.6669 252.806 64.9201 245.356 70.6939L232.113 41.1366Z" fill="#C0272D"/>
<path d="M226.007 86.0127L227.832 88.6636L247.599 75.0601L245.774 72.4092L226.007 86.0127Z" fill="#C0272D"/>
<path d="M247.898 71.3659C244.462 61.7615 238.592 50.455 230.79 39.1144C212.862 13.0541 191.497 -3.37926 183.111 2.42378C174.687 8.2196 182.404 34.0082 200.333 60.0685C208.135 71.4091 216.596 80.9323 224.337 87.575L247.898 71.3659Z" fill="#F1F1F1"/>
<path d="M210.366 24.1476C213.551 28.7764 212.381 35.1052 207.752 38.2898C203.123 41.4743 196.794 40.3044 193.61 35.6756C190.425 31.0468 191.595 24.718 196.224 21.5334C200.853 18.3489 207.182 19.5188 210.366 24.1476Z" fill="#961F23"/>
<path d="M200.032 6.40018C192.847 1.55708 186.729 -0.0990017 183.111 2.42399C179.455 4.93975 178.86 11.2134 180.776 19.6478C180.776 19.6478 183.428 19.2895 191.104 14.0423C198.749 8.74879 200.032 6.40018 200.032 6.40018Z" fill="#C0272D"/>
<path d="M226.838 70.9879C234.066 81.4953 240.951 89.2727 242.201 88.4129C243.497 87.5212 238.656 78.3036 231.42 67.8352C224.191 57.3278 217.306 49.5505 216.056 50.4103C214.807 51.2701 219.609 60.4805 226.838 70.9879Z" fill="#C0272D"/>
<path d="M209.952 23.5461C213.137 28.1749 211.967 34.5037 207.338 37.6882C202.709 40.8727 196.38 39.7028 193.196 35.074C190.011 30.4452 191.181 24.1164 195.81 20.9319C200.439 17.7474 206.768 18.9172 209.952 23.5461Z" fill="#C0272D"/>
<path d="M208.054 24.8517C210.506 28.4159 209.596 33.3383 206.032 35.7904C202.468 38.2425 197.546 37.3326 195.094 33.7684C192.641 30.2042 193.551 25.2818 197.116 22.8297C200.719 20.3848 205.602 21.2875 208.054 24.8517Z" fill="#CBCBCB"/>
<path d="M209.309 30.7398C208.522 34.998 204.402 37.8322 200.144 37.0451C195.886 36.2579 193.051 32.1383 193.839 27.88C194.626 23.6218 198.745 20.7875 203.004 21.5747C207.301 22.3691 210.096 26.4815 209.309 30.7398Z" fill="#CBCBCB"/>
<path opacity="0.4" d="M203.583 21.7221C203.387 21.686 203.238 21.618 203.043 21.5819C202.418 21.4664 201.778 21.429 201.164 21.4769L198.39 36.4785C198.948 36.7431 199.558 36.9368 200.183 37.0523C200.379 37.0884 200.574 37.1245 200.737 37.1143L203.583 21.7221Z" fill="url(#paint0_linear_692_30451)"/>
<path opacity="0.4" d="M207.396 24.0429C206.659 23.2199 205.698 22.517 204.648 22.0804L201.853 37.1992C203.029 37.1742 204.139 36.8541 205.121 36.3489L207.396 24.0429Z" fill="url(#paint1_linear_692_30451)"/>
<path d="M196.928 21.6637C197.087 21.8951 197.029 22.2077 196.79 22.406C196.559 22.5652 196.246 22.5074 196.048 22.2688C195.889 22.0373 195.947 21.7248 196.185 21.5265C196.463 21.3354 196.776 21.3932 196.928 21.6637Z" fill="#FAAF3B"/>
<path d="M195.125 23.1085C195.331 23.3081 195.351 23.635 195.19 23.8478C194.991 24.0533 194.664 24.0736 194.451 23.9131C194.246 23.7135 194.225 23.3865 194.386 23.1738C194.546 22.9611 194.873 22.9407 195.125 23.1085Z" fill="#FAAF3B"/>
<path d="M193.726 24.9911C193.985 25.1198 194.091 25.4222 193.962 25.6812C193.834 25.9402 193.531 26.0459 193.272 25.9173C193.013 25.7886 192.908 25.4862 193.036 25.2272C193.158 25.0072 193.467 24.8625 193.726 24.9911Z" fill="#FAAF3B"/>
<path d="M192.878 27.1773C193.151 27.2278 193.342 27.5056 193.292 27.779C193.241 28.0525 192.963 28.2436 192.69 28.193C192.417 28.1425 192.225 27.8647 192.276 27.5913C192.327 27.3178 192.604 27.1267 192.878 27.1773Z" fill="#FAAF3B"/>
<path d="M192.608 29.5114C192.896 29.4838 193.141 29.6906 193.168 29.9785C193.196 30.2664 192.989 30.511 192.701 30.5386C192.413 30.5662 192.169 30.3594 192.141 30.0714C192.113 29.7835 192.32 29.539 192.608 29.5114Z" fill="#FAAF3B"/>
<path d="M192.946 31.8364C193.209 31.7235 193.507 31.8594 193.613 32.1618C193.726 32.425 193.551 32.7159 193.288 32.8289C193.025 32.9418 192.727 32.8059 192.621 32.5035C192.554 32.2084 192.69 31.9103 192.946 31.8364Z" fill="#FAAF3B"/>
<path d="M193.921 33.9958C194.152 33.8366 194.465 33.8943 194.663 34.133C194.822 34.3644 194.757 34.716 194.526 34.8753C194.294 35.0345 193.982 34.9767 193.783 34.738C193.592 34.4603 193.65 34.1478 193.921 33.9958Z" fill="#FAAF3B"/>
<path d="M195.365 35.7981C195.565 35.5926 195.892 35.5722 196.105 35.7328C196.31 35.9324 196.331 36.2593 196.17 36.4721C195.97 36.6776 195.636 36.737 195.431 36.5374C195.218 36.3769 195.205 36.0108 195.365 35.7981Z" fill="#FAAF3B"/>
<path d="M197.248 37.1969C197.376 36.9379 197.679 36.8322 197.938 36.9609C198.197 37.0896 198.302 37.3919 198.174 37.6509C198.045 37.9099 197.743 38.0157 197.484 37.887C197.264 37.7655 197.119 37.4559 197.248 37.1969Z" fill="#FAAF3B"/>
<path d="M199.434 38.0454C199.485 37.7719 199.762 37.5808 200.036 37.6314C200.309 37.6819 200.5 37.9597 200.45 38.2331C200.399 38.5066 200.122 38.6977 199.848 38.6471C199.575 38.5966 199.384 38.3188 199.434 38.0454Z" fill="#FAAF3B"/>
<path d="M201.768 38.3151C201.74 38.0272 201.947 37.7826 202.235 37.755C202.523 37.7275 202.768 37.9343 202.795 38.2222C202.823 38.5101 202.616 38.7547 202.328 38.7823C202.04 38.8098 201.796 38.603 201.768 38.3151Z" fill="#FAAF3B"/>
<path d="M204.1 37.9379C203.987 37.6746 204.162 37.3837 204.425 37.2708C204.689 37.1579 204.987 37.2938 205.092 37.5961C205.205 37.8594 205.069 38.1575 204.767 38.2632C204.504 38.3761 204.167 38.233 204.1 37.9379Z" fill="#FAAF3B"/>
<path d="M206.253 37.0027C206.094 36.7712 206.159 36.4196 206.39 36.2604C206.622 36.1012 206.973 36.1662 207.133 36.3976C207.292 36.629 207.234 36.9416 206.995 37.1399C206.725 37.2919 206.412 37.2341 206.253 37.0027Z" fill="#FAAF3B"/>
<path d="M208.055 35.5581C207.849 35.3585 207.829 35.0316 207.989 34.8188C208.189 34.6133 208.523 34.5539 208.729 34.7535C208.934 34.9531 208.993 35.2873 208.794 35.4928C208.633 35.7055 208.267 35.7187 208.055 35.5581Z" fill="#FAAF3B"/>
<path d="M209.453 33.6755C209.194 33.5468 209.089 33.2445 209.217 32.9855C209.346 32.7264 209.648 32.6207 209.907 32.7494C210.166 32.8781 210.272 33.1804 210.143 33.4395C210.022 33.6594 209.72 33.7651 209.453 33.6755Z" fill="#FAAF3B"/>
<path d="M210.302 31.4889C210.029 31.4383 209.838 31.1606 209.888 30.8872C209.939 30.6137 210.217 30.4226 210.49 30.4732C210.764 30.5237 210.955 30.8015 210.904 31.0749C210.853 31.3484 210.576 31.5394 210.302 31.4889Z" fill="#FAAF3B"/>
<path d="M210.571 29.1553C210.283 29.1829 210.039 28.9761 210.011 28.6882C209.984 28.4003 210.19 28.1557 210.478 28.1281C210.766 28.1005 211.011 28.3073 211.038 28.5952C211.066 28.8831 210.859 29.1277 210.571 29.1553Z" fill="#FAAF3B"/>
<path d="M210.195 26.8231C209.932 26.936 209.641 26.761 209.528 26.4977C209.415 26.2345 209.551 25.9364 209.853 25.8307C210.116 25.7177 210.415 25.8536 210.52 26.156C210.633 26.4193 210.497 26.7174 210.195 26.8231Z" fill="#FAAF3B"/>
<path d="M209.259 24.6706C209.028 24.8298 208.676 24.7649 208.517 24.5334C208.358 24.302 208.423 23.9504 208.654 23.7912C208.885 23.6319 209.198 23.6897 209.396 23.9284C209.548 24.1989 209.491 24.5114 209.259 24.6706Z" fill="#FAAF3B"/>
<path d="M207.815 22.8685C207.615 23.0741 207.288 23.0944 207.076 22.9339C206.87 22.7343 206.811 22.4001 207.01 22.1946C207.21 21.9891 207.544 21.9296 207.75 22.1292C207.962 22.2898 207.983 22.6167 207.815 22.8685Z" fill="#FAAF3B"/>
<path d="M205.932 21.4698C205.804 21.7288 205.501 21.8345 205.242 21.7058C204.983 21.5771 204.877 21.2748 205.006 21.0158C205.135 20.7567 205.437 20.651 205.696 20.7797C205.916 20.9012 206.022 21.2035 205.932 21.4698Z" fill="#FAAF3B"/>
<path d="M203.746 20.6213C203.695 20.8947 203.418 21.0858 203.144 21.0353C202.871 20.9847 202.68 20.707 202.73 20.4335C202.781 20.1601 203.058 19.969 203.332 20.0195C203.605 20.0701 203.804 20.3087 203.746 20.6213Z" fill="#FAAF3B"/>
<path d="M201.412 20.3516C201.44 20.6395 201.233 20.8841 200.945 20.9116C200.657 20.9392 200.413 20.7324 200.385 20.4445C200.358 20.1566 200.564 19.912 200.852 19.8844C201.14 19.8568 201.385 20.0637 201.412 20.3516Z" fill="#FAAF3B"/>
<path d="M199.087 20.6895C199.2 20.9528 199.025 21.2436 198.762 21.3566C198.499 21.4695 198.201 21.3336 198.095 21.0312C197.982 20.768 198.118 20.4699 198.42 20.3642C198.676 20.2903 198.974 20.4262 199.087 20.6895Z" fill="#FAAF3B"/>
<g opacity="0.5">
<path d="M244.181 40.9832C240.941 43.2123 232.465 41.2011 232.113 41.1361C238.758 51.091 243.888 60.9278 247.178 69.5758C253.65 66.6917 258.013 75.6591 258.013 75.6591C265.382 60.0527 247.514 38.6903 244.181 40.9832Z" fill="#C0272D"/>
<path d="M193.99 3.02048C194.178 3.09566 194.398 3.21713 194.586 3.2923C194.406 3.17806 194.217 3.10288 193.99 3.02048Z" fill="#F1F1F1"/>
<path d="M230.752 39.1067C220.593 24.3408 209.373 12.6916 199.993 6.39228C199.986 6.43135 198.71 8.74092 191.119 13.9635L195.864 20.8605C200.486 17.715 206.768 18.9167 209.96 23.5065C210.024 23.5991 210.087 23.6916 210.144 23.8233C210.207 23.9158 210.31 24.0157 210.374 24.1082C213.527 28.6908 212.403 34.9877 207.806 38.2185L216.149 50.346C217.551 49.7567 224.373 57.4415 231.467 67.8028C234.014 71.5059 236.264 75.073 238.039 78.1484L245.954 72.7029L247.852 71.3972C247.64 70.7925 247.422 70.2269 247.21 69.6222C243.92 60.9741 238.79 51.1374 232.145 41.1824C231.714 40.4563 231.229 39.801 230.752 39.1067Z" fill="#F1F1F1"/>
<path d="M198.145 5.2426C198.546 5.47831 198.94 5.75309 199.34 5.9888C198.947 5.71403 198.546 5.47831 198.145 5.2426Z" fill="#F1F1F1"/>
<path d="M195.332 3.63182C195.551 3.75328 195.74 3.82845 195.96 3.94991C195.732 3.86752 195.551 3.75328 195.332 3.63182Z" fill="#F1F1F1"/>
<path d="M184.759 1.59668C184.845 1.57206 184.969 1.55464 185.101 1.49818C184.969 1.55464 184.884 1.57928 184.759 1.59668Z" fill="#F1F1F1"/>
<path d="M187.684 1.28857C187.801 1.31024 187.926 1.29285 188.082 1.32173C187.965 1.30007 187.848 1.27839 187.684 1.28857Z" fill="#F1F1F1"/>
<path d="M186.632 1.29639C186.757 1.27898 186.881 1.2616 187.037 1.29049C186.92 1.26882 186.796 1.28621 186.632 1.29639Z" fill="#F1F1F1"/>
<path d="M190.316 1.69483C190.434 1.71649 190.583 1.78444 190.7 1.8061C190.543 1.77722 190.434 1.71649 190.316 1.69483Z" fill="#F1F1F1"/>
<path d="M210.366 24.1477C210.303 24.0551 210.239 23.9625 210.136 23.8627C213.047 28.441 211.882 34.5282 207.384 37.6562L207.798 38.2579C212.388 35.0662 213.512 28.7692 210.366 24.1477Z" fill="#961F23"/>
<path d="M200.032 6.39936C199.819 6.23883 199.599 6.11738 199.387 5.95685C198.993 5.68208 198.592 5.44638 198.191 5.21067C197.9 5.0357 197.649 4.86794 197.358 4.69297C197.138 4.57151 196.918 4.45005 196.698 4.32859C196.439 4.19991 196.226 4.03937 195.967 3.91069C195.747 3.78923 195.52 3.70683 195.339 3.59259C195.119 3.47113 194.86 3.34244 194.633 3.26005C194.406 3.17765 194.225 3.06343 194.037 2.98825C193.81 2.90586 193.551 2.77716 193.323 2.69477C193.135 2.61959 192.947 2.54442 192.759 2.46925C192.532 2.38685 192.266 2.29724 192.038 2.21485C191.85 2.13967 191.701 2.07171 191.506 2.03561C191.24 1.94599 190.973 1.85637 190.7 1.80582C190.583 1.78415 190.434 1.71621 190.316 1.69454C189.933 1.58326 189.542 1.51103 189.191 1.44604C189.074 1.42438 188.995 1.40993 188.917 1.39549C188.644 1.34494 188.363 1.33347 188.129 1.29014C188.012 1.26848 187.887 1.28587 187.731 1.25698C187.489 1.25272 187.287 1.25567 187.045 1.25141C186.921 1.26881 186.803 1.24715 186.64 1.25733C186.437 1.26029 186.228 1.30233 186.025 1.30529C185.901 1.32269 185.776 1.34009 185.652 1.35749C185.442 1.39952 185.271 1.44875 185.062 1.49078C184.937 1.50818 184.852 1.53281 184.72 1.58928C184.503 1.67038 184.332 1.71962 184.115 1.80071C184.03 1.82533 183.945 1.84997 183.852 1.91366C183.589 2.0266 183.318 2.1786 183.08 2.37689L191.073 13.9952C198.703 8.77983 199.986 6.43121 200.032 6.39936Z" fill="#C0272D"/>
<path d="M231.466 67.803C224.365 57.4807 217.59 49.7641 216.149 50.3462L235.956 79.1374L236.147 79.4152L237.772 81.7759L242.262 88.3025C242.853 87.725 241.696 84.8042 239.438 80.6294L247.585 75.0247L245.961 72.664L238.045 78.1095C236.263 75.0732 234.014 71.5061 231.466 67.803Z" fill="#C0272D"/>
<path d="M210.137 23.8622C210.073 23.7696 210.016 23.638 209.953 23.5454C206.8 18.9629 200.478 17.7539 195.857 20.8994L196.271 21.5011L197.163 22.7972C200.719 20.3842 205.603 21.2869 208.055 24.851C210.507 28.4152 209.612 33.2595 206.079 35.7579L207.385 37.6557C211.882 34.5276 213.087 28.4477 210.137 23.8622ZM210.521 26.1553C210.634 26.4186 210.459 26.7094 210.195 26.8224C209.932 26.9353 209.641 26.7604 209.528 26.4971C209.415 26.2338 209.551 25.9357 209.854 25.83C210.149 25.7633 210.447 25.8992 210.521 26.1553ZM207.018 22.1545C207.218 21.949 207.552 21.8896 207.757 22.0892C207.963 22.2888 207.983 22.6157 207.823 22.8285C207.623 23.034 207.296 23.0543 207.083 22.8938C206.832 22.7261 206.811 22.3991 207.018 22.1545ZM209.26 24.6698C209.029 24.829 208.677 24.764 208.518 24.5326C208.359 24.3011 208.424 23.9496 208.655 23.7903C208.886 23.6311 209.199 23.6889 209.397 23.9275C209.549 24.1981 209.491 24.5106 209.26 24.6698ZM199.088 20.6885C199.2 20.9518 199.026 21.2427 198.762 21.3556C198.499 21.4686 198.201 21.3327 198.095 21.0303C197.982 20.767 198.118 20.4689 198.42 20.3632C198.677 20.2894 198.975 20.4253 199.088 20.6885ZM201.413 20.3507C201.44 20.6386 201.233 20.8832 200.945 20.9107C200.657 20.9383 200.413 20.7315 200.385 20.4436C200.358 20.1557 200.565 19.9111 200.852 19.8835C201.14 19.8559 201.385 20.0628 201.413 20.3507ZM203.746 20.6205C203.696 20.8939 203.418 21.085 203.145 21.0345C202.871 20.9839 202.68 20.7062 202.731 20.4327C202.781 20.1592 203.059 19.9682 203.332 20.0187C203.606 20.0693 203.804 20.3079 203.746 20.6205ZM205.204 21.6979C204.945 21.5692 204.839 21.2669 204.968 21.0078C205.096 20.7488 205.399 20.6431 205.658 20.7718C205.917 20.9004 206.022 21.2028 205.894 21.4618C205.804 21.7281 205.463 21.8266 205.204 21.6979ZM210.019 28.6483C209.992 28.3604 210.199 28.1158 210.487 28.0883C210.775 28.0607 211.019 28.2675 211.047 28.5554C211.074 28.8433 210.867 29.0879 210.58 29.1155C210.284 29.1821 210.008 28.929 210.019 28.6483ZM208.795 35.4922C208.595 35.6977 208.268 35.7181 208.055 35.5576C207.85 35.358 207.83 35.031 207.99 34.8183C208.19 34.6127 208.524 34.5533 208.729 34.7529C208.981 34.9207 209.002 35.2476 208.795 35.4922ZM210.151 33.3997C210.023 33.6587 209.72 33.7644 209.461 33.6357C209.202 33.5071 209.096 33.2047 209.225 32.9457C209.354 32.6866 209.656 32.5809 209.915 32.7096C210.174 32.8383 210.28 33.1406 210.151 33.3997ZM210.911 31.0353C210.861 31.3088 210.583 31.4998 210.31 31.4493C210.036 31.3987 209.845 31.121 209.896 30.8476C209.946 30.5741 210.224 30.383 210.497 30.4336C210.771 30.4841 210.962 30.7618 210.911 31.0353Z" fill="#C0272D"/>
<path d="M208.055 24.851C205.602 21.2868 200.758 20.3914 197.162 22.7972L206.079 35.7579C209.643 33.3058 210.507 28.4152 208.055 24.851Z" fill="#CBCBCB"/>
<path d="M207.99 34.8184C207.791 35.0239 207.85 35.3581 208.056 35.5577C208.261 35.7573 208.595 35.6979 208.795 35.4924C208.994 35.2868 208.935 34.9526 208.729 34.753C208.524 34.5534 208.197 34.5738 207.99 34.8184Z" fill="#FAAF3B"/>
<path d="M209.225 32.9459C209.096 33.205 209.202 33.5073 209.461 33.636C209.72 33.7647 210.022 33.659 210.151 33.3999C210.28 33.1409 210.174 32.8386 209.915 32.7099C209.656 32.5812 209.314 32.6797 209.225 32.9459Z" fill="#FAAF3B"/>
<path d="M209.895 30.8481C209.845 31.1216 210.036 31.3993 210.309 31.4498C210.583 31.5004 210.86 31.3093 210.911 31.0359C210.961 30.7624 210.77 30.4847 210.497 30.4341C210.223 30.3836 209.946 30.5746 209.895 30.8481Z" fill="#FAAF3B"/>
<path d="M210.572 29.1545C210.86 29.1269 211.066 28.8823 211.039 28.5944C211.011 28.3065 210.767 28.0997 210.479 28.1273C210.191 28.1549 209.984 28.3995 210.012 28.6874C210.007 28.929 210.284 29.1821 210.572 29.1545Z" fill="#FAAF3B"/>
<path d="M209.853 25.83C209.59 25.943 209.454 26.241 209.528 26.4971C209.641 26.7604 209.939 26.8963 210.195 26.8224C210.459 26.7095 210.594 26.4114 210.521 26.1553C210.447 25.8993 210.149 25.7634 209.853 25.83Z" fill="#FAAF3B"/>
<path d="M208.686 23.837C208.455 23.9963 208.397 24.3088 208.549 24.5793C208.708 24.8108 209.021 24.8685 209.291 24.7165C209.523 24.5573 209.588 24.2057 209.429 23.9742C209.237 23.6965 208.925 23.6387 208.686 23.837Z" fill="#FAAF3B"/>
<path d="M207.815 22.8676C208.015 22.6621 207.955 22.3279 207.75 22.1283C207.544 21.9287 207.217 21.949 207.01 22.1936C206.811 22.3991 206.87 22.7333 207.076 22.9329C207.288 23.0934 207.615 23.0731 207.815 22.8676Z" fill="#FAAF3B"/>
<path d="M205.657 20.7719C205.398 20.6432 205.096 20.7489 204.967 21.008C204.838 21.267 204.944 21.5693 205.203 21.698C205.462 21.8267 205.764 21.721 205.893 21.462C206.022 21.2029 205.916 20.9006 205.657 20.7719Z" fill="#FAAF3B"/>
<path d="M202.691 20.4257C202.641 20.6992 202.832 20.9769 203.105 21.0275C203.379 21.078 203.656 20.8869 203.707 20.6135C203.757 20.34 203.566 20.0623 203.293 20.0117C203.019 19.9612 202.749 20.1132 202.691 20.4257Z" fill="#FAAF3B"/>
<path d="M200.852 19.8835C200.564 19.911 200.358 20.1556 200.385 20.4435C200.413 20.7315 200.657 20.9383 200.945 20.9107C201.233 20.8831 201.44 20.6385 201.412 20.3506C201.385 20.0627 201.14 19.8559 200.852 19.8835Z" fill="#FAAF3B"/>
<path d="M198.413 20.4023C198.15 20.5152 198.014 20.8133 198.088 21.0694C198.162 21.3254 198.499 21.4686 198.755 21.3947C199.018 21.2818 199.154 20.9837 199.08 20.7276C198.974 20.4252 198.676 20.2893 198.413 20.4023Z" fill="#FAAF3B"/>
</g>
<ellipse opacity="0.4" cx="503" cy="558" rx="463" ry="29" fill="#005DA4"/>
<g opacity="0.4">
<path d="M751.649 540.021C745.364 542.284 738.599 540.805 731.354 535.583C740.129 533.876 746.894 535.355 751.649 540.021Z" fill="#BEFFB4"/>
<path d="M742.027 531.726C736.261 533.673 730.116 532.598 723.616 527.718C731.646 526.314 737.778 527.389 742.027 531.726Z" fill="#BEFFB4"/>
<path d="M732.91 523.823C727.144 524.215 721.859 521.37 717.066 515.301C724.792 515.958 730.065 518.791 732.91 523.823Z" fill="#BEFFB4"/>
<path d="M713.134 504.021C719.355 506.057 723.148 509.421 724.527 514.112C719.684 513.315 715.89 509.952 713.134 504.021Z" fill="#BEFFB4"/>
<path d="M713.425 495.145C718.242 497.75 720.872 501.075 721.315 505.134C717.458 503.769 714.828 500.43 713.425 495.145Z" fill="#BEFFB4"/>
<path d="M722.921 501.164C719.81 498.496 718.546 494.45 719.127 489C722.693 493.16 723.957 497.219 722.921 501.164Z" fill="#BEFFB4"/>
<path d="M748.374 519.499C753.242 527.085 754.367 533.977 751.737 540.185C747.299 535.14 746.186 528.249 748.374 519.499Z" fill="#BEFFB4"/>
<path d="M736.843 525.619C734.832 520.485 735.894 514.871 740.029 508.764C741.648 515.958 740.585 521.573 736.843 525.619Z" fill="#BEFFB4"/>
<path d="M733.757 502.53C735.173 508.789 734.238 513.67 730.988 517.198C729.23 512.734 730.153 507.841 733.757 502.53Z" fill="#BEFFB4"/>
<path d="M726.828 508.763C725.083 504.3 726.006 499.419 729.597 494.096C731.013 500.355 730.09 505.248 726.828 508.763Z" fill="#BEFFB4"/>
<path d="M762.966 548.025C749.373 539.616 750.701 539.629 743.329 533.205C741.331 531.473 739.485 529.715 737.778 527.932C734.326 524.24 731.278 520.194 728.686 515.844C725.55 510.812 723.742 506.753 723.262 503.667L723.059 503.326C722.958 503.25 722.933 503.124 722.996 503.01C722.984 502.896 723.022 502.77 723.097 502.681C723.199 502.618 723.325 502.58 723.451 502.567C723.565 502.555 723.692 502.593 723.78 502.669L723.97 502.833C724.033 502.947 724.071 503.06 724.084 503.187L724.134 503.2L724.147 503.478C724.678 506.487 726.461 510.432 729.47 515.313C732.05 519.6 735.097 523.583 738.549 527.199C740.269 529.033 742.077 530.777 743.974 532.434L744.467 532.864C741.179 527.768 741.091 521.471 744.214 513.973C747.539 521.383 747.628 527.68 744.467 532.864C751.737 539.136 750.207 538.933 763.459 547.127L762.966 548.025Z" fill="#BEFFB4"/>
</g>
<g opacity="0.4">
<path d="M420.74 553.034C426.351 555.057 432.381 553.737 438.843 549.076C431.025 547.559 424.982 548.878 420.74 553.034Z" fill="#BEFFB4"/>
<path d="M429.298 545.339C434.625 546.387 439.879 544.365 445.058 539.272C437.795 538.976 432.541 540.998 429.298 545.339Z" fill="#BEFFB4"/>
<path d="M437.61 537.2C442.765 537.434 447.414 534.807 451.57 529.307C444.713 530.035 440.052 532.661 437.61 537.2Z" fill="#BEFFB4"/>
<path d="M454.603 519.393C449.054 521.205 445.663 524.214 444.442 528.395C448.758 527.68 452.149 524.683 454.603 519.393Z" fill="#BEFFB4"/>
<path d="M454.344 511.476C450.04 513.794 447.697 516.766 447.303 520.392C450.756 519.171 453.099 516.199 454.344 511.476Z" fill="#BEFFB4"/>
<path d="M445.872 516.852C448.647 514.472 449.769 510.859 449.251 506C446.07 509.712 444.947 513.325 445.872 516.852Z" fill="#BEFFB4"/>
<path d="M422.084 533.389C417.743 540.159 416.744 546.301 419.087 551.838C423.046 547.337 424.044 541.183 422.084 533.389Z" fill="#BEFFB4"/>
<path d="M433.725 537.693C435.526 533.118 434.576 528.111 430.877 522.661C429.434 529.061 430.383 534.08 433.725 537.693Z" fill="#BEFFB4"/>
<path d="M436.204 518.061C434.946 523.647 435.773 528 438.683 531.145C440.249 527.162 439.423 522.808 436.204 518.061Z" fill="#BEFFB4"/>
<path d="M442.383 523.622C443.936 519.639 443.11 515.286 439.904 510.538C438.646 516.124 439.472 520.478 442.383 523.622Z" fill="#BEFFB4"/>
<path d="M410.147 558.645C422.269 551.147 421.085 551.16 427.658 545.425C429.434 543.884 431.086 542.318 432.615 540.727C435.698 537.434 438.424 533.821 440.717 529.949C443.517 525.46 445.12 521.834 445.552 519.084L445.737 518.776C445.823 518.714 445.848 518.591 445.798 518.492C445.811 518.381 445.774 518.283 445.712 518.196C445.613 518.135 445.515 518.11 445.404 518.098C445.293 518.085 445.194 518.122 445.108 518.184L444.935 518.332C444.873 518.431 444.849 518.529 444.824 518.64L444.775 518.653L444.762 518.899C444.281 521.575 442.703 525.102 440.015 529.455C437.708 533.278 434.995 536.83 431.912 540.061C430.383 541.701 428.768 543.255 427.078 544.735L426.634 545.117C429.569 540.579 429.643 534.955 426.856 528.259C423.884 534.869 423.81 540.492 426.634 545.117C420.148 550.703 421.517 550.531 409.703 557.843L410.147 558.645Z" fill="#BEFFB4"/>
</g>
<g opacity="0.4">
<path d="M386.273 506.46C386.273 506.46 384.054 510.357 387.408 517.374C390.824 524.526 390.121 529.471 390.121 529.471L393.29 532.234C393.29 532.234 393.993 524.699 390.972 519.088C387.186 512.059 386.273 506.46 386.273 506.46Z" fill="#BEFFB4"/>
<path d="M376.778 508.532C376.778 508.532 376.161 511.775 379.984 516.338C383.893 520.987 384.51 524.748 384.51 524.748L387.149 526.906C387.149 526.906 386.064 520.568 382.759 516.967C378.652 512.478 376.778 508.532 376.778 508.532Z" fill="#BEFFB4"/>
<path d="M393.143 513.982C393.143 513.982 396.028 516.03 397.792 524.243C399.235 530.927 397.668 534.404 398.581 538.498L394.511 534.01C394.289 531.111 396.176 529.212 395.165 523.083C394.215 517.349 393.143 513.982 393.143 513.982Z" fill="#BEFFB4"/>
<path d="M418.978 538.979C418.978 538.979 420.235 542.309 417.115 550.091C414.587 556.442 411.245 557.255 410.592 558.723L409.186 555.492C410.986 553.001 412.997 553.322 415.574 547.674C417.991 542.371 418.978 538.979 418.978 538.979Z" fill="#BEFFB4"/>
<path d="M399.875 519.162C399.875 519.162 401.812 524.958 402.243 528.645C402.847 533.886 400.751 536.673 400.985 542.075L403.846 545.614C403.846 545.614 406.448 539.978 405.437 533.529C403.748 522.726 399.875 519.162 399.875 519.162Z" fill="#BEFFB4"/>
<path d="M410.407 522.159C409.803 525.538 409.692 528.978 410.074 532.394C411.332 542.716 405.819 550.473 405.819 550.473L407.953 552.557C407.953 552.557 414.661 547.18 413.366 538.536C411.985 529.398 410.407 522.159 410.407 522.159Z" fill="#BEFFB4"/>
<path d="M394.721 534.737C394.721 534.737 392.292 533.862 382.167 535.07C375.68 535.847 377.592 533.405 371.463 535.218C376.112 535.662 377.678 539.066 383.758 538.696C388.617 538.387 393.488 538.461 398.334 538.918L394.721 534.737Z" fill="#BEFFB4"/>
<path d="M375.064 541.187C375.064 541.187 378.998 546.218 387.976 545.638C393.5 545.293 399.05 545.86 404.389 547.315L401.713 542.777C401.713 542.777 398.014 540.052 388.74 541.556C382.364 542.58 375.064 541.187 375.064 541.187Z" fill="#BEFFB4"/>
<path d="M380.354 549.745C380.354 549.745 384.288 554.777 393.266 554.197C398.791 553.852 404.34 554.419 409.68 555.874L407.004 551.336C407.004 551.336 403.304 548.611 394.031 550.115C387.655 551.139 380.354 549.745 380.354 549.745Z" fill="#BEFFB4"/>
<path d="M368.836 524.711C368.836 524.711 371.685 527.326 377.345 526.746C383.08 526.154 387.297 527.424 387.297 527.424L385.694 525.723C385.694 525.723 383.351 523.996 377.493 524.946C373.449 525.587 368.836 524.711 368.836 524.711Z" fill="#BEFFB4"/>
<path d="M389.702 530.199C389.702 530.199 385.287 529.718 378.788 530.248C374.694 530.569 369.255 528.065 369.255 528.065C369.255 528.065 373.411 533.96 379.54 533.097C386.569 532.11 393.5 533.097 393.5 533.097L389.702 530.199Z" fill="#BEFFB4"/>
<path d="M386.113 526.401C386.113 526.401 382.488 520.617 376.334 519.433C372.696 518.705 369.206 517.361 366 515.487C366 515.487 369.367 521.455 375.126 521.924C380.441 522.38 384.116 525.92 384.116 525.92L386.113 526.401Z" fill="#BEFFB4"/>
<path d="M410.099 558.821L411.024 558.439C408.68 552.717 398.075 534.108 384.633 524.773L384.066 525.599C397.31 534.811 407.78 553.173 410.099 558.821Z" fill="#BEFFB4"/>
</g>
<g opacity="0.4">
<path d="M799.407 503.623C799.407 503.623 800.57 508.023 795.449 514.029C790.227 520.149 789.633 525.194 789.633 525.194L785.801 527.078C785.801 527.078 787.078 519.504 791.504 514.775C797.055 508.87 799.407 503.623 799.407 503.623Z" fill="#BEFFB4"/>
<path d="M808.195 508.137C808.195 508.137 807.954 511.475 803.01 514.965C797.952 518.505 796.372 522.033 796.372 522.033L793.211 523.462C793.211 523.462 795.929 517.519 800.102 514.851C805.324 511.525 808.195 508.137 808.195 508.137Z" fill="#BEFFB4"/>
<path d="M790.707 509.211C790.707 509.211 787.344 510.476 783.462 518.063C780.301 524.246 780.933 528.065 778.973 531.845L784.132 528.507C785.106 525.713 783.753 523.373 786.345 517.62C788.773 512.233 790.707 509.211 790.707 509.211Z" fill="#BEFFB4"/>
<path d="M758.83 527.002C758.83 527.002 756.731 529.936 757.755 538.395C758.577 545.287 761.65 546.956 761.903 548.574L764.115 545.767C763.003 542.859 760.942 542.644 759.892 536.435C758.919 530.581 758.83 527.002 758.83 527.002Z" fill="#BEFFB4"/>
<path d="M782.754 512.537C782.754 512.537 779.34 517.721 777.962 521.237C776.002 526.219 777.329 529.506 775.686 534.741L771.955 537.472C771.955 537.472 770.868 531.264 773.536 525.207C778.025 515.028 782.754 512.537 782.754 512.537Z" fill="#BEFFB4"/>
<path d="M772.221 512.676C771.943 516.154 771.146 519.555 769.869 522.805C765.949 532.604 769.325 541.658 769.325 541.658L766.683 543.137C766.683 543.137 761.498 536.107 765.026 527.964C768.782 519.378 772.221 512.676 772.221 512.676Z" fill="#BEFFB4"/>
<path d="M783.74 529.165C783.74 529.165 786.358 528.937 795.968 532.768C802.126 535.234 800.886 532.338 806.437 535.715C801.759 534.931 799.331 537.877 793.477 535.917C788.785 534.349 783.98 533.148 779.112 532.338L783.74 529.165Z" fill="#BEFFB4"/>
<path d="M801.354 540.62C801.354 540.62 796.182 544.528 787.521 541.619C782.185 539.836 776.596 538.951 770.981 538.989L774.787 535.234C774.787 535.234 779.125 533.527 787.837 537.421C793.818 540.077 801.354 540.62 801.354 540.62Z" fill="#BEFFB4"/>
<path d="M793.919 547.638C793.919 547.638 788.748 551.546 780.086 548.637C774.75 546.855 769.161 545.969 763.547 546.007L767.353 542.252C767.353 542.252 771.69 540.545 780.402 544.439C786.396 547.107 793.919 547.638 793.919 547.638Z" fill="#BEFFB4"/>
<path d="M811.761 526.08C811.761 526.08 808.283 527.9 802.884 525.852C797.409 523.778 792.945 523.917 792.945 523.917L794.956 522.666C794.956 522.666 797.7 521.591 803.2 524.044C806.993 525.738 811.761 526.08 811.761 526.08Z" fill="#BEFFB4"/>
<path d="M789.848 526.029C789.848 526.029 794.299 526.712 800.545 528.924C804.49 530.303 810.471 529.266 810.471 529.266C810.471 529.266 804.844 533.97 799.053 531.517C792.415 528.709 785.346 527.875 785.346 527.875L789.848 526.029Z" fill="#BEFFB4"/>
<path d="M794.361 523.234C794.361 523.234 799.432 518.505 805.779 518.948C809.548 519.176 813.316 518.784 816.945 517.772C816.945 517.772 812.089 522.741 806.31 521.717C800.974 520.781 796.448 523.285 796.448 523.285L794.361 523.234Z" fill="#BEFFB4"/>
<path d="M762.371 548.789L761.562 548.17C765.355 543.162 780.617 527.673 796.246 522.021L796.587 522.981C781.173 528.558 766.114 543.845 762.371 548.789Z" fill="#BEFFB4"/>
</g>
<defs>
<linearGradient id="paint0_linear_692_30451" x1="199.524" y1="36.9442" x2="202.384" y2="21.4736" gradientUnits="userSpaceOnUse">
<stop stop-color="white" stop-opacity="0"/>
<stop offset="1" stop-color="white"/>
</linearGradient>
<linearGradient id="paint1_linear_692_30451" x1="203.367" y1="37.4627" x2="206.158" y2="22.3628" gradientUnits="userSpaceOnUse">
<stop stop-color="white" stop-opacity="0"/>
<stop offset="1" stop-color="white"/>
</linearGradient>
</defs>
</svg>
