<svg width="884" height="594" viewBox="0 0 884 594" fill="none" xmlns="http://www.w3.org/2000/svg">
<path d="M193.2 532.7C194.2 532.1 195.3 531.6 196.4 531.3L197.1 528.1L202.5 528L203.3 531.2C204.4 531.5 205.5 531.9 206.6 532.5L209.3 530.7L213.2 534.4L211.5 537.2C212.1 538.2 212.6 539.3 212.9 540.4L216.1 541.1L216.2 546.5L213 547.3C212.7 548.4 212.3 549.5 211.7 550.6L213.5 553.3L209.8 557.2L207 555.5C206 556.1 204.9 556.6 203.8 556.9L203.1 560.1L197.7 560.2L196.9 557C195.8 556.7 194.7 556.3 193.6 555.7L190.9 557.5L187 553.7L188.7 550.9C188.1 549.9 187.6 548.8 187.3 547.7L184.1 547L184 541.7L187.2 540.9C187.5 539.8 187.9 538.7 188.5 537.6L186.7 534.9L190.4 531L193.2 532.7ZM196.1 539.9C193.9 542.2 193.9 545.9 196.2 548.1C198.5 550.3 202.2 550.3 204.4 548C206.6 545.7 206.6 542 204.3 539.8C202 537.5 198.3 537.6 196.1 539.9Z" fill="#F5F5F5"/>
<path d="M244.6 532.5C246.9 531.1 249.3 530.1 251.8 529.4L253.3 522.2L265.4 522L267.1 529.1C269.6 529.7 272.1 530.7 274.4 532L280.5 528L289.2 536.4L285.4 542.7C286.8 545 287.8 547.4 288.5 549.9L295.7 551.4L295.9 563.5L288.8 565.2C288.2 567.7 287.2 570.2 285.9 572.5L289.9 578.6L281.5 587.3L275.2 583.5C272.9 584.9 270.5 585.9 268 586.6L266.5 593.8L254.4 594L252.7 586.9C250.2 586.3 247.7 585.3 245.4 584L239.3 588L230.6 579.6L234.5 573.5C233.1 571.2 232.1 568.8 231.4 566.3L224.2 564.8L224 552.7L231.1 551C231.7 548.5 232.7 546 234 543.7L230 537.6L238.4 528.9L244.6 532.5ZM251 548.6C246 553.8 246.2 562 251.3 567C256.5 572 264.7 571.8 269.7 566.7C274.7 561.5 274.5 553.3 269.4 548.3C264.2 543.3 256 543.5 251 548.6Z" fill="#F5F5F5"/>
<circle cx="629.5" cy="254.5" r="254.5" fill="#005DA4"/>
<g opacity="0.4">
<line x1="67.3517" y1="57.3517" x2="67.3516" y2="459.648" stroke="#005DA4" stroke-width="0.703316" stroke-linecap="round" stroke-dasharray="4.22 4.22"/>
<line x1="125.727" y1="57.3517" x2="125.727" y2="459.648" stroke="#005DA4" stroke-width="0.703316" stroke-linecap="round" stroke-dasharray="4.22 4.22"/>
<line x1="184.102" y1="57.3517" x2="184.102" y2="459.648" stroke="#005DA4" stroke-width="0.703316" stroke-linecap="round" stroke-dasharray="4.22 4.22"/>
<line x1="242.477" y1="57.3517" x2="242.477" y2="459.648" stroke="#005DA4" stroke-width="0.703316" stroke-linecap="round" stroke-dasharray="4.22 4.22"/>
<line x1="300.853" y1="57.3517" x2="300.853" y2="459.648" stroke="#005DA4" stroke-width="0.703316" stroke-linecap="round" stroke-dasharray="4.22 4.22"/>
<line x1="359.228" y1="57.3517" x2="359.228" y2="459.648" stroke="#005DA4" stroke-width="0.703316" stroke-linecap="round" stroke-dasharray="4.22 4.22"/>
<g opacity="0.6">
<line x1="1.24033" y1="408.306" x2="424.637" y2="408.306" stroke="#005DA4" stroke-width="0.703316" stroke-linecap="round" stroke-dasharray="4.22 4.22"/>
<line x1="1.24033" y1="349.931" x2="424.637" y2="349.931" stroke="#005DA4" stroke-width="0.703316" stroke-linecap="round" stroke-dasharray="4.22 4.22"/>
<line x1="1.24033" y1="291.556" x2="424.637" y2="291.556" stroke="#005DA4" stroke-width="0.703316" stroke-linecap="round" stroke-dasharray="4.22 4.22"/>
<line x1="1.24033" y1="233.181" x2="424.637" y2="233.181" stroke="#005DA4" stroke-width="0.703316" stroke-linecap="round" stroke-dasharray="4.22 4.22"/>
<line x1="1.24033" y1="174.805" x2="424.637" y2="174.805" stroke="#005DA4" stroke-width="0.703316" stroke-linecap="round" stroke-dasharray="4.22 4.22"/>
<line x1="1.24033" y1="116.43" x2="424.637" y2="116.43" stroke="#005DA4" stroke-width="0.703316" stroke-linecap="round" stroke-dasharray="4.22 4.22"/>
</g>
</g>
<path d="M118.1 162.6H86C83.8 162.6 82 160.8 82 158.6V114.1C82 111.9 83.8 110.1 86 110.1H106.4L122.1 126.3V158.5C122.1 160.8 120.3 162.6 118.1 162.6Z" fill="#EBEBEB"/>
<path d="M116.4 162.6H87.7C84.5 162.6 82 160 82 156.9V146.6H122.2V156.8C122.1 160 119.5 162.6 116.4 162.6Z" fill="#E0E0E0"/>
<path d="M96.2002 156.9L97.2002 155.7C97.6002 156.3 98.1002 156.6 98.7002 156.6C99.4002 156.6 99.8002 156.2 99.8002 155.3V151.6H97.0002V150.1H101.6V155.2C101.6 157.1 100.6 158.1 98.8002 158.1C97.7002 158 96.7002 157.6 96.2002 156.9Z" fill="#FAFAFA"/>
<path d="M102.601 157.3L103.201 156C103.701 156.3 104.601 156.6 105.301 156.6C106.101 156.6 106.401 156.4 106.401 156C106.401 155 102.801 156 102.801 153.6C102.801 152.5 103.801 151.6 105.601 151.6C106.401 151.6 107.401 151.8 107.901 152.1L107.301 153.3C106.701 153 106.101 152.9 105.601 152.9C104.801 152.9 104.501 153.1 104.501 153.5C104.501 154.5 108.101 153.5 108.101 155.9C108.101 157 107.101 157.8 105.201 157.8C104.201 158 103.201 157.7 102.601 157.3Z" fill="#FAFAFA"/>
<path d="M90.4004 138.3L91.7004 136.8C92.5004 138 93.6004 138.6 94.9004 138.6C96.6004 138.6 97.5004 137.6 97.5004 135.5V127H92.0004V125.1H99.6004V135.4C99.6004 138.8 97.9004 140.5 94.8004 140.5C93.1004 140.5 91.4004 139.7 90.4004 138.3Z" fill="#FAFAFA"/>
<path d="M102.301 139.1L103.201 137.4C104.201 138.1 105.701 138.6 107.201 138.6C109.101 138.6 109.901 138 109.901 137C109.901 134.4 102.601 136.7 102.601 132.1C102.601 130 104.401 128.6 107.401 128.6C108.901 128.6 110.601 129 111.601 129.6L110.701 131.3C109.701 130.6 108.501 130.4 107.401 130.4C105.601 130.4 104.701 131.1 104.701 132C104.701 134.7 112.001 132.5 112.001 137C112.001 139.1 110.101 140.4 107.001 140.4C105.101 140.4 103.301 139.8 102.301 139.1Z" fill="#FAFAFA"/>
<g opacity="0.3">
<path d="M106.3 110V122.5C106.3 124.6 108 126.2 110 126.2H122L106.3 110Z" fill="white"/>
</g>
<path d="M106.5 123.7C106.5 123.7 106.3 126.7 109.8 127.7C109.9 127.7 110.1 127.8 110.2 127.8C111.8 128.1 122.1 129.9 122.1 129.7C122.1 129.4 122.1 126.3 122.1 126.3H110.1C110.1 126.3 107.1 126.2 106.5 123.7Z" fill="#E0E0E0"/>
<path opacity="0.6" d="M723.7 172.5C726 171.1 728.4 170.1 730.9 169.4L732.4 162.2L744.5 162L746.2 169.1C748.7 169.7 751.2 170.7 753.5 172L759.6 168L768.3 176.4L764.5 182.7C765.9 185 766.9 187.4 767.6 189.9L774.8 191.4L775 203.5L767.9 205.2C767.3 207.7 766.3 210.2 765 212.5L769 218.6L760.6 227.3L754.3 223.5C752 224.9 749.6 225.9 747.1 226.6L745.6 233.8L733.5 234L731.8 226.9C729.3 226.3 726.8 225.3 724.5 224L718.4 228L709.7 219.6L713.5 213.3C712.1 211 711.1 208.6 710.4 206.1L703.2 204.6L703 192.5L710.1 190.8C710.7 188.3 711.7 185.8 713 183.5L709 177.4L717.4 168.7L723.7 172.5ZM730.1 188.6C725.1 193.8 725.3 202 730.4 207C735.6 212 743.8 211.8 748.8 206.7C753.8 201.5 753.6 193.3 748.5 188.3C743.3 183.3 735.1 183.5 730.1 188.6Z" fill="#F5F5F5"/>
<path d="M76.3 299.6H32.5C29.5 299.6 27 297.1 27 294.1V233.5C27 230.5 29.5 228 32.5 228H60.3L81.8 250.2V294.1C81.7 297.1 79.3 299.6 76.3 299.6Z" fill="#FF725E"/>
<g opacity="0.2">
<path d="M75.3 299.6H33.5C29.9 299.6 27 296.7 27 293.1V279.1C27 278.4 27.6 277.9 28.2 277.9H80.5C81.2 277.9 81.7 278.5 81.7 279.1V293.1C81.7 296.7 78.8 299.6 75.3 299.6Z" fill="black"/>
</g>
<g opacity="0.2">
<path d="M60.2002 228V245.1C60.2002 247.9 62.5002 250.2 65.3002 250.2H81.7002L60.2002 228Z" fill="white"/>
</g>
<g opacity="0.2">
<path d="M60.5003 246.6C60.5003 246.6 60.3003 250.7 65.0003 252.1C65.2003 252.2 65.4003 252.2 65.5003 252.2C67.6003 252.6 81.7003 255.1 81.7003 254.8C81.7003 254.4 81.7003 250.2 81.7003 250.2H65.3002C65.3002 250.2 61.2003 250 60.5003 246.6Z" fill="black"/>
</g>
<path d="M42.7002 287.3C42.7002 284.7 44.7002 282.9 47.3002 282.9C48.8002 282.9 50.0002 283.4 50.8002 284.4L49.5002 285.6C48.9002 284.9 48.2002 284.6 47.4002 284.6C45.8002 284.6 44.7002 285.7 44.7002 287.3C44.7002 288.9 45.8002 290 47.4002 290C48.3002 290 49.0002 289.7 49.5002 289L50.8002 290.2C50.0002 291.2 48.8002 291.7 47.3002 291.7C44.6002 291.7 42.7002 289.9 42.7002 287.3Z" fill="#FAFAFA"/>
<path d="M51.4004 290.8L52.1004 289.3C52.8004 289.8 53.9004 290.2 54.9004 290.2C56.1004 290.2 56.5004 289.8 56.5004 289.3C56.5004 287.7 51.5004 288.8 51.5004 285.6C51.5004 284.2 52.7004 282.9 55.1004 282.9C56.2004 282.9 57.3004 283.2 58.1004 283.7L57.5004 285.2C56.7004 284.7 55.9004 284.5 55.1004 284.5C53.9004 284.5 53.5004 284.9 53.5004 285.5C53.5004 287.1 58.5004 286 58.5004 289.1C58.5004 290.5 57.3004 291.7 54.9004 291.7C53.5004 291.7 52.1004 291.3 51.4004 290.8Z" fill="#FAFAFA"/>
<path d="M59.1006 290.8L59.8006 289.3C60.5006 289.8 61.6006 290.2 62.6006 290.2C63.8006 290.2 64.2006 289.8 64.2006 289.3C64.2006 287.7 59.2006 288.8 59.2006 285.6C59.2006 284.2 60.4006 282.9 62.8006 282.9C63.9006 282.9 65.0006 283.2 65.8006 283.7L65.2006 285.2C64.4006 284.7 63.6006 284.5 62.8006 284.5C61.6006 284.5 61.2006 284.9 61.2006 285.5C61.2006 287.1 66.2006 286 66.2006 289.1C66.2006 290.5 65.0006 291.7 62.6006 291.7C61.2006 291.7 59.9006 291.3 59.1006 290.8Z" fill="#FAFAFA"/>
<path d="M45.4002 259.8C46.3002 260.1 46.7002 260.6 46.7002 262V265.1C46.7002 266 47.2002 266.5 48.1002 266.5H48.5002V268.9H47.4002C45.0002 268.9 43.7002 267.6 43.7002 265.4V261.9C43.7002 261.3 43.4002 261 42.8002 261H42.2002V258.6H42.8002C43.3002 258.6 43.7002 258.3 43.7002 257.7V254.2C43.7002 252 45.0002 250.7 47.4002 250.7H48.5002V253.1H48.1002C47.1002 253.1 46.7002 253.6 46.7002 254.5V257.6C46.8002 258.9 46.3002 259.5 45.4002 259.8Z" fill="#FAFAFA"/>
<path d="M66.5002 258.6V261H65.9002C65.4002 261 65.0002 261.3 65.0002 261.9V265.4C65.0002 267.6 63.7002 268.9 61.3002 268.9H60.2002V266.5H60.6002C61.6002 266.5 62.0002 266 62.0002 265.1V262C62.0002 260.7 62.4002 260.1 63.3002 259.8C62.4002 259.5 62.0002 259 62.0002 257.6V254.5C62.0002 253.6 61.5002 253.1 60.6002 253.1H60.2002V250.7H61.3002C63.7002 250.7 65.0002 252 65.0002 254.2V257.7C65.0002 258.3 65.3002 258.6 65.9002 258.6H66.5002Z" fill="#FAFAFA"/>
<path d="M368.8 170.1H321C317.7 170.1 315 167.4 315 164.1V98C315 94.7 317.7 92 321 92H351.3L374.8 116.2V164.2C374.8 167.5 372.1 170.1 368.8 170.1Z" fill="#455A64"/>
<g opacity="0.2">
<path d="M368.9 170.1H321C317.7 170.1 315.1 167.5 315.1 164.2V146.4H374.9V164.2C374.8 167.5 372.1 170.1 368.9 170.1Z" fill="black"/>
</g>
<g opacity="0.2">
<path d="M351.3 92V110.6C351.3 113.7 353.8 116.2 356.9 116.2H374.8L351.3 92Z" fill="white"/>
</g>
<g opacity="0.2">
<path d="M351.5 112.3C351.5 112.3 351.3 116.8 356.4 118.3C356.6 118.4 356.8 118.4 357 118.4C359.3 118.8 374.7 121.6 374.7 121.2C374.7 120.8 374.7 116.2 374.7 116.2H356.8C356.9 116.2 352.4 116 351.5 112.3Z" fill="black"/>
</g>
<path d="M339.5 126.9L332.3 129.5L339.5 132.1V134.8L329.3 130.9V128.1L339.6 124.2V126.9H339.5Z" fill="#FAFAFA"/>
<path d="M347.3 118.9H350.3L343.2 139.2H340.2L347.3 118.9Z" fill="#FAFAFA"/>
<path d="M360.9 128.1V130.9L350.6 134.8V132.1L357.8 129.5L350.6 126.9V124.2L360.9 128.1Z" fill="#FAFAFA"/>
<path d="M337.1 155.3V163.3H335.2V160H331.6V163.3H329.7V155.3H331.6V158.5H335.2V155.3H337.1Z" fill="#FAFAFA"/>
<path d="M340.701 156.8H338.101V155.3H345.101V156.8H342.501V163.3H340.601V156.8H340.701Z" fill="#FAFAFA"/>
<path d="M353.401 163.3V158.5L351.001 162.5H350.201L347.801 158.6V163.3H346.101V155.3H347.601L350.601 160.3L353.601 155.3H355.101V163.3H353.401Z" fill="#FAFAFA"/>
<path d="M357.101 155.3H359.001V161.8H363.001V163.3H357.101V155.3Z" fill="#FAFAFA"/>
<path opacity="0.6" d="M692.131 68.4005C696.779 69.1358 701.108 70.5172 705.231 72.4114L715.372 64.5129L731.723 77.9294L725.959 89.3133C728.612 92.9399 730.813 97.0996 732.408 101.433L745.06 103.001L747.155 124.033L734.967 128.131C734.232 132.779 732.85 137.108 730.956 141.231L738.854 151.372L725.438 167.723L714.054 161.959C710.427 164.612 706.268 166.813 701.934 168.408L700.367 181.06L679.335 183.155L675.237 170.967C670.588 170.231 666.259 168.85 662.136 166.956L651.995 174.854L635.645 161.438L641.408 150.054C638.755 146.427 636.554 142.267 634.959 137.934L622.307 136.367L620.213 115.334L632.401 111.236C633.136 106.588 634.517 102.259 636.412 98.1359L628.513 87.995L641.93 71.6444L653.314 77.4079C656.94 74.7549 661.1 72.5541 665.433 70.9592L667.001 58.307L688.033 56.2124L692.131 68.4005ZM682.34 97.226C669.797 98.5014 660.791 109.655 661.933 122.085C663.208 134.628 674.362 143.635 686.792 142.493C699.335 141.217 708.342 130.064 707.199 117.633C705.924 105.09 694.884 95.9506 682.34 97.226Z" fill="#F5F5F5"/>
<path d="M555.264 162.022L546.464 163.622C543.264 167.222 539.164 169.922 534.264 171.422C520.164 175.622 505.364 167.722 501.164 153.622C496.864 139.522 504.864 124.722 518.864 120.422C532.964 116.222 547.764 124.122 551.964 138.222C553.764 144.122 553.364 150.122 551.364 155.422L555.264 162.022Z" fill="#FAFAFA"/>
<path d="M555.264 162.023C555.264 162.023 555.164 161.923 555.064 161.623C554.864 161.323 554.664 160.923 554.364 160.323C553.764 159.223 552.764 157.523 551.564 155.323H551.464L551.564 155.423C552.764 152.323 553.764 147.823 553.164 142.523C552.964 141.223 552.764 139.823 552.364 138.423C552.164 137.723 551.864 137.023 551.664 136.323C551.464 135.623 551.064 134.923 550.764 134.223C549.464 131.423 547.564 128.723 545.064 126.323C542.564 123.923 539.464 121.923 535.864 120.623C532.364 119.323 528.364 118.723 524.364 119.123C520.364 119.523 516.264 120.823 512.664 123.123C511.764 123.623 510.864 124.323 510.064 125.023C509.664 125.323 509.264 125.723 508.864 126.123C508.464 126.523 508.064 126.823 507.664 127.223C506.964 128.023 506.164 128.823 505.564 129.723C505.264 130.123 504.864 130.623 504.564 131.023C504.264 131.523 503.964 132.023 503.664 132.423C501.464 136.123 500.364 140.423 500.164 144.523C499.964 148.723 500.764 152.823 502.364 156.423C503.964 160.023 506.264 163.223 509.064 165.623C511.864 168.123 514.964 169.823 518.164 171.023C521.364 172.123 524.664 172.523 527.664 172.423C529.164 172.423 530.664 172.123 532.064 171.923C533.464 171.523 534.764 171.323 536.064 170.823C541.064 169.023 544.564 166.023 546.864 163.423C549.764 162.923 551.964 162.523 553.364 162.223C554.064 162.123 554.664 162.023 555.064 161.923C555.064 162.023 555.264 162.023 555.264 162.023C555.264 162.023 555.064 162.023 554.664 162.123C554.264 162.223 553.664 162.323 552.964 162.423C551.464 162.723 549.264 163.023 546.464 163.523C544.164 166.123 540.664 169.023 535.664 170.823C534.464 171.323 533.064 171.523 531.764 171.923C530.364 172.123 528.964 172.423 527.364 172.423C524.364 172.523 521.164 172.023 517.964 170.923C514.764 169.823 511.664 168.023 508.964 165.623C506.264 163.223 503.964 160.123 502.364 156.523C500.764 152.923 499.964 148.923 500.164 144.823C500.364 140.723 501.464 136.523 503.664 132.823C503.964 132.323 504.264 131.923 504.464 131.423C504.764 130.923 505.064 130.523 505.464 130.123C506.064 129.223 506.864 128.423 507.564 127.623C507.964 127.223 508.364 126.923 508.764 126.523C509.164 126.123 509.564 125.723 509.964 125.423C510.864 124.823 511.664 124.123 512.564 123.623C516.164 121.423 520.164 120.123 524.164 119.723C528.164 119.423 532.064 119.923 535.564 121.223C539.064 122.523 542.164 124.423 544.664 126.823C547.164 129.123 549.064 131.823 550.364 134.623C550.664 135.323 551.064 136.023 551.264 136.723C551.464 137.423 551.764 138.123 551.964 138.823C552.364 140.223 552.664 141.523 552.864 142.823C553.564 148.123 552.564 152.523 551.364 155.623V155.723C552.564 157.823 553.564 159.523 554.264 160.623C554.564 161.223 554.864 161.623 555.064 161.923C555.164 161.823 555.264 162.023 555.264 162.023Z" fill="#263238"/>
<path d="M521.364 144.223L514.764 146.823L521.364 149.323V151.923L511.964 148.123V145.423L521.364 141.623V144.223Z" fill="#FF725E"/>
<path d="M528.464 136.422H531.164L524.664 156.122H521.964L528.464 136.422Z" fill="#FF725E"/>
<path d="M540.864 145.423V148.123L531.464 151.923V149.323L538.064 146.823L531.464 144.223V141.623L540.864 145.423Z" fill="#FF725E"/>
</svg>
