<svg width="989" height="833" viewBox="0 0 989 833" fill="none" xmlns="http://www.w3.org/2000/svg">
    <path d="M513.87 577.988L515.758 583.651C517.645 583.651 519.533 584.28 521.421 584.909L525.825 581.134L537.781 589.943L535.264 594.976C536.522 596.235 537.151 598.122 538.41 599.381L544.073 599.381L546.59 613.852L540.927 615.739C540.927 617.627 540.298 619.514 539.668 621.402L543.444 625.806L534.634 637.761L529.601 635.244C528.342 636.502 526.454 637.132 525.196 638.39L525.196 644.053L510.724 646.569L508.836 640.907C506.948 640.907 505.061 640.278 503.173 639.648L498.768 643.423L486.813 634.615L489.33 629.581C488.071 628.323 487.442 626.435 486.184 625.177L480.521 625.177L478.004 610.706L483.667 608.818C483.667 606.931 484.296 605.043 484.925 603.156L481.15 598.751L489.959 586.797L494.993 589.314C496.251 588.055 498.139 587.426 499.398 586.168L499.398 580.505L513.87 577.988ZM522.679 589.314L521.421 588.685C519.533 588.055 517.016 587.426 514.499 587.426L513.241 587.426L511.353 583.022L503.173 584.28L503.173 589.314L501.915 589.943C500.027 591.201 497.51 592.46 496.251 593.718L494.993 594.347L490.588 592.46L485.554 599.381L488.701 603.156L488.071 604.414C487.442 606.302 486.813 608.818 486.813 611.335L486.813 612.593L482.408 614.481L483.667 622.66L488.701 622.66L489.33 623.919C490.588 625.806 491.847 628.323 493.105 629.581L493.734 630.84L491.847 635.244L498.768 640.278L502.544 637.132L503.802 637.761C505.69 638.39 508.207 639.019 510.724 639.019L511.982 639.019L513.87 643.423L522.05 642.165L522.05 637.132L523.308 636.502C525.196 635.244 527.713 633.986 528.971 632.727L530.23 632.098L534.634 633.986L539.668 627.065L536.522 623.29L537.151 622.031C537.781 620.144 538.41 617.627 538.41 615.11L538.41 613.852L542.815 611.964L541.556 603.785L536.522 603.785L535.893 602.527C534.634 600.639 533.376 598.122 532.118 596.864L531.488 595.606L533.376 591.201L526.454 586.168L522.679 589.314ZM512.611 596.235C515.758 596.235 518.904 597.493 522.05 599.381C525.825 601.897 527.713 605.672 528.342 610.077C528.971 614.481 528.342 618.885 525.825 622.031C520.791 629.581 510.724 630.84 503.173 625.806C495.622 620.773 494.364 610.706 499.398 603.156C501.914 598.751 506.948 596.235 512.611 596.235ZM511.982 624.548C515.758 624.548 519.533 622.66 522.05 619.514C523.938 616.998 524.567 613.852 523.938 610.706C523.308 607.56 521.421 604.414 518.904 602.527C513.241 598.751 505.69 600.01 501.915 605.672C498.139 611.335 499.398 618.885 505.061 622.66C507.578 623.919 510.094 624.548 511.982 624.548Z" fill="#A1D4FF"/>
    <path d="M628.383 561L632.788 572.954C637.821 573.583 642.855 574.842 647.26 576.1L656.698 567.292L681.867 585.538L676.834 597.492C679.98 601.267 682.497 605.672 684.384 610.076L696.969 610.705L702.003 641.535L690.047 645.939C689.418 650.973 688.16 656.006 686.901 660.411L695.711 669.848L677.463 695.016L665.508 689.982C661.732 693.128 657.328 695.645 652.923 697.532L652.294 710.116L621.461 715.149L617.057 703.195C612.023 702.566 606.989 701.307 602.584 700.049L593.146 708.858L567.977 690.611L573.011 678.657C569.864 674.882 567.347 670.477 565.46 666.073L552.875 665.444L547.841 634.614L559.797 630.21C560.426 625.176 561.684 620.143 562.943 615.739L554.134 606.301L572.381 581.134L584.337 586.167C588.112 583.021 592.517 580.504 596.921 578.617L597.551 566.033L628.383 561ZM648.518 582.392L646.631 581.763C641.597 579.875 635.934 578.617 630.271 577.988L628.383 577.988L623.978 567.292L601.955 571.067L601.326 583.021L600.067 583.65C595.034 586.167 590 588.684 586.224 592.459L584.966 593.717L574.269 588.684L561.684 606.93L569.864 615.739L569.235 617.626C567.347 622.66 566.089 628.322 565.46 633.985L565.46 635.872L554.763 640.277L558.538 662.298L570.494 662.927L571.123 664.186C573.64 669.219 576.157 674.253 579.932 678.028L581.191 679.286L576.157 689.982L594.404 702.566L603.214 694.386L605.101 695.016C610.135 696.903 615.798 698.161 621.461 698.791L623.349 698.791L627.754 709.487L649.777 705.712L650.406 693.757L651.664 693.128C656.698 690.611 661.732 688.095 665.508 684.319L666.766 683.061L677.463 688.095L690.047 669.848L681.867 661.04L682.497 659.152C684.384 654.119 685.643 648.456 686.272 642.793L686.272 640.906L696.969 636.502L693.194 614.48L681.238 613.851L680.609 612.593C678.092 607.559 675.575 602.526 671.8 598.751L670.541 597.492L675.575 586.796L657.328 574.213L648.518 582.392ZM625.866 602.526C632.788 602.526 640.338 604.413 646.631 608.818C662.361 620.143 666.137 642.164 654.811 658.523C649.148 666.073 640.967 671.107 631.529 672.994C622.091 674.882 612.652 672.365 605.101 666.702C589.371 655.377 585.595 633.356 596.921 616.997C603.214 607.559 614.54 602.526 625.866 602.526ZM625.237 667.961C627.124 667.961 628.383 667.961 630.271 667.332C638.451 666.073 645.372 661.669 649.777 655.377C659.215 642.164 656.069 623.289 642.855 613.222C629.641 603.784 610.764 606.93 600.697 620.143C596.292 626.435 594.404 634.614 595.663 642.793C596.921 650.973 601.326 657.894 607.618 662.298C613.281 666.073 619.574 667.961 625.237 667.961Z" fill="#A1D4FF"/>
    <path d="M772.145 373.463L264.412 761.361L187.912 114.504L772.145 373.463Z" fill="#005DA4"/>
    <g opacity="0.4">
    <line x1="631.352" y1="179.352" x2="631.352" y2="581.648" stroke="#005DA4" stroke-width="0.703316" stroke-linecap="round" stroke-dasharray="4.22 4.22"/>
    <line x1="689.727" y1="179.352" x2="689.727" y2="581.648" stroke="#005DA4" stroke-width="0.703316" stroke-linecap="round" stroke-dasharray="4.22 4.22"/>
    <line x1="748.102" y1="179.352" x2="748.102" y2="581.648" stroke="#005DA4" stroke-width="0.703316" stroke-linecap="round" stroke-dasharray="4.22 4.22"/>
    <line x1="806.477" y1="179.352" x2="806.477" y2="581.648" stroke="#005DA4" stroke-width="0.703316" stroke-linecap="round" stroke-dasharray="4.22 4.22"/>
    <line x1="864.853" y1="179.352" x2="864.853" y2="581.648" stroke="#005DA4" stroke-width="0.703316" stroke-linecap="round" stroke-dasharray="4.22 4.22"/>
    <line x1="923.228" y1="179.352" x2="923.228" y2="581.648" stroke="#005DA4" stroke-width="0.703316" stroke-linecap="round" stroke-dasharray="4.22 4.22"/>
    <g opacity="0.6">
    <line x1="565.24" y1="530.306" x2="988.636" y2="530.306" stroke="#005DA4" stroke-width="0.703316" stroke-linecap="round" stroke-dasharray="4.22 4.22"/>
    <line x1="565.24" y1="471.931" x2="988.636" y2="471.931" stroke="#005DA4" stroke-width="0.703316" stroke-linecap="round" stroke-dasharray="4.22 4.22"/>
    <line x1="565.24" y1="413.556" x2="988.636" y2="413.556" stroke="#005DA4" stroke-width="0.703316" stroke-linecap="round" stroke-dasharray="4.22 4.22"/>
    <line x1="565.24" y1="355.181" x2="988.636" y2="355.181" stroke="#005DA4" stroke-width="0.703316" stroke-linecap="round" stroke-dasharray="4.22 4.22"/>
    <line x1="565.24" y1="296.805" x2="988.636" y2="296.805" stroke="#005DA4" stroke-width="0.703316" stroke-linecap="round" stroke-dasharray="4.22 4.22"/>
    <line x1="565.24" y1="238.43" x2="988.636" y2="238.43" stroke="#005DA4" stroke-width="0.703316" stroke-linecap="round" stroke-dasharray="4.22 4.22"/>
    </g>
    </g>
    <path d="M530.357 105.786L530.158 105.687C509.54 95.1349 512.329 74.7283 512.329 74.5292L512.428 74.131H512.827C525.975 74.131 530.059 69.9502 530.059 69.8506L530.357 69.552L530.656 69.8506C530.656 69.8506 534.84 74.131 547.888 74.131H548.287L548.386 74.5292C548.386 74.7283 551.175 95.1349 530.557 105.687L530.357 105.786ZM513.125 75.1265C512.827 77.9137 512.03 95.4335 530.357 104.89C548.685 95.4335 547.789 77.9137 547.589 75.1265C536.234 75.0269 531.553 71.8415 530.357 70.8461C529.162 71.8415 524.58 75.0269 513.125 75.1265Z" fill="#6AAFE8"/>
    <path d="M484.039 203.14H483.143V140.925H529.958V100.211H530.755V141.821H484.039V203.14Z" fill="#78C2FF"/>
    <path d="M559.143 116.537H551.673V115.74H558.247V109.071H559.143V116.537Z" fill="#6AAFE8"/>
    <path d="M508.941 116.537H501.471V109.071H502.367V115.74H508.941V116.537Z" fill="#6AAFE8"/>
    <path d="M502.367 66.4658H501.471V59H508.941V59.8959H502.367V66.4658Z" fill="#6AAFE8"/>
    <path d="M559.143 66.4658H558.247V59.8959H551.673V59H559.143V66.4658Z" fill="#6AAFE8"/>
    <path d="M502.366 77.6147H501.471V98.0213H502.366V77.6147Z" fill="#6AAFE8"/>
    <path d="M530.355 100.609C528.562 100.609 527.168 99.2157 527.168 97.4239C527.168 95.6321 528.562 94.2385 530.355 94.2385C532.148 94.2385 533.543 95.6321 533.543 97.4239C533.543 99.2157 532.148 100.609 530.355 100.609ZM530.355 95.1344C529.06 95.1344 528.064 96.1299 528.064 97.4239C528.064 98.718 529.06 99.7135 530.355 99.7135C531.65 99.7135 532.646 98.718 532.646 97.4239C532.646 96.1299 531.65 95.1344 530.355 95.1344Z" fill="#78C2FF"/>
    <path d="M257 232.058C240.436 232.058 227 218.61 227 202.029H228.656C228.656 217.689 241.356 230.4 257 230.4C272.644 230.4 285.344 217.689 285.344 202.029C285.344 186.37 272.644 173.658 257 173.658V172C273.564 172 287 185.449 287 202.029C287 218.61 273.564 232.058 257 232.058ZM257 228.005C242.828 228.005 231.233 216.399 231.233 202.213C231.233 188.028 242.828 176.421 257 176.421C271.172 176.421 282.767 188.028 282.767 202.213H281.11C281.11 188.949 270.252 178.08 257 178.08C243.748 178.08 232.89 188.949 232.89 202.213C232.89 215.478 243.748 226.347 257 226.347V228.005Z" fill="#78C2FF"/>
    <path d="M253.319 211.977L242.46 201.292L243.564 200.187L253.319 209.766L270.251 192.817L271.356 193.923L253.319 211.977Z" fill="#78C2FF"/>
    <path d="M313.072 682.062C312.059 682.062 311.197 681.185 311.197 680.154V679.844C310.082 679.483 309.322 678.4 309.322 677.214L309.272 671.437H310.386C309.93 664.267 304.661 654.261 304.61 654.158C302.988 651.682 302.127 648.742 302.127 645.75C302.127 637.291 308.866 630.431 317.176 630.431C325.487 630.431 332.226 637.291 332.226 645.75C332.226 648.742 331.364 651.682 329.743 654.158C329.54 654.57 324.422 664.267 323.966 671.385H325.081L325.132 677.162C325.132 678.348 324.372 679.432 323.257 679.793V680.102C323.257 681.185 322.396 682.011 321.382 682.011L313.072 682.062ZM309.677 671.953L309.728 677.265C309.728 678.297 310.437 679.225 311.451 679.483L311.603 679.535V680.154C311.603 680.979 312.261 681.598 313.072 681.598L321.382 681.546C322.193 681.546 322.801 680.876 322.801 680.051V679.432L322.953 679.38C323.966 679.122 324.676 678.194 324.625 677.111L324.574 671.798H323.46V671.54C323.814 664.319 329.084 654.312 329.287 653.9C330.858 651.475 331.719 648.639 331.719 645.699C331.719 637.497 325.183 630.844 317.126 630.844C309.069 630.844 302.532 637.497 302.532 645.699C302.532 648.639 303.343 651.424 304.965 653.9C305.015 653.951 310.488 664.37 310.792 671.643V671.901L309.677 671.953ZM317.328 661.121C317.227 661.121 317.176 661.121 317.176 661.121C317.126 661.121 316.67 661.121 315.859 661.069L315.91 660.605C316.822 660.708 317.531 660.708 318.443 660.605L318.494 661.069C317.936 661.069 317.531 661.121 317.328 661.121Z" fill="#78C2FF"/>
    <path d="M321.28 671.488H312.97V671.952H321.28V671.488Z" fill="#78C2FF"/>
    <path d="M317.531 618H316.67V625.685H317.531V618Z" fill="#78C2FF"/>
    <path d="M331.622 621.521L326.283 626.955L326.892 627.575L332.231 622.141L331.622 621.521Z" fill="#78C2FF"/>
    <path d="M302.609 621.495L302 622.115L307.339 627.55L307.948 626.93L302.609 621.495Z" fill="#78C2FF"/>
    <path d="M311.181 654.946L310.737 655.052L312.775 663.89L313.219 663.784L311.181 654.946Z" fill="#6AAFE8"/>
    <path d="M323.15 654.927L321.104 663.762L321.547 663.869L323.594 655.033L323.15 654.927Z" fill="#6AAFE8"/>
    <path d="M334 645.853H333.544C333.544 636.62 326.146 629.09 317.076 629.09V628.625C326.45 628.677 334 636.414 334 645.853Z" fill="#78C2FF"/>
    <path d="M330.251 645.853H329.795C329.795 638.735 324.12 632.958 317.127 632.958C310.134 632.958 304.459 638.735 304.459 645.853H304.003C304.003 638.477 309.881 632.494 317.127 632.494C324.373 632.546 330.251 638.529 330.251 645.853Z" fill="#78C2FF"/>
</svg>
