<svg width="856" height="641" viewBox="0 0 856 641" fill="none" xmlns="http://www.w3.org/2000/svg">
<g clip-path="url(#clip0_1323_3409)">
<g opacity="0.4">
<line x1="439.352" y1="104.352" x2="439.352" y2="506.648" stroke="#005DA4" stroke-width="0.703316" stroke-linecap="round" stroke-dasharray="4.22 4.22"/>
<line x1="497.727" y1="104.352" x2="497.727" y2="506.648" stroke="#005DA4" stroke-width="0.703316" stroke-linecap="round" stroke-dasharray="4.22 4.22"/>
<line x1="556.102" y1="104.352" x2="556.102" y2="506.648" stroke="#005DA4" stroke-width="0.703316" stroke-linecap="round" stroke-dasharray="4.22 4.22"/>
<line x1="614.477" y1="104.352" x2="614.477" y2="506.648" stroke="#005DA4" stroke-width="0.703316" stroke-linecap="round" stroke-dasharray="4.22 4.22"/>
<line x1="672.853" y1="104.352" x2="672.853" y2="506.648" stroke="#005DA4" stroke-width="0.703316" stroke-linecap="round" stroke-dasharray="4.22 4.22"/>
<line x1="731.228" y1="104.352" x2="731.228" y2="506.648" stroke="#005DA4" stroke-width="0.703316" stroke-linecap="round" stroke-dasharray="4.22 4.22"/>
<g opacity="0.6">
<line x1="373.24" y1="455.305" x2="796.636" y2="455.305" stroke="#005DA4" stroke-width="0.703316" stroke-linecap="round" stroke-dasharray="4.22 4.22"/>
<line x1="373.24" y1="396.93" x2="796.636" y2="396.93" stroke="#005DA4" stroke-width="0.703316" stroke-linecap="round" stroke-dasharray="4.22 4.22"/>
<line x1="373.24" y1="338.555" x2="796.636" y2="338.555" stroke="#005DA4" stroke-width="0.703316" stroke-linecap="round" stroke-dasharray="4.22 4.22"/>
<line x1="373.24" y1="280.18" x2="796.636" y2="280.18" stroke="#005DA4" stroke-width="0.703316" stroke-linecap="round" stroke-dasharray="4.22 4.22"/>
<line x1="373.24" y1="221.805" x2="796.636" y2="221.805" stroke="#005DA4" stroke-width="0.703316" stroke-linecap="round" stroke-dasharray="4.22 4.22"/>
<line x1="373.24" y1="163.43" x2="796.636" y2="163.43" stroke="#005DA4" stroke-width="0.703316" stroke-linecap="round" stroke-dasharray="4.22 4.22"/>
</g>
</g>
<path fill-rule="evenodd" clip-rule="evenodd" d="M380.56 82.832C445.33 97.5178 542.329 109.939 556.775 171.346C573.311 241.634 444.449 266.784 440.318 336.847C436.257 405.711 559.659 464.929 535.723 528.347C514.675 584.112 416.441 554.707 354.052 565.41C299.637 574.744 248.95 595.857 192.605 587.206C131.755 577.863 66.1746 560.004 23.9947 514.734C-17.7301 469.952 -15.7988 407.16 -28.0074 350.43C-39.7479 295.876 -81.3032 229.381 -46.0751 189.142C-7.62911 145.228 77.2143 183.874 134.861 164.395C172.932 151.531 189.361 109.361 227.522 96.6927C275.903 80.6319 328.096 70.9367 380.56 82.832Z" fill="#005DA4"/>
<path d="M134.822 196.443L92.6251 214.615C91.2593 215.204 89.7001 214.559 89.1242 213.222L81.3429 195.154C80.7547 193.788 81.3988 192.229 82.7361 191.653L124.933 173.481C126.299 172.892 127.858 173.536 128.434 174.874L136.215 192.942C136.791 194.279 136.188 195.854 134.822 196.443Z" fill="white"/>
<path d="M134.821 196.44C134.821 196.44 134.935 196.391 135.15 196.265C135.365 196.138 135.67 195.906 135.93 195.49C136.202 195.103 136.445 194.493 136.374 193.781C136.353 193.419 136.235 193.065 136.063 192.667C135.904 192.297 135.72 191.87 135.536 191.444C134.053 188.001 131.909 183.021 129.234 176.888C129.062 176.489 128.903 176.119 128.731 175.721C128.645 175.522 128.56 175.323 128.474 175.123C128.388 174.924 128.302 174.725 128.188 174.538C127.743 173.819 126.913 173.3 125.997 173.289C125.554 173.278 125.103 173.405 124.676 173.588C124.249 173.772 123.822 173.956 123.367 174.152C122.485 174.532 121.603 174.912 120.692 175.304C117.079 176.86 113.209 178.527 109.14 180.279C101.002 183.784 92.0678 187.631 82.6781 191.675C82.1091 191.92 81.6258 192.365 81.3583 192.918C81.0908 193.472 81.0268 194.107 81.1865 194.713C81.2806 195.009 81.4031 195.294 81.5257 195.578C81.6482 195.863 81.7708 196.147 81.8933 196.432C82.1384 197.001 82.3835 197.57 82.6285 198.139C83.6089 200.416 84.5769 202.663 85.5327 204.883C86.4885 207.102 87.4198 209.265 88.3389 211.399C88.5717 211.939 88.7923 212.451 89.0251 212.992C89.2172 213.516 89.5801 213.967 90.0484 214.272C90.5168 214.576 91.0499 214.717 91.6072 214.68C92.1482 214.683 92.6643 214.393 93.148 214.185C101.286 210.68 108.598 207.531 114.757 204.912C120.903 202.266 125.894 200.15 129.337 198.667C131.044 197.932 132.382 197.356 133.292 196.964C133.747 196.768 134.089 196.62 134.317 196.522C134.707 196.489 134.821 196.44 134.821 196.44C134.821 196.44 134.707 196.489 134.479 196.587C134.252 196.685 133.91 196.832 133.455 197.028C132.545 197.421 131.207 197.996 129.5 198.732C126.057 200.214 121.078 202.359 114.944 205.034C108.798 207.681 101.457 210.843 93.3599 214.363C93.1038 214.474 92.8477 214.584 92.5916 214.694C92.3355 214.805 92.0549 214.858 91.7621 214.883C91.1764 214.933 90.5903 214.747 90.1219 214.442C89.6413 214.11 89.2378 213.643 89.0334 213.09C88.8006 212.549 88.58 212.037 88.3472 211.496C87.4282 209.362 86.4969 207.2 85.541 204.98C84.5852 202.761 83.6172 200.513 82.6368 198.237C82.3918 197.668 82.1467 197.099 81.9016 196.53C81.7791 196.245 81.6565 195.961 81.534 195.676C81.4114 195.391 81.2889 195.107 81.1826 194.782C81.0106 194.147 81.0908 193.472 81.3745 192.878C81.6582 192.283 82.1577 191.798 82.7552 191.541C92.1449 187.497 101.079 183.649 109.217 180.145C113.286 178.392 117.156 176.726 120.769 175.17C121.68 174.777 122.562 174.398 123.444 174.018C123.871 173.834 124.326 173.638 124.753 173.454C125.18 173.27 125.647 173.103 126.103 173.142C127.047 173.141 127.918 173.676 128.387 174.452C128.501 174.639 128.587 174.838 128.673 175.038C128.759 175.237 128.845 175.436 128.93 175.635C129.102 176.033 129.261 176.403 129.433 176.802C132.08 182.948 134.196 187.939 135.678 191.382C135.862 191.809 136.034 192.207 136.205 192.606C136.365 192.976 136.495 193.358 136.516 193.72C136.558 194.444 136.315 195.054 136.044 195.441C135.743 195.841 135.439 196.073 135.223 196.199C135.122 196.277 135.036 196.314 134.979 196.338C134.849 196.428 134.821 196.44 134.821 196.44Z" fill="#263238"/>
<path d="M96.3474 198.508L97.6463 201.524L106.112 201.521L104.919 198.594L100.135 198.529L103.424 195.123L102.211 192.306L96.3474 198.508Z" fill="#EBEBEB"/>
<path d="M121.974 191.284L120.675 188.268L112.124 188.308L113.317 191.234L118.13 191.287L114.825 194.734L116.025 197.523L121.974 191.284Z" fill="#EBEBEB"/>
<path d="M106.453 187.512C106.49 187.598 108.397 203.541 108.499 203.463C108.6 203.386 111.629 202.115 111.629 202.115L109.64 186.14L106.453 187.512Z" fill="#EBEBEB"/>
<path d="M86.4831 193.612C86.7036 194.125 86.4322 194.747 85.8916 194.98C85.3509 195.213 84.7119 194.982 84.4913 194.47C84.2707 193.958 84.5422 193.335 85.0828 193.102C85.6234 192.87 86.2625 193.1 86.4831 193.612Z" fill="#E0E0E0"/>
<path d="M89.2145 192.437C89.4351 192.949 89.1636 193.572 88.623 193.805C88.0824 194.037 87.4433 193.807 87.2227 193.294C87.0022 192.782 87.2736 192.159 87.8142 191.927C88.3549 191.694 88.9939 191.924 89.2145 192.437Z" fill="#E0E0E0"/>
<path d="M91.945 191.261C92.1655 191.773 91.8941 192.396 91.3535 192.629C90.8129 192.862 90.1738 192.631 89.9532 192.119C89.7326 191.606 90.0041 190.984 90.5447 190.751C91.0853 190.518 91.7244 190.749 91.945 191.261Z" fill="#E0E0E0"/>
<path d="M60.5611 331.616C60.3535 329.78 60.4038 327.938 60.6958 326.122L56.6337 323.09L60.0431 315.386L65.0102 316.379C66.1393 314.953 67.4802 313.71 68.9793 312.583L68.2666 307.544L76.1127 304.531L78.9523 308.734C80.7876 308.527 82.6302 308.577 84.4454 308.869L87.4777 304.807L95.1814 308.216L94.1561 313.253C95.5823 314.382 96.8254 315.723 97.9526 317.222L102.991 316.509L105.986 324.304L101.782 327.144C101.99 328.979 101.94 330.822 101.648 332.637L105.71 335.669L102.301 343.373L97.3334 342.38C96.2043 343.807 94.8634 345.05 93.3644 346.177L94.077 351.215L86.2309 354.228L83.3913 350.025C81.5561 350.233 79.7134 350.183 77.8982 349.891L74.866 353.953L67.1622 350.543L68.1552 345.576C66.7289 344.447 65.4858 343.106 64.3587 341.607L59.3201 342.32L56.307 334.474L60.5611 331.616ZM72.6262 332.301C74.4116 336.948 79.6575 339.257 84.3039 337.472C88.9502 335.687 91.2602 330.441 89.4747 325.794C87.6892 321.148 82.4433 318.838 77.797 320.623C73.1506 322.409 70.8058 327.639 72.6262 332.301Z" fill="#E0E0E0"/>
<path d="M35.4864 362.037C35.3496 360.871 35.3848 359.7 35.5757 358.559L32.991 356.637L35.1388 351.74L38.2883 352.355C39.0024 351.457 39.8398 350.659 40.8006 349.96L40.3304 346.773L45.2995 344.84L47.1141 347.507C48.2803 347.37 49.4514 347.405 50.5926 347.596L52.5144 345.012L57.3953 347.194L56.7803 350.344C57.6784 351.058 58.4768 351.895 59.1755 352.856L62.3626 352.386L64.295 357.355L61.6284 359.17C61.7651 360.336 61.73 361.507 61.5391 362.648L64.1238 364.57L61.9411 369.451L58.7916 368.836C58.0775 369.734 57.2401 370.532 56.2793 371.231L56.7495 374.418L51.7804 376.351L49.9658 373.684C48.7996 373.821 47.6285 373.785 46.4873 373.595L44.5655 376.179L39.6846 373.997L40.2996 370.847C39.4015 370.133 38.6031 369.296 37.9044 368.335L34.7173 368.805L32.7849 363.836L35.4864 362.037ZM43.1037 362.438C44.238 365.382 47.5492 366.836 50.5284 365.718C53.4727 364.584 54.9262 361.272 53.7919 358.328C52.6576 355.384 49.3464 353.93 46.3672 355.048C43.474 356.164 41.9694 359.494 43.1037 362.438Z" fill="#F5F5F5"/>
<path d="M62.0581 402.881C61.9164 401.543 61.9466 400.2 62.1675 398.903L59.2127 396.682L61.6847 391.087L65.3014 391.792C66.1152 390.771 67.1034 389.83 68.1825 389.059L67.6302 385.41L73.3145 383.216L75.3645 386.289C76.7026 386.147 78.0457 386.177 79.3426 386.398L81.5635 383.444L87.1582 385.916L86.4534 389.532C87.4748 390.346 88.4152 391.334 89.1862 392.413L92.8355 391.861L95.0294 397.545L91.9565 399.595C92.0982 400.933 92.068 402.277 91.8472 403.573L94.8019 405.794L92.3299 411.389L88.7132 410.684C87.8994 411.706 86.9112 412.646 85.8321 413.417L86.3844 417.066L80.7001 419.26L78.6501 416.187C77.312 416.329 75.9689 416.299 74.672 416.078L72.4511 419.033L66.8564 416.561L67.5612 412.944C66.5398 412.13 65.5994 411.142 64.8284 410.063L61.1791 410.615L58.9852 404.931L62.0581 402.881ZM70.7954 403.335C72.114 406.705 75.8787 408.369 79.2665 407.101C82.6357 405.783 84.2999 402.018 83.0324 398.63C81.7139 395.261 77.9492 393.597 74.5613 394.864C71.1921 396.183 69.5117 399.982 70.7954 403.335Z" fill="#E0E0E0"/>
<path d="M347.944 221.498H206.844C202.044 221.498 198.244 217.598 198.244 212.798V141.998C198.244 137.198 202.144 133.398 206.844 133.398H347.944C352.744 133.398 356.644 137.298 356.644 141.998V212.798C356.644 217.598 352.744 221.498 347.944 221.498Z" fill="white"/>
<path d="M347.944 221.5C347.944 221.5 348.344 221.5 349.144 221.4C349.944 221.3 351.144 221 352.444 220.1C353.744 219.3 355.244 217.8 355.944 215.6C356.344 214.5 356.444 213.3 356.444 211.9C356.444 210.6 356.444 209.1 356.444 207.6C356.444 195.5 356.444 178 356.344 156.4C356.344 153.7 356.344 150.9 356.344 148.1C356.344 146.7 356.344 145.3 356.344 143.8C356.344 142.3 356.444 140.9 355.944 139.5C355.044 136.7 352.644 134.4 349.744 133.8C349.044 133.6 348.244 133.6 347.544 133.6C346.744 133.6 345.944 133.6 345.244 133.6C343.644 133.6 342.144 133.6 340.544 133.6C327.844 133.6 314.244 133.6 299.944 133.6C271.344 133.6 239.944 133.6 206.944 133.6C204.944 133.6 202.944 134.3 201.444 135.6C199.944 136.9 198.944 138.7 198.644 140.7C198.544 141.7 198.544 142.7 198.544 143.7C198.544 144.7 198.544 145.7 198.544 146.7C198.544 148.7 198.544 150.7 198.544 152.8C198.544 160.8 198.544 168.8 198.544 176.5C198.544 184.3 198.544 191.9 198.544 199.4C198.544 203.1 198.544 206.8 198.544 210.5C198.544 211.4 198.544 212.3 198.544 213.2C198.644 214.1 198.744 215 199.144 215.8C199.844 217.4 200.944 218.8 202.444 219.8C203.944 220.7 205.644 221.2 207.344 221.1C209.144 221.1 210.844 221.1 212.644 221.1C216.144 221.1 219.544 221.1 222.944 221.1C229.744 221.1 236.344 221.1 242.644 221.1C255.344 221.1 267.244 221.1 278.044 221.1C299.644 221.1 317.144 221.2 329.244 221.2C335.244 221.2 339.944 221.2 343.144 221.2C344.744 221.2 345.944 221.2 346.744 221.2C347.544 221.5 347.944 221.5 347.944 221.5C347.944 221.5 347.544 221.5 346.744 221.5C345.944 221.5 344.744 221.5 343.144 221.5C339.944 221.5 335.244 221.5 329.244 221.5C317.144 221.5 299.644 221.5 278.044 221.6C267.244 221.6 255.344 221.6 242.644 221.6C236.244 221.6 229.744 221.6 222.944 221.6C219.544 221.6 216.144 221.6 212.644 221.6C210.944 221.6 209.144 221.6 207.344 221.6C205.544 221.7 203.644 221.2 202.144 220.2C200.544 219.2 199.344 217.7 198.644 216C198.244 215.1 198.144 214.2 198.044 213.3C197.944 212.4 198.044 211.5 198.044 210.5C198.044 206.8 198.044 203.1 198.044 199.4C198.044 191.9 198.044 184.3 198.044 176.5C198.044 168.7 198.044 160.8 198.044 152.8C198.044 150.8 198.044 148.8 198.044 146.7C198.044 145.7 198.044 144.7 198.044 143.7C198.044 142.7 198.044 141.7 198.144 140.6C198.444 138.5 199.544 136.6 201.144 135.2C202.744 133.8 204.844 133 206.944 133C239.944 133 271.344 133 299.944 133C314.244 133 327.844 133 340.544 133C342.144 133 343.744 133 345.244 133C346.044 133 346.844 133 347.544 133C348.344 133 349.144 133.1 349.844 133.2C352.944 133.9 355.444 136.3 356.344 139.2C356.844 140.7 356.744 142.2 356.744 143.6C356.744 145 356.744 146.5 356.744 147.9C356.744 150.7 356.744 153.5 356.744 156.2C356.744 177.8 356.644 195.3 356.644 207.4C356.644 208.9 356.644 210.3 356.644 211.7C356.644 213 356.544 214.3 356.144 215.4C355.344 217.6 353.844 219.1 352.544 220C351.144 220.8 349.944 221.1 349.144 221.2C348.744 221.3 348.444 221.3 348.244 221.3C348.044 221.5 347.944 221.5 347.944 221.5Z" fill="#263238"/>
<path d="M238.645 148.301H215.145V152.701H238.645V148.301Z" fill="#FF725E"/>
<path d="M238.645 202.699H215.145V207.099H238.645V202.699Z" fill="#FF725E"/>
<path d="M255.645 159.301H215.145V163.701H255.645V159.301Z" fill="#E0E0E0"/>
<path d="M280.645 159.301H262.745V163.701H280.645V159.301Z" fill="#FF725E"/>
<path d="M334.045 159.301H322.245V163.701H334.045V159.301Z" fill="#263238"/>
<path d="M318.145 159.301H286.945V163.701H318.145V159.301Z" fill="#455A64"/>
<path d="M293.538 174.223H334.038V169.823H293.538V174.223Z" fill="#E0E0E0"/>
<path d="M268.463 174.223H286.363V169.823H268.463V174.223Z" fill="#455A64"/>
<path d="M215.018 174.223H226.818V169.823H215.018V174.223Z" fill="#263238"/>
<path d="M230.989 174.223H262.189V169.823H230.989V174.223Z" fill="#FF725E"/>
<path d="M255.645 180.602H215.145V185.002H255.645V180.602Z" fill="#E0E0E0"/>
<path d="M280.645 180.602H262.745V185.002H280.645V180.602Z" fill="#263238"/>
<path d="M334.045 180.602H322.245V185.002H334.045V180.602Z" fill="#263238"/>
<path d="M265.345 191.602H253.545V196.002H265.345V191.602Z" fill="#FF725E"/>
<path d="M318.145 180.602H286.945V185.002H318.145V180.602Z" fill="#455A64"/>
<path d="M245.445 191.602H214.245V196.002H245.445V191.602Z" fill="#455A64"/>
<path d="M766.292 589.467C765.547 586.919 763.548 585.586 761.313 585.547C759.275 585.978 758.569 588.056 758.413 590.133C758.256 592.211 758.961 594.249 759.706 596.209C761.98 602.481 764.293 608.753 766.566 615.064C768.487 614.789 770.408 614.476 772.289 614.201C770.094 605.734 768.722 597.855 766.292 589.467Z" fill="#005DA4"/>
<path d="M761.351 585.391C761.39 585.391 761.037 585.704 760.684 586.371C760.331 587.037 759.939 588.095 759.939 589.428C759.9 590.761 760.253 592.368 760.841 594.054C761.429 595.739 762.056 597.621 762.723 599.581C764.016 603.501 765.231 607.028 766.094 609.616C766.525 610.87 766.838 611.928 767.074 612.673C767.191 613.026 767.27 613.3 767.348 613.496C767.387 613.692 767.426 613.771 767.426 613.81C767.426 613.81 767.387 613.731 767.309 613.535C767.23 613.34 767.152 613.065 766.995 612.712C766.721 611.968 766.368 610.948 765.937 609.694C765.074 607.107 763.859 603.579 762.527 599.698C761.86 597.738 761.233 595.896 760.684 594.171C760.135 592.486 759.783 590.878 759.822 589.507C759.861 588.135 760.253 587.076 760.645 586.41C761.037 585.665 761.351 585.391 761.351 585.391Z" fill="#263238"/>
<path d="M770.993 613.613C770.993 613.613 770.954 613.535 770.836 613.339C770.758 613.143 770.601 612.908 770.484 612.555C770.17 611.849 769.778 610.83 769.386 609.537C768.955 608.243 768.524 606.675 768.132 604.911C767.74 603.147 767.269 601.226 766.799 599.227C766.329 597.228 765.78 595.307 765.192 593.622C764.604 591.936 763.977 590.447 763.349 589.232C762.722 588.016 762.134 587.115 761.664 586.488C761.468 586.174 761.272 585.939 761.154 585.782C761.037 585.625 760.958 585.547 760.998 585.547C760.998 585.547 761.076 585.625 761.193 585.782C761.311 585.939 761.507 586.174 761.742 586.448C762.213 587.036 762.84 587.977 763.467 589.153C764.133 590.329 764.8 591.819 765.388 593.543C765.976 595.229 766.525 597.15 766.995 599.188C767.465 601.226 767.897 603.147 768.289 604.872C768.68 606.636 769.112 608.165 769.504 609.497C769.896 610.791 770.288 611.81 770.562 612.516C770.68 612.869 770.797 613.143 770.876 613.339C770.954 613.496 770.993 613.613 770.993 613.613Z" fill="#263238"/>
<path d="M759.742 595.23C759.742 595.269 759.468 595.426 759.037 595.543C758.645 595.661 758.292 595.7 758.292 595.661C758.292 595.622 758.566 595.465 758.998 595.347C759.39 595.23 759.703 595.19 759.742 595.23Z" fill="#263238"/>
<path d="M758.96 591.312C758.96 591.39 758.529 591.429 757.98 591.469C757.431 591.508 757 591.547 757 591.469C757 591.429 757.431 591.273 757.98 591.233C758.529 591.194 758.96 591.273 758.96 591.312Z" fill="#263238"/>
<path d="M759.469 587.704C759.43 587.743 759.116 587.547 758.764 587.273C758.411 586.998 758.136 586.724 758.176 586.685C758.215 586.645 758.528 586.841 758.881 587.116C759.234 587.39 759.508 587.665 759.469 587.704Z" fill="#263238"/>
<path d="M761.077 584.293C761.156 584.293 761.116 584.567 761.156 584.92C761.156 585.273 761.156 585.547 761.116 585.547C761.077 585.547 760.96 585.273 760.96 584.92C760.92 584.567 761.038 584.293 761.077 584.293Z" fill="#263238"/>
<path d="M764.761 585.743C764.8 585.782 764.682 586.056 764.486 586.409C764.29 586.723 764.055 586.958 764.016 586.958C763.977 586.919 764.094 586.644 764.29 586.291C764.486 585.939 764.682 585.703 764.761 585.743Z" fill="#263238"/>
<path d="M767.232 589.704C767.272 589.743 766.958 589.939 766.566 590.135C766.174 590.292 765.86 590.41 765.821 590.371C765.782 590.331 766.096 590.135 766.488 589.939C766.88 589.743 767.232 589.626 767.232 589.704Z" fill="#263238"/>
<path d="M768.837 593.78C768.876 593.819 768.484 594.054 767.936 594.211C767.387 594.368 766.956 594.328 766.956 594.289C766.956 594.211 767.387 594.132 767.896 594.015C768.367 593.897 768.798 593.74 768.837 593.78Z" fill="#263238"/>
<path d="M762.292 592.879C762.253 592.879 762.253 592.566 762.371 592.213C762.449 591.86 762.567 591.625 762.645 591.625C762.684 591.625 762.684 591.939 762.567 592.291C762.449 592.644 762.332 592.879 762.292 592.879Z" fill="#263238"/>
<path d="M763.39 598.091C763.351 598.052 763.429 597.66 763.625 597.228C763.821 596.758 763.978 596.405 764.057 596.444C764.096 596.484 764.017 596.876 763.821 597.307C763.625 597.738 763.469 598.091 763.39 598.091Z" fill="#263238"/>
<path d="M761.236 599.58C761.197 599.619 760.844 599.54 760.413 599.423C759.981 599.305 759.589 599.188 759.629 599.148C759.629 599.109 760.021 599.109 760.491 599.227C760.883 599.384 761.236 599.54 761.236 599.58Z" fill="#263238"/>
<path d="M762.684 603.815C762.723 603.854 762.488 604.089 762.135 604.363C761.821 604.638 761.508 604.795 761.469 604.755C761.429 604.716 761.665 604.481 762.017 604.207C762.331 603.932 762.645 603.775 762.684 603.815Z" fill="#263238"/>
<path d="M763.898 608.007C763.898 608.046 763.623 608.203 763.232 608.32C762.84 608.438 762.526 608.477 762.487 608.438C762.448 608.399 762.761 608.242 763.153 608.124C763.545 608.007 763.859 607.968 763.898 608.007Z" fill="#263238"/>
<path d="M769.075 597.347C769.114 597.387 768.84 597.622 768.487 597.779C768.095 597.935 767.781 597.975 767.781 597.896C767.781 597.857 768.056 597.7 768.408 597.583C768.761 597.426 769.036 597.308 769.075 597.347Z" fill="#263238"/>
<path d="M770.172 603.934C770.132 603.973 769.819 603.895 769.466 603.738C769.113 603.581 768.839 603.424 768.839 603.346C768.878 603.307 769.192 603.385 769.544 603.542C769.897 603.699 770.172 603.895 770.172 603.934Z" fill="#263238"/>
<path d="M771.78 608.637C771.78 608.676 771.349 608.598 770.839 608.441C770.329 608.284 769.977 608.088 769.977 608.049C769.977 608.01 770.408 608.088 770.917 608.245C771.388 608.363 771.78 608.559 771.78 608.637Z" fill="#263238"/>
<path d="M764.291 612.633C764.252 612.594 764.644 612.319 765.036 611.966C765.467 611.614 765.781 611.3 765.82 611.339C765.859 611.378 765.585 611.77 765.154 612.162C764.762 612.476 764.33 612.672 764.291 612.633Z" fill="#263238"/>
<path d="M767.939 610.087C767.861 610.087 767.783 609.774 767.626 609.421C767.469 609.068 767.312 608.754 767.351 608.715C767.391 608.676 767.665 608.911 767.822 609.303C768.018 609.734 768.018 610.087 767.939 610.087Z" fill="#263238"/>
<path d="M766.722 604.403C766.683 604.442 766.447 604.364 766.173 604.168C765.899 603.972 765.703 603.815 765.742 603.736C765.781 603.697 766.016 603.776 766.291 603.972C766.565 604.168 766.761 604.364 766.722 604.403Z" fill="#263238"/>
<path d="M770.916 599.697C770.916 599.736 770.602 599.893 770.171 599.932C769.74 599.972 769.387 599.932 769.387 599.854C769.387 599.776 769.74 599.776 770.171 599.697C770.563 599.697 770.916 599.658 770.916 599.697Z" fill="#263238"/>
<path d="M771.268 596.289C771.268 596.328 770.915 596.368 770.523 596.211C770.131 596.054 769.896 595.78 769.935 595.74C769.975 595.701 770.249 595.858 770.602 596.015C770.994 596.172 771.268 596.25 771.268 596.289Z" fill="#263238"/>
<path d="M771.936 605.655C771.936 605.695 771.622 605.734 771.269 605.655C770.916 605.616 770.642 605.538 770.642 605.459C770.642 605.42 770.956 605.381 771.308 605.459C771.661 605.499 771.936 605.616 771.936 605.655Z" fill="#263238"/>
<path d="M782.48 599.388C782.441 599.427 782.167 599.231 781.853 598.917C781.54 598.604 781.304 598.329 781.344 598.29C781.383 598.251 781.657 598.447 781.971 598.761C782.324 599.035 782.52 599.348 782.48 599.388Z" fill="#263238"/>
<path d="M793.065 586.413C793.261 585.12 793.417 583.787 793.104 582.532C792.829 581.278 791.967 580.063 790.713 579.671C789.301 579.24 787.734 580.024 786.793 581.16C785.852 582.336 785.46 583.787 785.068 585.237C782.481 595.115 780.913 605.268 780.403 615.499L786.244 616.871C789.85 606.483 791.536 597.271 793.065 586.413Z" fill="#005DA4"/>
<path d="M789.929 579.551C789.929 579.551 789.929 579.59 789.89 579.629C789.851 579.708 789.812 579.786 789.772 579.904C789.655 580.139 789.498 580.492 789.263 580.884C789.145 581.08 789.028 581.315 788.91 581.589C788.792 581.864 788.675 582.138 788.557 582.452C788.44 582.765 788.283 583.079 788.126 583.431C788.008 583.784 787.852 584.176 787.695 584.568C787.107 586.175 786.519 588.135 786.009 590.331C785.46 592.526 785.029 594.956 784.637 597.543C783.853 602.717 783.344 607.382 782.913 610.792C782.677 612.478 782.521 613.85 782.364 614.791C782.285 615.261 782.246 615.614 782.168 615.888C782.129 616.006 782.129 616.084 782.129 616.163C782.129 616.241 782.089 616.241 782.089 616.241C782.089 616.241 782.089 616.202 782.089 616.123C782.089 616.045 782.089 615.967 782.129 615.849C782.168 615.575 782.207 615.222 782.285 614.751C782.403 613.811 782.599 612.439 782.795 610.753C783.226 607.343 783.657 602.639 784.481 597.504C784.872 594.917 785.343 592.486 785.892 590.291C786.44 588.096 787.028 586.136 787.616 584.529C787.773 584.137 787.93 583.745 788.048 583.392C788.204 583.039 788.361 582.726 788.479 582.412C788.636 582.099 788.753 581.824 788.871 581.55C788.988 581.276 789.145 581.04 789.224 580.844C789.459 580.452 789.616 580.1 789.733 579.864C789.772 579.747 789.851 579.668 789.89 579.629C789.89 579.59 789.89 579.551 789.929 579.551Z" fill="#263238"/>
<path d="M790.439 579.59C790.439 579.59 790.753 579.982 791.027 580.883C791.301 581.746 791.419 583.118 791.223 584.764C790.753 588.018 790.047 592.486 789.185 597.425C788.322 602.364 787.46 606.833 786.793 610.047C786.48 611.655 786.206 612.948 786.01 613.85C785.931 614.281 785.853 614.634 785.774 614.869C785.735 614.987 785.735 615.065 785.696 615.143C785.696 615.222 785.657 615.222 785.657 615.222C785.657 615.222 785.657 615.183 785.657 615.143C785.657 615.065 785.696 614.987 785.696 614.869C785.735 614.595 785.814 614.281 785.892 613.811C786.088 612.909 786.323 611.576 786.637 610.008C787.264 606.794 788.087 602.325 788.949 597.386C789.812 592.447 790.557 587.978 791.066 584.725C791.301 583.118 791.223 581.746 790.949 580.883C790.753 580.021 790.439 579.629 790.439 579.59Z" fill="#263238"/>
<path d="M793.103 595.31C793.064 595.349 792.593 595.193 792.005 594.918C791.418 594.644 790.986 594.369 790.986 594.33C791.026 594.291 791.496 594.448 792.084 594.722C792.711 594.997 793.142 595.232 793.103 595.31Z" fill="#263238"/>
<path d="M794.397 589.353C794.397 589.392 793.927 589.627 793.26 589.862C792.633 590.097 792.084 590.215 792.084 590.137C792.084 590.097 792.555 589.862 793.221 589.627C793.848 589.431 794.397 589.274 794.397 589.353Z" fill="#263238"/>
<path d="M794.475 584.374C794.475 584.414 794.083 584.414 793.574 584.335C793.103 584.257 792.711 584.139 792.711 584.1C792.711 584.061 793.103 584.061 793.613 584.139C794.123 584.218 794.515 584.335 794.475 584.374Z" fill="#263238"/>
<path d="M788.674 580.649C788.634 580.689 788.399 580.336 788.164 579.865C787.929 579.395 787.772 579.003 787.85 579.003C787.89 578.964 788.125 579.317 788.36 579.787C788.595 580.218 788.752 580.61 788.674 580.649Z" fill="#263238"/>
<path d="M786.401 583.433C786.401 583.472 786.009 583.511 785.539 583.433C785.068 583.393 784.715 583.276 784.715 583.237C784.715 583.197 785.107 583.158 785.578 583.237C786.009 583.276 786.401 583.393 786.401 583.433Z" fill="#263238"/>
<path d="M784.361 589.272C784.322 589.311 783.93 589.194 783.499 588.958C783.068 588.723 782.715 588.488 782.754 588.449C782.793 588.41 783.185 588.527 783.616 588.762C784.048 588.958 784.4 589.194 784.361 589.272Z" fill="#263238"/>
<path d="M783.734 594.25C783.734 594.289 783.381 594.407 782.95 594.446C782.519 594.485 782.166 594.485 782.166 594.446C782.166 594.407 782.519 594.289 782.95 594.25C783.381 594.172 783.734 594.172 783.734 594.25Z" fill="#263238"/>
<path d="M782.285 602.364C782.285 602.403 781.932 602.482 781.462 602.521C780.991 602.56 780.639 602.56 780.639 602.482C780.639 602.442 780.991 602.364 781.462 602.325C781.932 602.286 782.285 602.325 782.285 602.364Z" fill="#263238"/>
<path d="M781.422 606.873C781.461 606.912 781.108 607.108 780.716 607.265C780.285 607.421 779.932 607.539 779.932 607.461C779.893 607.421 780.246 607.225 780.638 607.069C781.03 606.912 781.383 606.794 781.422 606.873Z" fill="#263238"/>
<path d="M784.636 612.321C784.597 612.361 784.361 611.969 784.126 611.459C783.891 610.95 783.773 610.558 783.813 610.518C783.852 610.479 784.087 610.871 784.322 611.381C784.557 611.89 784.675 612.321 784.636 612.321Z" fill="#263238"/>
<path d="M786.478 603.894C786.518 603.934 786.204 604.247 785.773 604.6C785.342 604.953 784.95 605.188 784.911 605.149C784.871 605.11 785.185 604.796 785.616 604.443C786.086 604.13 786.478 603.855 786.478 603.894Z" fill="#263238"/>
<path d="M786.674 599.426C786.635 599.466 786.361 599.23 786.125 598.878C785.851 598.525 785.694 598.25 785.733 598.211C785.773 598.172 786.047 598.407 786.282 598.76C786.557 599.074 786.713 599.387 786.674 599.426Z" fill="#263238"/>
<path d="M787.969 593.783C788.009 593.822 787.734 594.136 787.342 594.489C786.95 594.841 786.637 595.077 786.597 595.037C786.558 594.998 786.833 594.685 787.225 594.332C787.577 593.979 787.93 593.705 787.969 593.783Z" fill="#263238"/>
<path d="M788.753 589.665C788.714 589.704 788.4 589.39 788.048 588.998C787.695 588.606 787.46 588.253 787.499 588.214C787.538 588.175 787.852 588.489 788.204 588.881C788.557 589.273 788.792 589.625 788.753 589.665Z" fill="#263238"/>
<path d="M790.085 584.137C790.125 584.176 789.929 584.529 789.615 584.96C789.301 585.352 789.027 585.665 788.988 585.626C788.949 585.587 789.145 585.234 789.458 584.803C789.772 584.372 790.046 584.097 790.085 584.137Z" fill="#263238"/>
<path d="M792.124 579.081C792.163 579.121 792.007 579.473 791.693 579.905C791.419 580.336 791.144 580.61 791.105 580.61C791.066 580.571 791.223 580.218 791.536 579.787C791.811 579.356 792.046 579.042 792.124 579.081Z" fill="#263238"/>
<path d="M793.615 581.589C793.654 581.628 793.38 581.785 793.066 581.903C792.752 582.02 792.439 582.059 792.439 582.02C792.4 581.981 792.674 581.824 792.988 581.707C793.301 581.589 793.576 581.55 793.615 581.589Z" fill="#263238"/>
<path d="M791.887 600.25C791.887 600.289 791.339 600.171 790.751 599.858C790.163 599.544 789.771 599.152 789.81 599.113C789.849 599.074 790.28 599.348 790.868 599.662C791.417 599.975 791.927 600.211 791.887 600.25Z" fill="#263238"/>
<path d="M790.83 604.129C790.83 604.168 790.477 604.286 790.007 604.325C789.536 604.364 789.184 604.364 789.184 604.286C789.184 604.247 789.536 604.129 790.007 604.09C790.438 604.09 790.83 604.09 790.83 604.129Z" fill="#263238"/>
<path d="M789.299 610.833C789.26 610.872 788.829 610.52 788.476 609.971C788.123 609.422 787.966 608.873 788.005 608.873C788.045 608.834 788.28 609.344 788.633 609.853C789.025 610.402 789.338 610.794 789.299 610.833Z" fill="#263238"/>
<path d="M779.502 613.067C779.463 613.028 779.737 612.792 780.09 612.518C780.443 612.283 780.757 612.087 780.796 612.126C780.835 612.165 780.561 612.401 780.208 612.675C779.855 612.91 779.541 613.106 779.502 613.067Z" fill="#263238"/>
<path d="M778.324 595.194C778.088 593.783 777.5 592.058 776.089 591.823C775.227 591.705 774.404 592.175 773.894 592.881C773.384 593.587 773.071 594.41 772.992 595.272C772.326 600.878 772.365 607.424 773.463 613.539L778.676 614.323C779.5 607.816 779.382 601.622 778.324 595.194Z" fill="#005DA4"/>
<path d="M776.053 591.82C776.092 591.86 775.818 592.016 775.504 592.487C775.191 592.957 774.995 593.741 774.916 594.76C774.877 595.779 774.799 596.995 774.799 598.327C774.759 599.66 774.799 601.15 774.877 602.678C775.034 605.775 775.308 608.558 775.426 610.557C775.504 611.577 775.543 612.4 775.543 612.949C775.543 613.223 775.543 613.419 775.543 613.615C775.543 613.772 775.543 613.85 775.543 613.85C775.543 613.85 775.504 613.772 775.504 613.615C775.504 613.419 775.465 613.223 775.426 612.949C775.387 612.361 775.308 611.537 775.23 610.557C775.034 608.558 774.759 605.736 774.603 602.639C774.524 601.11 774.524 599.621 774.563 598.288C774.563 597.622 774.603 596.995 774.642 596.367C774.681 595.779 774.681 595.231 774.759 594.721C774.838 593.702 775.112 592.879 775.426 592.408C775.779 591.977 776.053 591.82 776.053 591.82Z" fill="#263238"/>
<path d="M779.579 602.091C779.54 602.13 779.148 601.895 778.756 601.542C778.325 601.189 778.05 600.876 778.09 600.797C778.129 600.758 778.521 600.993 778.913 601.346C779.344 601.738 779.618 602.052 779.579 602.091Z" fill="#263238"/>
<path d="M791.809 611.695H761.587V617.066H791.809V611.695Z" fill="#EDDAD3"/>
<path d="M763.86 615.969L767.545 632.001H785.537L789.536 615.969H763.86Z" fill="#EDDAD3"/>
<path d="M791.81 617.067C791.81 617.106 784.989 617.184 776.601 617.184C768.212 617.184 761.392 617.145 761.392 617.067C761.392 617.028 768.212 616.949 776.601 616.949C784.989 616.949 791.81 616.988 791.81 617.067Z" fill="#263238"/>
<path d="M776.012 603.149C775.933 603.11 776.09 602.718 776.325 602.248C776.56 601.778 776.796 601.425 776.835 601.464C776.913 601.503 776.756 601.895 776.521 602.365C776.286 602.836 776.051 603.189 776.012 603.149Z" fill="#263238"/>
<path d="M776.913 608.482C776.835 608.521 776.639 608.051 776.482 607.502C776.325 606.953 776.208 606.444 776.286 606.444C776.365 606.404 776.561 606.875 776.717 607.424C776.874 607.972 776.953 608.482 776.913 608.482Z" fill="#263238"/>
<path d="M771.62 610.677C771.581 610.637 771.855 610.363 772.208 610.049C772.561 609.775 772.914 609.579 772.953 609.618C772.992 609.657 772.718 609.932 772.365 610.245C771.973 610.559 771.659 610.755 771.62 610.677Z" fill="#263238"/>
</g>
<defs>
<clipPath id="clip0_1323_3409">
<rect width="920" height="641" fill="white" transform="translate(-64)"/>
</clipPath>
</defs>
</svg>
