<svg width="969" height="850" viewBox="0 0 969 850" fill="none" xmlns="http://www.w3.org/2000/svg">
<path fill-rule="evenodd" clip-rule="evenodd" d="M554.56 186.832C619.33 201.518 716.329 213.939 730.775 275.346C747.311 345.634 618.449 370.784 614.318 440.847C610.257 509.711 733.659 568.929 709.723 632.347C688.675 688.112 590.441 658.707 528.052 669.41C473.637 678.744 422.95 699.857 366.605 691.206C305.755 681.863 240.175 664.004 197.995 618.734C156.27 573.952 158.201 511.16 145.993 454.43C134.252 399.876 92.6968 333.381 127.925 293.142C166.371 249.228 251.214 287.874 308.861 268.395C346.932 255.531 363.361 213.361 401.522 200.693C449.903 184.632 502.096 174.937 554.56 186.832Z" fill="#005DA4"/>
<path d="M308.822 300.441L266.625 318.613C265.259 319.202 263.7 318.558 263.124 317.22L255.343 299.152C254.755 297.786 255.399 296.227 256.736 295.651L298.933 277.479C300.299 276.89 301.858 277.534 302.434 278.872L310.215 296.94C310.791 298.277 310.188 299.852 308.822 300.441Z" fill="white"/>
<path d="M308.821 300.44C308.821 300.44 308.935 300.391 309.15 300.265C309.365 300.138 309.67 299.906 309.93 299.49C310.202 299.103 310.445 298.493 310.374 297.781C310.353 297.419 310.235 297.065 310.063 296.667C309.904 296.297 309.72 295.87 309.536 295.444C308.053 292.001 305.909 287.021 303.234 280.888C303.062 280.489 302.903 280.119 302.731 279.721C302.645 279.522 302.56 279.323 302.474 279.123C302.388 278.924 302.302 278.725 302.188 278.538C301.743 277.819 300.913 277.3 299.997 277.289C299.554 277.278 299.103 277.405 298.676 277.588C298.249 277.772 297.822 277.956 297.367 278.152C296.485 278.532 295.603 278.912 294.692 279.304C291.079 280.86 287.209 282.527 283.14 284.279C275.002 287.784 266.068 291.631 256.678 295.675C256.109 295.92 255.626 296.365 255.358 296.918C255.091 297.472 255.027 298.107 255.187 298.713C255.281 299.009 255.403 299.294 255.526 299.578C255.648 299.863 255.771 300.147 255.893 300.432C256.138 301.001 256.383 301.57 256.629 302.139C257.609 304.416 258.577 306.663 259.533 308.883C260.489 311.102 261.42 313.265 262.339 315.399C262.572 315.939 262.792 316.451 263.025 316.992C263.217 317.516 263.58 317.967 264.048 318.272C264.517 318.576 265.05 318.717 265.607 318.68C266.148 318.683 266.664 318.393 267.148 318.185C275.286 314.68 282.598 311.531 288.757 308.912C294.903 306.266 299.894 304.15 303.337 302.667C305.044 301.932 306.382 301.356 307.292 300.964C307.747 300.768 308.089 300.62 308.317 300.522C308.707 300.489 308.821 300.44 308.821 300.44C308.821 300.44 308.707 300.489 308.479 300.587C308.252 300.685 307.91 300.832 307.455 301.028C306.545 301.421 305.207 301.996 303.5 302.732C300.057 304.214 295.078 306.359 288.944 309.034C282.798 311.681 275.457 314.843 267.36 318.363C267.104 318.474 266.848 318.584 266.592 318.694C266.336 318.805 266.055 318.858 265.762 318.883C265.176 318.933 264.59 318.747 264.122 318.442C263.641 318.11 263.238 317.643 263.033 317.09C262.801 316.549 262.58 316.037 262.347 315.496C261.428 313.362 260.497 311.2 259.541 308.98C258.585 306.761 257.617 304.513 256.637 302.237C256.392 301.668 256.147 301.099 255.902 300.53C255.779 300.245 255.657 299.961 255.534 299.676C255.411 299.391 255.289 299.107 255.183 298.782C255.011 298.147 255.091 297.472 255.374 296.878C255.658 296.283 256.158 295.798 256.755 295.541C266.145 291.497 275.079 287.649 283.217 284.145C287.286 282.392 291.156 280.726 294.769 279.17C295.68 278.777 296.562 278.398 297.444 278.018C297.871 277.834 298.326 277.638 298.753 277.454C299.18 277.27 299.647 277.103 300.103 277.142C301.047 277.141 301.918 277.676 302.387 278.452C302.501 278.639 302.587 278.838 302.673 279.038C302.759 279.237 302.845 279.436 302.93 279.635C303.102 280.033 303.261 280.403 303.433 280.802C306.08 286.948 308.196 291.939 309.678 295.382C309.862 295.809 310.034 296.207 310.205 296.606C310.365 296.976 310.495 297.358 310.516 297.72C310.558 298.444 310.315 299.054 310.044 299.441C309.743 299.841 309.439 300.073 309.223 300.199C309.122 300.277 309.036 300.314 308.979 300.338C308.849 300.428 308.821 300.44 308.821 300.44Z" fill="#263238"/>
<path d="M270.348 302.506L271.647 305.522L280.112 305.519L278.919 302.592L274.135 302.528L277.424 299.121L276.211 296.304L270.348 302.506Z" fill="#EBEBEB"/>
<path d="M295.974 295.281L294.675 292.265L286.124 292.304L287.317 295.231L292.13 295.283L288.825 298.731L290.025 301.519L295.974 295.281Z" fill="#EBEBEB"/>
<path d="M280.453 291.509C280.49 291.594 282.397 307.537 282.499 307.46C282.6 307.382 285.629 306.112 285.629 306.112L283.64 290.136L280.453 291.509Z" fill="#EBEBEB"/>
<path d="M260.483 297.613C260.704 298.126 260.432 298.748 259.892 298.981C259.351 299.214 258.712 298.983 258.491 298.471C258.271 297.959 258.542 297.336 259.083 297.103C259.623 296.871 260.262 297.101 260.483 297.613Z" fill="#E0E0E0"/>
<path d="M263.214 296.437C263.435 296.949 263.164 297.572 262.623 297.805C262.082 298.037 261.443 297.807 261.223 297.294C261.002 296.782 261.274 296.159 261.814 295.927C262.355 295.694 262.994 295.924 263.214 296.437Z" fill="#E0E0E0"/>
<path d="M265.945 295.261C266.166 295.773 265.894 296.396 265.353 296.629C264.813 296.862 264.174 296.631 263.953 296.119C263.733 295.606 264.004 294.984 264.545 294.751C265.085 294.518 265.724 294.749 265.945 295.261Z" fill="#E0E0E0"/>
<path d="M234.561 435.616C234.354 433.781 234.404 431.938 234.696 430.123L230.634 427.091L234.043 419.387L239.01 420.38C240.139 418.954 241.48 417.711 242.979 416.583L242.267 411.545L250.113 408.532L252.952 412.735C254.788 412.527 256.63 412.577 258.445 412.869L261.478 408.807L269.181 412.217L268.156 417.254C269.582 418.383 270.825 419.724 271.953 421.223L276.991 420.51L279.986 428.305L275.782 431.145C275.99 432.98 275.94 434.822 275.648 436.638L279.71 439.67L276.301 447.374L271.333 446.381C270.204 447.807 268.863 449.05 267.364 450.177L268.077 455.216L260.231 458.229L257.391 454.026C255.556 454.233 253.713 454.183 251.898 453.891L248.866 457.953L241.162 454.544L242.155 449.577C240.729 448.448 239.486 447.107 238.359 445.608L233.32 446.32L230.307 438.474L234.561 435.616ZM246.626 436.302C248.412 440.948 253.658 443.258 258.304 441.472C262.95 439.687 265.26 434.441 263.475 429.795C261.689 425.148 256.443 422.839 251.797 424.624C247.151 426.409 244.806 431.639 246.626 436.302Z" fill="#E0E0E0"/>
<path d="M209.486 466.037C209.35 464.87 209.385 463.699 209.576 462.558L206.991 460.636L209.139 455.739L212.288 456.354C213.002 455.456 213.84 454.658 214.801 453.959L214.33 450.772L219.299 448.839L221.114 451.506C222.28 451.369 223.451 451.404 224.593 451.595L226.514 449.011L231.395 451.193L230.78 454.343C231.678 455.057 232.477 455.894 233.176 456.855L236.363 456.385L238.295 461.354L235.628 463.169C235.765 464.335 235.73 465.506 235.539 466.647L238.124 468.569L235.941 473.45L232.792 472.835C232.077 473.733 231.24 474.531 230.279 475.23L230.749 478.417L225.78 480.35L223.966 477.683C222.8 477.82 221.628 477.784 220.487 477.594L218.565 480.178L213.685 477.996L214.3 474.846C213.402 474.132 212.603 473.295 211.904 472.334L208.717 472.804L206.785 467.835L209.486 466.037ZM217.104 466.437C218.238 469.381 221.549 470.835 224.528 469.717C227.473 468.583 228.926 465.271 227.792 462.327C226.658 459.383 223.346 457.929 220.367 459.047C217.474 460.163 215.969 463.493 217.104 466.437Z" fill="#F5F5F5"/>
<path d="M236.058 506.881C235.916 505.543 235.947 504.2 236.167 502.903L233.213 500.682L235.685 495.088L239.301 495.793C240.115 494.771 241.103 493.831 242.183 493.06L241.63 489.41L247.315 487.217L249.365 490.289C250.703 490.148 252.046 490.178 253.343 490.399L255.564 487.444L261.158 489.916L260.453 493.533C261.475 494.346 262.415 495.335 263.186 496.414L266.836 495.862L269.029 501.546L265.957 503.596C266.098 504.934 266.068 506.277 265.847 507.574L268.802 509.795L266.33 515.39L262.713 514.685C261.899 515.706 260.911 516.647 259.832 517.417L260.384 521.067L254.7 523.261L252.65 520.188C251.312 520.33 249.969 520.299 248.672 520.078L246.451 523.033L240.856 520.561L241.561 516.945C240.54 516.131 239.599 515.143 238.828 514.063L235.179 514.616L232.985 508.931L236.058 506.881ZM244.795 507.336C246.114 510.705 249.879 512.369 253.267 511.102C256.636 509.783 258.3 506.018 257.032 502.631C255.714 499.261 251.949 497.597 248.561 498.865C245.192 500.183 243.512 503.983 244.795 507.336Z" fill="#E0E0E0"/>
<path d="M521.944 325.5H380.844C376.044 325.5 372.244 321.6 372.244 316.8V246C372.244 241.2 376.144 237.4 380.844 237.4H521.944C526.744 237.4 530.644 241.3 530.644 246V316.8C530.644 321.6 526.744 325.5 521.944 325.5Z" fill="white"/>
<path d="M521.944 325.5C521.944 325.5 522.344 325.5 523.144 325.4C523.944 325.3 525.144 325 526.444 324.1C527.744 323.3 529.244 321.8 529.944 319.6C530.344 318.5 530.444 317.3 530.444 315.9C530.444 314.6 530.444 313.1 530.444 311.6C530.444 299.5 530.444 282 530.344 260.4C530.344 257.7 530.344 254.9 530.344 252.1C530.344 250.7 530.344 249.3 530.344 247.8C530.344 246.3 530.444 244.9 529.944 243.5C529.044 240.7 526.644 238.4 523.744 237.8C523.044 237.6 522.244 237.6 521.544 237.6C520.744 237.6 519.944 237.6 519.244 237.6C517.644 237.6 516.144 237.6 514.544 237.6C501.844 237.6 488.244 237.6 473.944 237.6C445.344 237.6 413.944 237.6 380.944 237.6C378.944 237.6 376.944 238.3 375.444 239.6C373.944 240.9 372.944 242.7 372.644 244.7C372.544 245.7 372.544 246.7 372.544 247.7C372.544 248.7 372.544 249.7 372.544 250.7C372.544 252.7 372.544 254.7 372.544 256.8C372.544 264.8 372.544 272.8 372.544 280.5C372.544 288.3 372.544 295.9 372.544 303.4C372.544 307.1 372.544 310.8 372.544 314.5C372.544 315.4 372.544 316.3 372.544 317.2C372.644 318.1 372.744 319 373.144 319.8C373.844 321.4 374.944 322.8 376.444 323.8C377.944 324.7 379.644 325.2 381.344 325.1C383.144 325.1 384.844 325.1 386.644 325.1C390.144 325.1 393.544 325.1 396.944 325.1C403.744 325.1 410.344 325.1 416.644 325.1C429.344 325.1 441.244 325.1 452.044 325.1C473.644 325.1 491.144 325.2 503.244 325.2C509.244 325.2 513.944 325.2 517.144 325.2C518.744 325.2 519.944 325.2 520.744 325.2C521.544 325.5 521.944 325.5 521.944 325.5C521.944 325.5 521.544 325.5 520.744 325.5C519.944 325.5 518.744 325.5 517.144 325.5C513.944 325.5 509.244 325.5 503.244 325.5C491.144 325.5 473.644 325.5 452.044 325.6C441.244 325.6 429.344 325.6 416.644 325.6C410.244 325.6 403.744 325.6 396.944 325.6C393.544 325.6 390.144 325.6 386.644 325.6C384.944 325.6 383.144 325.6 381.344 325.6C379.544 325.7 377.644 325.2 376.144 324.2C374.544 323.2 373.344 321.7 372.644 320C372.244 319.1 372.144 318.2 372.044 317.3C371.944 316.4 372.044 315.5 372.044 314.5C372.044 310.8 372.044 307.1 372.044 303.4C372.044 295.9 372.044 288.3 372.044 280.5C372.044 272.7 372.044 264.8 372.044 256.8C372.044 254.8 372.044 252.8 372.044 250.7C372.044 249.7 372.044 248.7 372.044 247.7C372.044 246.7 372.044 245.7 372.144 244.6C372.444 242.5 373.544 240.6 375.144 239.2C376.744 237.8 378.844 237 380.944 237C413.944 237 445.344 237 473.944 237C488.244 237 501.844 237 514.544 237C516.144 237 517.744 237 519.244 237C520.044 237 520.844 237 521.544 237C522.344 237 523.144 237.1 523.844 237.2C526.944 237.9 529.444 240.3 530.344 243.2C530.844 244.7 530.744 246.2 530.744 247.6C530.744 249 530.744 250.5 530.744 251.9C530.744 254.7 530.744 257.5 530.744 260.2C530.744 281.8 530.644 299.3 530.644 311.4C530.644 312.9 530.644 314.3 530.644 315.7C530.644 317 530.544 318.3 530.144 319.4C529.344 321.6 527.844 323.1 526.544 324C525.144 324.8 523.944 325.1 523.144 325.2C522.744 325.3 522.444 325.3 522.244 325.3C522.044 325.5 521.944 325.5 521.944 325.5Z" fill="#263238"/>
<path d="M412.645 252.3H389.145V256.7H412.645V252.3Z" fill="#FF725E"/>
<path d="M412.645 306.7H389.145V311.1H412.645V306.7Z" fill="#FF725E"/>
<path d="M429.645 263.3H389.145V267.7H429.645V263.3Z" fill="#E0E0E0"/>
<path d="M454.645 263.3H436.745V267.7H454.645V263.3Z" fill="#FF725E"/>
<path d="M508.045 263.3H496.245V267.7H508.045V263.3Z" fill="#263238"/>
<path d="M492.145 263.3H460.945V267.7H492.145V263.3Z" fill="#455A64"/>
<path d="M467.538 278.225H508.038V273.825H467.538V278.225Z" fill="#E0E0E0"/>
<path d="M442.463 278.225H460.363V273.825H442.463V278.225Z" fill="#455A64"/>
<path d="M389.018 278.225H400.818V273.825H389.018V278.225Z" fill="#263238"/>
<path d="M404.989 278.225H436.189V273.825H404.989V278.225Z" fill="#FF725E"/>
<path d="M429.645 284.6H389.145V289H429.645V284.6Z" fill="#E0E0E0"/>
<path d="M454.645 284.6H436.745V289H454.645V284.6Z" fill="#263238"/>
<path d="M508.045 284.6H496.245V289H508.045V284.6Z" fill="#263238"/>
<path d="M439.345 295.6H427.545V300H439.345V295.6Z" fill="#FF725E"/>
<path d="M492.145 284.6H460.945V289H492.145V284.6Z" fill="#455A64"/>
<path d="M419.445 295.6H388.245V300H419.445V295.6Z" fill="#455A64"/>
<path d="M940.292 693.468C939.547 690.92 937.548 689.588 935.313 689.548C933.275 689.98 932.569 692.057 932.413 694.135C932.256 696.212 932.961 698.251 933.706 700.21C935.98 706.482 938.293 712.754 940.566 719.065C942.487 718.791 944.408 718.477 946.289 718.203C944.094 709.736 942.722 701.857 940.292 693.468Z" fill="#005DA4"/>
<path d="M935.351 689.392C935.39 689.392 935.037 689.705 934.684 690.372C934.331 691.038 933.939 692.096 933.939 693.429C933.9 694.762 934.253 696.369 934.841 698.055C935.429 699.74 936.056 701.622 936.723 703.582C938.016 707.502 939.231 711.029 940.094 713.617C940.525 714.871 940.838 715.929 941.074 716.674C941.191 717.027 941.27 717.301 941.348 717.497C941.387 717.693 941.426 717.772 941.426 717.811C941.426 717.811 941.387 717.732 941.309 717.536C941.23 717.34 941.152 717.066 940.995 716.713C940.721 715.969 940.368 714.949 939.937 713.695C939.074 711.108 937.859 707.58 936.527 703.699C935.86 701.739 935.233 699.897 934.684 698.172C934.135 696.487 933.783 694.879 933.822 693.507C933.861 692.136 934.253 691.077 934.645 690.411C935.037 689.666 935.351 689.392 935.351 689.392Z" fill="#263238"/>
<path d="M944.993 717.615C944.993 717.615 944.954 717.536 944.836 717.34C944.758 717.144 944.601 716.909 944.484 716.556C944.17 715.851 943.778 714.832 943.386 713.538C942.955 712.245 942.524 710.677 942.132 708.913C941.74 707.149 941.269 705.228 940.799 703.229C940.329 701.23 939.78 699.309 939.192 697.623C938.604 695.938 937.977 694.448 937.349 693.233C936.722 692.018 936.134 691.116 935.664 690.489C935.468 690.176 935.272 689.94 935.154 689.784C935.037 689.627 934.958 689.548 934.998 689.548C934.998 689.548 935.076 689.627 935.193 689.784C935.311 689.94 935.507 690.176 935.742 690.45C936.213 691.038 936.84 691.979 937.467 693.155C938.133 694.331 938.8 695.82 939.388 697.545C939.976 699.23 940.525 701.151 940.995 703.19C941.465 705.228 941.897 707.149 942.289 708.873C942.68 710.637 943.112 712.166 943.504 713.499C943.896 714.792 944.288 715.812 944.562 716.517C944.68 716.87 944.797 717.144 944.876 717.34C944.954 717.497 944.993 717.615 944.993 717.615Z" fill="#263238"/>
<path d="M933.742 699.231C933.742 699.27 933.468 699.427 933.037 699.544C932.645 699.662 932.292 699.701 932.292 699.662C932.292 699.623 932.566 699.466 932.998 699.348C933.39 699.231 933.703 699.191 933.742 699.231Z" fill="#263238"/>
<path d="M932.96 695.312C932.96 695.39 932.529 695.429 931.98 695.469C931.431 695.508 931 695.547 931 695.469C931 695.429 931.431 695.273 931.98 695.233C932.529 695.194 932.96 695.273 932.96 695.312Z" fill="#263238"/>
<path d="M933.469 691.705C933.43 691.745 933.116 691.549 932.764 691.274C932.411 691 932.136 690.725 932.176 690.686C932.215 690.647 932.528 690.843 932.881 691.117C933.234 691.392 933.508 691.666 933.469 691.705Z" fill="#263238"/>
<path d="M935.077 688.294C935.156 688.294 935.116 688.569 935.156 688.922C935.156 689.274 935.156 689.549 935.116 689.549C935.077 689.549 934.96 689.274 934.96 688.922C934.92 688.569 935.038 688.294 935.077 688.294Z" fill="#263238"/>
<path d="M938.761 689.745C938.8 689.785 938.682 690.059 938.486 690.412C938.29 690.725 938.055 690.961 938.016 690.961C937.977 690.921 938.094 690.647 938.29 690.294C938.486 689.941 938.682 689.706 938.761 689.745Z" fill="#263238"/>
<path d="M941.232 693.704C941.272 693.743 940.958 693.939 940.566 694.135C940.174 694.292 939.86 694.41 939.821 694.371C939.782 694.331 940.096 694.135 940.488 693.939C940.88 693.743 941.232 693.626 941.232 693.704Z" fill="#263238"/>
<path d="M942.837 697.781C942.876 697.82 942.484 698.055 941.936 698.212C941.387 698.369 940.956 698.329 940.956 698.29C940.956 698.212 941.387 698.133 941.896 698.016C942.367 697.898 942.798 697.741 942.837 697.781Z" fill="#263238"/>
<path d="M936.292 696.879C936.253 696.879 936.253 696.565 936.371 696.212C936.449 695.86 936.567 695.625 936.645 695.625C936.684 695.625 936.684 695.938 936.567 696.291C936.449 696.644 936.332 696.879 936.292 696.879Z" fill="#263238"/>
<path d="M937.39 702.092C937.351 702.053 937.429 701.661 937.625 701.23C937.821 700.759 937.978 700.407 938.057 700.446C938.096 700.485 938.017 700.877 937.821 701.308C937.625 701.739 937.469 702.092 937.39 702.092Z" fill="#263238"/>
<path d="M935.236 703.583C935.197 703.622 934.844 703.543 934.413 703.426C933.981 703.308 933.589 703.191 933.629 703.151C933.629 703.112 934.021 703.112 934.491 703.23C934.883 703.387 935.236 703.543 935.236 703.583Z" fill="#263238"/>
<path d="M936.684 707.815C936.723 707.854 936.488 708.089 936.135 708.364C935.821 708.638 935.508 708.795 935.469 708.756C935.429 708.717 935.665 708.481 936.017 708.207C936.331 707.933 936.645 707.776 936.684 707.815Z" fill="#263238"/>
<path d="M937.898 712.01C937.898 712.049 937.623 712.206 937.232 712.323C936.84 712.441 936.526 712.48 936.487 712.441C936.448 712.402 936.761 712.245 937.153 712.127C937.545 712.01 937.859 711.971 937.898 712.01Z" fill="#263238"/>
<path d="M943.075 701.348C943.114 701.387 942.84 701.622 942.487 701.779C942.095 701.936 941.781 701.975 941.781 701.897C941.781 701.858 942.056 701.701 942.408 701.583C942.761 701.426 943.036 701.309 943.075 701.348Z" fill="#263238"/>
<path d="M944.172 707.933C944.132 707.973 943.819 707.894 943.466 707.737C943.113 707.581 942.839 707.424 942.839 707.345C942.878 707.306 943.192 707.385 943.544 707.541C943.897 707.698 944.172 707.894 944.172 707.933Z" fill="#263238"/>
<path d="M945.78 712.637C945.78 712.676 945.349 712.597 944.839 712.441C944.329 712.284 943.977 712.088 943.977 712.049C943.977 712.009 944.408 712.088 944.917 712.245C945.388 712.362 945.78 712.558 945.78 712.637Z" fill="#263238"/>
<path d="M938.291 716.635C938.252 716.596 938.644 716.322 939.036 715.969C939.467 715.616 939.781 715.303 939.82 715.342C939.859 715.381 939.585 715.773 939.154 716.165C938.762 716.478 938.33 716.674 938.291 716.635Z" fill="#263238"/>
<path d="M941.939 714.087C941.861 714.087 941.783 713.773 941.626 713.42C941.469 713.067 941.312 712.754 941.351 712.715C941.391 712.675 941.665 712.911 941.822 713.303C942.018 713.734 942.018 714.087 941.939 714.087Z" fill="#263238"/>
<path d="M940.722 708.404C940.683 708.443 940.447 708.365 940.173 708.169C939.899 707.973 939.703 707.816 939.742 707.737C939.781 707.698 940.016 707.777 940.291 707.973C940.565 708.169 940.761 708.365 940.722 708.404Z" fill="#263238"/>
<path d="M944.916 703.7C944.916 703.739 944.602 703.896 944.171 703.935C943.74 703.974 943.387 703.935 943.387 703.856C943.387 703.778 943.74 703.778 944.171 703.7C944.563 703.7 944.916 703.66 944.916 703.7Z" fill="#263238"/>
<path d="M945.268 700.29C945.268 700.329 944.915 700.368 944.523 700.211C944.131 700.055 943.896 699.78 943.935 699.741C943.975 699.702 944.249 699.859 944.602 700.015C944.994 700.172 945.268 700.251 945.268 700.29Z" fill="#263238"/>
<path d="M945.936 709.658C945.936 709.697 945.622 709.736 945.269 709.658C944.916 709.619 944.642 709.54 944.642 709.462C944.642 709.423 944.956 709.383 945.308 709.462C945.661 709.501 945.936 709.619 945.936 709.658Z" fill="#263238"/>
<path d="M956.48 703.386C956.441 703.425 956.167 703.229 955.853 702.916C955.54 702.602 955.304 702.328 955.344 702.289C955.383 702.249 955.657 702.445 955.971 702.759C956.324 703.033 956.52 703.347 956.48 703.386Z" fill="#263238"/>
<path d="M967.065 690.412C967.261 689.119 967.417 687.786 967.104 686.531C966.829 685.277 965.967 684.062 964.713 683.67C963.301 683.239 961.734 684.023 960.793 685.159C959.852 686.335 959.46 687.786 959.068 689.236C956.481 699.114 954.913 709.267 954.403 719.498L960.244 720.87C963.85 710.482 965.536 701.27 967.065 690.412Z" fill="#005DA4"/>
<path d="M963.929 683.552C963.929 683.552 963.929 683.591 963.89 683.631C963.851 683.709 963.812 683.787 963.772 683.905C963.655 684.14 963.498 684.493 963.263 684.885C963.145 685.081 963.028 685.316 962.91 685.591C962.792 685.865 962.675 686.139 962.557 686.453C962.44 686.767 962.283 687.08 962.126 687.433C962.008 687.786 961.852 688.178 961.695 688.57C961.107 690.177 960.519 692.137 960.009 694.332C959.46 696.527 959.029 698.957 958.637 701.545C957.853 706.719 957.344 711.384 956.913 714.794C956.677 716.479 956.521 717.851 956.364 718.792C956.285 719.263 956.246 719.615 956.168 719.89C956.129 720.007 956.129 720.086 956.129 720.164C956.129 720.243 956.089 720.242 956.089 720.242C956.089 720.242 956.089 720.203 956.089 720.125C956.089 720.047 956.089 719.968 956.129 719.851C956.168 719.576 956.207 719.223 956.285 718.753C956.403 717.812 956.599 716.44 956.795 714.755C957.226 711.344 957.657 706.64 958.481 701.505C958.872 698.918 959.343 696.488 959.892 694.293C960.44 692.098 961.028 690.138 961.616 688.531C961.773 688.139 961.93 687.747 962.048 687.394C962.204 687.041 962.361 686.727 962.479 686.414C962.636 686.1 962.753 685.826 962.871 685.551C962.988 685.277 963.145 685.042 963.224 684.846C963.459 684.454 963.616 684.101 963.733 683.866C963.772 683.748 963.851 683.67 963.89 683.631C963.89 683.591 963.89 683.552 963.929 683.552Z" fill="#263238"/>
<path d="M964.439 683.591C964.439 683.591 964.753 683.983 965.027 684.885C965.301 685.747 965.419 687.119 965.223 688.766C964.753 692.019 964.047 696.488 963.185 701.427C962.322 706.366 961.46 710.835 960.793 714.049C960.48 715.656 960.206 716.95 960.01 717.851C959.931 718.282 959.853 718.635 959.774 718.87C959.735 718.988 959.735 719.066 959.696 719.145C959.696 719.223 959.657 719.223 959.657 719.223C959.657 719.223 959.657 719.184 959.657 719.145C959.657 719.066 959.696 718.988 959.696 718.87C959.735 718.596 959.814 718.282 959.892 717.812C960.088 716.91 960.323 715.578 960.637 714.01C961.264 710.795 962.087 706.327 962.949 701.388C963.812 696.449 964.557 691.98 965.066 688.726C965.301 687.119 965.223 685.747 964.949 684.885C964.753 684.023 964.439 683.631 964.439 683.591Z" fill="#263238"/>
<path d="M967.103 699.31C967.064 699.349 966.593 699.192 966.005 698.918C965.418 698.643 964.986 698.369 964.986 698.33C965.026 698.29 965.496 698.447 966.084 698.722C966.711 698.996 967.142 699.231 967.103 699.31Z" fill="#263238"/>
<path d="M968.397 693.352C968.397 693.391 967.927 693.626 967.26 693.861C966.633 694.096 966.084 694.214 966.084 694.136C966.084 694.096 966.555 693.861 967.221 693.626C967.848 693.43 968.397 693.273 968.397 693.352Z" fill="#263238"/>
<path d="M968.475 688.373C968.475 688.413 968.083 688.413 967.574 688.334C967.103 688.256 966.711 688.138 966.711 688.099C966.711 688.06 967.103 688.06 967.613 688.138C968.123 688.217 968.515 688.334 968.475 688.373Z" fill="#263238"/>
<path d="M962.674 684.649C962.634 684.689 962.399 684.336 962.164 683.865C961.929 683.395 961.772 683.003 961.85 683.003C961.89 682.964 962.125 683.317 962.36 683.787C962.595 684.218 962.752 684.61 962.674 684.649Z" fill="#263238"/>
<path d="M960.401 687.432C960.401 687.471 960.009 687.511 959.539 687.432C959.068 687.393 958.715 687.275 958.715 687.236C958.715 687.197 959.107 687.158 959.578 687.236C960.009 687.275 960.401 687.393 960.401 687.432Z" fill="#263238"/>
<path d="M958.361 693.274C958.322 693.313 957.93 693.196 957.499 692.96C957.068 692.725 956.715 692.49 956.754 692.451C956.793 692.412 957.185 692.529 957.616 692.764C958.048 692.96 958.4 693.196 958.361 693.274Z" fill="#263238"/>
<path d="M957.734 698.252C957.734 698.291 957.381 698.408 956.95 698.448C956.519 698.487 956.166 698.487 956.166 698.448C956.166 698.408 956.519 698.291 956.95 698.252C957.381 698.173 957.734 698.173 957.734 698.252Z" fill="#263238"/>
<path d="M956.285 706.365C956.285 706.405 955.932 706.483 955.462 706.522C954.991 706.561 954.639 706.561 954.639 706.483C954.639 706.444 954.991 706.365 955.462 706.326C955.932 706.287 956.285 706.326 956.285 706.365Z" fill="#263238"/>
<path d="M955.422 710.874C955.461 710.913 955.108 711.109 954.716 711.266C954.285 711.422 953.932 711.54 953.932 711.462C953.893 711.422 954.246 711.226 954.638 711.07C955.03 710.913 955.383 710.795 955.422 710.874Z" fill="#263238"/>
<path d="M958.636 716.323C958.597 716.362 958.361 715.97 958.126 715.461C957.891 714.951 957.773 714.559 957.813 714.52C957.852 714.481 958.087 714.873 958.322 715.382C958.557 715.892 958.675 716.323 958.636 716.323Z" fill="#263238"/>
<path d="M960.478 707.894C960.518 707.934 960.204 708.247 959.773 708.6C959.342 708.953 958.95 709.188 958.911 709.149C958.871 709.11 959.185 708.796 959.616 708.443C960.086 708.13 960.478 707.855 960.478 707.894Z" fill="#263238"/>
<path d="M960.674 703.426C960.635 703.465 960.361 703.23 960.125 702.877C959.851 702.524 959.694 702.25 959.733 702.211C959.773 702.172 960.047 702.407 960.282 702.76C960.557 703.073 960.713 703.387 960.674 703.426Z" fill="#263238"/>
<path d="M961.969 697.782C962.009 697.821 961.734 698.134 961.342 698.487C960.95 698.84 960.637 699.075 960.597 699.036C960.558 698.997 960.833 698.683 961.225 698.33C961.577 697.978 961.93 697.703 961.969 697.782Z" fill="#263238"/>
<path d="M962.753 693.665C962.714 693.704 962.4 693.391 962.048 692.999C961.695 692.607 961.46 692.254 961.499 692.215C961.538 692.176 961.852 692.489 962.204 692.881C962.557 693.273 962.792 693.626 962.753 693.665Z" fill="#263238"/>
<path d="M964.085 688.138C964.125 688.177 963.929 688.53 963.615 688.961C963.301 689.353 963.027 689.667 962.988 689.628C962.949 689.588 963.145 689.236 963.458 688.804C963.772 688.373 964.046 688.099 964.085 688.138Z" fill="#263238"/>
<path d="M966.124 683.081C966.163 683.121 966.007 683.473 965.693 683.905C965.419 684.336 965.144 684.61 965.105 684.61C965.066 684.571 965.223 684.218 965.536 683.787C965.811 683.356 966.046 683.042 966.124 683.081Z" fill="#263238"/>
<path d="M967.615 685.59C967.654 685.63 967.38 685.786 967.066 685.904C966.752 686.022 966.439 686.061 966.439 686.022C966.4 685.982 966.674 685.826 966.988 685.708C967.301 685.59 967.576 685.551 967.615 685.59Z" fill="#263238"/>
<path d="M965.887 704.249C965.887 704.288 965.339 704.171 964.751 703.857C964.163 703.543 963.771 703.151 963.81 703.112C963.849 703.073 964.28 703.347 964.868 703.661C965.417 703.975 965.927 704.21 965.887 704.249Z" fill="#263238"/>
<path d="M964.83 708.13C964.83 708.169 964.477 708.286 964.007 708.326C963.536 708.365 963.184 708.365 963.184 708.286C963.184 708.247 963.536 708.13 964.007 708.09C964.438 708.09 964.83 708.09 964.83 708.13Z" fill="#263238"/>
<path d="M963.299 714.833C963.26 714.872 962.829 714.519 962.476 713.97C962.123 713.422 961.966 712.873 962.005 712.873C962.045 712.834 962.28 713.343 962.633 713.853C963.025 714.401 963.338 714.793 963.299 714.833Z" fill="#263238"/>
<path d="M953.502 717.067C953.463 717.028 953.737 716.792 954.09 716.518C954.443 716.283 954.757 716.087 954.796 716.126C954.835 716.165 954.561 716.401 954.208 716.675C953.855 716.91 953.541 717.106 953.502 717.067Z" fill="#263238"/>
<path d="M952.324 699.192C952.088 697.781 951.5 696.056 950.089 695.821C949.227 695.703 948.404 696.174 947.894 696.879C947.384 697.585 947.071 698.408 946.992 699.27C946.326 704.876 946.365 711.422 947.463 717.537L952.676 718.321C953.5 711.814 953.382 705.62 952.324 699.192Z" fill="#005DA4"/>
<path d="M950.053 695.822C950.092 695.861 949.818 696.018 949.504 696.488C949.191 696.959 948.995 697.743 948.916 698.762C948.877 699.781 948.799 700.996 948.799 702.329C948.759 703.662 948.799 705.151 948.877 706.68C949.034 709.777 949.308 712.56 949.426 714.559C949.504 715.578 949.543 716.401 949.543 716.95C949.543 717.224 949.543 717.42 949.543 717.616C949.543 717.773 949.543 717.852 949.543 717.852C949.543 717.852 949.504 717.773 949.504 717.616C949.504 717.42 949.465 717.224 949.426 716.95C949.387 716.362 949.308 715.539 949.23 714.559C949.034 712.56 948.759 709.737 948.603 706.641C948.524 705.112 948.524 703.622 948.563 702.29C948.563 701.623 948.603 700.996 948.642 700.369C948.681 699.781 948.681 699.232 948.759 698.723C948.838 697.703 949.112 696.88 949.426 696.41C949.779 695.979 950.053 695.822 950.053 695.822Z" fill="#263238"/>
<path d="M953.579 706.091C953.54 706.13 953.148 705.895 952.756 705.542C952.325 705.19 952.05 704.876 952.09 704.798C952.129 704.759 952.521 704.994 952.913 705.346C953.344 705.738 953.618 706.052 953.579 706.091Z" fill="#263238"/>
<path d="M965.809 715.695H935.587V721.065H965.809V715.695Z" fill="#EDDAD3"/>
<path d="M937.86 719.968L941.545 736H959.537L963.536 719.968H937.86Z" fill="#EDDAD3"/>
<path d="M965.81 721.065C965.81 721.104 958.989 721.182 950.601 721.182C942.212 721.182 935.392 721.143 935.392 721.065C935.392 721.026 942.212 720.947 950.601 720.947C958.989 720.947 965.81 720.986 965.81 721.065Z" fill="#263238"/>
<path d="M950.012 707.149C949.933 707.11 950.09 706.718 950.325 706.248C950.56 705.778 950.796 705.425 950.835 705.464C950.913 705.503 950.756 705.895 950.521 706.365C950.286 706.836 950.051 707.189 950.012 707.149Z" fill="#263238"/>
<path d="M950.913 712.481C950.835 712.52 950.639 712.049 950.482 711.501C950.325 710.952 950.208 710.442 950.286 710.442C950.365 710.403 950.561 710.873 950.717 711.422C950.874 711.971 950.953 712.481 950.913 712.481Z" fill="#263238"/>
<path d="M945.62 714.677C945.581 714.637 945.855 714.363 946.208 714.049C946.561 713.775 946.914 713.579 946.953 713.618C946.992 713.657 946.718 713.932 946.365 714.245C945.973 714.559 945.659 714.755 945.62 714.677Z" fill="#263238"/>
</svg>
