<svg width="741" height="580" viewBox="0 0 741 580" fill="none" xmlns="http://www.w3.org/2000/svg">
<rect y="201.783" width="516.609" height="401.941" transform="rotate(-22.9913 0 201.783)" fill="#005DA4"/>
<g opacity="0.4">
<line x1="383.352" y1="7.35166" x2="383.352" y2="409.648" stroke="#005DA4" stroke-width="0.703316" stroke-linecap="round" stroke-dasharray="4.22 4.22"/>
<line x1="441.727" y1="7.35166" x2="441.727" y2="409.648" stroke="#005DA4" stroke-width="0.703316" stroke-linecap="round" stroke-dasharray="4.22 4.22"/>
<line x1="500.102" y1="7.35166" x2="500.102" y2="409.648" stroke="#005DA4" stroke-width="0.703316" stroke-linecap="round" stroke-dasharray="4.22 4.22"/>
<line x1="558.477" y1="7.35166" x2="558.477" y2="409.648" stroke="#005DA4" stroke-width="0.703316" stroke-linecap="round" stroke-dasharray="4.22 4.22"/>
<line x1="616.853" y1="7.35166" x2="616.853" y2="409.648" stroke="#005DA4" stroke-width="0.703316" stroke-linecap="round" stroke-dasharray="4.22 4.22"/>
<line x1="675.228" y1="7.35166" x2="675.228" y2="409.648" stroke="#005DA4" stroke-width="0.703316" stroke-linecap="round" stroke-dasharray="4.22 4.22"/>
<g opacity="0.6">
<line x1="317.24" y1="358.307" x2="740.636" y2="358.307" stroke="#005DA4" stroke-width="0.703316" stroke-linecap="round" stroke-dasharray="4.22 4.22"/>
<line x1="317.24" y1="299.932" x2="740.636" y2="299.932" stroke="#005DA4" stroke-width="0.703316" stroke-linecap="round" stroke-dasharray="4.22 4.22"/>
<line x1="317.24" y1="241.556" x2="740.636" y2="241.556" stroke="#005DA4" stroke-width="0.703316" stroke-linecap="round" stroke-dasharray="4.22 4.22"/>
<line x1="317.24" y1="183.181" x2="740.636" y2="183.181" stroke="#005DA4" stroke-width="0.703316" stroke-linecap="round" stroke-dasharray="4.22 4.22"/>
<line x1="317.24" y1="124.806" x2="740.636" y2="124.806" stroke="#005DA4" stroke-width="0.703316" stroke-linecap="round" stroke-dasharray="4.22 4.22"/>
<line x1="317.24" y1="66.4306" x2="740.636" y2="66.4306" stroke="#005DA4" stroke-width="0.703316" stroke-linecap="round" stroke-dasharray="4.22 4.22"/>
</g>
</g>
<path d="M683.015 51.0754C681.207 49.9942 679.169 49.0017 676.978 48.1187C676.136 47.7803 675.746 46.8368 676.068 46.004C676.407 45.1618 677.35 44.7723 678.183 45.0944C680.537 46.0353 682.722 47.0951 684.67 48.2691C685.451 48.7284 685.702 49.7303 685.233 50.4958C685.126 50.6866 684.991 50.8287 684.822 50.9475C684.325 51.362 683.606 51.428 683.015 51.0754ZM670.544 46.0158C668.336 45.4444 666.11 44.9916 663.894 44.7062C663.006 44.5887 662.379 43.7595 662.497 42.8711C662.614 41.9827 663.443 41.3562 664.332 41.4736C666.667 41.7775 669.037 42.2557 671.372 42.8618C672.242 43.0979 672.771 43.983 672.535 44.853C672.438 45.2112 672.245 45.516 671.955 45.7257C671.56 46.0168 671.046 46.1384 670.544 46.0158ZM601.65 91.4235C600.897 91.9197 599.895 91.7164 599.399 90.9637C598.902 90.211 599.106 89.2086 599.858 88.7123C601.631 87.5451 603.459 86.1732 605.278 84.6339C605.958 84.0494 606.988 84.1503 607.573 84.8308C608.157 85.5114 608.056 86.5415 607.376 87.126C606.663 87.7292 605.957 88.3068 605.248 88.8425C604.05 89.7671 602.839 90.6337 601.65 91.4235ZM610.309 82.2905C609.668 81.6635 609.676 80.6219 610.303 79.9816C611.852 78.4241 613.426 76.7223 614.98 74.9462C615.562 74.2665 616.599 74.1907 617.279 74.7734C617.959 75.3561 618.034 76.3931 617.452 77.0728C615.868 78.9094 614.238 80.6647 612.634 82.2758C612.578 82.3294 612.539 82.3736 612.473 82.4109C611.814 82.9187 610.879 82.8711 610.309 82.2905ZM595.316 94.9241C592.916 95.9759 590.563 96.6975 588.276 97.0795C587.386 97.2225 586.546 96.6237 586.403 95.7333C586.26 94.843 586.858 94.0028 587.749 93.8598C589.762 93.527 591.875 92.8778 594.012 91.9334C594.84 91.5672 595.794 91.9496 596.15 92.7607C596.458 93.4485 596.227 94.251 595.665 94.7028C595.569 94.8006 595.439 94.8752 595.316 94.9241ZM657.169 44.2825C654.87 44.3041 652.615 44.5163 650.494 44.8888C649.613 45.048 648.757 44.4585 648.598 43.5775C648.438 42.6965 649.028 41.8401 649.909 41.6808C652.203 41.2732 654.626 41.0515 657.118 41.0273C658.016 41.0098 658.754 41.732 658.755 42.6388C658.761 43.1759 658.51 43.6436 658.124 43.951C657.876 44.1583 657.539 44.2866 657.169 44.2825ZM619.61 71.9034C618.907 71.3556 618.773 70.3304 619.321 69.6275C620.697 67.8446 622.06 65.9617 623.387 64.0557C623.891 63.3133 624.914 63.1376 625.656 63.6412C626.398 64.1448 626.574 65.1676 626.07 65.91C624.72 67.851 623.318 69.778 621.902 71.6051C621.816 71.7192 621.721 71.817 621.616 71.8985C621.029 72.3434 620.199 72.3654 619.61 71.9034ZM627.679 60.5368C626.914 60.0681 626.68 59.0569 627.149 58.2913C627.61 57.5513 628.04 56.83 628.469 56.1086C629.274 54.7613 630.158 53.4766 631.124 52.2965C631.697 51.6005 632.716 51.4922 633.412 52.0656C634.107 52.6391 634.216 53.6573 633.642 54.3533C632.779 55.4101 631.987 56.5551 631.266 57.7465C630.82 58.4772 630.384 59.2241 629.906 59.9735C629.806 60.1387 629.672 60.2807 629.528 60.4065C629.024 60.8466 628.28 60.9057 627.679 60.5368ZM580.794 97.0683C578.621 96.6712 576.495 95.9021 574.485 94.8072C573.696 94.3734 573.413 93.3903 573.847 92.6015C574.281 91.8127 575.264 91.53 576.053 91.9638C577.751 92.8917 579.552 93.545 581.385 93.8774C582.275 94.0367 582.853 94.8939 582.685 95.7684C582.615 96.1754 582.383 96.5245 582.086 96.7597C581.724 97.0322 581.268 97.1421 580.794 97.0683ZM644.14 46.6944C642.071 47.5342 640.134 48.6017 638.401 49.8758C637.667 50.4046 636.65 50.2524 636.122 49.5184C635.593 48.7843 635.745 47.768 636.479 47.2392C638.43 45.8183 640.596 44.6204 642.911 43.6826C643.747 43.3327 644.694 43.7407 645.028 44.5867C645.31 45.2676 645.085 46.0445 644.514 46.48C644.419 46.5778 644.289 46.6524 644.14 46.6944Z" fill="#005DA4"/>
<path d="M683.272 44.5107L684.131 52.2292L726.221 49.7769L683.272 44.5107Z" fill="#72C2FF"/>
<path d="M686.125 60.7227L692.449 65.46L724.318 49.8514L686.125 60.7227Z" fill="#005DA4"/>
<path d="M726.221 49.7765L667.471 69.794L679.199 51.7283L726.221 49.7765Z" fill="#005DA4"/>
<path d="M683.272 44.5106L726.22 49.7768L690.092 32.434L683.272 44.5106Z" fill="#005DA4"/>
<path d="M368.644 106.106H443.203C449.079 106.106 453.847 101.339 453.847 95.463V63.6435C453.847 57.7674 449.079 53 443.203 53H368.644C362.767 53 358 57.7674 358 63.6435V95.463C357.972 101.339 362.74 106.106 368.644 106.106Z" fill="white"/>
<path d="M371.554 103.723V123.485C371.554 125.065 373.688 125.592 374.409 124.178L384.803 103.723H371.554Z" fill="white"/>
<path d="M370.473 69.6027H440.432C443.12 69.6027 445.31 67.413 445.31 64.7244C445.31 62.0359 443.12 59.8462 440.432 59.8462H370.473C367.784 59.8462 365.595 62.0359 365.595 64.7244C365.622 67.413 367.784 69.6027 370.473 69.6027Z" fill="#E3EAFF"/>
<path d="M370.473 85.0412H440.432C443.12 85.0412 445.31 82.8515 445.31 80.1629C445.31 77.4743 443.12 75.2847 440.432 75.2847H370.473C367.784 75.2847 365.595 77.4743 365.595 80.1629C365.622 82.8792 367.784 85.0412 370.473 85.0412Z" fill="#E3EAFF"/>
<path d="M369.78 100.507H414.682C416.982 100.507 418.839 98.6504 418.839 96.3499V94.9086C418.839 92.608 416.982 90.751 414.682 90.751H369.78C367.479 90.751 365.622 92.608 365.622 94.9086V96.3499C365.622 98.6504 367.479 100.507 369.78 100.507Z" fill="#E3EAFF"/>
<path d="M589.178 538.922C591.984 547.294 587.472 556.362 579.078 559.167C570.706 561.973 561.638 557.461 558.833 549.067C556.027 540.695 560.539 531.628 568.933 528.822C577.327 526.039 586.372 530.55 589.178 538.922Z" fill="#005DA4"/>
<path d="M565.79 541.459C567.204 540.987 568.731 541.75 569.202 543.164C569.673 544.578 568.91 546.105 567.496 546.576C566.082 547.047 564.556 546.284 564.085 544.87C563.613 543.456 564.376 541.93 565.79 541.459Z" fill="white"/>
<path d="M578.787 537.104C580.201 536.633 581.727 537.396 582.198 538.81C582.669 540.224 581.906 541.75 580.492 542.222C579.078 542.693 577.552 541.93 577.081 540.516C576.609 539.102 577.373 537.576 578.787 537.104Z" fill="white"/>
<path d="M568.866 550.189C568.731 550.234 568.596 550.301 568.484 550.391C567.945 550.772 567.811 551.378 568.192 551.76C570.055 553.645 573.444 554.184 576.609 553.129C579.684 552.097 581.996 549.785 582.467 547.226C582.557 546.688 582.108 546.261 581.457 546.284C580.806 546.284 580.2 546.732 580.088 547.271C579.751 549.044 578.158 550.66 576.003 551.379C573.803 552.119 571.447 551.738 570.145 550.436C569.853 550.099 569.337 550.032 568.866 550.189Z" fill="white"/>
<path d="M115.614 207.443C123.649 215.01 124.032 227.649 116.455 235.712C108.887 243.747 96.2487 244.13 88.1859 236.553C80.1507 228.985 79.7675 216.347 87.3445 208.284C94.9032 200.276 107.578 199.875 115.614 207.443Z" fill="white"/>
<path d="M91.3268 224.077C92.6019 222.727 94.7313 222.671 96.0812 223.946C97.4311 225.221 97.4874 227.35 96.2123 228.7C94.9372 230.05 92.8078 230.106 91.4579 228.831C90.108 227.556 90.0518 225.427 91.3268 224.077Z" fill="#CDD8FA"/>
<path d="M103.069 211.588C104.344 210.238 106.473 210.182 107.823 211.457C109.173 212.732 109.229 214.862 107.954 216.212C106.679 217.561 104.55 217.618 103.2 216.343C101.877 215.077 101.793 212.938 103.069 211.588Z" fill="#CDD8FA"/>
<path d="M99.8675 231.875C99.7298 232.013 99.6473 232.169 99.5648 232.325C99.1981 233.059 99.4096 233.803 100.043 234.013C103.21 234.975 107.257 233.569 110.128 230.548C112.917 227.591 114.062 223.689 113.078 220.578C112.867 219.927 112.132 219.743 111.426 220.12C110.71 220.524 110.307 221.369 110.491 222.011C111.18 224.168 110.365 226.894 108.429 228.942C106.439 231.063 103.612 232.02 101.418 231.351C100.923 231.186 100.299 231.406 99.8675 231.875Z" fill="#CDD8FA"/>
<g clip-path="url(#clip0_692_30614)">
<path d="M309.413 525.247C312.079 523.908 313.171 520.644 311.88 517.957C310.585 515.386 307.533 514.254 304.875 515.359L284.15 524.872C284.15 524.872 284.571 519.269 282.593 514.71C280.615 510.15 281.038 510.82 278.987 506.351C276.936 501.883 269.306 504.695 271.621 510.365C274.347 517.056 276.598 528.856 265.27 542.918C269.939 553.091 274.803 564.44 275.611 565.45C281.608 568.107 288.657 568.67 295.238 565.707C301.82 562.743 316.998 556.065 316.998 556.065C319.616 554.748 320.682 551.554 319.387 548.983C318.136 546.507 315.153 545.401 312.59 546.463" fill="#FFD7C4"/>
<path d="M317.479 557.111C320.668 555.532 321.918 551.736 320.361 548.594C318.87 545.596 315.285 544.306 312.247 545.586C311.702 545.778 311.471 546.402 311.663 546.947C311.903 547.47 312.48 547.723 313.025 547.531C315.09 546.64 317.47 547.562 318.503 549.562C319.533 551.679 318.676 554.202 316.581 555.279C316.486 555.322 301.356 561.979 294.869 564.899C289.143 567.47 282.568 567.438 276.385 564.751C275.697 563.628 273.523 558.64 271.345 553.77C269.887 550.468 268.233 546.739 266.597 543.174C275.028 532.455 277.142 521.011 272.708 510.098C271.734 507.725 272.98 506.175 274.285 505.633C275.59 505.092 277.387 505.245 278.151 506.909C279.482 509.809 279.761 510.544 280.347 511.944C280.648 512.726 281.063 513.629 281.735 515.22C283.582 519.494 283.216 524.841 283.191 524.911L283.085 526.686L305.426 516.431C307.539 515.519 309.988 516.466 311.043 518.514C312.095 520.679 311.234 523.318 309.07 524.37C308.547 524.61 308.337 525.281 308.625 525.782C308.865 526.305 309.536 526.515 310.037 526.227C313.226 524.649 314.549 520.761 312.949 517.525C311.436 514.479 307.76 513.116 304.626 514.439L285.422 523.253C285.397 521.193 285.168 517.558 283.753 514.351C283.103 512.808 282.714 511.836 282.387 511.123C281.78 509.675 281.5 508.94 280.147 505.993C278.86 503.188 275.811 502.689 273.555 503.666C271.251 504.666 269.43 507.344 270.88 510.879C275.139 521.412 273.031 531.991 264.681 542.384L264.289 542.909L264.507 543.385C266.23 547.14 267.972 551.06 269.517 554.552C273.022 562.438 274.418 565.481 274.958 566.154L275.114 566.37L275.344 566.495C282.147 569.53 289.445 569.633 295.837 566.757C302.207 563.833 317.337 557.176 317.479 557.111Z" fill="#0A0A0A"/>
<path d="M311.09 536.159C314.091 535.299 315.648 531.419 314.448 528.805C313.139 525.953 310.88 524.918 309.44 525.291" fill="#FFD7C4"/>
<path d="M312.161 536.879C313.492 536.268 314.583 535.134 315.24 533.682C316.048 531.93 316.114 529.943 315.372 528.327C313.845 524.999 311.078 523.737 309.167 524.211C308.6 524.356 308.278 524.907 308.423 525.474C308.568 526.04 309.119 526.363 309.685 526.218C310.559 525.989 312.405 526.753 313.518 529.177C313.998 530.223 313.908 531.531 313.375 532.753C312.821 533.928 311.903 534.811 310.817 535.079C310.251 535.224 309.95 535.822 310.095 536.389C310.24 536.955 310.838 537.256 311.405 537.111C311.617 537.071 311.924 536.988 312.161 536.879Z" fill="#191919"/>
<path d="M312.617 546.512C316.027 545.291 318.302 542.348 317.048 539.241C316.122 536.846 313.546 535.496 311.042 536.185" fill="#FFD7C4"/>
<path d="M313.875 547.14C315.777 546.267 317.274 544.89 317.982 543.298C318.639 541.846 318.642 540.348 318.061 538.831C316.964 535.939 313.811 534.336 310.788 535.148C310.222 535.293 309.899 535.844 310.044 536.41C310.189 536.977 310.788 537.278 311.306 537.155C313.313 536.636 315.338 537.664 316.047 539.583C316.435 540.555 316.404 541.491 316.022 542.414C315.417 543.728 314.045 544.876 312.268 545.518C311.723 545.711 311.422 546.309 311.615 546.854C311.807 547.399 312.406 547.7 312.951 547.507C313.305 547.402 313.59 547.271 313.875 547.14Z" fill="#191919"/>
<path d="M262.168 538.531L253.849 542.349C252.993 542.741 252.608 543.782 253 544.637L267.793 576.866C268.186 577.722 269.226 578.107 270.082 577.715L278.4 573.896C279.256 573.504 279.642 572.463 279.249 571.608L264.456 539.379C264.064 538.524 263.023 538.138 262.168 538.531Z" fill="white"/>
<path d="M270.512 578.668L278.83 574.849C280.209 574.217 280.826 572.552 280.193 571.174L265.401 538.945C264.768 537.567 263.103 536.949 261.725 537.582L253.406 541.4C252.028 542.033 251.41 543.698 252.043 545.076L266.836 577.305C267.516 578.661 269.133 579.3 270.512 578.668ZM262.598 539.484C262.93 539.331 263.346 539.485 263.499 539.818L278.292 572.046C278.445 572.379 278.29 572.795 277.957 572.948L269.639 576.766C269.306 576.919 268.89 576.765 268.737 576.432L253.945 544.203C253.792 543.871 253.946 543.454 254.279 543.302L262.598 539.484Z" fill="#191919"/>
<path d="M273.215 569.37C273.43 569.837 273.45 570.369 273.271 570.85C273.093 571.331 272.73 571.722 272.264 571.936C271.797 572.15 271.265 572.17 270.784 571.992C270.303 571.813 269.912 571.451 269.698 570.985C269.484 570.518 269.464 569.986 269.642 569.505C269.821 569.023 270.183 568.633 270.649 568.419C271.116 568.204 271.648 568.184 272.13 568.363C272.611 568.541 273.001 568.904 273.215 569.37Z" fill="#709CD5"/>
<path d="M272.698 572.891C274.171 572.215 274.84 570.412 274.164 568.938C273.487 567.464 271.684 566.796 270.21 567.472C268.737 568.149 268.068 569.952 268.745 571.425C269.49 572.925 271.224 573.567 272.698 572.891ZM271.105 569.421C271.533 569.225 272.088 569.43 272.284 569.858C272.48 570.286 272.275 570.841 271.847 571.037C271.419 571.234 270.864 571.028 270.668 570.6C270.471 570.172 270.677 569.617 271.105 569.421Z" fill="#191919"/>
<path d="M267.673 566.447C268.196 566.207 268.427 565.583 268.187 565.06L258.696 544.382C258.456 543.859 257.832 543.628 257.309 543.868C256.786 544.108 256.555 544.732 256.795 545.255L266.286 565.933C266.526 566.456 267.15 566.687 267.673 566.447Z" fill="#191919"/>
<path d="M299.184 530.919L303.51 528.933C304.033 528.693 304.264 528.069 304.024 527.546C303.784 527.024 303.16 526.792 302.637 527.032L298.312 529.018C297.789 529.258 297.557 529.882 297.797 530.405C298.037 530.927 298.661 531.159 299.184 530.919Z" fill="#191919"/>
<path d="M301.852 541.38L306.178 539.394C306.701 539.154 306.932 538.53 306.692 538.007C306.452 537.484 305.828 537.253 305.305 537.493L300.979 539.478C300.457 539.718 300.225 540.343 300.465 540.866C300.705 541.388 301.329 541.62 301.852 541.38Z" fill="#191919"/>
<path d="M304.27 551.663L308.596 549.678C309.119 549.438 309.35 548.813 309.11 548.291C308.87 547.768 308.246 547.536 307.723 547.776L303.397 549.762C302.875 550.002 302.643 550.626 302.883 551.149C303.123 551.672 303.747 551.903 304.27 551.663Z" fill="#191919"/>
</g>
<path d="M467.137 510.652L477.368 543.175C477.763 544.432 477.081 545.724 475.825 546.119L419.286 563.888C418.066 564.283 416.738 563.601 416.343 562.344L406.112 529.822C405.717 528.565 406.399 527.273 407.656 526.878L464.194 509.109C465.414 508.714 466.742 509.432 467.137 510.652Z" fill="#CDD8FA"/>
<path d="M467.137 510.652L467.712 512.447L447.753 539.047C445.85 541.704 442.44 542.816 439.317 541.775L406.435 530.863L406.112 529.822C405.717 528.565 406.399 527.273 407.656 526.878L464.194 509.109C465.414 508.75 466.743 509.432 467.137 510.652Z" fill="#FFF0F0"/>
<defs>
<clipPath id="clip0_692_30614">
<rect width="67" height="67" fill="white" transform="matrix(-0.908838 0.417149 0.417149 0.908838 300.893 491)"/>
</clipPath>
</defs>
</svg>
