<svg width="150" height="142" viewBox="0 0 150 142" fill="none" xmlns="http://www.w3.org/2000/svg">
    <g clip-path="url(#clip0_316_11774)">
        <path d="M145.264 53.5465C142.439 42 124.962 38.3721 117.279 30.3314C109.352 22.0639 106.308 4.57848 95.311 1.35173C84.6453 -1.7442 72.7325 11.1366 61.1598 13.9535C49.5871 16.7703 33.0522 10.7878 25.029 18.4535C16.7441 26.3634 22.1075 43.2907 18.9243 54.2703C15.7499 64.9099 1.91851 76.186 4.73537 87.7325C7.55223 99.2791 25.0377 102.907 32.7208 110.948C40.6482 119.215 43.6918 136.701 54.6889 139.927C65.3546 143.023 77.2673 130.142 88.8487 127.326C100.43 124.509 116.948 130.491 124.971 122.826C133.256 114.916 127.892 97.9883 131.075 87.0087C134.25 76.3692 148.081 65.093 145.264 53.5465Z" fill="white" />
        <path d="M123.513 108.139H21.0422C20.3197 108.139 19.6267 107.853 19.1151 107.343C18.6034 106.833 18.3148 106.141 18.3125 105.418V16.6828C18.3125 15.9589 18.6001 15.2646 19.112 14.7527C19.6239 14.2408 20.3182 13.9532 21.0422 13.9532H50.3358C51.3983 13.9494 52.447 14.1943 53.3979 14.6683C54.3489 15.1423 55.1758 15.8322 55.8125 16.6828L59.9026 22.1334C60.5381 22.9784 61.3613 23.6641 62.3072 24.1363C63.2531 24.6085 64.2959 24.8543 65.3532 24.8543H120.783C121.507 24.8543 122.202 25.1419 122.714 25.6538C123.225 26.1657 123.513 26.86 123.513 27.584V108.139Z" fill="#2FC8F2" />
        <path d="M123.513 108.14H21.0422C20.3197 108.14 19.6267 107.854 19.1151 107.344C18.6034 106.834 18.3148 106.142 18.3125 105.419V22.7883C18.3125 22.0643 18.6001 21.37 19.112 20.8581C19.6239 20.3462 20.3182 20.0586 21.0422 20.0586H46.8474C47.9099 20.0549 48.9586 20.2998 49.9096 20.7738C50.8605 21.2477 51.6874 21.9376 52.3241 22.7883L56.4142 28.2389C57.0497 29.0839 57.8729 29.7696 58.8188 30.2418C59.7648 30.714 60.8076 30.9598 61.8648 30.9598H120.783C121.507 30.9598 122.202 31.2474 122.714 31.7593C123.225 32.2712 123.513 32.9655 123.513 33.6895V108.14Z" fill="#00B5F4" />
        <path d="M123.514 109.011H52.3252C52.0939 109.011 51.8721 108.92 51.7086 108.756C51.545 108.593 51.4531 108.371 51.4531 108.139C51.4531 107.908 51.545 107.686 51.7086 107.523C51.8721 107.359 52.0939 107.267 52.3252 107.267H122.642V27.5842C122.642 27.0915 122.446 26.619 122.098 26.2707C121.75 25.9223 121.277 25.7266 120.785 25.7266H87.2089C86.9776 25.7266 86.7558 25.6347 86.5923 25.4712C86.4287 25.3076 86.3368 25.0858 86.3368 24.8545C86.3368 24.6232 86.4287 24.4014 86.5923 24.2379C86.7558 24.0743 86.9776 23.9824 87.2089 23.9824H120.785C121.739 23.9847 122.654 24.3649 123.329 25.0399C124.004 25.7149 124.384 26.6296 124.386 27.5842V108.139C124.386 108.371 124.294 108.593 124.131 108.756C123.967 108.92 123.745 109.011 123.514 109.011Z" fill="#34234D" />
        <path d="M47.0926 109.012H21.0431C20.0894 109.012 19.1746 108.634 18.4994 107.96C17.8242 107.287 17.4437 106.373 17.4414 105.419V16.6838C17.4414 15.7285 17.8209 14.8124 18.4963 14.137C19.1718 13.4615 20.0879 13.082 21.0431 13.082H50.3368C51.5213 13.0927 52.6876 13.375 53.746 13.9072C54.8043 14.4394 55.7264 15.2073 56.4414 16.1518L60.5315 21.6111C61.0871 22.3463 61.8053 22.943 62.6298 23.3545C63.4543 23.766 64.3629 23.9812 65.2844 23.9832H81.9763C82.2076 23.9832 82.4294 24.0751 82.593 24.2386C82.7565 24.4022 82.8484 24.624 82.8484 24.8553C82.8484 25.0866 82.7565 25.3084 82.593 25.472C82.4294 25.6355 82.2076 25.7274 81.9763 25.7274H65.328C64.1432 25.718 62.9765 25.4363 61.9179 24.904C60.8594 24.3717 59.9375 23.6031 59.2234 22.6576L55.1333 17.207C54.5746 16.4638 53.85 15.8615 53.0172 15.4482C52.1844 15.0348 51.2665 14.8218 50.3368 14.8262H21.0431C20.5505 14.8262 20.078 15.0219 19.7297 15.3703C19.3813 15.7186 19.1856 16.1911 19.1856 16.6838V105.419C19.1856 105.663 19.2337 105.904 19.3272 106.129C19.4206 106.354 19.5576 106.558 19.7302 106.73C19.9028 106.901 20.1076 107.037 20.333 107.13C20.5583 107.222 20.7996 107.269 21.0431 107.268H47.0926C47.3239 107.268 47.5457 107.36 47.7092 107.524C47.8728 107.687 47.9647 107.909 47.9647 108.14C47.9647 108.371 47.8728 108.593 47.7092 108.757C47.5457 108.92 47.3239 109.012 47.0926 109.012Z" fill="#34234D" />
        <path d="M47.0923 25.2911H29.6504C29.1878 25.2911 28.7442 25.1073 28.4171 24.7802C28.09 24.4531 27.9062 24.0095 27.9062 23.5469C27.9062 23.0843 28.09 22.6407 28.4171 22.3136C28.7442 21.9865 29.1878 21.8027 29.6504 21.8027H47.0923C47.5549 21.8027 47.9985 21.9865 48.3256 22.3136C48.6527 22.6407 48.8365 23.0843 48.8365 23.5469C48.8365 24.0095 48.6527 24.4531 48.3256 24.7802C47.9985 25.1073 47.5549 25.2911 47.0923 25.2911Z" fill="white" />
        <path d="M25.5078 108.14H128.964C129.686 108.14 130.378 107.853 130.888 107.343C131.398 106.832 131.685 106.14 131.685 105.419V40.1163C131.685 39.4224 131.41 38.7569 130.919 38.2663C130.428 37.7756 129.763 37.5 129.069 37.5H33.5747C32.8808 37.5 32.2153 37.7756 31.7247 38.2663C31.234 38.7569 30.9584 39.4224 30.9584 40.1163V105.419C30.9584 106.14 30.6717 106.832 30.1615 107.343C29.6512 107.853 28.9591 108.14 28.2375 108.14H25.5078Z" fill="white" />
        <path d="M129.071 37.5H33.5772C32.1323 37.5 30.9609 38.6713 30.9609 40.1163V98.5465C30.9609 99.9914 32.1323 101.163 33.5772 101.163H129.071C130.516 101.163 131.688 99.9914 131.688 98.5465V40.1163C131.688 38.6713 130.516 37.5 129.071 37.5Z" fill="white" />
        <path d="M63.6622 83.7207H112.499C113.887 83.7207 115.218 84.272 116.199 85.2533C117.181 86.2346 117.732 87.5655 117.732 88.9533V108.139H63.6622C62.2745 108.139 60.9436 107.588 59.9623 106.607C58.981 105.625 58.4297 104.295 58.4297 102.907V88.9533C58.4297 87.5655 58.981 86.2346 59.9623 85.2533C60.9436 84.272 62.2745 83.7207 63.6622 83.7207Z" fill="white" />
        <path d="M47.0931 109.011H25.5088C25.2775 109.011 25.0557 108.919 24.8921 108.755C24.7286 108.592 24.6367 108.37 24.6367 108.139C24.6367 107.907 24.7286 107.685 24.8921 107.522C25.0557 107.358 25.2775 107.266 25.5088 107.266H28.2385C28.7288 107.266 29.1991 107.072 29.5458 106.725C29.8925 106.378 30.0873 105.908 30.0873 105.418V40.1153C30.0873 39.1902 30.4548 38.3029 31.109 37.6487C31.7632 36.9945 32.6505 36.627 33.5757 36.627H129.07C129.995 36.627 130.882 36.9945 131.537 37.6487C132.191 38.3029 132.558 39.1902 132.558 40.1153V50.5804C132.558 50.8117 132.466 51.0336 132.303 51.1971C132.139 51.3607 131.917 51.4525 131.686 51.4525C131.455 51.4525 131.233 51.3607 131.069 51.1971C130.906 51.0336 130.814 50.8117 130.814 50.5804V40.1153C130.814 39.6527 130.63 39.2091 130.303 38.882C129.976 38.5549 129.532 38.3711 129.07 38.3711H33.5757C33.1131 38.3711 32.6694 38.5549 32.3423 38.882C32.0152 39.2091 31.8315 39.6527 31.8315 40.1153V105.418C31.8299 106.069 31.6521 106.708 31.317 107.266H47.0931C47.3244 107.266 47.5462 107.358 47.7098 107.522C47.8733 107.685 47.9652 107.907 47.9652 108.139C47.9652 108.37 47.8733 108.592 47.7098 108.755C47.5462 108.919 47.3244 109.011 47.0931 109.011Z" fill="#34234D" />
        <path d="M128.965 109.011H52.3252C52.0939 109.011 51.8721 108.919 51.7086 108.756C51.545 108.592 51.4531 108.37 51.4531 108.139C51.4531 107.908 51.545 107.686 51.7086 107.522C51.8721 107.359 52.0939 107.267 52.3252 107.267H128.965C129.455 107.267 129.925 107.072 130.272 106.725C130.619 106.379 130.814 105.908 130.814 105.418V55.8135C130.814 55.5822 130.905 55.3604 131.069 55.1968C131.233 55.0333 131.454 54.9414 131.686 54.9414C131.917 54.9414 132.139 55.0333 132.302 55.1968C132.466 55.3604 132.558 55.5822 132.558 55.8135V105.418C132.555 106.37 132.176 107.283 131.503 107.956C130.83 108.63 129.917 109.009 128.965 109.011Z" fill="#34234D" />
        <path d="M106.394 83.7207H57.5568C54.6669 83.7207 52.3242 86.0634 52.3242 88.9533V122.093C52.3242 124.983 54.6669 127.325 57.5568 127.325H106.394C109.284 127.325 111.627 124.983 111.627 122.093V88.9533C111.627 86.0634 109.284 83.7207 106.394 83.7207Z" fill="#1B71FF" />
        <path d="M95.9305 55.8145H76.7445C73.5064 55.8145 70.4009 57.1008 68.1112 59.3905C65.8215 61.6802 64.5352 64.7856 64.5352 68.0238V83.7214H72.384V68.0238C72.384 66.8673 72.8434 65.7582 73.6611 64.9404C74.4789 64.1227 75.588 63.6633 76.7445 63.6633H95.9305C97.087 63.6633 98.1961 64.1227 99.0138 64.9404C99.8316 65.7582 100.291 66.8673 100.291 68.0238V83.7214H108.14V68.0238C108.14 64.7856 106.853 61.6802 104.564 59.3905C102.274 57.1008 99.1686 55.8145 95.9305 55.8145Z" fill="white" />
        <path d="M106.394 89.8262H57.5568C54.6669 89.8262 52.3242 92.1689 52.3242 95.0587V122.094C52.3242 124.983 54.6669 127.326 57.5568 127.326H106.394C109.284 127.326 111.627 124.983 111.627 122.094V95.0587C111.627 92.1689 109.284 89.8262 106.394 89.8262Z" fill="#1B71FF" />
        <path d="M106.395 128.198H57.5578C55.9387 128.198 54.386 127.555 53.2411 126.41C52.0963 125.266 51.4531 123.713 51.4531 122.094V88.9543C51.4531 87.3352 52.0963 85.7825 53.2411 84.6376C54.386 83.4928 55.9387 82.8496 57.5578 82.8496H106.395C108.014 82.8496 109.567 83.4928 110.712 84.6376C111.856 85.7825 112.5 87.3352 112.5 88.9543V122.094C112.5 123.713 111.856 125.266 110.712 126.41C109.567 127.555 108.014 128.198 106.395 128.198ZM57.5578 84.5938C56.4013 84.5938 55.2922 85.0532 54.4745 85.8709C53.6567 86.6887 53.1973 87.7978 53.1973 88.9543V122.094C53.1973 123.25 53.6567 124.359 54.4745 125.177C55.2922 125.995 56.4013 126.454 57.5578 126.454H106.395C107.551 126.454 108.661 125.995 109.478 125.177C110.296 124.359 110.755 123.25 110.755 122.094V88.9543C110.755 87.7978 110.296 86.6887 109.478 85.8709C108.661 85.0532 107.551 84.5938 106.395 84.5938H57.5578Z" fill="#34234D" />
        <path d="M91.5711 55.8145H72.3851C69.147 55.8145 66.0415 57.1008 63.7518 59.3905C61.4621 61.6802 60.1758 64.7856 60.1758 68.0238V83.7214H68.0246V68.0238C68.0246 66.8673 68.484 65.7582 69.3018 64.9404C70.1195 64.1227 71.2286 63.6633 72.3851 63.6633H91.5711C92.7276 63.6633 93.8367 64.1227 94.6544 64.9404C95.4722 65.7582 95.9316 66.8673 95.9316 68.0238V83.7214H103.78V68.0238C103.78 64.7856 102.494 61.6802 100.204 59.3905C97.9147 57.1008 94.8092 55.8145 91.5711 55.8145Z" fill="#1B71FF" />
        <path d="M91.5711 59.3027H72.3851C69.147 59.3027 66.0415 60.5891 63.7518 62.8788C61.4621 65.1684 60.1758 68.2739 60.1758 71.512V83.7213H68.0246V68.0237C68.0246 66.8672 68.484 65.7581 69.3018 64.9403C70.1195 64.1226 71.2286 63.6632 72.3851 63.6632H91.5711C92.7276 63.6632 93.8367 64.1226 94.6544 64.9403C95.4722 65.7581 95.9316 66.8672 95.9316 68.0237V83.7213H103.78V71.512C103.78 68.2739 102.494 65.1684 100.204 62.8788C97.9147 60.5891 94.8092 59.3027 91.5711 59.3027Z" fill="#1B71FF" />
        <path d="M103.778 84.5926H95.9287C95.6974 84.5926 95.4756 84.5007 95.312 84.3371C95.1485 84.1736 95.0566 83.9518 95.0566 83.7205V68.0228C95.0566 67.0976 94.6891 66.2103 94.0349 65.5561C93.3807 64.902 92.4934 64.5344 91.5682 64.5344H72.3822C71.457 64.5344 70.5697 64.902 69.9155 65.5561C69.2613 66.2103 68.8938 67.0976 68.8938 68.0228V83.7205C68.8938 83.9518 68.8019 84.1736 68.6384 84.3371C68.4748 84.5007 68.253 84.5926 68.0217 84.5926H60.1729C59.9416 84.5926 59.7198 84.5007 59.5562 84.3371C59.3927 84.1736 59.3008 83.9518 59.3008 83.7205V68.0228C59.3008 64.5534 60.679 61.2261 63.1322 58.7729C65.5855 56.3196 68.9128 54.9414 72.3822 54.9414H91.5682C95.0376 54.9414 98.3649 56.3196 100.818 58.7729C103.271 61.2261 104.65 64.5534 104.65 68.0228V83.7205C104.65 83.9518 104.558 84.1736 104.394 84.3371C104.231 84.5007 104.009 84.5926 103.778 84.5926ZM96.8008 82.8484H102.905V68.0228C102.905 65.016 101.711 62.1323 99.5848 60.0062C97.4587 57.88 94.575 56.6856 91.5682 56.6856H72.3822C69.3754 56.6856 66.4917 57.88 64.3656 60.0062C62.2394 62.1323 61.045 65.016 61.045 68.0228V82.8484H67.1496V68.0228C67.1496 66.635 67.7009 65.3041 68.6822 64.3228C69.6635 63.3415 70.9944 62.7902 72.3822 62.7902H91.5682C92.956 62.7902 94.2869 63.3415 95.2682 64.3228C96.2495 65.3041 96.8008 66.635 96.8008 68.0228V82.8484Z" fill="#34234D" />
        <path d="M89.2401 115.613L86.336 106.474C87.2725 105.776 88.028 104.864 88.5394 103.814C89.0507 102.764 89.303 101.606 89.275 100.439C89.2042 98.5761 88.4344 96.8085 87.1188 95.4881C85.8032 94.1677 84.0385 93.3913 82.1761 93.3137C81.5183 93.3019 80.8617 93.3752 80.2227 93.5318C81.7736 93.9283 83.1552 94.8146 84.1623 96.0589C85.1694 97.3032 85.7482 98.8392 85.8128 100.439C85.8377 101.609 85.5815 102.767 85.0655 103.817C84.5495 104.868 83.7889 105.779 82.8477 106.474L85.7256 115.613C85.8035 115.855 85.8234 116.112 85.7839 116.363C85.7443 116.614 85.6463 116.852 85.4978 117.058C85.3493 117.264 85.1545 117.433 84.9289 117.55C84.7034 117.667 84.4535 117.73 84.1994 117.732H87.6878C87.9441 117.734 88.1971 117.674 88.426 117.559C88.6549 117.444 88.8532 117.276 89.0046 117.069C89.1561 116.862 89.2564 116.622 89.2973 116.369C89.3383 116.116 89.3187 115.857 89.2401 115.613Z" fill="white" />
        <path d="M85.7528 115.613L82.8487 106.473C83.7851 105.775 84.5407 104.863 85.052 103.813C85.5634 102.763 85.8156 101.606 85.7877 100.438C85.7252 98.8433 85.1514 97.3108 84.1511 96.067C83.1507 94.8232 81.7769 93.9342 80.2324 93.5312C78.8885 93.862 77.6663 94.5679 76.7084 95.5668C75.7504 96.5657 75.0961 97.8163 74.8219 99.1729C74.5477 100.529 74.6647 101.936 75.1595 103.229C75.6542 104.521 76.5062 105.646 77.6161 106.473L74.7382 115.613C74.6603 115.855 74.6404 116.111 74.6799 116.362C74.7195 116.613 74.8175 116.852 74.966 117.058C75.1145 117.264 75.3093 117.432 75.5349 117.549C75.7604 117.667 76.0103 117.729 76.2644 117.732H84.2004C84.4568 117.733 84.7097 117.674 84.9386 117.558C85.1675 117.443 85.3658 117.275 85.5173 117.068C85.6688 116.862 85.7691 116.622 85.81 116.369C85.8509 116.116 85.8313 115.857 85.7528 115.613Z" fill="white" />
        <path d="M87.69 118.605H76.2656C75.8719 118.607 75.4833 118.516 75.1315 118.339C74.7798 118.162 74.4749 117.905 74.2419 117.588C74.0088 117.27 73.8541 116.902 73.7906 116.514C73.727 116.125 73.7563 115.727 73.876 115.352L76.5795 106.78C75.7283 106.037 75.0403 105.126 74.559 104.104C74.0777 103.082 73.8135 101.971 73.7832 100.842C73.7529 99.7122 73.9571 98.5889 74.3828 97.5425C74.8086 96.4961 75.4467 95.5494 76.2568 94.7621C77.0438 93.9989 77.9753 93.4005 78.9967 93.0022C80.018 92.6038 81.1086 92.4135 82.2045 92.4423C84.2911 92.5281 86.269 93.3954 87.7457 94.8721C89.2223 96.3487 90.0897 98.3267 90.1754 100.413C90.2016 101.614 89.9646 102.807 89.481 103.906C88.9974 105.006 88.2789 105.987 87.376 106.78L90.0795 115.352C90.1993 115.727 90.2286 116.125 90.165 116.514C90.1014 116.902 89.9467 117.27 89.7137 117.588C89.4806 117.905 89.1757 118.162 88.824 118.339C88.4723 118.516 88.0837 118.607 87.69 118.605ZM81.9778 94.1865C80.6255 94.1846 79.3069 94.6088 78.2094 95.3988C77.1118 96.1887 76.2909 97.3044 75.8633 98.5873C75.4356 99.8702 75.423 101.255 75.827 102.546C76.2311 103.836 77.0315 104.967 78.1144 105.777C78.2582 105.885 78.3647 106.036 78.4194 106.208C78.4741 106.38 78.4741 106.564 78.4196 106.736L75.5417 115.875C75.5062 115.989 75.4978 116.109 75.5174 116.227C75.5369 116.344 75.5838 116.455 75.6543 116.551C75.7247 116.647 75.8168 116.725 75.923 116.779C76.0292 116.833 76.1465 116.861 76.2656 116.861H87.69C87.809 116.861 87.9264 116.833 88.0326 116.779C88.1388 116.725 88.2308 116.647 88.3013 116.551C88.3717 116.455 88.4186 116.344 88.4382 116.227C88.4577 116.109 88.4494 115.989 88.4138 115.875L85.5359 106.736C85.4814 106.564 85.4815 106.38 85.5361 106.208C85.5908 106.036 85.6974 105.885 85.8411 105.777C86.6732 105.168 87.3456 104.367 87.8012 103.442C88.2568 102.517 88.4819 101.496 88.4574 100.466C88.3929 98.8209 87.7106 97.261 86.5467 96.0972C85.3829 94.9333 83.823 94.2511 82.1784 94.1865H81.9778Z" fill="#34234D" />
        <path d="M69.7668 5.23247H62.7901C62.5588 5.23247 62.3369 5.14059 62.1734 4.97704C62.0098 4.81349 61.918 4.59167 61.918 4.36037C61.918 4.12908 62.0098 3.90726 62.1734 3.74371C62.3369 3.58016 62.5588 3.48828 62.7901 3.48828H69.7668C69.9981 3.48828 70.2199 3.58016 70.3835 3.74371C70.547 3.90726 70.6389 4.12908 70.6389 4.36037C70.6389 4.59167 70.547 4.81349 70.3835 4.97704C70.2199 5.14059 69.9981 5.23247 69.7668 5.23247Z" fill="white" />
        <path d="M66.2783 8.72093C66.047 8.72093 65.8252 8.62905 65.6617 8.4655C65.4981 8.30195 65.4062 8.08013 65.4062 7.84884V0.872093C65.4062 0.6408 65.4981 0.418979 65.6617 0.25543C65.8252 0.091881 66.047 0 66.2783 0C66.5096 0 66.7315 0.091881 66.895 0.25543C67.0586 0.418979 67.1504 0.6408 67.1504 0.872093V7.84884C67.1504 8.08013 67.0586 8.30195 66.895 8.4655C66.7315 8.62905 66.5096 8.72093 66.2783 8.72093Z" fill="white" />
        <path d="M12.2082 104.65H5.23147C5.00017 104.65 4.77835 104.559 4.61481 104.395C4.45126 104.231 4.35938 104.01 4.35938 103.778C4.35938 103.547 4.45126 103.325 4.61481 103.162C4.77835 102.998 5.00017 102.906 5.23147 102.906H12.2082C12.4395 102.906 12.6613 102.998 12.8249 103.162C12.9884 103.325 13.0803 103.547 13.0803 103.778C13.0803 104.01 12.9884 104.231 12.8249 104.395C12.6613 104.559 12.4395 104.65 12.2082 104.65Z" fill="white" />
        <path d="M8.71975 108.139C8.48846 108.139 8.26664 108.047 8.10309 107.883C7.93954 107.72 7.84766 107.498 7.84766 107.267V100.29C7.84766 100.059 7.93954 99.8369 8.10309 99.6734C8.26664 99.5098 8.48846 99.418 8.71975 99.418C8.95104 99.418 9.17286 99.5098 9.33641 99.6734C9.49996 99.8369 9.59184 100.059 9.59184 100.29V107.267C9.59184 107.498 9.49996 107.72 9.33641 107.883C9.17286 108.047 8.95104 108.139 8.71975 108.139Z" fill="white" />
        <path d="M120.347 16.5704H111.626C111.395 16.5704 111.173 16.4785 111.009 16.3149C110.846 16.1514 110.754 15.9296 110.754 15.6983C110.754 15.467 110.846 15.2452 111.009 15.0816C111.173 14.9181 111.395 14.8262 111.626 14.8262H120.347C120.578 14.8262 120.8 14.9181 120.964 15.0816C121.127 15.2452 121.219 15.467 121.219 15.6983C121.219 15.9296 121.127 16.1514 120.964 16.3149C120.8 16.4785 120.578 16.5704 120.347 16.5704Z" fill="white" />
        <path d="M115.989 20.93C115.758 20.93 115.536 20.8381 115.373 20.6745C115.209 20.511 115.117 20.2892 115.117 20.0579V11.3369C115.117 11.1056 115.209 10.8838 115.373 10.7203C115.536 10.5567 115.758 10.4648 115.989 10.4648C116.221 10.4648 116.442 10.5567 116.606 10.7203C116.769 10.8838 116.861 11.1056 116.861 11.3369V20.0579C116.861 20.2892 116.769 20.511 116.606 20.6745C116.442 20.8381 116.221 20.93 115.989 20.93Z" fill="white" />
        <path d="M95.929 136.918H87.208C86.9767 136.918 86.7549 136.826 86.5914 136.663C86.4278 136.499 86.3359 136.277 86.3359 136.046C86.3359 135.815 86.4278 135.593 86.5914 135.429C86.7549 135.266 86.9767 135.174 87.208 135.174H95.929C96.1603 135.174 96.3821 135.266 96.5456 135.429C96.7092 135.593 96.8011 135.815 96.8011 136.046C96.8011 136.277 96.7092 136.499 96.5456 136.663C96.3821 136.826 96.1603 136.918 95.929 136.918Z" fill="white" />
        <path d="M91.5713 141.28C91.34 141.28 91.1182 141.188 90.9546 141.024C90.7911 140.861 90.6992 140.639 90.6992 140.407V131.687C90.6992 131.455 90.7911 131.233 90.9546 131.07C91.1182 130.906 91.34 130.814 91.5713 130.814C91.8026 130.814 92.0244 130.906 92.188 131.07C92.3515 131.233 92.4434 131.455 92.4434 131.687V140.407C92.4434 140.639 92.3515 140.861 92.188 141.024C92.0244 141.188 91.8026 141.28 91.5713 141.28Z" fill="white" />
        <path d="M34.011 124.709H25.2901C25.0588 124.709 24.8369 124.617 24.6734 124.454C24.5098 124.29 24.418 124.068 24.418 123.837C24.418 123.606 24.5098 123.384 24.6734 123.22C24.8369 123.057 25.0588 122.965 25.2901 122.965H34.011C34.2423 122.965 34.4641 123.057 34.6277 123.22C34.7912 123.384 34.8831 123.606 34.8831 123.837C34.8831 124.068 34.7912 124.29 34.6277 124.454C34.4641 124.617 34.2423 124.709 34.011 124.709Z" fill="white" />
        <path d="M29.6494 129.071C29.4181 129.071 29.1963 128.979 29.0328 128.815C28.8692 128.652 28.7773 128.43 28.7773 128.198V119.478C28.7773 119.246 28.8692 119.024 29.0328 118.861C29.1963 118.697 29.4181 118.605 29.6494 118.605C29.8807 118.605 30.1026 118.697 30.2661 118.861C30.4296 119.024 30.5215 119.246 30.5215 119.478V128.198C30.5215 128.43 30.4296 128.652 30.2661 128.815C30.1026 128.979 29.8807 129.071 29.6494 129.071Z" fill="white" />
        <path d="M9.59302 47.9651H0.872093C0.6408 47.9651 0.418979 47.8733 0.25543 47.7097C0.091881 47.5462 0 47.3243 0 47.093C0 46.8617 0.091881 46.6399 0.25543 46.4764C0.418979 46.3128 0.6408 46.2209 0.872093 46.2209H9.59302C9.82432 46.2209 10.0461 46.3128 10.2097 46.4764C10.3732 46.6399 10.4651 46.8617 10.4651 47.093C10.4651 47.3243 10.3732 47.5462 10.2097 47.7097C10.0461 47.8733 9.82432 47.9651 9.59302 47.9651Z" fill="white" />
        <path d="M5.23147 52.3264C5.00017 52.3264 4.77835 52.2346 4.61481 52.071C4.45126 51.9075 4.35938 51.6856 4.35938 51.4544V42.7334C4.35938 42.5021 4.45126 42.2803 4.61481 42.1168C4.77835 41.9532 5.00017 41.8613 5.23147 41.8613C5.46276 41.8613 5.68458 41.9532 5.84813 42.1168C6.01168 42.2803 6.10356 42.5021 6.10356 42.7334V51.4544C6.10356 51.6856 6.01168 51.9075 5.84813 52.071C5.68458 52.2346 5.46276 52.3264 5.23147 52.3264Z" fill="white" />
        <path d="M149.126 81.1055H142.149C141.918 81.1055 141.696 81.0136 141.533 80.8501C141.369 80.6865 141.277 80.4647 141.277 80.2334C141.277 80.0021 141.369 79.7803 141.533 79.6168C141.696 79.4532 141.918 79.3613 142.149 79.3613H149.126C149.357 79.3613 149.579 79.4532 149.743 79.6168C149.906 79.7803 149.998 80.0021 149.998 80.2334C149.998 80.4647 149.906 80.6865 149.743 80.8501C149.579 81.0136 149.357 81.1055 149.126 81.1055Z" fill="white" />
        <path d="M145.638 84.594C145.406 84.594 145.185 84.5021 145.021 84.3385C144.858 84.175 144.766 83.9532 144.766 83.7219V76.7451C144.766 76.5138 144.858 76.292 145.021 76.1285C145.185 75.9649 145.406 75.873 145.638 75.873C145.869 75.873 146.091 75.9649 146.254 76.1285C146.418 76.292 146.51 76.5138 146.51 76.7451V83.7219C146.51 83.9532 146.418 84.175 146.254 84.3385C146.091 84.5021 145.869 84.594 145.638 84.594Z" fill="white" />
    </g>
    <defs>
        <clipPath id="clip0_316_11774">
            <rect width="150" height="141.279" fill="white" />
        </clipPath>
    </defs>
</svg>