<svg width="150" height="124" viewBox="0 0 150 124" fill="none" xmlns="http://www.w3.org/2000/svg">
    <g clip-path="url(#clip0_652_21702)">
        <path d="M30.251 41.7838L31.3935 39.7812L37.868 41.8921L32.6449 37.4538L33.733 35.5594L43.0366 40.5389L42.2749 41.8921L35.9093 38.5363L41.5132 43.1911L40.8603 44.3277L33.8962 42.0544L40.0986 45.6808L39.3913 47.088L30.251 41.7838Z" fill="#005DA4" />
        <path d="M43.7988 38.4269C43.0371 38.4269 42.221 37.9939 41.3505 37.2903L38.3581 34.6923C37.4876 33.9345 36.998 33.2309 36.8892 32.4732C36.7803 31.7154 37.1068 30.9577 37.8141 30.0917C38.5214 29.2798 39.2831 28.8468 40.0448 28.8468C40.8065 28.8468 41.6226 29.2257 42.4387 29.9834L45.4311 32.5814C46.3016 33.3392 46.7912 34.0428 46.9 34.8005C47.0089 35.5583 46.7368 36.316 45.9751 37.182C45.3222 38.048 44.5605 38.481 43.7988 38.4269ZM45.1046 35.45C44.9958 35.1794 44.7782 34.9088 44.4517 34.6382L40.6976 31.3907C40.3712 31.12 40.0992 30.9577 39.8271 30.8494C39.5551 30.7953 39.3375 30.9035 39.0654 31.1742C38.8478 31.4448 38.739 31.7154 38.8478 31.986C38.9566 32.2567 39.1743 32.5273 39.5007 32.7979L43.2548 36.0454C43.5812 36.316 43.9077 36.5325 44.1253 36.5867C44.3973 36.6408 44.6694 36.5325 44.887 36.2619C45.1046 35.9372 45.2134 35.6665 45.1046 35.45Z" fill="#005DA4" />
        <path d="M42.4922 25.6009L43.6891 24.6808L48.9122 27.5494L45.539 23.2735L46.9536 22.191L53.4824 30.4721L52.3398 31.3381L46.8992 28.1989L50.49 32.7995L49.021 33.9361L42.4922 25.6009Z" fill="#005DA4" />
        <path d="M49.7822 20.3516L53.8083 18.1866L54.5156 19.4856L52.3394 20.6764L53.6995 23.112L55.3861 22.1919L56.0934 23.4909L54.4068 24.411L55.9846 27.3337L58.1609 26.143L58.8682 27.442L54.7877 29.6611L49.7822 20.3516Z" fill="#005DA4" />
        <path d="M59.8471 22.515L55.7666 17.2107L57.6708 16.5071L60.0103 19.5922L59.7383 15.7494L61.5881 15.0999L61.8058 21.7572L63.2204 25.6542L61.2617 26.3578L59.8471 22.515Z" fill="#005DA4" />
        <path d="M68.5522 13.6933L71.2182 13.4768C72.2519 13.4227 73.068 13.5309 73.6665 13.8557C74.265 14.1804 74.5914 14.884 74.7002 15.9124C74.7546 16.5078 74.6458 17.049 74.4282 17.4279C74.2106 17.8068 73.8297 18.0774 73.3401 18.1857C73.9385 18.2398 74.4282 18.4563 74.809 18.8351C75.1355 19.2681 75.3531 19.8094 75.4075 20.5671C75.5707 22.6239 74.6458 23.7064 72.5784 23.8688L69.4228 24.1394L68.5522 13.6933ZM72.0343 22.4615C72.5784 22.4074 72.9048 22.245 73.1224 21.9744C73.3401 21.7038 73.3945 21.2708 73.3401 20.7295C73.2857 20.1341 73.1224 19.7011 72.9048 19.4305C72.6872 19.1599 72.2519 19.1058 71.7623 19.1058L71.1638 19.1599L71.4358 22.4615H72.0343ZM71.599 17.6985C72.1431 17.6444 72.4695 17.5362 72.6328 17.2655C72.796 16.9949 72.8504 16.616 72.8504 16.1289C72.796 15.6418 72.6872 15.317 72.4151 15.1547C72.1431 14.9923 71.7623 14.884 71.2726 14.9382L70.8917 14.9923L71.1094 17.7527L71.599 17.6985Z" fill="#005DA4" />
        <path d="M79.4886 13.4762L81.8825 13.7468L82.8074 24.4094L80.8488 24.1929L80.6856 21.8655L78.9989 21.7032L78.3461 23.9764L76.333 23.7599L79.4886 13.4762ZM80.5768 20.5124L80.4135 16.2366L79.3254 20.4042L80.5768 20.5124Z" fill="#005DA4" />
        <path d="M84.3857 24.0295C84.1136 23.3259 84.1136 22.4058 84.4401 21.3233L85.4738 17.6969C85.8003 16.5603 86.2899 15.8026 86.8884 15.3696C87.4869 14.9366 88.3574 14.8824 89.4455 15.2072C90.4793 15.5319 91.1321 15.9649 91.4042 16.6144C91.6762 17.2639 91.6762 18.0217 91.4042 18.9418L91.1321 19.8078L89.1191 19.2124L89.3911 18.2923C89.4999 17.9675 89.5543 17.751 89.5543 17.5345C89.5543 17.318 89.5543 17.1557 89.4455 16.9933C89.3367 16.8309 89.1735 16.7227 88.9559 16.6686C88.575 16.5603 88.303 16.6144 88.1398 16.8309C87.9765 17.0474 87.8133 17.3722 87.6501 17.8593L86.2899 22.4599C86.1267 22.947 86.1267 23.3259 86.1811 23.5965C86.2355 23.8672 86.4531 24.0295 86.7796 24.1378C87.106 24.246 87.3781 24.1919 87.5413 23.9754C87.7045 23.7589 87.8677 23.4342 87.9765 22.947L88.2486 21.9728L90.2616 22.5682L90.044 23.38C89.772 24.3543 89.3367 25.0038 88.7382 25.4368C88.1398 25.8156 87.3237 25.8698 86.2899 25.5991C85.365 25.2203 84.6577 24.7332 84.3857 24.0295Z" fill="#005DA4" />
        <path d="M95.268 17.3198L97.1722 18.2941L95.1592 22.2452L98.8589 19.1601L100.709 20.0802L96.7914 23.4359L96.0841 29.552L94.1255 28.5778L94.7783 23.6524L94.1799 24.0313L92.33 27.7118L90.4258 26.7375L95.268 17.3198Z" fill="#005DA4" />
        <path d="M56.6379 94.6084L58.7054 95.5826L56.9643 102.132L61.1537 96.7734L63.1123 97.7476L58.651 107.274L57.2364 106.57L60.2288 100.075L55.8762 105.866L54.6793 105.271L56.5835 98.2348L53.2647 104.621L51.8501 103.918L56.6379 94.6084Z" fill="#005DA4" />
        <path d="M62.3502 107.761C62.0238 107.057 62.0238 106.191 62.2958 105.109L63.2208 101.32C63.4928 100.238 63.928 99.4259 64.5265 98.9929C65.125 98.5599 65.9955 98.4516 67.0836 98.7222C68.1718 98.9929 68.8791 99.48 69.2055 100.129C69.532 100.779 69.5864 101.699 69.3143 102.782L68.335 106.624C68.063 107.707 67.6277 108.465 67.0292 108.952C66.4308 109.385 65.5603 109.493 64.4721 109.222C63.384 108.898 62.6767 108.411 62.3502 107.761ZM65.6691 107.49C65.8323 107.274 65.9955 106.949 66.1043 106.57L67.3013 101.753C67.4101 101.32 67.4101 100.995 67.3557 100.725C67.3013 100.454 67.0836 100.292 66.7028 100.184C66.3219 100.075 66.1043 100.129 65.8867 100.346C65.7235 100.562 65.5603 100.833 65.4514 101.266L64.2545 106.083C64.1457 106.516 64.1457 106.841 64.2001 107.112C64.2545 107.382 64.4721 107.545 64.853 107.653C65.2338 107.761 65.5058 107.707 65.6691 107.49Z" fill="#005DA4" />
        <path d="M71.0563 99.6974L72.5797 99.7515L74.6471 105.326L74.9192 99.8598L76.7146 99.968L76.1705 110.468L74.7015 110.414L72.6885 104.46L72.362 110.252L70.5122 110.143L71.0563 99.6974Z" fill="#005DA4" />
        <path d="M77.8569 99.8602L82.4271 99.319L82.5903 100.78L80.142 101.051L80.4685 103.811L82.3727 103.595L82.5359 105.056L80.6317 105.273L81.0125 108.574L83.4608 108.304L83.6241 109.765L78.9995 110.306L77.8569 99.8602Z" fill="#005DA4" />
        <path d="M86.2895 104.893L82.5898 99.3181L84.5485 98.7769L86.6704 102.024V98.1815L88.5746 97.6403L88.357 104.298L89.4995 108.303L87.4865 108.844L86.2895 104.893Z" fill="#005DA4" />
        <path d="M91.9473 96.2335L94.2324 94.8804C95.1029 94.3391 95.919 94.1226 96.5719 94.1768C97.2791 94.2309 97.8776 94.6639 98.4217 95.584C98.7481 96.1253 98.9114 96.6124 98.8569 97.0454C98.8025 97.4784 98.5849 97.8573 98.2041 98.182C98.8025 97.9655 99.2922 97.9114 99.7819 98.1279C100.272 98.3444 100.707 98.7774 101.088 99.4269C102.176 101.213 101.795 102.62 100.054 103.649L97.3336 105.272L91.9473 96.2335ZM96.463 98.4526C96.8983 98.182 97.1703 97.9114 97.2247 97.5866C97.2791 97.2619 97.1703 96.9371 96.8983 96.5041C96.6807 96.1253 96.3542 95.8546 96.0822 95.8546C95.7558 95.8005 95.3749 95.9088 94.9396 96.1794L94.6132 96.3959L96.0278 98.7774L96.463 98.4526ZM98.9658 102.512C99.401 102.241 99.6731 101.971 99.7275 101.592C99.7819 101.267 99.6731 100.834 99.3466 100.347C99.0202 99.8057 98.6937 99.5351 98.3673 99.4269C98.0408 99.3186 97.66 99.3728 97.1703 99.6434L96.6807 99.914L98.4217 102.783L98.9658 102.512Z" fill="#005DA4" />
        <path d="M99.0205 91.5246L100.816 89.955L109.412 96.4499L107.943 97.7489L106.093 96.2876L104.842 97.3701L106.093 99.3727L104.57 100.726L99.0205 91.5246ZM105.005 95.4216L101.686 92.7153L104.08 96.2876L105.005 95.4216Z" fill="#005DA4" />
        <path d="M110.719 93.7424C109.957 93.7424 109.141 93.4176 108.216 92.714L105.224 90.3866C104.299 89.683 103.755 88.9794 103.537 88.2217C103.374 87.518 103.592 86.7062 104.299 85.786C104.952 84.92 105.659 84.487 106.312 84.487C107.019 84.4329 107.727 84.7577 108.488 85.353L109.196 85.8943L107.944 87.518L107.183 86.9227C106.911 86.7062 106.747 86.5979 106.53 86.4897C106.366 86.3814 106.203 86.3814 105.986 86.3814C105.822 86.3814 105.659 86.5438 105.496 86.7062C105.278 87.0309 105.224 87.3015 105.333 87.518C105.442 87.7345 105.714 88.0051 106.094 88.3299L109.903 91.2526C110.284 91.5774 110.61 91.7398 110.882 91.7939C111.154 91.848 111.426 91.7398 111.644 91.415C111.862 91.1444 111.916 90.8738 111.807 90.6573C111.698 90.4408 111.426 90.1701 111.045 89.8454L110.229 89.1959L111.481 87.5722L112.188 88.1134C113.004 88.7088 113.494 89.3583 113.657 90.0619C113.82 90.7655 113.548 91.5233 112.895 92.3893C112.188 93.2553 111.481 93.6883 110.719 93.7424Z" fill="#005DA4" />
        <path d="M106.637 82.8101L107.617 80.9157L111.588 82.9184L108.487 79.1838L109.466 77.3435L112.785 81.2405L118.933 81.9982L117.954 83.9467L113.003 83.2431L113.329 83.8385L117.029 85.7329L116.05 87.6272L106.637 82.8101Z" fill="#005DA4" />
        <path d="M47.062 63.5968L49.7824 73.9347L51.469 73.3934L47.4973 63.4345L47.062 63.5968ZM60.9358 59.0503L60.6638 59.1586L61.9695 63.1097L63.1665 62.7308C63.765 62.5143 63.8738 61.7566 63.4929 60.5117C63.2209 59.6457 62.8944 59.1586 62.568 58.9962C62.1872 58.7797 61.6975 58.7797 60.9358 59.0503ZM75.2448 54.4497L77.9652 64.7876L79.6518 64.2463L75.6801 54.2874L75.2448 54.4497ZM133.406 24.5187L126.279 26.8461C111.045 4.87139 82.5354 -5.5747 55.7127 3.08527C28.8901 11.7452 12.0239 36.9133 12.6768 63.5968L5.54951 65.9242L0 76.8033L5.60392 93.9609L16.5941 99.5357L23.7214 97.2084C38.9554 119.183 67.4646 129.629 94.2873 120.969C121.11 112.309 137.976 87.1411 137.323 60.4576L144.45 58.1302L150.054 47.197L144.45 30.0394L133.406 24.5187ZM56.2568 4.76314C82.1001 -3.57208 109.576 6.33276 124.429 27.3873L121.817 28.2533C107.508 8.60601 81.5016 -0.649338 57.0729 7.30701C32.6442 15.1551 17.0838 37.8334 17.1382 62.1355L14.5267 63.0015C14.0914 37.238 30.4679 13.1525 56.2568 4.76314ZM121.6 44.166L122.905 48.1171L118.444 49.5785L120.022 54.3956L124.973 52.826L126.333 56.9395L116.594 60.0787L109.684 38.9159L119.097 35.8849L120.457 39.9984L115.832 41.5139L117.193 45.6274L121.6 44.166ZM94.6137 37.0215C86.5615 30.7431 75.6257 28.4698 65.1251 31.8256C54.679 35.2354 47.1708 43.4624 44.3417 53.259L18.9336 61.486C19.1512 38.2123 34.1676 16.5624 57.617 8.93076C81.0664 1.35328 106.039 10.0674 119.967 28.7404L94.6137 37.0215ZM98.2046 47.1429L96.8444 43.0835L107.127 39.7278L108.487 43.7871L105.713 44.7073L111.317 61.8107L106.638 63.3262L101.034 46.2228L98.2046 47.1429ZM72.1436 43.5165L69.0424 42.9212L66.8662 45.1944L66.4309 42.0552L63.5473 40.702L66.4309 39.3489L66.8662 36.2097L69.0424 38.4829L72.1436 37.8875L70.6202 40.6479L72.1436 43.5165ZM78.0196 79.3472L81.1208 79.9425L83.2971 77.6693L83.7323 80.8085L86.6159 82.1617L83.7323 83.5148L83.2971 86.654L81.1208 84.3808L78.0196 84.9761L79.543 82.2158L78.0196 79.3472ZM82.6442 71.1202L81.284 68.0351L78.8901 68.7928L79.6518 72.0944L75.0816 73.5558L70.5658 51.5811L77.9108 49.1996L87.2144 69.6047L82.6442 71.1202ZM80.087 40.5397L77.8564 40.1067L76.333 41.7304L76.0609 39.5113L74.0479 38.537L76.0609 37.5628L76.333 35.3437L77.9108 36.9674L80.1415 36.5344L79.0533 38.4829L80.087 40.5397ZM87.7584 76.6409L89.9891 77.0739L91.5125 75.4502L91.7845 77.6693L93.7976 78.6435L91.7845 79.6178L91.5125 81.8369L89.9347 80.2132L87.704 80.6462L88.7922 78.6977L87.7584 76.6409ZM89.7171 68.7928L82.753 47.63L87.5952 46.0604L93.0903 55.4781L89.7715 45.3568L94.3417 43.8954L101.251 65.0582L96.6268 66.5196L90.8596 56.723L94.3417 67.3315L89.7171 68.7928ZM70.0762 82.3782L72.3068 82.8112L73.8302 81.1874L74.1023 83.4065L76.1153 84.3808L74.1023 85.355L73.8302 87.5741L72.2524 85.9504L70.0218 86.3834L71.1099 84.4349L70.0762 82.3782ZM68.4984 60.9447C68.5528 61.3777 68.5528 61.7025 68.444 62.0272C68.3895 62.352 68.2263 62.6767 68.0087 63.0015C67.7911 63.3262 67.4646 63.651 67.0838 63.9216C67.519 63.8675 67.9543 63.8675 68.3351 64.0298C68.716 64.1381 68.988 64.3546 69.2056 64.6252C69.4233 64.8958 69.6409 65.1665 69.7497 65.4371C69.8585 65.7077 70.0218 65.9783 70.1306 66.3031C71.2731 69.8212 72.1436 72.4733 72.6877 74.3136L68.0631 75.7749L65.3428 67.4938C65.2339 67.1691 65.1251 66.8985 64.9619 66.7361C64.8531 66.5737 64.6355 66.4655 64.4722 66.4113C64.2546 66.4113 64.0914 66.4113 63.8738 66.4113C63.7105 66.4655 63.4385 66.5196 63.1121 66.6278L66.2677 76.262L61.5343 77.7775L54.6246 56.6147L61.8607 54.2874C62.6224 54.0709 63.2753 53.9626 63.8738 53.9626C64.4722 54.0167 64.9619 54.125 65.3972 54.3415C65.8324 54.558 66.1589 54.9369 66.5397 55.424C66.8662 55.9111 67.1926 56.3982 67.4102 56.9395C67.6279 57.4807 67.8999 58.0761 68.1175 58.888C68.2263 59.2669 68.3351 59.5916 68.444 59.8622C68.3895 60.187 68.444 60.5117 68.4984 60.9447ZM62.4592 46.2228L60.2285 45.7898L58.7051 47.4135L58.4331 45.1944L56.42 44.2201L58.4331 43.2459L58.7051 41.0268L60.2829 42.6505L62.5136 42.2175L61.4255 44.166L62.4592 46.2228ZM58.9771 78.7518L54.407 80.2132L53.0468 77.128L50.6529 77.8858L51.4146 81.1874L46.8444 82.6488L42.3286 60.6741L49.6736 58.2926L58.9771 78.7518ZM26.0609 65.9783L30.6311 64.517L35.6366 79.7802C35.691 79.9967 35.7998 80.2132 35.7998 80.3214C35.8542 80.4297 35.9086 80.6462 36.0718 80.8627C36.1806 81.0792 36.2894 81.2415 36.3983 81.3498C36.5071 81.458 36.6703 81.5122 36.8335 81.5663C36.9967 81.6204 37.2144 81.6204 37.432 81.5122C37.5952 81.458 37.7584 81.3498 37.8672 81.2415C37.9761 81.1333 38.0849 81.025 38.0849 80.8627C38.1393 80.7003 38.1393 80.5379 38.1393 80.4297C38.1393 80.2673 38.1393 80.1049 38.0849 79.9425C38.0305 79.726 37.9761 79.5637 37.9761 79.4554C37.9217 79.3472 37.9217 79.1848 37.8128 79.0224L32.8074 63.7592L37.3776 62.2978L42.4918 77.8858C43.1447 79.7802 43.1447 81.4039 42.5462 82.7029C41.9478 84.0019 40.6964 84.9761 38.7378 85.5715C36.7791 86.221 35.1469 86.221 33.8955 85.5174C32.6442 84.8138 31.7193 83.5148 31.0664 81.6204L26.0609 65.9783ZM55.3863 86.9246C63.4385 93.2031 74.3743 95.4764 84.8749 92.1206C95.321 88.7108 102.829 80.4838 105.658 70.6872L131.066 62.4602C130.849 85.7339 115.832 107.384 92.383 115.015C68.9336 122.593 43.9608 113.879 30.0326 95.2057L55.3863 86.9246ZM16.1589 85.6256L13.1665 76.4244C12.84 75.396 12.6768 74.5301 12.7312 73.6641C12.7312 72.8522 12.8944 72.1486 13.1665 71.6073C13.4385 71.0661 13.765 70.5789 14.2546 70.2001C14.7443 69.7671 15.1795 69.4423 15.6148 69.2258C16.0501 69.0093 16.5397 68.7928 17.0838 68.6304C17.7367 68.4139 18.3351 68.2516 18.9336 68.1974C19.4777 68.1433 20.0218 68.0892 20.457 68.1974C20.8923 68.2516 21.3275 68.3598 21.7084 68.5222C22.0892 68.6846 22.4157 68.9011 22.7421 69.1717C23.0686 69.4423 23.3406 69.7671 23.5582 70.0918C23.7758 70.4166 24.0479 70.7954 24.2655 71.2826C24.4831 71.7697 24.7008 72.2027 24.864 72.6357C25.0272 73.0687 25.1904 73.5558 25.4081 74.1512L20.8923 75.6125L20.3482 73.9347C20.2394 73.6099 20.1306 73.3393 19.9674 73.1228C19.8041 72.9063 19.6953 72.7981 19.5321 72.7439C19.3689 72.6898 19.2601 72.6898 19.0968 72.6898C18.988 72.6898 18.8792 72.6898 18.716 72.7439C18.444 72.8522 18.2263 72.9604 18.1175 73.0687C17.9543 73.1769 17.8999 73.3393 17.7911 73.4476C17.7367 73.6099 17.7367 73.8264 17.7911 74.0971C17.8455 74.3677 17.8999 74.6383 17.9543 74.9089C18.0087 75.1795 18.1719 75.5584 18.3351 76.0997L21.0011 84.2725C21.1099 84.5973 21.2187 84.8138 21.2731 85.0303C21.3819 85.2468 21.4907 85.4633 21.654 85.6798C21.8172 85.8963 22.0348 86.0586 22.2524 86.1128C22.4701 86.1669 22.7421 86.1669 23.0141 86.0586C23.5038 85.8963 23.7214 85.6256 23.7758 85.1926C23.8302 84.7596 23.7214 84.1643 23.4494 83.3524L22.6333 80.9168L21.3819 81.3498L20.185 77.6693L25.8977 75.8291L29.9238 88.1695L28.074 88.7649L26.6594 87.2494C26.2786 88.8731 25.1904 89.9556 23.4494 90.551C20.0218 91.6335 17.6279 90.0098 16.1589 85.6256ZM93.6888 119.183C67.8455 127.518 40.37 117.613 25.5169 96.5589L28.1284 95.6929C42.4374 115.34 68.444 124.596 92.8727 116.639C117.301 108.737 132.862 86.0586 132.807 61.7566L135.419 60.8906C135.854 86.7081 119.532 110.848 93.6888 119.183ZM138.955 52.8801L129.217 56.0194L122.307 34.8566L131.719 31.8256L133.079 35.939L128.455 37.4545L129.815 41.568L134.276 40.1067L135.582 44.0578L131.121 45.5191L132.699 50.3363L137.65 48.7666L138.955 52.8801Z" fill="#005DA4" />
    </g>
    <defs>
        <clipPath id="clip0_652_21702">
            <rect width="150" height="124" fill="white" />
        </clipPath>
    </defs>
</svg>