<svg width="520" height="643" viewBox="0 0 520 643" fill="none" xmlns="http://www.w3.org/2000/svg">
<circle cx="269.5" cy="435.5" r="206.683" stroke="#0A0A0A" stroke-width="1.63386"/>
<g filter="url(#filter0_d_438_12527)">
<rect y="305" width="172" height="110" rx="8" fill="white"/>
<rect x="0.5" y="305.5" width="171" height="109" rx="7.5" stroke="black"/>
<path d="M81 335.5L86 340.5M86 340.5L91 335.5M86 340.5V330.5M87.7667 323.517L84.2333 319.983C84.0012 319.751 83.7256 319.567 83.4221 319.441C83.1187 319.315 82.7935 319.25 82.465 319.25H73.5C72.5054 319.25 71.5516 319.645 70.8483 320.348C70.1451 321.052 69.75 322.005 69.75 323V343C69.75 343.995 70.1451 344.948 70.8483 345.652C71.5516 346.355 72.5054 346.75 73.5 346.75H98.5C99.4946 346.75 100.448 346.355 101.152 345.652C101.855 344.948 102.25 343.995 102.25 343V328C102.25 327.005 101.855 326.052 101.152 325.348C100.448 324.645 99.4946 324.25 98.5 324.25H89.535C88.8722 324.249 88.2351 323.986 87.7667 323.517Z" stroke="#005DA4" stroke-width="2" stroke-linecap="round" stroke-linejoin="round"/>
<path d="M45.2 363.768C46.384 363.768 47.4187 364.003 48.304 364.472C49.1893 364.941 49.872 365.603 50.352 366.456C50.8427 367.299 51.088 368.275 51.088 369.384C51.088 370.483 50.8427 371.459 50.352 372.312C49.872 373.165 49.184 373.827 48.288 374.296C47.4027 374.765 46.3733 375 45.2 375H40.992V363.768H45.2ZM45.024 372.632C46.0587 372.632 46.864 372.349 47.44 371.784C48.016 371.219 48.304 370.419 48.304 369.384C48.304 368.349 48.016 367.544 47.44 366.968C46.864 366.392 46.0587 366.104 45.024 366.104H43.728V372.632H45.024ZM56.681 375.128C55.8063 375.128 55.017 374.941 54.313 374.568C53.6197 374.195 53.0703 373.661 52.665 372.968C52.2703 372.275 52.073 371.464 52.073 370.536C52.073 369.619 52.2757 368.813 52.681 368.12C53.0863 367.416 53.641 366.877 54.345 366.504C55.049 366.131 55.8383 365.944 56.713 365.944C57.5877 365.944 58.377 366.131 59.081 366.504C59.785 366.877 60.3397 367.416 60.745 368.12C61.1503 368.813 61.353 369.619 61.353 370.536C61.353 371.453 61.145 372.264 60.729 372.968C60.3237 373.661 59.7637 374.195 59.049 374.568C58.345 374.941 57.5557 375.128 56.681 375.128ZM56.681 372.76C57.2037 372.76 57.6463 372.568 58.009 372.184C58.3823 371.8 58.569 371.251 58.569 370.536C58.569 369.821 58.3877 369.272 58.025 368.888C57.673 368.504 57.2357 368.312 56.713 368.312C56.1797 368.312 55.737 368.504 55.385 368.888C55.033 369.261 54.857 369.811 54.857 370.536C54.857 371.251 55.0277 371.8 55.369 372.184C55.721 372.568 56.1583 372.76 56.681 372.76ZM75.6205 366.072L73.2045 375H70.1805L68.7725 369.208L67.3165 375H64.3085L61.8765 366.072H64.6125L65.8765 372.456L67.3805 366.072H70.2765L71.7965 372.424L73.0445 366.072H75.6205ZM82.1039 365.976C83.1492 365.976 83.9812 366.317 84.5999 367C85.2292 367.672 85.5439 368.6 85.5439 369.784V375H82.8239V370.152C82.8239 369.555 82.6692 369.091 82.3599 368.76C82.0505 368.429 81.6345 368.264 81.1119 368.264C80.5892 368.264 80.1732 368.429 79.8639 368.76C79.5545 369.091 79.3999 369.555 79.3999 370.152V375H76.6639V366.072H79.3999V367.256C79.6772 366.861 80.0505 366.552 80.5199 366.328C80.9892 366.093 81.5172 365.976 82.1039 365.976ZM90.1811 363.16V375H87.4451V363.16H90.1811ZM96.2279 375.128C95.3532 375.128 94.5639 374.941 93.8599 374.568C93.1665 374.195 92.6172 373.661 92.2119 372.968C91.8172 372.275 91.6199 371.464 91.6199 370.536C91.6199 369.619 91.8225 368.813 92.2279 368.12C92.6332 367.416 93.1879 366.877 93.8919 366.504C94.5959 366.131 95.3852 365.944 96.2599 365.944C97.1345 365.944 97.9239 366.131 98.6279 366.504C99.3319 366.877 99.8865 367.416 100.292 368.12C100.697 368.813 100.9 369.619 100.9 370.536C100.9 371.453 100.692 372.264 100.276 372.968C99.8705 373.661 99.3105 374.195 98.5959 374.568C97.8919 374.941 97.1025 375.128 96.2279 375.128ZM96.2279 372.76C96.7505 372.76 97.1932 372.568 97.5559 372.184C97.9292 371.8 98.1159 371.251 98.1159 370.536C98.1159 369.821 97.9345 369.272 97.5719 368.888C97.2199 368.504 96.7825 368.312 96.2599 368.312C95.7265 368.312 95.2839 368.504 94.9319 368.888C94.5799 369.261 94.4039 369.811 94.4039 370.536C94.4039 371.251 94.5745 371.8 94.9159 372.184C95.2679 372.568 95.7052 372.76 96.2279 372.76ZM101.807 370.52C101.807 369.603 101.978 368.797 102.319 368.104C102.671 367.411 103.146 366.877 103.743 366.504C104.341 366.131 105.007 365.944 105.743 365.944C106.373 365.944 106.922 366.072 107.391 366.328C107.871 366.584 108.239 366.92 108.495 367.336V366.072H111.231V375H108.495V373.736C108.229 374.152 107.855 374.488 107.375 374.744C106.906 375 106.357 375.128 105.727 375.128C105.002 375.128 104.341 374.941 103.743 374.568C103.146 374.184 102.671 373.645 102.319 372.952C101.978 372.248 101.807 371.437 101.807 370.52ZM108.495 370.536C108.495 369.853 108.303 369.315 107.919 368.92C107.546 368.525 107.087 368.328 106.543 368.328C105.999 368.328 105.535 368.525 105.151 368.92C104.778 369.304 104.591 369.837 104.591 370.52C104.591 371.203 104.778 371.747 105.151 372.152C105.535 372.547 105.999 372.744 106.543 372.744C107.087 372.744 107.546 372.547 107.919 372.152C108.303 371.757 108.495 371.219 108.495 370.536ZM112.667 370.52C112.667 369.603 112.837 368.797 113.179 368.104C113.531 367.411 114.005 366.877 114.603 366.504C115.2 366.131 115.867 365.944 116.603 365.944C117.189 365.944 117.723 366.067 118.203 366.312C118.693 366.557 119.077 366.888 119.355 367.304V363.16H122.091V375H119.355V373.72C119.099 374.147 118.731 374.488 118.251 374.744C117.781 375 117.232 375.128 116.603 375.128C115.867 375.128 115.2 374.941 114.603 374.568C114.005 374.184 113.531 373.645 113.179 372.952C112.837 372.248 112.667 371.437 112.667 370.52ZM119.355 370.536C119.355 369.853 119.163 369.315 118.779 368.92C118.405 368.525 117.947 368.328 117.403 368.328C116.859 368.328 116.395 368.525 116.011 368.92C115.637 369.304 115.451 369.837 115.451 370.52C115.451 371.203 115.637 371.747 116.011 372.152C116.395 372.547 116.859 372.744 117.403 372.744C117.947 372.744 118.405 372.547 118.779 372.152C119.163 371.757 119.355 371.219 119.355 370.536ZM127.702 375.128C126.923 375.128 126.23 374.995 125.622 374.728C125.014 374.461 124.534 374.099 124.182 373.64C123.83 373.171 123.633 372.648 123.59 372.072H126.294C126.326 372.381 126.47 372.632 126.726 372.824C126.982 373.016 127.297 373.112 127.67 373.112C128.011 373.112 128.273 373.048 128.454 372.92C128.646 372.781 128.742 372.605 128.742 372.392C128.742 372.136 128.609 371.949 128.342 371.832C128.075 371.704 127.643 371.565 127.046 371.416C126.406 371.267 125.873 371.112 125.446 370.952C125.019 370.781 124.651 370.52 124.342 370.168C124.033 369.805 123.878 369.32 123.878 368.712C123.878 368.2 124.017 367.736 124.294 367.32C124.582 366.893 124.998 366.557 125.542 366.312C126.097 366.067 126.753 365.944 127.51 365.944C128.63 365.944 129.51 366.221 130.15 366.776C130.801 367.331 131.174 368.067 131.27 368.984H128.742C128.699 368.675 128.561 368.429 128.326 368.248C128.102 368.067 127.803 367.976 127.43 367.976C127.11 367.976 126.865 368.04 126.694 368.168C126.523 368.285 126.438 368.451 126.438 368.664C126.438 368.92 126.571 369.112 126.838 369.24C127.115 369.368 127.542 369.496 128.118 369.624C128.779 369.795 129.318 369.965 129.734 370.136C130.15 370.296 130.513 370.563 130.822 370.936C131.142 371.299 131.307 371.789 131.318 372.408C131.318 372.931 131.169 373.4 130.87 373.816C130.582 374.221 130.161 374.541 129.606 374.776C129.062 375.011 128.427 375.128 127.702 375.128Z" fill="#0A0A0A"/>
<path d="M66.5269 392.616C66.5696 391.475 66.9429 390.595 67.6469 389.976C68.3509 389.357 69.3056 389.048 70.5109 389.048C71.3109 389.048 71.9936 389.187 72.5589 389.464C73.1349 389.741 73.5669 390.12 73.8549 390.6C74.1536 391.08 74.3029 391.619 74.3029 392.216C74.3029 392.92 74.1269 393.496 73.7749 393.944C73.4229 394.381 73.0123 394.68 72.5429 394.84V394.904C73.1509 395.107 73.6309 395.443 73.9829 395.912C74.3349 396.381 74.5109 396.984 74.5109 397.72C74.5109 398.381 74.3563 398.968 74.0469 399.48C73.7483 399.981 73.3056 400.376 72.7189 400.664C72.1429 400.952 71.4549 401.096 70.6549 401.096C69.3749 401.096 68.3509 400.781 67.5829 400.152C66.8256 399.523 66.4256 398.573 66.3829 397.304H69.0389C69.0496 397.773 69.1829 398.147 69.4389 398.424C69.6949 398.691 70.0683 398.824 70.5589 398.824C70.9749 398.824 71.2949 398.707 71.5189 398.472C71.7536 398.227 71.8709 397.907 71.8709 397.512C71.8709 397 71.7056 396.632 71.3749 396.408C71.0549 396.173 70.5376 396.056 69.8229 396.056H69.3109V393.832H69.8229C70.3669 393.832 70.8043 393.741 71.1349 393.56C71.4763 393.368 71.6469 393.032 71.6469 392.552C71.6469 392.168 71.5403 391.869 71.3269 391.656C71.1136 391.443 70.8203 391.336 70.4469 391.336C70.0416 391.336 69.7376 391.459 69.5349 391.704C69.3429 391.949 69.2309 392.253 69.1989 392.616H66.5269ZM78.0384 394.728C77.0358 394.195 76.5344 393.357 76.5344 392.216C76.5344 391.64 76.6838 391.117 76.9824 390.648C77.2811 390.168 77.7344 389.789 78.3424 389.512C78.9504 389.224 79.6971 389.08 80.5824 389.08C81.4678 389.08 82.2091 389.224 82.8064 389.512C83.4144 389.789 83.8678 390.168 84.1664 390.648C84.4651 391.117 84.6144 391.64 84.6144 392.216C84.6144 392.792 84.4758 393.293 84.1984 393.72C83.9318 394.147 83.5691 394.483 83.1104 394.728C83.6864 395.005 84.1291 395.389 84.4384 395.88C84.7478 396.36 84.9024 396.925 84.9024 397.576C84.9024 398.333 84.7104 398.989 84.3264 399.544C83.9424 400.088 83.4198 400.504 82.7584 400.792C82.1078 401.08 81.3824 401.224 80.5824 401.224C79.7824 401.224 79.0518 401.08 78.3904 400.792C77.7398 400.504 77.2224 400.088 76.8384 399.544C76.4544 398.989 76.2624 398.333 76.2624 397.576C76.2624 396.915 76.4171 396.344 76.7264 395.864C77.0358 395.373 77.4731 394.995 78.0384 394.728ZM81.9584 392.632C81.9584 392.195 81.8304 391.859 81.5744 391.624C81.3291 391.379 80.9984 391.256 80.5824 391.256C80.1664 391.256 79.8304 391.379 79.5744 391.624C79.3291 391.869 79.2064 392.211 79.2064 392.648C79.2064 393.064 79.3344 393.395 79.5904 393.64C79.8464 393.875 80.1771 393.992 80.5824 393.992C80.9878 393.992 81.3184 393.869 81.5744 393.624C81.8304 393.379 81.9584 393.048 81.9584 392.632ZM80.5824 395.912C80.0811 395.912 79.6758 396.051 79.3664 396.328C79.0571 396.595 78.9024 396.968 78.9024 397.448C78.9024 397.896 79.0518 398.264 79.3504 398.552C79.6598 398.84 80.0704 398.984 80.5824 398.984C81.0944 398.984 81.4944 398.84 81.7824 398.552C82.0811 398.264 82.2304 397.896 82.2304 397.448C82.2304 396.979 82.0758 396.605 81.7664 396.328C81.4678 396.051 81.0731 395.912 80.5824 395.912ZM86.5574 398.92V396.712L91.6134 389.48H94.6694V396.552H95.9814V398.92H94.6694V401H91.9334V398.92H86.5574ZM92.1254 392.488L89.4374 396.552H92.1254V392.488ZM97.4176 392.616C97.4602 391.475 97.8336 390.595 98.5376 389.976C99.2416 389.357 100.196 389.048 101.402 389.048C102.202 389.048 102.884 389.187 103.45 389.464C104.026 389.741 104.458 390.12 104.746 390.6C105.044 391.08 105.194 391.619 105.194 392.216C105.194 392.92 105.018 393.496 104.666 393.944C104.314 394.381 103.903 394.68 103.434 394.84V394.904C104.042 395.107 104.522 395.443 104.874 395.912C105.226 396.381 105.402 396.984 105.402 397.72C105.402 398.381 105.247 398.968 104.938 399.48C104.639 399.981 104.196 400.376 103.61 400.664C103.034 400.952 102.346 401.096 101.546 401.096C100.266 401.096 99.2416 400.781 98.4736 400.152C97.7162 399.523 97.3162 398.573 97.2736 397.304H99.9296C99.9402 397.773 100.074 398.147 100.33 398.424C100.586 398.691 100.959 398.824 101.45 398.824C101.866 398.824 102.186 398.707 102.41 398.472C102.644 398.227 102.762 397.907 102.762 397.512C102.762 397 102.596 396.632 102.266 396.408C101.946 396.173 101.428 396.056 100.714 396.056H100.202V393.832H100.714C101.258 393.832 101.695 393.741 102.026 393.56C102.367 393.368 102.538 393.032 102.538 392.552C102.538 392.168 102.431 391.869 102.218 391.656C102.004 391.443 101.711 391.336 101.338 391.336C100.932 391.336 100.628 391.459 100.426 391.704C100.234 391.949 100.122 392.253 100.09 392.616H97.4176Z" fill="#0A0A0A"/>
</g>
<rect width="28" height="28" rx="6" transform="matrix(0.951946 0.306266 0.306266 -0.951946 433 347.654)" fill="#FFC52F"/>
<g clip-path="url(#clip0_438_12527)">
<path d="M497.413 400.247C500.079 398.908 501.171 395.644 499.88 392.957C498.585 390.386 495.533 389.254 492.875 390.359L472.15 399.872C472.15 399.872 472.571 394.269 470.593 389.71C468.615 385.15 469.038 385.82 466.987 381.351C464.936 376.883 457.306 379.695 459.621 385.365C462.347 392.056 464.598 403.856 453.27 417.918C457.939 428.091 462.803 439.44 463.611 440.45C469.608 443.107 476.657 443.67 483.238 440.707C489.82 437.743 504.998 431.065 504.998 431.065C507.616 429.748 508.682 426.554 507.387 423.983C506.136 421.507 503.153 420.401 500.59 421.463" fill="#FFD7C4"/>
<path d="M505.479 432.111C508.668 430.532 509.918 426.736 508.361 423.594C506.87 420.596 503.285 419.306 500.247 420.586C499.702 420.778 499.471 421.402 499.663 421.947C499.903 422.47 500.48 422.723 501.025 422.531C503.09 421.64 505.47 422.562 506.503 424.562C507.533 426.679 506.676 429.202 504.581 430.279C504.486 430.322 489.356 436.979 482.869 439.899C477.143 442.47 470.568 442.438 464.385 439.751C463.697 438.628 461.523 433.64 459.345 428.77C457.887 425.468 456.233 421.739 454.597 418.174C463.028 407.455 465.142 396.011 460.708 385.098C459.734 382.725 460.98 381.175 462.285 380.633C463.59 380.092 465.387 380.245 466.151 381.909C467.482 384.809 467.761 385.544 468.347 386.944C468.648 387.726 469.063 388.629 469.735 390.22C471.582 394.494 471.216 399.841 471.191 399.911L471.085 401.686L493.426 391.431C495.539 390.519 497.988 391.466 499.043 393.514C500.095 395.679 499.234 398.318 497.07 399.37C496.547 399.61 496.337 400.281 496.625 400.782C496.865 401.305 497.536 401.515 498.037 401.227C501.226 399.649 502.549 395.761 500.949 392.525C499.436 389.479 495.76 388.116 492.626 389.439L473.422 398.253C473.397 396.193 473.168 392.558 471.753 389.351C471.103 387.808 470.714 386.836 470.387 386.123C469.78 384.675 469.5 383.94 468.147 380.993C466.86 378.188 463.811 377.689 461.555 378.666C459.251 379.666 457.43 382.344 458.88 385.879C463.139 396.412 461.031 406.991 452.681 417.384L452.289 417.909L452.507 418.385C454.23 422.14 455.972 426.06 457.517 429.552C461.022 437.438 462.418 440.481 462.958 441.154L463.114 441.37L463.344 441.495C470.147 444.53 477.445 444.633 483.837 441.757C490.207 438.833 505.337 432.176 505.479 432.111Z" fill="#0A0A0A"/>
<path d="M499.09 411.159C502.091 410.299 503.648 406.419 502.448 403.805C501.139 400.953 498.88 399.918 497.44 400.291" fill="#FFD7C4"/>
<path d="M500.161 411.879C501.492 411.268 502.583 410.134 503.24 408.682C504.048 406.93 504.114 404.943 503.372 403.327C501.845 399.999 499.078 398.737 497.167 399.211C496.6 399.356 496.278 399.907 496.423 400.474C496.568 401.04 497.119 401.363 497.685 401.218C498.559 400.989 500.405 401.753 501.518 404.177C501.998 405.223 501.908 406.531 501.375 407.753C500.821 408.928 499.903 409.811 498.817 410.079C498.251 410.224 497.95 410.822 498.095 411.389C498.24 411.955 498.838 412.256 499.405 412.111C499.617 412.071 499.924 411.988 500.161 411.879Z" fill="#191919"/>
<path d="M500.617 421.512C504.027 420.291 506.302 417.348 505.048 414.241C504.122 411.846 501.546 410.496 499.042 411.185" fill="#FFD7C4"/>
<path d="M501.875 422.14C503.777 421.267 505.274 419.89 505.982 418.298C506.639 416.846 506.642 415.348 506.061 413.831C504.964 410.939 501.811 409.336 498.788 410.148C498.222 410.293 497.899 410.844 498.044 411.41C498.189 411.977 498.788 412.278 499.306 412.155C501.313 411.636 503.338 412.664 504.047 414.583C504.435 415.555 504.404 416.491 504.022 417.414C503.417 418.728 502.045 419.876 500.268 420.518C499.723 420.711 499.422 421.309 499.615 421.854C499.807 422.399 500.406 422.7 500.951 422.507C501.305 422.402 501.59 422.271 501.875 422.14Z" fill="#191919"/>
<path d="M450.168 413.531L441.849 417.349C440.993 417.741 440.608 418.782 441 419.637L455.793 451.866C456.186 452.722 457.226 453.107 458.082 452.715L466.4 448.896C467.256 448.504 467.642 447.463 467.249 446.608L452.456 414.379C452.064 413.524 451.023 413.138 450.168 413.531Z" fill="white"/>
<path d="M458.512 453.668L466.83 449.849C468.209 449.217 468.826 447.552 468.193 446.174L453.401 413.945C452.768 412.567 451.103 411.949 449.725 412.582L441.406 416.4C440.028 417.033 439.41 418.698 440.043 420.076L454.836 452.305C455.516 453.661 457.133 454.3 458.512 453.668ZM450.598 414.484C450.93 414.331 451.346 414.485 451.499 414.818L466.292 447.046C466.445 447.379 466.29 447.795 465.957 447.948L457.639 451.766C457.306 451.919 456.89 451.765 456.737 451.432L441.945 419.203C441.792 418.871 441.946 418.454 442.279 418.302L450.598 414.484Z" fill="#191919"/>
<path d="M461.215 444.37C461.43 444.837 461.45 445.369 461.271 445.85C461.093 446.331 460.73 446.722 460.264 446.936C459.797 447.15 459.265 447.17 458.784 446.992C458.303 446.813 457.912 446.451 457.698 445.985C457.484 445.518 457.464 444.986 457.642 444.505C457.821 444.023 458.183 443.633 458.649 443.419C459.116 443.204 459.648 443.184 460.13 443.363C460.611 443.541 461.001 443.904 461.215 444.37Z" fill="#709CD5"/>
<path d="M460.698 447.891C462.171 447.215 462.84 445.412 462.164 443.938C461.487 442.464 459.684 441.796 458.21 442.472C456.737 443.149 456.068 444.952 456.745 446.425C457.49 447.925 459.224 448.567 460.698 447.891ZM459.105 444.421C459.533 444.225 460.088 444.43 460.284 444.858C460.48 445.286 460.275 445.841 459.847 446.037C459.419 446.234 458.864 446.028 458.668 445.6C458.471 445.172 458.677 444.617 459.105 444.421Z" fill="#191919"/>
<path d="M455.673 441.447C456.196 441.207 456.427 440.583 456.187 440.06L446.696 419.382C446.456 418.859 445.832 418.628 445.309 418.868C444.786 419.108 444.555 419.732 444.795 420.255L454.286 440.933C454.526 441.456 455.15 441.687 455.673 441.447Z" fill="#191919"/>
<path d="M487.184 405.919L491.51 403.933C492.033 403.693 492.264 403.069 492.024 402.546C491.784 402.024 491.16 401.792 490.637 402.032L486.312 404.018C485.789 404.258 485.557 404.882 485.797 405.405C486.037 405.927 486.661 406.159 487.184 405.919Z" fill="#191919"/>
<path d="M489.852 416.38L494.178 414.394C494.701 414.154 494.932 413.53 494.692 413.007C494.452 412.484 493.828 412.253 493.305 412.493L488.979 414.478C488.457 414.718 488.225 415.343 488.465 415.866C488.705 416.388 489.329 416.62 489.852 416.38Z" fill="#191919"/>
<path d="M492.27 426.663L496.596 424.678C497.119 424.438 497.35 423.813 497.11 423.291C496.87 422.768 496.246 422.536 495.723 422.776L491.397 424.762C490.875 425.002 490.643 425.626 490.883 426.149C491.123 426.672 491.747 426.903 492.27 426.663Z" fill="#191919"/>
</g>
<path d="M289 597C215 607.5 159.3 523.3 188.5 484.5C225 436 346.5 528.5 350 421.5C353.5 314.5 226 411.5 239.5 281" stroke="#005DA4"/>
<g filter="url(#filter1_d_438_12527)">
<rect x="282" y="520" width="234" height="98" rx="8" fill="white"/>
<rect x="282.5" y="520.5" width="233" height="97" rx="7.5" stroke="#0A0A0A"/>
</g>
<path fill-rule="evenodd" clip-rule="evenodd" d="M341.788 543.21C342.236 542.133 343.764 542.133 344.212 543.21L346.294 548.216L351.698 548.65C352.862 548.743 353.334 550.195 352.447 550.955L348.33 554.482L349.587 559.755C349.858 560.891 348.623 561.788 347.627 561.18L343 558.354L338.373 561.18C337.377 561.788 336.142 560.89 336.413 559.755L337.67 554.482L333.553 550.955C332.666 550.195 333.138 548.743 334.302 548.65L339.706 548.216L341.788 543.21Z" fill="#005DA4"/>
<path fill-rule="evenodd" clip-rule="evenodd" d="M369.788 543.21C370.236 542.133 371.764 542.133 372.212 543.21L374.294 548.216L379.698 548.65C380.862 548.743 381.334 550.195 380.447 550.955L376.33 554.482L377.587 559.755C377.858 560.891 376.623 561.788 375.627 561.18L371 558.354L366.373 561.18C365.377 561.788 364.142 560.89 364.413 559.755L365.67 554.482L361.553 550.955C360.666 550.195 361.138 548.743 362.302 548.65L367.706 548.216L369.788 543.21Z" fill="#005DA4"/>
<path fill-rule="evenodd" clip-rule="evenodd" d="M397.788 543.21C398.236 542.133 399.764 542.133 400.212 543.21L402.294 548.216L407.698 548.65C408.862 548.743 409.334 550.195 408.447 550.955L404.33 554.482L405.587 559.755C405.858 560.891 404.623 561.788 403.627 561.18L399 558.354L394.373 561.18C393.377 561.788 392.142 560.89 392.413 559.755L393.67 554.482L389.553 550.955C388.666 550.195 389.138 548.743 390.302 548.65L395.706 548.216L397.788 543.21Z" fill="#005DA4"/>
<path fill-rule="evenodd" clip-rule="evenodd" d="M425.788 543.21C426.236 542.133 427.764 542.133 428.212 543.21L430.294 548.216L435.698 548.65C436.862 548.743 437.334 550.195 436.447 550.955L432.33 554.482L433.587 559.755C433.858 560.891 432.623 561.788 431.627 561.18L427 558.354L422.373 561.18C421.377 561.788 420.142 560.89 420.413 559.755L421.67 554.482L417.553 550.955C416.666 550.195 417.138 548.743 418.302 548.65L423.706 548.216L425.788 543.21Z" fill="#005DA4"/>
<path d="M454.48 543.499C454.522 543.396 454.594 543.308 454.687 543.245C454.78 543.183 454.889 543.15 455 543.15C455.112 543.15 455.221 543.183 455.313 543.245C455.406 543.308 455.478 543.396 455.52 543.499L457.645 548.61C457.685 548.706 457.75 548.788 457.834 548.849C457.918 548.91 458.017 548.947 458.12 548.955L463.638 549.397C464.137 549.437 464.339 550.06 463.959 550.385L459.755 553.987C459.677 554.054 459.618 554.142 459.586 554.24C459.554 554.338 459.549 554.443 459.573 554.544L460.858 559.929C460.884 560.037 460.877 560.15 460.839 560.255C460.8 560.359 460.732 560.449 460.642 560.514C460.552 560.58 460.445 560.617 460.334 560.621C460.223 560.626 460.113 560.597 460.018 560.539L455.293 557.654C455.205 557.6 455.104 557.572 455 557.572C454.897 557.572 454.795 557.6 454.707 557.654L449.982 560.54C449.887 560.598 449.778 560.627 449.667 560.622C449.556 560.618 449.448 560.581 449.359 560.515C449.269 560.45 449.2 560.36 449.162 560.256C449.123 560.151 449.116 560.038 449.142 559.93L450.427 554.544C450.451 554.443 450.447 554.338 450.415 554.24C450.382 554.142 450.324 554.054 450.245 553.987L446.041 550.385C445.957 550.313 445.895 550.217 445.865 550.11C445.835 550.003 445.837 549.889 445.871 549.784C445.906 549.678 445.971 549.585 446.058 549.516C446.145 549.447 446.251 549.406 446.362 549.397L451.88 548.955C451.983 548.947 452.082 548.91 452.166 548.849C452.25 548.788 452.315 548.706 452.355 548.61L454.48 543.499Z" stroke="#005DA4" stroke-width="1.5" stroke-linecap="round" stroke-linejoin="round"/>
<path d="M331.202 582.704H326.21V584.912C326.423 584.677 326.722 584.485 327.106 584.336C327.49 584.187 327.906 584.112 328.354 584.112C329.154 584.112 329.815 584.293 330.338 584.656C330.871 585.019 331.26 585.488 331.506 586.064C331.751 586.64 331.874 587.264 331.874 587.936C331.874 589.184 331.522 590.176 330.818 590.912C330.114 591.637 329.122 592 327.842 592C326.988 592 326.247 591.856 325.618 591.568C324.988 591.269 324.503 590.859 324.162 590.336C323.82 589.813 323.634 589.211 323.602 588.528H326.274C326.338 588.859 326.492 589.136 326.738 589.36C326.983 589.573 327.319 589.68 327.746 589.68C328.247 589.68 328.62 589.52 328.866 589.2C329.111 588.88 329.234 588.453 329.234 587.92C329.234 587.397 329.106 586.997 328.85 586.72C328.594 586.443 328.22 586.304 327.73 586.304C327.367 586.304 327.068 586.395 326.834 586.576C326.599 586.747 326.444 586.976 326.37 587.264H323.73V580.304H331.202V582.704ZM341.111 592.112C340.289 592.112 339.553 591.979 338.903 591.712C338.252 591.445 337.729 591.051 337.335 590.528C336.951 590.005 336.748 589.376 336.727 588.64H339.639C339.681 589.056 339.825 589.376 340.071 589.6C340.316 589.813 340.636 589.92 341.031 589.92C341.436 589.92 341.756 589.829 341.991 589.648C342.225 589.456 342.343 589.195 342.343 588.864C342.343 588.587 342.247 588.357 342.055 588.176C341.873 587.995 341.644 587.845 341.367 587.728C341.1 587.611 340.716 587.477 340.215 587.328C339.489 587.104 338.897 586.88 338.439 586.656C337.98 586.432 337.585 586.101 337.255 585.664C336.924 585.227 336.759 584.656 336.759 583.952C336.759 582.907 337.137 582.091 337.895 581.504C338.652 580.907 339.639 580.608 340.855 580.608C342.092 580.608 343.089 580.907 343.847 581.504C344.604 582.091 345.009 582.912 345.063 583.968H342.103C342.081 583.605 341.948 583.323 341.703 583.12C341.457 582.907 341.143 582.8 340.759 582.8C340.428 582.8 340.161 582.891 339.959 583.072C339.756 583.243 339.655 583.493 339.655 583.824C339.655 584.187 339.825 584.469 340.167 584.672C340.508 584.875 341.041 585.093 341.767 585.328C342.492 585.573 343.079 585.808 343.527 586.032C343.985 586.256 344.38 586.581 344.711 587.008C345.041 587.435 345.207 587.984 345.207 588.656C345.207 589.296 345.041 589.877 344.711 590.4C344.391 590.923 343.921 591.339 343.303 591.648C342.684 591.957 341.953 592.112 341.111 592.112ZM351.866 589.68V592H350.474C349.482 592 348.709 591.76 348.154 591.28C347.6 590.789 347.322 589.995 347.322 588.896V585.344H346.234V583.072H347.322V580.896H350.058V583.072H351.85V585.344H350.058V588.928C350.058 589.195 350.122 589.387 350.25 589.504C350.378 589.621 350.592 589.68 350.89 589.68H351.866ZM352.846 587.52C352.846 586.603 353.017 585.797 353.358 585.104C353.71 584.411 354.185 583.877 354.782 583.504C355.38 583.131 356.046 582.944 356.782 582.944C357.412 582.944 357.961 583.072 358.43 583.328C358.91 583.584 359.278 583.92 359.534 584.336V583.072H362.27V592H359.534V590.736C359.268 591.152 358.894 591.488 358.414 591.744C357.945 592 357.396 592.128 356.766 592.128C356.041 592.128 355.38 591.941 354.782 591.568C354.185 591.184 353.71 590.645 353.358 589.952C353.017 589.248 352.846 588.437 352.846 587.52ZM359.534 587.536C359.534 586.853 359.342 586.315 358.958 585.92C358.585 585.525 358.126 585.328 357.582 585.328C357.038 585.328 356.574 585.525 356.19 585.92C355.817 586.304 355.63 586.837 355.63 587.52C355.63 588.203 355.817 588.747 356.19 589.152C356.574 589.547 357.038 589.744 357.582 589.744C358.126 589.744 358.585 589.547 358.958 589.152C359.342 588.757 359.534 588.219 359.534 587.536ZM366.986 584.56C367.306 584.069 367.706 583.685 368.186 583.408C368.666 583.12 369.199 582.976 369.786 582.976V585.872H369.034C368.351 585.872 367.839 586.021 367.498 586.32C367.156 586.608 366.986 587.12 366.986 587.856V592H364.25V583.072H366.986V584.56ZM380.212 592L377.876 587.76H377.22V592H374.484V580.768H379.076C379.962 580.768 380.714 580.923 381.332 581.232C381.962 581.541 382.431 581.968 382.74 582.512C383.05 583.045 383.204 583.643 383.204 584.304C383.204 585.051 382.991 585.717 382.564 586.304C382.148 586.891 381.53 587.307 380.708 587.552L383.3 592H380.212ZM377.22 585.824H378.916C379.418 585.824 379.791 585.701 380.036 585.456C380.292 585.211 380.42 584.864 380.42 584.416C380.42 583.989 380.292 583.653 380.036 583.408C379.791 583.163 379.418 583.04 378.916 583.04H377.22V585.824ZM384.378 587.52C384.378 586.603 384.548 585.797 384.89 585.104C385.242 584.411 385.716 583.877 386.314 583.504C386.911 583.131 387.578 582.944 388.314 582.944C388.943 582.944 389.492 583.072 389.962 583.328C390.442 583.584 390.81 583.92 391.066 584.336V583.072H393.802V592H391.066V590.736C390.799 591.152 390.426 591.488 389.946 591.744C389.476 592 388.927 592.128 388.298 592.128C387.572 592.128 386.911 591.941 386.314 591.568C385.716 591.184 385.242 590.645 384.89 589.952C384.548 589.248 384.378 588.437 384.378 587.52ZM391.066 587.536C391.066 586.853 390.874 586.315 390.49 585.92C390.116 585.525 389.658 585.328 389.114 585.328C388.57 585.328 388.106 585.525 387.722 585.92C387.348 586.304 387.162 586.837 387.162 587.52C387.162 588.203 387.348 588.747 387.722 589.152C388.106 589.547 388.57 589.744 389.114 589.744C389.658 589.744 390.116 589.547 390.49 589.152C390.874 588.757 391.066 588.219 391.066 587.536ZM400.757 589.68V592H399.365C398.373 592 397.6 591.76 397.045 591.28C396.49 590.789 396.213 589.995 396.213 588.896V585.344H395.125V583.072H396.213V580.896H398.949V583.072H400.741V585.344H398.949V588.928C398.949 589.195 399.013 589.387 399.141 589.504C399.269 589.621 399.482 589.68 399.781 589.68H400.757ZM403.657 582.144C403.177 582.144 402.782 582.005 402.473 581.728C402.174 581.44 402.025 581.088 402.025 580.672C402.025 580.245 402.174 579.893 402.473 579.616C402.782 579.328 403.177 579.184 403.657 579.184C404.126 579.184 404.51 579.328 404.809 579.616C405.118 579.893 405.273 580.245 405.273 580.672C405.273 581.088 405.118 581.44 404.809 581.728C404.51 582.005 404.126 582.144 403.657 582.144ZM405.017 583.072V592H402.281V583.072H405.017ZM412.44 582.976C413.485 582.976 414.317 583.317 414.936 584C415.565 584.672 415.88 585.6 415.88 586.784V592H413.16V587.152C413.16 586.555 413.005 586.091 412.696 585.76C412.386 585.429 411.97 585.264 411.448 585.264C410.925 585.264 410.509 585.429 410.2 585.76C409.89 586.091 409.736 586.555 409.736 587.152V592H407V583.072H409.736V584.256C410.013 583.861 410.386 583.552 410.856 583.328C411.325 583.093 411.853 582.976 412.44 582.976ZM421.173 582.944C421.802 582.944 422.352 583.072 422.821 583.328C423.301 583.584 423.669 583.92 423.925 584.336V583.072H426.661V591.984C426.661 592.805 426.496 593.547 426.165 594.208C425.845 594.88 425.349 595.413 424.677 595.808C424.016 596.203 423.189 596.4 422.197 596.4C420.874 596.4 419.802 596.085 418.981 595.456C418.16 594.837 417.69 593.995 417.573 592.928H420.277C420.362 593.269 420.565 593.536 420.885 593.728C421.205 593.931 421.6 594.032 422.069 594.032C422.634 594.032 423.082 593.867 423.413 593.536C423.754 593.216 423.925 592.699 423.925 591.984V590.72C423.658 591.136 423.29 591.477 422.821 591.744C422.352 592 421.802 592.128 421.173 592.128C420.437 592.128 419.77 591.941 419.173 591.568C418.576 591.184 418.101 590.645 417.749 589.952C417.408 589.248 417.237 588.437 417.237 587.52C417.237 586.603 417.408 585.797 417.749 585.104C418.101 584.411 418.576 583.877 419.173 583.504C419.77 583.131 420.437 582.944 421.173 582.944ZM423.925 587.536C423.925 586.853 423.733 586.315 423.349 585.92C422.976 585.525 422.517 585.328 421.973 585.328C421.429 585.328 420.965 585.525 420.581 585.92C420.208 586.304 420.021 586.837 420.021 587.52C420.021 588.203 420.208 588.747 420.581 589.152C420.965 589.547 421.429 589.744 421.973 589.744C422.517 589.744 422.976 589.547 423.349 589.152C423.733 588.757 423.925 588.219 423.925 587.536ZM432.272 592.128C431.494 592.128 430.8 591.995 430.192 591.728C429.584 591.461 429.104 591.099 428.752 590.64C428.4 590.171 428.203 589.648 428.16 589.072H430.864C430.896 589.381 431.04 589.632 431.296 589.824C431.552 590.016 431.867 590.112 432.24 590.112C432.582 590.112 432.843 590.048 433.024 589.92C433.216 589.781 433.312 589.605 433.312 589.392C433.312 589.136 433.179 588.949 432.912 588.832C432.646 588.704 432.214 588.565 431.616 588.416C430.976 588.267 430.443 588.112 430.016 587.952C429.59 587.781 429.222 587.52 428.912 587.168C428.603 586.805 428.448 586.32 428.448 585.712C428.448 585.2 428.587 584.736 428.864 584.32C429.152 583.893 429.568 583.557 430.112 583.312C430.667 583.067 431.323 582.944 432.08 582.944C433.2 582.944 434.08 583.221 434.72 583.776C435.371 584.331 435.744 585.067 435.84 585.984H433.312C433.27 585.675 433.131 585.429 432.896 585.248C432.672 585.067 432.374 584.976 432 584.976C431.68 584.976 431.435 585.04 431.264 585.168C431.094 585.285 431.008 585.451 431.008 585.664C431.008 585.92 431.142 586.112 431.408 586.24C431.686 586.368 432.112 586.496 432.688 586.624C433.35 586.795 433.888 586.965 434.304 587.136C434.72 587.296 435.083 587.563 435.392 587.936C435.712 588.299 435.878 588.789 435.888 589.408C435.888 589.931 435.739 590.4 435.44 590.816C435.152 591.221 434.731 591.541 434.176 591.776C433.632 592.011 432.998 592.128 432.272 592.128ZM440.393 582.864V580.32H444.825V592H441.977V582.864H440.393ZM452.473 583.472C452.387 583.077 452.238 582.784 452.025 582.592C451.811 582.389 451.507 582.288 451.113 582.288C450.505 582.288 450.067 582.555 449.801 583.088C449.534 583.611 449.395 584.443 449.385 585.584C449.619 585.211 449.955 584.917 450.393 584.704C450.841 584.491 451.331 584.384 451.865 584.384C452.91 584.384 453.747 584.715 454.377 585.376C455.017 586.037 455.337 586.96 455.337 588.144C455.337 588.923 455.177 589.605 454.857 590.192C454.547 590.779 454.089 591.237 453.481 591.568C452.883 591.899 452.174 592.064 451.353 592.064C449.71 592.064 448.569 591.552 447.929 590.528C447.289 589.493 446.969 588.011 446.969 586.08C446.969 584.053 447.305 582.549 447.977 581.568C448.659 580.576 449.747 580.08 451.241 580.08C452.041 580.08 452.713 580.24 453.257 580.56C453.811 580.869 454.227 581.28 454.505 581.792C454.793 582.304 454.963 582.864 455.017 583.472H452.473ZM451.209 586.544C450.75 586.544 450.366 586.683 450.057 586.96C449.758 587.227 449.609 587.611 449.609 588.112C449.609 588.624 449.747 589.024 450.025 589.312C450.313 589.6 450.718 589.744 451.241 589.744C451.71 589.744 452.078 589.605 452.345 589.328C452.622 589.04 452.761 588.651 452.761 588.16C452.761 587.659 452.627 587.264 452.361 586.976C452.094 586.688 451.71 586.544 451.209 586.544ZM456.788 589.808C457.151 589.52 457.316 589.387 457.284 589.408C458.329 588.544 459.151 587.835 459.748 587.28C460.356 586.725 460.868 586.144 461.284 585.536C461.7 584.928 461.908 584.336 461.908 583.76C461.908 583.323 461.807 582.981 461.604 582.736C461.401 582.491 461.097 582.368 460.692 582.368C460.287 582.368 459.967 582.523 459.732 582.832C459.508 583.131 459.396 583.557 459.396 584.112H456.756C456.777 583.205 456.969 582.448 457.332 581.84C457.705 581.232 458.191 580.784 458.788 580.496C459.396 580.208 460.068 580.064 460.804 580.064C462.073 580.064 463.028 580.389 463.668 581.04C464.319 581.691 464.644 582.539 464.644 583.584C464.644 584.725 464.255 585.787 463.476 586.768C462.697 587.739 461.705 588.688 460.5 589.616H464.82V591.84H456.788V589.808ZM466.025 586C466.025 584.165 466.377 582.72 467.081 581.664C467.795 580.608 468.942 580.08 470.521 580.08C472.099 580.08 473.241 580.608 473.945 581.664C474.659 582.72 475.017 584.165 475.017 586C475.017 587.856 474.659 589.312 473.945 590.368C473.241 591.424 472.099 591.952 470.521 591.952C468.942 591.952 467.795 591.424 467.081 590.368C466.377 589.312 466.025 587.856 466.025 586ZM472.329 586C472.329 584.923 472.211 584.096 471.977 583.52C471.742 582.933 471.257 582.64 470.521 582.64C469.785 582.64 469.299 582.933 469.065 583.52C468.83 584.096 468.713 584.923 468.713 586C468.713 586.725 468.755 587.328 468.841 587.808C468.926 588.277 469.097 588.661 469.353 588.96C469.619 589.248 470.009 589.392 470.521 589.392C471.033 589.392 471.417 589.248 471.673 588.96C471.939 588.661 472.115 588.277 472.201 587.808C472.286 587.328 472.329 586.725 472.329 586Z" fill="#0A0A0A"/>
<rect width="60" height="60" transform="translate(74 529)" fill="white"/>
<path d="M109.045 547.411C109.313 546.411 108.719 545.383 107.719 545.115C106.719 544.847 105.691 545.44 105.423 546.441L98.9521 570.589C98.684 571.589 99.2775 572.617 100.278 572.885C101.278 573.153 102.306 572.559 102.574 571.559L109.045 547.411Z" fill="#005DA4"/>
<path d="M114.076 550.174C113.343 549.442 112.156 549.442 111.424 550.174C110.692 550.906 110.692 552.094 111.424 552.826L111.853 553.255C113.557 554.959 114.699 556.106 115.438 557.075C116.144 558 116.304 558.539 116.304 559C116.304 559.461 116.144 559.999 115.438 560.925C114.699 561.893 113.557 563.041 111.853 564.745L111.424 565.174C110.692 565.906 110.692 567.093 111.424 567.826C112.156 568.558 113.343 568.558 114.076 567.826L114.597 567.305C116.185 565.717 117.509 564.392 118.419 563.199C119.38 561.94 120.054 560.61 120.054 559C120.054 557.39 119.38 556.059 118.419 554.8C117.509 553.608 116.185 552.283 114.597 550.695L114.076 550.174Z" fill="#005DA4"/>
<path d="M93.9234 550.174C94.6557 549.442 95.8428 549.442 96.5751 550.174C97.3073 550.906 97.3073 552.094 96.5751 552.826L96.1461 553.255C94.442 554.959 93.3001 556.106 92.561 557.075C91.8549 558 91.6953 558.539 91.6953 559C91.6953 559.461 91.8549 559.999 92.561 560.925C93.3001 561.893 94.442 563.041 96.1461 564.745L96.5751 565.174C97.3073 565.906 97.3073 567.093 96.5751 567.826C95.8428 568.558 94.6557 568.558 93.9234 567.826L93.4026 567.305C91.8142 565.717 90.4897 564.392 89.5797 563.199C88.6191 561.94 87.9453 560.61 87.9453 559C87.9453 557.39 88.6191 556.059 89.5797 554.8C90.4897 553.608 91.8142 552.283 93.4025 550.695L93.9234 550.174Z" fill="#005DA4"/>
<path fill-rule="evenodd" clip-rule="evenodd" d="M103.857 532.125C98.0856 532.125 93.563 532.125 90.0343 532.599C86.4224 533.085 83.5724 534.098 81.3354 536.335C79.0983 538.572 78.085 541.422 77.5994 545.034C77.125 548.563 77.125 553.086 77.125 558.857V559.143C77.125 564.914 77.125 569.437 77.5994 572.966C78.085 576.577 79.0983 579.428 81.3354 581.665C83.5724 583.902 86.4224 584.915 90.0343 585.401C93.563 585.875 98.0856 585.875 103.857 585.875H104.143C109.914 585.875 114.437 585.875 117.966 585.401C121.577 584.915 124.428 583.902 126.665 581.665C128.902 579.428 129.915 576.577 130.401 572.966C130.875 569.437 130.875 564.914 130.875 559.143V558.857C130.875 553.086 130.875 548.563 130.401 545.034C129.915 541.422 128.902 538.572 126.665 536.335C124.428 534.098 121.577 533.085 117.966 532.599C114.437 532.125 109.914 532.125 104.143 532.125H103.857ZM83.987 538.987C85.4111 537.563 87.3379 536.746 90.534 536.316C93.7839 535.879 98.0544 535.875 104 535.875C109.946 535.875 114.216 535.879 117.466 536.316C120.662 536.746 122.589 537.563 124.013 538.987C125.437 540.411 126.255 542.338 126.684 545.534C127.121 548.784 127.125 553.054 127.125 559C127.125 564.946 127.121 569.216 126.684 572.466C126.255 575.662 125.437 577.589 124.013 579.013C122.589 580.437 120.662 581.255 117.466 581.684C114.216 582.121 109.946 582.125 104 582.125C98.0544 582.125 93.7839 582.121 90.534 581.684C87.3379 581.255 85.4111 580.437 83.987 579.013C82.5629 577.589 81.7456 575.662 81.3159 572.466C80.879 569.216 80.875 564.946 80.875 559C80.875 553.054 80.879 548.784 81.3159 545.534C81.7456 542.338 82.5629 540.411 83.987 538.987Z" fill="#005DA4"/>
<path d="M264.086 304H236.43V193.727C236.43 190.055 236.469 186.383 236.547 182.711C236.625 179.039 236.703 175.445 236.781 171.93C236.938 168.414 237.133 165.055 237.367 161.852C235.727 163.648 233.695 165.602 231.273 167.711C228.93 169.82 226.43 172.008 223.773 174.273L204.086 189.977L190.258 172.516L241.117 132.672H264.086V304Z" fill="#005DA4"/>
<circle cx="322.212" cy="230.472" r="72.6578" fill="white" stroke="#005DA4" stroke-width="8"/>
<path fill-rule="evenodd" clip-rule="evenodd" d="M330.169 311.85C357.82 310.814 384.2 295.532 398.193 269.373C419.157 230.181 404.381 181.414 365.189 160.45C353.59 154.245 341.152 151.171 328.844 150.934C339.856 151.701 350.887 154.753 361.25 160.296C400.547 181.317 415.363 230.214 394.342 269.511C380.993 294.466 356.403 309.548 330.169 311.85Z" fill="#005DA4"/>
<path d="M303.304 212.768L299.416 220.288V224H296.68V220.288L292.792 212.768H295.896L298.072 217.472L300.232 212.768H303.304ZM312.822 219.392C312.822 219.648 312.806 219.915 312.774 220.192H306.582C306.625 220.747 306.801 221.173 307.11 221.472C307.43 221.76 307.819 221.904 308.278 221.904C308.961 221.904 309.435 221.616 309.702 221.04H312.614C312.465 221.627 312.193 222.155 311.798 222.624C311.414 223.093 310.929 223.461 310.342 223.728C309.755 223.995 309.099 224.128 308.374 224.128C307.499 224.128 306.721 223.941 306.038 223.568C305.355 223.195 304.822 222.661 304.438 221.968C304.054 221.275 303.862 220.464 303.862 219.536C303.862 218.608 304.049 217.797 304.422 217.104C304.806 216.411 305.339 215.877 306.022 215.504C306.705 215.131 307.489 214.944 308.374 214.944C309.238 214.944 310.006 215.125 310.678 215.488C311.35 215.851 311.873 216.368 312.246 217.04C312.63 217.712 312.822 218.496 312.822 219.392ZM310.022 218.672C310.022 218.203 309.862 217.829 309.542 217.552C309.222 217.275 308.822 217.136 308.342 217.136C307.883 217.136 307.494 217.269 307.174 217.536C306.865 217.803 306.673 218.181 306.598 218.672H310.022ZM313.721 219.52C313.721 218.603 313.892 217.797 314.233 217.104C314.585 216.411 315.06 215.877 315.657 215.504C316.255 215.131 316.921 214.944 317.657 214.944C318.287 214.944 318.836 215.072 319.305 215.328C319.785 215.584 320.153 215.92 320.409 216.336V215.072H323.145V224H320.409V222.736C320.143 223.152 319.769 223.488 319.289 223.744C318.82 224 318.271 224.128 317.641 224.128C316.916 224.128 316.255 223.941 315.657 223.568C315.06 223.184 314.585 222.645 314.233 221.952C313.892 221.248 313.721 220.437 313.721 219.52ZM320.409 219.536C320.409 218.853 320.217 218.315 319.833 217.92C319.46 217.525 319.001 217.328 318.457 217.328C317.913 217.328 317.449 217.525 317.065 217.92C316.692 218.304 316.505 218.837 316.505 219.52C316.505 220.203 316.692 220.747 317.065 221.152C317.449 221.547 317.913 221.744 318.457 221.744C319.001 221.744 319.46 221.547 319.833 221.152C320.217 220.757 320.409 220.219 320.409 219.536ZM327.861 216.56C328.181 216.069 328.581 215.685 329.061 215.408C329.541 215.12 330.074 214.976 330.661 214.976V217.872H329.909C329.226 217.872 328.714 218.021 328.373 218.32C328.031 218.608 327.861 219.12 327.861 219.856V224H325.125V215.072H327.861V216.56ZM339.423 224.128C338.549 224.128 337.759 223.941 337.055 223.568C336.362 223.195 335.813 222.661 335.407 221.968C335.013 221.275 334.815 220.464 334.815 219.536C334.815 218.619 335.018 217.813 335.423 217.12C335.829 216.416 336.383 215.877 337.087 215.504C337.791 215.131 338.581 214.944 339.455 214.944C340.33 214.944 341.119 215.131 341.823 215.504C342.527 215.877 343.082 216.416 343.487 217.12C343.893 217.813 344.095 218.619 344.095 219.536C344.095 220.453 343.887 221.264 343.471 221.968C343.066 222.661 342.506 223.195 341.791 223.568C341.087 223.941 340.298 224.128 339.423 224.128ZM339.423 221.76C339.946 221.76 340.389 221.568 340.751 221.184C341.125 220.8 341.311 220.251 341.311 219.536C341.311 218.821 341.13 218.272 340.767 217.888C340.415 217.504 339.978 217.312 339.455 217.312C338.922 217.312 338.479 217.504 338.127 217.888C337.775 218.261 337.599 218.811 337.599 219.536C337.599 220.251 337.77 220.8 338.111 221.184C338.463 221.568 338.901 221.76 339.423 221.76ZM350.027 217.344H348.555V224H345.819V217.344H344.827V215.072H345.819V214.816C345.819 213.717 346.133 212.885 346.763 212.32C347.392 211.744 348.315 211.456 349.531 211.456C349.733 211.456 349.883 211.461 349.979 211.472V213.792C349.456 213.76 349.088 213.835 348.875 214.016C348.661 214.197 348.555 214.523 348.555 214.992V215.072H350.027V217.344ZM279.962 238.96V241.232H283.626V243.344H279.962V245.808H284.106V248H277.226V236.768H284.106V238.96H279.962ZM291.163 248L289.451 245.52L288.011 248H285.051L287.995 243.44L284.971 239.072H288.043L289.755 241.536L291.195 239.072H294.155L291.163 243.568L294.235 248H291.163ZM298.025 240.336C298.292 239.92 298.66 239.584 299.129 239.328C299.598 239.072 300.148 238.944 300.777 238.944C301.513 238.944 302.18 239.131 302.777 239.504C303.374 239.877 303.844 240.411 304.185 241.104C304.537 241.797 304.713 242.603 304.713 243.52C304.713 244.437 304.537 245.248 304.185 245.952C303.844 246.645 303.374 247.184 302.777 247.568C302.18 247.941 301.513 248.128 300.777 248.128C300.158 248.128 299.609 248 299.129 247.744C298.66 247.488 298.292 247.157 298.025 246.752V252.256H295.289V239.072H298.025V240.336ZM301.929 243.52C301.929 242.837 301.737 242.304 301.353 241.92C300.98 241.525 300.516 241.328 299.961 241.328C299.417 241.328 298.953 241.525 298.569 241.92C298.196 242.315 298.009 242.853 298.009 243.536C298.009 244.219 298.196 244.757 298.569 245.152C298.953 245.547 299.417 245.744 299.961 245.744C300.505 245.744 300.969 245.547 301.353 245.152C301.737 244.747 301.929 244.203 301.929 243.52ZM314.564 243.392C314.564 243.648 314.548 243.915 314.516 244.192H308.324C308.367 244.747 308.543 245.173 308.852 245.472C309.172 245.76 309.562 245.904 310.02 245.904C310.703 245.904 311.178 245.616 311.444 245.04H314.356C314.207 245.627 313.935 246.155 313.54 246.624C313.156 247.093 312.671 247.461 312.084 247.728C311.498 247.995 310.842 248.128 310.116 248.128C309.242 248.128 308.463 247.941 307.78 247.568C307.098 247.195 306.564 246.661 306.18 245.968C305.796 245.275 305.604 244.464 305.604 243.536C305.604 242.608 305.791 241.797 306.164 241.104C306.548 240.411 307.082 239.877 307.764 239.504C308.447 239.131 309.231 238.944 310.116 238.944C310.98 238.944 311.748 239.125 312.42 239.488C313.092 239.851 313.615 240.368 313.988 241.04C314.372 241.712 314.564 242.496 314.564 243.392ZM311.764 242.672C311.764 242.203 311.604 241.829 311.284 241.552C310.964 241.275 310.564 241.136 310.084 241.136C309.626 241.136 309.236 241.269 308.916 241.536C308.607 241.803 308.415 242.181 308.34 242.672H311.764ZM318.744 240.56C319.064 240.069 319.464 239.685 319.944 239.408C320.424 239.12 320.957 238.976 321.544 238.976V241.872H320.792C320.109 241.872 319.597 242.021 319.256 242.32C318.914 242.608 318.744 243.12 318.744 243.856V248H316.008V239.072H318.744V240.56ZM324.227 238.144C323.747 238.144 323.353 238.005 323.043 237.728C322.745 237.44 322.595 237.088 322.595 236.672C322.595 236.245 322.745 235.893 323.043 235.616C323.353 235.328 323.747 235.184 324.227 235.184C324.697 235.184 325.081 235.328 325.379 235.616C325.689 235.893 325.843 236.245 325.843 236.672C325.843 237.088 325.689 237.44 325.379 237.728C325.081 238.005 324.697 238.144 324.227 238.144ZM325.587 239.072V248H322.851V239.072H325.587ZM335.986 243.392C335.986 243.648 335.97 243.915 335.938 244.192H329.746C329.789 244.747 329.965 245.173 330.274 245.472C330.594 245.76 330.983 245.904 331.442 245.904C332.125 245.904 332.599 245.616 332.866 245.04H335.778C335.629 245.627 335.357 246.155 334.962 246.624C334.578 247.093 334.093 247.461 333.506 247.728C332.919 247.995 332.263 248.128 331.538 248.128C330.663 248.128 329.885 247.941 329.202 247.568C328.519 247.195 327.986 246.661 327.602 245.968C327.218 245.275 327.026 244.464 327.026 243.536C327.026 242.608 327.213 241.797 327.586 241.104C327.97 240.411 328.503 239.877 329.186 239.504C329.869 239.131 330.653 238.944 331.538 238.944C332.402 238.944 333.17 239.125 333.842 239.488C334.514 239.851 335.037 240.368 335.41 241.04C335.794 241.712 335.986 242.496 335.986 243.392ZM333.186 242.672C333.186 242.203 333.026 241.829 332.706 241.552C332.386 241.275 331.986 241.136 331.506 241.136C331.047 241.136 330.658 241.269 330.338 241.536C330.029 241.803 329.837 242.181 329.762 242.672H333.186ZM342.87 238.976C343.915 238.976 344.747 239.317 345.366 240C345.995 240.672 346.31 241.6 346.31 242.784V248H343.59V243.152C343.59 242.555 343.435 242.091 343.126 241.76C342.816 241.429 342.4 241.264 341.878 241.264C341.355 241.264 340.939 241.429 340.63 241.76C340.32 242.091 340.166 242.555 340.166 243.152V248H337.43V239.072H340.166V240.256C340.443 239.861 340.816 239.552 341.286 239.328C341.755 239.093 342.283 238.976 342.87 238.976ZM347.667 243.536C347.667 242.608 347.853 241.797 348.227 241.104C348.611 240.411 349.139 239.877 349.811 239.504C350.493 239.131 351.272 238.944 352.147 238.944C353.267 238.944 354.2 239.237 354.947 239.824C355.704 240.411 356.2 241.237 356.435 242.304H353.523C353.277 241.621 352.803 241.28 352.099 241.28C351.597 241.28 351.197 241.477 350.899 241.872C350.6 242.256 350.451 242.811 350.451 243.536C350.451 244.261 350.6 244.821 350.899 245.216C351.197 245.6 351.597 245.792 352.099 245.792C352.803 245.792 353.277 245.451 353.523 244.768H356.435C356.2 245.813 355.704 246.635 354.947 247.232C354.189 247.829 353.256 248.128 352.147 248.128C351.272 248.128 350.493 247.941 349.811 247.568C349.139 247.195 348.611 246.661 348.227 245.968C347.853 245.275 347.667 244.464 347.667 243.536ZM366.314 243.392C366.314 243.648 366.298 243.915 366.266 244.192H360.074C360.117 244.747 360.293 245.173 360.602 245.472C360.922 245.76 361.312 245.904 361.77 245.904C362.453 245.904 362.928 245.616 363.194 245.04H366.106C365.957 245.627 365.685 246.155 365.29 246.624C364.906 247.093 364.421 247.461 363.834 247.728C363.248 247.995 362.592 248.128 361.866 248.128C360.992 248.128 360.213 247.941 359.53 247.568C358.848 247.195 358.314 246.661 357.93 245.968C357.546 245.275 357.354 244.464 357.354 243.536C357.354 242.608 357.541 241.797 357.914 241.104C358.298 240.411 358.832 239.877 359.514 239.504C360.197 239.131 360.981 238.944 361.866 238.944C362.73 238.944 363.498 239.125 364.17 239.488C364.842 239.851 365.365 240.368 365.738 241.04C366.122 241.712 366.314 242.496 366.314 243.392ZM363.514 242.672C363.514 242.203 363.354 241.829 363.034 241.552C362.714 241.275 362.314 241.136 361.834 241.136C361.376 241.136 360.986 241.269 360.666 241.536C360.357 241.803 360.165 242.181 360.09 242.672H363.514Z" fill="#0A0A0A"/>
<defs>
<filter id="filter0_d_438_12527" x="0" y="305" width="177" height="114" filterUnits="userSpaceOnUse" color-interpolation-filters="sRGB">
<feFlood flood-opacity="0" result="BackgroundImageFix"/>
<feColorMatrix in="SourceAlpha" type="matrix" values="0 0 0 0 0 0 0 0 0 0 0 0 0 0 0 0 0 0 127 0" result="hardAlpha"/>
<feOffset dx="5" dy="4"/>
<feComposite in2="hardAlpha" operator="out"/>
<feColorMatrix type="matrix" values="0 0 0 0 0 0 0 0 0 0 0 0 0 0 0 0 0 0 1 0"/>
<feBlend mode="normal" in2="BackgroundImageFix" result="effect1_dropShadow_438_12527"/>
<feBlend mode="normal" in="SourceGraphic" in2="effect1_dropShadow_438_12527" result="shape"/>
</filter>
<filter id="filter1_d_438_12527" x="282" y="520" width="238" height="102" filterUnits="userSpaceOnUse" color-interpolation-filters="sRGB">
<feFlood flood-opacity="0" result="BackgroundImageFix"/>
<feColorMatrix in="SourceAlpha" type="matrix" values="0 0 0 0 0 0 0 0 0 0 0 0 0 0 0 0 0 0 127 0" result="hardAlpha"/>
<feOffset dx="4" dy="4"/>
<feComposite in2="hardAlpha" operator="out"/>
<feColorMatrix type="matrix" values="0 0 0 0 0 0 0 0 0 0 0 0 0 0 0 0 0 0 1 0"/>
<feBlend mode="normal" in2="BackgroundImageFix" result="effect1_dropShadow_438_12527"/>
<feBlend mode="normal" in="SourceGraphic" in2="effect1_dropShadow_438_12527" result="shape"/>
</filter>
<clipPath id="clip0_438_12527">
<rect width="67" height="67" fill="white" transform="matrix(-0.908838 0.417149 0.417149 0.908838 488.893 366)"/>
</clipPath>
</defs>
</svg>
