<svg width="247" height="263" viewBox="0 0 247 263" fill="none" xmlns="http://www.w3.org/2000/svg">
<g clip-path="url(#clip0_846_9522)">
<path d="M204.583 62.0963C204.34 61.0896 203.328 60.4698 202.321 60.7121C201.314 60.9544 200.694 61.967 200.937 62.9738L206.786 87.2798C207.029 88.2866 208.041 88.9063 209.048 88.6642C210.055 88.4219 210.675 87.4091 210.432 86.4023L204.583 62.0963Z" fill="#005DA4" fill-opacity="0.7"/>
<path d="M210.322 62.1208C209.329 61.8273 208.286 62.3942 207.993 63.3873C207.699 64.3803 208.266 65.4233 209.259 65.7169L209.841 65.8889C212.152 66.5722 213.704 67.0348 214.816 67.5329C215.878 68.0086 216.276 68.4056 216.496 68.8104C216.716 69.2152 216.833 69.7648 216.654 70.9149C216.468 72.119 216.013 73.6726 215.329 75.9839L215.158 76.5656C214.864 77.5587 215.431 78.6015 216.424 78.8951C217.417 79.1887 218.46 78.6217 218.754 77.6286L218.963 76.9222C219.599 74.7683 220.13 72.972 220.36 71.4894C220.603 69.9244 220.559 68.4339 219.79 67.0192C219.021 65.6045 217.794 64.7577 216.348 64.1105C214.979 63.4972 213.183 62.9663 211.029 62.3295L210.322 62.1208Z" fill="#005DA4" fill-opacity="0.7"/>
<path d="M192.617 71.7465C192.911 70.7534 193.954 70.1864 194.947 70.4799C195.94 70.7735 196.507 71.8165 196.214 72.8095L196.042 73.3912C195.358 75.7025 194.903 77.2561 194.717 78.4602C194.538 79.6103 194.655 80.1599 194.876 80.5647C195.096 80.9695 195.493 81.3666 196.555 81.8422C197.667 82.3402 199.219 82.8029 201.53 83.4862L202.112 83.6583C203.105 83.9518 203.672 84.9947 203.378 85.9877C203.085 86.9808 202.042 87.5479 201.049 87.2543L200.342 87.0456C198.188 86.4089 196.392 85.8779 195.023 85.2647C193.577 84.6174 192.35 83.7705 191.581 82.3559C190.812 80.9412 190.768 79.4507 191.011 77.8857C191.241 76.4031 191.772 74.6069 192.409 72.4529L192.617 71.7465Z" fill="#005DA4" fill-opacity="0.7"/>
<path fill-rule="evenodd" clip-rule="evenodd" d="M192.723 51.1448C187.653 53.9013 183.68 56.0615 180.806 58.1638C177.865 60.3156 175.845 62.5672 174.948 65.601C174.051 68.6349 174.522 71.6228 175.821 75.028C177.09 78.3547 179.25 82.328 182.006 87.3981L182.143 87.6502C184.9 92.7204 187.06 96.6936 189.162 99.5672C191.314 102.508 193.566 104.528 196.6 105.425C199.633 106.322 202.621 105.851 206.027 104.552C209.353 103.284 213.327 101.123 218.397 98.367L218.649 98.2299C223.719 95.4734 227.692 93.3132 230.566 91.2111C233.507 89.0592 235.527 86.8076 236.424 83.7737C237.321 80.7399 236.849 77.7519 235.551 74.3467C234.282 71.02 232.122 67.0468 229.366 61.9767L229.228 61.7245C226.472 56.6545 224.312 52.6811 222.21 49.8075C220.058 46.8663 217.806 44.8464 214.772 43.9495C211.738 43.0527 208.75 43.5238 205.345 44.8224C202.019 46.091 198.045 48.2512 192.975 51.0078L192.723 51.1448ZM178.544 66.6641C179.115 64.7327 180.418 63.0944 183.02 61.1903C185.667 59.2541 189.417 57.2107 194.64 54.3709C199.864 51.531 203.617 49.4947 206.681 48.3262C209.695 47.1772 211.778 46.9749 213.709 47.5458C215.641 48.1166 217.279 49.4191 219.183 52.0218C221.119 54.6683 223.163 58.4183 226.002 63.6418C228.842 68.8652 230.879 72.619 232.047 75.683C233.196 78.696 233.398 80.7791 232.828 82.7106C232.257 84.6422 230.954 86.2805 228.351 88.1844C225.705 90.1207 221.955 92.164 216.731 95.0039C211.508 97.8437 207.754 99.8801 204.69 101.048C201.677 102.198 199.594 102.4 197.663 101.829C195.731 101.258 194.093 99.9555 192.189 97.3529C190.253 94.7064 188.209 90.9564 185.369 85.733C182.53 80.5095 180.493 76.7557 179.325 73.6918C178.176 70.6786 177.973 68.5955 178.544 66.6641Z" fill="#005DA4" fill-opacity="0.7"/>
</g>
<g clip-path="url(#clip1_846_9522)">
<path d="M111.721 16.3976C112.145 17.4132 112.421 18.4686 112.759 19.5127C114.014 23.2479 115.351 26.9746 116.498 30.7553C117.641 34.556 118.267 38.4249 118.105 42.4049C117.977 45.4346 117.303 48.3051 115.613 50.8882C113.616 53.9151 110.709 55.6335 107.284 56.5666C104.874 57.2182 102.405 57.4344 99.9386 57.3463C92.5392 57.0819 85.6518 54.9399 79.0375 51.7396C74.8556 49.7199 71.2526 47.9909 67.5784 44.0474C67.3768 43.8311 67.0692 43.487 67.0692 43.487L67.4418 43.5809C67.4418 43.5809 78.3803 49.0854 84.2208 51.0169C88.3543 52.3795 92.5533 53.4263 96.8888 53.8017C100.2 54.0918 103.503 54.0149 106.692 52.8855C110.757 51.4544 113.298 48.6067 114.416 44.4788C115.354 41.0366 115.221 37.563 114.743 34.081C114.33 30.9944 113.67 27.9333 112.734 24.9548C111.974 22.5908 111.752 20.1613 111.721 17.6778C111.698 17.2681 111.721 16.8243 111.721 16.3976Z" fill="#020202"/>
<path d="M127.111 20.4656C126.079 20.7245 125.134 20.6505 124.21 20.4372C121.416 19.7943 118.947 18.4459 116.54 16.9439C114.002 15.3622 111.613 13.5985 109.377 11.6129C109.285 11.5389 109.214 11.4678 109.086 11.3682C108.953 11.8774 108.842 12.3696 108.674 12.8333C108.125 14.5431 107.129 15.9655 105.986 17.2855C104.939 18.4974 103.872 19.7065 102.782 20.9327C102.726 20.6197 102.899 20.4007 102.993 20.1702C103.707 18.3012 104.498 16.4634 105.155 14.5659C105.641 13.152 105.69 11.6755 105.798 10.2076C105.872 9.26311 105.926 8.31578 106 7.3713C106.014 7.12949 106.068 6.89337 106.162 6.66293C106.398 6.00577 106.844 5.72412 107.541 5.82368C108.258 5.92608 108.881 6.25891 109.479 6.62872C111.342 7.80928 112.938 9.29709 114.509 10.8219C118.147 14.3693 122.059 17.5696 126.517 20.0758C126.682 20.201 126.85 20.3063 127.111 20.4656Z" fill="#020202"/>
</g>
<g clip-path="url(#clip2_846_9522)">
<path d="M21.5529 45.2327C22.3808 44.5077 23.2936 43.9103 24.1756 43.2571C27.3175 40.8792 30.4251 38.4258 33.6446 36.1359C36.8838 33.8423 40.3525 32.0178 44.1771 30.9052C47.0901 30.0625 50.0259 29.7883 53.0125 30.5683C56.5175 31.4984 59.0716 33.7079 61.0461 36.6582C62.4304 38.7352 63.4211 41.0073 64.1224 43.3737C66.2261 50.4726 66.3868 57.6836 65.4574 64.9724C64.8732 69.5797 63.7544 74.0603 61.8111 78.2835C61.709 78.5068 61.6303 78.7463 61.4418 78.9446C61.3138 78.8045 61.3945 78.6874 61.4122 78.5614C62.5548 72.5424 63.1502 66.44 63.123 60.2885C63.0996 55.9362 62.7559 51.6224 61.7324 47.3927C60.9538 44.1611 59.83 41.0544 57.7445 38.3905C55.0944 34.9919 51.5864 33.4896 47.3173 33.7432C43.7553 33.9485 40.5048 35.1806 37.3558 36.7417C34.5609 38.1149 31.869 39.7146 29.3431 41.5497C27.3436 43.022 25.111 44.0055 22.7665 44.8254C22.3854 44.9773 21.9574 45.097 21.5529 45.2327Z" fill="#020202"/>
<path d="M20.5124 29.3476C21.0865 30.2443 21.3169 31.1632 21.4088 32.1076C21.6882 34.9606 21.1956 37.7306 20.5374 40.4902C19.8454 43.3992 18.9337 46.2259 17.7627 48.9776C17.7216 49.0874 17.6768 49.1775 17.6231 49.3305C18.1484 49.2952 18.6503 49.2438 19.1433 49.2554C20.9389 49.2318 22.6042 49.7232 24.2195 50.3873C25.7015 50.9942 27.1872 51.6208 28.6963 52.2636C28.4177 52.4171 28.1548 52.3223 27.9065 52.3066C25.9074 52.2244 23.9135 52.0594 21.9055 52.0402C20.4103 52.0289 18.9952 52.4529 17.5692 52.8175C16.6503 53.0479 15.735 53.2981 14.816 53.5285C14.5823 53.592 14.3412 53.6159 14.0929 53.6002C13.3948 53.5855 12.9857 53.2517 12.8583 52.5592C12.7272 51.847 12.8445 51.1505 13.005 50.4664C13.5314 48.3243 14.434 46.3378 15.3799 44.3639C17.5852 39.7857 19.3746 35.059 20.3321 30.0353C20.3983 29.8391 20.4447 29.6465 20.5124 29.3476Z" fill="#020202"/>
</g>
<path d="M175.8 245.779L178.7 256.779L210.9 256.479C210.9 256.479 206.5 253.179 190.3 253.379L188.7 245.779H175.8Z" fill="#FFBE9D"/>
<path d="M140.7 121.479L116.6 123.779L106.8 126.579C102.6 127.779 98.8001 129.979 95.6001 132.979L64.0001 163.279L58.2001 116.179L42.4001 117.579L45.0001 178.279C47.4001 185.679 54.2001 190.879 62.2001 190.879C66.9001 190.879 71.5001 188.879 74.9001 185.679L97.4001 164.479L95.2001 192.379L87.5001 209.779L142.7 240.979C142.7 240.979 149.2 208.879 152.7 186.679C155.5 168.679 157 129.579 157 129.579L140.7 121.479Z" fill="#005DA4"/>
<path d="M155.5 128.779C155.5 128.779 167.7 133.279 170.7 142.879C173.3 151.379 182.1 199.079 182.1 199.079L190.8 249.579L172.6 250.279L151.7 164.179L155.5 128.779Z" fill="#005DA4"/>
<path d="M94.7001 191.079C94.6001 191.079 95.4001 181.379 96.5001 169.479C97.6001 157.579 98.7001 147.879 98.8001 147.979C98.9001 147.979 98.1001 157.679 97.0001 169.579C95.9001 181.479 94.9001 191.079 94.7001 191.079Z" fill="#263238"/>
<path d="M135 167.379C135 167.379 135 167.579 134.8 167.879C134.7 168.279 134.5 168.679 134.2 169.179C134 169.779 133.7 170.479 133.2 171.179C132.8 171.979 132.4 172.879 131.7 173.779C131.4 174.279 131.1 174.779 130.8 175.279C130.5 175.779 130.1 176.279 129.7 176.779C129 177.879 128.1 178.979 127.1 180.079C125.2 182.279 122.9 184.579 120.2 186.679C117.5 188.779 114.8 190.479 112.2 191.879C110.9 192.479 109.6 193.179 108.4 193.579C107.8 193.779 107.2 194.079 106.6 194.279C106 194.479 105.5 194.679 104.9 194.879C103.9 195.279 102.9 195.479 102 195.679C101.2 195.879 100.4 196.079 99.8001 196.179C99.2001 196.279 98.8001 196.379 98.4001 196.379C98.1001 196.379 97.9001 196.479 97.9001 196.379C97.9001 196.379 98.1001 196.279 98.4001 196.179C98.8001 196.079 99.2001 195.979 99.8001 195.879C100.4 195.779 101.1 195.579 102 195.279C102.8 194.979 103.8 194.779 104.8 194.379C105.3 194.179 105.9 193.979 106.4 193.779C107 193.579 107.5 193.279 108.1 193.079C109.3 192.579 110.5 191.979 111.8 191.279C114.4 189.879 117.1 188.179 119.7 186.079C122.3 183.979 124.6 181.679 126.5 179.579C127.4 178.479 128.3 177.379 129.1 176.379C129.5 175.879 129.9 175.379 130.2 174.879C130.5 174.379 130.8 173.879 131.1 173.379C131.7 172.479 132.2 171.579 132.6 170.779C133 169.979 133.4 169.379 133.6 168.779C133.9 168.279 134.1 167.879 134.2 167.479C134.9 167.479 134.9 167.279 135 167.379Z" fill="#263238"/>
<g opacity="0.2">
<path d="M101.2 195.979C99.4002 195.479 98.5002 193.279 99.0002 191.579C99.5002 189.779 100.9 188.479 102.6 187.679C104.3 186.879 106.1 186.579 107.9 186.079C115.6 184.179 122.8 180.179 128.4 174.579C128.9 174.079 129.7 173.479 130.3 173.879C131.2 174.379 130.6 175.679 130 176.479C122.2 185.479 112 192.379 100.7 196.179" fill="black"/>
</g>
<path d="M156.3 184.579C156.3 184.579 156.1 184.179 155.9 183.579C155.7 182.879 155.4 181.979 155.1 180.679C154.4 178.279 153.6 174.879 152.8 171.179C152 167.479 151.3 164.079 150.8 161.579C150.6 160.379 150.4 159.379 150.3 158.679C150.2 157.979 150.2 157.579 150.2 157.579C150.2 157.579 150.3 157.979 150.5 158.579C150.7 159.379 150.9 160.379 151.2 161.479C151.8 164.079 152.5 167.379 153.3 170.979C154.1 174.679 154.9 177.979 155.5 180.479C155.8 181.579 156 182.579 156.1 183.379C156.3 184.179 156.4 184.579 156.3 184.579Z" fill="#263238"/>
<path d="M45.2002 122.079C45.1002 122.079 44.8002 120.979 44.7002 119.679C44.6002 118.379 44.6002 117.279 44.8002 117.279C44.9002 117.279 45.2002 118.379 45.3002 119.679C45.3002 120.979 45.3002 122.079 45.2002 122.079Z" fill="#263238"/>
<path d="M49.8001 122.179C49.7001 122.179 49.5001 121.079 49.4001 119.679C49.3001 118.279 49.4001 117.079 49.5001 117.079C49.6001 117.079 49.8001 118.179 49.9001 119.579C50.0001 121.079 49.9001 122.179 49.8001 122.179Z" fill="#263238"/>
<path d="M54.4002 121.879C54.3002 121.879 54.1002 120.579 54.0002 119.079C53.9002 117.479 54.0002 116.279 54.1002 116.179C54.2002 116.179 54.4002 117.479 54.5002 118.979C54.6002 120.579 54.5002 121.879 54.4002 121.879Z" fill="#263238"/>
<path d="M63.3 170.479C63.2 170.479 63.2 168.579 63.5 166.279C63.7 163.979 64 162.179 64.2 162.179C64.3 162.179 64.3 164.079 64 166.379C63.7 168.679 63.4 170.579 63.3 170.479Z" fill="#263238"/>
<path d="M175.5 245.079C175.6 245.079 176 246.179 176.2 247.579C176.4 248.979 176.5 250.179 176.4 250.179C176.3 250.179 175.9 249.079 175.7 247.679C175.5 246.279 175.4 245.079 175.5 245.079Z" fill="#263238"/>
<path d="M181.5 245.079C181.6 245.079 181.9 246.079 182.1 247.379C182.3 248.679 182.4 249.779 182.2 249.779C182.1 249.779 181.8 248.779 181.6 247.479C181.4 246.179 181.4 245.079 181.5 245.079Z" fill="#263238"/>
<path d="M187.2 244.479C187.3 244.479 187.6 245.679 187.8 247.079C188 248.479 188.2 249.679 188.1 249.679C188 249.679 187.5 248.579 187.3 247.079C187 245.679 187 244.479 187.2 244.479Z" fill="#263238"/>
<path d="M165.3 134.679C165.3 134.779 164 134.679 162.1 135.079C160.1 135.479 157.5 136.479 155.2 138.479C152.9 140.479 151.5 142.979 150.9 144.879C150.2 146.779 150.1 148.079 150 147.979C150 147.979 150 147.679 150 147.079C150.1 146.479 150.2 145.679 150.5 144.679C151.1 142.679 152.4 140.079 154.8 137.979C157.2 135.879 160 134.879 162 134.579C163 134.379 163.8 134.379 164.4 134.379C165 134.579 165.3 134.679 165.3 134.679Z" fill="#263238"/>
<path d="M172.8 155.279C172.8 155.379 171.7 155.879 169.8 156.579C167.9 157.279 165.3 158.179 162.3 159.179C159.4 160.079 156.7 160.879 154.7 161.279C152.7 161.779 151.5 161.979 151.5 161.979C151.5 161.879 152.7 161.579 154.6 160.979C156.7 160.379 159.3 159.579 162.1 158.679C165 157.779 167.5 156.979 169.6 156.279C171.6 155.579 172.8 155.179 172.8 155.279Z" fill="#FAFAFA"/>
<path d="M180.5 190.079C180.5 190.179 179.3 190.479 177.4 190.879C175.5 191.379 172.8 191.979 169.8 192.579C166.8 193.179 164.1 193.779 162.1 194.079C160.1 194.479 158.9 194.679 158.9 194.579C158.9 194.479 160.1 194.179 162 193.779C163.9 193.279 166.6 192.679 169.6 192.079C172.6 191.479 175.3 190.879 177.3 190.579C179.2 190.179 180.5 189.979 180.5 190.079Z" fill="#FAFAFA"/>
<path d="M189.2 233.579C189.2 233.679 188.1 233.679 186.2 233.779C184.3 233.779 181.8 233.879 179 234.079C176.2 234.279 173.6 234.479 171.8 234.579C170 234.779 168.8 234.879 168.8 234.779C168.8 234.679 169.9 234.479 171.8 234.179C173.6 233.879 176.2 233.679 179 233.479C181.8 233.279 184.4 233.279 186.3 233.379C188.1 233.479 189.2 233.579 189.2 233.579Z" fill="#FAFAFA"/>
<path d="M109.1 192.679C109.1 192.779 108.3 192.379 107 191.779C105.6 191.079 103.9 190.279 102.1 189.479C100.3 188.579 98.6002 187.879 97.2002 187.179C95.9002 186.579 95.2002 186.179 95.2002 186.079C95.2002 185.979 96.0002 186.279 97.3002 186.779C98.6002 187.279 100.4 188.079 102.3 188.979C104.2 189.879 105.9 190.779 107.1 191.479C108.4 192.079 109.1 192.579 109.1 192.679Z" fill="#FAFAFA"/>
<path d="M149.3 199.479C149.3 199.479 148.9 199.379 148.1 199.079C147.3 198.679 146.2 198.279 145 197.679C142.3 196.479 138.7 194.979 134.6 193.279C130.5 191.679 126.7 190.279 124 189.279C122.7 188.779 121.6 188.379 120.8 188.079C120 187.779 119.6 187.579 119.6 187.579C119.6 187.579 120 187.679 120.8 187.879C121.6 188.079 122.7 188.479 124.1 188.879C126.9 189.779 130.6 191.079 134.8 192.779C138.9 194.379 142.6 196.079 145.2 197.279C146.5 197.879 147.6 198.379 148.3 198.779C148.9 199.179 149.3 199.479 149.3 199.479Z" fill="#FAFAFA"/>
<path d="M152.4 171.079C152.4 171.079 152.2 171.079 151.8 171.079C151.4 170.979 150.8 170.979 150.2 170.879C148.7 170.679 146.8 170.279 144.3 169.979C139.4 169.179 132.5 168.079 124.9 166.979C117.3 165.879 110.5 164.979 105.5 164.279C103.1 163.979 101.1 163.679 99.6001 163.479C99.0001 163.379 98.4001 163.279 98.0001 163.279C97.6001 163.179 97.4001 163.179 97.4001 163.179C97.4001 163.179 97.6001 163.179 98.0001 163.179C98.4001 163.179 99.0001 163.279 99.6001 163.279C101 163.379 103 163.579 105.5 163.879C110.5 164.479 117.4 165.279 124.9 166.379C132.5 167.479 139.3 168.679 144.2 169.579C146.7 170.079 148.7 170.379 150 170.679C150.6 170.779 151.2 170.879 151.6 170.979C152.3 170.979 152.4 171.079 152.4 171.079Z" fill="#FAFAFA"/>
<path d="M150.2 141.079C150.2 141.179 139.4 139.679 126 137.779C112.7 135.779 101.9 134.079 101.9 133.879C101.9 133.779 112.7 135.279 126.1 137.179C139.4 139.179 150.2 140.879 150.2 141.079Z" fill="#FAFAFA"/>
<path d="M93.5001 167.279C93.4001 167.279 92.9001 166.079 92.0001 164.079C91.0001 161.879 89.8001 159.179 88.5001 156.179C87.1001 153.179 85.9001 150.479 84.9001 148.279C84.0001 146.279 83.4001 144.979 83.5001 144.979C83.5001 144.979 83.7001 145.279 84.0001 145.779C84.3001 146.279 84.7001 147.079 85.2001 148.079C86.2001 150.079 87.5001 152.779 88.9001 155.879C90.3001 158.979 91.5001 161.779 92.3001 163.879C92.7001 164.879 93.0001 165.779 93.2001 166.379C93.4001 166.979 93.5001 167.279 93.5001 167.279Z" fill="#FAFAFA"/>
<path d="M72.0002 188.379C71.9002 188.379 70.5002 182.379 68.9002 174.879C67.3002 167.379 66.2002 161.279 66.3002 161.279C66.4002 161.279 67.8002 167.279 69.4002 174.779C70.9002 182.279 72.1002 188.379 72.0002 188.379Z" fill="#FAFAFA"/>
<path d="M63.1002 155.579C63.1002 155.679 58.9002 156.779 53.7002 157.879C48.5002 158.979 44.2002 159.779 44.2002 159.679C44.2002 159.579 48.4002 158.479 53.6002 157.379C58.8002 156.179 63.0002 155.479 63.1002 155.579Z" fill="#FAFAFA"/>
<path d="M59.9001 128.179C59.9001 128.279 59.0001 128.479 57.4001 128.679C55.9001 128.979 53.7001 129.279 51.4001 129.479C49.0001 129.779 46.9 129.879 45.3 129.979C43.7 130.079 42.8 130.079 42.8 129.979C42.8 129.879 43.7 129.779 45.3 129.579C47 129.379 49.1 129.179 51.3 128.879C53.6 128.579 55.6 128.379 57.3 128.179C59 128.279 59.9001 128.179 59.9001 128.179Z" fill="#FAFAFA"/>
<path d="M68.1 80.6791C68.4 81.2791 75.9001 119.879 75.9001 119.879L58.2001 120.679L51.3 87.4791L68.1 80.6791Z" fill="#455A64"/>
<path d="M75.8 119.879L77.9 119.079L70.2 80.9791L67.8 80.7791L75.8 119.879Z" fill="#263238"/>
<path d="M60.9001 89.1791C61.0001 89.6791 60.6001 90.1791 60.1001 90.1791C59.6001 90.2791 59.1001 89.8791 59.1001 89.3791C59.0001 88.8791 59.4001 88.3791 59.9001 88.3791C60.4001 88.2791 60.9001 88.6791 60.9001 89.1791Z" fill="#263238"/>
<path d="M57.3001 116.279L57.0001 111.179L64.6001 108.079L61.7001 101.079C60.3001 97.7791 56.3001 96.4791 53.2001 98.1791C52.2001 98.6791 51.1001 99.2791 50.2001 99.7791C48.0001 100.979 46.5001 102.979 45.9001 105.379C44.9001 109.479 44.1001 118.079 44.1001 117.679" fill="#FFBE9D"/>
<path d="M37.0001 244.979C37.0001 244.979 5.90011 253.579 4.60011 254.079C2.70011 254.779 3.00011 261.579 6.00011 261.479C7.40011 261.379 29.9001 262.279 32.7001 262.179C35.5001 261.979 44.1001 258.579 44.1001 258.579L37.0001 244.979Z" fill="#005DA4"/>
<path d="M24.1001 256.779C23.9001 256.779 23.7001 255.179 22.7001 253.479C21.7001 251.779 20.4001 250.779 20.5001 250.579C20.6001 250.479 22.1001 251.379 23.2001 253.179C24.2001 255.079 24.2001 256.879 24.1001 256.779Z" fill="#263238"/>
<path d="M27.3002 255.379C27.1002 255.379 26.8002 253.979 26.0002 252.279C25.2002 250.679 24.2002 249.479 24.3002 249.379C24.4002 249.279 25.6002 250.279 26.5002 251.979C27.4002 253.779 27.4002 255.379 27.3002 255.379Z" fill="#263238"/>
<path d="M30.4 254.579C30.2 254.579 30.4 252.979 29.7 251.279C29 249.579 27.9 248.479 28 248.379C28.1 248.279 29.5 249.179 30.2 251.079C30.9 252.879 30.5 254.579 30.4 254.579Z" fill="#263238"/>
<path d="M29.8 250.479C29.7 250.479 29.5 249.579 29.5 248.179C29.5 247.479 29.6 246.579 29.8 245.679C29.9 245.179 30.1 244.679 30.3 244.279C30.4 244.079 30.5 243.779 30.8 243.479C31.1 243.179 31.6 243.279 31.9 243.579C32.2 243.779 32.3 244.179 32.3 244.479C32.3 244.779 32.3 245.079 32.3 245.279C32.3 245.779 32.2 246.279 32.1 246.779C31.9 247.779 31.5 248.479 31.1 249.179C30.4 250.479 29.7 251.079 29.7 251.079C29.6 251.079 30.2 250.279 30.8 249.079C31.1 248.479 31.4 247.679 31.6 246.779C31.7 246.379 31.7 245.879 31.7 245.379C31.7 244.879 31.7 244.279 31.4 244.079C31.3 243.979 31.1 243.979 31 244.079C30.9 244.179 30.7 244.379 30.7 244.579C30.5 245.079 30.4 245.479 30.2 245.979C30 246.879 29.8 247.679 29.8 248.379C29.7 249.579 29.9 250.479 29.8 250.479Z" fill="#263238"/>
<path d="M29.8 250.179C29.8 250.079 30.5 249.879 31.8 249.879C32.4 249.879 33.2 249.979 34 250.179C34.4 250.279 34.8 250.379 35.3 250.679C35.7 250.879 36.2 251.479 36 252.079C35.9 252.679 35.4001 253.079 34.9001 253.179C34.4001 253.279 33.9 253.279 33.5 253.179C32.6 252.979 32 252.579 31.5 252.179C30.5 251.379 30 250.779 30.1 250.779C30.2 250.679 30.7 251.179 31.8 251.879C32.3 252.179 32.9001 252.579 33.7001 252.679C34.1001 252.779 34.5001 252.779 34.9001 252.679C35.3001 252.579 35.6001 252.279 35.7001 251.979C35.8001 251.679 35.6001 251.279 35.2001 251.079C34.9001 250.879 34.5 250.779 34.1 250.679C33.3 250.479 32.6 250.379 32 250.279C30.6 250.179 29.9 250.279 29.8 250.179Z" fill="#263238"/>
<path d="M19.3001 257.179C19.1001 257.179 19.3001 255.879 18.7001 254.379C18.1001 252.879 17.1001 252.079 17.2001 251.979C17.3001 251.879 18.6001 252.579 19.2001 254.179C19.8001 255.779 19.4001 257.179 19.3001 257.179Z" fill="#263238"/>
<path d="M41.0001 258.579C41.0001 258.579 40.6001 258.779 39.8001 259.179C39.0001 259.479 37.8001 259.879 36.3001 260.279C33.3001 260.979 29.1001 261.479 24.4001 261.379C19.7001 261.279 15.5001 261.079 12.5001 260.979C11.1001 260.879 9.8001 260.879 8.9001 260.779C8.0001 260.679 7.6001 260.679 7.6001 260.679C7.6001 260.679 8.1001 260.579 8.9001 260.579C9.9001 260.579 11.1001 260.579 12.5001 260.579C15.7001 260.679 19.8001 260.679 24.4001 260.779C29.0001 260.779 33.2001 260.479 36.2001 259.779C39.2001 259.279 41.0001 258.479 41.0001 258.579Z" fill="#263238"/>
<path d="M41.9001 259.279C41.9001 259.379 41 258.879 39.6 258.179C38.2 257.579 36.0001 256.879 33.7001 257.179C31.4001 257.579 29.7 259.079 28.6 260.179C27.5 261.279 26.9 262.079 26.8 261.979C26.8 261.979 27.3 261.079 28.3 259.879C28.8 259.279 29.5 258.579 30.4 257.979C31.3 257.379 32.4 256.779 33.6 256.579C36.1 256.179 38.3001 257.079 39.7001 257.779C41.2001 258.679 42.0001 259.279 41.9001 259.279Z" fill="#263238"/>
<path d="M70.1001 236.379C70.1001 236.379 99.5001 255.679 100.6 256.479C102.2 257.679 100.4 263.379 97.6001 262.379C96.3001 261.879 71.6001 255.079 68.9001 253.979C66.2001 252.979 59.1001 247.079 59.1001 247.079L70.1001 236.379Z" fill="#005DA4"/>
<path d="M78.8001 251.579C78.7001 251.579 79.2001 249.879 80.8001 248.379C82.4001 246.979 84.1001 246.579 84.1001 246.679C84.2001 246.779 82.6001 247.379 81.1001 248.779C79.6001 250.179 78.9001 251.679 78.8001 251.579Z" fill="#263238"/>
<path d="M76.2001 249.179C76.1001 249.179 76.6001 247.679 78.0001 246.279C79.3001 244.879 80.8001 244.279 80.9001 244.379C81.0001 244.479 79.7001 245.279 78.4001 246.579C77.0001 247.979 76.3001 249.279 76.2001 249.179Z" fill="#263238"/>
<path d="M73.5002 247.479C73.4002 247.479 73.5002 245.779 74.8002 244.279C76.1002 242.679 77.7002 242.179 77.7002 242.379C77.8002 242.479 76.4002 243.179 75.2002 244.679C74.0002 246.079 73.7002 247.579 73.5002 247.479Z" fill="#263238"/>
<path d="M75.3001 243.879C75.2001 243.879 75.6001 243.079 76.0001 241.679C76.2001 240.979 76.3001 240.179 76.3001 239.279C76.3001 238.779 76.3001 238.379 76.3001 237.779C76.3001 237.579 76.2001 237.279 76.1001 237.179C76.0001 237.079 75.9001 236.979 75.7001 237.079C75.4001 237.179 75.2001 237.779 75.0001 238.279C74.9001 238.779 74.8001 239.179 74.7001 239.679C74.6001 240.579 74.7001 241.479 74.8001 242.179C75.0001 243.579 75.3001 244.379 75.2001 244.479C75.1001 244.479 74.7001 243.679 74.4001 242.279C74.3001 241.579 74.1001 240.679 74.2001 239.679C74.2001 239.179 74.3001 238.679 74.5001 238.179C74.6001 237.879 74.7001 237.679 74.8001 237.379C74.9001 237.079 75.1001 236.779 75.5001 236.679C75.8001 236.479 76.3001 236.579 76.5001 236.979C76.7001 237.279 76.7001 237.579 76.7001 237.879C76.7001 238.379 76.7001 238.879 76.7001 239.379C76.6001 240.379 76.4001 241.179 76.2001 241.879C75.8001 243.179 75.3001 243.879 75.3001 243.879Z" fill="#263238"/>
<path d="M75.3002 243.579C75.3002 243.679 74.6002 243.279 73.4002 242.979C72.8002 242.879 72.1002 242.679 71.3002 242.679C70.9002 242.679 70.5002 242.679 70.1002 242.779C69.7002 242.879 69.4002 243.079 69.4002 243.479C69.4002 243.879 69.6002 244.179 69.9002 244.379C70.2002 244.579 70.6002 244.679 71.0002 244.779C71.8002 244.879 72.5002 244.679 73.1002 244.579C74.3002 244.279 75.0002 243.979 75.0002 243.979C75.0002 244.079 74.4002 244.479 73.2002 244.879C72.6002 245.079 71.8002 245.279 71.0002 245.179C70.6002 245.179 70.1002 245.079 69.7002 244.779C69.3002 244.479 68.9002 243.979 69.0002 243.379C69.0002 242.779 69.6002 242.279 70.1002 242.279C70.6002 242.179 71.0002 242.179 71.5002 242.179C72.3002 242.279 73.1002 242.379 73.7002 242.579C74.7002 242.979 75.3002 243.479 75.3002 243.579Z" fill="#263238"/>
<path d="M93.8 261.279C93.8 261.279 93.3 260.979 93.1 260.179C92.9 259.379 93 258.079 93.7 256.979C94 256.379 94.4 255.979 94.7 255.479C95 255.079 95.4 254.679 95.7 254.379C96 254.079 96.4 253.979 96.6 253.979C96.8 253.979 97 253.979 97 254.079C97 254.179 96.5 254.079 95.9 254.679C95.6 254.979 95.3 255.279 95.1 255.779C94.8 256.179 94.5 256.679 94.2 257.179C93.6 258.179 93.4 259.279 93.6 260.079C93.6 260.779 93.9 261.179 93.8 261.279Z" fill="#263238"/>
<path d="M83.3 253.379C83.2 253.379 83.2 251.879 84.3 250.579C85.4 249.179 86.9 248.879 86.9 249.079C87 249.179 85.7 249.679 84.7 250.979C83.7 252.079 83.4 253.379 83.3 253.379Z" fill="#263238"/>
<path d="M62.1001 248.179C62.1001 248.179 62.6001 248.479 63.4001 249.079C64.2001 249.679 65.4001 250.479 67.0001 251.279C68.6001 252.179 70.5001 252.979 72.8001 253.879C75.0001 254.679 77.5001 255.479 80.2001 256.279C85.5001 257.779 90.3001 259.179 93.8001 260.279C95.5001 260.779 96.8001 261.179 97.9001 261.579C98.9001 261.879 99.4001 262.079 99.4001 262.079C99.4001 262.079 98.8001 261.979 97.9001 261.779C96.8001 261.479 95.4001 261.079 93.8001 260.679C90.3001 259.679 85.5001 258.379 80.2001 256.879C77.6001 256.079 75.0001 255.279 72.8001 254.479C70.6001 253.579 68.6001 252.679 67.0001 251.779C65.4001 250.879 64.2001 249.979 63.4001 249.379C62.5001 248.579 62.1001 248.179 62.1001 248.179Z" fill="#263238"/>
<path d="M61 248.579C61 248.479 61.9 248.179 63.5 247.879C65.1 247.679 67.4 247.479 69.7 248.679C70.8 249.279 71.7 250.079 72.3 250.979C72.9 251.879 73.4 252.679 73.7 253.479C74.3 254.979 74.6 255.879 74.5 255.879C74.4 255.879 74 254.979 73.3 253.579C72.6 252.179 71.5 250.179 69.4 249.179C67.3 248.079 65 248.179 63.5 248.279C62 248.379 61.1 248.579 61 248.579Z" fill="#263238"/>
<path d="M139.1 83.5791L141 122.479C141.3 129.079 136.1 134.679 129.4 134.679C123.2 134.679 118.1 129.779 117.8 123.679C117.7 120.779 117.5 118.279 117.5 117.979C117.5 117.979 107.6 117.579 106.4 107.779C105.8 103.079 105.4 93.2791 105.2 84.3791C104.9 74.8791 112 66.6791 121.5 65.6791L122.4 65.5791C132.7 64.9791 138.8 73.3791 139.1 83.5791Z" fill="#FFBE9D"/>
<path d="M117.5 117.779C117.5 117.779 123.7 117.579 129.8 112.779C129.8 112.779 127.6 120.179 117.7 120.379L117.5 117.779Z" fill="#EB996E"/>
<path d="M108.3 90.4791C108.4 91.1791 109 91.7791 109.8 91.7791C110.6 91.7791 111.2 91.0791 111.1 90.3791C111 89.6791 110.4 89.0791 109.6 89.0791C108.8 89.0791 108.2 89.6791 108.3 90.4791Z" fill="#263238"/>
<path d="M107.8 88.8791C108 89.0791 109 88.1791 110.5 87.9791C112 87.7791 113.2 88.4791 113.3 88.2791C113.4 88.1791 113.2 87.8791 112.6 87.5791C112.1 87.2791 111.2 87.0791 110.3 87.1791C109.4 87.2791 108.6 87.6791 108.2 88.0791C107.8 88.4791 107.7 88.8791 107.8 88.8791Z" fill="#263238"/>
<path d="M123 89.1791C123.1 89.8791 123.7 90.4791 124.5 90.4791C125.3 90.4791 125.9 89.7791 125.8 89.0791C125.7 88.3791 125.1 87.7791 124.3 87.7791C123.5 87.7791 123 88.4791 123 89.1791Z" fill="#263238"/>
<path d="M122.6 87.5791C122.8 87.7791 123.8 86.8791 125.3 86.6791C126.8 86.4791 128 87.1791 128.1 86.9791C128.2 86.8791 128 86.5791 127.4 86.2791C126.9 85.9791 126 85.7791 125.1 85.8791C124.2 85.9791 123.4 86.3791 123 86.7791C122.6 87.1791 122.5 87.4791 122.6 87.5791Z" fill="#263238"/>
<path d="M118.4 99.2791C118.4 99.1791 117.4 99.1791 115.9 99.0791C115.5 99.0791 115.1 99.0791 115 98.7791C114.9 98.4791 115 98.0791 115.1 97.5791C115.4 96.5791 115.6 95.5791 115.9 94.5791C117 90.2791 117.8 86.6791 117.6 86.6791C117.4 86.6791 116.4 90.0791 115.3 94.4791C115 95.5791 114.8 96.5791 114.5 97.5791C114.4 98.0791 114.2 98.5791 114.5 99.0791C114.6 99.3791 114.9 99.5791 115.2 99.5791C115.5 99.5791 115.7 99.5791 115.9 99.5791C117.4 99.4791 118.4 99.3791 118.4 99.2791Z" fill="#263238"/>
<path d="M122.9 99.8791C122.7 99.8791 122.8 101.479 121.6 102.879C120.3 104.179 118.6 104.179 118.6 104.479C118.6 104.579 119 104.779 119.8 104.679C120.5 104.579 121.5 104.279 122.3 103.479C123.1 102.679 123.3 101.679 123.3 100.979C123.2 100.179 123 99.7791 122.9 99.8791Z" fill="#263238"/>
<path d="M121.5 81.6791C121.7 82.0791 123.2 81.6791 125 81.7791C126.8 81.7791 128.3 82.0791 128.5 81.6791C128.6 81.4791 128.3 81.1791 127.7 80.7791C127.1 80.4791 126.1 80.1791 125.1 80.1791C124 80.1791 123.1 80.4791 122.5 80.7791C121.8 81.1791 121.5 81.4791 121.5 81.6791Z" fill="#263238"/>
<path d="M107.9 84.4791C108.2 84.7791 109.2 84.2791 110.4 84.1791C111.6 83.9791 112.7 84.1791 112.9 83.7791C113 83.5791 112.8 83.2791 112.3 82.9791C111.8 82.6791 111 82.4791 110.2 82.6791C109.3 82.7791 108.6 83.1791 108.2 83.5791C107.8 83.9791 107.7 84.3791 107.9 84.4791Z" fill="#263238"/>
<path d="M139.1 90.9791C139.3 90.8791 145.6 88.2791 146.1 94.9791C146.6 101.679 139.8 100.779 139.8 100.679C139.7 100.379 139.1 90.9791 139.1 90.9791Z" fill="#FFBE9D"/>
<path d="M141.6 97.8791C141.6 97.8791 141.7 97.9791 141.9 97.9791C142.1 98.0791 142.4 98.0791 142.8 97.8791C143.5 97.5791 144 96.3791 143.9 95.1791C143.9 94.5791 143.7 93.9791 143.4 93.5791C143.2 93.0791 142.8 92.7791 142.5 92.7791C142.1 92.6791 141.9 92.9791 141.8 93.1791C141.7 93.3791 141.8 93.4791 141.7 93.4791C141.7 93.4791 141.5 93.3791 141.6 93.0791C141.6 92.9791 141.7 92.7791 141.8 92.6791C142 92.5791 142.2 92.4791 142.4 92.4791C142.9 92.4791 143.4 92.8791 143.7 93.3791C144 93.8791 144.2 94.5791 144.3 95.1791C144.4 96.5791 143.8 97.8791 142.8 98.1791C142.3 98.3791 141.9 98.1791 141.7 98.0791C141.6 98.0791 141.6 97.8791 141.6 97.8791Z" fill="#EB996E"/>
<path d="M142.8 90.2791C141.8 90.1791 140.1 91.2791 139.8 92.2791C139.5 93.2791 139.5 94.3791 139.2 95.3791C138.9 96.3791 138 97.3791 136.9 97.1791C136.2 97.0791 135.6 96.4791 135.3 95.7791C135 95.0791 135 94.3791 135 93.5791C135 90.3791 135.4 87.2791 135.1 84.0791C134.9 80.8791 134.1 77.6791 132.1 75.1791C130.2 72.6791 126.9 71.0791 123.8 71.6791C121.7 72.0791 120 73.3791 117.9 73.8791C115.5 74.4791 112.8 73.8791 110.9 72.3791C110.7 72.1791 109.5 71.5791 109.5 71.5791C109.5 71.3791 109.5 69.9791 110 69.4791C113.7 65.2791 120.9 63.3791 126.5 64.1791C132.1 64.9791 137.5 68.1791 140.4 72.9791C143.4 77.8791 143.5 85.0791 142.8 90.2791Z" fill="#263238"/>
<path d="M33.5002 244.579C33.5002 244.579 105.7 197.179 108.7 196.179C111.7 195.179 118.8 190.479 125.9 192.479C133 194.479 139.5 200.879 142.7 210.179C145.9 219.579 146.1 240.479 146.1 240.479C146.1 240.479 140.4 256.979 129.3 260.479C128.4 260.779 127.4 260.979 126.4 261.179C112.9 263.879 99.1002 257.679 91.5002 246.079L89.9002 243.579C89.9002 243.579 42.7002 260.979 41.9002 260.679L33.5002 244.579Z" fill="#263238"/>
<path d="M8.90019 189.379C8.90019 189.379 0.100195 192.579 0.000194974 202.479C-0.099805 221.479 38.3002 242.379 38.3002 242.379L89.4002 208.479V204.879C89.4002 204.879 23.7002 181.179 8.90019 189.379Z" fill="#263238"/>
<path d="M122.8 231.579C122.8 231.579 122.7 231.679 122.4 231.779C122.1 231.879 121.7 232.079 121.2 232.279C120.1 232.679 118.6 233.279 116.6 234.079C112.6 235.579 106.8 237.779 99.6001 240.479C92.4001 243.179 83.7001 246.379 74.0001 249.879C64.3001 253.379 53.5001 257.279 42.0001 261.179L41.8001 261.279L41.7001 261.079C39.9001 257.679 38.0001 253.979 36.1001 250.279C35.1001 248.379 34.1001 246.479 33.2001 244.779L33.1001 244.579L33.3001 244.479C55.0001 230.679 74.4001 218.379 88.4001 209.479C95.4001 205.079 101 201.479 104.9 199.079C106.8 197.879 108.3 196.879 109.4 196.279C109.9 195.979 110.3 195.779 110.6 195.579C110.9 195.379 111 195.379 111 195.379C111 195.379 110.9 195.479 110.6 195.679C110.3 195.879 109.9 196.079 109.5 196.479C108.5 197.179 107 198.079 105.1 199.379C101.2 201.879 95.6001 205.479 88.6001 209.979C74.6001 218.879 55.3001 231.279 33.6001 245.079L33.7001 244.779C34.6001 246.479 35.6001 248.379 36.6001 250.279C38.5001 253.979 40.4001 257.579 42.2001 261.079L41.9001 260.979C53.4001 257.079 64.2001 253.279 73.9001 249.779C83.6001 246.279 92.3001 243.079 99.5001 240.479C106.7 237.779 112.5 235.679 116.6 234.179C118.6 233.479 120.1 232.879 121.2 232.479C121.7 232.279 122.1 232.179 122.4 232.079C122.7 231.579 122.8 231.579 122.8 231.579Z" fill="#455A64"/>
<path d="M63.6002 225.479C63.6002 225.479 63.1002 225.179 62.3002 224.579C61.5002 223.979 60.3002 223.079 58.8002 221.979C55.9002 219.679 51.9002 216.479 47.6002 212.879C43.3002 209.179 39.5002 205.779 36.9002 203.179C35.6002 201.879 34.5002 200.879 33.8002 200.079C33.1002 199.379 32.7002 198.879 32.7002 198.879C32.7002 198.879 33.2002 199.179 33.9002 199.879C34.7002 200.679 35.8002 201.579 37.1002 202.779C39.8002 205.279 43.6002 208.679 47.9002 212.379C52.2002 216.079 56.1002 219.279 59.0002 221.579C60.4002 222.679 61.5002 223.679 62.4002 224.379C63.1002 225.079 63.6002 225.479 63.6002 225.479Z" fill="#455A64"/>
<path d="M23.3003 196.379C23.3003 196.279 25.6003 195.979 28.2003 196.779C30.9003 197.579 32.7003 198.979 32.6003 199.079C32.5003 199.179 30.7003 197.979 28.1003 197.279C25.5003 196.579 23.3003 196.579 23.3003 196.379Z" fill="#455A64"/>
<path d="M27.7003 193.479C27.7003 193.379 29.4003 194.079 30.7003 195.779C32.1003 197.479 32.4003 199.179 32.3003 199.179C32.2003 199.279 31.6003 197.679 30.3003 196.079C29.1003 194.479 27.6003 193.579 27.7003 193.479Z" fill="#455A64"/>
<path d="M6.1001 253.479C6.1001 253.379 6.7001 253.279 7.4001 253.879C8.1001 254.479 8.7001 255.579 8.9001 256.879C9.1001 258.179 8.8001 259.379 8.4001 260.179C8.0001 260.979 7.6001 261.279 7.6001 261.279C7.5001 261.279 7.8001 260.779 8.1001 260.079C8.4001 259.279 8.6001 258.179 8.4001 256.979C8.2001 255.779 7.7001 254.779 7.2001 254.179C6.6001 253.579 6.0001 253.579 6.1001 253.479Z" fill="#263238"/>
<defs>
<clipPath id="clip0_846_9522">
<rect width="60" height="60" fill="white" transform="translate(165 62.6602) rotate(-28.5319)"/>
</clipPath>
<clipPath id="clip1_846_9522">
<rect width="52.3015" height="56.204" fill="white" transform="translate(65.7344 52.707) rotate(-81.8712)"/>
</clipPath>
<clipPath id="clip2_846_9522">
<rect width="52.3015" height="56.204" fill="white" transform="translate(70.6074 77.2763) rotate(169.576)"/>
</clipPath>
</defs>
</svg>
