<svg width="150" height="142" viewBox="0 0 150 142" fill="none" xmlns="http://www.w3.org/2000/svg">
    <path d="M145.267 52.7994C142.441 41.1476 124.963 37.502 117.28 29.3823C109.352 21.0446 109.431 6.70658 96.8891 1.70047C86.5542 -2.42477 72.7307 10.0295 61.1312 12.8639C49.5317 15.6984 34.8535 10.8057 26.2454 19.405C18.117 27.5421 22.0678 42.4558 18.8409 53.532C15.7448 64.2594 1.91257 75.6322 4.72959 87.284C7.54662 98.9359 25.0331 102.625 32.7167 110.701C40.6445 119.039 43.6883 136.674 54.6948 139.927C65.3524 143.075 77.2659 130.054 88.8479 127.22C100.43 124.385 116.948 130.42 124.972 122.684C133.258 114.696 127.894 97.6277 131.077 86.5601C134.252 75.824 148.084 64.4513 145.267 52.7994Z" fill="white" />
    <path d="M77.6151 112.507C102.18 112.507 122.094 92.5925 122.094 68.0272C122.094 43.4619 102.18 23.5479 77.6151 23.5479C53.0498 23.5479 33.1357 43.4619 33.1357 68.0272C33.1357 92.5925 53.0498 112.507 77.6151 112.507Z" fill="#00B5F4" />
    <path d="M66.8706 57.2826C84.2263 39.9269 103.091 30.6473 109.021 36.5343C100.635 28.4202 89.3961 23.9267 77.7274 24.0225C66.0587 24.1183 54.895 28.7958 46.6432 37.0465C38.3913 45.2972 33.7123 56.4603 33.6148 68.129C33.5174 79.7976 38.0094 91.0373 46.1223 99.4246C40.2353 93.5028 49.5149 74.6383 66.8706 57.2826Z" fill="#2FC8F2" />
    <path d="M45.9303 99.2154C47.9304 101.246 50.1208 103.08 52.4714 104.692C54.2157 102.146 56.8321 99.6253 60.4254 100.454C69.2602 102.503 70.8911 83.133 61.6376 83.6912C54.0674 84.1447 60.0242 76.1297 52.3493 78.4583C51.5248 78.7101 50.6724 78.8595 49.8114 78.9031C44.4738 88.0083 42.7819 95.6745 45.9303 99.2154Z" fill="white" />
    <path d="M48.2155 69.4924C50.579 68.847 56.8933 66.9894 58.4283 60.2651C60.0766 53.1397 50.1952 50.8721 52.489 46.5812C55.2449 41.453 68.6847 53.2008 72.9931 42.8048C74.6153 38.8889 69.0248 34.4758 65.2484 34.9555C60.9401 35.4701 57.0852 32.1385 56.4572 28.9464C50.2898 32.2896 44.9988 37.0415 41.0145 42.8156C37.0303 48.5896 34.4654 55.2227 33.5286 62.1751C33.5286 62.4193 33.4675 62.6635 33.4413 62.9077C33.3977 63.2827 33.3541 63.6578 33.3192 64.0328C33.2844 64.4078 33.2756 64.6607 33.2495 64.9747C33.2233 65.2887 33.2059 65.6724 33.1884 66.03C33.171 66.3876 33.1884 66.78 33.1884 67.1551C33.1884 67.8179 33.1884 68.4807 33.1884 69.1523C33.1884 69.3442 33.1884 69.5447 33.1884 69.7453C33.1884 70.2512 33.2407 70.757 33.2756 71.2629C33.2756 71.3501 33.2756 71.4286 33.2756 71.5158C33.3716 72.6583 33.5024 73.8095 33.6855 75.0044C34.294 78.823 35.3963 82.5462 36.9648 86.0806C37.2526 86.7347 37.5666 87.3888 37.8893 88.0255C37.916 88.092 37.9481 88.1561 37.9852 88.2174C38.2817 88.8104 38.6044 89.3948 38.9271 89.9617C38.9795 90.0489 39.0318 90.1361 39.0754 90.2233C39.3981 90.7727 39.7295 91.3222 40.0696 91.8542L40.2528 92.1333C40.6016 92.674 40.9592 93.206 41.3342 93.7206L41.4912 93.9473C41.8837 94.4968 42.2936 95.0375 42.7122 95.5695L42.7995 95.6742C43.7772 96.8893 44.8164 98.0537 45.913 99.1628C42.7646 95.6219 44.4914 87.9557 49.794 78.8156C43.0436 79.1645 41.0726 71.4635 48.2155 69.4924Z" fill="white" />
    <path d="M121.545 61.0939C120.274 52.9716 116.764 45.3641 111.411 39.1246C110.43 40.1544 109.521 41.25 108.69 42.4038C106.579 45.3081 102.175 45.4476 99.7766 40.7032C98.9317 38.9882 97.6235 37.5441 96.0002 36.5343C90.7646 38.698 85.8215 41.5109 81.2871 44.9069C80.415 48.8577 81.7058 52.5469 88.3428 53.794C96.5933 55.3552 92.8256 62.8905 87.2875 61.2073C81.8889 59.5676 78.3393 57.9455 74.999 60.7974C71.6587 63.6493 72.1471 70.2601 76.6212 71.0451C80.3365 71.6905 83.3018 74.4813 80.7987 78.5281C78.0602 82.9586 76.6648 91.1654 81.165 92.9272C85.5258 94.6715 87.741 91.3486 88.5347 89.6741C89.3283 87.9996 88.805 86.5256 90.8022 83.1592C92.2849 80.6474 97.4567 79.5398 97.4567 79.5398C97.4567 79.5398 101.713 78.0135 98.7562 70.1206C95.7996 62.2277 106.091 63.5446 108.35 68.8647C110.242 73.3039 105.733 80.6125 113.705 79.3304C117.263 78.7461 118.641 80.5514 119.949 81.7637C122.109 75.0972 122.656 68.0131 121.545 61.0939Z" fill="white" />
    <path d="M102.253 90.4763C102.524 92.3863 100.143 91.4705 98.0582 93.4503C95.9738 95.43 95.4418 96.5726 92.9387 95.3254C90.7148 94.2178 94.6307 88.9675 96.4273 88.3482C98.2239 87.729 101.861 87.7639 102.253 90.4763Z" fill="white" />
    <path d="M81.4615 44.2002C81.4005 44.4357 81.3394 44.6711 81.2871 44.9066C85.8215 41.5106 90.7645 38.6977 96.0002 36.534C91.0551 33.4902 83.9733 35.4002 81.4615 44.2002Z" fill="white" />
    <path d="M77.6154 113.379C77.3841 113.379 77.1623 113.287 76.9987 113.124C76.8351 112.96 76.7433 112.738 76.7433 112.507C76.7433 112.276 76.8351 112.054 76.9987 111.89C77.1623 111.727 77.3841 111.635 77.6154 111.635C88.7191 111.621 99.3986 107.368 107.471 99.7435C115.543 92.1191 120.398 81.6995 121.045 70.6146C121.691 59.5297 118.079 48.6165 110.947 40.1058C103.816 31.595 93.7031 26.1293 82.6761 24.826C71.6491 23.5226 60.5407 26.48 51.6215 33.0936C42.7022 39.7072 36.6456 49.4776 34.6897 60.4077C32.7338 71.3378 35.0263 82.6022 41.0986 91.8985C47.1708 101.195 56.5643 107.821 67.359 110.422C67.4779 110.441 67.5917 110.484 67.6932 110.548C67.7947 110.613 67.8818 110.698 67.9489 110.798C68.0161 110.897 68.0618 111.01 68.0833 111.128C68.1048 111.247 68.1016 111.368 68.0738 111.485C68.0461 111.603 67.9944 111.713 67.922 111.809C67.8497 111.905 67.7582 111.985 67.6534 112.044C67.5486 112.103 67.4326 112.14 67.3129 112.152C67.1932 112.164 67.0723 112.151 66.9578 112.114C55.7175 109.403 45.9374 102.5 39.6168 92.8182C33.2963 83.1359 30.9126 71.4051 32.9532 60.0239C34.9937 48.6427 41.3044 38.4707 50.595 31.5874C59.8856 24.7041 71.4546 21.6294 82.9367 22.9919C94.4188 24.3543 104.947 30.051 112.369 38.9174C119.791 47.7837 123.546 59.1501 122.866 70.6928C122.186 82.2355 117.124 93.0827 108.713 101.017C100.302 108.951 89.1781 113.373 77.6154 113.379Z" fill="#34234D" />
    <path d="M77.6157 122.972C74.9688 122.972 72.3253 122.783 69.7053 122.405C69.4763 122.373 69.2559 122.295 69.0568 122.178C68.8576 122.06 68.6836 121.904 68.5448 121.719C68.4059 121.534 68.3048 121.323 68.2473 121.099C68.1898 120.875 68.177 120.642 68.2096 120.413C68.2423 120.184 68.3197 119.963 68.4375 119.764C68.5553 119.565 68.7112 119.391 68.8963 119.252C69.0813 119.113 69.2919 119.012 69.516 118.955C69.7402 118.897 69.9734 118.884 70.2025 118.917C72.657 119.281 75.1343 119.471 77.6157 119.484C86.6207 119.482 95.4675 117.117 103.272 112.625C111.077 108.133 117.566 101.671 122.091 93.8857C126.617 86.1003 129.019 77.2636 129.06 68.2587C129.1 59.2538 126.777 50.3959 122.322 42.5701C117.867 34.7443 111.436 28.2247 103.672 23.6627C95.9084 19.1007 87.0832 16.656 78.0786 16.5729C69.074 16.4899 60.2052 18.7713 52.3584 23.1894C44.5117 27.6074 37.9617 34.0073 33.3631 41.7495C33.2626 41.972 33.1165 42.1708 32.9343 42.3332C32.7521 42.4956 32.5379 42.618 32.3054 42.6924C32.073 42.7668 31.8275 42.7916 31.5849 42.7652C31.3423 42.7388 31.1079 42.6618 30.8969 42.5391C30.6859 42.4165 30.503 42.2509 30.36 42.0531C30.217 41.8553 30.1171 41.6297 30.0668 41.3909C30.0165 41.152 30.0168 40.9053 30.0678 40.6666C30.1188 40.428 30.2194 40.2026 30.3629 40.0053C35.2682 31.7318 42.2594 24.891 50.6376 20.1668C59.0157 15.4425 68.4872 13.0003 78.1051 13.0842C87.7231 13.1682 97.1504 15.7755 105.445 20.6454C113.739 25.5153 120.61 32.4772 125.37 40.835C130.13 49.1928 132.613 58.6538 132.57 68.272C132.527 77.8902 129.96 87.3286 125.126 95.6437C120.291 103.959 113.359 110.859 105.022 115.655C96.6842 120.451 87.234 122.974 77.6157 122.972Z" fill="white" />
    <path d="M37.1306 42.2117L28.0254 47.3137L28.1649 36.8741L37.1306 42.2117Z" fill="white" />
    <path d="M64.7862 53.2008H29.3945C29.3945 54.6565 29.1078 56.0979 28.5507 57.4428C27.9937 58.7877 27.1772 60.0097 26.1478 61.0391C25.1185 62.0684 23.8965 62.8849 22.5516 63.442C21.2067 63.999 19.7653 64.2858 18.3096 64.2858V107.021L47.0903 127.333L75.8711 107.021V64.2858C72.9312 64.2858 70.1117 63.1179 68.0329 61.0391C65.954 58.9602 64.7862 56.1407 64.7862 53.2008Z" fill="#1B71FF" />
    <path d="M18.3096 107.012L47.0903 127.333L75.8711 107.012V64.5387L18.3096 107.012Z" fill="#1B71FF" />
    <path d="M47.0904 128.205C46.9096 128.206 46.7328 128.152 46.5846 128.048L17.8038 107.727C17.6911 107.647 17.5991 107.541 17.5354 107.418C17.4717 107.295 17.4381 107.159 17.4375 107.021V94.9676C17.4375 94.7363 17.5294 94.5144 17.6929 94.3509C17.8565 94.1873 18.0783 94.0954 18.3096 94.0954C18.541 94.0954 18.7628 94.1873 18.9263 94.3509C19.0899 94.5144 19.1818 94.7363 19.1818 94.9676V106.567L47.0904 126.269L74.999 106.567V79.1556C74.999 78.9243 75.0909 78.7025 75.2545 78.5389C75.418 78.3753 75.6399 78.2834 75.8712 78.2834C76.1025 78.2834 76.3243 78.3753 76.4879 78.5389C76.6515 78.7025 76.7433 78.9243 76.7433 79.1556V107.021C76.7427 107.159 76.7091 107.295 76.6455 107.418C76.5818 107.541 76.4898 107.647 76.377 107.727L47.5963 128.048C47.448 128.152 47.2712 128.206 47.0904 128.205Z" fill="#34234D" />
    <path d="M18.3096 90.6072C18.0783 90.6072 17.8565 90.5153 17.6929 90.3517C17.5294 90.1882 17.4375 89.9663 17.4375 89.735V64.2858C17.4375 64.0545 17.5294 63.8327 17.6929 63.6691C17.8565 63.5056 18.0783 63.4137 18.3096 63.4137C21.0168 63.4091 23.6118 62.3316 25.5261 60.4173C27.4404 58.5031 28.5178 55.9081 28.5225 53.2009C28.5225 52.9696 28.6143 52.7477 28.7779 52.5842C28.9415 52.4206 29.1633 52.3287 29.3946 52.3287H64.7862C65.0175 52.3287 65.2394 52.4206 65.4029 52.5842C65.5665 52.7477 65.6584 52.9696 65.6584 53.2009C65.663 55.9081 66.7405 58.5031 68.6547 60.4173C70.569 62.3316 73.164 63.4091 75.8712 63.4137C76.1025 63.4137 76.3243 63.5056 76.4879 63.6691C76.6515 63.8327 76.7433 64.0545 76.7433 64.2858V73.923C76.7433 74.1543 76.6515 74.3762 76.4879 74.5397C76.3243 74.7033 76.1025 74.7952 75.8712 74.7952C75.6399 74.7952 75.418 74.7033 75.2545 74.5397C75.0909 74.3762 74.999 74.1543 74.999 73.923V65.1231C72.1392 64.9096 69.4509 63.6769 67.423 61.649C65.3952 59.6212 64.1624 56.9329 63.949 54.073H30.2319C30.0184 56.9329 28.7857 59.6212 26.7578 61.649C24.73 63.6769 22.0417 64.9096 19.1818 65.1231V89.735C19.1818 89.9663 19.0899 90.1882 18.9263 90.3517C18.7628 90.5153 18.541 90.6072 18.3096 90.6072Z" fill="#34234D" />
    <path d="M47.0898 119.37C46.7341 119.37 46.3872 119.26 46.0956 119.056L25.1641 104.457C24.933 104.296 24.7442 104.083 24.6136 103.834C24.483 103.585 24.4145 103.308 24.4141 103.026V70.4256C24.414 70.0911 24.5102 69.7635 24.6911 69.4821C24.872 69.2006 25.1301 68.9772 25.4345 68.8383C29.2042 67.1184 32.2266 64.0959 33.9466 60.3262C34.0855 60.0218 34.3089 59.7637 34.5904 59.5828C34.8718 59.4019 35.1993 59.3057 35.5339 59.3058H58.6457C58.9803 59.3057 59.3078 59.4019 59.5893 59.5828C59.8707 59.7637 60.0942 60.0218 60.233 60.3262C61.953 64.0959 64.9755 67.1184 68.7452 68.8383C69.0496 68.9772 69.3076 69.2006 69.4886 69.4821C69.6695 69.7635 69.7656 70.0911 69.7656 70.4256V103.026C69.7651 103.308 69.6967 103.585 69.5661 103.834C69.4355 104.083 69.2466 104.296 69.0155 104.457L48.0841 119.056C47.7924 119.26 47.4455 119.37 47.0898 119.37ZM27.9026 102.111L47.0898 115.498L66.277 102.111V71.5158C62.5556 69.5564 59.515 66.5157 57.5556 62.7944H36.6241C34.6646 66.5157 31.624 69.5564 27.9026 71.5158V102.111Z" fill="white" />
    <path d="M50.9975 87.8338C51.8328 87.214 52.5066 86.4023 52.962 85.4672C53.4174 84.5321 53.641 83.5011 53.6139 82.4614C53.5513 80.7998 52.8632 79.2232 51.6875 78.0474C50.5117 76.8716 48.9351 76.1835 47.2735 76.1209C45.8914 76.0799 44.5322 76.4803 43.3931 77.264C42.254 78.0477 41.3941 79.1738 40.9382 80.4792C40.4824 81.7846 40.4543 83.2012 40.8579 84.5236C41.2615 85.8461 42.076 87.0055 43.1831 87.8338L40.619 95.9796C40.5505 96.1963 40.5341 96.4261 40.5709 96.6504C40.6077 96.8746 40.6968 97.087 40.831 97.2705C40.9652 97.4539 41.1406 97.6031 41.3432 97.7062C41.5458 97.8092 41.7697 97.8631 41.997 97.8635H52.1836C52.4109 97.8631 52.6349 97.8092 52.8374 97.7062C53.04 97.6031 53.2154 97.4539 53.3496 97.2705C53.4838 97.087 53.5729 96.8746 53.6097 96.6504C53.6465 96.4261 53.6301 96.1963 53.5616 95.9796L50.9975 87.8338Z" fill="white" />
    <path d="M47.2732 76.1209C45.8911 76.0799 44.532 76.4803 43.3928 77.264C42.2537 78.0477 41.3938 79.1738 40.938 80.4792C40.4821 81.7846 40.454 83.2012 40.8576 84.5236C41.2613 85.8461 42.0757 87.0055 43.1828 87.8338L42.8427 88.9065L53.4218 81.1096C53.074 79.7251 52.2869 78.4906 51.1783 77.5912C50.0698 76.6918 48.6996 76.1759 47.2732 76.1209Z" fill="white" />
    <path d="M52.1839 98.7353H41.9973C41.6333 98.7338 41.2747 98.6471 40.9502 98.482C40.6258 98.3169 40.3446 98.0781 40.1292 97.7847C39.9138 97.4912 39.7702 97.1514 39.7099 96.7924C39.6496 96.4335 39.6743 96.0653 39.782 95.7176L42.1717 88.1387C41.0443 87.1302 40.2536 85.8 39.9066 84.3277C39.5596 82.8554 39.6729 81.3121 40.2312 79.9063C40.7895 78.5004 41.766 77.2999 43.0286 76.4669C44.2912 75.6339 45.7791 75.2086 47.2912 75.2484C48.7712 75.2853 50.2059 75.7667 51.4088 76.6298C52.6116 77.493 53.527 78.698 54.0359 80.0883C54.5448 81.4786 54.6237 82.9898 54.2623 84.4255C53.9009 85.8612 53.1159 87.155 52.0095 88.1387L54.3991 95.7176C54.5069 96.0653 54.5315 96.4335 54.4712 96.7924C54.4109 97.1514 54.2673 97.4912 54.0519 97.7847C53.8365 98.0781 53.5553 98.3169 53.2309 98.482C52.9065 98.6471 52.5479 98.7338 52.1839 98.7353ZM47.0906 76.9927C45.9051 76.989 44.7487 77.3594 43.7859 78.051C42.8231 78.7427 42.103 79.7204 41.7281 80.8451C41.3532 81.9697 41.3427 83.184 41.6979 84.315C42.0531 85.446 42.7561 86.4361 43.7067 87.1445C43.8505 87.2532 43.957 87.4039 44.0117 87.5757C44.0663 87.7475 44.0664 87.932 44.0119 88.1038L41.4478 96.2409C41.4203 96.3273 41.4137 96.4189 41.4283 96.5083C41.4429 96.5977 41.4785 96.6824 41.532 96.7555C41.5855 96.8286 41.6556 96.888 41.7364 96.929C41.8173 96.9699 41.9066 96.9911 41.9973 96.991H52.1839C52.2745 96.9911 52.3639 96.9699 52.4447 96.929C52.5256 96.888 52.5956 96.8286 52.6492 96.7555C52.7027 96.6824 52.7382 96.5977 52.7529 96.5083C52.7675 96.4189 52.7608 96.3273 52.7334 96.2409L50.1692 88.0864C50.1147 87.9145 50.1148 87.73 50.1695 87.5582C50.2241 87.3864 50.3307 87.2358 50.4745 87.127C51.1991 86.5902 51.7835 85.8866 52.1782 85.0759C52.573 84.2652 52.7664 83.3712 52.7421 82.4698C52.6861 81.0304 52.0892 79.6652 51.0707 78.6467C50.0521 77.6281 48.6869 77.0313 47.2476 76.9753L47.0906 76.9927Z" fill="#34234D" />
    <path d="M102.611 71.6731C101.772 70.8336 100.776 70.1675 99.6798 69.7129C98.5835 69.2584 97.4083 69.0242 96.2215 69.0238C95.0346 69.0234 93.8593 69.2568 92.7627 69.7106C91.666 70.1644 90.6694 70.8298 89.8299 71.6687C88.1344 73.363 87.1815 75.6615 87.1807 78.0585C87.1798 80.4554 88.1312 82.7545 89.8256 84.45L89.9826 84.607L102.742 71.8388L102.611 71.6731Z" fill="#1B71FF" />
    <path d="M90 84.5979L96.2271 90.825L102.611 84.4409C104.277 82.7742 105.225 80.522 105.253 78.1655C105.281 75.809 104.386 73.5352 102.759 71.8297L90 84.5979Z" fill="#1B71FF" />
    <path d="M96.2268 91.7059C96.112 91.7065 95.9982 91.6845 95.892 91.6411C95.7857 91.5977 95.689 91.5338 95.6076 91.4529L89.2235 85.0688C87.4453 83.1954 86.4691 80.7017 86.5028 78.119C86.5365 75.5364 87.5774 73.0689 89.4038 71.2426C91.2302 69.4162 93.6976 68.3752 96.2803 68.3415C98.863 68.3079 101.357 69.2841 103.23 71.0622C105.085 72.9212 106.126 75.4398 106.126 78.0655C106.126 80.6913 105.085 83.2099 103.23 85.0688L96.846 91.4529C96.7645 91.5338 96.6679 91.5977 96.5616 91.6411C96.4553 91.6845 96.3416 91.7065 96.2268 91.7059ZM96.2268 69.9023C94.6064 69.894 93.0203 70.3688 91.6708 71.2659C90.3214 72.163 89.2699 73.4418 88.6503 74.9391C88.0308 76.4364 87.8714 78.0843 88.1926 79.6726C88.5137 81.2609 89.3007 82.7175 90.4532 83.8566L96.2268 89.6302L102.035 83.8304C103.564 82.2997 104.423 80.2247 104.423 78.0612C104.423 75.8976 103.564 73.8226 102.035 72.2919C101.273 71.5302 100.367 70.9275 99.3699 70.5188C98.3728 70.11 97.3044 69.9035 96.2268 69.911V69.9023Z" fill="#34234D" />
    <path d="M96.3054 73.6611C95.6941 73.6408 95.0924 73.8164 94.5879 74.1622C94.0835 74.5079 93.7027 75.0058 93.5011 75.5832C93.2996 76.1607 93.2878 76.7874 93.4675 77.372C93.6472 77.9566 94.0089 78.4684 94.5 78.8329L93.9157 80.6819L98.948 75.6583C98.7625 75.0964 98.4103 74.6043 97.9382 74.2476C97.4661 73.8908 96.8966 73.6862 96.3054 73.6611Z" fill="white" />
    <path d="M99.1051 76.4609C99.0934 76.1871 99.0404 75.9166 98.9481 75.6586L93.9158 80.6821L93.3664 82.4264C93.3381 82.522 93.3323 82.6229 93.3495 82.7211C93.3668 82.8193 93.4065 82.9122 93.4657 82.9925C93.5248 83.0727 93.6017 83.1382 93.6904 83.1837C93.7791 83.2293 93.8772 83.2537 93.9769 83.2549H98.4684C98.5688 83.2555 98.6678 83.2323 98.7575 83.1873C98.8471 83.1423 98.9249 83.0767 98.9844 82.996C99.0439 82.9152 99.0835 82.8215 99.1 82.7225C99.1164 82.6235 99.1092 82.5221 99.0789 82.4264L97.9452 78.8332C98.316 78.5611 98.6152 78.2031 98.8172 77.7899C99.0193 77.3767 99.1181 76.9207 99.1051 76.4609Z" fill="white" />
    <path d="M114.751 38.1388C113.058 36.4456 110.762 35.4944 108.367 35.4944C105.973 35.4944 103.676 36.4456 101.983 38.1388C100.29 39.8319 99.3389 42.1284 99.3389 44.5229C99.3389 46.9174 100.29 49.2138 101.983 50.907L102.14 51.0639L114.908 38.3045L114.751 38.1388Z" fill="#1B71FF" />
    <path d="M102.141 51.064L108.368 57.2999L114.752 50.9071C116.419 49.2429 117.368 46.9928 117.397 44.6378C117.427 42.2827 116.534 40.0097 114.909 38.3046L102.141 51.064Z" fill="#1B71FF" />
    <path d="M108.367 58.172C108.252 58.1715 108.138 58.1482 108.032 58.1033C107.925 58.0584 107.829 57.9928 107.748 57.9104L101.364 51.5263C100.443 50.6066 99.7126 49.5145 99.2138 48.3125C98.715 47.1104 98.4578 45.8219 98.457 44.5204C98.4554 41.892 99.498 39.3706 101.355 37.5109C103.213 35.6512 105.733 34.6055 108.361 34.6039C110.99 34.6022 113.511 35.6448 115.371 37.5022C116.291 38.4215 117.021 39.5132 117.519 40.7149C118.017 41.9166 118.274 43.2047 118.274 44.5055C118.274 45.8064 118.017 47.0944 117.519 48.2961C117.021 49.4978 116.291 50.5895 115.371 51.5088L109.013 57.9104C108.929 57.996 108.828 58.0634 108.717 58.1084C108.606 58.1534 108.487 58.1751 108.367 58.172ZM108.367 36.3684C106.75 36.3662 105.168 36.8446 103.822 37.7431C102.477 38.6416 101.429 39.9195 100.811 41.4147C100.194 42.9099 100.034 44.555 100.353 46.141C100.672 47.727 101.455 49.1825 102.603 50.3227L108.367 56.0876L114.141 50.3227C115.67 48.7921 116.529 46.717 116.529 44.5535C116.529 42.39 115.67 40.3149 114.141 38.7843C113.386 38.02 112.487 37.413 111.496 36.9984C110.505 36.5837 109.442 36.3696 108.367 36.3684Z" fill="#34234D" />
    <path d="M108.446 40.1187C107.835 40.1004 107.235 40.2774 106.732 40.6238C106.229 40.9703 105.85 41.4683 105.649 42.0452C105.449 42.6222 105.438 43.248 105.617 43.8317C105.797 44.4154 106.159 44.9264 106.649 45.2905L106.065 47.1395L111.088 42.1072C110.901 41.5469 110.548 41.0567 110.077 40.7016C109.605 40.3465 109.036 40.1432 108.446 40.1187Z" fill="white" />
    <path d="M111.245 42.9269C111.233 42.6503 111.18 42.3769 111.088 42.1158L106.064 47.1481L105.515 48.8924C105.476 48.9905 105.462 49.0968 105.474 49.2017C105.486 49.3066 105.524 49.4068 105.585 49.4933C105.645 49.5798 105.726 49.6499 105.821 49.6972C105.915 49.7446 106.02 49.7677 106.125 49.7646H110.617C110.722 49.7656 110.825 49.741 110.919 49.6931C111.012 49.6451 111.092 49.5752 111.152 49.4893C111.212 49.4034 111.25 49.3042 111.264 49.2002C111.277 49.0962 111.264 48.9906 111.228 48.8924L110.094 45.3079C110.462 45.032 110.759 44.6718 110.959 44.2575C111.159 43.8432 111.257 43.3869 111.245 42.9269Z" fill="white" />
    <path d="M70.6382 24.6292C69.8097 23.7486 68.8127 23.0434 67.7065 22.5555C66.6002 22.0676 65.4072 21.8069 64.1983 21.7888C62.9893 21.7708 61.7891 21.9959 60.6688 22.4506C59.5485 22.9054 58.531 23.5805 57.6766 24.4361C56.8222 25.2916 56.1485 26.31 55.6953 27.431C55.242 28.5519 55.0186 29.7524 55.0383 30.9614C55.058 32.1703 55.3203 33.3629 55.8097 34.4685C56.2992 35.5741 57.0057 36.5701 57.8874 37.3974L58.0444 37.5544L70.8039 24.7949L70.6382 24.6292Z" fill="#1B71FF" />
    <path d="M58.0449 37.5546L64.272 43.7818L70.6387 37.3977C72.3062 35.7335 73.2556 33.4824 73.2833 31.1267C73.311 28.7709 72.4149 26.4981 70.787 24.7952L58.0449 37.5546Z" fill="#1B71FF" />
    <path d="M64.2718 44.6536C64.157 44.6543 64.0433 44.6323 63.937 44.5889C63.8307 44.5455 63.7341 44.4815 63.6526 44.4007L57.2685 38.0166C55.8822 36.6313 54.938 34.8659 54.5551 32.9439C54.1723 31.0218 54.3681 29.0294 55.1178 27.2186C55.8675 25.4078 57.1373 23.8601 58.7668 22.7711C60.3962 21.6822 62.312 21.101 64.2718 21.101C66.2316 21.101 68.1474 21.6822 69.7769 22.7711C71.4063 23.8601 72.6762 25.4078 73.4259 27.2186C74.1755 29.0294 74.3714 31.0218 73.9885 32.9439C73.6057 34.8659 72.6614 36.6313 71.2751 38.0166L64.8911 44.4007C64.8096 44.4815 64.7129 44.5455 64.6066 44.5889C64.5004 44.6323 64.3866 44.6543 64.2718 44.6536ZM64.2718 22.85C62.6522 22.8435 61.0673 23.3195 59.7192 24.2173C58.3711 25.1151 57.3209 26.3939 56.7025 27.8909C56.084 29.3878 55.9254 31.035 56.2468 32.6225C56.5682 34.21 57.355 35.6658 58.5069 36.8043L64.2718 42.5779L70.0454 36.8043C71.1979 35.6653 71.985 34.2086 72.3061 32.6204C72.6272 31.0321 72.4678 29.3841 71.8483 27.8868C71.2288 26.3895 70.1772 25.1107 68.8278 24.2136C67.4783 23.3165 65.8922 22.8418 64.2718 22.85Z" fill="#34234D" />
    <path d="M64.3498 26.618C63.7388 26.5963 63.137 26.7709 62.6326 27.1162C62.1281 27.4615 61.7475 27.9593 61.5466 28.5367C61.3457 29.1141 61.335 29.7406 61.5162 30.3245C61.6973 30.9084 62.0607 31.4188 62.5532 31.7811L61.9688 33.6388L66.9924 28.6065C66.8065 28.0456 66.4539 27.5547 65.9818 27.1994C65.5096 26.8441 64.9402 26.6413 64.3498 26.618Z" fill="white" />
    <path d="M67.1492 29.4086C67.1366 29.1349 67.0837 28.8645 66.9923 28.6062L61.9687 33.6385L61.4193 35.3828C61.389 35.4784 61.3818 35.5799 61.3982 35.6789C61.4147 35.7778 61.4542 35.8715 61.5138 35.9523C61.5733 36.0331 61.651 36.0987 61.7407 36.1437C61.8304 36.1887 61.9294 36.2118 62.0297 36.2113H66.5213C66.621 36.21 66.719 36.1856 66.8077 36.1401C66.8964 36.0946 66.9734 36.0291 67.0325 35.9488C67.0917 35.8685 67.1314 35.7757 67.1486 35.6774C67.1659 35.5792 67.1601 35.4784 67.1318 35.3828L65.998 31.7895C66.3673 31.5146 66.6649 31.1546 66.8653 30.7401C67.0657 30.3256 67.1631 29.8688 67.1492 29.4086Z" fill="white" />
    <path d="M128.278 13.9543L130.406 18.2627L135.159 18.9517L131.723 22.3008L132.534 27.0365L128.278 24.8038L124.03 27.0365L124.842 22.3008L121.405 18.9517L126.158 18.2627L128.278 13.9543Z" fill="white" />
    <path d="M132.561 27.9084C132.417 27.9077 132.277 27.8718 132.151 27.8038L128.305 25.7891L124.458 27.8038C124.315 27.8797 124.154 27.9142 123.992 27.9035C123.83 27.8927 123.674 27.837 123.543 27.7427C123.407 27.6458 123.303 27.5122 123.241 27.3576C123.179 27.2031 123.163 27.0341 123.194 26.8706L123.935 22.5884L120.822 19.562C120.709 19.4501 120.63 19.3098 120.591 19.1562C120.553 19.0025 120.557 18.8413 120.603 18.6899C120.653 18.536 120.745 18.3991 120.868 18.2944C120.991 18.1897 121.141 18.1213 121.301 18.0968L125.583 17.4427L127.511 13.5529C127.583 13.4078 127.695 13.2857 127.832 13.2004C127.97 13.115 128.129 13.0698 128.291 13.0698C128.454 13.0698 128.613 13.115 128.75 13.2004C128.888 13.2857 129 13.4078 129.072 13.5529L130.991 17.4427L135.29 18.0706C135.452 18.0936 135.604 18.1613 135.728 18.2661C135.853 18.371 135.946 18.5087 135.997 18.6637C136.043 18.8152 136.047 18.9764 136.009 19.13C135.97 19.2837 135.891 19.424 135.779 19.5358L132.665 22.5622L133.398 26.8444C133.426 26.9709 133.426 27.1022 133.398 27.2287C133.369 27.3553 133.313 27.4738 133.232 27.5757C133.152 27.6776 133.05 27.7604 132.934 27.818C132.818 27.8755 132.69 27.9064 132.561 27.9084ZM128.305 23.9315C128.447 23.9333 128.586 23.966 128.714 24.0274L131.401 25.4403L130.886 22.4488C130.863 22.31 130.874 22.1677 130.918 22.034C130.962 21.9004 131.038 21.7794 131.139 21.6813L133.311 19.562L130.31 19.1259C130.169 19.1063 130.035 19.0523 129.919 18.9687C129.804 18.885 129.71 18.7743 129.648 18.6463L128.305 15.9252L126.961 18.6463C126.899 18.7732 126.807 18.8832 126.694 18.9668C126.58 19.0503 126.447 19.105 126.307 19.1259L123.307 19.562L125.479 21.6813C125.58 21.7794 125.655 21.9004 125.699 22.034C125.744 22.1677 125.755 22.31 125.732 22.4488L125.217 25.4403L127.903 24.0274C128.02 23.9677 128.148 23.9349 128.278 23.9315H128.305Z" fill="white" />
    <path d="M99.1136 127.333L101.233 131.642L105.986 132.331L102.55 135.68L103.361 140.415L99.1136 138.183L94.8576 140.415L95.6687 135.68L92.2324 132.331L96.9856 131.642L99.1136 127.333Z" fill="white" />
    <path d="M103.361 141.287C103.22 141.288 103.082 141.252 102.959 141.183L99.1133 139.168L95.2672 141.183C95.127 141.254 94.9699 141.287 94.8127 141.277C94.6555 141.266 94.504 141.214 94.3743 141.124C94.2446 141.035 94.1415 140.912 94.0761 140.769C94.0106 140.625 93.9852 140.467 94.0026 140.31L94.7352 136.028L91.6216 132.993C91.5064 132.879 91.4253 132.735 91.3874 132.577C91.3495 132.42 91.3563 132.255 91.4071 132.101C91.4578 131.947 91.5504 131.81 91.6746 131.706C91.7988 131.601 91.9496 131.534 92.11 131.51L96.4097 130.883L98.3284 126.993C98.4003 126.846 98.512 126.722 98.6508 126.636C98.7896 126.55 98.9499 126.504 99.1133 126.504C99.2753 126.506 99.4337 126.552 99.5708 126.638C99.7079 126.725 99.8183 126.847 99.8895 126.993L101.817 130.883L106.117 131.51C106.276 131.535 106.426 131.604 106.549 131.708C106.672 131.813 106.764 131.95 106.813 132.104C106.863 132.258 106.869 132.422 106.831 132.579C106.793 132.736 106.711 132.88 106.596 132.993L103.491 136.028L104.224 140.31C104.255 140.474 104.239 140.643 104.177 140.797C104.115 140.952 104.011 141.086 103.875 141.183C103.717 141.266 103.539 141.303 103.361 141.287ZM94.1072 132.941L96.2789 135.06C96.3798 135.158 96.4555 135.279 96.4996 135.413C96.5436 135.546 96.5547 135.689 96.5318 135.828L96.0172 138.819L98.7034 137.406C98.8285 137.341 98.9677 137.306 99.109 137.306C99.2503 137.306 99.3894 137.341 99.5145 137.406L102.201 138.819L101.686 135.828C101.663 135.689 101.674 135.546 101.718 135.413C101.762 135.279 101.838 135.158 101.939 135.06L104.111 132.941L101.111 132.505C100.971 132.484 100.838 132.429 100.724 132.346C100.61 132.262 100.518 132.152 100.456 132.025L99.1133 129.304L97.7702 132.025C97.7074 132.153 97.6141 132.264 97.4986 132.347C97.383 132.431 97.2487 132.485 97.1074 132.505L94.1072 132.941Z" fill="white" />
    <path d="M24.1175 119.649L26.2369 123.958L30.99 124.647L27.5538 128.005L28.3649 132.732L24.1175 130.499L19.8615 132.732L20.6726 128.005L17.2363 124.647L21.9895 123.958L24.1175 119.649Z" fill="white" />
    <path d="M19.8621 133.604C19.6804 133.603 19.5035 133.545 19.3563 133.438C19.221 133.341 19.1162 133.208 19.0544 133.053C18.9926 132.899 18.9763 132.73 19.0074 132.566L19.74 128.284L16.6265 125.258C16.5087 125.144 16.4254 124.999 16.386 124.84C16.3466 124.681 16.3527 124.515 16.4037 124.359C16.4546 124.203 16.5483 124.065 16.6741 123.96C16.7999 123.856 16.9526 123.788 17.1149 123.766L21.4145 123.147L23.3333 119.248C23.4056 119.103 23.517 118.981 23.6548 118.896C23.7927 118.811 23.9517 118.765 24.1138 118.765C24.276 118.765 24.4349 118.811 24.5728 118.896C24.7107 118.981 24.8221 119.103 24.8944 119.248L26.8218 123.147L31.1215 123.766C31.283 123.79 31.4347 123.858 31.5594 123.963C31.684 124.069 31.7766 124.207 31.8265 124.362C31.8765 124.518 31.8819 124.684 31.842 124.842C31.8022 125 31.7188 125.144 31.6012 125.258L28.4964 128.284L29.229 132.566C29.2575 132.727 29.2404 132.892 29.1796 133.044C29.1188 133.195 29.0167 133.326 28.885 133.423C28.7532 133.519 28.5971 133.576 28.4344 133.588C28.2716 133.6 28.1088 133.567 27.9643 133.491L24.1182 131.467L20.272 133.491C20.1454 133.558 20.0054 133.597 19.8621 133.604ZM24.1182 129.627C24.2587 129.627 24.397 129.663 24.5194 129.732L27.2056 131.136L26.6997 128.144C26.6758 128.006 26.6854 127.864 26.7279 127.731C26.7705 127.597 26.8445 127.476 26.9439 127.377L29.1243 125.258L26.1154 124.821C25.9757 124.8 25.8431 124.746 25.7292 124.662C25.6152 124.579 25.5233 124.469 25.4613 124.342L24.1182 121.621L22.7751 124.342C22.7131 124.469 22.6211 124.579 22.5072 124.662C22.3933 124.746 22.2607 124.8 22.121 124.821L19.1121 125.258L21.2837 127.377C21.3847 127.475 21.4604 127.596 21.5044 127.73C21.5485 127.863 21.5595 128.006 21.5366 128.144L21.0221 131.136L23.7083 129.732C23.8343 129.664 23.975 129.628 24.1182 129.627Z" fill="white" />
    <path d="M142.154 81.8508L144.308 86.2203L149.131 86.9267L145.642 90.3194L146.462 95.1249L142.154 92.8573L137.846 95.1249L138.665 90.3194L135.177 86.9267L140 86.2203L142.154 81.8508Z" fill="white" />
    <path d="M146.463 95.9968C146.323 95.9947 146.185 95.9587 146.062 95.8921L142.155 93.8426L138.247 95.9357C138.104 96.0117 137.943 96.0462 137.781 96.0354C137.619 96.0246 137.463 95.969 137.332 95.8747C137.196 95.7778 137.092 95.6441 137.03 95.4896C136.968 95.335 136.952 95.166 136.983 95.0025L137.733 90.6418L134.567 87.5631C134.452 87.449 134.371 87.3051 134.333 87.1474C134.295 86.9898 134.302 86.8247 134.352 86.6707C134.403 86.5167 134.496 86.3799 134.62 86.2756C134.744 86.1714 134.895 86.1038 135.055 86.0805L139.416 85.4438L141.37 81.4843C141.441 81.3368 141.553 81.2125 141.691 81.1255C141.83 81.0385 141.991 80.9923 142.155 80.9923C142.318 80.9923 142.479 81.0385 142.618 81.1255C142.757 81.2125 142.868 81.3368 142.939 81.4843L144.893 85.47L149.254 86.1067C149.414 86.13 149.565 86.1976 149.689 86.3018C149.813 86.4061 149.906 86.5429 149.957 86.6969C150.007 86.8509 150.014 87.016 149.976 87.1736C149.938 87.3312 149.857 87.4752 149.742 87.5893L146.576 90.668L147.326 95.0287C147.358 95.1922 147.341 95.3612 147.279 95.5157C147.218 95.6703 147.113 95.8039 146.978 95.9008C146.82 95.9848 146.64 96.0182 146.463 95.9968ZM142.155 91.9849C142.298 91.9856 142.439 92.0216 142.564 92.0896L145.312 93.5286L144.78 90.4674C144.757 90.3285 144.768 90.1862 144.812 90.0526C144.856 89.9189 144.932 89.7979 145.033 89.6999L147.257 87.5283L144.187 87.0835C144.047 87.0625 143.914 87.0079 143.8 86.9243C143.687 86.8407 143.595 86.7307 143.533 86.6038L142.155 83.8216L140.777 86.6038C140.715 86.7307 140.623 86.8407 140.509 86.9243C140.395 87.0079 140.262 87.0625 140.122 87.0835L137.053 87.5283L139.276 89.6999C139.377 89.7979 139.453 89.9189 139.497 90.0526C139.541 90.1862 139.552 90.3285 139.529 90.4674L138.997 93.5286L141.745 92.0896C141.871 92.0216 142.011 91.9856 142.155 91.9849Z" fill="white" />
    <path d="M42.6078 0.872192L44.7358 5.18059L49.4803 5.86958L46.044 9.21862L46.8551 13.9544L42.6078 11.7217L38.3517 13.9544L39.1628 9.21862L35.7266 5.86958L40.4797 5.18059L42.6078 0.872192Z" fill="white" />
    <path d="M46.8545 14.8265C46.714 14.8269 46.5757 14.7909 46.4533 14.7218L42.6072 12.7071L38.761 14.7218C38.6208 14.7937 38.4638 14.8262 38.3065 14.8159C38.1493 14.8057 37.9978 14.7531 37.8681 14.6636C37.7384 14.5742 37.6354 14.4512 37.5699 14.3079C37.5045 14.1646 37.4791 14.0063 37.4964 13.8497L38.229 9.56743L35.1155 6.49748C35.0034 6.3856 34.9238 6.24531 34.8854 6.09166C34.847 5.93801 34.8512 5.7768 34.8974 5.62533C34.948 5.47033 35.041 5.3326 35.1658 5.22777C35.2907 5.12295 35.4424 5.05522 35.6039 5.03228L39.9035 4.36072L41.8571 0.488403C41.9291 0.341618 42.0408 0.217999 42.1796 0.131644C42.3184 0.0452896 42.4786 -0.000325372 42.6421 1.74711e-06C42.8055 -0.000325372 42.9658 0.0452896 43.1046 0.131644C43.2434 0.217999 43.3551 0.341618 43.427 0.488403L45.3457 4.36072L49.6454 4.98867C49.8052 5.01312 49.9551 5.08153 50.0783 5.18626C50.2016 5.29099 50.2932 5.42791 50.3431 5.58173C50.3894 5.7332 50.3935 5.89441 50.3551 6.04806C50.3167 6.20171 50.2372 6.342 50.1251 6.45387L47.0202 9.48021L47.7528 13.7624C47.784 13.926 47.7677 14.095 47.7059 14.2495C47.644 14.404 47.5393 14.5377 47.404 14.6346C47.2482 14.7596 47.0542 14.8273 46.8545 14.8265ZM37.6011 6.48004L39.7727 8.59935C39.8737 8.69738 39.9494 8.81839 39.9934 8.95203C40.0375 9.08568 40.0485 9.22799 40.0256 9.36683L39.5111 12.3583L42.1973 10.9454C42.3224 10.8797 42.4615 10.8454 42.6028 10.8454C42.7441 10.8454 42.8833 10.8797 43.0084 10.9454L45.6946 12.3583L45.1887 9.36683C45.1647 9.2287 45.1744 9.08682 45.2169 8.95321C45.2594 8.81961 45.3335 8.69823 45.4329 8.59935L47.6046 6.48004L44.6044 6.04396C44.4647 6.02298 44.3321 5.96835 44.2182 5.8848C44.1042 5.80124 44.0123 5.69125 43.9503 5.56428L42.6072 2.84319L41.2641 5.56428C41.2021 5.69125 41.1101 5.80124 40.9962 5.8848C40.8822 5.96835 40.7497 6.02298 40.61 6.04396L37.6011 6.48004Z" fill="white" />
    <path d="M7.74743 53.2008L9.86674 57.5092L14.6199 58.1982L11.1837 61.5472L11.9948 66.283L7.74743 64.0503L3.49137 66.283L4.30246 61.5472L0.866211 58.1982L5.6194 57.5092L7.74743 53.2008Z" fill="white" />
    <path d="M11.9952 67.1552C11.852 67.1545 11.7112 67.1185 11.5852 67.0505L7.74781 65.0359L3.90165 67.0505C3.76144 67.1224 3.60438 67.1549 3.44717 67.1447C3.28995 67.1344 3.13844 67.0818 3.00874 66.9923C2.87905 66.9029 2.776 66.78 2.71055 66.6367C2.64511 66.4934 2.6197 66.335 2.63704 66.1784L3.36964 61.8962L0.256088 58.8262C0.14398 58.7143 0.0644527 58.5741 0.0260401 58.4204C-0.0123725 58.2668 -0.00822017 58.1055 0.0380515 57.9541C0.0886009 57.7991 0.181586 57.6613 0.306454 57.5565C0.431322 57.4517 0.583074 57.384 0.744489 57.361L5.04416 56.6895L6.9716 52.8171C7.04352 52.6704 7.15525 52.5467 7.29403 52.4604C7.43281 52.374 7.59307 52.3284 7.75653 52.3287C7.9185 52.33 8.07692 52.3764 8.21401 52.4627C8.35111 52.5489 8.46147 52.6717 8.53274 52.8171L10.4602 56.6895L14.7599 57.3174C14.9197 57.3419 15.0696 57.4103 15.1928 57.515C15.316 57.6197 15.4077 57.7566 15.4576 57.9105C15.5038 58.0619 15.508 58.2231 15.4696 58.3768C15.4312 58.5304 15.3516 58.6707 15.2395 58.7826L12.1173 61.8526L12.8586 66.1348C12.8897 66.2983 12.8734 66.4673 12.8116 66.6218C12.7498 66.7764 12.645 66.91 12.5097 67.0069C12.358 67.1091 12.178 67.161 11.9952 67.1552ZM2.7417 58.8088L4.91334 60.9281C5.01429 61.0261 5.09001 61.1471 5.13405 61.2808C5.1781 61.4144 5.18915 61.5567 5.16626 61.6956L4.6517 64.687L7.3379 63.2742C7.46299 63.2085 7.60216 63.1741 7.74345 63.1741C7.88474 63.1741 8.02391 63.2085 8.149 63.2742L10.8352 64.687L10.3206 61.6956C10.2978 61.5567 10.3088 61.4144 10.3528 61.2808C10.3969 61.1471 10.4726 61.0261 10.5736 60.9281L12.7452 58.8088L9.74502 58.3727C9.60529 58.3517 9.47275 58.2971 9.35881 58.2135C9.24486 58.13 9.15293 58.02 9.09091 57.893L7.74781 55.1719L6.40471 57.893C6.34188 58.0211 6.24859 58.1318 6.13303 58.2154C6.01747 58.299 5.88316 58.353 5.74188 58.3727L2.7417 58.8088Z" fill="white" />
</svg>