<svg width="150" height="142" viewBox="0 0 150 142" fill="none" xmlns="http://www.w3.org/2000/svg">
    <g clip-path="url(#clip0_316_11654)">
        <path d="M130.449 46.9101C125.792 36.0264 129.21 17.9653 119.757 10.849C110.6 3.94204 94.4052 12.131 82.257 10.6572C70.1087 9.18332 56.2425 -2.61609 45.7076 1.90135C34.8849 6.55832 33.8733 24.9159 26.7744 34.3868C19.8849 43.6048 2.44304 49.474 0.969203 61.692C-0.504634 73.9101 15.0448 83.8083 19.5535 94.3694C24.2105 105.262 20.7919 123.314 30.2454 130.43C39.4023 137.337 55.5971 129.148 67.789 130.622C79.9808 132.096 93.7599 143.904 104.295 139.343C115.161 134.686 116.129 116.329 123.228 106.858C130.117 97.6746 147.559 91.7705 149.033 79.5525C150.507 67.3345 134.958 57.4711 130.449 46.9101Z" fill="white" />
        <path d="M103.781 42.7322C103.78 37.5795 102.396 32.5216 99.7731 28.0864C97.1502 23.6513 93.3847 20.0017 88.8698 17.5188C84.3548 15.0358 79.256 13.8106 74.1059 13.971C68.9557 14.1314 63.9431 15.6715 59.5914 18.4306C55.2397 21.1897 51.7086 25.0665 49.3667 29.6563C47.0249 34.246 45.9583 39.3803 46.2782 44.523C46.5981 49.6657 48.2929 54.6282 51.1855 58.8923C54.0782 63.1564 58.0626 66.5657 62.7227 68.7642V76.0112L67.6936 80.9909L62.7227 85.9618L67.6936 90.9328L62.7227 95.9298L67.6936 100.901L62.7227 105.872L67.6936 110.851L62.7227 115.822L74.2343 127.325L87.3157 114.244V68.7642C92.2446 66.4308 96.409 62.7451 99.3241 58.1363C102.239 53.5276 103.785 48.1854 103.781 42.7322Z" fill="#1B71FF" />
        <path d="M79.3606 18.3138C85.9295 18.3062 92.302 20.5535 97.4129 24.6801C94.8843 21.5205 91.7179 18.9296 88.1202 17.0767C84.5225 15.2238 80.5745 14.1505 76.5338 13.9268C72.4932 13.7031 68.4508 14.3341 64.6706 15.7786C60.8904 17.2231 57.4573 19.4486 54.5955 22.3098C51.7336 25.171 49.5074 28.6036 48.0621 32.3836C46.6168 36.1635 45.9849 40.2057 46.2077 44.2464C46.4305 48.2871 47.503 52.2353 49.3551 55.8334C51.2073 59.4315 53.7974 62.5985 56.9565 65.1278C53.5567 60.8999 51.4211 55.7972 50.7962 50.4081C50.1712 45.019 51.0823 39.563 53.4243 34.6693C55.7663 29.7756 59.4438 25.6436 64.0328 22.7498C68.6218 19.8559 73.9353 18.3182 79.3606 18.3138Z" fill="white" />
        <path d="M74.2354 128.197C74.0066 128.196 73.7873 128.105 73.6249 127.944L62.1045 116.424C61.9421 116.26 61.8509 116.039 61.8509 115.809C61.8509 115.578 61.9421 115.357 62.1045 115.194L66.465 110.834L62.1045 106.473C61.9421 106.31 61.8509 106.089 61.8509 105.858C61.8509 105.628 61.9421 105.407 62.1045 105.243L66.465 100.883L62.1045 96.5225C61.9421 96.3591 61.8509 96.138 61.8509 95.9077C61.8509 95.6773 61.9421 95.4562 62.1045 95.2928L66.465 90.9324L62.1045 86.5719C62.0237 86.4904 61.9598 86.3938 61.9164 86.2875C61.873 86.1813 61.851 86.0675 61.8516 85.9527C61.851 85.8379 61.873 85.7242 61.9164 85.6179C61.9598 85.5117 62.0237 85.415 62.1045 85.3335L66.465 80.9731L62.1045 76.6126C62.0237 76.5311 61.9598 76.4345 61.9164 76.3282C61.873 76.222 61.851 76.1082 61.8516 75.9934V69.3045C56.9083 66.8403 52.7474 63.0503 49.8337 58.3578C46.9199 53.6654 45.3681 48.2552 45.3516 42.7318C45.3378 36.649 47.2084 30.7112 50.7063 25.7347C50.8383 25.5453 51.0401 25.416 51.2673 25.3751C51.4946 25.3342 51.7287 25.3851 51.9185 25.5167C52.0135 25.5821 52.0946 25.6657 52.157 25.7627C52.2195 25.8597 52.2621 25.9681 52.2824 26.0816C52.3027 26.1952 52.3002 26.3116 52.2752 26.4242C52.2501 26.5368 52.203 26.6433 52.1365 26.7376C48.845 31.4205 47.0841 37.0078 47.0958 42.7318C47.1121 48.0184 48.6223 53.1927 51.4522 57.6582C54.282 62.1237 58.3164 65.6984 63.09 67.9702C63.2414 68.0402 63.3695 68.1522 63.4592 68.2929C63.5488 68.4335 63.5962 68.597 63.5958 68.7638V75.6533L68.3139 80.3713C68.4763 80.5347 68.5674 80.7557 68.5674 80.9861C68.5674 81.2165 68.4763 81.4376 68.3139 81.601L63.9534 85.9614L68.3139 90.3219C68.4763 90.4853 68.5674 90.7063 68.5674 90.9367C68.5674 91.1671 68.4763 91.3882 68.3139 91.5516L63.9534 95.912L68.3139 100.272C68.3956 100.354 68.4605 100.45 68.5047 100.556C68.549 100.663 68.5718 100.777 68.5718 100.892C68.5718 101.007 68.549 101.121 68.5047 101.227C68.4605 101.333 68.3956 101.43 68.3139 101.511L63.9534 105.871L68.3139 110.232C68.3947 110.313 68.4586 110.41 68.502 110.516C68.5454 110.622 68.5674 110.736 68.5668 110.851C68.5658 111.08 68.475 111.299 68.3139 111.461L63.9534 115.822L74.2354 126.113L86.4447 113.903V73.9963C86.4447 73.765 86.5365 73.5432 86.7001 73.3797C86.8636 73.2161 87.0855 73.1242 87.3168 73.1242C87.548 73.1242 87.7699 73.2161 87.9334 73.3797C88.097 73.5432 88.1889 73.765 88.1889 73.9963V114.243C88.1856 114.473 88.0915 114.693 87.9272 114.854L74.8458 127.935C74.7643 128.016 74.6677 128.08 74.5614 128.123C74.4552 128.167 74.3414 128.189 74.2266 128.188L74.2354 128.197Z" fill="#34234D" />
        <path d="M87.29 69.6356C87.0897 69.6388 86.8944 69.5728 86.737 69.4489C86.5795 69.325 86.4696 69.1506 86.4256 68.9552C86.3816 68.7597 86.4062 68.5551 86.4953 68.3756C86.5845 68.1962 86.7327 68.0529 86.915 67.9699C92.65 65.2638 97.2924 60.6852 100.077 54.9881C102.863 49.2911 103.624 42.8154 102.237 36.6275C100.85 30.4397 97.3971 24.9088 92.4467 20.9457C87.4962 16.9826 81.3436 14.8237 75.0022 14.8246C67.8602 14.8145 60.9888 17.5568 55.8162 22.4815C55.7351 22.5633 55.6387 22.6282 55.5324 22.6724C55.4261 22.7167 55.3121 22.7395 55.197 22.7395C55.0819 22.7395 54.9679 22.7167 54.8616 22.6724C54.7553 22.6282 54.6589 22.5633 54.5778 22.4815C54.4154 22.3182 54.3242 22.0971 54.3242 21.8667C54.3242 21.6363 54.4154 21.4153 54.5778 21.2519C58.7814 17.2576 64.064 14.5836 69.7717 13.5607C75.4795 12.5378 81.3619 13.211 86.691 15.4968C92.0201 17.7827 96.562 21.581 99.7546 26.4217C102.947 31.2623 104.65 36.9329 104.653 42.7315C104.636 48.3491 103.031 53.8473 100.024 58.5921C97.0163 63.3369 92.7291 67.135 87.6563 69.5484C87.542 69.6038 87.417 69.6336 87.29 69.6356Z" fill="#34234D" />
        <path d="M78.3155 25.0723C79.5223 26.5809 80.1939 28.4476 80.225 30.3793C80.2561 32.311 79.6449 34.1983 78.4874 35.745C77.3298 37.2918 75.6914 38.4104 73.8293 38.9252C71.9673 39.4401 69.987 39.3221 68.1992 38.5897C69.031 39.6296 70.09 40.4653 71.2948 41.0325C72.4997 41.5997 73.8184 41.8835 75.1499 41.8621C76.4814 41.8406 77.7904 41.5146 78.9763 40.9088C80.1623 40.3031 81.1938 39.4338 81.9917 38.3676C82.7896 37.3014 83.3327 36.0667 83.5795 34.7581C83.8262 33.4494 83.77 32.1017 83.4151 30.8182C83.0602 29.5346 82.416 28.3494 81.5321 27.3534C80.6481 26.3574 79.5478 25.5771 78.3155 25.0723Z" fill="white" />
        <path d="M80.2346 30.5234C80.233 28.5413 79.5563 26.6188 78.316 25.0728C76.5282 24.3404 74.5479 24.2224 72.6859 24.7373C70.8238 25.2521 69.1854 26.3707 68.0278 27.9175C66.8703 29.4642 66.2591 31.3515 66.2902 33.2832C66.3213 35.2149 66.9929 37.0816 68.1997 38.5902C69.5243 39.1344 70.9625 39.344 72.3874 39.2005C73.8122 39.0571 75.1798 38.5649 76.3693 37.7676C77.5588 36.9703 78.5337 35.8923 79.2078 34.6289C79.882 33.3654 80.2346 31.9554 80.2346 30.5234Z" fill="white" />
        <path d="M74.9993 42.7329C73.102 42.7329 71.2472 42.1703 69.6697 41.1162C68.0921 40.0621 66.8626 38.5639 66.1365 36.811C65.4104 35.0581 65.2204 33.1293 65.5906 31.2684C65.9607 29.4075 66.8744 27.6982 68.216 26.3566C69.5576 25.015 71.2669 24.1014 73.1278 23.7312C74.9886 23.3611 76.9175 23.551 78.6704 24.2771C80.4233 25.0032 81.9215 26.2327 82.9756 27.8103C84.0297 29.3879 84.5923 31.2426 84.5923 33.1399C84.5923 34.3997 84.3442 35.6471 83.8621 36.811C83.38 37.9749 82.6734 39.0324 81.7826 39.9232C80.8918 40.814 79.8342 41.5206 78.6704 42.0027C77.5065 42.4848 76.259 42.7329 74.9993 42.7329ZM74.9993 25.2911C73.4469 25.2911 71.9294 25.7514 70.6387 26.6138C69.348 27.4763 68.342 28.7021 67.7479 30.1363C67.1538 31.5705 66.9984 33.1486 67.3013 34.6711C67.6041 36.1937 68.3516 37.5922 69.4493 38.6899C70.547 39.7875 71.9455 40.5351 73.468 40.8379C74.9906 41.1408 76.5687 40.9853 78.0029 40.3913C79.4371 39.7972 80.6629 38.7912 81.5253 37.5005C82.3878 36.2097 82.8481 34.6923 82.8481 33.1399C82.8481 31.0583 82.0212 29.0619 80.5492 27.5899C79.0773 26.118 77.0809 25.2911 74.9993 25.2911Z" fill="#34234D" />
        <path d="M60.9796 93.3145H39.2471C39.0158 93.3145 38.794 93.2226 38.6304 93.0591C38.4669 92.8955 38.375 92.6737 38.375 92.4424C38.375 92.2111 38.4669 91.9893 38.6304 91.8257C38.794 91.6622 39.0158 91.5703 39.2471 91.5703H60.9796C61.2109 91.5703 61.4328 91.6622 61.5963 91.8257C61.7599 91.9893 61.8517 92.2111 61.8517 92.4424C61.8517 92.6737 61.7599 92.8955 61.5963 93.0591C61.4328 93.2226 61.2109 93.3145 60.9796 93.3145Z" fill="#34234D" />
        <path d="M59.234 75.8719H49.7108C49.596 75.8726 49.4822 75.8506 49.376 75.8072C49.2697 75.7638 49.1731 75.6999 49.0916 75.619L42.9869 69.5144C42.9056 69.4331 42.8411 69.3365 42.7971 69.2303C42.7531 69.124 42.7305 69.0102 42.7305 68.8952C42.7305 68.7802 42.7531 68.6663 42.7971 68.5601C42.8411 68.4539 42.9056 68.3573 42.9869 68.276C43.0683 68.1947 43.1648 68.1302 43.271 68.0862C43.3773 68.0422 43.4911 68.0195 43.6061 68.0195C43.7211 68.0195 43.835 68.0422 43.9412 68.0862C44.0475 68.1302 44.144 68.1947 44.2253 68.276L50.0683 74.1277H59.234C59.4653 74.1277 59.6872 74.2196 59.8507 74.3832C60.0142 74.5467 60.1061 74.7685 60.1061 74.9998C60.1061 75.2311 60.0142 75.453 59.8507 75.6165C59.6872 75.7801 59.4653 75.8719 59.234 75.8719Z" fill="#34234D" />
        <path d="M60.1059 84.593H44.478C44.3632 84.5937 44.2495 84.5717 44.1432 84.5283C44.037 84.4849 43.9403 84.4209 43.8588 84.3401L38.0158 78.4883H27.0362C26.8049 78.4883 26.583 78.3965 26.4195 78.2329C26.2559 78.0694 26.1641 77.8475 26.1641 77.6162C26.1641 77.385 26.2559 77.1631 26.4195 76.9996C26.583 76.836 26.8049 76.7442 27.0362 76.7442H38.3734C38.4881 76.7435 38.6019 76.7655 38.7082 76.8089C38.8144 76.8523 38.9111 76.9162 38.9926 76.9971L44.8356 82.8488H60.1059C60.3372 82.8488 60.559 82.9407 60.7226 83.1042C60.8861 83.2678 60.978 83.4896 60.978 83.7209C60.978 83.9522 60.8861 84.174 60.7226 84.3376C60.559 84.5011 60.3372 84.593 60.1059 84.593Z" fill="#34234D" />
        <path d="M43.6076 116.861C43.4928 116.861 43.3791 116.839 43.2728 116.796C43.1666 116.752 43.0699 116.688 42.9884 116.608C42.9067 116.527 42.8418 116.43 42.7975 116.324C42.7533 116.218 42.7305 116.104 42.7305 115.988C42.7305 115.873 42.7533 115.759 42.7975 115.653C42.8418 115.547 42.9067 115.45 42.9884 115.369L49.0931 109.265C49.1746 109.184 49.2712 109.12 49.3775 109.076C49.4837 109.033 49.5975 109.011 49.7123 109.012H60.971C61.2023 109.012 61.4241 109.104 61.5877 109.267C61.7512 109.431 61.8431 109.653 61.8431 109.884C61.8431 110.115 61.7512 110.337 61.5877 110.5C61.4241 110.664 61.2023 110.756 60.971 110.756H50.0698L44.2268 116.608C44.1453 116.688 44.0487 116.752 43.9424 116.796C43.8362 116.839 43.7224 116.861 43.6076 116.861Z" fill="#34234D" />
        <path d="M38.3734 108.14H27.0362C26.8049 108.14 26.583 108.048 26.4195 107.884C26.2559 107.721 26.1641 107.499 26.1641 107.268C26.1641 107.036 26.2559 106.815 26.4195 106.651C26.583 106.488 26.8049 106.396 27.0362 106.396H38.0158L43.8588 100.544C43.9403 100.463 44.037 100.399 44.1432 100.356C44.2495 100.312 44.3632 100.29 44.478 100.291H49.7106C49.9419 100.291 50.1637 100.383 50.3272 100.546C50.4908 100.71 50.5827 100.932 50.5827 101.163C50.5827 101.394 50.4908 101.616 50.3272 101.78C50.1637 101.943 49.9419 102.035 49.7106 102.035H44.8356L38.9925 107.887C38.9111 107.968 38.8144 108.032 38.7082 108.075C38.6019 108.119 38.4881 108.141 38.3734 108.14Z" fill="#34234D" />
        <path d="M61.8417 102.035H54.0713C53.84 102.035 53.6182 101.943 53.4546 101.78C53.2911 101.616 53.1992 101.394 53.1992 101.163C53.1992 100.932 53.2911 100.71 53.4546 100.546C53.6182 100.383 53.84 100.291 54.0713 100.291H61.8765C62.1078 100.291 62.3297 100.383 62.4932 100.546C62.6568 100.71 62.7486 100.932 62.7486 101.163C62.7486 101.394 62.6568 101.616 62.4932 101.78C62.3297 101.943 62.1078 102.035 61.8765 102.035H61.8417Z" fill="#34234D" />
        <path d="M37.5013 89.826C37.8179 89.8297 38.1334 89.8648 38.4431 89.9306C38.0353 89.3505 37.4921 88.8786 36.8606 88.5559C36.2292 88.2331 35.5285 88.0693 34.8194 88.0785C34.1104 88.0877 33.4142 88.2697 32.7914 88.6088C32.1685 88.9478 31.6377 89.4336 31.2451 90.0242C30.8524 90.6147 30.6097 91.292 30.538 91.9976C30.4663 92.7031 30.5677 93.4154 30.8335 94.0729C31.0993 94.7303 31.5214 95.3131 32.0633 95.7705C32.6051 96.228 33.2504 96.5463 33.9431 96.6981C33.4833 96.0455 33.2115 95.2793 33.1572 94.4829C33.1029 93.6865 33.2683 92.8904 33.6354 92.1815C34.0024 91.4727 34.557 90.8781 35.2387 90.4628C35.9204 90.0474 36.703 89.8271 37.5013 89.826Z" fill="#2FC8F2" />
        <path d="M117.736 89.826C118.052 89.8297 118.368 89.8648 118.678 89.9306C118.27 89.3505 117.726 88.8786 117.095 88.5559C116.464 88.2331 115.763 88.0693 115.054 88.0785C114.345 88.0877 113.649 88.2697 113.026 88.6088C112.403 88.9478 111.872 89.4336 111.479 90.0242C111.087 90.6147 110.844 91.292 110.772 91.9976C110.701 92.7031 110.802 93.4154 111.068 94.0729C111.334 94.7303 111.756 95.3131 112.298 95.7705C112.84 96.228 113.485 96.5463 114.178 96.6981C113.718 96.0455 113.446 95.2793 113.392 94.4829C113.337 93.6865 113.503 92.8904 113.87 92.1815C114.237 91.4727 114.791 90.8781 115.473 90.4628C116.155 90.0474 116.937 89.8271 117.736 89.826Z" fill="#2FC8F2" />
        <path d="M108.943 69.6629C108.483 69.0104 108.211 68.2441 108.157 67.4477C108.103 66.6513 108.268 65.8553 108.635 65.1464C109.002 64.4375 109.557 63.843 110.239 63.4276C110.92 63.0123 111.703 62.792 112.501 62.7908C112.818 62.7945 113.133 62.8296 113.443 62.8955C113.035 62.3154 112.492 61.8435 111.861 61.5207C111.229 61.198 110.529 61.0341 109.819 61.0433C109.11 61.0525 108.414 61.2346 107.791 61.5736C107.169 61.9127 106.638 62.3985 106.245 62.989C105.852 63.5795 105.61 64.2569 105.538 64.9624C105.466 65.6679 105.568 66.3803 105.833 67.0377C106.099 67.6952 106.521 68.2779 107.063 68.7354C107.605 69.1928 108.25 69.5112 108.943 69.6629Z" fill="#2FC8F2" />
        <path d="M126.385 81.8719C125.925 81.2194 125.653 80.4531 125.599 79.6567C125.544 78.8603 125.71 78.0643 126.077 77.3554C126.444 76.6465 126.998 76.052 127.68 75.6366C128.362 75.2212 129.144 75.001 129.943 74.9998C130.259 75.0035 130.575 75.0386 130.885 75.1045C130.477 74.5244 129.933 74.0525 129.302 73.7297C128.671 73.407 127.97 73.2431 127.261 73.2523C126.552 73.2615 125.856 73.4436 125.233 73.7826C124.61 74.1216 124.079 74.6075 123.686 75.198C123.294 75.7885 123.051 76.4659 122.979 77.1714C122.908 77.8769 123.009 78.5893 123.275 79.2467C123.541 79.9042 123.963 80.4869 124.505 80.9443C125.047 81.4018 125.692 81.7202 126.385 81.8719Z" fill="#2FC8F2" />
        <path d="M42.7357 62.7908C43.0523 62.7945 43.3678 62.8296 43.6775 62.8955C43.2696 62.3154 42.7264 61.8435 42.095 61.5207C41.4635 61.198 40.7629 61.0341 40.0538 61.0433C39.3447 61.0525 38.6486 61.2346 38.0257 61.5736C37.4029 61.9127 36.8721 62.3985 36.4795 62.989C36.0868 63.5795 35.8441 64.2569 35.7724 64.9624C35.7006 65.6679 35.8021 66.3803 36.0679 67.0377C36.3336 67.6952 36.7558 68.2779 37.2976 68.7354C37.8395 69.1928 38.4848 69.5112 39.1775 69.6629C38.7177 69.0104 38.4459 68.2441 38.3916 67.4477C38.3373 66.6513 38.5027 65.8553 38.8698 65.1464C39.2368 64.4375 39.7914 63.843 40.4731 63.4276C41.1548 63.0123 41.9374 62.792 42.7357 62.7908Z" fill="#2FC8F2" />
        <path d="M25.2903 74.9998C25.607 75.0035 25.9225 75.0386 26.2322 75.1045C25.8243 74.5244 25.2811 74.0525 24.6497 73.7297C24.0182 73.407 23.3176 73.2431 22.6085 73.2523C21.8994 73.2615 21.2033 73.4436 20.5804 73.7826C19.9576 74.1216 19.4268 74.6075 19.0342 75.198C18.6415 75.7885 18.3988 76.4659 18.327 77.1714C18.2553 77.8769 18.3568 78.5893 18.6225 79.2467C18.8883 79.9042 19.3105 80.4869 19.8523 80.9443C20.3942 81.4018 21.0395 81.7202 21.7322 81.8719C21.2724 81.2194 21.0006 80.4531 20.9463 79.6567C20.892 78.8603 21.0574 78.0643 21.4244 77.3554C21.7915 76.6465 22.3461 76.052 23.0278 75.6366C23.7094 75.2212 24.4921 75.001 25.2903 74.9998Z" fill="#2FC8F2" />
        <path d="M42.7357 116.859C43.0523 116.863 43.3678 116.898 43.6775 116.964C43.2696 116.384 42.7264 115.912 42.095 115.589C41.4635 115.266 40.7629 115.102 40.0538 115.112C39.3447 115.121 38.6486 115.303 38.0257 115.642C37.4029 115.981 36.8721 116.467 36.4795 117.057C36.0868 117.648 35.8441 118.325 35.7724 119.031C35.7006 119.736 35.8021 120.449 36.0679 121.106C36.3336 121.764 36.7558 122.346 37.2976 122.804C37.8395 123.261 38.4848 123.58 39.1775 123.731C38.7177 123.079 38.4459 122.313 38.3916 121.516C38.3373 120.72 38.5027 119.924 38.8698 119.215C39.2368 118.506 39.7914 117.911 40.4731 117.496C41.1548 117.081 41.9374 116.86 42.7357 116.859Z" fill="#2FC8F2" />
        <path d="M25.2903 104.65C25.607 104.654 25.9225 104.689 26.2322 104.755C25.8243 104.175 25.2811 103.703 24.6497 103.38C24.0182 103.057 23.3176 102.893 22.6085 102.903C21.8994 102.912 21.2033 103.094 20.5804 103.433C19.9576 103.772 19.4268 104.258 19.0342 104.848C18.6415 105.439 18.3988 106.116 18.327 106.822C18.2553 107.527 18.3568 108.24 18.6225 108.897C18.8883 109.555 19.3105 110.137 19.8523 110.595C20.3942 111.052 21.0395 111.371 21.7322 111.522C21.2724 110.87 21.0006 110.104 20.9463 109.307C20.892 108.511 21.0574 107.715 21.4244 107.006C21.7915 106.297 22.3461 105.702 23.0278 105.287C23.7094 104.872 24.4921 104.651 25.2903 104.65Z" fill="#2FC8F2" />
        <path d="M112.501 116.859C112.818 116.863 113.133 116.898 113.443 116.964C113.035 116.384 112.492 115.912 111.861 115.589C111.229 115.266 110.529 115.102 109.819 115.112C109.11 115.121 108.414 115.303 107.791 115.642C107.169 115.981 106.638 116.467 106.245 117.057C105.852 117.648 105.61 118.325 105.538 119.031C105.466 119.736 105.568 120.449 105.833 121.106C106.099 121.764 106.521 122.346 107.063 122.804C107.605 123.261 108.25 123.58 108.943 123.731C108.483 123.079 108.211 122.313 108.157 121.516C108.103 120.72 108.268 119.924 108.635 119.215C109.002 118.506 109.557 117.911 110.239 117.496C110.92 117.081 111.703 116.86 112.501 116.859Z" fill="#2FC8F2" />
        <path d="M129.943 104.65C130.259 104.654 130.575 104.689 130.885 104.755C130.477 104.175 129.933 103.703 129.302 103.38C128.671 103.057 127.97 102.893 127.261 102.903C126.552 102.912 125.856 103.094 125.233 103.433C124.61 103.772 124.079 104.258 123.686 104.848C123.294 105.439 123.051 106.116 122.979 106.822C122.908 107.527 123.009 108.24 123.275 108.897C123.541 109.555 123.963 110.137 124.505 110.595C125.047 111.052 125.692 111.371 126.385 111.522C125.925 110.87 125.653 110.104 125.599 109.307C125.544 108.511 125.71 107.715 126.077 107.006C126.444 106.297 126.998 105.702 127.68 105.287C128.362 104.872 129.144 104.651 129.943 104.65Z" fill="#2FC8F2" />
        <path d="M39.2468 92.4425C39.2449 91.5425 38.9647 90.6652 38.4444 89.9308C38.1347 89.8649 37.8192 89.8299 37.5026 89.8262C36.7043 89.8273 35.9217 90.0476 35.24 90.463C34.5583 90.8783 34.0037 91.4729 33.6367 92.1817C33.2697 92.8906 33.1043 93.6866 33.1585 94.4831C33.2128 95.2795 33.4846 96.0457 33.9444 96.6983C34.2542 96.7642 34.5697 96.7992 34.8863 96.8029C36.0428 96.8029 37.1519 96.3435 37.9696 95.5258C38.7874 94.708 39.2468 93.5989 39.2468 92.4425Z" fill="#2FC8F2" />
        <path d="M119.477 92.4425C119.475 91.5425 119.195 90.6652 118.675 89.9308C118.365 89.8649 118.05 89.8299 117.733 89.8262C116.935 89.8273 116.152 90.0476 115.47 90.463C114.789 90.8783 114.234 91.4729 113.867 92.1817C113.5 92.8906 113.335 93.6866 113.389 94.4831C113.443 95.2795 113.715 96.0457 114.175 96.6983C114.485 96.7642 114.8 96.7992 115.117 96.8029C116.273 96.8029 117.382 96.3435 118.2 95.5258C119.018 94.708 119.477 93.5989 119.477 92.4425Z" fill="#2FC8F2" />
        <path d="M108.141 67.1515C108.142 68.0514 108.423 68.9288 108.943 69.6631C109.253 69.729 109.568 69.7641 109.885 69.7678C110.683 69.7666 111.466 69.5463 112.147 69.131C112.829 68.7156 113.384 68.1211 113.751 67.4122C114.118 66.7033 114.283 65.9073 114.229 65.1109C114.175 64.3144 113.903 63.5482 113.443 62.8957C113.133 62.8298 112.818 62.7947 112.501 62.791C111.345 62.791 110.236 63.2504 109.418 64.0682C108.6 64.8859 108.141 65.995 108.141 67.1515Z" fill="#2FC8F2" />
        <path d="M125.582 79.3605C125.584 80.2604 125.864 81.1377 126.384 81.8721C126.694 81.938 127.01 81.973 127.326 81.9767C128.124 81.9756 128.907 81.7553 129.589 81.34C130.27 80.9246 130.825 80.3301 131.192 79.6212C131.559 78.9123 131.725 78.1163 131.67 77.3199C131.616 76.5234 131.344 75.7572 130.884 75.1047C130.575 75.0388 130.259 75.0037 129.942 75C128.786 75 127.677 75.4594 126.859 76.2771C126.041 77.0949 125.582 78.204 125.582 79.3605Z" fill="#2FC8F2" />
        <path d="M44.4772 65.4073C44.4754 64.5074 44.1951 63.63 43.6749 62.8957C43.3652 62.8298 43.0497 62.7947 42.7331 62.791C41.9348 62.7922 41.1522 63.0124 40.4705 63.4278C39.7888 63.8432 39.2342 64.4377 38.8672 65.1466C38.5001 65.8555 38.3347 66.6515 38.389 67.4479C38.4433 68.2443 38.7151 69.0106 39.1749 69.6631C39.4846 69.729 39.8001 69.7641 40.1168 69.7678C41.2732 69.7678 42.3823 69.3084 43.2001 68.4906C44.0178 67.6729 44.4772 66.5638 44.4772 65.4073Z" fill="#2FC8F2" />
        <path d="M27.0358 77.6163C27.034 76.7163 26.7537 75.839 26.2335 75.1047C25.9238 75.0388 25.6083 75.0037 25.2916 75C24.4934 75.0012 23.7108 75.2214 23.0291 75.6368C22.3474 76.0522 21.7928 76.6467 21.4258 77.3556C21.0587 78.0644 20.8933 78.8605 20.9476 79.6569C21.0019 80.4533 21.2737 81.2195 21.7335 81.8721C22.0432 81.938 22.3587 81.973 22.6754 81.9767C23.8318 81.9767 24.9409 81.5173 25.7587 80.6996C26.5764 79.8819 27.0358 78.7727 27.0358 77.6163Z" fill="#2FC8F2" />
        <path d="M44.4772 119.476C44.4754 118.576 44.1951 117.698 43.6749 116.964C43.3652 116.898 43.0497 116.863 42.7331 116.859C41.9348 116.861 41.1522 117.081 40.4705 117.496C39.7888 117.912 39.2342 118.506 38.8672 119.215C38.5001 119.924 38.3347 120.72 38.389 121.516C38.4433 122.313 38.7151 123.079 39.1749 123.731C39.4846 123.797 39.8001 123.832 40.1168 123.836C41.2732 123.836 42.3823 123.377 43.2001 122.559C44.0178 121.741 44.4772 120.632 44.4772 119.476Z" fill="#2FC8F2" />
        <path d="M27.0358 107.267C27.034 106.367 26.7537 105.489 26.2335 104.755C25.9238 104.689 25.6083 104.654 25.2916 104.65C24.4934 104.652 23.7108 104.872 23.0291 105.287C22.3474 105.703 21.7928 106.297 21.4258 107.006C21.0587 107.715 20.8933 108.511 20.9476 109.307C21.0019 110.104 21.2737 110.87 21.7335 111.522C22.0432 111.588 22.3587 111.623 22.6754 111.627C23.8318 111.627 24.9409 111.168 25.7587 110.35C26.5764 109.532 27.0358 108.423 27.0358 107.267Z" fill="#2FC8F2" />
        <path d="M114.247 119.476C114.245 118.576 113.965 117.698 113.444 116.964C113.135 116.898 112.819 116.863 112.503 116.859C111.704 116.861 110.922 117.081 110.24 117.496C109.558 117.912 109.004 118.506 108.637 119.215C108.27 119.924 108.104 120.72 108.159 121.516C108.213 122.313 108.485 123.079 108.944 123.731C109.254 123.797 109.57 123.832 109.886 123.836C111.043 123.836 112.152 123.377 112.97 122.559C113.787 121.741 114.247 120.632 114.247 119.476Z" fill="#2FC8F2" />
        <path d="M131.688 107.267C131.686 106.367 131.406 105.489 130.886 104.755C130.576 104.689 130.261 104.654 129.944 104.65C129.146 104.652 128.363 104.872 127.681 105.287C127 105.703 126.445 106.297 126.078 107.006C125.711 107.715 125.546 108.511 125.6 109.307C125.654 110.104 125.926 110.87 126.386 111.522C126.696 111.588 127.011 111.623 127.328 111.627C128.484 111.627 129.593 111.168 130.411 110.35C131.229 109.532 131.688 108.423 131.688 107.267Z" fill="#2FC8F2" />
        <path d="M34.8849 97.6741C33.85 97.6741 32.8383 97.3672 31.9779 96.7923C31.1174 96.2173 30.4467 95.4001 30.0507 94.444C29.6546 93.4878 29.551 92.4357 29.7529 91.4207C29.9548 90.4057 30.4531 89.4734 31.1849 88.7416C31.9167 88.0098 32.8491 87.5114 33.8641 87.3095C34.8791 87.1076 35.9312 87.2113 36.8873 87.6073C37.8434 88.0033 38.6607 88.674 39.2356 89.5345C39.8106 90.395 40.1175 91.4066 40.1175 92.4415C40.1175 93.8293 39.5662 95.1602 38.5849 96.1415C37.6036 97.1228 36.2727 97.6741 34.8849 97.6741ZM34.8849 88.9532C34.195 88.9532 33.5205 89.1578 32.9469 89.5411C32.3732 89.9244 31.9261 90.4692 31.6621 91.1066C31.398 91.744 31.329 92.4454 31.4636 93.1221C31.5982 93.7988 31.9304 94.4203 32.4183 94.9082C32.9061 95.3961 33.5277 95.7283 34.2044 95.8629C34.881 95.9975 35.5824 95.9284 36.2198 95.6644C36.8573 95.4004 37.4021 94.9532 37.7854 94.3796C38.1687 93.8059 38.3733 93.1315 38.3733 92.4415C38.3733 91.5164 38.0058 90.6291 37.3516 89.9749C36.6974 89.3207 35.8101 88.9532 34.8849 88.9532Z" fill="#34234D" />
        <path d="M115.119 97.6741C114.084 97.6741 113.073 97.3672 112.212 96.7923C111.352 96.2173 110.681 95.4001 110.285 94.444C109.889 93.4878 109.785 92.4357 109.987 91.4207C110.189 90.4057 110.688 89.4734 111.419 88.7416C112.151 88.0098 113.083 87.5114 114.098 87.3095C115.113 87.1076 116.166 87.2113 117.122 87.6073C118.078 88.0033 118.895 88.674 119.47 89.5345C120.045 90.395 120.352 91.4066 120.352 92.4415C120.352 93.8293 119.801 95.1602 118.819 96.1415C117.838 97.1228 116.507 97.6741 115.119 97.6741ZM115.119 88.9532C114.429 88.9532 113.755 89.1578 113.181 89.5411C112.608 89.9244 112.16 90.4692 111.896 91.1066C111.632 91.744 111.563 92.4454 111.698 93.1221C111.833 93.7988 112.165 94.4203 112.653 94.9082C113.14 95.3961 113.762 95.7283 114.439 95.8629C115.115 95.9975 115.817 95.9284 116.454 95.6644C117.092 95.4004 117.636 94.9532 118.02 94.3796C118.403 93.8059 118.608 93.1315 118.608 92.4415C118.608 91.5164 118.24 90.6291 117.586 89.9749C116.932 89.3207 116.044 88.9532 115.119 88.9532Z" fill="#34234D" />
        <path d="M109.885 70.6389C108.85 70.6389 107.838 70.3321 106.978 69.7571C106.117 69.1821 105.447 68.3649 105.051 67.4088C104.655 66.4527 104.551 65.4006 104.753 64.3856C104.955 63.3706 105.453 62.4382 106.185 61.7064C106.917 60.9746 107.849 60.4763 108.864 60.2744C109.879 60.0725 110.931 60.1761 111.887 60.5721C112.843 60.9682 113.661 61.6388 114.236 62.4993C114.811 63.3598 115.117 64.3715 115.117 65.4064C115.117 66.7941 114.566 68.1251 113.585 69.1064C112.604 70.0877 111.273 70.6389 109.885 70.6389ZM109.885 61.918C109.195 61.918 108.521 62.1226 107.947 62.5059C107.373 62.8892 106.926 63.434 106.662 64.0714C106.398 64.7089 106.329 65.4103 106.464 66.0869C106.598 66.7636 106.93 67.3852 107.418 67.873C107.906 68.3609 108.528 68.6931 109.204 68.8277C109.881 68.9623 110.582 68.8932 111.22 68.6292C111.857 68.3652 112.402 67.9181 112.785 67.3444C113.169 66.7708 113.373 66.0963 113.373 65.4064C113.373 64.4812 113.006 63.5939 112.352 62.9397C111.697 62.2855 110.81 61.918 109.885 61.918Z" fill="#34234D" />
        <path d="M127.326 82.8479C126.291 82.8479 125.28 82.541 124.419 81.9661C123.559 81.3911 122.888 80.5739 122.492 79.6178C122.096 78.6617 121.992 77.6096 122.194 76.5946C122.396 75.5795 122.895 74.6472 123.626 73.9154C124.358 73.1836 125.29 72.6853 126.305 72.4834C127.32 72.2815 128.373 72.3851 129.329 72.7811C130.285 73.1772 131.102 73.8478 131.677 74.7083C132.252 75.5688 132.559 76.5805 132.559 77.6154C132.559 79.0031 132.008 80.3341 131.026 81.3153C130.045 82.2966 128.714 82.8479 127.326 82.8479ZM127.326 74.127C126.636 74.127 125.962 74.3316 125.388 74.7149C124.815 75.0982 124.368 75.643 124.103 76.2804C123.839 76.9178 123.77 77.6192 123.905 78.2959C124.04 78.9726 124.372 79.5942 124.86 80.082C125.348 80.5699 125.969 80.9021 126.646 81.0367C127.322 81.1713 128.024 81.1022 128.661 80.8382C129.299 80.5742 129.843 80.1271 130.227 79.5534C130.61 78.9797 130.815 78.3053 130.815 77.6154C130.815 76.6902 130.447 75.8029 129.793 75.1487C129.139 74.4945 128.251 74.127 127.326 74.127Z" fill="#34234D" />
        <path d="M40.1193 70.6389C39.0844 70.6389 38.0727 70.3321 37.2122 69.7571C36.3517 69.1821 35.6811 68.3649 35.285 67.4088C34.889 66.4527 34.7854 65.4006 34.9873 64.3856C35.1892 63.3706 35.6875 62.4382 36.4193 61.7064C37.1511 60.9746 38.0834 60.4763 39.0985 60.2744C40.1135 60.0725 41.1656 60.1761 42.1217 60.5721C43.0778 60.9682 43.895 61.6388 44.47 62.4993C45.045 63.3598 45.3518 64.3715 45.3518 65.4064C45.3518 66.7941 44.8006 68.1251 43.8193 69.1064C42.838 70.0877 41.507 70.6389 40.1193 70.6389ZM40.1193 61.918C39.4293 61.918 38.7549 62.1226 38.1812 62.5059C37.6076 62.8892 37.1605 63.434 36.8964 64.0714C36.6324 64.7089 36.5633 65.4103 36.6979 66.0869C36.8325 66.7636 37.1648 67.3852 37.6526 67.873C38.1405 68.3609 38.7621 68.6931 39.4387 68.8277C40.1154 68.9623 40.8168 68.8932 41.4542 68.6292C42.0916 68.3652 42.6364 67.9181 43.0198 67.3444C43.4031 66.7708 43.6077 66.0963 43.6077 65.4064C43.6077 64.4812 43.2401 63.5939 42.5859 62.9397C41.9317 62.2855 41.0445 61.918 40.1193 61.918Z" fill="#34234D" />
        <path d="M22.674 82.8479C21.6391 82.8479 20.6274 82.541 19.7669 81.9661C18.9064 81.3911 18.2358 80.5739 17.8397 79.6178C17.4437 78.6617 17.3401 77.6096 17.542 76.5946C17.7439 75.5795 18.2422 74.6472 18.974 73.9154C19.7058 73.1836 20.6381 72.6853 21.6531 72.4834C22.6682 72.2815 23.7203 72.3851 24.6764 72.7811C25.6325 73.1772 26.4497 73.8478 27.0247 74.7083C27.5996 75.5688 27.9065 76.5805 27.9065 77.6154C27.9065 79.0031 27.3552 80.3341 26.3739 81.3153C25.3926 82.2966 24.0617 82.8479 22.674 82.8479ZM22.674 74.127C21.984 74.127 21.3096 74.3316 20.7359 74.7149C20.1623 75.0982 19.7152 75.643 19.4511 76.2804C19.1871 76.9178 19.118 77.6192 19.2526 78.2959C19.3872 78.9726 19.7195 79.5942 20.2073 80.082C20.6952 80.5699 21.3167 80.9021 21.9934 81.0367C22.6701 81.1713 23.3715 81.1022 24.0089 80.8382C24.6463 80.5742 25.1911 80.1271 25.5744 79.5534C25.9577 78.9797 26.1623 78.3053 26.1623 77.6154C26.1623 76.6902 25.7948 75.8029 25.1406 75.1487C24.4864 74.4945 23.5991 74.127 22.674 74.127Z" fill="#34234D" />
        <path d="M40.1193 124.709C39.0844 124.709 38.0727 124.402 37.2122 123.827C36.3517 123.252 35.6811 122.435 35.285 121.479C34.889 120.523 34.7854 119.471 34.9873 118.456C35.1892 117.441 35.6875 116.509 36.4193 115.777C37.1511 115.045 38.0834 114.547 39.0985 114.345C40.1135 114.143 41.1656 114.246 42.1217 114.642C43.0778 115.038 43.895 115.709 44.47 116.57C45.045 117.43 45.3518 118.442 45.3518 119.477C45.3518 120.864 44.8006 122.195 43.8193 123.177C42.838 124.158 41.507 124.709 40.1193 124.709ZM40.1193 115.988C39.4293 115.988 38.7549 116.193 38.1812 116.576C37.6076 116.96 37.1605 117.504 36.8964 118.142C36.6324 118.779 36.5633 119.481 36.6979 120.157C36.8325 120.834 37.1648 121.455 37.6526 121.943C38.1405 122.431 38.7621 122.763 39.4387 122.898C40.1154 123.033 40.8168 122.964 41.4542 122.7C42.0916 122.435 42.6364 121.988 43.0198 121.415C43.4031 120.841 43.6077 120.167 43.6077 119.477C43.6077 118.552 43.2401 117.664 42.5859 117.01C41.9317 116.356 41.0445 115.988 40.1193 115.988Z" fill="#34234D" />
        <path d="M22.674 112.5C21.6391 112.5 20.6274 112.193 19.7669 111.618C18.9064 111.043 18.2358 110.226 17.8397 109.27C17.4437 108.314 17.3401 107.262 17.542 106.247C17.7439 105.232 18.2422 104.3 18.974 103.568C19.7058 102.836 20.6381 102.338 21.6531 102.136C22.6682 101.934 23.7203 102.037 24.6764 102.433C25.6325 102.83 26.4497 103.5 27.0247 104.361C27.5996 105.221 27.9065 106.233 27.9065 107.268C27.9065 108.655 27.3552 109.986 26.3739 110.968C25.3926 111.949 24.0617 112.5 22.674 112.5ZM22.674 103.779C21.984 103.779 21.3096 103.984 20.7359 104.367C20.1623 104.751 19.7152 105.295 19.4511 105.933C19.1871 106.57 19.118 107.272 19.2526 107.948C19.3872 108.625 19.7195 109.247 20.2073 109.734C20.6952 110.222 21.3167 110.554 21.9934 110.689C22.6701 110.824 23.3715 110.755 24.0089 110.491C24.6463 110.227 25.1911 109.779 25.5744 109.206C25.9577 108.632 26.1623 107.958 26.1623 107.268C26.1623 106.343 25.7948 105.455 25.1406 104.801C24.4864 104.147 23.5991 103.779 22.674 103.779Z" fill="#34234D" />
        <path d="M109.885 124.709C108.85 124.709 107.838 124.402 106.978 123.827C106.117 123.252 105.447 122.435 105.051 121.479C104.655 120.523 104.551 119.471 104.753 118.456C104.955 117.441 105.453 116.509 106.185 115.777C106.917 115.045 107.849 114.547 108.864 114.345C109.879 114.143 110.931 114.246 111.887 114.642C112.843 115.038 113.661 115.709 114.236 116.57C114.811 117.43 115.117 118.442 115.117 119.477C115.117 120.864 114.566 122.195 113.585 123.177C112.604 124.158 111.273 124.709 109.885 124.709ZM109.885 115.988C109.195 115.988 108.521 116.193 107.947 116.576C107.373 116.96 106.926 117.504 106.662 118.142C106.398 118.779 106.329 119.481 106.464 120.157C106.598 120.834 106.93 121.455 107.418 121.943C107.906 122.431 108.528 122.763 109.204 122.898C109.881 123.033 110.582 122.964 111.22 122.7C111.857 122.435 112.402 121.988 112.785 121.415C113.169 120.841 113.373 120.167 113.373 119.477C113.373 118.552 113.006 117.664 112.352 117.01C111.697 116.356 110.81 115.988 109.885 115.988Z" fill="#34234D" />
        <path d="M127.326 112.5C126.291 112.5 125.28 112.193 124.419 111.618C123.559 111.043 122.888 110.226 122.492 109.27C122.096 108.314 121.992 107.262 122.194 106.247C122.396 105.232 122.895 104.3 123.626 103.568C124.358 102.836 125.29 102.338 126.305 102.136C127.32 101.934 128.373 102.037 129.329 102.433C130.285 102.83 131.102 103.5 131.677 104.361C132.252 105.221 132.559 106.233 132.559 107.268C132.559 108.655 132.008 109.986 131.026 110.968C130.045 111.949 128.714 112.5 127.326 112.5ZM127.326 103.779C126.636 103.779 125.962 103.984 125.388 104.367C124.815 104.751 124.368 105.295 124.103 105.933C123.839 106.57 123.77 107.272 123.905 107.948C124.04 108.625 124.372 109.247 124.86 109.734C125.348 110.222 125.969 110.554 126.646 110.689C127.322 110.824 128.024 110.755 128.661 110.491C129.299 110.227 129.843 109.779 130.227 109.206C130.61 108.632 130.815 107.958 130.815 107.268C130.815 106.343 130.447 105.455 129.793 104.801C129.139 104.147 128.251 103.779 127.326 103.779Z" fill="#34234D" />
        <path d="M110.756 93.3145H102.907C102.676 93.3145 102.454 93.2226 102.291 93.0591C102.127 92.8955 102.035 92.6737 102.035 92.4424C102.035 92.2111 102.127 91.9893 102.291 91.8257C102.454 91.6622 102.676 91.5703 102.907 91.5703H110.756C110.987 91.5703 111.209 91.6622 111.373 91.8257C111.536 91.9893 111.628 92.2111 111.628 92.4424C111.628 92.6737 111.536 92.8955 111.373 93.0591C111.209 93.2226 110.987 93.3145 110.756 93.3145Z" fill="#34234D" />
        <path d="M98.5491 93.3145H90.7002C90.4689 93.3145 90.2471 93.2226 90.0836 93.0591C89.92 92.8955 89.8281 92.6737 89.8281 92.4424C89.8281 92.2111 89.92 91.9893 90.0836 91.8257C90.2471 91.6622 90.4689 91.5703 90.7002 91.5703H98.5491C98.7803 91.5703 99.0022 91.6622 99.1657 91.8257C99.3293 91.9893 99.4211 92.2111 99.4211 92.4424C99.4211 92.6737 99.3293 92.8955 99.1657 93.0591C99.0022 93.2226 98.7803 93.3145 98.5491 93.3145Z" fill="#34234D" />
        <path d="M100.293 75.8719H90.7783C90.547 75.8719 90.3252 75.7801 90.1617 75.6165C89.9981 75.453 89.9062 75.2311 89.9062 74.9998C89.9062 74.7685 89.9981 74.5467 90.1617 74.3832C90.3252 74.2196 90.547 74.1277 90.7783 74.1277H99.9353L105.778 68.276C105.943 68.1118 106.165 68.0195 106.398 68.0195C106.63 68.0195 106.852 68.1118 107.017 68.276C107.181 68.4402 107.273 68.663 107.273 68.8952C107.273 69.1274 107.181 69.3502 107.017 69.5144L100.912 75.619C100.831 75.6999 100.734 75.7638 100.628 75.8072C100.521 75.8506 100.408 75.8726 100.293 75.8719Z" fill="#34234D" />
        <path d="M105.525 84.593H90.7783C90.547 84.593 90.3252 84.5011 90.1617 84.3376C89.9981 84.174 89.9062 83.9522 89.9062 83.7209C89.9062 83.4896 89.9981 83.2678 90.1617 83.1042C90.3252 82.9407 90.547 82.8488 90.7783 82.8488H105.168L111.011 76.9971C111.092 76.9162 111.189 76.8523 111.295 76.8089C111.402 76.7655 111.515 76.7435 111.63 76.7442H122.967C123.199 76.7442 123.42 76.836 123.584 76.9996C123.748 77.1631 123.839 77.385 123.839 77.6162C123.839 77.8475 123.748 78.0694 123.584 78.2329C123.42 78.3965 123.199 78.4883 122.967 78.4883H111.988L106.145 84.3401C106.063 84.4209 105.966 84.4849 105.86 84.5283C105.754 84.5717 105.64 84.5937 105.525 84.593Z" fill="#34234D" />
        <path d="M106.398 116.861C106.283 116.861 106.169 116.839 106.063 116.796C105.956 116.752 105.86 116.688 105.778 116.608L99.9353 110.756H90.7783C90.547 110.756 90.3252 110.664 90.1617 110.5C89.9981 110.337 89.9062 110.115 89.9062 109.884C89.9062 109.653 89.9981 109.431 90.1617 109.267C90.3252 109.104 90.547 109.012 90.7783 109.012H100.293C100.408 109.011 100.521 109.033 100.628 109.076C100.734 109.12 100.831 109.184 100.912 109.265L107.017 115.369C107.098 115.45 107.163 115.547 107.208 115.653C107.252 115.759 107.275 115.873 107.275 115.988C107.275 116.104 107.252 116.218 107.208 116.324C107.163 116.43 107.098 116.527 107.017 116.608C106.935 116.688 106.839 116.752 106.732 116.796C106.626 116.839 106.512 116.861 106.398 116.861Z" fill="#34234D" />
        <path d="M122.967 108.14H111.63C111.515 108.141 111.402 108.119 111.295 108.075C111.189 108.032 111.092 107.968 111.011 107.887L105.168 102.035H90.7783C90.547 102.035 90.3252 101.943 90.1617 101.78C89.9981 101.616 89.9062 101.394 89.9062 101.163C89.9062 100.932 89.9981 100.71 90.1617 100.546C90.3252 100.383 90.547 100.291 90.7783 100.291H105.525C105.64 100.29 105.754 100.312 105.86 100.356C105.966 100.399 106.063 100.463 106.145 100.544L111.988 106.396H122.967C123.199 106.396 123.42 106.488 123.584 106.651C123.748 106.815 123.839 107.036 123.839 107.268C123.839 107.499 123.748 107.721 123.584 107.884C123.42 108.048 123.199 108.14 122.967 108.14Z" fill="#34234D" />
        <path d="M74.9995 118.169C74.6526 118.169 74.3199 118.031 74.0746 117.786C73.8292 117.541 73.6914 117.208 73.6914 116.861V72.3843C73.6914 72.0374 73.8292 71.7046 74.0746 71.4593C74.3199 71.214 74.6526 71.0762 74.9995 71.0762C75.3465 71.0762 75.6792 71.214 75.9245 71.4593C76.1699 71.7046 76.3077 72.0374 76.3077 72.3843V116.861C76.3077 117.208 76.1699 117.541 75.9245 117.786C75.6792 118.031 75.3465 118.169 74.9995 118.169Z" fill="white" />
        <path d="M149.13 57.5585C149.015 57.5591 148.901 57.5372 148.795 57.4938C148.689 57.4504 148.592 57.3864 148.511 57.3056L141.534 50.3288C141.37 50.1646 141.277 49.9419 141.277 49.7096C141.277 49.4774 141.37 49.2547 141.534 49.0905C141.698 48.9262 141.921 48.834 142.153 48.834C142.385 48.834 142.608 48.9262 142.772 49.0905L149.749 56.0672C149.831 56.1483 149.896 56.2447 149.94 56.351C149.984 56.4573 150.007 56.5713 150.007 56.6864C150.007 56.8015 149.984 56.9155 149.94 57.0218C149.896 57.128 149.831 57.2245 149.749 57.3056C149.667 57.3864 149.571 57.4504 149.465 57.4938C149.358 57.5372 149.245 57.5591 149.13 57.5585Z" fill="white" />
        <path d="M142.151 57.5585C142.036 57.5591 141.922 57.5372 141.816 57.4938C141.71 57.4504 141.613 57.3864 141.531 57.3056C141.45 57.2245 141.385 57.128 141.341 57.0218C141.296 56.9155 141.273 56.8015 141.273 56.6864C141.273 56.5713 141.296 56.4573 141.341 56.351C141.385 56.2447 141.45 56.1483 141.531 56.0672L148.508 49.0905C148.589 49.0091 148.686 48.9446 148.792 48.9006C148.898 48.8566 149.012 48.834 149.127 48.834C149.242 48.834 149.356 48.8566 149.462 48.9006C149.569 48.9446 149.665 49.0091 149.747 49.0905C149.828 49.1718 149.892 49.2683 149.936 49.3745C149.98 49.4808 150.003 49.5947 150.003 49.7096C150.003 49.8246 149.98 49.9385 149.936 50.0447C149.892 50.151 149.828 50.2475 149.747 50.3288L142.77 57.3056C142.688 57.3864 142.592 57.4504 142.485 57.4938C142.379 57.5372 142.265 57.5591 142.151 57.5585Z" fill="white" />
        <path d="M68.0243 141.279C67.9095 141.28 67.7957 141.258 67.6895 141.214C67.5832 141.171 67.4866 141.107 67.4051 141.026L60.4283 134.05C60.2641 133.885 60.1719 133.663 60.1719 133.43C60.1719 133.198 60.2641 132.975 60.4283 132.811C60.5926 132.647 60.8153 132.555 61.0475 132.555C61.2798 132.555 61.5025 132.647 61.6667 132.811L68.6435 139.788C68.7252 139.869 68.7901 139.965 68.8344 140.072C68.8786 140.178 68.9014 140.292 68.9014 140.407C68.9014 140.522 68.8786 140.636 68.8344 140.742C68.7901 140.849 68.7252 140.945 68.6435 141.026C68.562 141.107 68.4653 141.171 68.3591 141.214C68.2528 141.258 68.1391 141.28 68.0243 141.279Z" fill="white" />
        <path d="M61.049 141.279C60.9343 141.28 60.8205 141.258 60.7142 141.214C60.608 141.171 60.5113 141.107 60.4298 141.026C60.3481 140.945 60.2832 140.849 60.2389 140.742C60.1947 140.636 60.1719 140.522 60.1719 140.407C60.1719 140.292 60.1947 140.178 60.2389 140.072C60.2832 139.965 60.3481 139.869 60.4298 139.788L67.4066 132.811C67.5708 132.647 67.7935 132.555 68.0258 132.555C68.258 132.555 68.4807 132.647 68.645 132.811C68.8092 132.975 68.9014 133.198 68.9014 133.43C68.9014 133.663 68.8092 133.885 68.645 134.05L61.6682 141.026C61.5867 141.107 61.4901 141.171 61.3838 141.214C61.2776 141.258 61.1638 141.28 61.049 141.279Z" fill="white" />
        <path d="M138.665 125.582C138.55 125.583 138.436 125.561 138.33 125.517C138.224 125.474 138.127 125.41 138.046 125.329L131.069 118.352C130.905 118.188 130.812 117.965 130.812 117.733C130.812 117.501 130.905 117.278 131.069 117.114C131.233 116.95 131.456 116.857 131.688 116.857C131.92 116.857 132.143 116.95 132.307 117.114L139.284 124.091C139.366 124.172 139.431 124.268 139.475 124.374C139.519 124.481 139.542 124.595 139.542 124.71C139.542 124.825 139.519 124.939 139.475 125.045C139.431 125.151 139.366 125.248 139.284 125.329C139.203 125.41 139.106 125.474 139 125.517C138.893 125.561 138.78 125.583 138.665 125.582Z" fill="white" />
        <path d="M131.686 125.582C131.571 125.583 131.457 125.561 131.351 125.517C131.245 125.474 131.148 125.41 131.067 125.329C130.985 125.248 130.92 125.151 130.876 125.045C130.831 124.939 130.809 124.825 130.809 124.71C130.809 124.595 130.831 124.481 130.876 124.374C130.92 124.268 130.985 124.172 131.067 124.091L138.043 117.114C138.208 116.95 138.43 116.857 138.662 116.857C138.895 116.857 139.117 116.95 139.282 117.114C139.446 117.278 139.538 117.501 139.538 117.733C139.538 117.965 139.446 118.188 139.282 118.352L132.305 125.329C132.223 125.41 132.127 125.474 132.021 125.517C131.914 125.561 131.801 125.583 131.686 125.582Z" fill="white" />
        <path d="M7.8485 90.6972C7.73373 90.6978 7.61995 90.6758 7.5137 90.6324C7.40744 90.589 7.3108 90.5251 7.22931 90.4442L0.252569 83.4675C0.0883506 83.3033 -0.00390626 83.0806 -0.00390625 82.8483C-0.00390624 82.6161 0.0883507 82.3933 0.252569 82.2291C0.416787 82.0649 0.639515 81.9727 0.871755 81.9727C1.10399 81.9727 1.32672 82.0649 1.49094 82.2291L8.46768 89.2059C8.54943 89.2869 8.6143 89.3834 8.65858 89.4897C8.70285 89.5959 8.72565 89.7099 8.72565 89.8251C8.72565 89.9402 8.70285 90.0542 8.65858 90.1604C8.6143 90.2667 8.54943 90.3632 8.46768 90.4442C8.3862 90.5251 8.28955 90.589 8.1833 90.6324C8.07705 90.6758 7.96327 90.6978 7.8485 90.6972Z" fill="white" />
        <path d="M0.873243 90.6974C0.75847 90.6981 0.644695 90.6761 0.538441 90.6327C0.432188 90.5893 0.335546 90.5253 0.254057 90.4445C0.172317 90.3634 0.107439 90.267 0.0631637 90.1607C0.0188887 90.0544 -0.00390625 89.9404 -0.00390625 89.8253C-0.00390625 89.7102 0.0188887 89.5962 0.0631637 89.4899C0.107439 89.3836 0.172317 89.2872 0.254057 89.2061L7.2308 82.2294C7.31211 82.1481 7.40865 82.0836 7.51489 82.0396C7.62113 81.9955 7.73499 81.9729 7.84999 81.9729C7.96498 81.9729 8.07885 81.9955 8.18509 82.0396C8.29133 82.0836 8.38786 82.1481 8.46917 82.2294C8.55049 82.3107 8.61499 82.4072 8.65899 82.5135C8.703 82.6197 8.72565 82.7336 8.72565 82.8486C8.72565 82.9636 8.703 83.0774 8.65899 83.1837C8.61499 83.2899 8.55049 83.3864 8.46917 83.4677L1.49243 90.4445C1.41094 90.5253 1.3143 90.5893 1.20805 90.6327C1.10179 90.6761 0.988017 90.6981 0.873243 90.6974Z" fill="white" />
        <path d="M30.5243 18.3143C30.4095 18.315 30.2957 18.293 30.1895 18.2496C30.0832 18.2062 29.9866 18.1423 29.9051 18.0614L22.9284 11.0847C22.847 11.0034 22.7825 10.9068 22.7385 10.8006C22.6945 10.6944 22.6719 10.5805 22.6719 10.4655C22.6719 10.2333 22.7641 10.0105 22.9284 9.84632C23.0926 9.6821 23.3153 9.58984 23.5475 9.58984C23.6625 9.58984 23.7764 9.61249 23.8826 9.6565C23.9889 9.70051 24.0854 9.76501 24.1667 9.84632L31.1435 16.8231C31.2252 16.9041 31.2901 17.0006 31.3344 17.1069C31.3786 17.2131 31.4014 17.3271 31.4014 17.4422C31.4014 17.5574 31.3786 17.6714 31.3344 17.7776C31.2901 17.8839 31.2252 17.9804 31.1435 18.0614C31.062 18.1423 30.9653 18.2062 30.8591 18.2496C30.7528 18.293 30.6391 18.315 30.5243 18.3143Z" fill="white" />
        <path d="M23.549 18.3143C23.4343 18.315 23.3205 18.293 23.2142 18.2496C23.108 18.2062 23.0113 18.1423 22.9298 18.0614C22.8481 17.9804 22.7832 17.8839 22.7389 17.7776C22.6947 17.6714 22.6719 17.5574 22.6719 17.4422C22.6719 17.3271 22.6947 17.2131 22.7389 17.1069C22.7832 17.0006 22.8481 16.9041 22.9298 16.8231L29.9066 9.84632C30.0708 9.6821 30.2935 9.58984 30.5258 9.58984C30.758 9.58984 30.9807 9.6821 31.145 9.84632C31.3092 10.0105 31.4014 10.2333 31.4014 10.4655C31.4014 10.6977 31.3092 10.9205 31.145 11.0847L24.1682 18.0614C24.0867 18.1423 23.9901 18.2062 23.8838 18.2496C23.7776 18.293 23.6638 18.315 23.549 18.3143Z" fill="white" />
        <path d="M90.7001 8.72059C90.5853 8.72126 90.4715 8.69926 90.3653 8.65586C90.259 8.61246 90.1624 8.54851 90.0809 8.46768L83.1041 1.49094C82.9399 1.32672 82.8477 1.10399 82.8477 0.871755C82.8477 0.639515 82.9399 0.416787 83.1041 0.252569C83.2683 0.0883506 83.4911 -0.00390625 83.7233 -0.00390625C83.9556 -0.00390625 84.1783 0.0883506 84.3425 0.252569L91.3192 7.22931C91.401 7.31039 91.4659 7.40684 91.5101 7.51311C91.5544 7.61938 91.5772 7.73337 91.5772 7.8485C91.5772 7.96363 91.5544 8.07761 91.5101 8.18389C91.4659 8.29016 91.401 8.38661 91.3192 8.46768C91.2378 8.54851 91.1411 8.61246 91.0349 8.65586C90.9286 8.69926 90.8148 8.72126 90.7001 8.72059Z" fill="white" />
        <path d="M83.7209 8.72059C83.6061 8.72126 83.4924 8.69926 83.3861 8.65586C83.2798 8.61246 83.1832 8.54851 83.1017 8.46768C83.02 8.38661 82.9551 8.29016 82.9108 8.18389C82.8665 8.07761 82.8438 7.96363 82.8438 7.8485C82.8438 7.73337 82.8665 7.61938 82.9108 7.51311C82.9551 7.40684 83.02 7.31039 83.1017 7.22931L90.0785 0.252569C90.2427 0.0883506 90.4654 -0.00390626 90.6976 -0.00390625C90.9299 -0.00390624 91.1526 0.0883507 91.3168 0.252569C91.481 0.416787 91.5733 0.639515 91.5733 0.871755C91.5733 1.10399 91.481 1.32672 91.3168 1.49094L84.3401 8.46768C84.2586 8.54851 84.162 8.61246 84.0557 8.65586C83.9494 8.69926 83.8357 8.72126 83.7209 8.72059Z" fill="white" />
    </g>
    <defs>
        <clipPath id="clip0_316_11654">
            <rect width="150" height="141.279" fill="white" />
        </clipPath>
    </defs>
</svg>