<svg width="60" height="49" viewBox="0 0 60 49" fill="none" xmlns="http://www.w3.org/2000/svg">
<path fill-rule="evenodd" clip-rule="evenodd" d="M21.7091 28.7166C22.7347 27.8051 23.1904 27.5203 23.5895 27.5203C23.8742 27.5203 24.273 27.691 24.5581 27.8624L24.1023 28.888L23.9886 28.8306C23.4188 28.5459 23.1338 28.4319 22.849 28.4319C22.5073 28.4319 22.1655 28.6032 21.7094 29.0587V31.794C21.7094 32.6488 21.8231 32.8769 22.4503 32.8769H22.621V33.1043H19.715V32.8769H19.8287C20.4555 32.8769 20.6262 32.6488 20.6262 31.794V28.888C20.6262 28.0905 20.4555 27.9764 19.7717 27.9764H19.5439V27.691L21.7091 27.5203V28.7166ZM42.2217 26.2094H41.937V26.096C41.7663 25.4122 41.5956 25.0701 41.1962 24.785C40.8548 24.5003 40.4553 24.3863 39.9999 24.3863C39.0884 24.3863 38.4042 24.9561 38.4042 25.7539C38.4042 26.2094 38.6322 26.6655 38.9743 27.0076C39.2017 27.1783 39.4871 27.4063 39.7145 27.577C39.9425 27.691 40.2846 27.9191 40.7407 28.2038C41.4816 28.6599 41.823 28.9447 42.1084 29.2867C42.5071 29.7428 42.6778 30.2556 42.6778 30.8251C42.6778 32.1927 41.5956 33.3323 40.1706 33.3323C39.7145 33.3323 39.4871 33.2756 38.7463 33.0476C38.4042 32.9336 38.2335 32.8769 38.1761 32.8769C38.0054 32.8769 37.9481 32.9909 37.8341 33.2183H37.6067V30.8251H37.8341V30.9965C38.0054 31.794 38.1761 32.136 38.6322 32.5348C39.031 32.8195 39.4871 32.9909 39.9425 32.9909C41.0255 32.9909 41.7089 32.3641 41.7089 31.3952C41.7089 30.8251 41.5382 30.4837 40.9681 30.0276C40.6834 29.7995 40.3413 29.5148 39.9425 29.2867C39.3731 28.9447 39.031 28.7166 38.8029 28.5459C38.6322 28.4319 38.4042 28.2038 38.1761 27.9764C37.8341 27.5203 37.6067 26.9502 37.6067 26.3807C37.6067 25.0131 38.6322 24.1016 39.9999 24.1016C40.4553 24.1016 40.7407 24.1016 41.2535 24.2723C41.5382 24.3863 41.6523 24.4433 41.7663 24.4433C41.8803 24.4433 41.937 24.3863 41.9943 24.2156V24.1586H42.2217V26.2094ZM37.0365 32.1357C37.0365 32.7625 36.5811 33.2753 35.9543 33.2753C35.5549 33.2753 35.2702 33.0472 35.0421 32.5345C34.5293 33.0472 34.1872 33.2753 33.6178 33.2753C32.7629 33.2753 32.0221 32.5911 32.0221 31.7936C32.0221 31.0528 32.5349 30.5967 33.8458 30.2553C34.6433 30.0272 34.814 29.9706 35.0421 29.7992V29.4004C35.0421 28.6596 34.5867 28.0901 33.8458 28.0901C33.219 28.0901 32.7629 28.4315 32.4208 29.1157L32.3642 29.2864L32.1361 29.1724C32.3642 28.2035 33.1617 27.52 34.1306 27.52C34.8714 27.52 35.5549 27.8621 35.8403 28.4315C36.0683 28.7736 36.125 29.0583 36.125 29.7992V31.8503C36.125 32.4778 36.1817 32.6485 36.4097 32.6485C36.5811 32.6485 36.6945 32.4778 36.8085 32.1357H37.0365ZM35.1561 30.1413C34.9281 30.2553 34.8714 30.312 34.5293 30.426C33.5038 30.7681 33.219 30.9961 33.219 31.6796C33.219 32.2497 33.6178 32.7052 34.0739 32.7052C34.4726 32.7052 34.8714 32.4778 35.1561 32.0217V30.1413ZM30.028 29.002V32.136C30.028 32.6488 29.8003 32.8769 29.2871 32.8769H29.0024V33.1043H31.9654V32.8769C31.1672 32.8769 31.0539 32.7055 31.0539 31.794V27.4637L29.7999 27.577H26.6662C25.3556 27.577 24.387 28.4892 24.387 29.7428C24.387 30.8251 24.9568 31.5659 26.0964 31.8506V31.908C24.8428 32.3641 24.387 32.7629 24.387 33.4463C24.387 33.9024 24.7858 34.3012 25.5266 34.4719C24.159 35.1561 23.8172 35.4981 23.8172 36.1816C23.8172 37.2072 24.8998 37.834 26.4955 37.834C28.3756 37.834 29.8003 36.8651 29.8003 35.6115C29.8003 34.814 29.2305 34.3012 27.9768 34.0165L26.7232 33.7884C25.4699 33.5604 25.1849 33.3897 25.1849 32.9909C25.1849 32.5915 25.8684 32.136 26.7232 31.9647C28.0339 31.908 29.0027 30.9965 29.0027 29.7428C29.0027 29.2301 28.7747 28.6599 28.3759 28.2038C28.3759 28.2038 28.604 28.0331 29.0027 28.0331H29.2875C29.8003 28.0331 30.0283 28.2612 30.0283 28.7166L30.028 29.002ZM26.3245 34.6429L27.35 34.871C28.9454 35.2124 29.3441 35.4404 29.3441 36.0673C29.3441 36.7507 28.5466 37.2642 27.35 37.2642C25.7547 37.2642 24.5581 36.6941 24.5581 35.8966C24.5581 35.3264 25.1279 34.871 26.1534 34.5856L26.3245 34.6429ZM26.7802 31.6796C25.9827 31.6796 25.47 30.8821 25.47 29.6851C25.47 28.6029 25.9827 27.8621 26.7802 27.8621C27.5781 27.8621 28.1479 28.6029 28.1479 29.6851C28.1479 30.8821 27.5781 31.6796 26.7802 31.6796ZM37.5493 34.871H59.4303V36.0106H37.5493V34.871Z" fill="#D4D4D8"/>
<path fill-rule="evenodd" clip-rule="evenodd" d="M51.1679 32.1377C51.0538 32.4798 50.9398 32.6505 50.7684 32.6505C50.5411 32.6505 50.4837 32.4798 50.4837 31.8523V29.8012C50.4837 29.0604 50.427 28.7756 50.199 28.4335C49.9142 27.8641 49.2301 27.522 48.4893 27.522C47.521 27.522 46.7229 28.2055 46.4955 29.1744L46.7802 29.2884V29.1177C47.1223 28.4335 47.5777 28.0921 48.2045 28.0921C48.9454 28.0921 49.4015 28.6616 49.4015 29.4024V29.8012C49.1734 29.9726 49.002 30.0292 48.2045 30.2573C46.8942 30.5987 46.3815 31.0548 46.3815 31.7956C46.3815 31.9663 46.4381 32.0804 46.4955 32.2517C46.1534 32.5365 45.9253 32.6505 45.5266 32.6505C44.7858 32.6505 44.5577 32.3084 44.5577 31.1688V28.0348H46.4381V27.6927H44.5577V25.8123H44.273C43.8169 26.7812 43.2474 27.3513 42.4492 27.8067V28.0348H43.4748V31.6816C43.4748 32.5931 44.1589 33.2773 45.0705 33.2773C45.6406 33.2773 46.1534 32.9926 46.6088 32.4798C46.8369 32.9352 47.407 33.2773 47.9765 33.2773C48.5466 33.2773 48.8887 33.0493 49.4015 32.5365C49.6295 33.0493 49.9142 33.2773 50.3697 33.2773C50.9398 33.2773 51.3959 32.7645 51.3959 32.1377H51.1679ZM49.5155 32.0237C49.2301 32.4798 48.8313 32.7072 48.4326 32.7072C47.9765 32.7072 47.5777 32.2518 47.5777 31.6816C47.5777 30.9981 47.8624 30.7701 48.8887 30.428C49.2301 30.314 49.2874 30.2573 49.5155 30.1433V32.0237ZM28.3187 43.1919V38.9186L26.2102 39.1466V39.374H26.5523C27.0651 39.374 27.2928 39.6021 27.2928 40.0582V43.4769C27.2928 44.0471 27.0651 44.2178 26.4953 44.2178H26.3813C25.7545 44.2178 25.6404 44.0471 25.6404 43.1922V40.9697C25.6404 39.7161 24.8999 38.9186 23.76 38.9186C23.0765 38.9186 22.4497 39.26 21.8226 40.0008V38.9186L19.8285 39.0893V39.3173H19.9995C20.626 39.374 20.797 39.5454 20.797 40.1149V43.1922C20.797 44.0471 20.626 44.2178 19.9995 44.2178H19.9425C19.3157 44.2178 19.031 43.819 19.031 42.8501V37.3232C19.031 36.3543 19.3157 35.9556 19.9425 35.9556H19.9995V35.6709H16.9225V35.9556H16.9795C17.6063 35.9556 17.8343 36.3543 17.8343 37.3232V42.6221C17.2646 43.591 16.3527 44.1038 15.3271 44.1038C14.5293 44.1038 13.7884 43.7617 13.4467 43.1922C13.2186 42.8501 13.1049 42.2233 13.1049 41.4258V37.3229C13.1049 36.354 13.3327 35.9552 14.0165 35.9552H14.1305V35.6705H10.9395V35.9552H11.0535C11.6803 35.9552 11.908 36.354 11.908 37.3229V41.5965C11.908 43.477 13.0476 44.6739 14.928 44.6739C16.0676 44.6739 17.0362 44.2178 17.834 43.2489V44.5025H22.7344V44.2178H22.5634C21.9366 44.2178 21.8226 44.0471 21.8226 43.1922V40.5143C22.3354 39.7735 22.7915 39.4314 23.3613 39.4314C24.2158 39.4314 24.5579 39.8868 24.5579 40.9697V43.1922C24.5579 44.0471 24.3868 44.2178 23.76 44.2178H23.646V44.5025H29.2299V44.2178C28.4324 44.2174 28.3187 44.1034 28.3187 43.1919ZM34.7572 39.3173C34.1303 39.374 33.9596 39.5454 33.7316 40.1149L33.6176 40.3429L31.9652 44.6165H31.7371L29.9707 40.3429C29.572 39.4314 29.515 39.374 28.8312 39.3173V39.0893H31.4524V39.3173C31.1103 39.374 30.9396 39.5454 30.9396 39.7735C30.9396 39.9442 30.9396 40.0582 31.1103 40.4003L32.2499 43.1922L33.2755 40.4569C33.3895 40.1722 33.4469 39.9442 33.4469 39.8301C33.4469 39.5454 33.3328 39.374 32.9334 39.374C32.8767 39.374 32.8201 39.3173 32.7627 39.3173V39.0893H34.7572V39.3173ZM47.4637 40.5706C47.4637 40.5139 47.4637 40.5139 47.407 40.4566C47.1223 39.5451 46.7802 39.203 46.096 39.203C45.5266 39.203 45.1845 39.4877 45.1845 39.9438C45.1845 40.3999 45.4692 40.6847 46.2674 41.0267C47.0649 41.4255 47.2356 41.4822 47.521 41.7102C47.8514 42.0436 48.0359 42.4945 48.0338 42.9638C48.0338 43.8754 47.2356 44.6162 46.3241 44.6162C46.0394 44.6162 45.6406 44.5595 45.2985 44.3881C45.1278 44.2741 45.0138 44.2741 44.8998 44.2741C44.7858 44.2741 44.6717 44.3315 44.6151 44.5022C44.6151 44.5595 44.5577 44.5595 44.5577 44.6162H44.3296V42.7931H44.5577C44.8424 43.8187 45.4692 44.3315 46.3241 44.3315C46.8369 44.3315 47.293 43.9327 47.293 43.4199C47.293 42.8498 46.9509 42.5651 45.6973 41.9949C44.7858 41.6535 44.387 41.1401 44.387 40.4566C44.387 39.6591 45.1278 38.9182 46.0394 38.9182C46.2101 38.9182 46.4381 38.9749 46.6088 38.9749L46.9509 39.1463H47.179C47.293 39.1463 47.407 39.0889 47.4637 38.9182H47.7484V40.5706H47.4637ZM50.3697 43.1919C50.3697 44.1034 50.4837 44.2174 51.3386 44.2174V44.5022H48.3186V44.2174H48.6033C49.1734 44.2174 49.3441 44.0467 49.3441 43.4766V40.0578C49.3441 39.6017 49.1734 39.3737 48.6606 39.3737H48.3186V39.1463L50.3697 38.9182V43.1919ZM58.0624 39.0893V39.3173C58.5178 39.374 58.6319 39.488 58.6319 39.8301C58.6319 40.0008 58.5752 40.1149 58.5178 40.3429L57.5496 43.2489L56.3527 40.4569C56.182 40.0582 56.182 39.9442 56.182 39.7735C56.182 39.488 56.296 39.374 56.6374 39.3173V39.0893H53.048V37.2089H52.7625C52.3071 38.1204 51.7943 38.7472 50.9961 39.2033V39.4314H52.0224V43.0782C52.0224 43.9897 52.6492 44.6165 53.5607 44.6165C54.1875 44.6165 54.757 44.3318 55.2131 43.7617L55.0424 43.5343C54.757 43.9331 54.4723 44.0471 54.0735 44.0471C53.2753 44.0471 53.048 43.705 53.048 42.5081V39.4314H54.0162C54.643 39.4314 54.8143 39.488 55.0991 40.1149L55.2131 40.3429L57.0369 44.6739L56.4094 46.611C56.068 47.5225 55.6692 47.9786 54.985 47.9786C54.8143 47.9786 54.7003 47.9213 54.4723 47.8079L54.1302 48.8335C54.4156 48.9475 54.5296 49.0042 54.757 49.0042C55.1564 49.0042 55.4978 48.7761 55.8399 48.4347C56.2387 47.9786 56.3527 47.6939 56.7514 46.4403L58.7459 40.628C59.088 39.7164 59.4301 39.3177 59.9995 39.3177V39.0896L58.0624 39.0893ZM37.8338 9.0035C37.6631 9.91538 37.5491 12.8214 39.2588 15.1002C40.8545 17.2087 42.7916 18.1202 43.1337 20.7982C43.1904 21.2539 43.1904 21.71 43.0764 22.0518C39.4295 19.8296 37.3211 16.7529 37.3211 12.2516C37.3211 11.055 37.4924 10.0291 37.8338 9.0035ZM44.1026 1.82422C43.3044 2.337 42.4496 3.36256 42.1648 3.87534C38.0619 11.4537 46.3818 14.7015 46.0964 19.8866C46.0397 20.8552 45.8117 21.9951 45.2415 22.9636C45.2415 22.9636 44.216 22.6219 43.7605 22.3939C44.216 21.0836 44.216 20.2287 43.8746 18.9751C43.0764 16.3542 39.2588 13.5622 39.2015 9.63031C39.1448 6.49661 40.7972 3.13485 44.1026 1.82422ZM50.0283 11.2827H59.5441C59.5858 11.8134 59.6047 12.3457 59.6008 12.878C59.6008 16.9236 57.663 19.6586 54.3586 21.767C51.5666 23.4764 48.775 23.4764 48.775 23.4764C50.5414 21.71 51.9657 19.2598 51.795 16.5249C51.6806 14.132 50.7684 12.9354 50.0283 11.2827Z" fill="#D4D4D8"/>
<path fill-rule="evenodd" clip-rule="evenodd" d="M48.832 0C48.2052 0.34174 44.6157 2.67793 45.7553 8.09116C46.3821 11.0542 50.0289 14.4159 49.8576 18.1764C49.7435 20.9117 48.2052 22.9062 47.8064 23.4186C47.8064 23.4186 46.8949 23.4186 46.0967 23.1906C46.6095 22.393 47.3503 20.7403 47.5217 19.316C48.0345 14.3586 43.02 12.1934 43.2481 7.17928C43.3618 3.64682 45.4132 1.13959 48.832 0ZM59.0313 32.1369C58.5185 32.7064 58.0631 32.9344 57.5503 32.9344C56.9235 32.9344 56.2967 32.5357 55.8972 31.9655C55.4985 31.3961 55.3845 30.8833 55.3278 29.8004H59.3734V29.6297C59.3734 28.5468 58.2338 27.5212 57.0375 27.5212C55.4985 27.5212 54.2449 28.8315 54.2449 30.4272C54.2449 31.1114 54.4729 31.7375 54.815 32.1936C54.5303 32.5357 54.2449 32.6497 53.8461 32.6497C53.1053 32.6497 52.8206 32.3076 52.8206 31.168V28.034H54.7577V27.6919H52.8206V25.8115H52.5925C52.1364 26.7804 51.5669 27.3505 50.7688 27.8059V28.034H51.795V31.6808C51.795 32.5923 52.4218 33.2765 53.3333 33.2765C53.9602 33.2765 54.5303 32.9344 54.9857 32.365C55.5559 32.9344 56.2967 33.2765 57.2082 33.2765C57.9491 33.2765 58.5185 33.0484 59.0313 32.5357V32.1369ZM56.8661 27.8636C57.7777 27.8636 58.3478 28.4331 58.3478 29.516H55.3845C55.4985 28.3764 56.0113 27.8636 56.8661 27.8636ZM13.3903 32.0229C12.7635 32.6497 12.3078 32.9344 11.738 32.9344C11.1682 32.9344 10.5414 32.5357 10.1423 31.9655C9.74353 31.3961 9.6295 30.8833 9.57248 29.8004H13.561V29.6297C13.561 28.5468 12.4785 27.5212 11.2249 27.5212C10.0283 27.5212 9.00269 28.3761 8.60394 29.5157H5.12815V29.8004H5.47024C6.21107 29.8004 6.43878 30.1425 6.43878 31.2247V31.7375C6.43878 32.7064 6.09704 32.9918 4.95745 32.9918C2.84932 32.9918 1.25362 31.282 1.25362 28.7175C1.25362 26.3243 2.62126 24.6722 4.50169 24.6722C5.24218 24.6722 5.926 24.957 6.4958 25.4697C7.00858 25.8688 7.23663 26.3243 7.40733 27.0651H7.63505L7.57803 24.5012H7.29331C7.17928 24.6722 7.06525 24.7859 6.78052 24.7859C6.78052 24.7859 6.72351 24.7859 6.66684 24.7289H6.43878C6.3251 24.6719 6.21107 24.6149 5.926 24.5579C5.29919 24.3872 5.01447 24.3301 4.50169 24.3301C1.93744 24.3301 0 26.4956 0 29.2306C0 31.9085 1.99445 33.3902 5.07114 33.3902C5.98268 33.3902 7.00858 33.2762 7.57837 33.1048V31.2817C7.57837 30.1421 7.80609 29.8 8.54692 29.8C8.48991 30.0281 8.48991 30.2561 8.48991 30.4268C8.48991 32.0792 9.68651 33.2762 11.3959 33.2762C12.2508 33.2762 12.8206 33.0481 13.3903 32.4787V32.0229ZM11.1682 27.8636C12.1367 27.8636 12.6495 28.4331 12.6495 29.516H9.68651C9.85755 28.3764 10.3133 27.8636 11.1682 27.8636ZM19.8291 30.3705C19.8291 32.0229 18.5755 33.2765 16.8661 33.2765C15.1567 33.2765 13.9031 32.0229 13.9031 30.3705C13.9031 28.7748 15.1567 27.5212 16.8091 27.5212C18.5185 27.5215 19.8291 28.7752 19.8291 30.3705ZM15.1567 30.3132C15.1567 31.9655 15.8406 32.9344 16.9802 32.9344C18.1197 32.9344 18.8036 31.9655 18.8036 30.3705C18.8036 28.7175 18.1768 27.8059 16.9231 27.8059C15.8406 27.8063 15.1567 28.7752 15.1567 30.3132ZM39.0888 43.5332C38.5187 44.0459 38.0626 44.3307 37.5498 44.3307C36.9803 44.3307 36.3535 43.9319 35.9548 43.3051C35.5553 42.735 35.4413 42.2789 35.3846 41.1393H39.3735V40.9686C39.4302 39.8856 38.2906 38.9174 37.037 38.9174C35.4987 38.9174 34.3017 40.1711 34.3017 41.8234C34.3017 43.4758 35.5553 44.6154 37.2077 44.6154C38.0059 44.6154 38.5187 44.4447 39.0888 43.9319V43.5332ZM36.923 39.2025C37.8345 39.2025 38.348 39.8293 38.348 40.9122H35.3846C35.5553 39.7723 36.0114 39.2025 36.923 39.2025Z" fill="#D4D4D8"/>
<path fill-rule="evenodd" clip-rule="evenodd" d="M41.4813 40.0576C42.5068 39.2027 42.9623 38.918 43.361 38.918C43.6464 38.918 44.0452 39.0887 44.3299 39.2594L43.9311 40.2856L43.8171 40.2283C43.2477 39.9435 42.9623 39.8295 42.6209 39.8295C42.2788 39.8295 41.994 40.0002 41.4813 40.4563V43.1916C41.4813 44.0465 41.652 44.2172 42.2214 44.2172H42.3928V44.5019H39.4868V44.2172H39.6575C40.2843 44.2172 40.3983 44.0465 40.3983 43.1916V40.2283C40.3983 39.4874 40.2276 39.3167 39.5435 39.3167H39.3154V39.0887L41.4813 38.918V40.0576Z" fill="#D4D4D8"/>
</svg>
