<svg width="100" height="24" viewBox="0 0 100 24" fill="none" xmlns="http://www.w3.org/2000/svg">
<mask id="mask0_1660_4721" style="mask-type:luminance" maskUnits="userSpaceOnUse" x="0" y="0" width="100" height="24">
<path d="M100 0H0V23.6434H100V0Z" fill="white"/>
</mask>
<g mask="url(#mask0_1660_4721)">
<path d="M39.8672 0.996094H28.793V5.42577H39.8672V0.996094Z" fill="#D4D4D8"/>
<path d="M11.6279 0.996094H7.19824V15.3926H11.6279V0.996094Z" fill="#D4D4D8"/>
<path d="M18.8262 0.996094H14.3965V22.0371H18.8262V0.996094Z" fill="#D4D4D8"/>
<path d="M4.42968 0.996094H0V22.0371H4.42968V0.996094Z" fill="#D4D4D8"/>
<path d="M33.2226 8.19531H28.793V22.0381H33.2226V8.19531Z" fill="#D4D4D8"/>
<path d="M26.0244 0.996094H21.5947V5.42577H26.0244V0.996094Z" fill="#D4D4D8"/>
<path d="M26.0244 8.19531H21.5947V22.0381H26.0244V8.19531Z" fill="#D4D4D8"/>
<path d="M49.2803 0.996094H51.1075L51.9935 4.65058L52.8794 0.996094H54.6513V5.92411H53.4885V2.10351L52.4918 5.92411H51.3844L50.3877 2.10351V5.92411H49.2803V0.996094Z" fill="#D4D4D8"/>
<path d="M58.6927 5.14697C58.6927 5.42382 58.6927 5.70068 58.8034 5.92216H57.8067C57.7514 5.81142 57.7514 5.64531 57.7514 5.53457C57.5852 5.81142 57.0315 6.0329 56.6439 6.0329C55.9241 6.0329 55.4258 5.6453 55.4258 4.92548C55.4258 4.03955 56.1456 3.70732 57.3084 3.54121L57.696 3.48584V3.15361C57.696 2.87676 57.4745 2.76601 57.1977 2.76601C56.8654 2.76601 56.6993 2.87676 56.6439 3.26435H55.5919C55.6473 2.21231 56.5886 2.10156 57.0869 2.10156C58.0836 2.10156 58.6927 2.32305 58.748 3.15361V5.14697H58.6927ZM57.6406 4.09492L56.9208 4.3164C56.6439 4.37177 56.4225 4.48252 56.4225 4.81474C56.4225 5.0916 56.6439 5.25771 56.9208 5.25771C57.3638 5.25771 57.6406 4.98085 57.6406 4.42714V4.09492Z" fill="#D4D4D8"/>
<path d="M62.0706 3.31972C61.8491 3.04287 61.4061 2.93213 61.0739 2.93213C60.7971 2.93213 60.631 3.04287 60.631 3.20898C60.631 3.81806 62.7904 3.31972 62.7904 4.704C62.7904 5.70068 61.9045 6.0329 61.1293 6.0329C60.3541 6.0329 59.8558 5.81142 59.3574 5.31308L60.0219 4.704C60.3541 5.03622 60.6863 5.20234 61.1847 5.20234C61.3508 5.20234 61.7937 5.14697 61.7937 4.81474C61.7937 4.26103 59.6343 4.704 59.6343 3.3751C59.6343 2.43379 60.4648 2.10156 61.1847 2.10156C61.7384 2.10156 62.2921 2.32305 62.7904 2.65527L62.0706 3.31972Z" fill="#D4D4D8"/>
<path d="M65.9466 3.31972C65.7251 3.04287 65.2821 2.93213 64.9499 2.93213C64.673 2.93213 64.5069 3.04287 64.5069 3.20898C64.5069 3.81806 66.6664 3.31972 66.6664 4.704C66.6664 5.70068 65.8358 6.0329 65.0053 6.0329C64.1747 6.0329 63.7317 5.81142 63.2334 5.31308L63.8978 4.704C64.2301 5.03622 64.5623 5.20234 65.0606 5.20234C65.2267 5.20234 65.6697 5.14697 65.6697 4.81474C65.6697 4.26103 63.5103 4.704 63.5103 3.3751C63.5103 2.43379 64.3408 2.10156 65.0606 2.10156C65.6143 2.10156 66.1681 2.32305 66.6664 2.65527L65.9466 3.31972Z" fill="#D4D4D8"/>
<path d="M70.4876 5.14697C70.4876 5.42382 70.4876 5.70068 70.5983 5.92216H69.6017C69.5463 5.81142 69.5463 5.64531 69.5463 5.53457C69.3802 5.81142 68.8265 6.0329 68.4389 6.0329C67.719 6.0329 67.2207 5.6453 67.2207 4.92548C67.2207 4.03955 67.9405 3.70732 69.1033 3.54121L69.4909 3.48584V3.15361C69.4909 2.87676 69.2694 2.76601 68.9926 2.76601C68.6603 2.76601 68.4942 2.87676 68.4389 3.26435H67.3314C67.3868 2.21231 68.3281 2.10156 68.8265 2.10156C69.8231 2.10156 70.4876 2.32305 70.4876 3.15361V5.14697ZM69.4909 4.09492L68.7711 4.3164C68.4942 4.37177 68.2727 4.48252 68.2727 4.81474C68.2727 5.0916 68.4942 5.25771 68.7711 5.25771C69.2141 5.25771 69.4909 4.98085 69.4909 4.42714V4.09492Z" fill="#D4D4D8"/>
<path d="M73.8648 3.48906C73.6434 3.04609 73.3665 2.99072 73.2004 2.99072C72.5913 2.99072 72.3698 3.48906 72.3698 4.09814C72.3698 4.70722 72.6467 5.20556 73.2004 5.20556C73.5326 5.20556 73.8095 5.09482 73.9756 4.65185L74.7508 5.03945C74.4185 5.64853 73.8095 6.03612 73.0896 6.03612C71.9822 6.03612 71.207 5.3163 71.207 4.09814C71.207 2.87998 72.0376 2.16016 73.0343 2.16016C73.7541 2.16016 74.3078 2.43701 74.6954 3.04609L73.8648 3.48906Z" fill="#D4D4D8"/>
<path d="M75.3594 0.996094H76.4114V2.60185C76.6329 2.325 77.0759 2.15889 77.4081 2.15889C78.1833 2.15889 78.5709 2.60185 78.5709 3.32168V5.92411H77.5188V3.70927C77.5188 3.15556 77.1866 2.98945 76.9651 2.98945C76.7436 2.98945 76.4114 3.15556 76.4114 3.82001V5.92411H75.3594V0.996094Z" fill="#D4D4D8"/>
<path d="M82.8346 5.92402H81.7825V5.59179C81.5057 5.92402 81.0627 6.03476 80.7305 6.03476C79.8445 6.03476 79.623 5.53642 79.623 4.98271V2.26953H80.6751V4.65048C80.6751 4.98271 80.7858 5.14882 81.1734 5.14882C81.5057 5.14882 81.7271 4.98271 81.7271 4.59511V2.26953H82.7792L82.8346 5.92402Z" fill="#D4D4D8"/>
<path d="M86.2122 3.31972C85.9907 3.04287 85.5478 2.93213 85.2155 2.93213C84.9387 2.93213 84.7726 3.04287 84.7726 3.20898C84.7726 3.81806 86.932 3.31972 86.932 4.704C86.932 5.70068 86.0461 6.0329 85.2709 6.0329C84.4957 6.0329 83.9974 5.81142 83.499 5.31308L84.1635 4.704C84.4957 5.03622 84.8279 5.20234 85.3263 5.20234C85.4924 5.20234 85.9354 5.14697 85.9354 4.81474C85.9354 4.26103 83.7759 4.704 83.7759 3.3751C83.7759 2.43379 84.6064 2.10156 85.3263 2.10156C85.88 2.10156 86.4337 2.32305 86.932 2.65527L86.2122 3.31972Z" fill="#D4D4D8"/>
<path d="M88.4824 4.31962C88.4824 5.03945 88.9254 5.26093 89.2576 5.26093C89.6452 5.26093 89.8667 5.03945 90.1435 4.59648L90.9741 5.03945C90.5865 5.75927 90.0328 6.03612 89.2022 6.03612C88.0395 6.03612 87.375 5.26093 87.375 4.20888C87.375 2.93535 88.0395 2.16016 89.2022 2.16016C90.5311 2.16016 90.9741 3.15683 91.0295 4.31962H88.4824ZM89.9221 3.65517C89.8667 3.10146 89.4791 2.93535 89.2022 2.93535C88.9254 2.93535 88.5378 3.15683 88.4824 3.65517H89.9221Z" fill="#D4D4D8"/>
<path d="M93.5771 2.98925H92.9127V4.8165C92.9127 5.09335 93.0788 5.20409 93.2449 5.20409C93.3557 5.20409 93.5218 5.20409 93.5771 5.20409V6.03466C93.4664 6.03466 93.1342 6.09003 92.9127 6.09003C91.9714 6.09003 91.8606 5.53632 91.8606 4.98261V3.04462H91.3623V2.38017H91.8606V1.32812H92.9127V2.38017H93.5771V2.98925Z" fill="#D4D4D8"/>
<path d="M96.0137 2.98925H95.3492V4.8165C95.3492 5.09335 95.5153 5.20409 95.6814 5.20409C95.7922 5.20409 95.9583 5.20409 96.0137 5.20409V6.03466C95.9029 6.03466 95.5707 6.09003 95.3492 6.09003C94.4079 6.09003 94.2972 5.53632 94.2972 4.98261V3.04462H93.7988V2.38017H94.2972V1.32812H95.3492V2.38017H96.0137V2.98925Z" fill="#D4D4D8"/>
<path d="M99.0032 3.31972C98.7817 3.04287 98.3388 2.93213 98.0065 2.93213C97.7297 2.93213 97.5636 3.04287 97.5636 3.20898C97.5636 3.81806 99.723 3.31972 99.723 4.704C99.723 5.70068 98.8371 6.0329 98.0619 6.0329C97.2867 6.0329 96.7884 5.81142 96.29 5.31308L96.9545 4.704C97.2867 5.03622 97.6189 5.20234 98.1173 5.20234C98.2834 5.20234 98.7264 5.14697 98.7264 4.81474C98.7264 4.26103 96.5669 4.704 96.5669 3.3751C96.5669 2.43379 97.3975 2.10156 98.1173 2.10156C98.671 2.10156 99.2247 2.32305 99.723 2.65527L99.0032 3.31972Z" fill="#D4D4D8"/>
<path d="M49.335 9.02344H50.5531V13.9515H49.335V9.02344Z" fill="#D4D4D8"/>
<path d="M51.4951 10.2982H52.6025V10.6305C52.8794 10.2982 53.3224 10.1875 53.6546 10.1875C54.5405 10.1875 54.762 10.6858 54.762 11.2395V13.9527H53.71V11.6271C53.71 11.2949 53.5992 11.0181 53.2116 11.0181C52.7686 11.0181 52.6579 11.2949 52.6579 11.6271V13.8974H51.5505V10.2982H51.4951Z" fill="#D4D4D8"/>
<path d="M58.139 11.351C57.9175 11.0741 57.4745 10.9634 57.1423 10.9634C56.8654 10.9634 56.6993 11.0741 56.6993 11.2402C56.6993 11.8493 58.8588 11.351 58.8588 12.7353C58.8588 13.6766 58.0282 14.0642 57.1977 14.0642C56.4225 14.0642 55.9241 13.8427 55.4258 13.3443L56.0902 12.7353C56.4225 13.0675 56.7547 13.2336 57.253 13.2336C57.4191 13.2336 57.8621 13.1782 57.8621 12.846C57.8621 12.2923 55.7026 12.7353 55.7026 11.4063C55.7026 10.465 56.5332 10.1328 57.253 10.1328C57.8067 10.1328 58.3604 10.3543 58.8588 10.6865L58.139 11.351Z" fill="#D4D4D8"/>
<path d="M61.4062 11.0173H60.7418V12.8445C60.7418 13.1214 60.9079 13.2321 61.074 13.2321C61.1848 13.2321 61.3509 13.2321 61.4062 13.2321V14.0627C61.2955 14.0627 60.9633 14.1181 60.7418 14.1181C59.8005 14.1181 59.6897 13.5643 59.6897 13.0106V11.0727H59.1914V10.3528H59.6897V9.30078H60.7418V10.3528H61.4062V11.0173Z" fill="#D4D4D8"/>
<path d="M62.0156 9.854V9.02344H63.0677V9.854H62.0156ZM63.123 10.297V13.9515H62.071V10.297H63.123Z" fill="#D4D4D8"/>
<path d="M65.8916 11.0173H65.2271V12.8445C65.2271 13.1214 65.3933 13.2321 65.5594 13.2321C65.6701 13.2321 65.8362 13.2321 65.8916 13.2321V14.0627C65.7809 14.0627 65.4486 14.1181 65.2271 14.1181C64.2858 14.1181 64.1751 13.5643 64.1751 13.0106V11.0727H63.6768V10.3528H64.1751V9.30078H65.2271V10.3528H65.8916V11.0173Z" fill="#D4D4D8"/>
<path d="M69.7672 13.9514H68.7151V13.6191C68.4383 13.9514 67.9953 14.0621 67.6631 14.0621C66.7771 14.0621 66.5557 13.5638 66.5557 13.0101V10.2969H67.6077V12.6778C67.6077 13.0101 67.7184 13.1762 68.106 13.1762C68.4383 13.1762 68.6598 13.0101 68.6598 12.6225V10.2969H69.7118L69.7672 13.9514Z" fill="#D4D4D8"/>
<path d="M72.5361 11.0173H71.8717V12.8445C71.8717 13.1214 72.0378 13.2321 72.2039 13.2321C72.3146 13.2321 72.4808 13.2321 72.5361 13.2321V14.0627C72.4254 14.0627 72.0932 14.1181 71.8717 14.1181C70.9304 14.1181 70.8196 13.5643 70.8196 13.0106V11.0727H70.3213V10.3528H70.8196V9.30078H71.8717V10.3528H72.5361V11.0173Z" fill="#D4D4D8"/>
<path d="M73.9756 12.347C73.9756 13.0668 74.4185 13.2883 74.7508 13.2883C75.1384 13.2883 75.3599 13.0668 75.6367 12.6238L76.4673 13.0668C76.0797 13.7312 75.526 14.0635 74.6954 14.0635C73.5326 14.0635 72.8682 13.2883 72.8682 12.2362C72.8682 10.9627 73.5326 10.1875 74.6954 10.1875C76.0243 10.1875 76.4673 11.1842 76.5227 12.347H73.9756ZM75.4152 11.6825C75.3599 11.1288 74.9723 10.9627 74.6954 10.9627C74.3632 10.9627 74.031 11.1842 73.9756 11.6825H75.4152Z" fill="#D4D4D8"/>
<path d="M82.835 12.1255C82.835 13.3436 82.0044 14.0635 80.897 14.0635C79.7342 14.0635 78.959 13.3436 78.959 12.1255C78.959 10.9073 79.7895 10.1875 80.897 10.1875C82.0598 10.1875 82.835 10.9073 82.835 12.1255ZM80.011 12.1255C80.011 12.7346 80.2879 13.2329 80.897 13.2329C81.506 13.2329 81.7829 12.7346 81.7829 12.0701C81.7829 11.461 81.506 11.0181 80.897 11.0181C80.2879 11.0181 80.011 11.5164 80.011 12.1255Z" fill="#D4D4D8"/>
<path d="M83.7207 11.0175H83.167V10.353H83.7207V9.96543C83.7207 9.52246 83.8314 8.96875 84.7727 8.96875C84.9942 8.96875 85.3265 9.02412 85.4926 9.07949V9.85468H85.1603C84.9942 9.85468 84.7727 9.91006 84.7727 10.1315V10.353H85.4372V11.0175H84.7727V13.9521H83.7207V11.0175Z" fill="#D4D4D8"/>
<path d="M48.0615 17.1094H51.8821V18.0507H50.6086V22.0374H49.3904V18.0507H48.1169V17.1094H48.0615Z" fill="#D4D4D8"/>
<path d="M52.7129 20.4329C52.7129 21.1527 53.1559 21.3742 53.4881 21.3742C53.8757 21.3742 54.0972 21.1527 54.374 20.7098L55.2046 21.1527C54.817 21.8172 54.2633 22.1494 53.4327 22.1494C52.2699 22.1494 51.6055 21.3742 51.6055 20.3222C51.6055 19.0486 52.2699 18.2734 53.4327 18.2734C54.7616 18.2734 55.2046 19.3255 55.26 20.4329H52.7129ZM54.1525 19.7685C54.0972 19.2147 53.7096 19.0486 53.4327 19.0486C53.1005 19.0486 52.7683 19.2701 52.7129 19.7685H54.1525Z" fill="#D4D4D8"/>
<path d="M58.3609 19.6023C58.1395 19.1594 57.8072 19.104 57.6965 19.104C57.0874 19.104 56.8659 19.6023 56.8659 20.2114C56.8659 20.8205 57.1428 21.3188 57.6965 21.3188C58.0287 21.3188 58.3056 21.2081 58.4717 20.7651L59.2469 21.1527C58.9146 21.7618 58.3056 22.1494 57.5857 22.1494C56.4783 22.1494 55.7031 21.4296 55.7031 20.2114C55.7031 18.9933 56.5337 18.2734 57.5304 18.2734C58.2502 18.2734 58.8039 18.5503 59.1915 19.1594L58.3609 19.6023Z" fill="#D4D4D8"/>
<path d="M59.8555 17.1094H60.9075V18.7151C61.129 18.4383 61.572 18.2722 61.9042 18.2722C62.6794 18.2722 63.067 18.7151 63.067 19.435V22.0374H62.0149V19.8226C62.0149 19.2688 61.6827 19.1027 61.4612 19.1027C61.2397 19.1027 60.9075 19.2688 60.9075 19.9333V21.982H59.8555V17.1094Z" fill="#D4D4D8"/>
<path d="M64.0645 18.3295H65.1165V18.6617C65.3934 18.3295 65.8363 18.2188 66.1685 18.2188C67.0545 18.2188 67.276 18.7171 67.276 19.2708V21.984H66.2239V19.6584C66.2239 19.2708 66.1132 19.0493 65.7256 19.0493C65.2826 19.0493 65.1719 19.3262 65.1719 19.6584V21.9286H64.1198L64.0645 18.3295Z" fill="#D4D4D8"/>
<path d="M71.9824 20.2114C71.9824 21.4296 71.1518 22.1494 70.0444 22.1494C68.8816 22.1494 68.1064 21.4296 68.1064 20.2114C68.1064 18.9933 68.937 18.2734 70.0444 18.2734C71.1518 18.2734 71.9824 18.9379 71.9824 20.2114ZM69.1031 20.2114C69.1031 20.8205 69.38 21.3188 69.9891 21.3188C70.5981 21.3188 70.875 20.8205 70.875 20.156C70.875 19.547 70.5981 19.104 69.9891 19.104C69.38 19.104 69.1031 19.547 69.1031 20.2114Z" fill="#D4D4D8"/>
<path d="M72.6465 22.0374V17.1094H73.6985V22.0374H72.6465Z" fill="#D4D4D8"/>
<path d="M78.3496 20.2114C78.3496 21.4296 77.519 22.1494 76.4116 22.1494C75.2488 22.1494 74.4736 21.4296 74.4736 20.2114C74.4736 18.9933 75.3042 18.2734 76.4116 18.2734C77.5744 18.2734 78.3496 18.9379 78.3496 20.2114ZM75.5257 20.2114C75.5257 20.8205 75.8025 21.3188 76.4116 21.3188C77.0207 21.3188 77.2976 20.8205 77.2976 20.156C77.2976 19.547 77.0207 19.104 76.4116 19.104C75.8025 19.104 75.5257 19.547 75.5257 20.2114Z" fill="#D4D4D8"/>
<path d="M82.281 18.3295V22.0393C82.281 23.2021 81.0629 23.2575 80.5092 23.2575C79.4018 23.2575 78.848 22.8699 78.7927 21.984H79.9001C79.9001 22.3716 80.1216 22.5377 80.5092 22.5377C80.8968 22.5377 81.1736 22.4269 81.1736 21.9286V21.4856C80.9521 21.7071 80.5092 21.7625 80.1769 21.7625C79.1249 21.7625 78.7373 20.9319 78.7373 19.9906C78.7373 19.1047 79.2356 18.2188 80.1769 18.2188C80.5645 18.2188 80.9521 18.3295 81.229 18.6063V18.3295H82.281ZM80.5645 19.0493C80.2323 19.0493 79.9001 19.2708 79.9001 20.046C79.9001 20.489 80.0108 21.0427 80.5645 21.0427C81.229 21.0427 81.2844 20.4336 81.2844 20.046C81.2844 19.2708 80.8968 19.0493 80.5645 19.0493Z" fill="#D4D4D8"/>
<path d="M83.1118 22.4249C83.2226 22.4249 83.3333 22.4249 83.4994 22.4249C83.8316 22.4249 83.9978 22.3695 83.9978 22.148C83.9978 22.0927 83.9977 22.0373 83.887 21.7604L82.835 18.3828H83.9424L84.5515 21.2067L85.1605 18.3828H86.3233L85.0498 22.3142C84.8837 22.8679 84.6068 23.3108 83.9978 23.3108H83.1672L83.1118 22.4249Z" fill="#D4D4D8"/>
</g>
</svg>
