<svg width="40" height="53" viewBox="0 0 40 53" fill="none" xmlns="http://www.w3.org/2000/svg">
<g clip-path="url(#clip0_1660_4805)">
<path d="M35.6634 30.9293L35.6753 30.8929L35.6872 30.8687L35.6991 30.8324V30.796L35.711 30.7597L35.7229 30.7234L35.7348 30.6991L35.7467 30.6628L35.7587 30.6264L35.7706 30.5901L35.7944 30.5538L35.8063 30.5295L35.8182 30.4932L35.8301 30.4811V30.469L35.842 30.4569L35.8539 30.4326V30.4205L35.8658 30.4084C36.0681 30.1177 36.2586 29.7785 36.5205 29.621C36.7585 29.4514 36.8061 29.1486 36.9252 28.6519C36.9609 27.7798 37.0799 27.7313 37.1156 27.6344C37.1513 27.5375 37.2108 27.2468 37.4132 26.8834C37.556 26.6169 37.7346 26.0839 37.6751 25.9264C37.5441 25.6599 37.437 25.4297 37.3061 24.9694C37.1275 23.8792 37.2704 23.5158 37.4965 23.1766C37.8179 22.68 38.0203 22.3771 38.3535 22.2075C38.5083 22.1348 38.4845 21.832 38.4607 21.6261C38.3773 21.0931 38.5321 21.1415 38.6154 20.8629C38.7106 20.5843 38.7821 20.2088 38.7821 20.124C38.7821 20.0271 38.7344 19.7727 38.7106 19.6516C38.6749 19.4335 38.6392 19.1186 38.6987 18.9974C38.794 18.8278 38.8892 18.634 38.8773 18.4644C38.8773 18.3918 38.9606 18.2827 38.9963 18.1616C39.032 18.0526 39.1034 17.7861 39.1034 17.5801C39.1034 17.5196 39.1749 17.0956 39.2225 16.7928C39.3296 16.1992 39.2582 15.9085 39.2106 15.7389C39.163 15.4966 39.0201 15.3755 39.032 15.2907C39.032 15.1817 39.0082 14.8425 38.9844 14.6366C38.9725 14.5154 39.4605 13.8249 39.5558 13.6917C39.5915 13.619 39.5201 13.1466 39.5201 13.0376C39.5201 12.9407 39.401 12.444 39.401 12.3108C39.401 12.1654 39.4248 12.0806 39.4248 11.9474C39.4129 11.802 39.401 11.5961 39.3891 11.3296C39.3653 10.845 39.401 10.3484 39.4129 10.2151C39.4129 10.1061 39.2344 10.1061 38.913 9.9365C38.5916 9.76691 37.9012 9.06432 37.7822 9.01587C37.6632 8.9553 37.1037 8.85839 36.7942 8.85839C36.5086 8.85839 35.8777 9.00375 35.592 9.05221C35.3182 9.08855 34.973 8.96741 34.8064 8.91896C34.6398 8.8705 34.3422 8.78571 34.2112 8.80994C33.8303 8.84628 33.2114 8.85839 32.9495 8.80994C32.64 8.74937 32.3782 8.66458 32.2234 8.56767C32.0925 8.47076 32.0449 8.5071 31.8782 8.34962C31.7473 8.22849 31.7354 8.1558 31.6283 8.14369C31.533 8.11946 30.6284 8.04679 30.4617 7.87719C30.2951 7.70761 30.0689 7.41688 29.938 6.77486C29.8071 6.15707 30.0213 5.72098 30.2475 5.59985C30.6046 5.41815 31.0926 5.1153 31.3545 5.09108C31.4735 5.07896 31.2116 4.60654 31.0807 4.15834C31.0212 3.98875 30.7712 4.02508 30.1999 3.38307C29.9499 3.09235 29.4976 2.52301 29.3905 2.32919C29.2714 2.13537 29.4024 2.02635 29.2833 2.01424C29.1286 2.00213 28.6167 2.02635 27.8073 1.88099C26.9979 1.72351 26.4742 1.49336 26.2242 1.42067C25.9861 1.34799 25.4148 1.14207 25.2362 1.08149C25.0577 1.02093 24.7006 0.875561 24.3792 0.754426C24.0697 0.645404 23.9269 0.39102 23.7722 0.378906C23.6055 0.378906 23.0103 0.802884 22.2962 0.899794C21.582 0.996697 21.332 0.82711 20.9511 0.766539C20.5464 0.705974 20.1774 0.63329 19.7013 0.596952C19.237 0.560613 17.8563 0.814997 17.6182 0.851336C17.3801 0.875561 17.0469 1.04516 16.7493 1.04516C16.5588 1.04516 15.4994 1.3601 15.3209 1.39645C15.1304 1.43279 14.8686 1.33588 14.7376 1.38434C14.5234 1.4449 14.2139 1.51758 14.1068 1.54181C14.0235 1.56604 12.6308 2.03847 12.3808 2.08692C12.107 2.14749 11.7142 2.28074 11.3929 2.40187C11.1786 2.49878 11.0477 2.64414 10.8691 2.76528C10.274 3.18925 10.1073 3.20137 9.82164 3.29827C9.63118 3.35884 9.53596 3.43152 9.13125 3.45575C8.71464 3.47998 8.5956 3.56477 8.5956 3.62534C8.5956 3.91607 8.50038 4.49751 8.60751 4.54597C8.83367 4.66711 9.39312 5.59985 9.41692 6.19341C9.45263 6.82332 9.36931 7.27152 9.3455 7.46534C9.3217 7.63492 9.29789 7.73183 9.21457 7.82874C9.14315 7.92565 8.64322 8.08313 8.34564 8.11946C8.03615 8.13158 7.88141 8.14369 6.79823 7.85297C5.9531 7.63492 5.88168 7.55013 5.77455 7.42899C5.69123 7.29574 5.47697 7.18672 5.33414 7.11404C5.17939 7.04136 5.02465 7.00502 4.86991 6.85966C4.72707 6.72641 4.0724 7.05347 3.16776 7.12615C3.00111 7.13827 2.69163 7.69549 2.13218 7.98622C1.69176 8.20426 1.48941 8.28906 1.34657 8.39808C0.941864 8.67669 0.465737 8.72514 0.52525 8.84628C0.620476 9.07644 0.441932 9.19757 0.501444 9.76691C0.584769 10.7239 0.37051 11.2084 0.37051 11.6687C0.358608 11.8989 0.620476 12.1775 0.739508 12.2744C0.846637 12.3713 1.0609 12.6984 1.12041 12.9407C1.16803 13.1829 1.0847 13.9703 0.965668 14.6244C0.846637 15.2907 0.775222 15.969 0.799027 16.2113C0.81093 16.3688 1.00138 16.6959 1.0847 16.8776C1.20373 17.0956 1.42989 17.883 1.4418 18.2827C1.4537 18.6461 1.35847 19.1065 1.35847 19.1791C1.35847 19.2518 1.4775 19.5547 1.59654 19.7121C1.72747 19.906 2.02505 20.548 2.09647 20.7054C2.2036 20.9235 2.23931 21.2021 2.23931 21.2021C2.23931 21.2021 2.2036 21.5171 2.19169 21.7109C2.17979 21.9047 2.10838 22.5709 2.03695 23.431C1.97744 24.2668 1.97744 24.9694 2.04886 25.0421C2.14408 25.139 2.32263 25.2965 2.39405 25.4055C2.45357 25.5266 2.97731 26.4473 3.03683 26.5805C3.09634 26.7259 3.22727 27.0893 3.27489 27.3437C3.3225 27.6102 3.39391 28.131 3.41773 28.2643C3.45343 28.446 3.66769 29.5604 3.7034 29.7422C3.75101 29.9723 3.83433 30.6022 3.87005 30.8566C3.89385 31.1473 3.91766 31.6198 3.94146 31.7167C3.96527 31.8015 4.03669 31.971 4.12001 32.1649C4.21523 32.3829 4.38188 33.0249 4.41759 33.1703C4.4533 33.3156 4.39378 33.5095 4.42949 33.6306C4.47711 33.7639 4.61995 33.8729 4.66756 33.9819C4.71517 34.0909 5.09607 34.8662 5.26271 35.1327C5.41746 35.3628 5.965 36.4288 6.11974 36.7801C6.15546 36.8286 6.15546 36.8649 6.15546 36.8891C6.15546 37.0224 6.17926 37.1314 6.25068 37.1799C6.3221 37.2283 6.44113 37.4827 6.53636 37.4948C6.66729 37.5191 6.79823 37.5917 6.85774 37.6644C6.91726 37.7613 7.39338 38.2338 7.57193 38.4276C7.75048 38.6214 7.86951 38.7425 7.84571 38.9121C7.8219 39.0454 7.8338 39.2634 7.90522 39.3361C8.03615 39.4693 8.23851 39.5784 8.61941 40.0871C8.9408 40.5232 9.05983 40.8866 9.22647 41.1895C9.3217 41.3712 9.46453 41.8799 9.46453 42.0132C9.46453 42.1464 9.54786 42.2433 9.61928 42.316C9.7026 42.425 9.91686 42.6067 10.0716 42.6794C10.1549 42.7158 10.393 42.9338 10.6072 43.1882C10.8215 43.4305 11 43.6364 11.0953 44.2057C11.131 44.3753 11.131 44.5207 11.1905 44.5328C11.25 44.5449 11.3929 44.5812 11.4286 44.6539C11.4762 44.7145 11.4762 44.8114 11.5714 44.872C11.8452 45.0658 11.8809 45.2596 11.9166 45.3929C11.9285 45.514 11.988 45.8653 12.0237 46.0107C12.0356 46.1197 12.5951 46.7253 12.7379 46.9434C12.8569 47.1372 13.0355 47.1736 13.4402 47.4037C13.833 47.6217 13.8568 47.7671 13.8806 47.8761C13.9044 47.9973 13.8925 48.5666 13.9282 48.6272C14.0235 48.7604 14.083 48.6999 14.2377 48.8937C14.3925 49.0875 14.5948 49.3661 14.69 49.4994C14.7853 49.6326 15.5947 50.1414 16.0351 50.5532C16.1422 50.6623 16.4041 50.9409 16.5826 51.0741C16.7136 51.1589 16.8921 51.2437 17.035 51.3164C17.1897 51.3891 17.4159 51.4617 17.8682 51.7888C17.9753 51.8494 18.2372 51.9826 18.3919 52.0795C18.5824 52.2007 19.118 52.5035 19.3204 52.5035C19.737 52.5035 19.9512 52.6731 20.1893 52.6125C21.1892 52.4187 21.4153 52.2734 21.6415 52.0553C21.8438 51.8373 22.189 51.3527 22.2962 51.2679C22.4152 51.1589 22.7604 50.747 23.0461 50.5532C23.8317 49.778 23.7483 49.9354 24.2364 49.6084C24.4983 49.4267 24.7363 49.3661 24.8911 49.1359C25.1291 48.7362 25.4981 48.179 25.5576 47.9367C25.6052 47.7913 25.6886 47.755 25.7481 47.5975C25.7957 47.4643 25.7719 47.3553 25.9385 47.2826C26.0695 47.222 26.379 46.8586 26.5456 46.7738C26.6527 46.7132 26.5694 46.3862 26.7003 46.2408C26.7837 46.1318 27.1765 45.8653 27.5217 45.6109C28.1763 45.1385 28.6406 44.4965 28.8905 44.2542C29.1524 43.9756 29.0215 43.5758 28.9381 43.4547L29.1286 43.164C29.1286 43.164 29.4738 42.7763 29.6761 42.5583C29.8785 42.3645 30.426 41.6619 30.5689 41.5165C30.6879 41.4075 30.6165 40.8018 30.6403 40.6322C30.6522 40.4505 31.045 40.1477 31.1759 40.0144C31.3069 39.8812 31.3664 39.7601 31.3783 39.5057C31.4021 39.2634 31.5687 38.1853 31.6283 37.9915C31.664 37.8946 31.6997 37.8219 31.7473 37.7492C31.8544 37.5796 31.9734 37.4585 32.0806 37.3373C32.2115 37.1799 32.8662 36.3804 33.1757 36.1018L33.2352 36.0654C33.3899 35.9564 33.2947 35.8353 33.2947 35.6899C33.2947 35.6172 33.3542 35.4719 33.4494 35.3144C33.5328 35.1448 33.6518 34.9389 33.747 34.842C34.0208 34.527 33.9732 34.3453 34.4255 34.0061C34.5921 33.885 34.5326 33.5216 34.5326 33.5216C34.5326 33.5216 34.5207 33.3883 34.616 33.1703C34.7112 32.9522 35.0445 32.5404 35.2468 32.3223C35.3301 32.2375 35.4016 31.971 35.4016 31.8378C35.4016 31.7167 35.3778 31.4744 35.5087 31.22C35.5325 31.1716 35.5563 31.1231 35.592 31.0746C35.6158 31.0383 35.6396 30.9777 35.6634 30.9293Z" fill="white" fill-opacity="0.960784" stroke="#D4D4D8" stroke-width="0.753669" stroke-miterlimit="10.433"/>
<path d="M8.00076 31.2066L8.01266 31.1581C8.00076 31.0612 7.84602 31.0612 7.82221 31.0007C7.76269 30.7947 7.66747 30.7584 7.61986 30.7099C7.50082 30.6009 7.38179 30.6615 7.32228 30.6373C7.26276 30.613 7.17944 30.5888 7.21515 30.4313C7.21515 30.4071 7.20325 30.395 7.19134 30.4071L7.10802 30.4192L7.01279 30.4071L6.92947 30.4192C6.92947 30.4192 6.72712 30.4192 6.40573 30.5282C6.33431 30.5282 6.23908 30.613 6.12005 30.613C6.00102 30.6009 5.87009 30.7342 5.73915 30.7342C5.64393 30.7463 5.39396 31.0733 5.19161 31.1097C5.07258 31.1218 5.19161 31.1339 4.51313 31.3883C4.13223 31.5215 4.23936 31.4973 3.91797 31.679C3.98938 31.7032 4.28697 31.6911 4.53693 31.6669C4.97735 31.6306 4.98925 31.6306 5.08448 31.6063C5.52489 31.5458 6.21528 31.5094 6.48906 31.4489C6.69141 31.4004 6.83424 31.5215 7.0247 31.461C7.10802 31.4246 7.23896 31.4246 7.29847 31.4246C7.39369 31.4125 7.4175 31.4246 7.47702 31.4125C7.47702 31.4125 7.7746 31.4246 7.83412 31.3762C7.92934 31.3277 7.96505 31.3035 7.97695 31.2672L8.00076 31.2066Z" fill="white"/>
<path d="M35.6045 31.0594V31.0352H35.6164V31.011L35.6283 30.9988V30.9746L35.6402 30.9625V30.9383L35.6521 30.9262L35.664 30.914V30.9019C35.7235 30.7323 35.7711 30.5143 35.8664 30.3811C36.0806 30.0903 36.2592 29.7633 36.521 29.5937C36.7591 29.4241 36.8067 29.1212 36.9257 28.6246C36.9615 27.7524 37.0805 27.704 37.1281 27.607C37.1638 27.5101 37.2233 27.2194 37.4138 26.856C37.5566 26.5895 37.7352 26.0444 37.6756 25.899C37.5447 25.6325 37.4376 25.4024 37.3066 24.9421C37.1281 23.8518 37.2709 23.4884 37.4971 23.1493C37.8185 22.6526 38.0208 22.3377 38.3541 22.1802C38.5089 22.1075 38.4851 21.8047 38.4613 21.5987C38.3779 21.0657 38.5327 21.1142 38.6279 20.8356C38.7112 20.557 38.7826 20.1936 38.7826 20.0845C38.7826 19.9876 38.735 19.7575 38.7112 19.6242C38.6755 19.4062 38.6517 19.0791 38.6993 18.9701C38.8065 18.8005 38.8898 18.5946 38.8898 18.4371C38.8898 18.3644 38.9612 18.2554 38.9969 18.1464C39.0326 18.0252 39.104 17.7587 39.104 17.5528C39.104 17.4922 39.1874 17.0683 39.235 16.7654C39.3302 16.1719 39.2707 15.8811 39.2231 15.7115C39.1635 15.4572 39.0326 15.3481 39.0326 15.2633C39.0326 15.1543 39.0088 14.8151 38.985 14.6092C38.9731 14.4881 39.473 13.7976 39.5564 13.6522C39.604 13.5917 39.5206 13.1192 39.5206 13.0102C39.5206 12.9133 39.4016 12.4045 39.4016 12.2713C39.4016 12.138 39.4254 12.0533 39.4254 11.92C39.4254 11.7746 39.4016 11.5687 39.4016 11.3022C39.3778 10.8177 39.4135 10.321 39.4135 10.1878C39.4135 10.0787 39.235 10.0787 38.9136 9.90915C38.5922 9.73957 37.9018 9.04909 37.7828 8.98852C37.6637 8.94007 37.1043 8.83105 36.8067 8.83105C36.5091 8.83105 35.8783 8.97641 35.6045 9.02487C35.3188 9.0612 34.9736 8.94007 34.8189 8.89162C34.6403 8.84316 34.3428 8.75837 34.2118 8.77048C33.8309 8.81893 33.212 8.83105 32.962 8.78259C32.6406 8.72202 32.3787 8.63723 32.224 8.54032C32.0931 8.44341 32.0454 8.47975 31.8907 8.33439C31.7479 8.20114 31.736 8.12846 31.6288 8.11635C31.5336 8.09212 30.629 8.01944 30.4623 7.84985C30.2957 7.68026 30.0695 7.38953 29.9386 6.74752C29.8076 6.14184 30.0219 5.69364 30.2481 5.5725C30.6052 5.3908 31.0932 5.08796 31.3551 5.06373C31.4741 5.05162 31.2122 4.5913 31.0813 4.13099C31.0218 3.9614 30.7718 3.99774 30.2005 3.35572C29.9505 3.06499 29.5101 2.49566 29.391 2.30184C29.272 2.10803 29.4029 1.99901 29.2839 1.9869C29.1292 1.97478 28.6173 1.99901 27.8079 1.84153C27.0104 1.69617 26.4748 1.47812 26.2248 1.39333C25.9867 1.32065 25.4154 1.12683 25.2368 1.05415C25.0583 0.993579 24.7012 0.836105 24.3798 0.727081C24.0703 0.605946 23.9275 0.363675 23.7727 0.351562C23.6061 0.351562 23.0109 0.77554 22.2967 0.872443C21.5826 0.969353 21.3445 0.799766 20.9517 0.739194C20.547 0.690743 20.178 0.605946 19.7138 0.569607C19.2376 0.533269 17.8688 0.787653 17.6307 0.823992C17.3926 0.848217 17.0474 1.01781 16.7499 1.01781C16.5594 1.01781 15.5 1.33276 15.3215 1.3691C15.131 1.40544 14.8692 1.30853 14.7382 1.35699C14.5359 1.41756 14.2145 1.49024 14.1193 1.51447C14.024 1.52658 12.6314 2.01112 12.3933 2.05957C12.1076 2.12014 11.7148 2.25339 11.3934 2.37453C11.1792 2.45932 11.0482 2.6168 10.8697 2.73793C10.2745 3.1619 10.1079 3.18613 9.82222 3.27093C9.64367 3.31939 9.53654 3.40418 9.13183 3.41629C8.71522 3.44052 8.59619 3.52531 8.60809 3.61011C8.59619 3.88872 8.51286 4.45806 8.60809 4.51863C8.83425 4.63976 9.3937 5.5725 9.42941 6.16607C9.45322 6.79597 9.3818 7.24417 9.34609 7.43799C9.32228 7.59547 9.29848 7.70449 9.22705 7.8014C9.14374 7.8983 8.6438 8.0679 8.34622 8.08001C8.03674 8.10423 7.882 8.11635 6.79881 7.83774C5.96559 7.60758 5.88226 7.52278 5.78704 7.38953C5.69182 7.2684 5.47756 7.15938 5.33472 7.0867C5.17997 7.01401 5.02523 6.97768 4.8824 6.8202C4.73956 6.69906 4.07298 7.02613 3.16834 7.09881C3.00169 7.11092 2.69222 7.66814 2.14467 7.95887C1.70425 8.17692 1.48999 8.26171 1.34715 8.37073C0.942448 8.64935 0.478224 8.6978 0.525834 8.81893C0.62106 9.04909 0.442516 9.17023 0.502028 9.73957C0.585353 10.6844 0.371094 11.1811 0.371094 11.6414C0.371094 11.8715 0.62106 12.1502 0.740092 12.2471C0.859123 12.344 1.06148 12.6832 1.12099 12.9133C1.18051 13.1556 1.08528 13.943 0.966253 14.585C0.847221 15.2755 0.775806 15.9417 0.799611 16.184C0.811514 16.3536 1.00196 16.6685 1.09719 16.8502C1.20432 17.0683 1.43048 17.8435 1.44238 18.2554C1.46619 18.6309 1.35906 19.0791 1.35906 19.1518C1.35906 19.2366 1.48999 19.5273 1.59712 19.6848C1.72805 19.8665 2.02564 20.5206 2.10896 20.6781C2.21609 20.8961 2.23989 21.1626 2.23989 21.1626C2.23989 21.1626 2.21609 21.4897 2.19228 21.6835C2.18038 21.8773 2.10896 22.5557 2.04944 23.4036C1.97803 24.2395 1.97803 24.9421 2.06134 25.0147C2.14467 25.1117 2.32321 25.2691 2.39463 25.3903C2.45415 25.4993 2.97789 26.4199 3.03741 26.5653C3.09692 26.6985 3.22786 27.0498 3.27547 27.3163C3.32308 27.5828 3.3945 28.1037 3.43021 28.2369C3.45402 28.4065 3.66828 29.5331 3.70398 29.7148C3.7635 29.945 3.84682 30.587 3.87063 30.8293C3.89444 31.12 3.91824 31.5924 3.94205 31.6772H3.93014C4.23963 31.4955 4.1444 31.5197 4.5253 31.3865C5.20379 31.1321 5.08475 31.12 5.20379 31.1079C5.40614 31.0715 5.65611 30.7445 5.75133 30.7323C5.87036 30.7323 6.0132 30.5991 6.12033 30.5991C6.23936 30.6112 6.34649 30.5264 6.40601 30.5264C6.7393 30.4174 6.92974 30.4174 6.92974 30.4174L7.47729 30.3084C7.70345 30.272 13.1908 28.2854 14.2145 27.8735C15.2263 27.4617 14.2978 28.1764 15.631 27.6797C16.9522 27.1831 17.7973 26.7228 17.7973 26.7228C18.1306 26.6137 19.7733 25.7537 19.7733 25.7537C19.7733 25.7537 20.1423 25.5599 20.4518 25.5841C20.8327 25.6083 21.1064 25.572 21.2255 25.5599C21.3326 25.5356 21.4159 25.4993 21.7373 25.5114C22.0706 25.5235 22.2015 25.572 22.4753 25.5235C22.7253 25.4872 22.761 25.2934 22.88 25.257C22.9871 25.2328 23.13 25.148 23.1895 25.0753C23.3442 24.8694 23.5109 24.93 23.5823 24.7967C23.7132 24.5787 23.8799 24.6513 24.237 24.3606C24.3084 24.3 24.6655 24.3848 24.7845 24.3122C24.9154 24.2516 25.4273 23.8397 25.5344 23.7792C25.6534 23.6944 25.7249 23.5369 25.8677 23.5611C26.1772 23.6338 26.2248 23.5369 26.3795 23.6823C26.6057 23.9003 27.1175 24.2637 27.1413 24.3122C27.2366 24.5665 27.6175 24.5787 27.6294 24.9178C27.6413 25.0995 27.8079 25.0753 27.7841 25.3539C27.7722 25.4266 28.284 25.3297 28.4983 25.5235C28.6411 25.6447 29.1887 26.1776 29.272 26.214C29.4148 26.2988 29.6648 26.5168 29.7719 26.5653C29.9981 26.6622 30.8789 27.171 31.1408 27.5222C31.2598 27.6797 31.4741 27.6434 31.605 27.7403C31.9502 27.9826 32.8549 28.5519 32.9739 28.77C33.081 28.9638 33.9023 29.5452 33.938 29.6785C33.9619 29.8359 34.3428 30.0176 34.3666 30.1509C34.3785 30.2841 34.8903 30.6354 35.0808 30.7808C35.3307 30.9625 35.2593 30.9019 35.5212 31.1805L35.6045 31.0594Z" fill="#D4D4D8"/>
<path d="M33.4494 35.2987L33.4613 35.2745L33.4732 35.2382L33.497 35.2018L33.5089 35.1776L33.5327 35.1413L33.5446 35.1049L33.5684 35.0807L33.5923 35.0444L33.6042 35.008L33.628 34.9838L33.6518 34.9596L33.6637 34.9232L33.6875 34.899V34.8869L33.6994 34.8748L33.7113 34.8626L33.7232 34.8505V34.8384L33.7351 34.8263C34.0208 34.5235 33.9732 34.3418 34.4255 34.0026C34.5921 33.8814 34.5207 33.5059 34.5207 33.5059C34.5207 33.5059 34.5207 33.3848 34.6159 33.1667C34.6993 32.9487 35.0444 32.5368 35.2468 32.3188C35.3182 32.234 35.3896 31.9554 35.3896 31.8221C35.3896 31.7131 35.3777 31.4709 35.5087 31.2044V31.168C35.2468 30.8894 35.3301 30.9742 35.0802 30.7925C34.9016 30.6471 34.3779 30.2837 34.366 30.1626C34.3541 30.0293 33.9732 29.8476 33.9374 29.678C33.9017 29.5569 33.0804 28.9755 32.9733 28.7816C32.8662 28.5515 31.9496 27.9943 31.6044 27.7399C31.4735 27.643 31.2592 27.6914 31.1402 27.534C30.8783 27.1827 29.9975 26.6739 29.7713 26.5649C29.6761 26.5285 29.4261 26.3105 29.2714 26.2257C29.1881 26.1772 28.6405 25.6563 28.4977 25.5231C28.2834 25.3414 27.7835 25.4383 27.7835 25.3535C27.8073 25.087 27.6407 25.1112 27.6407 24.9295C27.6288 24.5904 27.236 24.5782 27.1407 24.3239C27.1169 24.2754 26.6051 23.8999 26.3908 23.694C26.2242 23.5486 26.1766 23.6455 25.8671 23.5728C25.7243 23.5486 25.6528 23.7061 25.5457 23.7787C25.4267 23.8514 24.9148 24.2633 24.7958 24.3239C24.6649 24.3844 24.3078 24.3117 24.2364 24.3602C23.8793 24.663 23.7126 24.5904 23.5936 24.7963C23.5103 24.9416 23.3436 24.8811 23.1889 25.087C23.1413 25.1476 22.9865 25.2445 22.8913 25.2687C22.7723 25.3051 22.7247 25.4868 22.4866 25.5231C22.2009 25.5716 22.07 25.5352 21.7486 25.5231C21.4153 25.511 21.332 25.5473 21.2249 25.5716C21.1058 25.5837 20.844 25.6079 20.4631 25.5837C20.1417 25.5716 19.7727 25.7533 19.7727 25.7533C19.7727 25.7533 18.1419 26.6133 17.7967 26.7345L17.642 26.8071C17.6301 26.9162 17.523 27.1584 17.4158 27.219C17.3206 27.2796 17.2016 27.2432 17.1421 27.328C17.0945 27.4249 17.2135 27.4855 17.2492 27.534C17.273 27.5824 17.3325 27.752 17.2373 27.8247C17.1183 27.9095 17.0706 28.0427 17.0111 28.1154C16.9516 28.2002 16.7136 28.3213 16.7731 28.4425C16.8207 28.5515 16.8683 28.6363 16.8802 28.7453C16.9159 28.9633 16.8088 29.0724 16.7969 29.1572C16.785 29.2541 16.8921 29.242 16.8088 29.3752C16.7016 29.5327 16.6064 29.5811 16.6659 29.6902C16.7136 29.7992 16.4874 29.7507 16.4398 29.7628C16.3803 29.7871 16.3327 29.8476 16.3088 29.9567C16.2969 30.0536 16.3326 30.2232 16.1422 30.2232C15.9517 30.2232 15.678 30.2232 15.6185 30.2837C15.547 30.3443 15.6661 30.4533 15.5828 30.5018C15.4875 30.5745 15.4399 30.5018 15.3685 30.5018C15.2852 30.5018 15.1899 30.5987 15.1899 30.5987C15.1899 30.5987 15.1304 30.6956 15.1066 30.7562C15.0709 30.8167 14.9638 30.8531 14.9519 30.9257C14.94 30.9863 15.0114 31.0226 14.94 31.1196C14.9043 31.1922 14.821 31.2286 14.7376 31.277C14.6543 31.3255 14.6186 31.2407 14.571 31.3618C14.5353 31.4587 14.5591 31.4951 14.5115 31.5556C14.44 31.6404 14.2972 31.6647 14.2139 31.7131C13.8806 31.8343 13.4997 31.8948 13.4283 31.8948C13.3569 31.8948 12.9164 31.8827 12.9164 31.7373C12.8926 31.4709 12.6784 31.4466 12.6546 31.3618C12.5832 31.168 12.3332 31.0832 12.3332 30.95C12.3213 30.7683 11.6785 30.8288 11.6547 30.95C11.6428 31.059 11.6547 31.6525 11.6547 31.7979C11.6428 32.0281 11.6547 32.3067 11.7023 33.4938C11.7261 34.2812 11.6904 34.4387 11.7856 35.2382C11.8452 35.7106 11.9404 35.9408 12.0118 36.0619L12.1903 36.0134C12.1665 36.0134 12.4522 35.9529 12.3332 35.8317C12.4998 35.8196 12.5117 35.6621 12.2261 35.65C12.4284 35.6016 12.4165 35.4925 12.2975 35.4683C12.4641 35.4199 12.5355 35.3593 12.4641 35.2624C12.607 35.2866 12.5593 35.1534 12.5236 35.1049C12.6308 35.1291 12.7022 35.0807 12.6784 35.008C12.845 35.1291 12.976 34.9959 12.7736 34.9111C12.9164 34.899 12.8688 34.8384 12.6546 34.8021C12.7379 34.8263 12.8926 34.7536 12.845 34.6809C12.9521 34.7657 13.095 34.6325 12.9164 34.4871C13.0355 34.4508 13.0831 34.257 13.0831 34.2206C13.095 34.3418 13.0474 34.5719 13.1783 34.5356C13.1069 34.6083 13.1188 34.6809 13.3569 34.6809C13.1426 34.7173 13.0831 34.8748 13.3569 34.899C13.2497 34.9838 13.5235 34.9596 13.6425 35.008C13.464 35.0322 13.4402 35.0807 13.5116 35.117C13.3331 35.1776 13.5354 35.2503 13.8092 35.2866C13.5473 35.2987 13.4878 35.4683 13.6068 35.541C13.6663 35.5895 13.7616 35.5652 13.8449 35.5531C13.9163 35.5168 13.952 35.4925 14.0353 35.4562C14.1068 35.432 14.1544 35.3593 13.9282 35.2866C14.0353 35.3108 14.2139 35.2987 14.1544 35.2503C14.4162 35.2139 14.4043 35.0807 14.0353 34.9596C14.1425 34.9959 14.5472 34.9353 14.3448 34.8263C14.44 34.8021 14.3567 34.6325 14.2258 34.6446C14.3091 34.6083 14.3329 34.4629 14.1782 34.4144C14.3329 34.4144 14.4877 34.3902 14.3448 34.3054C14.44 34.3175 14.5115 34.2691 14.4758 34.2085C14.6781 34.2449 14.6305 34.1237 14.5353 34.0753C14.5829 34.051 14.7376 34.0026 14.571 33.8936C14.7019 33.9057 14.8448 33.8814 14.821 33.8209C14.9757 33.8088 15.0828 33.6392 14.809 33.6634C14.8448 33.6271 14.8805 33.5544 14.7852 33.5059C14.9876 33.5059 15.0709 33.2394 14.9995 33.1667C15.1066 33.1789 15.0828 32.8639 15.0709 32.767C15.1423 32.9487 15.178 33.0577 15.2614 33.0577C15.1542 33.1304 15.2733 33.2515 15.3923 33.2879C15.2852 33.3363 15.4756 33.4696 15.5708 33.4454C15.4042 33.5302 15.3923 33.724 15.7851 33.8451C15.6185 33.8209 15.7137 33.9905 15.7851 34.0389C15.7256 33.9905 15.5113 33.9905 15.5708 34.0874C15.4875 34.1116 15.4399 34.2691 15.6899 34.1964C15.6661 34.257 15.797 34.3175 15.9756 34.3418C15.8684 34.4508 15.916 34.4992 16.0589 34.5235C15.9994 34.5598 15.9279 34.6083 16.0351 34.6809C15.9398 34.7536 15.8208 34.9111 16.2493 34.9232C16.0589 34.9959 16.2255 35.0444 16.3327 35.1049C15.9756 35.0928 16.0827 35.3835 16.3446 35.3956C16.2017 35.4441 16.285 35.5773 16.4517 35.6379C16.3565 35.7227 16.6897 35.759 16.5945 35.5895C16.7969 35.5652 16.8921 35.432 16.7493 35.3956C17.0111 35.323 16.8445 35.008 16.7612 35.0201C16.8802 34.9959 17.0349 34.899 16.9159 34.8142C17.0945 34.8505 17.2968 34.6809 16.8326 34.6446C17.2016 34.5961 17.1064 34.4387 16.9397 34.3781C16.9873 34.366 17.4277 34.4144 17.2492 34.2327C17.3682 34.1964 17.2373 34.1237 17.0945 34.1237C17.2016 34.0995 17.3563 33.9784 17.2135 33.9057C17.273 33.9178 17.3444 33.8936 17.2849 33.7603C17.3444 33.8088 17.6182 33.8209 17.5468 33.6755C17.642 33.6392 17.5587 33.5665 17.4992 33.5059C17.6539 33.4454 17.5587 33.2273 17.4992 33.1789C18.3086 33.1425 17.5706 32.8639 17.5111 32.8397C17.6896 32.8397 17.8801 32.7912 17.7848 32.6943C18.1895 32.7791 17.9634 32.4399 17.8444 32.3794C17.892 32.3794 18.0467 32.2825 17.9515 32.1856C18.1419 32.2825 18.2729 32.2461 18.0824 32.0402C18.1657 32.016 18.1181 31.9069 18.0467 31.8948C18.2253 31.9191 18.2253 31.5193 18.2253 31.5193C18.2253 31.5193 18.3443 31.8827 18.5228 31.9069C18.3562 31.9675 18.3919 32.2461 18.5109 32.2582C18.4752 32.3794 18.6776 32.3673 18.7847 32.3915C18.4752 32.3915 18.5347 32.5732 18.7966 32.6216C18.6657 32.6943 18.7966 32.7912 18.9752 32.7549C18.8085 32.8155 18.8204 32.9366 19.0228 33.0577C18.9394 33.1062 18.868 33.2031 18.9513 33.3C18.8204 33.3 18.9513 33.4817 19.2013 33.5302C18.8799 33.5423 18.8085 33.6392 19.2013 33.7845C19.1418 33.7967 19.1656 33.8936 19.3084 33.942C19.0942 34.0389 19.1061 34.2206 19.487 34.2327C19.3442 34.2812 19.4751 34.3297 19.5941 34.4144C18.9156 34.4629 19.2846 34.7536 19.5465 34.7052C19.3084 34.8142 19.6774 34.79 19.8203 34.8626C19.5822 34.8869 19.3084 34.9232 19.4156 34.9959C19.2846 35.0201 19.2727 35.2018 19.8203 35.2018C19.7251 35.2503 19.9036 35.432 19.9869 35.4804C19.3561 35.5652 19.6536 35.6621 19.975 35.7348C19.8798 35.759 19.7965 35.9286 20.1417 35.9044C19.9393 35.9529 19.7489 36.0498 19.9155 36.1588C20.0822 36.2557 20.0583 36.2799 22.0224 36.4616C23.5698 36.607 23.8316 36.6433 24.1887 36.6918C24.6054 36.7524 24.2959 36.4859 24.1649 36.3768C24.7958 36.4859 24.4744 36.1709 24.3911 36.0982C24.4744 36.0982 24.6649 36.0498 24.522 35.9529C24.8553 36.0013 24.7482 35.7712 24.6887 35.6985C25.1291 35.5895 24.9029 35.4683 24.7482 35.3835C24.8315 35.3593 24.9029 35.323 24.8434 35.2382C25.1291 35.3472 25.0458 35.2018 24.9386 35.1291C25.0577 35.1413 25.2243 34.9474 25.0458 34.8626C25.2362 34.8142 25.1767 34.7415 25.1291 34.7173C25.6052 34.6931 25.0577 34.4629 25.2005 34.5235C25.4029 34.4629 25.5576 34.2206 25.3791 34.1601C25.5457 34.1358 25.6647 33.9905 25.4981 33.9057C25.6052 33.8572 25.6052 33.7119 25.5576 33.6271C25.8671 33.6755 25.7719 33.409 25.6885 33.3848C25.9147 33.4211 25.9385 32.8881 25.9385 32.8881C25.9385 32.8881 25.9623 33.2394 26.1766 33.2637C26.0456 33.3363 26.2956 33.4938 26.4027 33.5302C26.2004 33.5302 26.1766 33.6634 26.2718 33.7119C26.0933 33.724 26.2837 33.942 26.4265 33.9905C26.129 34.0389 26.3789 34.1601 26.4503 34.2206C26.3075 34.2449 26.3194 34.3539 26.4742 34.3902C26.3194 34.4629 26.4503 34.6325 26.5218 34.6567C26.6051 34.6809 26.6884 34.6567 26.7717 34.5961C26.8908 34.4629 26.736 34.366 26.6646 34.3297C26.9503 34.2812 26.9384 34.051 26.8312 34.0026C27.0574 33.9905 26.9979 33.7361 26.9146 33.6755C27.0812 33.6876 27.0931 33.4575 27.105 33.3242C27.1526 33.5059 27.1407 33.6513 27.2598 33.6997C27.1169 33.8936 27.2836 34.0389 27.3907 34.0268C27.3074 34.0753 27.4026 34.2206 27.5097 34.257C27.2241 34.3297 27.5693 34.5477 27.6407 34.5477C27.4859 34.7052 27.7478 34.8263 27.7478 34.8263C27.7478 34.8263 27.605 34.9838 27.6407 35.1413C27.6764 35.2987 27.9144 35.2624 27.9859 35.2018C28.1287 35.0807 27.9621 34.9111 27.9025 34.8748C28.1525 34.8626 28.093 34.584 27.974 34.5477C28.212 34.5477 28.5215 34.4629 28.1763 34.3781C28.1287 34.3781 28.4501 34.2449 28.2358 34.1964C28.5334 34.2085 28.3311 33.9178 28.3311 33.9178C28.3311 33.9178 28.6524 33.8814 28.4858 33.7482C28.6643 33.7845 28.6881 33.615 28.6881 33.615C28.6881 33.615 28.6524 33.833 28.9143 33.9057C28.7477 33.9905 28.9619 34.0026 28.9976 34.0268C28.7239 34.1116 28.9381 34.2206 29.069 34.257C28.9143 34.2933 28.9381 34.4144 29.0571 34.475C28.9262 34.5114 29.069 34.6083 29.1881 34.6325C28.9976 34.79 29.0809 34.9474 29.2357 34.9717C29.0571 35.2503 29.3428 35.2139 29.4142 35.1534C29.4857 35.117 29.5214 35.0444 29.4976 34.9959C29.4738 34.9474 29.4261 34.9474 29.3666 34.9232C29.6285 34.8505 29.4976 34.6931 29.4142 34.6446C29.7594 34.6083 29.6642 34.3902 29.5928 34.3418C29.688 34.3297 29.7832 34.2933 29.7237 34.2206C29.807 34.2085 29.7713 34.1237 29.807 34.0026C29.8189 34.1601 29.8547 34.2812 29.9261 34.3054C29.8666 34.366 29.9499 34.4144 29.9856 34.4387C29.7594 34.3902 29.938 34.584 30.0094 34.5961C29.9142 34.6931 29.9975 34.7294 30.0689 34.7294C29.9975 34.8021 30.0451 34.8263 30.1284 34.8505C30.0332 34.9232 30.1522 35.0807 30.3189 35.0201C30.5688 34.9353 30.3189 34.7778 30.3189 34.7778C30.4617 34.7778 30.5689 34.7173 30.4974 34.6567C30.7593 34.7294 30.914 34.4992 30.6998 34.3902C30.7831 34.366 30.8783 34.1722 30.6641 34.1116C30.914 34.1601 31.0807 34.0874 30.9378 33.8936C31.0807 33.9057 31.0688 33.7724 31.0807 33.6876C31.1164 33.8572 31.1759 33.8693 31.2354 33.8693C31.1402 33.9784 31.2235 34.0268 31.283 34.0631C31.2592 34.1237 31.3187 34.2085 31.4259 34.1964C31.3664 34.2449 31.4378 34.3054 31.5092 34.3175C31.2116 34.3418 31.2949 34.4992 31.4259 34.4992C31.4021 34.5961 31.4259 34.6325 31.5925 34.6083C31.4854 34.7415 31.6758 34.7657 31.7473 34.7657C31.4973 34.7657 31.533 35.0565 31.6996 34.9959C31.6877 35.1534 31.9377 35.0444 32.021 35.0807C31.8425 35.2503 31.8901 35.3835 32.2591 35.3108C32.0805 35.5652 32.4019 35.4925 32.4257 35.4078C32.6519 35.5652 32.7233 35.3351 32.5805 35.2624C32.6876 35.2503 32.6519 35.1655 32.4972 35.117C32.6995 35.117 32.6519 35.0565 32.6162 34.9959C32.7709 35.0444 32.8305 34.9596 32.7709 34.8626C32.9376 34.8869 32.9376 34.6931 32.9376 34.6931C32.9376 34.6931 32.9614 34.8142 33.0804 34.79C33.0209 34.9232 33.128 34.9596 33.2828 34.9232C33.2233 35.0565 33.2947 35.1049 33.4018 35.117C33.3899 35.1655 33.4018 35.2503 33.4732 35.2866L33.4494 35.2987Z" fill="#D4D4D8"/>
<path d="M21.5579 26.0928L21.5222 26.0807L21.4984 26.0928H21.4032L21.3556 26.1049L21.308 26.1171L21.2604 26.1292L21.2127 26.1413L21.1651 26.1534L21.1056 26.1776L21.058 26.2019L21.0342 26.214L21.0104 26.2261L20.9866 26.2382L20.9509 26.2503L20.9271 26.2624L20.8914 26.2745L20.8675 26.2866L20.8318 26.3109L20.808 26.323L20.7723 26.3351L20.7366 26.3593L20.7128 26.3714C20.5462 26.4562 19.4868 27.2315 18.9868 27.4374C18.6178 27.5949 18.4869 27.9947 18.4869 28.0795C18.4988 28.2248 18.8916 28.1037 19.2487 28.0189C19.6891 27.8856 19.7129 27.8251 19.7367 27.716C19.7486 27.6434 20.0105 27.498 20.2367 27.2557C20.4152 27.0619 20.201 27.0135 20.3676 26.9165C20.5462 26.7954 20.9033 26.4078 21.058 26.3593C21.2127 26.2988 21.6174 26.0928 21.5579 26.0928ZM31.4138 28.673V28.6851H31.4257V28.6972H31.4376V28.7094L31.4495 28.7215L31.4614 28.7336V28.7457L31.4733 28.7578L31.4852 28.7699L31.4971 28.782L31.509 28.7941L31.5209 28.8063L31.5328 28.8184L31.5566 28.8426L31.5804 28.8668L31.6042 28.8911L31.6161 28.9032L31.628 28.9153L31.6399 28.9274L31.6518 28.9395L31.6637 28.9516V28.9637L31.6756 28.9758L31.6875 28.988L31.6994 29.0001H31.7113V29.0122L31.7232 29.0243C31.8066 29.0849 31.8899 29.1818 31.9494 29.0849C31.997 28.988 31.8066 28.9516 31.6637 28.8063C31.5209 28.6609 31.5923 28.6003 31.4376 28.5398C31.2828 28.4671 31.3781 28.6246 31.4138 28.673ZM28.6165 27.0498H28.6284V27.0619L28.6403 27.0861L28.6522 27.0983V27.1104L28.6641 27.1225L28.676 27.1467L28.6998 27.1588L28.7117 27.183L28.7236 27.1952L28.7355 27.2194L28.7594 27.2436L28.7713 27.2678L28.7832 27.2921L28.8189 27.3284L28.8546 27.3769L28.8903 27.4253L28.9141 27.4374L28.926 27.4617L28.9498 27.4859L28.9617 27.498L28.9855 27.5222L28.9974 27.5465L29.0093 27.5586L29.0212 27.5707L29.0331 27.5949L29.0569 27.607V27.6191H29.0688C29.176 27.7282 29.3188 27.8614 29.3902 27.9704C29.4497 28.0794 29.5331 28.0189 29.545 27.9583C29.5569 27.8856 29.295 27.6434 29.3902 27.6434C29.4735 27.6434 29.5569 27.8614 29.6759 27.9704C29.783 28.0794 29.8902 28.2369 29.9378 28.3338C29.9973 28.4429 30.1044 28.5519 30.2591 28.6972C30.4139 28.8426 30.4258 28.9637 30.4258 28.9637C30.4258 28.9637 30.4377 28.8305 30.4258 28.673C30.4139 28.5155 30.1639 28.3944 29.9973 28.249C29.8782 28.14 29.9378 28.0068 29.8306 27.8735C29.7235 27.7524 29.3783 27.1467 29.2831 27.074C29.1879 27.0013 29.1403 27.1588 29.0688 27.2436C29.0093 27.3284 28.8546 26.9529 28.7713 26.8318C28.6998 26.7227 28.5689 26.4078 28.4618 26.4926C28.4023 26.541 28.5808 26.9529 28.6165 27.0498ZM26.1407 26.3109V26.3351H26.1526V26.3836H26.1645V26.4078L26.1764 26.4199V26.432L26.1883 26.4441V26.4926C26.1883 26.5653 26.1049 26.5289 26.1049 26.5895C26.1049 26.6622 26.0811 26.8075 26.224 26.8318C26.3668 26.856 26.3787 26.8681 26.4739 26.8439C26.5811 26.8196 26.7834 26.8923 26.831 26.8196C26.8906 26.747 26.7834 26.6501 26.712 26.6137C26.6287 26.5653 26.6168 26.432 26.5692 26.323C26.5216 26.2261 26.3668 26.1776 26.2121 26.1776C26.1168 26.1776 26.1288 26.2261 26.1407 26.3109ZM28.2594 27.6312L28.2713 27.6676L28.2951 27.6918L28.307 27.7282L28.3308 27.7524L28.3546 27.7766L28.3665 27.8008L28.3903 27.8251L28.4142 27.8493L28.438 27.8735L28.4618 27.8856L28.4856 27.9099L28.5094 27.9341L28.5332 27.9462L28.557 27.9704L28.5927 27.9825L28.6165 28.0068L28.6522 28.0189L28.676 28.031L28.7117 28.0552L28.7475 28.0673L28.7832 28.0916L28.8189 28.1037L28.8546 28.1158L28.8903 28.14L28.926 28.1521L28.9617 28.1764L29.0093 28.1885L29.045 28.2127L29.0926 28.2248L29.1403 28.249L29.1879 28.2733L29.2355 28.2975C29.3664 28.3581 28.4499 27.607 28.2118 27.3284C27.9975 27.0983 27.7476 26.7106 27.5571 26.6985C27.3429 26.6743 28.1642 27.4374 28.2594 27.6312ZM23.2244 26.4805L23.2006 26.4926L23.1887 26.5047H23.1649L23.141 26.5168L23.1172 26.5289L23.0934 26.541L23.0696 26.5653L23.0458 26.5774L23.0101 26.6016L22.9863 26.6137L22.9625 26.6379L22.9268 26.6622L22.903 26.6743L22.8673 26.6985L22.8078 26.747L22.7482 26.7954L22.6887 26.8439L22.6292 26.9044L22.6054 26.9287L22.5816 26.9529L22.5459 26.9771L22.5221 27.0013L22.4983 27.0256L22.4864 27.0498L22.4626 27.074L22.4388 27.0983L22.4269 27.1225L22.415 27.1346C22.3197 27.2678 22.3673 27.4011 22.4031 27.4253C22.4388 27.4495 22.4745 27.4617 22.5221 27.4132C22.5578 27.3769 22.6173 27.2073 22.7125 27.1467C22.8197 27.0861 22.9625 26.8439 23.0458 26.7712C23.1291 26.6985 23.4148 26.432 23.2244 26.4805ZM21.7484 27.183H21.7008V27.1952H21.677L21.6651 27.2073H21.6532L21.6413 27.2194H21.6174V27.2315H21.6055L21.5936 27.2436L21.5817 27.2557H21.5579V27.2678H21.546L21.5341 27.28H21.5222C21.427 27.3647 21.3675 27.389 21.4151 27.4374C21.4508 27.4859 21.4984 27.5222 21.5579 27.4617C21.6174 27.4011 21.7127 27.2678 21.7603 27.2436C21.8198 27.2194 21.8079 27.183 21.7484 27.183ZM22.9268 26.1292H22.9149L22.8911 26.1413H22.8792L22.8554 26.1534L22.8316 26.1655L22.8078 26.1776L22.784 26.1897L22.7601 26.2019L22.7244 26.214L22.7006 26.2261L22.6768 26.2503L22.6411 26.2624L22.6173 26.2745L22.5816 26.2988L22.5221 26.3351L22.4507 26.3714L22.3912 26.3957L22.3673 26.4199L22.3316 26.432L22.3078 26.4562L22.2721 26.4683L22.2483 26.4805L22.2245 26.4926L22.2007 26.5168L22.1769 26.5289L22.1531 26.541H22.1293L22.1055 26.5531L22.0936 26.5653C21.915 26.6501 21.7841 26.7591 21.796 26.7954C21.796 26.8439 21.8436 26.856 21.9983 26.8681C22.1531 26.8802 22.1531 26.8681 22.2959 26.7591C22.4269 26.6501 22.6411 26.4562 22.7363 26.3714C22.8435 26.2624 22.9744 26.1171 22.9268 26.1292ZM35.4727 31.2653H35.437L35.4132 31.2532H35.3894L35.3656 31.2411H35.3299L35.318 31.229H35.2823L35.2704 31.2169H35.2347L35.2228 31.2047H35.1871L35.1752 31.1926C34.8895 31.1078 34.7705 30.9746 34.0563 30.9019C33.9134 30.8898 33.4849 30.381 32.8421 30.1266C32.6636 30.0661 31.5447 29.3756 31.4019 29.3514C30.9138 29.2908 30.7829 29.1212 30.8424 29.2787C30.8781 29.3635 31.0567 29.4725 31.0686 29.7753C31.0805 29.8723 31.1995 30.2114 31.1995 30.2114C31.1876 30.3326 29.6283 29.8117 29.2593 29.2302C28.7474 28.4429 28.6522 28.249 28.3784 28.0673C28.0928 27.8977 27.8547 27.716 27.7595 27.4859C27.7238 27.4374 27.7476 27.3284 27.6643 27.3163C27.4976 27.3042 27.3667 27.3405 27.2715 27.1467C27.2119 27.0256 27.1048 27.2073 27.0215 27.28C26.9501 27.3284 26.8072 27.3042 26.8429 27.4011C26.8667 27.4859 26.7358 27.5343 26.7953 27.5828C27.0572 27.8372 26.9263 28.0673 27.0453 28.1158C27.0929 28.1279 27.1524 28.2975 27.1405 28.4065C27.1167 28.6488 27.2715 28.6972 27.2834 28.8184C27.2834 28.9153 27.3548 29.1454 27.2834 29.1333C27.1762 29.1091 26.9977 28.988 26.8548 28.8547C26.7239 28.7336 26.6168 28.7336 26.593 28.6246C26.5811 28.5761 26.462 28.5034 26.3073 28.2248C26.2835 28.1521 26.5335 28.6003 26.6168 28.9032C26.6763 29.1212 26.7834 29.3635 26.9025 29.521C27.0096 29.6663 26.8906 29.9207 26.8906 29.9207C26.8548 29.9207 26.5454 29.7511 26.4978 29.6421C26.3668 29.3998 25.9859 29.3635 25.6764 28.7941C25.5693 28.5761 25.6883 28.14 25.6883 28.0189C25.6883 27.8372 25.486 27.7403 25.3193 27.4495C25.1527 27.2073 25.355 26.5895 25.3193 26.3957C25.2836 26.2261 25.3669 25.9596 25.2836 25.9596C25.1527 25.9717 24.7599 26.3593 24.2838 26.6137C24.2004 26.6501 24.0219 26.8075 23.9624 26.8196C23.5696 26.9408 23.4148 27.1104 23.2363 27.498C23.022 27.9583 22.8673 28.1885 22.784 28.3581C22.6887 28.5277 22.8197 28.564 22.6887 28.6851C22.5935 28.7578 21.8317 29.521 21.7246 29.63C21.3318 30.0297 21.2961 29.8844 21.308 29.8359C21.3556 29.63 21.8198 29.097 22.0936 28.6367C22.2721 28.3581 21.915 28.6488 21.7841 28.5761C21.5579 28.4429 21.796 28.1642 21.8436 28.1279C21.9388 28.0189 21.8674 27.9341 21.9269 27.8614C22.0936 27.6797 21.9864 27.6555 22.046 27.607C22.1531 27.5222 22.1055 27.5222 22.046 27.5465C21.9031 27.6191 21.4984 27.8614 21.4151 27.9462C21.2961 28.0673 20.32 28.673 20.5343 28.3702C20.5819 28.3096 20.6652 28.2127 20.7604 28.14C20.8675 28.031 20.939 27.8614 20.9509 27.7645C20.9509 27.6918 20.939 27.607 20.9866 27.5586C21.4865 27.1225 20.9152 27.4617 20.8556 27.5222C20.689 27.7039 20.1772 28.0068 19.9629 28.14C19.8201 28.2127 19.4154 28.4065 19.3796 28.5155C19.332 28.6246 19.2844 28.7215 19.2011 28.6851C19.0107 28.6003 18.9154 28.6488 18.7607 28.782C18.6059 28.9032 18.5226 28.7578 18.4512 28.7699C18.2131 28.8184 18.0822 28.7215 17.987 28.7457C17.8203 28.7941 17.1299 29.2908 16.9276 29.2302L16.8324 29.2424L16.7967 29.1939L16.7848 29.1576C16.7967 29.1454 16.9038 28.9395 16.88 28.7457C16.8681 28.6367 16.8324 28.5519 16.7729 28.4429C16.7252 28.3217 16.9633 28.2006 17.0228 28.1158C17.0823 28.0431 17.1299 27.9099 17.2371 27.813C17.3323 27.7524 17.2847 27.607 17.249 27.5586C17.2252 27.498 17.1061 27.4132 17.1538 27.3284C17.2014 27.2315 17.3323 27.28 17.4394 27.2194C17.5466 27.1467 17.6418 26.9044 17.6418 26.7833L17.7965 26.7227C18.1298 26.6137 19.7725 25.7415 19.7725 25.7415C19.7725 25.7415 20.1414 25.5598 20.4509 25.5719C20.8318 25.6083 21.1056 25.5719 21.2246 25.5598C21.3318 25.5356 21.4151 25.4993 21.7365 25.5114C22.0698 25.5235 22.2007 25.5719 22.4745 25.5235C22.7244 25.475 22.7601 25.2933 22.8792 25.257C22.9863 25.2328 23.1291 25.1359 23.1887 25.0753C23.3434 24.8694 23.51 24.9299 23.5934 24.7967C23.7124 24.5786 23.8791 24.6513 24.2361 24.3606C24.3076 24.3 24.6647 24.3848 24.7837 24.3121C24.9146 24.2516 25.4265 23.8397 25.5336 23.7791C25.6526 23.6943 25.724 23.5369 25.8669 23.5611C26.1764 23.6338 26.224 23.5369 26.3787 23.6822C26.6049 23.9003 27.1167 24.2516 27.1405 24.3121C27.2357 24.5665 27.6166 24.5786 27.6285 24.9178C27.6405 25.0995 27.8071 25.0753 27.7833 25.3539C27.7714 25.4266 28.2832 25.3297 28.4975 25.5114C28.6403 25.6446 29.1879 26.1776 29.2712 26.214C29.414 26.2988 29.664 26.5168 29.7711 26.5653C29.9973 26.6622 30.8781 27.1709 31.14 27.5222C31.259 27.6797 31.4733 27.6312 31.6042 27.7282C31.9494 27.9825 32.854 28.5519 32.9731 28.7699C33.0802 28.9637 33.9015 29.5452 33.9372 29.6784C33.961 29.8359 34.3419 30.0176 34.3657 30.1509C34.3777 30.2841 34.8895 30.6354 35.0799 30.7808C35.2942 30.9383 35.3418 30.9746 35.5203 31.1684L35.4727 31.2653Z" fill="white"/>
<path d="M31.7239 37.7932V37.8053L31.712 37.8174V37.8295L31.7001 37.8417V37.8659H31.6882V37.878L31.6763 37.8901V37.9022L31.6644 37.9143V37.9507L31.6525 37.9628V37.987C31.593 38.1808 31.4144 39.2589 31.4025 39.5012C31.3787 39.7556 31.3192 39.8646 31.1883 39.9979C31.0573 40.1432 30.6764 40.4461 30.6526 40.6278C30.6407 40.7974 30.7002 41.403 30.5812 41.5121C30.4384 41.6574 29.9027 42.3358 29.6885 42.5538C29.4861 42.7719 29.1409 43.1595 29.1409 43.1595L28.9505 43.4381C29.0457 43.5592 29.1766 43.959 28.9029 44.2376C28.6648 44.4799 28.1887 45.134 27.534 45.6064C27.1888 45.8608 26.796 46.1152 26.7127 46.2242C26.5936 46.3817 26.6651 46.6967 26.5698 46.7572C26.3913 46.8541 26.0937 47.2175 25.9628 47.266C25.7961 47.3508 25.808 47.4477 25.7604 47.5931C25.7128 47.7384 25.6176 47.7748 25.5819 47.9322C25.5104 48.1745 25.1414 48.7317 24.9034 49.1194C24.7486 49.3616 24.5106 49.4101 24.2487 49.6039C23.7726 49.931 23.8559 49.7735 23.0584 50.5366C22.7846 50.7426 22.4275 51.1544 22.3085 51.2392C22.2014 51.3483 21.8681 51.8328 21.6538 52.0508C21.4277 52.2689 21.2134 52.4021 20.2016 52.596C19.9755 52.6565 19.7493 52.4991 19.3446 52.4991C19.1422 52.4991 18.5947 52.1841 18.4043 52.063C18.2495 51.966 17.9876 51.8449 17.8805 51.7601C17.4282 51.4573 17.202 51.3725 17.0592 51.3119C16.9044 51.2392 16.7259 51.1544 16.595 51.0575C16.4164 50.9364 16.1546 50.6457 16.0474 50.5488C15.607 50.1369 14.8095 49.6281 14.7024 49.4949C14.6071 49.3495 14.4048 49.0588 14.25 48.8771C14.1072 48.6954 14.0358 48.756 13.9525 48.6106C13.9048 48.55 13.9287 47.9807 13.8929 47.8717C13.8691 47.7505 13.8453 47.6173 13.4525 47.3871C13.0597 47.157 12.8812 47.1327 12.7502 46.9389C12.6074 46.7088 12.0599 46.1152 12.036 45.9941C12.0003 45.8608 11.9527 45.4974 11.9289 45.3763C11.9051 45.2551 11.8575 45.0492 11.5837 44.8675C11.4885 44.7948 11.4885 44.6979 11.4409 44.6374C11.4052 44.5768 11.2742 44.5405 11.2147 44.5162C11.1433 44.5041 11.1433 44.3709 11.1076 44.1892C11.0124 43.6198 10.8338 43.426 10.6196 43.1716C10.4053 42.9294 10.1672 42.7113 10.0958 42.675C9.92918 42.6023 9.72683 42.4085 9.64351 42.3116C9.57209 42.2268 9.48877 42.1299 9.48877 41.9966C9.48877 41.8634 9.34593 41.3546 9.23881 41.1608C9.08406 40.8822 8.95312 40.5066 8.64365 40.0705C8.26274 39.5618 8.04849 39.4528 7.92946 39.3316C7.84613 39.2468 7.83423 39.0288 7.85803 38.9076C7.88184 38.7381 7.76281 38.6169 7.59616 38.411C7.41761 38.2293 6.94149 37.7447 6.87007 37.6478C6.81055 37.5752 6.67962 37.5146 6.56059 37.4904C6.45346 37.4661 6.33443 37.2117 6.26301 37.1633C6.19159 37.1148 6.17969 37.0179 6.17969 36.8726C6.17969 36.8605 6.16778 36.8241 6.13208 36.7635C6.12017 36.7151 6.09636 36.6666 6.07256 36.6061L6.04875 36.5697C6.08446 36.5576 6.13208 36.5334 6.16778 36.5213C6.25111 36.4849 6.2392 36.4486 6.13208 36.4365C6.21539 36.4123 6.31062 36.3396 6.2273 36.3032C6.32252 36.2548 6.40585 36.1458 6.32252 36.1215C6.38204 36.0731 6.41775 35.8671 6.41775 35.8671C6.41775 35.8671 6.44155 35.9883 6.52488 36.0731C6.44155 36.0731 6.53678 36.1215 6.57249 36.1579C6.52488 36.1821 6.59629 36.2063 6.64391 36.2548C6.57249 36.279 6.59629 36.3153 6.66772 36.3396C6.62011 36.3759 6.70342 36.388 6.77485 36.3638C6.73914 36.4244 6.70342 36.4244 6.70342 36.4244C6.70342 36.4244 7.07242 36.388 7.26288 36.2548C7.45333 36.1215 7.38191 36.0731 7.22717 36.0004C7.37 35.9519 7.7271 35.8429 7.60807 35.7339C7.70329 35.6612 7.57236 35.6128 7.45333 35.5885C7.88184 35.4916 7.90564 35.4189 7.85803 35.3947C8.08419 35.2615 7.81042 35.2009 7.739 35.1524C8.02468 35.213 7.96516 35.1161 7.92946 35.0434C8.16752 35.1524 8.17942 34.8981 8.08419 34.8254C8.17942 34.8133 8.19132 34.68 8.04849 34.5952C8.28655 34.6195 8.42939 34.571 8.23893 34.4378C8.35797 34.3893 8.36987 34.3287 8.32226 34.2803C8.45319 34.1955 8.36987 34.1107 8.31036 34.0865C8.44129 34.0259 8.42939 33.8805 8.35797 33.8442C8.4651 33.7109 8.51271 33.4081 8.51271 33.4081C8.51271 33.4081 8.51271 33.6383 8.67935 33.7594C8.61983 33.82 8.65555 33.9411 8.75077 33.9411C8.65555 34.0865 8.71506 34.1349 8.88171 34.1591C8.82219 34.2439 8.76268 34.3166 8.98884 34.3287C8.79839 34.462 8.8698 34.5468 9.04835 34.5225C8.8579 34.5952 8.97693 34.7164 9.17929 34.68C9.03645 34.789 9.03645 34.9102 9.25071 34.8738C9.04835 34.9829 9.02455 35.1282 9.34593 35.1161C9.23881 35.1161 9.13168 35.4068 9.53638 35.4916C9.57209 35.1646 9.69112 32.9114 9.71493 32.4996C9.72683 32.0514 9.70302 31.7364 9.70302 31.7364C9.70302 31.7364 9.66732 31.7243 9.47687 31.7364C9.29832 31.7607 9.21499 31.8212 8.92932 31.7243C8.64365 31.6274 8.59603 31.688 8.39368 31.7001C8.21513 31.7122 8.1199 31.688 7.91755 31.7607C7.70329 31.8454 7.47713 31.7364 7.38191 31.6516C7.28668 31.579 7.38191 31.4094 7.53665 31.4094C7.88184 31.4215 7.95326 31.3003 7.98897 31.2398C8.08419 31.0459 7.85803 31.0823 7.82233 30.9854C7.76281 30.7916 7.65568 30.7552 7.60807 30.7068C7.50094 30.5978 7.38191 30.6583 7.32239 30.6341C7.26288 30.5978 7.17955 30.5856 7.21526 30.416C7.21526 30.3676 7.17955 30.4282 7.04862 30.416C6.91768 30.3918 7.00101 30.3918 6.88197 30.3676C6.77485 30.3555 6.84627 30.2465 6.70342 30.2222C6.59629 30.2101 6.58439 30.2828 6.40585 30.2949C6.34633 30.2949 6.09636 30.2707 6.00114 30.2344C5.90592 30.198 5.78688 30.2465 5.71546 30.1859C5.63214 30.1253 5.66785 30.0163 5.63214 29.8831C5.63214 29.8104 5.75117 29.7013 5.79879 29.5923C5.8583 29.4954 5.96543 29.4591 6.2392 29.4954C6.35823 29.5196 6.58439 29.5318 6.76294 29.5196C7.03671 29.4833 6.90578 29.6044 7.10814 29.5923C7.31049 29.5923 7.56046 29.4712 7.57236 29.3501C7.59616 29.241 7.59617 29.1199 7.52474 29.0957C7.45333 29.0593 7.3462 29.0593 7.27478 28.9624C7.19145 28.8655 7.21526 28.7686 7.21526 28.6717C7.22717 28.5869 7.3462 28.4779 7.46523 28.4052C7.70329 28.2477 7.57236 28.1629 7.64378 28.1387C7.7152 28.1024 7.82233 28.066 7.96516 28.066C8.21513 28.0539 8.32226 28.1387 8.51271 28.1508C8.72696 28.1508 8.94122 28.2114 9.09596 28.2114C9.52448 28.1872 9.11977 27.9812 9.34593 28.0176C9.46496 28.0176 9.63161 27.9812 9.75064 27.9328C9.953 27.8359 9.953 27.642 10.0601 27.5451C10.1196 27.4967 10.1077 27.2786 10.0958 27.1938C10.0958 27.0969 10.0006 26.9395 9.85777 26.9152C9.72684 26.891 9.5959 26.9152 9.42925 26.891C9.27451 26.8668 9.23881 26.891 9.15548 26.9152C9.06025 26.9395 9.06025 26.9516 8.97693 27.0121C8.88171 27.0848 8.82219 27.0848 8.75077 27.1575C8.65555 27.2423 8.71506 27.3755 8.60793 27.4361C8.38177 27.5573 8.40558 27.424 8.29845 27.4482C8.19132 27.4603 8.108 27.4482 8.02468 27.424C7.91755 27.3998 7.75091 27.3634 7.739 27.2786C7.7271 27.1817 7.66758 27.1333 7.59616 27.0969C7.53665 27.0606 7.52474 27 7.45333 27C7.37 27 7.3343 27 7.22717 27.0848C7.13194 27.1575 7.16765 27.2665 7.13194 27.3271C7.03671 27.4725 7.06052 27.5815 6.9653 27.5815C6.85817 27.5815 6.9653 27.4725 6.78675 27.5209C6.69152 27.5451 6.70342 27.6299 6.57249 27.6663C6.47726 27.7026 6.44156 27.7268 6.29872 27.7874C6.13208 27.8601 6.09636 27.7753 5.95353 27.739C5.83449 27.7026 5.77497 27.6178 5.60833 27.6178C5.4893 27.6299 5.56072 27.3998 5.69166 27.2423C5.81069 27.1091 5.96543 27.1938 6.07256 27.0606C6.27491 26.8062 6.27491 26.9516 6.32252 26.7456C6.35823 26.6124 6.51298 26.673 6.48917 26.5397C6.46536 26.3944 6.35823 26.467 6.33443 26.2974C6.32252 26.2005 6.35823 26.0431 6.50107 26.0188C6.64391 26.0067 6.83436 26.0915 7.01291 25.9583C7.14384 25.8856 7.29858 25.8371 7.38191 25.7523C7.45333 25.6675 7.41761 25.5464 7.47713 25.5101C7.52474 25.4737 7.66758 25.5222 7.63187 25.3162C7.59616 25.1588 7.41761 25.2678 7.29858 25.1588C7.21526 25.0982 7.23907 25.0255 7.16765 25.0134C6.9653 24.9892 7.07242 25.1345 6.78675 24.9649C6.66772 24.8923 6.76294 24.8438 6.66772 24.7833C6.56059 24.7227 6.47726 24.7832 6.28682 24.6863C6.12017 24.6015 5.95353 24.7469 5.90592 24.6258C5.8821 24.541 5.71546 24.4683 5.69166 24.432C5.66785 24.3956 5.63214 24.335 5.64404 24.226C5.65595 24.1291 5.63214 23.9959 5.72736 23.9474C5.82259 23.9111 5.8821 23.8142 5.94162 23.7415C6.04875 23.6203 5.97733 23.475 6.04875 23.4144C6.13208 23.3417 6.27491 23.0389 5.89401 23.2569C5.77497 23.3175 5.62023 23.2448 5.58453 23.3054C5.54882 23.3539 5.28694 23.3539 5.28694 23.2448C5.28694 23.0995 5.53692 23.1116 5.41789 22.942C5.29885 22.7845 5.20363 22.8814 5.20363 22.7118C5.19173 22.627 5.39407 22.4938 5.51311 22.4453C5.63214 22.3969 5.81069 22.2879 6.07256 22.409C6.67962 22.7118 6.57249 22.4696 6.78675 22.4696C7.01291 22.4817 6.95339 22.5907 7.38191 22.6149C7.57236 22.627 7.83423 22.627 7.83423 22.518C7.83423 22.3969 7.67949 22.3969 7.57236 22.3727C7.47713 22.3484 7.3343 22.4696 7.25097 22.3121C7.19145 22.2394 7.39381 22.1909 7.37 22.0577C7.37 21.9245 7.15575 22.0698 7.14384 21.9608C7.10814 21.8033 7.25097 21.658 7.10814 21.561C7.04862 21.5247 6.92958 21.4884 6.82246 21.5489C6.72724 21.5974 6.64391 21.6822 6.47726 21.5247C6.29872 21.3793 6.57249 21.3067 6.48917 21.1855C6.41775 21.0644 6.17969 21.2461 6.2392 21.0644C6.27491 20.9796 6.40585 20.7858 6.56059 20.81C7.27478 20.9069 7.51284 20.6646 7.65568 20.6768C7.85803 20.7131 7.85803 20.7979 8.0961 20.7858C8.27464 20.7737 8.35797 20.592 8.67935 20.5798C9.20309 20.5677 9.21499 20.6646 9.39354 20.7252C10.0482 20.919 9.79825 20.5677 9.94109 20.5677C10.1315 20.5798 10.1553 20.4587 10.1553 20.386C10.1553 20.3255 10.0482 20.2891 9.89348 20.2528C9.75064 20.2286 9.77445 20.1074 9.45306 20.168C9.04835 20.2649 8.81029 20.1922 8.67935 20.3012C8.4651 20.4708 8.26274 20.4345 8.16752 20.2649C8.08419 20.1195 7.83423 20.0347 7.76281 20.059C7.53665 20.1195 7.41761 20.0953 7.3581 19.9863C7.28668 19.8773 7.16765 19.744 7.02481 19.7077C6.89388 19.6713 6.72724 19.8046 6.64391 19.5502C6.57249 19.3685 6.78675 19.3443 6.85817 19.2474C6.94149 19.1504 6.85817 19.0535 6.94149 18.993C7.07242 18.8961 7.29858 18.7628 7.27478 18.678C7.15575 18.4357 7.08433 18.7144 7.01291 18.6538C6.78675 18.4842 6.72724 18.6659 6.62011 18.6175C6.50107 18.5569 6.76294 18.4479 6.77485 18.3388C6.79865 18.2177 6.72724 18.1087 6.90578 17.9512C7.20336 17.7089 6.9891 17.7089 6.9653 17.6241C6.95339 17.5393 7.02481 17.4667 6.9891 17.4061C6.95339 17.3213 6.87007 17.3092 6.85817 17.2365C6.84627 17.1517 6.94149 16.97 7.02481 16.9216C7.09623 16.8731 7.03671 16.7883 7.38191 16.7035C7.739 16.6187 7.52474 16.4612 7.52474 16.4007C7.52474 16.328 7.56046 16.2311 7.61997 16.2069C7.67949 16.1826 7.739 16.2069 7.83423 16.1947C7.94136 16.1826 7.98897 16.1463 8.108 16.1584C8.22703 16.1826 8.21513 16.2432 8.31036 16.2674C8.40558 16.2795 8.477 16.2553 8.54842 16.2553C8.70316 16.2674 8.76268 16.3643 8.89361 16.3159C9.02455 16.2553 9.03645 16.1584 9.02455 16.0494C9.02455 15.9525 8.88171 16.0252 8.89361 15.9282C8.90552 15.8313 8.98884 15.8677 8.97693 15.6739C8.97693 15.5891 8.96503 15.5164 9.09596 15.48C9.23881 15.4437 9.25071 15.3831 9.34593 15.3831C9.42925 15.3952 9.57209 15.48 9.70302 15.4922C9.78635 15.4922 10.0006 15.4679 10.0244 15.577C10.0601 15.7102 10.1077 15.795 10.1315 15.8798C10.1434 15.9404 10.1434 16.013 10.2268 16.0494C10.2744 16.0615 10.322 16.1099 10.322 16.2069C10.322 16.3522 10.3577 16.7277 10.3577 16.7277C10.3577 16.7277 10.4053 16.8489 10.4648 16.8246C10.5362 16.8004 10.6077 16.7641 10.6315 16.328C10.6434 16.2311 10.7029 15.3105 10.6434 15.2257C10.5482 15.0561 10.6077 15.0076 10.5362 14.9228C10.4648 14.838 10.3815 14.9228 10.3815 14.838C10.3815 14.7411 10.3934 14.5836 10.2744 14.5594C10.1077 14.5231 10.1077 14.7048 10.0958 14.7775C10.0958 14.8501 9.9768 14.8744 9.83396 14.8744C9.73874 14.8744 9.61971 14.838 9.53638 14.7896C9.45306 14.7532 9.42925 14.7532 9.32212 14.6684C9.26261 14.6321 9.23881 14.5958 9.26261 14.3656C9.28642 14.1839 9.42925 14.0506 9.34593 13.9658C9.26261 13.8932 9.23881 13.8689 9.01265 13.8689C8.79839 13.8689 8.64365 13.8568 8.65555 13.7357C8.66745 13.5661 8.8579 13.5661 9.19119 13.5903C9.33402 13.6024 9.45306 13.4813 9.41735 13.3238C9.40545 13.2633 9.46496 13.2148 9.46496 13.0816C9.45306 12.9362 9.31022 12.8393 9.19119 12.912C9.03645 12.9968 8.94122 12.9362 8.83409 12.9968C8.61983 13.1421 8.5008 13.0937 8.39368 13.0331C8.32226 12.9847 8.25084 12.8877 8.29845 12.7787C8.34606 12.6697 8.39368 12.6576 8.40558 12.5243C8.40558 12.4032 8.26274 12.3911 8.36987 12.27C8.4889 12.1367 8.36987 11.9429 8.4889 11.8702C8.72696 11.7006 8.51271 11.5553 8.70316 11.4583C8.81029 11.3978 8.83409 11.2403 8.83409 11.1192C8.83409 11.0101 8.70316 10.9859 8.79839 10.8769C8.89361 10.78 8.846 10.5983 9.04835 10.5619C9.23881 10.5377 9.35784 10.4529 9.51258 10.3802C9.61971 10.3439 9.78635 10.2107 9.9768 10.1137C10.0839 10.0532 10.1077 10.0532 10.4291 10.0168C10.5243 10.0047 10.7148 9.85936 10.7981 9.76245C10.8814 9.66554 10.9767 9.64132 11.1671 9.6292C11.2742 9.60497 11.3338 9.68977 11.5242 9.77456C11.7147 9.85936 11.6909 9.99261 11.8575 10.0289C11.9646 10.0532 12.167 10.0047 12.0599 10.1985C11.9765 10.3439 12.1075 10.4529 11.917 10.4772C11.8099 10.5014 11.7266 10.5619 11.7266 10.6225C11.7385 10.7558 11.8694 10.8042 12.0122 10.8648C12.167 10.9253 12.167 11.0344 12.2503 11.1313C12.3098 11.1919 12.3217 11.3857 12.3455 11.5068C12.3693 11.6158 12.3693 11.7248 12.3693 11.8218C12.3812 11.9187 12.4527 12.0035 12.4408 12.1609C12.4289 12.2942 12.3574 12.379 12.3098 12.4759C12.2503 12.5728 12.2027 12.6939 12.167 12.7666C12.1432 12.8635 12.1551 12.9968 12.1432 13.0816C12.1194 13.1785 12.0718 13.3359 12.1432 13.3844C12.2027 13.4086 12.2741 13.3844 12.3693 13.4086C12.4289 13.4207 12.5003 13.5177 12.5241 13.5661C12.5479 13.6267 12.5122 13.7963 12.7026 13.8326C12.774 13.8447 12.8336 13.9174 12.8336 13.978C12.8098 14.1354 12.7621 14.2687 12.8931 14.4262C12.9764 14.5352 13.0835 14.511 13.2621 14.511C13.4406 14.4988 13.4168 14.2808 13.4525 14.1476C13.5001 14.0143 13.6311 13.7963 13.7858 13.6994C13.8691 13.6509 13.7025 13.4329 14.131 13.3965C14.5595 13.3602 14.7024 13.3723 14.7738 13.4934C14.9285 13.8326 14.7619 13.8447 14.6666 14.0022C14.619 14.0991 14.5238 14.1233 14.5238 14.2808C14.5357 14.5231 14.8095 14.4746 14.8095 14.5836C14.8095 14.6442 14.7143 14.6563 14.7024 14.7532C14.7024 14.8501 14.8452 14.8623 14.8452 14.9834C14.8452 15.044 14.619 15.1893 14.7619 15.2862C14.8333 15.3468 14.9047 15.3952 14.9285 15.6739C14.9523 15.795 14.7619 15.7829 14.7738 15.9161C14.7857 16.0857 14.7619 16.1221 14.6547 16.1826C14.5 16.2674 14.4167 16.4007 14.5 16.4855C14.5833 16.546 14.7024 16.5097 14.7619 16.5945C14.8214 16.6672 14.7143 16.9458 14.8095 17.0306C14.869 17.0911 15.0952 16.9942 15.0118 17.1638C14.8928 17.4182 15.1904 17.4546 14.8928 17.5999C14.7143 17.6847 14.6309 17.6968 14.5357 17.7453C14.3929 17.8058 14.2143 17.8785 14.1905 17.9754C14.1667 18.0845 14.2143 18.2419 14.0715 18.2662C13.9406 18.2783 13.9406 18.46 13.9763 18.5205C14.012 18.5932 14.1191 18.6659 14.1191 18.7507C14.1191 18.8476 14.0834 18.9809 14.1072 19.1262C14.1191 19.2352 14.1905 19.32 14.2738 19.3685C14.3572 19.4048 14.2143 19.5139 14.2619 19.5744C14.3096 19.635 14.4405 19.6956 14.6666 19.6956C14.8571 19.6956 15.1071 19.6592 15.2499 19.6592C15.4046 19.6592 15.3451 19.7561 15.4166 19.8167C15.5594 19.9257 15.7617 19.8167 15.8451 19.9015C15.9879 20.0347 16.0831 19.9742 16.1188 20.1074C16.1426 20.1801 16.2141 20.2043 16.2498 20.2891C16.2736 20.3739 16.1784 20.4708 16.2617 20.5677C16.3331 20.6404 16.2855 20.7373 16.2498 20.81C16.2022 20.8827 16.1188 20.9796 16.095 21.1007C16.0712 21.2098 16.095 21.2945 15.9879 21.3915C15.9165 21.4641 15.8689 21.561 15.7379 21.5247C15.607 21.5005 15.4761 21.4641 15.2975 21.4399C15.0833 21.3915 15.0833 21.5247 15.0237 21.5974C14.9523 21.6822 14.6786 21.6943 14.6666 21.8518C14.6547 21.9608 14.7024 21.9608 14.9761 21.9244C15.0714 21.9002 15.0714 22.1062 15.0118 22.1788C14.9642 22.2879 14.8809 22.4575 14.6666 22.5544C14.5357 22.6028 14.3572 22.3605 14.2977 22.3727C14.1667 22.3969 14.0596 22.2757 13.9644 22.3727C13.8691 22.4575 13.7977 22.4575 13.7144 22.5059C13.643 22.5665 13.7739 22.7724 13.6787 22.7724C13.5835 22.7724 13.4644 22.7603 13.4287 22.8572C13.3811 22.9904 13.4763 23.0631 13.5716 23.0995C13.6549 23.1358 13.7858 23.1721 13.7858 23.2448C13.7858 23.3175 13.5835 23.475 13.762 23.5477C13.9882 23.6203 13.8691 23.693 14.0477 23.7536C14.2381 23.8142 14.619 23.8747 15.119 24.0564C15.4642 24.1776 15.7022 24.2745 15.7617 24.3956C15.8094 24.4925 15.7379 24.5046 15.7498 24.5773C15.7736 24.65 15.8808 24.7469 16.095 24.8317C16.1903 24.8802 16.2974 24.9528 16.3212 25.0619C16.345 25.1588 16.1426 25.1467 16.1903 25.4374C16.2022 25.5949 16.0474 25.5949 16.0712 25.7766C16.0831 25.9583 16.0474 25.934 15.9522 26.1036C15.8451 26.2974 15.6903 26.3217 15.7498 26.4549C15.7856 26.5155 15.9165 26.5155 16.0593 26.5155C16.1426 26.5155 16.2141 26.5639 16.4997 26.5761C16.9044 26.5882 16.9521 26.4549 17.2734 26.4428C17.3806 26.4428 17.571 26.4913 17.6186 26.5639C17.6662 26.6245 17.6424 26.6972 17.6305 26.7941C17.6305 26.9152 17.5234 27.1575 17.4163 27.2181C17.3211 27.2786 17.202 27.2302 17.1425 27.3271C17.0949 27.424 17.2139 27.4846 17.2496 27.533C17.2734 27.5815 17.333 27.7511 17.2377 27.8238C17.1187 27.9085 17.0711 28.0418 17.0116 28.1145C16.9521 28.1993 16.714 28.3204 16.7735 28.4415C16.8211 28.5506 16.8687 28.6354 16.8806 28.7444C16.9164 28.9624 16.8092 29.0714 16.7973 29.1562C16.7854 29.2532 16.8925 29.241 16.8092 29.3622C16.7021 29.5318 16.6069 29.5681 16.6664 29.6771C16.714 29.7983 16.4878 29.7498 16.4402 29.7619C16.3807 29.774 16.3331 29.8467 16.3093 29.9557C16.2855 30.0526 16.3331 30.2101 16.1426 30.2101C15.9522 30.2101 15.6784 30.2222 15.607 30.2828C15.5475 30.3434 15.6665 30.4524 15.5832 30.5008C15.488 30.5614 15.4404 30.5008 15.3689 30.5008C15.2856 30.5008 15.1904 30.5978 15.1904 30.5978C15.1904 30.5978 15.119 30.6947 15.0952 30.7552C15.0714 30.8158 14.9642 30.8521 14.9523 30.9127C14.9404 30.9854 15.0118 31.0217 14.9404 31.1186C14.9047 31.1913 14.8214 31.2277 14.7381 31.2761C14.6547 31.3246 14.619 31.2398 14.5595 31.3609C14.5357 31.4578 14.5595 31.4942 14.5119 31.5547C14.4405 31.6395 14.2977 31.6637 14.2143 31.7001C13.881 31.8333 13.5001 31.8939 13.4287 31.8939C13.3573 31.8939 12.9169 31.8818 12.9169 31.7243C12.8931 31.4699 12.6788 31.4457 12.655 31.3609C12.5717 31.1671 12.3336 31.0823 12.3336 30.949C12.3217 30.7673 11.679 30.8279 11.6551 30.949C11.6432 31.0459 11.6551 31.6516 11.6551 31.7849C11.6432 32.0272 11.6551 32.3058 11.7028 33.4808C11.7266 34.2803 11.6909 34.4378 11.7861 35.2372C11.8456 35.7097 11.9408 35.9398 12.0122 36.061L12.1908 36.0004C12.167 36.0125 12.4527 35.9519 12.3217 35.8308C12.5003 35.8187 12.5122 35.6612 12.2265 35.6491C12.4289 35.6006 12.4169 35.4795 12.2979 35.4674C12.4646 35.4189 12.536 35.3584 12.4646 35.2615C12.6074 35.2857 12.5598 35.1524 12.5241 35.0919C12.6312 35.1282 12.7026 35.0798 12.6669 35.0071C12.8455 35.1161 12.9764 34.995 12.774 34.9102C12.9169 34.8981 12.8693 34.8254 12.655 34.8012C12.7383 34.8133 12.8931 34.7527 12.8455 34.68C12.9526 34.7648 13.0954 34.6316 12.9169 34.4741C13.024 34.4378 13.0835 34.256 13.0835 34.2197C13.0954 34.3408 13.0478 34.5589 13.1788 34.5225C13.1073 34.6073 13.1192 34.68 13.3573 34.68C13.143 34.7042 13.0835 34.8738 13.3454 34.8981C13.2502 34.9829 13.5239 34.9586 13.643 35.0071C13.4644 35.0192 13.4406 35.0798 13.512 35.104C13.3335 35.1767 13.5359 35.2372 13.8096 35.2857C13.5478 35.2978 13.4882 35.4674 13.6073 35.5401C13.6668 35.5764 13.762 35.5643 13.8453 35.5401C13.9168 35.5159 13.9525 35.4795 14.0358 35.4553C14.1072 35.4311 14.1548 35.3584 13.9287 35.2857C14.0358 35.3099 14.2143 35.2978 14.1548 35.2494C14.4167 35.213 14.4048 35.0677 14.0358 34.9586C14.131 34.995 14.5476 34.9223 14.3453 34.8254C14.4405 34.8012 14.3572 34.6316 14.2262 34.6437C14.3096 34.6073 14.3334 34.462 14.1786 34.4135C14.3334 34.4135 14.4762 34.3893 14.3453 34.3045C14.4405 34.3045 14.5119 34.2682 14.4643 34.2076C14.6786 34.2439 14.6309 34.1107 14.5357 34.0743C14.5833 34.038 14.7381 34.0017 14.5714 33.8805C14.7024 33.8926 14.8452 33.8805 14.8214 33.82C14.9761 33.8078 15.0833 33.6383 14.8095 33.6625C14.8452 33.614 14.8809 33.5535 14.7857 33.505C14.988 33.505 15.0714 33.2385 14.988 33.1658C15.1071 33.1779 15.0833 32.8509 15.0714 32.7661C15.1428 32.9478 15.1666 33.0568 15.2499 33.0568C15.1547 33.1174 15.2737 33.2506 15.3927 33.2748C15.2856 33.3354 15.4761 33.4687 15.5713 33.4444C15.4046 33.5292 15.3927 33.7231 15.7856 33.8321C15.6189 33.82 15.7141 33.9895 15.7856 34.0259C15.726 33.9895 15.5118 33.9895 15.5713 34.0865C15.488 34.1107 15.4404 34.2682 15.6903 34.1955C15.6546 34.256 15.7975 34.3045 15.976 34.3408C15.8689 34.4499 15.9165 34.4983 16.0593 34.5225C15.9998 34.5589 15.9284 34.6073 16.0355 34.68C15.9403 34.7527 15.8213 34.8981 16.2498 34.9102C16.0593 34.995 16.226 35.0434 16.3331 35.104C15.976 35.0919 16.0831 35.3826 16.345 35.3947C16.2022 35.4432 16.2855 35.5764 16.4521 35.637C16.3569 35.7218 16.6902 35.7581 16.595 35.5885C16.7973 35.5643 16.8925 35.4311 16.7497 35.3947C17.0116 35.322 16.8449 35.0071 16.7616 35.0192C16.8806 34.9829 17.0354 34.8981 16.9164 34.8012C17.0949 34.8496 17.2973 34.68 16.833 34.6437C17.202 34.5952 17.1068 34.4378 16.9402 34.3772C16.9878 34.353 17.4282 34.4135 17.2496 34.2318C17.3687 34.1955 17.2377 34.1107 17.0949 34.1228C17.202 34.0865 17.3568 33.9774 17.2139 33.9048C17.2734 33.9169 17.333 33.8926 17.2853 33.7473C17.3449 33.8078 17.6186 33.8078 17.5353 33.6746C17.6424 33.6383 17.5472 33.5535 17.4996 33.505C17.6543 33.4444 17.5591 33.2264 17.4996 33.1779C18.309 33.1295 17.571 32.863 17.4996 32.8388C17.6901 32.8388 17.8805 32.7782 17.7853 32.6934C18.19 32.7782 17.9638 32.4269 17.8448 32.3784C17.8924 32.3663 18.0352 32.2815 17.9519 32.1846C18.1424 32.2694 18.2733 32.2452 18.0829 32.0393C18.1662 32.015 18.1186 31.906 18.0472 31.8939C18.2257 31.9181 18.2257 31.5184 18.2257 31.5184C18.2257 31.5184 18.3447 31.8818 18.5233 31.906C18.3566 31.9666 18.3923 32.2331 18.5114 32.2573C18.4757 32.3784 18.678 32.3663 18.7852 32.3784C18.4757 32.3906 18.5352 32.5723 18.7971 32.6086C18.6661 32.6934 18.7971 32.7903 18.9756 32.754C18.809 32.8145 18.809 32.9357 19.0232 33.0568C18.9399 33.1053 18.8685 33.2022 18.9518 33.287C18.8209 33.2991 18.9518 33.4687 19.2018 33.5171C18.8804 33.5292 18.809 33.6383 19.2018 33.7715C19.1422 33.7957 19.1661 33.8926 19.3089 33.9411C19.0946 34.038 19.1065 34.2197 19.4874 34.2318C19.3446 34.2803 19.4755 34.3287 19.5946 34.4135C18.9161 34.462 19.2851 34.7527 19.547 34.7042C19.297 34.8133 19.6779 34.789 19.8207 34.8617C19.5827 34.8859 19.297 34.9223 19.416 34.9829C19.2851 35.0192 19.2732 35.2009 19.8207 35.1888C19.7255 35.2494 19.904 35.4311 19.9874 35.4795C19.3565 35.5643 19.6541 35.6612 19.9755 35.7339C19.8802 35.7581 19.7969 35.9277 20.1421 35.8914C19.9398 35.9519 19.7493 36.0489 19.916 36.1579C20.0826 36.2548 20.0588 36.279 22.0228 36.4486C23.5702 36.6061 23.8321 36.6424 24.1892 36.6909C24.6058 36.7514 24.2963 36.4849 24.1654 36.3759C24.7963 36.4728 24.4749 36.17 24.3916 36.0973C24.4749 36.0973 24.6653 36.0489 24.5225 35.9519C24.8558 36.0004 24.7486 35.7581 24.6891 35.6976C25.1295 35.5885 24.9034 35.4674 24.7486 35.3826C24.832 35.3584 24.9034 35.322 24.8439 35.2372C25.1295 35.3463 25.0462 35.2009 24.9391 35.1282C25.0581 35.1403 25.2248 34.9465 25.0462 34.8617C25.2367 34.8133 25.1772 34.7406 25.1295 34.7042C25.6057 34.6921 25.0581 34.462 25.1891 34.5225C25.4033 34.462 25.5581 34.2197 25.3795 34.1591C25.5462 34.1349 25.6652 33.9895 25.4985 33.9048C25.5938 33.8563 25.6057 33.6988 25.5581 33.6261C25.8675 33.6746 25.7723 33.4081 25.689 33.3839C25.9152 33.4202 25.939 32.8872 25.939 32.8872C25.939 32.8872 25.9628 33.2385 26.177 33.2627C26.0461 33.3354 26.2961 33.4929 26.4032 33.5292C26.2008 33.5292 26.177 33.6625 26.2723 33.7109C26.0937 33.7231 26.2842 33.929 26.427 33.9774C26.1294 34.038 26.3675 34.1591 26.4508 34.2197C26.308 34.2439 26.3199 34.353 26.4746 34.3893C26.3199 34.462 26.4508 34.6316 26.5222 34.6437C26.6055 34.68 26.6889 34.6558 26.7722 34.5831C26.8912 34.462 26.7365 34.353 26.6532 34.3287C26.9507 34.2803 26.9269 34.0501 26.8317 34.0017C27.0579 33.9895 26.9983 33.7352 26.9031 33.6746C27.0817 33.6746 27.0936 33.4565 27.1055 33.3233C27.1531 33.4929 27.1412 33.6504 27.2483 33.6988C27.1174 33.8926 27.284 34.038 27.3911 34.0259C27.3078 34.0743 27.403 34.2197 27.4983 34.256C27.2245 34.3287 27.5697 34.5468 27.6411 34.5468C27.4864 34.6921 27.7482 34.8254 27.7482 34.8254C27.7482 34.8254 27.6054 34.9829 27.6411 35.1282C27.6768 35.2978 27.9149 35.2494 27.9863 35.2009C28.1291 35.0798 27.9625 34.9102 27.903 34.8738C28.153 34.8617 28.0934 34.5831 27.9744 34.5468C28.2125 34.5468 28.522 34.462 28.1768 34.3651C28.1291 34.3772 28.4505 34.2439 28.2363 34.1955C28.5339 34.2076 28.3315 33.9169 28.3315 33.9169C28.3315 33.9169 28.6529 33.8805 28.4862 33.7473C28.6529 33.7836 28.6886 33.614 28.6886 33.614C28.6886 33.614 28.6529 33.82 28.9148 33.9048C28.7481 33.9895 28.9624 33.9895 28.9981 34.0259C28.7243 34.1107 28.9386 34.2197 29.0695 34.256C28.9148 34.2924 28.9267 34.4135 29.0576 34.4741C28.9267 34.4983 29.0695 34.6073 29.1885 34.6316C28.9981 34.7769 29.0814 34.9465 29.2361 34.9707C29.0457 35.2372 29.3433 35.2009 29.4147 35.1524C29.4861 35.1161 29.5218 35.0434 29.498 34.995C29.4742 34.9465 29.4266 34.9465 29.3671 34.9223C29.6289 34.8496 29.498 34.6921 29.4147 34.6437C29.7599 34.6073 29.6647 34.3893 29.5932 34.3408C29.6885 34.3287 29.7837 34.2924 29.7242 34.2197C29.7956 34.2076 29.7718 34.1107 29.8075 34.0017C29.8194 34.1591 29.8432 34.2803 29.9265 34.3045C29.867 34.3651 29.9503 34.4135 29.986 34.4378C29.7599 34.3893 29.9384 34.5831 30.0098 34.5952C29.9027 34.68 29.986 34.7164 30.0694 34.7164C29.9979 34.789 30.0456 34.8254 30.1289 34.8496C30.0337 34.9223 30.1527 35.0798 30.3193 35.0192C30.5693 34.9344 30.3193 34.7648 30.3193 34.7648C30.4622 34.7648 30.5693 34.7164 30.4979 34.6437C30.7597 34.7285 30.9145 34.4983 30.7002 34.3893C30.7836 34.3651 30.8788 34.1712 30.6645 34.1107C30.9145 34.1591 31.0811 34.0743 30.9264 33.8805C31.0811 33.9048 31.0692 33.7594 31.0811 33.6867C31.1168 33.8563 31.1764 33.8563 31.2359 33.8684C31.1407 33.9774 31.224 34.0259 31.2835 34.0622C31.2597 34.1228 31.3192 34.2076 31.4263 34.1955C31.3668 34.2439 31.4382 34.3045 31.4977 34.3045C31.2121 34.3287 31.2954 34.4983 31.4263 34.4862C31.4025 34.5952 31.4263 34.6316 31.593 34.6073C31.4858 34.7406 31.6763 34.7648 31.7477 34.7648C31.4977 34.7648 31.5335 35.0434 31.7001 34.995C31.6882 35.1524 31.9382 35.0434 32.0215 35.0798C31.8429 35.2494 31.8906 35.3826 32.2596 35.3099C32.081 35.5643 32.4024 35.4916 32.4262 35.4068C32.6524 35.5643 32.7238 35.3342 32.5809 35.2615C32.6762 35.2494 32.6524 35.1524 32.4976 35.1161C32.7 35.1161 32.6524 35.0555 32.6166 34.995C32.7714 35.0434 32.8309 34.9586 32.7714 34.8496C32.938 34.8859 32.938 34.6921 32.938 34.6921C32.938 34.6921 32.9618 34.8133 33.0809 34.789C33.0213 34.9223 33.1285 34.9586 33.2832 34.9223C33.2237 35.0555 33.2951 35.0919 33.3904 35.104C33.3904 35.1646 33.4023 35.2494 33.4737 35.2857L33.4499 35.3342C33.3665 35.4795 33.3189 35.6006 33.3189 35.6733C33.3189 35.8187 33.4023 35.9398 33.2475 36.0489L33.1999 36.0852C31.7596 35.9883 29.379 36.2063 28.4029 36.3153C27.3316 36.4244 26.8436 36.4728 26.8436 36.4728C24.6653 36.7878 25.3081 36.8362 28.272 37.2117C29.1647 37.3208 29.248 37.3813 29.4742 37.3935C29.7004 37.4056 29.8194 37.4783 30.5931 37.5752C30.9621 37.6236 31.5811 37.7811 31.7239 37.7932ZM7.67949 24.6621H7.69139L7.7152 24.65H7.739L7.75091 24.6379H7.77471L7.78661 24.6258L7.79852 24.6137H7.81042L7.82233 24.6015H7.84613V24.5894H7.85803V24.5773H7.86994L7.88184 24.5652L7.89374 24.5531C7.95326 24.4925 8.02468 24.4683 8.01277 24.3956C8.00087 24.335 8.01277 24.2502 8.01277 24.2139C8.01277 24.0928 7.92946 24.1291 7.86994 24.1655C7.81042 24.1897 7.78661 24.2503 7.739 24.2987C7.67949 24.335 7.60807 24.3956 7.51284 24.432C7.40571 24.4683 7.3462 24.5046 7.38191 24.5652C7.41761 24.6137 7.39381 24.6742 7.47713 24.6985C7.56046 24.7227 7.63187 24.6742 7.67949 24.6621ZM9.56019 28.6475V28.6717L9.57209 28.6838V28.9261L9.584 28.9382V28.9503L9.5959 28.9624H9.6078C9.67922 28.9745 9.67922 29.023 9.76254 29.0351C9.81015 29.0351 9.78635 28.9624 9.83396 28.9382C9.89348 28.9019 9.91728 29.023 10.0006 28.8292C10.0363 28.7444 10.0839 28.7444 10.1077 28.6959C10.1434 28.6354 10.1315 28.5385 10.1077 28.4779C10.0958 28.4173 10.072 28.3083 10.0244 28.272C9.84587 28.1629 9.71493 28.2235 9.70302 28.3204C9.69112 28.381 9.63161 28.381 9.61971 28.4415C9.6078 28.5384 9.54828 28.5506 9.56019 28.6475ZM11.4528 26.3459V26.3701H11.4409V26.6245L11.429 26.673V27.2665L11.4171 27.3271V27.5815L11.4052 27.6057V27.6663C11.3933 27.7753 11.429 27.8843 11.4885 27.8843C11.548 27.8843 11.5956 27.8116 11.5956 27.8116C11.5956 27.8116 11.6432 27.7511 11.6432 27.8359C11.6551 27.9207 11.6313 27.9085 11.6551 27.9328C11.7028 27.9691 11.7623 27.9691 11.8218 27.848C11.8694 27.7147 11.8099 27.5573 11.917 27.5694C12.167 27.6057 12.0599 27.3634 12.1075 27.2544C12.1432 27.1333 12.1551 26.7456 12.1432 26.6972C12.1313 26.6608 11.9884 26.7214 11.9884 26.6487C11.9765 26.5155 12.0599 26.3459 11.917 26.3459C11.8099 26.3459 11.8575 26.4428 11.798 26.4549C11.7385 26.4549 11.7385 26.467 11.679 26.4428C11.6551 26.3701 11.6194 26.3701 11.5718 26.3459C11.5242 26.3338 11.4766 26.3217 11.4528 26.3459ZM9.26261 25.4374V25.5101L9.27451 25.5222V25.5464L9.28642 25.5585V25.5827L9.29832 25.5949L9.31022 25.607V25.6191H9.32212V25.6312H9.33402L9.34593 25.6433H9.35784L9.36974 25.6554H9.39354C9.47687 25.6796 9.50067 25.6554 9.57209 25.6918C9.66732 25.7402 9.69112 25.7523 9.82206 25.7644C9.953 25.7766 9.9887 25.7523 9.9887 25.7039C9.9887 25.6433 10.0244 25.5464 10.0482 25.5222C10.072 25.4737 10.0958 25.3526 10.0363 25.3284C9.9768 25.3162 9.88157 25.3162 9.78635 25.2678C9.70302 25.2193 9.69112 25.1588 9.57209 25.1588C9.46496 25.1588 9.46496 25.2314 9.39354 25.292C9.33402 25.3526 9.27451 25.3162 9.26261 25.4374ZM11.4647 25.292V25.3162H11.4528V25.3405H11.4647V25.3647H11.4766V25.3768H11.5004V25.3889H11.5123V25.401H11.5361V25.4132H11.548V25.4253H11.5599V25.4374H11.5718V25.4495C11.6075 25.4858 11.4885 25.5101 11.548 25.607C11.6075 25.7039 11.7028 25.6796 11.8337 25.7039C11.9884 25.716 11.8694 25.7766 11.9646 25.8856C12.0241 25.9583 12.1075 25.9704 12.2503 26.0067C12.3812 26.0431 12.3217 26.1521 12.4884 26.14C12.5955 26.1279 12.8693 26.0915 12.9288 25.9946C12.9883 25.8977 12.9288 25.8492 12.8336 25.7523C12.7979 25.7281 12.8812 25.607 12.8098 25.4858C12.7383 25.3526 12.5122 25.3041 12.4527 25.2557C12.3812 25.1951 12.2979 25.074 12.1432 25.0255C12.0241 24.9892 12.1313 24.9407 11.9289 24.9286C11.8337 24.9286 11.679 25.0134 11.5361 25.0376C11.4647 25.0497 11.5361 25.183 11.4647 25.292ZM11.3814 23.6809H11.3695V23.7415H11.3814V23.7657L11.3933 23.7778V23.7899L11.4052 23.8021L11.4171 23.8142V23.8263L11.429 23.8384V23.8505L11.4409 23.8626L11.4528 23.8747L11.4647 23.8868V23.899L11.4766 23.9232L11.4885 23.9353L11.5004 23.9595L11.5123 23.9716L11.5242 23.9959L11.5361 24.0201L11.548 24.0322L11.5599 24.0564L11.5718 24.0928L11.5837 24.117C11.6194 24.1897 11.7266 24.1412 11.8932 24.226C12.0241 24.2866 12.0956 24.2624 12.2027 24.3108C12.3217 24.3593 12.3336 24.4441 12.405 24.4925C12.4765 24.5531 12.5003 24.5168 12.5717 24.5531C12.6312 24.5773 12.655 24.6621 12.7502 24.7227C12.8336 24.7833 12.8098 24.8317 12.9169 24.8559C12.9883 24.868 12.9764 24.8075 13.0359 24.8317C13.1192 24.8559 13.1669 24.8559 13.2145 24.8196C13.2621 24.7711 13.2145 24.7106 13.2145 24.6258C13.2145 24.5773 13.2978 24.6137 13.2978 24.5531C13.3216 24.4683 13.2145 24.3956 13.1907 24.3472C13.1669 24.2987 13.1907 24.2502 13.1192 24.1291C13.0597 23.9959 13.0597 24.0807 12.9764 23.9474C12.9169 23.8384 12.9407 23.7536 12.8336 23.6203C12.655 23.4508 12.4884 23.4265 12.1551 23.3539C11.8694 23.2933 11.5599 23.2085 11.4647 23.2933C11.3576 23.3781 11.4409 23.4871 11.3814 23.6809ZM12.8812 22.6755H12.8931L12.905 22.6634H12.9169L12.9288 22.6513L12.9407 22.6392H12.9526V22.6149H12.9645V22.5907H12.9764V22.518L12.9645 22.5059V22.4938L12.9526 22.4817V22.4696H12.9407V22.4575H12.9288L12.9169 22.4453H12.905C12.8574 22.4332 12.7264 22.3969 12.6312 22.3969C12.5479 22.3969 12.5122 22.3242 12.2979 22.3121C12.0837 22.3 11.7861 22.2757 11.5956 22.3C11.4885 22.3 11.4885 22.409 11.5123 22.4332C11.6551 22.5665 11.5242 22.6391 11.4885 22.6876C11.4409 22.7361 11.4647 22.7724 11.5242 22.833C11.5956 22.8935 11.6909 22.8935 11.7504 22.9178C11.8218 22.942 11.8694 22.9904 11.9646 23.0026C12.0599 23.0147 12.2979 23.0752 12.3574 23.0874C12.4289 23.0874 12.4884 23.0995 12.5122 23.051C12.5479 22.9904 12.6312 22.942 12.7145 22.9056C12.7979 22.8814 12.7859 22.7239 12.8812 22.6755ZM8.06039 19.7319V19.7561L8.07229 19.7682V19.7804H8.08419L8.0961 19.7925H8.1199L8.1318 19.8046H8.19132L8.20323 19.8167H8.21513C8.33416 19.8167 8.45319 19.8409 8.4889 19.7804C8.52462 19.744 8.57222 19.7198 8.61983 19.7198C8.66745 19.7198 8.79839 19.7319 8.77458 19.6229C8.76268 19.5139 8.59603 19.5017 8.41749 19.5139C8.33416 19.526 8.17942 19.4169 8.07229 19.4896C7.95326 19.5502 8.08419 19.6229 8.06039 19.7319ZM11.4409 20.592V20.6525H11.4528V20.6646L11.4647 20.6768L11.4766 20.6889L11.4885 20.701H11.5004V20.7131H11.5242V20.7252H11.5361C11.6075 20.7373 11.679 20.6768 11.7266 20.6404C11.7623 20.6041 11.8099 20.5677 11.8694 20.5193C11.9289 20.4708 11.8694 20.3981 11.8099 20.3981C11.7623 20.3981 11.6194 20.4708 11.6194 20.4708C11.6194 20.4708 11.5004 20.5193 11.4409 20.592ZM12.167 20.0953L12.1789 20.1074H12.3693C12.4646 20.1074 12.5241 20.1316 12.6907 20.0832C12.8098 20.059 12.8098 20.0226 12.8336 19.9499C12.8455 19.8773 12.7621 19.853 12.6788 19.8167C12.5836 19.7803 12.4408 19.8167 12.3336 19.8409C12.2265 19.853 12.0956 19.9863 12.0956 19.9863C12.0956 19.9863 12.1075 20.0832 12.167 20.0953ZM9.85777 19.1383V19.1262L9.86967 19.102V19.0778L9.85777 19.0657V19.0172L9.84587 19.0051V18.993H9.83396V18.9809H9.82206V18.9687H9.81015V18.9566H9.79825V18.9445H9.77445L9.76254 18.9324H9.75064C9.61971 18.884 9.44115 18.884 9.35784 18.8961C9.27451 18.9082 9.03645 18.9445 8.95313 18.9809C8.8698 19.0051 9.02455 19.1262 8.77458 19.0778C8.75077 19.0657 8.67935 19.1262 8.76268 19.1989C8.8579 19.2716 8.92932 19.2474 8.96503 19.2474C9.00074 19.2474 9.09596 19.2474 9.14358 19.2595C9.19119 19.2716 9.19119 19.2958 9.31022 19.2958C9.42925 19.3079 9.46496 19.2595 9.6078 19.2595C9.75064 19.2474 9.84587 19.1989 9.85777 19.1383ZM11.2981 19.3685V19.3564V19.4896L11.2862 19.5017V19.7198L11.2742 19.744V19.7925L11.2862 19.8167V19.9257H11.2981C11.3338 20.0347 11.4052 20.0226 11.429 19.9742C11.4766 19.9015 11.4885 19.8894 11.5599 19.853C11.6313 19.8288 11.5599 19.6229 11.5956 19.5381C11.6432 19.4654 11.679 19.0778 11.6432 18.8597C11.6194 18.7628 11.6194 18.6901 11.5718 18.6053C11.5004 18.4721 11.429 18.3994 11.3695 18.46C11.31 18.5327 11.3576 18.5448 11.31 18.7144C11.2862 18.7992 11.2981 19.4654 11.2981 19.3685ZM12.5836 17.6726V17.7089H12.5955V17.721H12.6074V17.7332H12.6312V17.7453H12.6669L12.6788 17.7574H12.7264H12.7145C12.6669 17.7453 12.8455 17.818 12.8931 17.7816C12.9883 17.6726 13.0597 17.6847 13.1073 17.5636C13.1311 17.503 13.1669 17.4424 13.2026 17.394C13.2383 17.3455 13.1788 17.2729 13.1311 17.2607C13.0835 17.2486 13.0478 17.2729 12.9526 17.3213C12.8574 17.3698 12.7859 17.4424 12.7264 17.4909C12.655 17.5393 12.5955 17.5878 12.5836 17.6726ZM12.5479 16.9337V16.9821H12.5598V16.9942L12.5717 17.0064L12.5836 17.0185H12.5955L12.6074 17.0306H12.7383L12.7502 17.0185H12.7621C12.8693 16.9942 12.9407 16.8852 13.0121 16.8246C13.0835 16.7641 13.1073 16.7035 13.0954 16.6066C13.0716 16.5097 12.8217 16.6308 12.8693 16.5945C12.9169 16.5703 12.7145 16.7277 12.6788 16.752C12.6074 16.8004 12.5479 16.8731 12.5479 16.9337ZM12.3574 16.2553H12.3931V16.2432H12.405V16.2311H12.4169V16.219H12.4289V16.2069L12.4408 16.1947L12.4527 16.1826V16.1705H12.4646V16.1584C12.5122 16.0978 12.5479 15.9767 12.536 15.9161C12.5241 15.8677 12.6193 15.7708 12.5717 15.7223C12.5241 15.6617 12.3812 15.8677 12.3455 15.9161C12.3217 15.9767 12.2265 16.1221 12.2384 16.1826C12.2503 16.2311 12.2979 16.2553 12.3574 16.2553ZM11.2623 16.219V16.3886L11.2742 16.4128V16.4612L11.2862 16.4734V16.5097L11.2981 16.5218V16.546L11.31 16.5824V16.6066L11.3219 16.6187V16.7156C11.31 16.8489 11.31 16.9216 11.3695 17.0548C11.3933 17.1275 11.31 17.612 11.3814 17.6605C11.4647 17.6968 11.5123 17.5636 11.5718 17.4909C11.6313 17.4182 11.7147 16.9337 11.7385 16.8489C11.798 16.6793 11.8456 16.3643 11.8694 16.219C11.8813 16.0736 11.8575 15.7829 11.7861 15.5285C11.7385 15.371 11.6671 15.3347 11.6075 15.2741C11.5361 15.2257 11.4885 15.2378 11.4647 15.2862C11.4528 15.3347 11.429 15.2499 11.429 15.2499C11.3338 15.2014 11.31 15.2378 11.2981 15.2983C11.2742 15.3347 11.2623 15.5648 11.2266 15.6496C11.1552 15.7829 11.2981 15.8919 11.2623 16.219ZM9.94109 14.4383H9.9649V14.4262H9.9768V14.4141H9.9887V14.3898L10.0006 14.3777V14.3414L10.0125 14.3293V14.2081H10.0244V14.1839C10.0244 14.1233 10.0363 14.0143 9.9768 13.9174C9.90538 13.8326 9.84587 13.9053 9.81015 13.9053L9.78635 14.1233C9.81015 14.1476 9.84587 14.2202 9.84587 14.2929C9.85777 14.3656 9.88158 14.4504 9.94109 14.4383ZM10.2387 13.7357H10.2982L10.3101 13.7236H10.322L10.3339 13.7115H10.3577V13.6994H10.4053V13.6872C10.4648 13.6872 10.4886 13.663 10.5362 13.5661C10.5601 13.4934 10.5482 13.3844 10.5124 13.3117C10.4886 13.239 10.4053 13.2996 10.3577 13.2633C10.3101 13.2269 10.2625 13.1542 10.2149 13.1906C10.1792 13.2269 10.1315 13.3481 10.1315 13.4086C10.1315 13.4692 10.1911 13.663 10.2387 13.7357ZM10.1434 12.4759V12.5243H10.1315V12.5486L10.1196 12.5607V12.5728L10.1077 12.5849V12.6091L10.0958 12.6212V12.6455L10.0839 12.6576V12.6939C10.072 12.803 10.2149 12.9362 10.2387 12.9725C10.2506 13.0089 10.4648 13.0331 10.4767 12.9725C10.5005 12.8756 10.4648 12.8272 10.4886 12.6576C10.5124 12.5122 10.3815 12.4638 10.3339 12.379C10.2863 12.3063 10.2387 12.27 10.203 12.3184C10.1553 12.3547 10.1553 12.4153 10.1434 12.4759ZM11.06 11.8702V11.8944L11.0481 11.9065V12.0277L11.0362 12.0398V12.1125C11.0362 12.1125 11.0481 12.27 11.0005 12.3305C10.9648 12.379 10.9886 12.4153 11.0243 12.4638C11.0719 12.5001 11.0838 12.488 11.1314 12.4638C11.1909 12.4395 11.1671 12.5243 11.1909 12.5607L11.3338 12.5243C11.3457 12.488 11.3933 12.3426 11.4052 12.2457C11.429 12.1125 11.4409 11.9913 11.4171 11.7491C11.3933 11.4947 11.1671 11.64 11.1671 11.64C11.1671 11.64 11.06 11.7006 11.06 11.8702ZM8.88171 17.0064L8.89361 17.0185V17.0427H8.90552V17.0548L8.91742 17.0669V17.079H8.92932V17.0911L8.94122 17.1033L8.95313 17.1154H8.96503V17.1275H8.97693L8.98884 17.1396H9.00074L9.01265 17.1517H9.02455V17.1638H9.03645L9.04835 17.1759H9.06025L9.07216 17.1881H9.08406L9.09596 17.2002L9.10786 17.2123L9.11977 17.2244C9.21499 17.2971 9.06025 17.3698 9.19119 17.4788C9.29832 17.5515 9.2269 17.612 9.57209 17.6363C9.77445 17.6363 9.72684 17.5757 9.90538 17.4909C10.0601 17.4182 9.78635 17.3092 9.83396 17.1881C9.84587 17.1517 9.72683 17.0064 9.53638 16.9821C9.38164 16.97 9.38164 16.8246 9.31022 16.7883C9.23881 16.752 9.16738 16.7641 9.06025 16.7399C8.95312 16.7277 8.8698 16.6793 8.82219 16.7641C8.78648 16.8246 8.846 16.8973 8.88171 17.0064ZM12.2622 29.3379H12.2741V29.3501H12.3098V29.3622H12.3455L12.3574 29.3501H12.4169L12.4289 29.3379H12.4527L12.4765 29.3258H12.5717C12.7859 29.3743 12.7859 29.3258 12.9526 29.3137C13.1669 29.2895 13.1669 29.1926 13.2383 29.1805C13.3335 29.1805 13.4763 29.1805 13.6311 29.0836C13.6906 29.0351 13.6906 28.9745 13.6787 28.9261C13.6787 28.8292 13.6192 28.8413 13.5478 28.8413C13.4763 28.8413 13.5359 28.7928 13.6073 28.7686C13.6668 28.7565 13.7263 28.7444 13.7739 28.6959C13.8096 28.6596 13.8096 28.6232 13.7263 28.5506C13.6311 28.5021 13.5835 28.5506 12.8336 28.7686C12.0837 28.9867 12.1551 29.1562 12.2146 29.1805C12.3217 29.1926 12.1908 29.2895 12.2622 29.3379Z" fill="#A7A4A4"/>
<path d="M7.02433 31.4586L7.00052 31.4707H6.96482L6.95291 31.4828H6.86959L6.85769 31.4707H6.79817L6.76246 31.4586H6.73866L6.70294 31.4465H6.66723L6.65533 31.4344H6.51249L6.50059 31.4465C6.22682 31.5071 5.53644 31.5434 5.09602 31.604C5.00079 31.6282 4.98889 31.6282 4.54847 31.6645C4.2866 31.6888 4.01283 31.713 3.94141 31.6767V31.6888C3.96521 31.7857 4.02473 31.931 4.10806 32.1249C4.20328 32.355 4.38183 32.9849 4.41753 33.1303C4.45324 33.2756 4.39373 33.4695 4.42944 33.5906C4.47705 33.7238 4.61989 33.8329 4.6675 33.9419C4.71512 34.0509 5.09602 34.8262 5.26266 35.0927C5.4055 35.2986 5.83401 36.1223 6.03637 36.5584L6.04827 36.5705C6.08398 36.5584 6.1316 36.5342 6.1673 36.5221C6.25063 36.4857 6.23872 36.4615 6.1316 36.4373C6.21491 36.4252 6.31014 36.3404 6.22682 36.304C6.32204 36.2556 6.40537 36.1466 6.32204 36.1223C6.38156 36.0739 6.41727 35.8679 6.41727 35.8679C6.41727 35.8679 6.44107 35.9891 6.5244 36.0739C6.44107 36.0739 6.5363 36.1223 6.57201 36.1587C6.5244 36.1829 6.59581 36.2071 6.64343 36.2556C6.57201 36.2798 6.59581 36.3161 6.66723 36.3404C6.61962 36.3767 6.70294 36.4009 6.77436 36.3646C6.73866 36.4252 6.70294 36.4252 6.70294 36.4252C6.70294 36.4252 7.07194 36.3888 7.26239 36.2556C7.45285 36.1223 7.38143 36.0739 7.22669 36.0012C7.36952 35.9527 7.72662 35.8437 7.60759 35.7347C7.70281 35.662 7.57188 35.6136 7.45285 35.5893C7.88136 35.4924 7.90516 35.4197 7.85755 35.3955C8.08371 35.2623 7.80994 35.2017 7.73852 35.1532C8.02419 35.2138 7.96468 35.1169 7.92897 35.0442C8.16704 35.1532 8.17894 34.8989 8.08371 34.8262C8.17894 34.8141 8.19084 34.6808 8.04801 34.596C8.28607 34.6202 8.42891 34.5718 8.23845 34.4385C8.35748 34.3901 8.36939 34.3295 8.32178 34.2811C8.45271 34.1963 8.36939 34.1115 8.30987 34.0873C8.44081 34.0267 8.42891 33.8813 8.35748 33.845C8.46461 33.7117 8.51222 33.4089 8.51222 33.4089C8.51222 33.4089 8.51222 33.6512 8.67887 33.7602C8.61935 33.8208 8.65507 33.9419 8.75029 33.9419C8.65507 34.0873 8.71458 34.1357 8.88123 34.1599C8.82171 34.2447 8.7622 34.3295 8.98836 34.3295C8.7979 34.4628 8.86932 34.5476 9.04787 34.5233C8.85742 34.596 8.97645 34.7172 9.1788 34.6808C9.03597 34.7898 9.03597 34.911 9.25023 34.8746C9.04787 34.9837 9.02407 35.129 9.34545 35.1169C9.23832 35.1169 9.13119 35.4076 9.5359 35.4924C9.57161 35.1654 9.69064 32.9122 9.71445 32.5125C9.72635 32.0522 9.70254 31.7493 9.70254 31.7493C9.70254 31.7493 9.66683 31.7251 9.47639 31.7372C9.29784 31.7614 9.21451 31.822 8.92884 31.7251C8.64316 31.6282 8.59555 31.6888 8.3932 31.713C8.21465 31.713 8.11942 31.6888 7.91707 31.7614C7.70281 31.8462 7.47665 31.7372 7.38143 31.6524C7.2862 31.5797 7.38143 31.4102 7.53616 31.4102C7.78613 31.4223 7.21478 31.3859 7.02433 31.4586Z" fill="#D4D4D8"/>
<path d="M31.7234 37.796H31.6758L31.652 37.7839H31.5925L31.5687 37.7718H31.533L31.5092 37.7597H31.4735L31.4378 37.7476L31.4021 37.7355H31.3663L31.3187 37.7234L31.283 37.7112H31.2354L31.1521 37.687L31.0688 37.6749L30.9854 37.6507L30.9021 37.6386L30.8188 37.6265L30.7831 37.6143H30.7355L30.6998 37.6022H30.6641L30.6283 37.5901H30.5926C29.8189 37.4932 29.6999 37.4205 29.4737 37.3963C29.2476 37.3842 29.1643 37.3357 28.2715 37.2146C25.3076 36.8391 24.6649 36.7906 26.8431 36.4878C26.8431 36.4878 27.3312 36.4272 28.4025 36.3182C29.3666 36.2092 31.7592 35.9911 33.1994 36.1001L33.1637 36.1244C32.8542 36.3909 32.2353 37.1661 32.0924 37.3236C31.9972 37.4569 31.8663 37.578 31.7711 37.7476C31.7472 37.7597 31.7472 37.7839 31.7234 37.796ZM17.1182 39.7221H17.1421L17.154 39.71H17.1659L17.1778 39.6979H17.1897L17.2135 39.6858H17.2373L17.2492 39.6736L17.273 39.6615H17.2968L17.3325 39.6494L17.3563 39.6373L17.392 39.6252H17.4158L17.4515 39.6131L17.4872 39.601L17.523 39.5889L17.5587 39.5767H17.5944L17.6301 39.5646L17.6777 39.5525H17.7134L17.761 39.5404L17.7967 39.5283H17.8443L17.8919 39.5162H17.9753L18.0229 39.5041C18.5823 39.4798 18.499 39.5404 19.0347 39.5889C19.0942 39.6131 19.2251 39.6131 19.356 39.6373C19.487 39.6615 19.7488 39.6615 19.9393 39.7221C20.1178 39.7948 20.3797 39.928 20.5345 39.9644C20.6892 39.9886 20.7963 40.0249 20.9273 40.0734C21.0582 40.1097 21.1177 40.1461 21.2367 40.1945C21.3558 40.243 21.6653 40.3641 21.9509 40.4247C22.2366 40.4974 22.4271 40.5095 22.6413 40.5579C22.8556 40.6185 23.2841 40.6912 23.4626 40.7639C23.7126 40.885 24.0935 41.0546 24.2602 41.2242C24.4268 41.418 24.5101 41.4543 24.6411 41.9873C24.7125 42.2417 24.6411 42.3265 24.5815 42.6172C24.522 42.908 24.4744 42.9928 24.5101 43.0897C24.5339 43.1987 24.522 43.3562 24.4863 43.4531C24.4387 43.55 24.3792 43.5742 24.3435 43.6348C24.3078 43.6953 24.1768 43.7923 24.1768 43.7923C24.1768 43.7923 24.1054 43.768 24.0816 43.7196C24.0578 43.6832 24.0459 43.6348 24.0102 43.5863C23.9864 43.5258 23.9269 43.4652 23.9388 43.4046C23.9507 43.3441 23.9031 43.3077 23.9626 43.1987C24.034 43.1139 24.0697 43.017 24.0697 43.017C24.0697 43.017 24.153 42.8353 24.1768 42.7141C24.2006 42.593 24.2483 42.375 24.2363 42.3023C24.2244 42.2296 24.2006 42.0358 24.2006 42.0358L24.0935 41.8904C24.0935 41.8904 23.9745 41.842 23.9388 41.9389C23.9031 42.0721 23.915 42.0358 23.8316 42.3386C23.7721 42.5567 23.7959 42.4961 23.6888 42.7626C23.5817 43.0291 23.5222 43.0897 23.4864 43.2471C23.4507 43.4046 23.6888 43.5621 23.7483 43.8286C23.8078 44.1193 23.8554 44.2162 23.9031 44.2768C23.9388 44.3495 23.9388 44.4222 23.9864 44.4343C24.034 44.4464 24.1054 44.4585 24.0459 44.6281C23.9983 44.7856 23.8435 45.149 23.8197 45.3428C23.7959 45.5245 23.8078 45.6456 23.7959 45.6577C23.7959 45.682 23.7602 45.682 23.7483 45.7183C23.7364 45.7425 23.7364 45.7546 23.7364 45.8152C23.7364 45.9 23.7126 46.1181 23.7126 46.1181C23.7126 46.1181 23.7364 46.2029 23.6412 46.2029C23.5579 46.1907 23.1055 46.1907 23.046 46.1907C22.9865 46.1786 22.8794 46.1423 22.9032 46.0696C22.9151 45.9727 22.927 45.8273 22.9746 45.791C23.0341 45.7668 23.1055 45.7304 23.1055 45.7304C23.1055 45.7304 23.1651 45.5729 23.1889 45.5003C23.2127 45.4155 23.2246 45.3064 23.2603 45.2459C23.2841 45.1853 23.3079 44.9794 23.3079 44.9067C23.3079 44.8461 23.3198 44.5796 23.1532 44.3495C23.0103 44.1193 23.0698 44.1314 22.9389 44.0466C22.808 43.9618 22.6175 43.8407 22.4509 43.8286C22.3437 43.8165 22.189 43.877 22.0938 43.9134C22.0105 43.9618 21.8319 44.0466 21.6772 44.1193C21.4986 44.2162 21.332 44.301 21.2606 44.3374C21.201 44.3737 21.1415 44.3495 21.1296 44.2768C21.1177 44.2041 21.1296 44.1314 21.0463 44.1314C20.963 44.1557 20.9273 44.1557 20.832 44.192C20.7606 44.2162 20.6535 44.301 20.6059 44.4343C20.5702 44.5675 20.5464 44.5796 20.4987 44.725C20.4749 44.8098 20.4392 44.8946 20.344 44.9794C20.2726 45.0399 20.2845 45.0036 20.1178 45.1611C19.9869 45.2822 19.9869 45.2943 19.9036 45.4397C19.8322 45.5972 19.8441 45.6941 19.8203 45.7425C19.7965 45.791 19.8084 45.8758 19.7965 45.9121C19.7965 45.9606 19.7846 46.0817 19.7846 46.0817C19.7846 46.0817 19.7846 46.1907 19.7369 46.1907C19.5346 46.1907 19.2846 46.2029 19.1894 46.2029C19.1061 46.2029 19.0704 46.1665 19.0942 46.1059C19.1537 45.9606 19.2251 45.9 19.237 45.8637C19.2489 45.8273 19.2846 45.6093 19.2489 45.4639C19.2251 45.4034 19.0823 45.2095 19.0585 45.1611C19.0347 45.1247 19.0347 44.9915 18.9751 44.9552C18.9037 44.9067 18.7966 44.7734 18.7728 44.7371C18.749 44.6887 18.5704 44.5917 18.499 44.5917C18.4157 44.5917 17.9634 44.4948 17.8562 44.4343C17.7491 44.3737 17.4158 44.192 17.3563 44.1557C17.2968 44.1193 17.0944 44.0103 17.0349 44.0103C16.9754 44.0103 16.904 43.9861 16.8326 44.0709C16.7016 44.192 16.654 44.192 16.5945 44.2526C16.5231 44.301 16.535 44.3131 16.4874 44.3737C16.4517 44.4464 16.3564 44.6281 16.3326 44.6887C16.2017 44.9551 16.0827 44.9188 16.0827 44.9188C16.0827 44.9188 15.9636 44.9794 15.7851 44.6887C15.6065 44.3979 15.5351 44.2889 15.5351 44.2889C15.5351 44.2889 15.428 44.2041 15.3566 44.2162C15.2852 44.2283 15.0828 44.2647 15.0352 44.2647C14.9757 44.2404 14.8924 44.2768 14.8328 44.1799C14.7733 44.083 14.7019 43.9497 14.7138 43.7438C14.7376 43.55 14.6424 43.4167 14.6305 43.3562C14.6186 43.3077 14.5472 43.235 14.4995 43.0897C14.4519 42.9564 14.4638 42.7747 14.3686 42.5809C14.2615 42.4234 14.2139 42.0721 14.2139 42.0721C14.2139 42.0721 14.2139 41.9873 14.2258 41.842C14.2496 41.6845 14.2258 41.5634 14.2734 41.3695C14.3091 41.1878 14.3567 41.0546 14.5114 40.9335C14.6186 40.8608 14.7019 40.7033 14.8447 40.6427C14.9638 40.5943 15.1185 40.4731 15.2256 40.4731C15.3328 40.4731 15.3685 40.4005 15.5946 40.4368C15.8089 40.4852 15.9755 40.5337 16.1184 40.5095C16.2493 40.4852 16.4041 40.4853 16.5231 40.3036C16.654 40.134 16.7612 39.9644 16.8207 39.928C16.8683 39.8917 17.1182 39.7221 17.1182 39.7221ZM15.7494 41.7935H15.8208L15.8327 41.8056H15.8684L15.8803 41.8177H15.9041L15.916 41.8299H15.9398L15.9517 41.842L15.9636 41.8541L15.9874 41.8662L15.9993 41.8783H16.0112L16.0232 41.8904V41.9025H16.0351L16.047 41.9146V41.9268L16.0589 41.9389L16.0708 41.951V41.9631L16.0827 41.9752V41.9873L16.0946 41.9994V42.0116L16.1065 42.0237V42.06L16.1184 42.0721V42.169C16.416 41.9025 16.3922 41.6845 16.3922 41.6845C16.3922 41.6845 16.416 41.3574 16.166 41.0909C15.9041 40.8365 15.8684 40.9456 15.8922 41.1273C15.916 41.309 15.9755 41.3574 15.9041 41.4907C15.8446 41.636 15.7494 41.7935 15.7494 41.7935ZM15.2375 42.2902V42.3023H15.2256V42.3144L15.2137 42.3265V42.3386H15.2018V42.3507H15.1899L15.178 42.3629V42.375H15.1661L15.1542 42.3871H15.1423C15.1066 42.4113 15.0352 42.5082 15.1542 42.5324C15.2852 42.5567 15.3209 42.5446 15.4161 42.5324C15.5351 42.5082 15.6184 42.4961 15.678 42.4719C15.7494 42.4598 15.8089 42.3386 15.678 42.3144C15.5113 42.2659 15.4875 42.169 15.3804 42.1811C15.2733 42.1811 15.2613 42.2538 15.2375 42.2902ZM17.2254 11.9336H18.1062L18.9751 13.6295H18.987L18.9751 11.9336H19.606V14.4411H18.749L17.8443 12.7331L17.8681 14.4411H17.2254V11.9336Z" fill="white"/>
<path d="M17.2256 11.9336H18.1064L18.9754 13.6295H18.9873L18.9754 11.9336H19.6062V14.4411H18.7492L17.8446 12.7331L17.8684 14.4411H17.2256V11.9336Z" stroke="white" stroke-width="0.0407391" stroke-miterlimit="10.433"/>
<path d="M20.9038 11.9336H21.7489L22.7369 14.4411H21.987L21.7965 13.9081H20.8205L20.6181 14.4411H19.9277L20.9038 11.9336ZM21.3323 12.4545H21.3204L20.9871 13.4357H21.6299L21.3323 12.4545Z" fill="white"/>
<path d="M20.9038 11.9336H21.7489L22.7369 14.4411H21.987L21.7965 13.9081H20.8205L20.6181 14.4411H19.9277L20.9038 11.9336ZM21.3323 12.4545H21.3204L20.9871 13.4357H21.6299L21.3323 12.4545Z" stroke="white" stroke-width="0.0407072" stroke-miterlimit="10.433"/>
<path d="M23.2363 12.4302H22.6055V11.9336H24.5576V12.4302H23.9267V14.4411H23.2363V12.4302Z" fill="white"/>
<path d="M23.2363 12.4302H22.6055V11.9336H24.5576V12.4302H23.9267V14.4411H23.2363V12.4302Z" stroke="white" stroke-width="0.0407391" stroke-miterlimit="10.433"/>
<path d="M24.9268 14.4411H25.6171V11.9336H24.9268V14.4411Z" fill="white"/>
<path d="M24.9268 14.4411H25.6171V11.9336H24.9268V14.4411Z" stroke="white" stroke-width="0.0407391" stroke-miterlimit="10.433"/>
<path d="M27.3668 11.8828H27.4382L27.5215 11.8949H27.5929L27.6644 11.907L27.7358 11.9192L27.7953 11.9434L27.8667 11.9555L27.9262 11.9797L27.9857 12.0039L28.0453 12.0282L28.0929 12.0524L28.1524 12.0887L28.2 12.1251L28.2476 12.1614L28.2833 12.1978L28.3309 12.2341L28.3666 12.2826L28.4024 12.3189L28.4381 12.3674L28.4738 12.4158L28.4976 12.4764L28.5333 12.5248L28.5571 12.5854L28.5809 12.646L28.5928 12.7065L28.6166 12.7671L28.6285 12.8277L28.6404 12.9004L28.6523 12.9609V13.1063L28.6642 13.179C28.6642 13.9785 28.2119 14.4751 27.3668 14.4751C26.5217 14.4751 26.0693 13.9785 26.0693 13.179C26.0693 12.3795 26.5098 11.8828 27.3668 11.8828ZM27.3668 13.9785H27.4382L27.4739 13.9663H27.5096L27.5453 13.9542L27.5691 13.9421L27.6048 13.93L27.6287 13.9179L27.6525 13.8937L27.6882 13.8816L27.712 13.8573L27.7358 13.8331L27.7477 13.821L27.7715 13.7968L27.7953 13.7604L27.8072 13.7362L27.831 13.712L27.8429 13.6756L27.8548 13.6514L27.8786 13.6151L27.8905 13.5908V13.5545L27.9024 13.5181L27.9143 13.4818L27.9262 13.4455V13.4091L27.9381 13.3728V13.3001L27.95 13.2638V13.179C27.95 12.7429 27.7834 12.3795 27.3668 12.3795C26.9383 12.3795 26.7716 12.7429 26.7716 13.179C26.7716 13.6029 26.9383 13.9785 27.3668 13.9785Z" fill="white"/>
<path d="M27.3668 11.8828H27.4382L27.5215 11.8949H27.5929L27.6644 11.907L27.7358 11.9192L27.7953 11.9434L27.8667 11.9555L27.9262 11.9797L27.9857 12.0039L28.0453 12.0282L28.0929 12.0524L28.1524 12.0887L28.2 12.1251L28.2476 12.1614L28.2833 12.1978L28.3309 12.2341L28.3666 12.2826L28.4024 12.3189L28.4381 12.3674L28.4738 12.4158L28.4976 12.4764L28.5333 12.5248L28.5571 12.5854L28.5809 12.646L28.5928 12.7065L28.6166 12.7671L28.6285 12.8277L28.6404 12.9004L28.6523 12.9609V13.1063L28.6642 13.179C28.6642 13.9785 28.2 14.4751 27.3668 14.4751C26.5217 14.4751 26.0693 13.9785 26.0693 13.179C26.0693 12.3795 26.5098 11.8828 27.3668 11.8828ZM27.3668 13.9906H27.4025L27.4382 13.9785H27.4739L27.5096 13.9663L27.5453 13.9542H27.5691L27.6048 13.93L27.6286 13.9179L27.6524 13.9058L27.6882 13.8816L27.712 13.8694L27.7358 13.8452L27.7477 13.821L27.7715 13.7968L27.7953 13.7725L27.8072 13.7362L27.831 13.712L27.8429 13.6877L27.8548 13.6514L27.8786 13.6151L27.8905 13.5908V13.5545L27.9024 13.5181L27.9143 13.4818L27.9262 13.4455V13.4091L27.9381 13.3728V13.3001L27.95 13.2638V13.179C27.95 12.7429 27.7834 12.3795 27.3668 12.3795C26.9383 12.3795 26.7716 12.7429 26.7716 13.179C26.7716 13.6029 26.9383 13.9906 27.3668 13.9906Z" stroke="white" stroke-width="0.0407416" stroke-miterlimit="10.433"/>
<path d="M29.0928 11.9336H29.9617L30.8425 13.6295H30.8544L30.8306 11.9336H31.4615V14.4411H30.6045L29.6998 12.7331L29.7236 14.4411H29.0928V11.9336Z" fill="white"/>
<path d="M29.0928 11.9336H29.9617L30.8425 13.6295H30.8544L30.8306 11.9336H31.4615V14.4411H30.6045L29.6998 12.7331L29.7236 14.4411H29.0928V11.9336Z" stroke="white" stroke-width="0.0407391" stroke-miterlimit="10.433"/>
<path d="M32.7593 11.9336H33.6044L34.6043 14.4411H33.8544L33.652 13.9081H32.6878L32.4855 14.4411H31.7832L32.7593 11.9336ZM33.1878 12.4545H33.1759L32.8426 13.4357H33.4854L33.1878 12.4545Z" fill="white"/>
<path d="M32.7593 11.9336H33.6044L34.6043 14.4411H33.8544L33.652 13.9081H32.6878L32.4855 14.4411H31.7832L32.7593 11.9336ZM33.1878 12.4545H33.1759L32.8426 13.4357H33.4854L33.1878 12.4545Z" stroke="white" stroke-width="0.0407072" stroke-miterlimit="10.433"/>
<path d="M34.9141 11.9336H35.5925V13.9444H36.6638V14.4411H34.9141V11.9336Z" fill="white"/>
<path d="M34.9141 11.9336H35.5925V13.9444H36.6638V14.4411H34.9141V11.9336Z" stroke="white" stroke-width="0.0407391" stroke-miterlimit="10.433"/>
<path d="M21.8555 15.9531H22.7006C23.51 15.9531 23.8909 16.2196 23.8909 16.7768C23.8909 17.2856 23.4981 17.5884 22.8434 17.5884H22.5578V18.4606H21.8555V15.9531ZM22.5578 17.116H22.7482C22.9982 17.116 23.1886 17.0312 23.1886 16.7647C23.1886 16.5103 22.9982 16.4256 22.7482 16.4256H22.5578V17.116Z" fill="white"/>
<path d="M21.8555 15.9531H22.7006C23.51 15.9531 23.8909 16.2196 23.8909 16.7768C23.8909 17.2856 23.4981 17.5884 22.8434 17.5884H22.5578V18.4606H21.8555V15.9531ZM22.5577 17.116H22.7482C22.9982 17.116 23.1886 17.0312 23.1886 16.7647C23.1886 16.5103 22.9982 16.4256 22.7482 16.4256H22.5577V17.116Z" stroke="white" stroke-width="0.0407416" stroke-miterlimit="10.433"/>
<path d="M24.7715 15.9531H25.6405L26.6641 18.4606H25.8785L25.6881 17.9276H24.6882L24.474 18.4606H23.7598L24.7715 15.9531ZM25.2 16.4619L24.8549 17.4552H25.5214L25.2 16.4619Z" fill="white"/>
<path d="M24.7715 15.9531H25.6405L26.6641 18.4606H25.8785L25.6881 17.9276H24.6882L24.474 18.4606H23.7598L24.7715 15.9531ZM25.2 16.4619L24.8548 17.4552H25.5214L25.2 16.4619Z" stroke="white" stroke-width="0.0407072" stroke-miterlimit="10.433"/>
<path d="M26.9619 15.9531H28.2237C28.6998 15.9531 29.0807 16.1591 29.0807 16.583C29.0807 16.9222 28.914 17.1403 28.5688 17.225C28.795 17.2856 28.8069 17.4673 28.9378 17.7702L29.1997 18.4606H28.4617L28.3189 18.0003C28.1641 17.5763 28.0808 17.4673 27.807 17.4673H27.6642V18.4606H26.9619V15.9531ZM27.6642 16.9949H27.8547C28.0808 16.9949 28.3665 16.9828 28.3665 16.7042C28.3665 16.4619 28.1165 16.4256 27.8547 16.4256H27.6642V16.9949Z" fill="white"/>
<path d="M26.9619 15.9531H28.2237C28.6998 15.9531 29.0807 16.1591 29.0807 16.583C29.0807 16.9222 28.914 17.1403 28.5688 17.225C28.795 17.2856 28.8069 17.4673 28.9378 17.7702L29.1997 18.4606H28.4617L28.3189 18.0003C28.1641 17.5763 28.0808 17.4673 27.807 17.4673H27.6642V18.4606H26.9619V15.9531ZM27.6642 16.9949H27.8546C28.0808 16.9949 28.3665 16.9828 28.3665 16.7042C28.3665 16.4619 28.1165 16.4256 27.8546 16.4256H27.6642V16.9949Z" stroke="white" stroke-width="0.0407416" stroke-miterlimit="10.433"/>
<path d="M29.5566 15.9531H30.2589V16.9828H30.2708L31.0683 15.9531H31.9135L30.9374 17.116L31.9968 18.4606H31.0922L30.2708 17.322H30.2589V18.4606H29.5566V15.9531Z" fill="white"/>
<path d="M29.5566 15.9531H30.2589V16.9828H30.2708L31.0683 15.9531H31.9135L30.9374 17.116L31.9968 18.4606H31.0922L30.2708 17.322H30.2589V18.4606H29.5566V15.9531Z" stroke="white" stroke-width="0.0407391" stroke-miterlimit="10.433"/>
<path d="M19.023 21.8675L19.0587 21.8796L19.0944 21.9038L19.1301 21.9159L19.1658 21.928L19.2134 21.9401L19.2491 21.9523L19.2967 21.9765H19.3443L19.3801 21.9886L19.4277 22.0007L19.4872 22.0128H19.5348L19.5824 22.0249H19.7372C19.9752 22.0249 20.1776 21.9886 20.1776 21.7827C20.1776 21.3102 18.9277 21.6131 18.9277 20.7046C18.9277 20.0989 19.5467 19.9414 20.0823 19.9414C20.3323 19.9414 20.5823 19.9656 20.7608 20.0262L20.7132 20.5471C20.5347 20.4623 20.3323 20.4259 20.13 20.4259C19.9514 20.4259 19.6538 20.4502 19.6538 20.6682C19.6538 21.068 20.9037 20.8015 20.9037 21.6979C20.9037 22.352 20.3323 22.5216 19.7372 22.5216C19.4991 22.5216 19.1896 22.4853 18.9634 22.4126L19.023 21.8675Z" fill="white"/>
<path d="M19.023 21.8675L19.0587 21.8796L19.0944 21.9038L19.1301 21.9159L19.1658 21.928L19.2134 21.9401L19.2491 21.9523L19.2967 21.9765H19.3443L19.3801 21.9886L19.4277 22.0007L19.4872 22.0128H19.5348L19.5824 22.0249H19.7372C19.9752 22.0249 20.1776 21.9886 20.1776 21.7827C20.1776 21.3102 18.9277 21.6131 18.9277 20.7046C18.9277 20.0989 19.5467 19.9414 20.0823 19.9414C20.3323 19.9414 20.5823 19.9656 20.7608 20.0262L20.7132 20.5471C20.5347 20.4623 20.3323 20.4259 20.13 20.4259C19.9514 20.4259 19.6538 20.4502 19.6538 20.6682C19.6538 21.068 20.9037 20.8015 20.9037 21.6979C20.9037 22.352 20.3323 22.5216 19.7372 22.5216C19.4991 22.5216 19.1896 22.4853 18.9634 22.4126L19.023 21.8675Z" stroke="white" stroke-width="0.0407416" stroke-miterlimit="10.433"/>
<path d="M21.332 19.9766H23.1889V20.449H22.0343V20.9578H23.1294V21.4423H22.0343V21.9995H23.2246V22.4841H21.332V19.9766Z" fill="white"/>
<path d="M21.332 19.9766H23.1889V20.449H22.0343V20.9578H23.1294V21.4423H22.0343V21.9995H23.2246V22.4841H21.332V19.9766Z" stroke="white" stroke-width="0.0407391" stroke-miterlimit="10.433"/>
<path d="M23.6768 19.9766H24.9266C25.3908 19.9766 25.7717 20.1825 25.7717 20.6065C25.7717 20.9456 25.6051 21.1637 25.2718 21.2485C25.4979 21.3091 25.5098 21.5029 25.6408 21.8057L25.9027 22.4841H25.1647L25.0099 22.0238C24.879 21.5998 24.7838 21.4908 24.5219 21.4908H24.379V22.4841H23.6768V19.9766ZM24.379 21.0183H24.5576C24.7838 21.0183 25.0694 21.0062 25.0694 20.7276C25.0694 20.4974 24.8314 20.449 24.5576 20.449H24.379V21.0183Z" fill="white"/>
<path d="M23.6768 19.9766H24.9266C25.3908 19.9766 25.7717 20.1825 25.7717 20.6065C25.7717 20.9456 25.6051 21.1637 25.2718 21.2485C25.4979 21.3091 25.5098 21.5029 25.6408 21.8057L25.9027 22.4841H25.1647L25.0099 22.0238C24.879 21.5998 24.7838 21.4908 24.5219 21.4908H24.379V22.4841H23.6768V19.9766ZM24.379 21.0183H24.5576C24.7837 21.0183 25.0694 21.0062 25.0694 20.7276C25.0694 20.4974 24.8314 20.449 24.5576 20.449H24.379V21.0183Z" stroke="white" stroke-width="0.0407416" stroke-miterlimit="10.433"/>
<path d="M26.0576 19.9766H26.8075L27.3908 21.939H27.4027L27.9859 19.9766H28.7001L27.8074 22.4841H26.9385L26.0576 19.9766Z" fill="white"/>
<path d="M26.0576 19.9766H26.8075L27.3908 21.939H27.4027L27.9859 19.9766H28.7001L27.8074 22.4841H26.9385L26.0576 19.9766Z" stroke="white" stroke-width="0.0407391" stroke-miterlimit="10.433"/>
<path d="M29.0693 22.4841H29.7597V19.9766H29.0693V22.4841Z" fill="white"/>
<path d="M29.0693 22.4841H29.7597V19.9766H29.0693V22.4841Z" stroke="white" stroke-width="0.0407391" stroke-miterlimit="10.433"/>
<path d="M32.5209 22.4247L32.4852 22.4368L32.4376 22.4489H32.4019L32.3662 22.461L32.3186 22.4731H32.2829L32.2353 22.4853H32.1877L32.14 22.4974H32.0924L32.0686 22.5095H31.9496L31.9258 22.5216H31.7353C31.0331 22.5216 30.2236 22.1824 30.2236 21.2497C30.2236 20.3654 30.8664 19.9414 31.7353 19.9414C31.9972 19.9414 32.2591 19.9899 32.509 20.0625L32.4614 20.6076C32.2353 20.4865 32.0091 20.4259 31.771 20.4259C31.283 20.4259 30.9497 20.7772 30.9497 21.2497C30.9497 21.7342 31.3187 22.0249 31.8306 22.0249C32.0567 22.0249 32.2948 21.9644 32.4852 21.9038L32.5209 22.4247Z" fill="white"/>
<path d="M32.5209 22.4247L32.4852 22.4368L32.4376 22.4489H32.4019L32.3662 22.461L32.3186 22.4731H32.2829L32.2353 22.4853H32.1877L32.14 22.4974H32.0924L32.0686 22.5095H31.9496L31.9258 22.5216H31.7353C31.0331 22.5216 30.2236 22.1824 30.2236 21.2497C30.2236 20.3654 30.8664 19.9414 31.7353 19.9414C31.9972 19.9414 32.2591 19.9899 32.509 20.0625L32.4614 20.6076C32.2353 20.4865 32.0091 20.4259 31.771 20.4259C31.283 20.4259 30.9497 20.7772 30.9497 21.2497C30.9497 21.7342 31.3187 22.0249 31.8306 22.0249C32.0567 22.0249 32.2948 21.9644 32.4852 21.9038L32.5209 22.4247Z" stroke="white" stroke-width="0.0407416" stroke-miterlimit="10.433"/>
<path d="M32.8545 19.9766H34.7114V20.449H33.5568V20.9578H34.6519V21.4423H33.5568V21.9995H34.759V22.4841H32.8545V19.9766Z" fill="white"/>
<path d="M32.8545 19.9766H34.7114V20.449H33.5568V20.9578H34.6519V21.4423H33.5568V21.9995H34.759V22.4841H32.8545V19.9766Z" stroke="white" stroke-width="0.0407391" stroke-miterlimit="10.433"/>
</g>
<defs>
<clipPath id="clip0_1660_4805">
<rect width="40" height="53" fill="white"/>
</clipPath>
</defs>
</svg>
