<svg width="60" height="62" viewBox="0 0 60 62" fill="none" xmlns="http://www.w3.org/2000/svg">
<g clip-path="url(#clip0_1665_5179)">
<path d="M27.9781 61.0529C28.1589 60.872 28.3233 60.6419 28.3233 60.5433C28.3233 60.083 28.8822 59.7049 29.8356 59.4912C30.0986 59.4255 30.1315 59.3762 30.1315 58.8501V58.2583L29.7041 58.1926C29.063 58.094 28.5699 57.7323 28.3726 57.2556C28.274 57.0255 28.0767 56.6967 27.9452 56.5488L27.6986 56.2693L28.0438 56.3515C29.0959 56.5981 30.0164 57.4036 30.2959 58.2748L30.4438 58.7515L31.0356 58.6857C32.8932 58.472 33.6822 58.4556 33.6329 58.62C33.6 58.7351 33.2055 58.8008 32.137 58.8666C31.3479 58.9159 30.6411 58.9816 30.5589 58.9981C30.4767 59.0309 30.3123 59.3104 30.1644 59.6392C29.7863 60.5104 28.6685 61.3652 27.8959 61.3816C27.6658 61.3816 27.6658 61.3652 27.9781 61.0529ZM31.4466 61.0693C31.4466 61.02 31.5452 60.9214 31.6767 60.8556C31.8082 60.7734 32.0055 60.494 32.1205 60.2145C32.4 59.5899 32.5973 59.4255 33.2712 59.2611L33.8137 59.1296V58.5707V58.0118L33.2548 57.8638C32.5973 57.6994 32.2849 57.4364 32.0548 56.894C31.9562 56.6638 31.7753 56.3679 31.6438 56.2364C31.3479 55.9241 31.3808 55.9077 32.1863 56.22C32.9753 56.5159 33.6986 57.2063 33.8959 57.8309C33.9781 58.094 34.1096 58.3405 34.2082 58.3734C34.4384 58.472 37.4301 57.7159 38.0219 57.42C38.3014 57.2885 38.5479 57.2063 38.5808 57.2556C38.6137 57.3049 38.5808 57.3871 38.5151 57.42C38.4493 57.4693 38.4164 57.6172 38.4493 57.7488C38.5151 57.9953 38.4493 58.0118 36.4603 58.3241C35.326 58.5049 34.3562 58.6857 34.2904 58.7186C34.2247 58.7679 34.1096 58.9652 34.0438 59.1953C33.8466 59.7707 33.3863 60.3131 32.8438 60.6419C32.2849 60.9214 31.4466 61.2008 31.4466 61.0693ZM24.0493 60.6255C24.2137 60.4446 24.411 60.1323 24.4932 59.9186C24.6904 59.409 24.9863 59.1789 25.6274 59.0145C26.4658 58.8008 26.3342 58.5871 25.2822 58.4227C24.5425 58.3077 24.2959 58.3077 23.8521 58.4392C23.1452 58.6529 22.8 58.6364 22.3726 58.4063C22.1753 58.3077 21.8795 58.1433 21.6986 58.0447C21.5178 57.946 21.4027 57.831 21.4356 57.7981C21.5507 57.6173 22.8 57.42 23.3096 57.5022C23.589 57.5515 23.9671 57.6994 24.1479 57.8474C24.5589 58.1926 25.989 58.472 26.1534 58.2255C26.3342 57.9296 26.1863 57.7488 25.6438 57.6173C24.9863 57.4529 24.674 57.1899 24.4274 56.5981C24.3288 56.3515 24.1479 56.0885 24.0164 55.9899C23.6055 55.7104 23.8685 55.6775 24.5753 55.9405C25.3973 56.2529 26.137 56.9433 26.3507 57.6337C26.4329 57.9131 26.5479 58.1597 26.5973 58.1762C26.6466 58.209 27.2384 58.2912 27.9288 58.357C29.5397 58.5049 29.7041 58.5542 29.7041 58.7679C29.7041 58.8994 29.6219 58.9323 29.326 58.883C28.6027 58.7679 26.7452 58.472 26.663 58.472C26.6137 58.472 26.4493 58.7515 26.2849 59.0967C25.874 59.9679 25.1836 60.5104 24.0329 60.8392L23.737 60.9214L24.0493 60.6255ZM35.6877 59.7049C35.6384 59.6556 35.6055 59.4912 35.6055 59.3433C35.6055 59.1131 35.6548 59.0638 35.9178 59.0967C36.1644 59.1296 36.2301 59.1953 36.2301 59.4255C36.2301 59.6227 36.1644 59.7214 36 59.7542C35.8849 59.7707 35.737 59.7378 35.6877 59.7049ZM35.6219 57.4693C35.5397 57.42 35.4904 57.2392 35.5068 57.0912C35.5397 56.8775 35.6219 56.8118 35.8356 56.8118C36.0493 56.8118 36.1315 56.8775 36.1644 57.0912C36.1973 57.3214 36.0329 57.5679 35.8356 57.5679C35.8027 57.5679 35.7041 57.5351 35.6219 57.4693ZM14.6466 56.0556L14.1041 55.694L14.3014 55.3652C14.5479 54.9542 14.6795 54.9378 14.6795 55.3159C14.6795 55.8419 15.5671 56.2857 15.9288 55.9405C16.1425 55.7268 16.0932 55.3488 15.7808 54.6748C15.4521 53.9679 15.4027 53.1296 15.6658 52.7679C15.7644 52.6364 16.0274 52.4556 16.2575 52.3899C16.7671 52.2255 17.4904 52.4556 17.9836 52.9652L18.3123 53.294L18.0658 53.6556C17.737 54.1159 17.589 54.0994 17.6712 53.6227C17.7205 53.294 17.6877 53.1953 17.4247 52.9816C16.9808 52.6364 16.5041 52.6529 16.2575 53.031C16.0767 53.3104 16.0767 53.3597 16.389 54.1652C16.8 55.2173 16.8164 55.7433 16.4384 56.1542C16.011 56.5488 15.3534 56.5323 14.6466 56.0556ZM44.7945 55.957C44.5973 55.5789 44.6466 55.3652 44.8767 55.5953C45.0904 55.809 45.4849 55.7597 45.8137 55.4967C46.4384 55.0036 46.0767 54.5268 45.0247 54.4118C43.9068 54.2967 43.726 54.2309 43.4137 53.9186C43.0356 53.5405 43.0027 52.7844 43.3479 52.357C43.5781 52.0611 44.4493 51.5844 44.7452 51.5844C44.9096 51.5844 45.3699 52.3734 45.2548 52.472C45.2219 52.5049 45.0575 52.4227 44.8932 52.2912C44.6466 52.094 44.5315 52.0775 44.2849 52.1762C43.8411 52.3405 43.5781 52.62 43.5781 52.8994C43.5781 53.409 43.9068 53.5899 44.9589 53.7049C46.1425 53.8364 46.5863 54.1816 46.5863 54.9707C46.5863 55.4638 46.011 56.0063 45.2384 56.2364C45.0247 56.3022 44.9425 56.2529 44.7945 55.957ZM28.0767 54.3296C25.0356 54.083 21.6164 53.0967 18.9699 51.6994C11.8849 47.9844 7.11781 41.1625 6.08219 33.2556C5.86849 31.6775 5.85206 29.031 6.03288 27.42C6.6411 21.831 9.18904 16.6693 13.2658 12.7077C14.3507 11.6556 16.4219 9.92958 16.6192 9.92958C16.6521 9.92958 16.8986 9.78164 17.1616 9.60081C18.937 8.36794 21.9945 7.10218 24.6411 6.47753C27.1068 5.90218 30.7397 5.72136 33.337 6.06657C43.611 7.41451 51.8959 15.1405 53.9507 25.2666C56.0712 35.7214 51.2055 46.2255 41.8027 51.4529C37.8411 53.6556 32.7616 54.7241 28.0767 54.3296ZM33.5342 53.6885C42.3945 52.4227 49.9726 46.0611 52.7342 37.5953C55.9397 27.7488 52.6356 17.2775 44.3342 11.0309C43.874 10.6857 43.4795 10.4063 43.4466 10.4063C43.4137 10.4063 43.0521 10.1762 42.6411 9.8967C40.2247 8.28574 36.2959 6.90492 32.8438 6.47753C31.5945 6.32958 28.7836 6.32958 27.5178 6.47753C18.6082 7.56246 11.211 13.2666 7.93973 21.5844C6.9863 24.0008 6.47671 26.5488 6.39452 29.3762C6.29589 32.3844 6.60822 34.6529 7.51233 37.4803C8.05479 39.1734 9.18904 41.5734 10.126 43.0036C12.6575 46.8666 16.4219 50.1049 20.4493 51.8803C24.674 53.7214 29.0466 54.3296 33.5342 53.6885ZM26.3178 50.4501C26.137 50.2693 26.2685 50.1871 26.7123 50.1871C27.1068 50.1871 27.2548 50.1214 27.6164 49.7268C27.863 49.4803 28.1096 49.1186 28.1753 48.9214L28.2904 48.5762L27.8795 48.7405C26.926 49.1351 26.1863 48.346 26.4493 47.2282C26.7288 46.0118 28.3069 45.7159 28.8164 46.7679C29.326 47.8364 28.6685 49.7433 27.6164 50.2857C27.189 50.5159 26.4822 50.5981 26.3178 50.4501ZM28.0931 48.2145C28.4384 47.8693 28.4055 47.0145 28.0274 46.6364C27.7644 46.3734 27.7151 46.357 27.4849 46.5049C26.9096 46.883 26.811 47.7378 27.3041 48.2145C27.5836 48.5104 27.7973 48.494 28.0931 48.2145ZM23.589 48.7899C23.589 48.7241 23.7205 48.6748 23.8685 48.6748C24.0164 48.6748 24.1808 48.6255 24.2137 48.5762C24.2466 48.5268 24.3123 48.0501 24.3452 47.5405L24.4274 46.6036H24.1151C23.6877 46.6036 23.737 46.4227 24.1808 46.3405C24.3945 46.3077 24.6575 46.2419 24.789 46.209C25.0192 46.1433 25.0192 46.1597 24.9041 47.3597C24.8384 48.0337 24.8055 48.609 24.8384 48.6419C24.8712 48.6748 25.0685 48.6912 25.2822 48.6912C25.5123 48.6912 25.6438 48.7405 25.611 48.8063C25.5781 48.872 25.1014 48.9214 24.5589 48.9214C23.9836 48.9049 23.589 48.8556 23.589 48.7899ZM30.1644 48.5597C29.7699 48.1652 29.7205 47.6063 30.0164 46.9816C30.2466 46.4885 30.7397 46.2255 31.4137 46.2255C32.1863 46.209 32.5479 46.5214 32.5808 47.2775C32.6466 48.346 32.1041 48.9214 31.0356 48.9214C30.6082 48.9049 30.4438 48.8392 30.1644 48.5597ZM31.7753 48.3789C32.3836 47.8693 32.3507 46.883 31.726 46.6036C31.2822 46.4063 31.0027 46.4556 30.6411 46.8172C29.9671 47.4912 30.3452 48.6583 31.2493 48.6748C31.3479 48.6748 31.5781 48.5433 31.7753 48.3789ZM33.2877 48.7899C33.2877 48.7241 33.3863 48.6748 33.5178 48.6748C33.8301 48.6748 33.9452 48.4118 34.0274 47.4255C34.1096 46.5871 34.1096 46.5871 33.8137 46.5871C33.4027 46.5871 33.4521 46.3899 33.8959 46.3241C34.1096 46.2912 34.3726 46.2255 34.4877 46.1762C34.6849 46.094 34.7014 46.1433 34.6356 46.7515C34.6027 47.1131 34.537 47.6885 34.4877 48.0337L34.4219 48.6748H34.7836C34.9808 48.6748 35.1452 48.7241 35.1452 48.7899C35.1452 48.8556 34.7671 48.9049 34.2247 48.9049C33.6822 48.9049 33.2877 48.8556 33.2877 48.7899ZM45.5014 43.0857C45.3699 42.9871 45.3041 42.8227 45.337 42.6583C45.3699 42.3953 45.4192 42.3789 46.2575 42.3625C46.9644 42.3625 47.1945 42.3131 47.4904 42.0994C47.9178 41.7871 48.3288 41.1789 48.4438 40.6036C48.5753 40.0282 48.2795 38.1707 47.9507 37.4803C47.6055 36.757 47.3753 36.6255 46.9151 36.9049C46.6192 37.0693 46.537 37.0857 46.4548 36.9707C46.4055 36.8885 46.3562 36.7899 46.3562 36.7405C46.3562 36.6419 47.6384 35.8364 47.8192 35.8364C48.263 35.8364 48.9205 37.2337 49.1671 38.7131L49.3151 39.6008L49.6438 38.7131C49.9397 37.9077 49.9562 37.7268 49.8904 36.9049C49.8082 35.9186 49.8575 35.7871 50.3507 35.9022C50.6137 35.9679 50.6301 36.0337 50.6301 36.6583C50.6301 38.9597 48.3945 42.6748 46.7178 43.1351C46.1425 43.283 45.7479 43.2666 45.5014 43.0857ZM26.4822 40.7679C26.4822 40.7351 26.4 40.3077 26.3014 39.8145C26.0055 38.2364 26.137 37.3816 26.8274 36.6748L27.0904 36.3953L26.6959 36.4775C26.4822 36.5268 26.1699 36.609 25.989 36.6748C25.7096 36.7734 25.6932 36.8392 25.7425 37.1844C25.8082 37.6282 25.5616 37.8255 25.2493 37.5789C24.8877 37.283 25.0849 36.609 25.6274 36.3296C25.9562 36.1652 27.8301 35.82 27.9781 35.9186C28.1425 36.0173 28.1096 36.3953 27.9123 36.4775C27.4849 36.6419 26.9918 38.1707 27.1068 39.0255C27.2219 39.8803 27.2877 39.8967 27.9616 39.272C28.6027 38.6638 28.9644 38.1378 29.1945 37.5131C29.3096 37.1844 29.3096 37.02 29.1781 36.6419C28.9808 36.083 28.9808 36.1488 29.1945 35.9351C29.6384 35.4912 30 36.1323 29.8192 37.0529C29.6548 37.9241 29.3096 38.5652 28.5863 39.3542C27.9288 40.0282 26.4658 41.031 26.4822 40.7679ZM12.5425 40.4227C11.1616 39.7652 11.1123 38.0885 12.411 35.2282L12.7069 34.5707H12.3452C12.1479 34.5707 11.7534 34.6857 11.474 34.8173C10.8822 35.0967 10.6685 35.4583 10.8493 35.82C11.063 36.1981 10.9973 36.5268 10.7178 36.6419C10.2904 36.8063 10.1096 36.5104 10.1425 35.7049C10.1589 35.3433 10.7342 34.6364 11.2274 34.3899C11.5233 34.2419 13.7096 33.946 13.8247 34.0447C13.8411 34.0611 13.6603 34.5214 13.4137 35.0638C12.263 37.5625 12.1808 39.1077 13.2 39.6337C14.4329 40.2748 16.1753 38.5816 16.8 36.1488C17.0466 35.2118 17.0301 34.7679 16.7178 33.9131C16.4877 33.2556 16.4877 33.1734 16.6521 33.009C16.8986 32.7625 17.2438 32.894 17.4247 33.2556C17.6384 33.7159 17.589 35.2447 17.326 36.2638C16.8493 38.1214 15.8301 39.6501 14.6959 40.2419C14.0877 40.5378 13.0027 40.6364 12.5425 40.4227ZM20.3507 40.2912C20.2192 39.946 20.3342 39.2392 20.7616 37.8419C20.9425 37.2501 21.0247 36.8063 20.9589 36.7405C20.811 36.5926 19.9726 37.1679 19.611 37.6446C19.4301 37.8748 19.2329 38.4666 19.0685 39.2392L18.8055 40.4556H18.3616C18.1151 40.4556 17.9178 40.4227 17.9178 40.3734C17.9178 40.3241 18.1151 39.4857 18.3452 38.5159C18.5753 37.546 18.7397 36.7241 18.6904 36.6748C18.6411 36.6255 18.4603 36.7405 18.2795 36.9214C17.9671 37.2173 17.6877 37.2501 17.6877 36.9707C17.6877 36.6419 19.0356 35.7871 19.463 35.8529C19.6767 35.8857 19.7096 35.9515 19.6767 36.3953L19.6438 36.8885L20.2849 36.4282C21.3699 35.6556 21.9616 35.672 21.9616 36.494C21.9616 36.7241 21.7808 37.4803 21.5342 38.2036C21.0247 39.7981 21.0575 40.0446 21.7315 39.5186C22.1096 39.2227 22.2247 39.1734 22.3068 39.3049C22.4384 39.5022 22.1753 39.7981 21.5014 40.2419C20.8603 40.6693 20.4986 40.6857 20.3507 40.2912ZM23.0137 40.4063C22.8329 40.1926 22.8986 39.8145 23.3753 38.0556C23.5726 37.3323 23.7041 36.7241 23.6548 36.6748C23.6219 36.6419 23.4247 36.757 23.2274 36.9378C22.9151 37.2501 22.8658 37.2501 22.7014 37.0857C22.537 36.9214 22.5699 36.8556 23.1123 36.4282C23.6877 35.9679 24.3616 35.7378 24.6082 35.8857C24.8055 36.0173 24.7562 36.3953 24.3288 37.8748C23.9342 39.2227 23.8521 39.7488 24 39.7488C24.0329 39.7488 24.2301 39.6173 24.411 39.4693C24.6904 39.2392 24.789 39.2063 24.9534 39.3214C25.1507 39.4364 25.1342 39.4693 24.8055 39.7652C23.8027 40.62 23.326 40.7844 23.0137 40.4063ZM30.2466 40.4063C29.3918 39.5515 30.4767 36.5926 31.874 36.0008C32.7452 35.6392 33.3534 35.9022 33.3534 36.6419C33.3534 37.2501 32.8603 37.7762 31.7918 38.3022C30.9534 38.7131 30.789 38.9597 31.0027 39.5351C31.0849 39.7652 31.1671 39.7981 31.463 39.7488C31.6603 39.7159 32.0548 39.5186 32.3342 39.3214C32.7616 39.0255 32.8767 38.9926 32.9589 39.1241C33.1068 39.3707 33.0904 39.3871 32.5973 39.7981C31.6767 40.5049 30.6247 40.7844 30.2466 40.4063ZM32.1205 37.4474C32.5151 37.0529 32.5808 36.757 32.3014 36.5268C32.1041 36.3625 31.726 36.4611 31.8411 36.6419C31.874 36.7077 31.8411 36.7405 31.7589 36.7241C31.5945 36.6912 31.2658 37.283 31.1342 37.8255L31.0521 38.1542L31.3973 37.9734C31.611 37.8912 31.9233 37.6446 32.1205 37.4474ZM37.1507 40.4063C36.7726 40.2419 36.5918 39.8803 36.674 39.4529C36.7068 39.3049 36.8384 39.2227 37.0849 39.2063C37.4301 39.1734 37.463 39.1899 37.463 39.5022C37.463 39.9131 37.6438 40.1104 38.0712 40.1104C38.4493 40.1104 38.8603 39.7488 38.8603 39.4364C38.8603 39.3214 38.6301 38.9104 38.3342 38.5488C37.7425 37.7926 37.6438 37.5131 37.7425 36.9707C37.8904 36.2309 38.7616 35.7378 39.5836 35.9022C40.0767 36.0173 40.2411 36.1652 40.2411 36.5268C40.2411 37.0857 39.7151 37.0857 39.2548 36.5433C39.0411 36.2967 38.9753 36.2803 38.7616 36.3953C38.4 36.5926 38.4329 37.1022 38.8274 37.5131C39.4356 38.1707 39.6658 38.6145 39.6658 39.1241C39.6493 40.2419 38.3178 40.9159 37.1507 40.4063ZM40.8164 40.4063C40.6356 40.1926 40.7178 39.6337 41.1945 38.0063C41.3918 37.3159 41.5069 36.7241 41.474 36.6912C41.4247 36.6419 41.2438 36.757 41.0795 36.9214C40.7178 37.2666 40.537 37.3159 40.4384 37.0529C40.3562 36.8227 41.4082 35.9844 41.9178 35.8857C42.6904 35.7378 42.7233 35.9351 42.1479 37.8419C41.7534 39.1734 41.6548 39.7652 41.8192 39.7652C41.8685 39.7652 42.0493 39.6337 42.2137 39.4529C42.4767 39.1899 42.5589 39.1734 42.7068 39.2885C42.937 39.4693 42.8877 39.5515 42.1644 40.1104C41.5562 40.6036 41.063 40.7186 40.8164 40.4063ZM43.4959 40.4392C43.4137 40.357 43.3644 40.1268 43.3644 39.9131C43.3644 39.6008 43.7425 37.8748 44.0055 36.9707C44.0548 36.8063 43.989 36.7734 43.6438 36.7734C43.2822 36.7734 43.2329 36.7405 43.2658 36.5104C43.2986 36.2967 43.3973 36.2309 43.7589 36.1981C44.1863 36.1488 44.2192 36.1159 44.3342 35.6227C44.4329 35.1789 44.5315 35.0803 44.9096 34.9159C45.1562 34.8008 45.3863 34.7351 45.4192 34.7679C45.4685 34.8173 45.2712 35.672 45.1397 36.0173C45.074 36.1816 45.1562 36.1981 45.6 36.1981C46.0932 36.1981 46.126 36.2145 46.126 36.4775C46.126 36.7405 46.0767 36.757 45.5178 36.7899L44.9096 36.8227L44.5808 38.1542C44.4 38.8775 44.2849 39.5515 44.3178 39.6337C44.3836 39.8145 44.6466 39.7159 45.2877 39.2885C45.6822 39.0255 45.8301 38.9926 45.9452 39.0912C46.1589 39.272 46.1096 39.3378 45.1068 39.9953C44.2521 40.5871 43.7589 40.7186 43.4959 40.4392ZM33.9123 40.2583C34.011 39.9296 34.8 36.7734 34.8 36.7077C34.8 36.5597 34.5863 36.6583 34.2904 36.9378C33.9781 37.2173 33.5836 37.2501 33.6822 36.9707C33.7479 36.7734 34.9315 35.9679 35.2767 35.9022C35.7534 35.8036 35.9014 35.9679 35.7534 36.4611L35.6384 36.8885L36.263 36.2309C36.7726 35.7049 36.9534 35.5899 37.2164 35.6227C37.463 35.6556 37.5452 35.7214 37.5781 35.9679C37.611 36.2474 37.5452 36.3131 37.0027 36.5597C36.0329 36.9871 35.4575 37.7597 35.1781 39.0255C34.8658 40.472 34.8658 40.4556 34.3562 40.4556C33.9288 40.472 33.863 40.4392 33.9123 40.2583ZM24.4438 34.4063C24.3452 33.9789 24.5753 33.6501 24.9699 33.6501C25.3973 33.6501 25.5288 33.9953 25.2658 34.4063C25.0192 34.7844 24.5425 34.7844 24.4438 34.4063ZM42.2466 34.3734C42.1479 33.9625 42.3288 33.6994 42.7562 33.6666C43.2 33.6173 43.3644 33.9789 43.0849 34.4063C42.8055 34.8008 42.3452 34.7844 42.2466 34.3734ZM29.4904 31.9734C29.4082 31.8748 29.3753 31.694 29.3918 31.546C29.4247 31.2994 29.4904 31.283 30.4274 31.2501C31.2164 31.2173 31.463 31.1679 31.611 31.0036C31.7589 30.8392 33.0575 26.1707 33.0575 25.7597C33.0575 25.7104 32.811 25.6775 32.4986 25.6775C31.9726 25.6775 31.9233 25.6611 31.8904 25.3652L31.8411 25.0529L32.5315 25.0857L33.2219 25.1186L33.5014 24.2474C33.9288 22.883 34.8493 21.9953 36.0164 21.7981C36.6082 21.6994 37.0521 22.0282 36.9205 22.4392C36.8384 22.7022 36.8055 22.7022 36.0329 22.6364C35.2931 22.5707 35.211 22.5871 34.9479 22.8337C34.6849 23.0967 34.4055 23.8529 34.2411 24.7077L34.1589 25.1022H34.8C35.4082 25.1022 35.4411 25.1186 35.4411 25.3981C35.4411 25.6775 35.4082 25.694 34.7014 25.694H33.9616L33.4849 27.6008C32.9589 29.7214 32.6466 30.5104 32.0712 31.1679C31.4301 31.9405 29.8685 32.4337 29.4904 31.9734ZM27.7973 31.2337C27.0904 30.9049 26.7781 30.4775 26.0384 28.8994C25.1014 26.9268 25.0685 26.9104 24.789 28.2419L24.5589 29.3104L24.0658 29.3433C23.8027 29.3597 23.5726 29.3597 23.5726 29.3433C23.5726 29.3268 23.7041 28.8337 23.8521 28.2748C24 27.6994 24.2466 26.7131 24.3781 26.072C24.8712 23.82 25.1671 23.031 25.6767 22.5378C26.4822 21.7652 27.9616 21.5351 27.9616 22.1926C27.9616 22.5707 27.6658 22.7022 26.9918 22.6364C26.1699 22.5378 26.0712 22.6693 25.6932 24.1981C25.5288 24.8556 25.3808 25.4638 25.3644 25.5296C25.3479 25.5953 25.5781 25.4967 25.8904 25.283C26.6137 24.7899 27.074 24.6912 27.4521 24.9378C27.6822 25.0857 27.7315 25.2173 27.7315 25.5953C27.7315 25.9734 27.6493 26.1378 27.3534 26.4501C27.0082 26.8118 26.3342 27.0912 25.8575 27.0912C25.6932 27.0912 25.7425 27.1734 26.0219 27.42C26.2356 27.6008 26.6795 28.3405 27.0904 29.1789C27.6658 30.3296 27.8795 30.6583 28.1918 30.8392C28.4877 31.0036 28.6521 31.0364 28.8822 30.9542C29.1452 30.8556 29.1781 30.7899 29.1452 30.4611C29.0959 29.9186 29.4082 29.7049 29.7534 30.0501C30.0164 30.3131 29.9836 30.6255 29.6219 31.02C29.1945 31.4474 28.4712 31.546 27.7973 31.2337ZM26.3014 26.5323C26.9425 26.2693 27.1562 25.431 26.5973 25.431C26.3342 25.431 25.463 26.072 25.2164 26.4501C25.0521 26.6967 25.0521 26.7131 25.463 26.7131C25.7096 26.7131 26.0877 26.631 26.3014 26.5323ZM15.2877 30.7405C14.4164 30.2967 13.7918 29.3433 13.2493 27.6337C13.0521 27.009 12.8384 26.4994 12.7726 26.483C12.6904 26.4666 12.0493 28.5378 12.0329 28.9323C12.0329 28.9816 12.2301 29.0145 12.4932 29.0145C13.0027 29.0145 13.1507 29.294 12.6904 29.3926C12.2137 29.4912 10.0603 29.409 10.0274 29.294C10.011 29.2282 10.2411 29.0638 10.537 28.9323C11.1452 28.6364 11.1288 28.7186 11.7863 25.957C12.0822 24.757 12.1479 24.3296 12.0329 24.2967C11.9507 24.2638 11.8849 24.1816 11.8849 24.0994C11.8849 23.9679 13.1507 23.6556 13.2493 23.7542C13.2658 23.7707 13.1836 24.1981 13.0521 24.7077C12.7397 25.8748 12.7397 25.8912 13.1671 25.8912C13.6603 25.8912 14.2521 25.5131 14.4658 25.0364C14.7288 24.4775 14.6959 24.2145 14.3178 23.7871C14.0055 23.4255 13.9397 23.409 13.1836 23.409C11.9342 23.409 10.8329 24.083 10.3562 25.1351C10.0438 25.809 10.0932 26.1542 10.5041 26.631C10.9479 27.1241 10.9151 27.4529 10.4384 27.4529C10.1589 27.4529 10.0438 27.3707 9.87945 27.0419C9.63288 26.5488 9.66575 25.3323 9.94521 24.7899C10.2247 24.2474 10.9479 23.6063 11.6384 23.2611C12.1973 22.9816 12.411 22.9488 13.3808 22.9488C14.6466 22.9488 15.2384 23.1625 15.5342 23.7378C15.7644 24.1652 15.6822 24.8885 15.3699 25.3159C15.0904 25.7104 14.4493 26.1378 14.0384 26.22C13.8575 26.2529 13.726 26.3186 13.726 26.3679C13.726 26.631 14.7945 29.3104 15.0575 29.7049C15.6329 30.5762 16.3397 30.8063 16.7014 30.2309C17.1123 29.5734 17.5562 29.4912 17.5562 30.083C17.5726 30.8556 16.274 31.2501 15.2877 30.7405ZM16.4548 29.3433C15.2877 28.7679 15.9781 25.7926 17.4575 25.0364C19.0685 24.2145 20.1863 25.4145 19.611 27.3542C19.1507 28.883 17.5726 29.8857 16.4548 29.3433ZM18.0164 28.7186C18.4932 28.3077 18.7726 27.4529 18.7069 26.5159C18.5753 24.3789 16.8822 25.3652 16.8822 27.5679C16.8822 28.2255 16.9315 28.4556 17.1288 28.7022C17.4247 29.0967 17.5726 29.0967 18.0164 28.7186ZM20.3507 29.1625C19.8247 28.4885 20.2685 26.6145 21.2055 25.5789C21.7315 24.9871 22.126 24.8392 22.8986 24.872C23.589 24.9049 23.8685 25.1515 23.6384 25.5131C23.4904 25.7597 23.0137 25.7597 22.4548 25.5296C22.0767 25.3652 22.0603 25.3816 21.7479 25.7433C21.2055 26.3844 20.8932 27.8803 21.189 28.4227C21.4027 28.8173 22.0438 28.8008 22.6192 28.3734C22.9315 28.1268 23.063 28.094 23.1616 28.1926C23.3753 28.4063 23.1123 28.6857 22.3233 29.0967C21.3699 29.6063 20.7123 29.6227 20.3507 29.1625ZM28.274 29.2282C27.863 28.6364 28.1589 26.9762 28.8493 25.957C29.5233 24.9542 30.5425 24.494 31.1507 24.9049C31.3808 25.0529 31.4466 25.1844 31.4466 25.5789C31.4466 25.9899 31.3808 26.1214 30.937 26.5488C30.6575 26.8118 30.1315 27.157 29.7699 27.3049C29.0466 27.6008 28.8658 27.8967 29.0959 28.4063C29.2767 28.8008 29.6384 28.7679 30.3452 28.2912C30.8712 27.9296 30.9534 27.9131 31.0849 28.0775C31.2164 28.2255 31.1836 28.3077 30.8384 28.6036C29.8356 29.4419 28.6356 29.7378 28.274 29.2282ZM30.1315 26.5159C30.526 26.1871 30.674 25.8255 30.526 25.5625C30.3616 25.2666 30.1644 25.2666 29.8521 25.5953C29.589 25.8748 29.2438 26.5981 29.2438 26.894C29.2438 27.0583 29.2767 27.0583 29.5562 26.894C29.737 26.7953 30 26.6145 30.1315 26.5159ZM35.3096 29.3104C35.1123 29.1789 35.0795 29.0145 35.0959 28.2419C35.0959 27.5022 35.1616 27.2063 35.4247 26.6145C36.0329 25.2666 37.3479 24.4282 38.0877 24.9049C38.9753 25.4967 38.1205 26.8118 36.4438 27.42C36.0329 27.5679 35.8849 27.9131 36.0493 28.3734C36.2137 28.7844 36.5918 28.7515 37.3151 28.2748C37.8247 27.9296 37.9233 27.8967 38.0384 28.0611C38.1699 28.209 38.1205 28.2912 37.726 28.62C36.8219 29.409 35.8192 29.6885 35.3096 29.3104ZM37.3479 26.2529C37.611 25.9241 37.6274 25.6282 37.3973 25.431C37.0356 25.1351 36.4767 25.7926 36.2137 26.7953L36.1479 27.0748L36.6411 26.7953C36.9205 26.6638 37.2329 26.4173 37.3479 26.2529ZM38.926 29.409C38.7452 29.2282 38.8932 28.1926 39.4356 26.0063C39.7479 24.7077 40.126 23.4255 40.2575 23.146C40.5534 22.5214 41.2274 22.0282 41.9836 21.8638C42.674 21.7159 43.0192 21.8474 43.0192 22.2583C43.0192 22.6036 42.7233 22.7186 42 22.6036C41.5562 22.5378 41.4247 22.5707 41.2603 22.7515C41.0959 22.9323 40.5699 24.9214 39.7479 28.472C39.6658 28.8337 39.8795 28.8008 40.4219 28.3899C40.9315 27.9953 41.1781 27.9625 41.1781 28.2583C41.1781 28.4227 40.4712 29.0145 39.9452 29.294C39.5342 29.4912 39.0575 29.5405 38.926 29.409ZM41.5726 29.409C41.3918 29.2282 41.5397 28.1268 42.0164 26.1871C42.6247 23.7378 42.789 23.2118 43.1836 22.7022C43.9069 21.7488 45.6658 21.4529 45.6658 22.2583C45.6658 22.6036 45.3041 22.7186 44.6795 22.6036C44.0877 22.4885 43.8575 22.6036 43.6931 23.0967C43.3644 24.0666 42.3452 28.62 42.4274 28.7022C42.4767 28.7515 42.7562 28.6036 43.0521 28.3734C43.5452 27.9953 43.8082 27.9296 43.8082 28.1926C43.8082 28.357 43.0849 28.9981 42.6247 29.2446C42.1973 29.4748 41.7205 29.557 41.5726 29.409ZM44.3507 29.294C44.0877 29.031 44.0055 28.62 44.1041 27.8803C44.2521 26.5652 45.1233 25.2666 46.0767 24.9049C46.6849 24.6748 47.0959 24.757 47.3589 25.1515C47.5233 25.3981 47.5233 25.5131 47.4247 25.8912C47.2767 26.4008 46.8822 26.7296 45.8137 27.272L45.0904 27.6337L45.1233 28.1268C45.1562 28.5542 45.189 28.62 45.4521 28.6529C45.6493 28.6693 45.9616 28.5378 46.3726 28.2748C46.8493 27.9625 47.0137 27.8967 47.0795 28.0118C47.1288 28.094 47.1781 28.1926 47.1781 28.2419C47.1781 28.3734 46.011 29.2282 45.6329 29.3597C45.1562 29.5405 44.5479 29.5077 44.3507 29.294ZM46.3726 26.2529C46.6356 25.9241 46.6521 25.6282 46.4219 25.431C46.0767 25.1351 45.5014 25.7926 45.2548 26.746L45.1726 27.0748L45.6658 26.7953C45.9288 26.6638 46.2575 26.4173 46.3726 26.2529ZM48.0164 29.1953C48.1973 28.7186 48.9041 25.6282 48.8548 25.5789C48.8219 25.546 48.6411 25.6611 48.4438 25.8419C48.2137 26.0556 48.0329 26.1378 47.9014 26.0885C47.7205 26.0227 47.7534 25.957 48.0822 25.6282C48.5918 25.1022 49.5288 24.6583 49.7589 24.8556C49.8575 24.9378 49.9068 25.0529 49.8904 25.1351C49.6603 25.9077 49.6931 25.9405 50.2027 25.3488C50.9589 24.4775 51.6822 24.2638 51.6822 24.9214C51.6822 25.1679 51.5836 25.2666 51.074 25.4803C50.0219 25.9405 49.5288 26.6967 49.1507 28.3899L48.9534 29.3104L48.4603 29.3433C48.0329 29.3762 47.9507 29.3433 48.0164 29.1953ZM24.3945 18.1816C24.3945 18.0994 24.4932 18.0008 24.5918 17.9679C25.2329 17.7707 25.4137 17.6556 25.5288 17.3926C25.5945 17.2446 25.8904 16.1433 26.1863 14.9433C26.4822 13.7597 26.7452 12.7077 26.7616 12.6255C26.8603 12.346 25.0849 12.5104 24.5753 12.8392C23.8356 13.2994 23.5726 14.22 24.0329 14.6474C24.4932 15.0583 24.1808 15.6666 23.6219 15.42C23.0795 15.1734 23.0795 13.8912 23.6055 13.1022C24.2959 12.0501 25.5123 11.7049 27.6658 11.9351C29.3753 12.1159 29.5562 12.083 29.6055 11.5077C29.6384 11.146 29.6877 11.0803 29.9178 11.0803C30.5918 11.0803 30.5096 11.9679 29.8192 12.3296C29.5397 12.4611 29.1452 12.5268 28.5863 12.5268H27.7479L27.6329 12.9542C27.1726 14.6803 26.4658 17.6392 26.4658 17.7871C26.4658 17.9515 26.5644 17.9679 27.1068 17.9186C27.7644 17.8693 27.8137 17.8857 27.6329 18.1816C27.4849 18.3953 24.3945 18.4118 24.3945 18.1816ZM31.3315 18.1488C31.1671 17.8529 31.2658 17.2775 31.6932 15.8638C32.137 14.4008 32.0055 14.22 31.0685 15.0419C30.4932 15.5515 30.2959 15.9789 30 17.3762L29.8027 18.2803H29.3425C28.8986 18.2803 28.8822 18.2638 28.9644 17.9679C29.0137 17.7871 29.3096 16.5378 29.6219 15.1734C29.9342 13.809 30.263 12.5268 30.3452 12.346C30.7397 11.3926 31.6767 10.7515 32.5808 10.8008C33.0904 10.8337 33.1233 10.8501 33.1233 11.1789V11.5077H32.3342C31.7096 11.5077 31.5123 11.557 31.3973 11.7214C31.3151 11.8364 31.1014 12.5433 30.937 13.283C30.7726 14.0227 30.6082 14.6967 30.5753 14.7953C30.5425 14.8775 30.7397 14.7625 31.0027 14.5159C31.2658 14.2857 31.7096 13.9899 31.989 13.8583C33.0247 13.3981 33.2384 14.072 32.6301 15.8474C32.2356 17.0145 32.1205 17.5405 32.2521 17.6227C32.3014 17.6556 32.5315 17.5241 32.7616 17.3433C33.0904 17.0638 33.2055 17.031 33.3041 17.1625C33.4027 17.2775 33.337 17.3926 33.0575 17.6556C32.2027 18.4282 31.5781 18.609 31.3315 18.1488ZM33.863 18.1981C33.6164 17.9022 33.6822 16.4885 33.9781 15.7159C34.2575 14.9762 34.8986 14.1871 35.3918 13.9241C35.5726 13.8255 35.9507 13.7433 36.1973 13.7268C37.0521 13.694 37.3479 14.483 36.7726 15.2556C36.6575 15.42 36.1315 15.7652 35.6055 16.0446L34.6521 16.5542L34.6849 17.031C34.7178 17.4419 34.7671 17.5241 34.9973 17.5405C35.1616 17.557 35.5069 17.4255 35.8521 17.2118C36.3945 16.8666 36.7397 16.8173 36.7397 17.0803C36.7397 17.2282 35.8685 17.9351 35.3918 18.1816C34.9151 18.4446 34.0603 18.4446 33.863 18.1981ZM35.5068 15.5679C36.0986 15.1077 36.3123 14.6474 36.0493 14.3679C35.7699 14.0885 35.4082 14.3515 35.0795 15.0583C34.6192 16.0611 34.7178 16.1762 35.5068 15.5679ZM47.9836 54.2474C47.9836 54.1981 48.0329 54.0994 48.0986 54.0337C48.1808 53.9515 47.9507 53.557 47.326 52.7679C46.0438 51.1241 45.8959 50.9762 45.6493 51.1077C45.2055 51.3378 45.4356 50.9104 45.9452 50.5323C46.4877 50.1378 46.8493 50.0392 46.6027 50.3351C46.4055 50.5652 48.526 53.3597 48.8877 53.3433C49.2658 53.3268 49.1836 53.5405 48.6247 53.9515C48.0822 54.346 47.9836 54.3953 47.9836 54.2474ZM11.6219 53.8857C11.0301 53.6227 9.94521 52.6364 9.94521 52.3734C9.94521 52.1597 10.6027 51.4693 10.7014 51.5679C10.7342 51.6008 10.7014 51.7652 10.6356 51.9131C10.4712 52.2912 10.7178 52.7844 11.2603 53.2118C12.1315 53.8693 12.7726 53.8036 13.5452 52.9488C14.3507 52.0611 14.1863 50.7625 13.2 50.0885C12.7397 49.7762 12.4767 49.7433 12.1315 49.9241C11.7863 50.1049 11.7205 49.957 12.0329 49.6282C12.5096 49.1186 12.9863 49.2501 13.9726 50.1871C14.8767 51.0419 15.0082 52.2748 14.2849 53.2118C13.6603 54.0501 12.5589 54.3296 11.6219 53.8857ZM8.4 51.009C7.92329 50.5323 7.85753 50.3515 8.16986 50.4501C8.31781 50.4994 8.74521 50.1707 9.68219 49.283C10.9151 48.1159 10.9808 48.0337 10.9151 47.6885L10.8493 47.3433L11.3753 47.8529C11.9342 48.3953 12.0658 48.6912 11.6877 48.5926C11.3589 48.5104 8.87671 50.9268 8.97534 51.2392C9.07397 51.5679 8.87671 51.4857 8.4 51.009ZM50.1205 51.1405C49.9562 50.9762 49.8082 50.6309 49.7753 50.3515L49.6931 49.8583L48.7397 49.7762C47.9671 49.7104 47.7041 49.7268 47.4082 49.8912C46.8658 50.1707 46.8164 49.9899 47.326 49.5296L47.7699 49.1186L48.8877 49.2008C49.9233 49.283 50.0219 49.2666 50.2192 49.0364C50.4329 48.8063 50.4329 48.7899 50.2192 48.5433C49.7753 48.0501 49.3644 47.8364 49.1836 47.9844C49.0849 48.0666 48.9534 48.083 48.8877 48.0337C48.8055 47.9844 48.937 47.7707 49.2493 47.4419C49.7753 46.9159 50.0548 46.7844 49.9726 47.146C49.9397 47.294 50.2849 47.7214 51.189 48.5926C52.3562 49.7268 52.4877 49.8255 52.7836 49.7597C53.0795 49.6775 53.063 49.7268 52.4877 50.3679C51.6986 51.2392 51.3699 51.4529 50.8274 51.4529C50.5151 51.4529 50.3178 51.3707 50.1205 51.1405ZM51.7644 50.5981L52.011 50.3351L51.3863 49.7268C50.8438 49.1844 50.7288 49.1351 50.5315 49.2501C50.2849 49.3816 50.0548 49.7268 50.0548 49.9405C50.0548 50.0063 50.2192 50.2364 50.4164 50.4666C50.8603 50.9597 51.3863 51.009 51.7644 50.5981ZM6.44384 48.757C6.14795 48.3625 5.80274 47.9351 5.67123 47.82C5.3589 47.5405 5.3589 47.4912 5.7863 47.2446C6.16438 47.0145 6.36164 47.0638 6.14795 47.3268C6.04932 47.4419 6.08219 47.5899 6.31233 47.9186C6.47671 48.1488 6.6411 48.3296 6.69041 48.3131C6.92055 48.2145 7.74247 47.5734 7.74247 47.4912C7.74247 47.4419 7.56164 47.1953 7.31507 46.9323C6.87123 46.4392 6.87123 46.4392 7.4137 46.1268C7.64384 45.9953 7.79178 46.1104 7.64384 46.2912C7.52877 46.4392 7.92329 47.1625 8.12055 47.1625C8.28493 47.1625 9.36986 46.3241 9.36986 46.1926C9.36986 46.1268 9.23836 45.9131 9.07397 45.6994C8.87671 45.4364 8.66301 45.3049 8.41644 45.2885L8.03836 45.2556L8.46575 45.0419C8.69589 44.9268 8.90959 44.8447 8.94247 44.8775C9.8137 45.9131 10.6027 47.2446 10.126 46.8501C9.99452 46.7515 9.66575 46.9488 8.53151 47.8036C7.29863 48.7405 7.10137 48.9378 7.11781 49.2008C7.13425 49.3652 7.10137 49.4967 7.05205 49.4967C7.01918 49.4803 6.73973 49.1515 6.44384 48.757ZM53.6712 48.4447C53.3589 48.1816 53.326 47.9351 53.6219 48.0337C53.7699 48.083 53.9178 47.9844 54.1644 47.6885L54.4767 47.2611L54.1479 46.9981C53.474 46.4556 53.326 46.4227 53.063 46.7186C52.9315 46.8666 52.8 47.1131 52.7507 47.2611C52.6685 47.5734 52.6521 47.5734 52.2904 47.3268C51.9288 47.0967 51.9288 46.8501 52.2575 46.8666C52.4384 46.8666 52.5205 46.8173 52.5041 46.6693C52.4877 46.5542 52.5205 46.4885 52.5534 46.5214C52.6356 46.6036 52.9315 46.3734 52.9315 46.2419C52.9315 46.094 51.8301 45.3214 51.6329 45.3214C51.3534 45.3214 50.9589 46.0611 51.0411 46.4063C51.1233 46.7351 50.9753 46.8008 50.7452 46.5378C50.663 46.4392 50.5644 46.3899 50.5151 46.4227C50.2521 46.5871 50.6301 45.8474 51.2548 44.9762C51.9288 44.0392 51.9616 44.0063 52.011 44.3351C52.0603 44.6145 52.3397 44.8611 53.5068 45.683C54.4931 46.3899 54.9863 46.6693 55.0685 46.5871C55.2493 46.4063 55.4137 46.4392 55.3315 46.6364C55.2986 46.7351 55.0027 47.1625 54.6904 47.6063C54.3616 48.0501 54.0986 48.4611 54.0986 48.5433C54.0986 48.7241 53.9671 48.6912 53.6712 48.4447ZM4.27397 45.5515C4.27397 45.4364 4.5863 44.4008 4.96438 43.283C5.58904 41.4419 5.63836 41.2611 5.39178 41.409C5.24384 41.5077 4.68493 41.82 4.12603 42.1323C3.28767 42.5926 3.10685 42.7241 3.10685 42.9542C3.10685 43.3816 2.94247 43.283 2.66301 42.7077C2.35069 42.0666 2.33425 41.9186 2.63014 42.0994C2.81096 42.2145 3.10685 42.0994 4.53699 41.3433C5.47397 40.8501 6.27945 40.4556 6.34521 40.4556C6.5589 40.4556 6.46027 40.8337 5.76986 42.9214L5.09589 44.9762L5.58904 44.7131C5.85205 44.5652 6.4274 44.2364 6.85479 43.9899C7.54521 43.5953 7.6274 43.5131 7.57808 43.2666C7.46301 42.8227 7.74247 43.02 8.07123 43.6282C8.38356 44.1871 8.36712 44.4501 8.05479 44.1871C7.90685 44.072 7.59452 44.2036 6.2137 44.9268C5.29315 45.4036 4.48767 45.7981 4.42192 45.7981C4.33973 45.7816 4.27397 45.683 4.27397 45.5515ZM56.1205 45.1077C56.1699 44.9268 55.8904 44.746 54.3288 43.9899C53.0301 43.3488 52.5041 43.0529 52.5863 42.9707C52.6521 42.9049 53.6548 42.5268 54.8219 42.1323L56.926 41.4255L56.1205 41.0474C55.6767 40.8501 55.0685 40.5707 54.7726 40.4556C54.263 40.2584 54.2137 40.2419 54.1151 40.4392C54.0493 40.5542 53.9671 40.6036 53.9178 40.5542C53.8192 40.4556 54.3288 39.3049 54.4767 39.3049C54.526 39.3049 54.5753 39.4036 54.5753 39.5351C54.5753 39.7159 54.937 39.946 56.3671 40.62C57.3534 41.0967 58.1589 41.5405 58.1589 41.5899C58.1589 41.6556 57.1562 42.0337 55.9233 42.4447L53.6877 43.1844L55.0192 43.7926C56.2685 44.3515 56.3671 44.3844 56.5644 44.2036C56.7616 44.0227 56.7781 44.0227 56.7781 44.2036C56.7781 44.483 56.3342 45.3214 56.1863 45.3214C56.1041 45.3214 56.0877 45.2227 56.1205 45.1077ZM1.80822 40.7351C1.7589 40.6857 1.72603 40.5707 1.72603 40.4556C1.72603 40.3405 1.54521 39.6666 1.31507 38.9433C1.08493 38.22 0.871233 37.546 0.838356 37.4474C0.789041 37.3159 0.887671 37.2337 1.15068 37.1844C1.59452 37.1022 1.69315 37.1515 1.49589 37.3981C1.4137 37.5131 1.38082 37.7104 1.43014 37.957C1.57808 38.6967 1.54521 38.6967 3.3863 38.1049C4.99726 37.5953 5.07945 37.546 5.07945 37.2666C5.07945 37.0857 5.12877 37.0036 5.17808 37.0693C5.34247 37.2501 5.68767 38.4008 5.58904 38.483C5.53973 38.5323 5.47397 38.4994 5.45753 38.4173C5.42466 38.3351 5.34247 38.2693 5.26027 38.2693C5.03014 38.2693 2.03836 39.2063 1.92329 39.3049C1.77534 39.4364 2.26849 40.4556 2.48219 40.4556C2.58082 40.4556 2.66301 40.5049 2.66301 40.5707C2.66301 40.6364 2.56438 40.6857 2.43288 40.6857C2.31781 40.6857 2.13699 40.7186 2.05479 40.7515C1.9726 40.7844 1.85753 40.7844 1.80822 40.7351ZM58.3562 39.5186C57.9945 39.3871 57.9288 39.1899 58.2575 39.1899C58.4219 39.1899 58.5205 39.0419 58.6521 38.6803L58.8329 38.1707L58.2247 37.9899C57.8795 37.8912 57.5507 37.809 57.5014 37.809C57.3699 37.809 57.0904 38.8118 57.189 38.9762C57.2877 39.1405 57.0904 39.1077 56.5973 38.894C56.1699 38.7131 56.1534 38.6967 56.4329 38.631C56.7123 38.5652 57.0082 38.1542 57.0082 37.809C57.0082 37.694 56.7781 37.5625 56.2521 37.431C55.8247 37.3159 55.4795 37.2501 55.463 37.2666C55.1342 37.6611 55.0849 38.4501 55.3808 38.6145C55.7096 38.7953 55.4466 38.9104 55.0685 38.746C54.8712 38.6638 54.7233 38.5159 54.7233 38.4173C54.7233 38.1049 55.3479 36.083 55.4466 36.083C55.4959 36.083 55.5452 36.1652 55.5452 36.2474C55.5452 36.4775 55.7425 36.5597 57.3863 37.0529C58.9808 37.5131 59.2438 37.546 59.2438 37.2994C59.2438 37.1351 59.474 37.0364 59.474 37.2173C59.474 37.3981 58.8329 39.6666 58.7836 39.6666C58.7014 39.6337 58.5205 39.5844 58.3562 39.5186ZM0.493151 35.4583C0.361644 34.7844 0.410959 34.5542 0.624658 34.8501C0.756164 35.031 0.871233 35.0145 2.20274 34.7844C4.07671 34.4556 4.38904 34.357 4.38904 34.0775C4.38904 33.9625 4.43836 33.8474 4.48767 33.8474C4.56986 33.8474 4.86575 35.2446 4.8 35.3268C4.78356 35.3433 4.66849 35.294 4.53699 35.2282C4.35616 35.1131 4.07671 35.1296 3.13973 35.2775C1.24932 35.5899 0.805479 35.7049 0.805479 35.8857C0.805479 36.3131 0.591781 36.0173 0.493151 35.4583ZM57.4521 35.557C57.4521 35.3926 57.2384 35.3268 56.2685 35.1953C55.7425 35.1296 55.726 35.1131 55.6438 34.6693C55.4959 33.7981 55.8082 32.5981 56.3178 32.0556C56.7123 31.6282 57.1397 31.4638 57.8466 31.4638C58.6685 31.4638 59.1452 31.6611 59.6055 32.2036C59.9671 32.6145 59.9836 32.6638 59.9836 33.683C59.9836 34.8008 59.8027 35.6227 59.5726 35.6227C59.2603 35.6227 58.7014 35.4748 58.7014 35.3926C58.7014 35.3433 58.8164 35.2775 58.9479 35.2611C59.326 35.2118 59.6219 34.7022 59.7041 33.9953C59.8027 32.9762 59.3753 32.3844 58.389 32.1542C57.3041 31.9077 56.2192 32.6967 55.989 33.9131C55.8904 34.4227 56.0219 34.5378 56.8767 34.6529C57.4849 34.7186 57.5342 34.7186 57.6164 34.472L57.6986 34.209L57.7479 34.4885C57.8137 34.8666 57.6822 35.7707 57.5342 35.7707C57.5014 35.7214 57.4521 35.6556 57.4521 35.557ZM4.1589 33.2556C4.01096 32.9597 3.76438 32.8447 1.98904 32.2364C0.90411 31.8419 0 31.4638 0 31.3981C0 31.3159 0.558904 31.0036 1.24932 30.7077C3.66575 29.6227 3.92877 29.4748 4.01096 29.1953C4.14247 28.6857 4.29041 28.9159 4.29041 29.6227C4.29041 30.0666 4.2411 30.2967 4.17534 30.2474C4.10959 30.2145 3.78082 30.3131 3.41918 30.4611L2.77808 30.757V31.3981V32.0392L3.36986 32.2364C3.94521 32.4337 3.97808 32.4337 4.12603 32.22C4.35616 31.9077 4.40548 32.0556 4.3726 32.8775C4.33973 33.5844 4.33973 33.5844 4.1589 33.2556ZM2.4 31.1679L2.36712 30.8885L1.72603 31.1844L1.08493 31.4803L1.72603 31.6775C2.43288 31.8912 2.49863 31.8419 2.4 31.1679ZM57.9781 28.8666C57.863 28.7022 57.6 28.5049 57.3863 28.4227C56.6137 28.1433 56.9753 27.9789 58.3069 27.9789C58.8329 27.9789 59.2932 28.0118 59.3425 28.0611C59.3918 28.1104 59.1945 28.2419 58.9315 28.3734C58.6521 28.5049 58.3726 28.7351 58.3069 28.883L58.1753 29.1625L57.9781 28.8666ZM2.25205 26.631C1.93973 26.5323 1.54521 26.4173 1.39726 26.3844C0.936986 26.2529 0.969863 26.0227 1.44658 26.0227C1.74247 26.0227 1.95616 25.9405 2.15342 25.7268C2.49863 25.3816 2.54795 25.3652 2.54795 25.6775C2.54795 25.809 2.72877 26.1049 2.9589 26.3186C3.18904 26.5488 3.36986 26.746 3.36986 26.7625C3.35342 26.8775 2.81096 26.7953 2.25205 26.631ZM55.6931 26.1214C55.6603 26.0227 55.5781 25.6775 55.5123 25.3323C55.3973 24.7241 55.4959 24.4446 55.6931 24.8063C55.7918 24.9871 55.9233 24.9707 57.5178 24.6912C59.3753 24.346 59.4247 24.346 59.4247 24.0994C59.4247 23.7871 59.6384 23.9351 59.7041 24.2803C59.737 24.4775 59.8027 24.7899 59.8356 24.9707C59.9014 25.3488 59.8192 25.4145 59.6055 25.1515C59.4904 25.0036 59.2438 25.0364 57.7479 25.3159C56.7945 25.4967 55.989 25.694 55.9397 25.7433C55.8904 25.7926 55.8247 25.9405 55.8082 26.072C55.7753 26.2529 55.7425 26.2693 55.6931 26.1214ZM4.96438 23.3926C4.96438 23.1131 4.66849 22.9816 2.59726 22.3241C1.51233 21.9789 1.43014 21.9625 1.29863 22.1597C1.00274 22.5542 1.01918 22.1926 1.33151 21.2556C1.79178 19.8583 2.38356 19.3816 3.15616 19.7926C3.63288 20.0392 3.8137 20.3844 3.8137 21.0748C3.8137 21.4364 3.76438 21.7652 3.69863 21.7981C3.63288 21.8474 3.58356 21.683 3.58356 21.42C3.58356 20.7789 3.22192 20.3515 2.69589 20.3515C1.9726 20.3515 1.38082 21.272 1.98904 21.4529C2.13699 21.5022 2.89315 21.7323 3.68219 21.9789C5.09589 22.4392 5.32603 22.4556 5.32603 22.1268C5.32603 22.0282 5.37534 21.9625 5.4411 21.9625C5.60548 21.9625 5.58904 22.1762 5.37534 22.8337C5.14521 23.5077 4.96438 23.7378 4.96438 23.3926ZM55.1507 23.3762C55.1507 23.2611 55.5945 22.2912 56.137 21.2227C56.6795 20.1542 57.0575 19.2994 56.9753 19.3323C56.8932 19.3652 56.3014 19.5789 55.6438 19.8255C54.6082 20.2036 54.4603 20.3022 54.4603 20.5323C54.4603 20.9762 54.263 20.8446 54.0658 20.2693C53.8192 19.5625 53.8192 19.283 54.0493 19.5789C54.2137 19.7926 54.2795 19.7762 56.137 19.1351C57.189 18.7734 58.0932 18.5104 58.1425 18.5433C58.1918 18.5926 57.7315 19.546 57.1562 20.6967C56.5644 21.8309 56.1041 22.7679 56.137 22.7679C56.2356 22.7679 58.4384 21.946 58.6521 21.831C58.8 21.7488 58.8493 21.6337 58.8 21.4857C58.7671 21.3542 58.7836 21.2556 58.8493 21.2556C58.9808 21.2556 59.1781 21.683 59.2767 22.2255C59.3425 22.5214 59.326 22.5378 59.1288 22.4227C58.9479 22.3077 58.5863 22.4063 57.074 22.9323C56.0712 23.294 55.2164 23.5734 55.2 23.5734C55.1671 23.5899 55.1507 23.4912 55.1507 23.3762ZM6.09863 19.8912C6.06575 19.7433 5.53973 19.4145 4.52055 18.9049C2.9589 18.1159 2.71233 18.0501 2.63014 18.2967C2.59726 18.3789 2.53151 18.3953 2.48219 18.346C2.43288 18.2967 2.6137 17.82 2.87671 17.2775C3.36986 16.3077 3.73151 15.9625 4.2411 15.9625C4.61918 15.9625 5.17808 16.4063 5.32603 16.8173C5.40822 17.0474 5.50685 17.2282 5.53973 17.2282C5.5726 17.2282 6.01644 17.1296 6.52603 16.9981C7.15068 16.8337 7.54521 16.6693 7.77534 16.4556C8.05479 16.1926 8.10411 16.1762 8.10411 16.357C8.10411 16.472 7.98904 16.7351 7.85753 16.9488C7.61096 17.3597 7.06849 17.5899 5.98356 17.7542C5.58904 17.82 5.4411 17.9022 5.34247 18.1159C5.27671 18.2638 5.21096 18.4282 5.21096 18.4446C5.21096 18.4775 5.47397 18.6255 5.80274 18.7899C6.36164 19.0693 6.41096 19.0857 6.60822 18.8885C6.80548 18.7077 6.82192 18.7077 6.82192 18.872C6.82192 19.1022 6.34521 20.1049 6.23014 20.1049C6.19726 20.1214 6.13151 20.0227 6.09863 19.8912ZM5.03014 17.9022C5.27671 17.4419 5.11233 17.0638 4.56986 16.8008C4.04384 16.5542 3.63288 16.6693 3.33699 17.1296L3.10685 17.5077L3.83014 17.8857C4.22466 18.083 4.61918 18.2638 4.68493 18.2638C4.78356 18.2638 4.93151 18.0994 5.03014 17.9022ZM53.3589 18.6912C53.1945 18.4118 53.063 18.1652 53.063 18.1323C53.063 18.0994 53.2767 17.8529 53.5233 17.5734C53.7699 17.294 53.9836 16.9981 53.9836 16.8994C53.9836 16.8008 53.8521 16.5049 53.7041 16.2419C53.4247 15.7488 53.4247 15.7488 52.9315 15.8474C52.6521 15.8967 52.389 15.946 52.3397 15.946C52.2904 15.946 52.2082 16.0611 52.1589 16.1926C52.0767 16.4227 52.0438 16.3899 51.7644 15.9131C51.3863 15.272 51.3534 15.009 51.6822 15.3049C51.9123 15.5022 51.9781 15.5022 53.9014 15.2063C56.2027 14.8446 56.3507 14.8446 56.2685 15.0583C56.2356 15.1405 55.6603 15.9296 54.9863 16.8008C54.3123 17.672 53.7534 18.4446 53.7534 18.5268C53.7534 18.5926 53.7534 18.7734 53.7699 18.9214C53.7863 19.3159 53.6877 19.2501 53.3589 18.6912ZM55.1178 15.6008C55.2493 15.4364 55.2 15.42 54.5918 15.5515C53.8849 15.6994 53.8356 15.7816 54.1644 16.2748L54.3288 16.5378L54.6411 16.1597C54.8384 15.946 55.0356 15.6994 55.1178 15.6008ZM6.75616 15.5186C5.19452 14.7789 4.98082 12.872 6.32877 11.6556C7.38082 10.7186 8.67945 10.8337 9.55068 11.9679C10.0274 12.5926 10.0767 13.694 9.68219 14.4501C9.10685 15.5351 7.80822 16.0118 6.75616 15.5186ZM8.86027 14.7625C9.68219 14.2036 9.79726 13.2173 9.10685 12.5104C8.08767 11.4419 6.75616 11.3926 6.14795 12.3953C5.72055 13.0857 5.76986 13.6282 6.29589 14.2036C7.06849 15.0583 8.10411 15.2885 8.86027 14.7625ZM50.926 14.6145C50.6959 14.3679 50.5151 14.1214 50.5315 14.0556C50.5315 13.9899 50.9425 13.4967 51.4521 12.9542C51.9616 12.4118 52.3562 11.9679 52.3397 11.9515C52.3233 11.9351 51.7151 12.0994 50.9918 12.3296C49.2986 12.8392 49.2164 12.8392 49.2986 12.3789C49.3315 12.1816 49.5781 11.5077 49.8247 10.883C50.0712 10.2583 50.2192 9.7652 50.137 9.81451C50.0548 9.86383 49.6274 10.1926 49.1671 10.5378C48.4767 11.0638 48.3452 11.2118 48.3945 11.4419C48.4767 11.8036 48.3288 11.7707 47.9014 11.3268C47.474 10.883 47.4082 10.62 47.7699 10.7186C47.9342 10.7679 48.1644 10.6693 48.5753 10.357C49.6767 9.50218 51.2548 8.45013 51.3205 8.51588C51.4027 8.59807 51.2055 9.20629 50.5479 10.883C50.2849 11.5405 50.0877 12.0994 50.1205 12.1323C50.137 12.1488 50.9589 11.9351 51.9288 11.6556C52.8986 11.3762 53.737 11.1625 53.8027 11.1953C53.8521 11.2282 53.3096 11.9351 52.5699 12.7734C51.8466 13.6118 51.2384 14.3351 51.2384 14.4008C51.2384 14.4666 51.2877 14.6145 51.3699 14.746C51.5671 15.1241 51.337 15.0748 50.926 14.6145ZM11.4082 9.02547C10.9808 8.58164 10.7507 8.25287 10.7507 8.07205C10.7507 7.9241 10.7836 7.85835 10.8329 7.9241C11.063 8.26931 11.8521 8.43369 12.0822 8.20355C12.1644 8.12136 12.1973 8.26931 12.1973 8.6967C12.1973 9.02547 12.2301 9.40355 12.2795 9.50218C12.5096 9.92958 12.0658 9.69944 11.4082 9.02547ZM45.7151 9.60081C45.3534 9.45287 44.7452 8.81177 44.663 8.483C44.4986 7.84191 44.6959 7.29944 45.5342 6.14876C46.0438 5.44191 46.3068 4.98164 46.2411 4.91588C46.0931 4.76794 46.1096 4.61999 46.2411 4.61999C46.4055 4.61999 47.3753 5.34328 47.3918 5.47479C47.3918 5.5241 47.2931 5.54054 47.1616 5.50766C46.9808 5.45835 46.8164 5.58985 46.4219 6.09944C45.6329 7.11862 45.189 7.90766 45.189 8.26931C45.189 8.82821 45.7644 9.35424 46.3726 9.35424C46.7178 9.35424 47.2767 8.84465 47.9178 7.97342C48.6575 6.95424 48.789 6.7241 48.6575 6.64191C48.5918 6.59259 48.5425 6.49396 48.5425 6.39533C48.5425 6.28027 48.7397 6.36246 49.1178 6.65835C49.7096 7.10218 49.8575 7.34876 49.4795 7.21725C49.2986 7.16794 49.1014 7.34876 48.4438 8.21999C48 8.81177 47.474 9.38711 47.2932 9.50218C46.9479 9.71588 46.126 9.7652 45.7151 9.60081ZM15.4356 8.53232C15.5178 8.15424 13.7918 5.39259 13.4466 5.34328C13.2986 5.32684 13.1836 5.27753 13.1836 5.22821C13.1836 5.1789 13.5288 4.94876 13.9562 4.70218C15.2548 3.94602 16.011 4.1104 16.011 5.16246V5.67205H16.4384C16.7178 5.67205 16.9808 5.77068 17.1945 5.9515C17.474 6.18163 17.5233 6.31314 17.5233 6.80629C17.5233 7.4967 17.326 7.75972 16.2904 8.36794C15.4521 8.86109 15.3534 8.87753 15.4356 8.53232ZM16.537 7.80903C17.063 7.54602 17.1781 7.23369 16.9151 6.78985C16.537 6.13232 15.8959 5.96794 15.3699 6.3789C15.189 6.5104 15.2219 6.59259 15.6329 7.25013C15.8795 7.64465 16.126 7.97342 16.1425 7.97342C16.1753 7.97342 16.3562 7.89122 16.537 7.80903ZM15.3534 5.9515C15.5014 5.85287 15.6164 5.65561 15.6164 5.49122C15.6164 5.21177 15.1397 4.61999 14.9096 4.61999C14.811 4.61999 14.3671 4.81725 14.2521 4.91588C14.2027 4.9652 14.9425 6.13232 15.0247 6.13232C15.0575 6.13232 15.2055 6.05013 15.3534 5.9515ZM42.3945 7.3652C41.8521 7.13506 41.6877 6.9378 42.0164 6.9378C42.1151 6.9378 42.3616 6.59259 42.5918 6.13232C43.0521 5.21177 43.0521 5.24465 42.8548 5.16246C42.7726 5.12958 42.3123 4.91588 41.8192 4.68574L40.9151 4.27479L40.5699 5.04739C40.1589 5.93506 40.1589 6.00081 40.4219 6.19807C40.8 6.49396 40.2575 6.3789 39.6164 6.05013C39.1233 5.78711 39.0575 5.72136 39.2712 5.68848C39.5342 5.65561 39.6493 5.44191 40.6849 3.20629C41.0795 2.33506 41.1123 2.23643 40.8986 2.15424C40.8164 2.12136 40.8 2.05561 40.8329 2.00629C40.9151 1.9241 41.7534 2.21999 42.0658 2.46657C42.1973 2.5652 42.1644 2.59807 41.9507 2.64739C41.7699 2.6967 41.589 2.89396 41.4247 3.22273C41.2932 3.50218 41.1616 3.78164 41.1616 3.83095C41.1616 3.91314 42.9863 4.83369 43.1507 4.83369C43.1836 4.83369 43.3315 4.57068 43.4795 4.24191C43.7096 3.74876 43.726 3.61725 43.611 3.41999C43.3808 3.05835 43.5123 3.05835 44.2192 3.40355C44.926 3.74876 45.0082 3.86383 44.6137 3.92958C44.4164 3.96246 44.2192 4.29122 43.611 5.57342C42.9534 7.00355 42.8877 7.20081 43.0521 7.31588C43.1507 7.39807 43.2329 7.48027 43.2329 7.52958C43.2329 7.67753 42.9699 7.62821 42.3945 7.3652ZM18.9041 6.19807C18.4274 5.98438 17.8521 5.3104 17.6877 4.7515C17.3918 3.7652 17.9014 2.5652 18.8055 2.1378C19.2986 1.90766 20.2849 1.77616 20.7452 1.89122C21.2055 2.00629 21.8137 2.61451 22.0274 3.17342C22.2904 3.86383 22.2082 4.70218 21.7973 5.3104C21.2384 6.18163 19.8247 6.60903 18.9041 6.19807ZM20.8932 5.67205C21.6986 5.1789 21.8301 4.20903 21.2219 3.17342C20.811 2.46657 20.0712 2.10492 19.4301 2.30218C18.3945 2.61451 18 3.37068 18.3288 4.35698C18.5096 4.89944 18.9863 5.49122 19.4959 5.75424C19.8411 5.96794 20.4822 5.91862 20.8932 5.67205ZM23.3589 5.01451C23.3589 4.98164 23.4411 4.88301 23.5562 4.80081C23.737 4.66931 23.737 4.5378 23.4411 2.82821C23.0959 0.773416 23.0795 0.707663 23.2438 0.707663C23.3096 0.707663 24.1808 1.29944 25.1671 2.03917C26.1699 2.76246 26.9918 3.35424 27.0082 3.3378C27.0247 3.32136 26.9589 2.97616 26.8767 2.5652C26.7945 2.15424 26.663 1.51314 26.5808 1.1515C26.4658 0.543279 26.4164 0.493964 26.137 0.493964C25.611 0.493964 26.0055 0.280265 26.6959 0.198074C27.2877 0.13232 27.3205 0.13232 27.1397 0.313142C26.9753 0.493964 26.9753 0.658348 27.2877 2.43369C27.4685 3.48574 27.5836 4.37342 27.5507 4.42273C27.4521 4.5378 26.811 4.12684 25.2658 2.97616C24.4438 2.36794 23.7699 1.89122 23.737 1.90766C23.7041 1.94054 24.0164 3.61725 24.1973 4.40629C24.2466 4.58711 24.3452 4.66931 24.5425 4.66931C25.0685 4.66931 24.8384 4.86657 24.1808 4.99807C23.4411 5.11314 23.3589 5.11314 23.3589 5.01451ZM29.8849 4.17616C28.6521 3.60081 28.2411 2.20355 28.9644 0.970676C29.3589 0.296704 29.9671 -0.015625 30.9205 -0.015625C32.4164 -0.015625 33.2219 0.724101 33.2055 2.07205C33.189 3.40355 32.4 4.24191 31.0685 4.34054C30.526 4.38985 30.2301 4.35698 29.8849 4.17616ZM31.7753 3.81451C32.2521 3.53506 32.4986 2.97616 32.4986 2.18711C32.4986 1.03643 31.874 0.296704 30.8877 0.296704C30.0164 0.296704 29.5397 0.724101 29.3753 1.64465C29.063 3.27205 30.526 4.57068 31.7753 3.81451ZM36.1808 3.94602C36.1808 3.83095 36.263 3.45287 36.3616 3.10766C36.4603 2.76246 36.5918 2.36794 36.6247 2.20355C36.7562 1.74328 36.937 1.80903 37.0192 2.33506C37.0521 2.63095 37.1836 2.9104 37.3315 3.02547C37.6274 3.27205 37.6274 3.35424 37.3315 3.35424C37.2 3.35424 36.9041 3.53506 36.6904 3.7652C36.2137 4.22547 36.1808 4.24191 36.1808 3.94602Z" fill="#D4D4D8"/>
</g>
<defs>
<clipPath id="clip0_1665_5179">
<rect width="60" height="61.3808" fill="white"/>
</clipPath>
</defs>
</svg>
