<svg width="100" height="39" viewBox="0 0 100 39" fill="none" xmlns="http://www.w3.org/2000/svg">
<path d="M72.4911 38.3384C72.2068 38.3384 71.9226 38.3602 71.6383 38.3384C71.5508 38.3384 71.4633 38.3165 71.3759 38.2946C70.8292 38.1634 70.3918 37.7917 70.1513 37.2669C70.0201 36.9826 69.9545 36.6764 69.9326 36.3703C69.9326 36.261 69.9326 36.1298 69.9326 36.0204C69.9764 35.0145 70.7198 34.1617 71.7257 34.0305C71.9882 33.9867 72.2724 33.9867 72.5348 34.0523C72.7754 34.0961 72.9941 34.2054 73.2346 34.2273C73.3002 34.2273 73.3439 34.2054 73.4095 34.1617C73.4533 34.118 73.497 34.0742 73.5189 34.0086H73.6501C73.6501 34.0305 73.6501 34.0523 73.6501 34.0523C73.672 34.4241 73.672 34.7958 73.6938 35.1676V35.1895C73.6938 35.2769 73.6938 35.3425 73.6938 35.43H73.5408C73.4752 35.102 73.3002 34.7958 73.0597 34.5553C72.8191 34.3585 72.513 34.2492 72.185 34.2492C71.8788 34.2492 71.5508 34.3585 71.3103 34.5553C71.026 34.774 70.851 35.0801 70.7636 35.43C70.6542 35.8892 70.6542 36.3703 70.7417 36.8295C70.8073 37.2231 71.0479 37.5949 71.3759 37.8354C71.682 38.0322 72.0319 38.1197 72.3818 38.0978C72.7317 38.076 73.0815 37.9448 73.3658 37.7261C73.4751 37.6386 73.5845 37.5511 73.672 37.4637L73.7813 37.573C73.6282 37.7698 73.4314 37.9448 73.2127 38.076C72.9941 38.1853 72.7535 38.2946 72.4911 38.3384Z" fill="#D4D4D8"/>
<path d="M87.4917 38.1935H86.0703V38.106L86.2671 38.0841C86.3327 38.0841 86.4201 38.0623 86.3983 37.9748C86.3545 37.8654 86.3108 37.778 86.2233 37.6905C85.9391 37.3406 85.611 37.0126 85.283 36.7065L85.1518 36.8158C85.13 37.1657 85.13 37.5374 85.1737 37.8873C85.1737 37.9529 85.2174 37.9967 85.2612 38.0404C85.3049 38.0623 85.3268 38.0841 85.3705 38.0841C85.4361 38.106 85.5236 38.106 85.5892 38.106V38.1935H84.2553V38.106C84.3427 38.106 84.4083 38.0841 84.4958 38.0623C84.627 38.0185 84.6926 37.8873 84.6707 37.7342V35.4819C84.6707 35.3944 84.6489 35.2851 84.5614 35.2195C84.4521 35.1757 84.3427 35.132 84.2334 35.1539V35.0664H85.5673V35.1757C85.458 35.1757 85.3486 35.1976 85.2612 35.2413C85.1518 35.2851 85.13 35.4382 85.13 35.5475V36.5753C85.4361 36.3129 85.7204 36.0286 86.0265 35.7662C86.1359 35.6787 86.2233 35.5694 86.3108 35.46C86.3545 35.3944 86.3545 35.3069 86.3108 35.2632C86.2671 35.2195 86.0921 35.1976 86.0047 35.1976V35.1101H87.2511V35.1976C87.0543 35.1976 86.8575 35.2632 86.7263 35.3944C86.3545 35.7006 85.9828 36.116 85.6329 36.4659L85.6767 36.5097C86.0921 36.947 86.5076 37.3844 86.9012 37.8436C86.9668 37.931 87.0543 37.9966 87.1418 38.0623C87.1855 38.0841 87.2074 38.106 87.2511 38.1279C87.3167 38.1497 87.4042 38.1716 87.4698 38.1716L87.4917 38.1935Z" fill="#D4D4D8"/>
<path d="M82.7027 38.2403C82.5058 38.2403 82.309 38.2403 82.0904 38.2403C82.0029 38.2184 81.9154 38.1966 81.828 38.1747C81.4343 38.0216 81.1063 37.7155 80.9533 37.3219C80.8439 37.0157 80.8002 36.6658 80.8658 36.3378C80.9095 36.0317 81.0407 35.7474 81.2375 35.5069C81.3906 35.3538 81.5437 35.2226 81.7405 35.1351C81.9373 35.0476 82.1341 35.0039 82.3309 35.0039C82.5277 35.0039 82.7245 35.0258 82.9213 35.0914C83.1181 35.157 83.2931 35.2663 83.4461 35.3975C83.7523 35.7037 83.9272 36.1191 83.9272 36.5565C83.9272 36.797 83.9054 37.0157 83.8398 37.2344C83.7523 37.5187 83.5555 37.7811 83.3149 37.9779C83.1181 38.1091 82.9213 38.1966 82.7027 38.2403ZM82.3528 38.0872C82.4184 38.0872 82.4621 38.0872 82.5277 38.0872C82.8995 38.0216 83.2056 37.7373 83.2931 37.3656C83.4462 36.8845 83.4243 36.3597 83.2712 35.8786C83.2056 35.6818 83.0744 35.485 82.9213 35.3538C82.7464 35.2226 82.5496 35.157 82.3309 35.1788C82.1778 35.1788 82.0248 35.2445 81.9154 35.3101C81.6311 35.5287 81.4562 35.8349 81.4125 36.1848C81.3906 36.2941 81.3906 36.4034 81.3906 36.5346C81.3906 36.644 81.3906 36.7533 81.3906 36.8845C81.3906 36.9938 81.4125 37.1032 81.4343 37.1907C81.4562 37.2781 81.4781 37.3437 81.4999 37.4312C81.6093 37.7811 81.9592 38.0654 82.3528 38.0872Z" fill="#D4D4D8"/>
<path d="M79.1819 38.2397C78.9851 38.2397 78.7883 38.2397 78.5696 38.2397C78.4821 38.2178 78.3947 38.196 78.3072 38.1741C78.1104 38.1085 77.9355 37.9991 77.7824 37.8461C77.4325 37.4743 77.2576 36.9495 77.3232 36.4247C77.345 36.3154 77.3669 36.1841 77.3888 36.0748C77.4981 35.6593 77.8042 35.3094 78.1979 35.1345C78.3947 35.047 78.5915 35.0033 78.8102 35.0033C79.1382 34.9814 79.4443 35.0689 79.7286 35.2438C79.9691 35.3969 80.1441 35.6156 80.2534 35.8561C80.2971 35.9655 80.3409 36.0748 80.3627 36.1841C80.3846 36.3154 80.4065 36.4466 80.4065 36.5778C80.4065 36.6871 80.4065 36.7964 80.3846 36.9276C80.3627 37.1463 80.2971 37.3431 80.1878 37.5399C80.1222 37.6493 80.0566 37.7367 79.991 37.8023C79.8379 37.9554 79.6411 38.0866 79.4443 38.1741C79.3787 38.196 79.2912 38.2178 79.2038 38.2397H79.1819ZM78.832 38.0866C78.8976 38.0866 78.9414 38.0866 79.007 38.0866C79.16 38.0648 79.2912 37.9991 79.4006 37.9117C79.4662 37.8679 79.5099 37.8023 79.5755 37.7586C79.7286 37.5618 79.8161 37.3213 79.8598 37.0807C79.9254 36.6871 79.9035 36.2716 79.7723 35.878C79.6849 35.6156 79.5099 35.375 79.2475 35.2657C78.9632 35.1345 78.6352 35.1564 78.3728 35.3313C78.176 35.4625 78.0448 35.6593 77.9792 35.878C77.8917 36.1841 77.848 36.5122 77.8698 36.8402C77.8917 37.037 77.9136 37.2557 78.0011 37.4525C78.0885 37.6711 78.2197 37.8679 78.4165 37.9773C78.5477 38.0429 78.6789 38.0866 78.832 38.0866Z" fill="#D4D4D8"/>
<path d="M95.2332 38.2403C95.0364 38.2403 94.8396 38.2622 94.6209 38.2403C94.5334 38.2184 94.4241 38.1966 94.3366 38.1528C94.0523 38.0435 93.8118 37.8467 93.6587 37.6061C93.4838 37.3437 93.3963 37.0595 93.3963 36.7533C93.3744 36.5128 93.4182 36.2722 93.4838 36.0535C93.5275 35.9442 93.5713 35.8349 93.615 35.7474C93.7681 35.4631 94.0086 35.2663 94.3148 35.1351C94.4897 35.0476 94.6865 35.0258 94.8833 35.0039C94.9926 35.0039 95.102 35.0039 95.2113 35.0258C95.4956 35.0695 95.7799 35.2007 95.9985 35.3975C96.086 35.4631 96.1516 35.5506 96.2172 35.6381C96.3922 35.9005 96.5015 36.2285 96.5015 36.5346C96.5015 36.644 96.5015 36.7533 96.5015 36.8408C96.4796 37.0813 96.414 37.3 96.3047 37.4968C96.261 37.5843 96.1954 37.6717 96.1298 37.7373C96.0641 37.8029 95.9985 37.8686 95.9111 37.9342C95.7361 38.0654 95.5175 38.1528 95.2988 38.1966L95.2332 38.2403ZM94.8177 38.0872C94.9708 38.1091 95.102 38.0872 95.2332 38.0435C95.5393 37.9123 95.758 37.6499 95.8455 37.3437C95.8892 37.1688 95.9329 36.972 95.9329 36.797C95.9329 36.6877 95.9329 36.5565 95.9329 36.4472C95.9329 36.3597 95.9111 36.2722 95.8892 36.1629C95.8455 35.9223 95.7361 35.6818 95.5831 35.485C95.4519 35.3319 95.2551 35.2226 95.0364 35.1788C94.9052 35.157 94.774 35.1788 94.6428 35.2226C94.5772 35.2444 94.5116 35.2882 94.446 35.3319C94.3804 35.3757 94.3366 35.4194 94.271 35.485C94.0523 35.7693 93.9211 36.1191 93.9211 36.469C93.9211 36.6002 93.9211 36.7096 93.9211 36.8408C93.943 37.0157 93.9649 37.1907 94.0086 37.3656C94.1179 37.7373 94.4241 38.0216 94.8177 38.0872Z" fill="#D4D4D8"/>
<path d="M89.197 38.2371C89.0221 38.2371 88.8471 38.2371 88.6722 38.2371C88.5191 38.2152 88.366 38.1277 88.213 38.1059C88.1692 38.1059 88.1255 38.1059 88.1036 38.1496C88.0817 38.1715 88.0599 38.2152 88.0599 38.259H87.9505C87.9068 37.9309 87.8631 37.6248 87.8193 37.2968V37.2749H87.9287C87.9943 37.4936 88.1255 37.6904 88.2786 37.8653C88.4535 38.0184 88.6722 38.1059 88.9127 38.1059C88.9783 38.1059 89.0221 38.084 89.0877 38.084C89.197 38.0621 89.2845 37.9965 89.3719 37.8872C89.4813 37.7341 89.5031 37.5592 89.4594 37.4061C89.4157 37.2312 89.197 37.0562 89.0439 36.9688C88.8034 36.8157 88.541 36.6845 88.3223 36.5096C88.1255 36.3784 87.9943 36.1597 87.9724 35.9191C87.9505 35.6349 88.0599 35.3724 88.3004 35.1975C88.4972 35.0663 88.7159 35.0226 88.9346 35.0444C89.1095 35.0663 89.2626 35.1319 89.4375 35.1975C89.5031 35.2194 89.5687 35.1975 89.6125 35.1538C89.6343 35.1319 89.6562 35.0882 89.6562 35.0444H89.7655C89.7874 35.3506 89.8311 35.6567 89.8749 35.9629C89.8749 35.9847 89.8749 36.0066 89.8749 36.0503H89.6999C89.6562 35.8535 89.5687 35.6567 89.4157 35.5037C89.2845 35.3506 89.1095 35.2631 88.9127 35.2412C88.7378 35.1975 88.541 35.285 88.4316 35.4162C88.366 35.5037 88.3442 35.6349 88.366 35.7442C88.4316 35.9629 88.5847 36.1378 88.7815 36.2253C88.9564 36.3346 89.1314 36.4221 89.3063 36.5314C89.5687 36.6626 89.7874 36.9032 89.8967 37.1656C89.9624 37.3405 89.9624 37.5155 89.8967 37.6685C89.8093 37.9091 89.6343 38.1059 89.3938 38.1934C89.3282 38.2152 89.2845 38.2371 89.197 38.2371Z" fill="#D4D4D8"/>
<path d="M76.4705 38.1935L75.3771 36.7721C75.3771 36.7502 75.3553 36.7502 75.3553 36.7283H75.1366H75.0929V37.7561C75.0929 37.8436 75.1147 37.931 75.1585 37.9966C75.2678 38.0623 75.3771 38.106 75.5083 38.0841V38.1716H74.1963V38.0841C74.2619 38.0841 74.3494 38.0623 74.415 38.0404C74.568 37.9967 74.5899 37.8654 74.5899 37.7124C74.5899 36.9689 74.5899 36.2254 74.5899 35.4819C74.5899 35.3944 74.568 35.2851 74.5024 35.2195C74.4587 35.1976 74.4368 35.1757 74.3931 35.1757C74.3275 35.1539 74.2838 35.1539 74.2182 35.1539H74.1963V35.0664C74.6336 35.0664 75.0929 35.0664 75.5302 35.0664C75.6395 35.0664 75.727 35.0664 75.8364 35.0883C76.0988 35.1101 76.3393 35.2195 76.5142 35.3944C76.6673 35.5694 76.7329 35.8099 76.6892 36.0286C76.6673 36.1598 76.6017 36.291 76.5142 36.4003C76.3393 36.5534 76.0988 36.6627 75.8582 36.6846C76.1862 37.1001 76.5142 37.5156 76.8641 37.9092C76.9079 37.9748 76.9735 38.0185 77.0391 38.0404C77.1047 38.0623 77.1921 38.0841 77.2577 38.106V38.1935H76.4705ZM75.0929 36.5753C75.3115 36.5753 75.5083 36.5534 75.727 36.5097C75.902 36.4659 76.055 36.3566 76.1425 36.1816C76.23 35.9848 76.23 35.7662 76.1425 35.5694C76.0769 35.4382 75.9457 35.3507 75.8145 35.307C75.727 35.2851 75.6395 35.2632 75.5521 35.2632C75.4209 35.2413 75.2897 35.2632 75.1585 35.2851C75.1147 35.3069 75.0929 35.3288 75.0929 35.3725V36.5753C75.0929 36.5534 75.071 36.5753 75.0929 36.5753Z" fill="#D4D4D8"/>
<path d="M99.4746 38.2388C99.4528 38.2169 99.4309 38.2169 99.4309 38.195C98.753 37.3422 98.0751 36.5112 97.3972 35.6584C97.3972 36.2926 97.3972 36.9267 97.3972 37.5609C97.3972 37.6921 97.4191 37.8233 97.4628 37.9545C97.5503 38.0857 97.7034 38.1513 97.8564 38.1294V38.2169H96.7412V38.1294C96.8287 38.1294 96.9161 38.1076 96.9817 38.0857C97.1786 38.0201 97.2004 37.7577 97.2004 37.5827C97.2004 36.8611 97.2004 36.1613 97.2004 35.4397C97.113 35.2648 96.938 35.1773 96.7412 35.1773V35.0898H97.5503L99.3653 37.3641C99.3653 36.7955 99.3653 36.2488 99.3653 35.6803C99.3653 35.6147 99.3653 35.5491 99.3434 35.4835C99.2997 35.2429 99.1248 35.1773 98.9061 35.1992V35.1117H99.9995V35.221C99.8683 35.221 99.7589 35.2648 99.6714 35.3523C99.6496 35.3741 99.6496 35.396 99.6277 35.4397C99.584 35.5272 99.584 35.6365 99.584 35.7459C99.584 36.5987 99.584 37.4515 99.584 38.3044C99.5184 38.2388 99.4965 38.2388 99.4746 38.2388Z" fill="#D4D4D8"/>
<path d="M92.3677 38.1935H91.0119V38.106C91.0993 38.106 91.165 38.0841 91.2306 38.0841C91.2962 38.0841 91.3618 38.0185 91.4055 37.9748C91.4274 37.931 91.4274 37.9092 91.4274 37.8654C91.4274 37.8436 91.4274 37.7998 91.4274 37.778V35.2851C91.2524 35.2851 91.0994 35.2851 90.9463 35.2851C90.8151 35.2851 90.7057 35.3288 90.6183 35.4163C90.5964 35.4382 90.5745 35.4819 90.5527 35.5038C90.4871 35.6131 90.4652 35.7443 90.4433 35.8755H90.334L90.3559 35.0664H93.0237C93.0456 35.3069 93.0456 35.5694 93.0456 35.8318V35.8755H92.9362C92.9143 35.7443 92.8925 35.635 92.8269 35.5256C92.7613 35.4163 92.6738 35.3288 92.5645 35.307C92.5207 35.2851 92.477 35.2851 92.4333 35.2851C92.2802 35.2851 92.1053 35.2851 91.9522 35.2851V37.778C91.9522 37.8217 91.9522 37.8436 91.9522 37.8873C91.9522 37.9966 92.0397 38.0841 92.149 38.106C92.2365 38.1279 92.3021 38.1279 92.3895 38.1279L92.3677 38.1935Z" fill="#D4D4D8"/>
<path d="M1.72753 38.3954C1.44325 38.3735 1.15898 38.2423 0.940301 38.0236C0.699759 37.7831 0.546687 37.4332 0.546687 37.0833C0.502952 36.318 0.546687 35.5089 0.546687 34.7435C0.546687 34.4155 0.371747 34.1312 0 34.1531V34.0219H1.55259V34.1531C1.39952 34.1312 1.26831 34.1968 1.15898 34.3061C1.07151 34.4373 1.02777 34.5686 1.02777 34.7216C1.02777 35.487 1.02777 36.2524 1.02777 36.9958C1.02777 37.3457 1.15898 37.6519 1.39952 37.8924C1.59633 38.0455 1.815 38.1548 2.07741 38.1548C2.36169 38.1767 2.64597 38.1111 2.88651 37.958C3.12705 37.8049 3.30199 37.5425 3.34573 37.2583C3.38946 36.3617 3.38946 35.4433 3.30199 34.5467C3.28012 34.3061 3.08332 34.1312 2.84277 34.1312C2.82091 34.1312 2.82091 34.1312 2.79904 34.1312V34H4.11109V34.1312C3.89241 34.0875 3.67374 34.2405 3.63 34.4592C3.60814 34.5248 3.60814 34.6123 3.60814 34.6779C3.60814 35.4651 3.60814 36.2742 3.60814 37.0614C3.60814 37.2145 3.5644 37.3676 3.52067 37.5207C3.19265 38.3079 2.47103 38.5047 1.72753 38.3954Z" fill="#D4D4D8"/>
<path d="M44.107 38.3516H42.62V38.2204C42.7512 38.2204 42.8824 38.1767 42.9918 38.0892C43.0792 38.0018 43.123 37.8924 43.123 37.7612C43.123 37.7175 43.1448 37.6519 43.1448 37.6081V34.7654C43.1448 34.7216 43.1448 34.656 43.123 34.7216C42.6856 35.8587 42.292 36.9958 41.8546 38.1111C41.8328 38.1986 41.789 38.286 41.7672 38.3735H41.5922C41.1768 37.2801 40.7613 36.1649 40.3677 35.0715C40.3239 34.9622 40.2802 34.8747 40.2583 34.7654C40.2583 34.7435 40.2364 34.7872 40.2364 34.8091C40.2364 35.7494 40.2364 36.6678 40.2364 37.6081C40.2364 37.8487 40.3239 38.133 40.5645 38.2204C40.6301 38.2423 40.7175 38.2423 40.7831 38.2423V38.3735H39.4492V38.2423C39.7116 38.2642 39.9522 38.0674 39.974 37.8049C39.974 37.7831 39.974 37.7831 39.974 37.7612C39.974 37.7175 39.9959 37.6519 39.9959 37.6081C39.9959 36.6241 39.9959 35.6619 39.9959 34.6779C40.0178 34.4592 39.8866 34.2624 39.6898 34.1749C39.6023 34.1531 39.5148 34.1312 39.4492 34.1312V34H40.4989L41.8328 37.5207L43.1448 34H44.1726V34.1312C43.9321 34.0875 43.7134 34.2624 43.6696 34.503C43.6696 34.5248 43.6696 34.5467 43.6696 34.5686C43.6259 35.6182 43.6478 36.7334 43.6696 37.7831C43.6915 37.8924 43.7134 37.9799 43.779 38.0674C43.8227 38.133 43.8883 38.1548 43.9539 38.1767C44.0195 38.1986 44.107 38.1986 44.1945 38.2204V38.3298L44.107 38.3516Z" fill="#D4D4D8"/>
<path d="M35.2506 38.3504C35.2068 38.3504 35.185 38.3504 35.2068 38.3067L35.2506 38.2192C35.4474 38.2411 35.6223 38.0662 35.6442 37.8694C35.6442 37.8475 35.6442 37.8475 35.6442 37.8256C35.6442 37.0603 35.6442 36.2949 35.6442 35.5295C35.6442 35.4421 35.6223 35.3765 35.5786 35.3109C35.4911 35.2015 35.3818 35.1578 35.2506 35.1796V35.0703H37.6341L37.656 35.8138H37.5466C37.5248 35.6826 37.481 35.5733 37.4154 35.4639C37.3717 35.3983 37.3061 35.3546 37.2186 35.3327C36.9125 35.289 36.6063 35.2671 36.2783 35.289C36.2127 35.289 36.1471 35.3109 36.1253 35.3765V35.3983C36.1253 35.7701 36.1253 36.1418 36.1253 36.5136C36.4095 36.5354 36.7157 36.5354 37 36.4917C37.153 36.4042 37.2624 36.2293 37.2624 36.0543H37.3936V37.1915H37.2842C37.2624 37.0821 37.2405 36.9947 37.1968 36.9072C37.153 36.8416 37.0874 36.776 37 36.776C36.7157 36.7541 36.4314 36.7322 36.169 36.7541C36.169 37.1696 36.169 37.5851 36.1909 37.9787C36.2127 38.0662 36.2565 38.1318 36.3221 38.1755C36.4095 38.2192 36.497 38.2411 36.5845 38.2411V38.3723L35.2506 38.3504Z" fill="#D4D4D8"/>
<path d="M67.0021 38.3499V38.2406C67.1333 38.2187 67.2864 38.175 67.3082 38.0219C67.2426 37.7814 67.1552 37.5408 67.0677 37.3003H65.9524C65.8868 37.4752 65.8212 37.6502 65.7556 37.8251C65.69 37.9345 65.7119 38.0875 65.7994 38.175C65.8431 38.2187 65.9087 38.2406 65.9962 38.2406V38.3499H65.0996V38.2187C65.2745 38.2406 65.4058 38.0438 65.4495 37.9126C65.7994 36.9942 66.1492 36.0976 66.4991 35.1792C66.521 35.1354 66.5429 35.0698 66.5647 35.0261C66.6085 35.0042 66.6741 35.0042 66.6959 35.048C67.0895 36.0101 67.4613 36.9723 67.833 37.9345C67.8768 38.0657 67.9861 38.1531 68.0955 38.1969V38.3281L67.0021 38.3499ZM66.018 37.0379H66.9583L66.4773 35.7477C66.3242 36.1632 66.1711 36.5787 66.018 36.9723C66.018 36.9942 66.018 37.016 66.018 37.0379Z" fill="#D4D4D8"/>
<path d="M63.3285 38.352V38.2427C63.5472 38.2645 63.7221 38.1115 63.744 37.8928C63.7658 37.04 63.744 36.1653 63.744 35.3124C63.4597 35.3124 63.0442 35.2906 62.913 35.5748C62.8693 35.6842 62.8255 35.8154 62.8037 35.9247H62.6943L62.7162 35.0938H65.2528C65.2528 35.3562 65.2528 35.6186 65.2747 35.881C65.2747 35.9028 65.2747 35.9247 65.2747 35.9466H65.1435C65.1435 35.7279 65.0342 35.5311 64.8592 35.4218C64.7717 35.378 64.6843 35.3562 64.5968 35.3562C64.4656 35.3562 64.3344 35.3343 64.2032 35.3343C64.2032 36.209 64.2032 37.0618 64.2032 37.9147C64.2032 38.024 64.2688 38.1115 64.3344 38.1771C64.4219 38.2427 64.5312 38.2645 64.6187 38.2645V38.3957L63.3285 38.352Z" fill="#D4D4D8"/>
<path d="M18.5215 38.3531C18.5215 38.3531 18.4996 38.3531 18.4778 38.3312C18.1498 37.872 17.7999 37.3909 17.4719 36.9098C17.45 36.888 17.4281 36.8661 17.4063 36.8442H17.1657C17.1657 37.1941 17.1438 37.544 17.1657 37.872C17.1657 38.0688 17.3407 38.2219 17.5375 38.2219H17.5593V38.3531H16.291V38.2219C16.4004 38.2219 16.4878 38.2 16.5753 38.1344C16.6628 38.0469 16.7065 37.9376 16.7065 37.8064C16.7065 37.0848 16.7065 36.3413 16.7065 35.6196C16.7284 35.4666 16.6409 35.3135 16.5097 35.226C16.4441 35.2042 16.3785 35.1823 16.3129 35.2042V35.073C16.8596 35.0511 17.4281 35.0511 17.9748 35.0948C18.0841 35.1167 18.1716 35.1386 18.2591 35.1823C18.4778 35.2916 18.6308 35.4884 18.6964 35.7071C18.7183 35.7946 18.7183 35.9039 18.7183 35.9914C18.6964 36.1882 18.609 36.385 18.4559 36.5381C18.3028 36.6474 18.1279 36.7349 17.9311 36.7786C18.2372 37.216 18.5434 37.6315 18.8714 38.0688C18.9589 38.1781 19.0682 38.2219 19.1994 38.2437V38.3531H18.5215ZM17.1876 36.6474C17.5593 36.6912 18.0842 36.5599 18.2154 36.1445C18.3466 35.7946 18.1498 35.401 17.7999 35.2916C17.6687 35.2479 17.5156 35.2479 17.3844 35.2698C17.2751 35.2698 17.2094 35.3354 17.1876 35.4447C17.1876 35.8602 17.1876 36.2538 17.1876 36.6474Z" fill="#D4D4D8"/>
<path d="M24.7537 38.3504V38.2411C24.8849 38.2411 24.9942 38.1974 25.0817 38.1099C25.1254 38.0443 25.1692 37.9568 25.1692 37.8694C25.1692 37.0165 25.1692 36.1418 25.1692 35.289C24.8849 35.2671 24.535 35.2671 24.3601 35.5295C24.2945 35.6389 24.2507 35.7701 24.2289 35.9013C24.207 35.9231 24.1851 35.9231 24.1633 35.9231H24.0977L24.1195 35.0703H26.6562L26.678 35.9231H26.5687C26.5249 35.5733 26.3719 35.3327 25.9783 35.3109C25.8689 35.3109 25.7377 35.3109 25.6284 35.3109C25.6284 36.1856 25.6065 37.0603 25.6284 37.9131C25.6502 38.0006 25.694 38.088 25.7596 38.1318C25.8471 38.1974 25.9564 38.2192 26.0439 38.2192V38.3504H24.7537Z" fill="#D4D4D8"/>
<path d="M60.4856 38.3513C60.092 38.2201 59.7858 37.9359 59.6109 37.5641C59.5234 37.3454 59.4578 37.1268 59.4359 36.8862C59.4141 36.5363 59.4578 36.1865 59.6109 35.8585C59.7858 35.4867 60.092 35.2024 60.4856 35.0712C60.8792 34.94 61.2947 35.0056 61.6446 35.2243C62.06 35.5086 62.3225 35.9678 62.3443 36.4707C62.4099 36.9518 62.3006 37.4548 62.0163 37.8484C61.8851 38.0233 61.732 38.1545 61.5571 38.242C61.2072 38.417 60.8355 38.4607 60.4856 38.3513ZM60.573 38.1545C60.8355 38.2639 61.1197 38.242 61.3384 38.0671C61.4696 37.9796 61.5571 37.8484 61.6227 37.7172C61.7976 37.3454 61.8632 36.9518 61.8195 36.5582C61.8195 36.1209 61.6446 35.4648 61.1853 35.268C60.9448 35.1587 60.6824 35.1806 60.4418 35.3118C60.1576 35.5086 59.9826 35.8366 59.9389 36.1865C59.8514 36.8425 59.8952 37.8265 60.573 38.1545Z" fill="#D4D4D8"/>
<path d="M52.7005 38.4176C52.0882 37.5866 51.454 36.7338 50.8417 35.9028C50.8199 35.8591 50.7761 35.8154 50.7543 35.7935C50.7543 36.4933 50.7324 37.193 50.7543 37.8709C50.7543 37.9584 50.798 38.0459 50.8636 38.1115C50.9292 38.1989 51.0386 38.2427 51.1479 38.2208C51.1479 38.2427 51.1479 38.2427 51.1698 38.2645C51.1698 38.2864 51.1698 38.3301 51.1698 38.352H50.1201V38.2427C50.2513 38.2427 50.3607 38.1771 50.4481 38.0896C50.5137 37.9803 50.5575 37.8709 50.5356 37.7397C50.5575 36.9962 50.5356 36.2527 50.5356 35.5311V35.5092C50.4919 35.4436 50.4481 35.378 50.3825 35.3124C50.3169 35.2687 50.2295 35.225 50.1201 35.225V35.0938H50.8636C50.9073 35.1375 50.9292 35.1812 50.9729 35.225C51.4978 35.9685 52.0445 36.6901 52.5693 37.4117C52.5693 36.7994 52.5911 36.209 52.5693 35.5967C52.5693 35.378 52.3943 35.2031 52.1757 35.2031V35.0938H53.2253V35.225C53.0941 35.2031 52.9848 35.2687 52.8973 35.3562C52.8317 35.4655 52.788 35.5748 52.788 35.706C52.788 36.6026 52.788 37.4992 52.788 38.4176H52.7005Z" fill="#D4D4D8"/>
<path d="M45.7687 38.3504H44.4785V38.2192C44.6535 38.1974 44.7191 38.1974 44.8284 38.0662C44.8721 38.0006 44.894 37.935 44.894 37.8475C44.894 37.0603 44.9159 36.273 44.894 35.5077C44.894 35.3109 44.6535 35.2015 44.4785 35.2015V35.0703H45.8124V35.2015C45.6156 35.1797 45.4188 35.3109 45.3969 35.5077V35.5295C45.3751 36.2949 45.3751 37.0603 45.3969 37.8256C45.3751 37.9787 45.4625 38.1318 45.6156 38.1974C45.6812 38.2192 45.7468 38.2192 45.8124 38.2411V38.3504H45.7687Z" fill="#D4D4D8"/>
<path d="M20.5774 38.4181C20.4025 38.3744 20.2057 38.3088 20.0307 38.265C19.9651 38.2432 19.8995 38.3744 19.8776 38.4181H19.7464L19.6152 37.3247H19.7464C19.8776 37.6746 20.0963 38.0901 20.5118 38.1994C20.7742 38.265 21.0366 38.1338 21.146 37.8714C21.2334 37.6309 21.1678 37.3685 20.9929 37.1935C20.7086 36.9749 20.4243 36.7562 20.1182 36.5594C20.0526 36.5156 19.987 36.45 19.9432 36.3844C19.7902 36.1658 19.7246 35.8815 19.7902 35.6191C19.8776 35.2255 20.2275 34.9412 20.643 34.9849C20.8179 35.0286 20.9929 35.0724 21.1678 35.138C21.2334 35.1598 21.299 35.1161 21.3209 35.0724C21.3428 35.0505 21.3428 35.0286 21.3428 34.9849H21.474L21.5614 36.0564H21.4302C21.3646 35.7065 21.146 35.4223 20.8398 35.2473C20.643 35.1598 20.4025 35.2036 20.2494 35.3785C20.1182 35.5753 20.1401 35.8377 20.315 36.0127C20.3806 36.0783 20.4462 36.1439 20.5337 36.2095C20.7961 36.3844 21.0585 36.5594 21.299 36.7562C21.5396 36.9749 21.6708 37.281 21.627 37.609C21.5833 38.0026 21.299 38.3088 20.9054 38.3744C20.8179 38.44 20.7086 38.44 20.5774 38.4181Z" fill="#D4D4D8"/>
<path d="M11.4151 38.4176H11.3713C10.9559 37.4336 10.5622 36.4714 10.1686 35.4874C10.103 35.3343 9.97181 35.225 9.79688 35.2031V35.0938H10.9996V35.225C10.8902 35.2031 10.7809 35.2468 10.7153 35.3343C10.6716 35.3999 10.6716 35.4655 10.6934 35.5311C10.9777 36.1871 11.2401 36.865 11.5244 37.521L11.5681 37.4117C11.7868 36.7994 12.0274 36.1653 12.2242 35.553C12.246 35.4874 12.2242 35.4218 12.1804 35.3562C12.1148 35.2687 12.0055 35.2468 11.918 35.2468V35.1375H12.8583V35.2687C12.6834 35.2468 12.5522 35.4218 12.5084 35.5748C12.1586 36.537 11.8087 37.521 11.4588 38.4832L11.4151 38.4176Z" fill="#D4D4D8"/>
<path d="M53.6844 38.3504L53.6625 38.3286C53.6625 38.3067 53.6625 38.263 53.6625 38.2192C53.7937 38.1974 53.8156 38.2192 53.9249 38.1318C53.9905 38.0662 54.0342 38.0006 54.0342 37.9131C54.0561 37.1477 54.0342 36.3824 54.0342 35.617C54.0561 35.4639 53.9686 35.3109 53.8374 35.2234C53.7718 35.2015 53.7062 35.1797 53.6406 35.2015V35.0703H56.0242L56.046 35.8138H55.9367C55.8711 35.5951 55.7836 35.3765 55.5431 35.3109C55.2588 35.289 54.9527 35.2671 54.6684 35.289C54.5809 35.289 54.5153 35.3109 54.5153 35.3983C54.4935 35.7701 54.5153 36.1418 54.5153 36.5136C54.8215 36.5354 55.1057 36.5354 55.4119 36.4917C55.565 36.4042 55.6743 36.2293 55.6743 36.0543H55.8055V37.1915H55.6962C55.6743 37.0165 55.5868 36.7978 55.39 36.776C55.1057 36.7541 54.8215 36.7322 54.5372 36.7541V37.9568C54.5372 38.0662 54.6465 38.1536 54.7559 38.1536C55.0401 38.1755 55.3244 38.1536 55.5868 38.1318C55.8711 38.0443 56.0679 37.8038 56.1554 37.5195H56.3085C56.3085 37.5632 56.2866 37.6069 56.2866 37.6507C56.221 37.8912 56.1554 38.1318 56.0898 38.3723L53.6844 38.3504Z" fill="#D4D4D8"/>
<path d="M57.7743 38.4185C57.5775 38.3748 57.4025 38.3092 57.2057 38.2655C57.1401 38.3092 57.0964 38.3529 57.0745 38.4404H56.9652L56.834 37.347H56.9652C57.0964 37.6969 57.3151 38.1124 57.7305 38.2217C57.9492 38.2655 58.1898 38.1999 58.321 38.0031C58.474 37.7625 58.4303 37.4345 58.2116 37.2377C57.9274 37.019 57.6431 36.8003 57.3369 36.6035C57.0527 36.3849 56.9215 36.0131 57.0089 35.6414C57.0308 35.4883 57.1183 35.3571 57.2057 35.2477C57.3807 35.0728 57.6212 34.9853 57.8618 35.0072C58.0367 35.0509 58.2116 35.0947 58.3866 35.1603C58.4522 35.1821 58.4959 35.1384 58.5396 35.0947C58.5615 35.0728 58.5615 35.0509 58.5615 35.0072H58.6927L58.7802 36.0787H58.649C58.5834 35.7288 58.3647 35.4446 58.0586 35.2696C57.8618 35.1821 57.6212 35.2259 57.4681 35.4008C57.3369 35.5976 57.3807 35.86 57.5337 36.035C57.9055 36.4067 58.474 36.5598 58.7365 37.0409C58.9551 37.4345 58.8677 37.9375 58.5178 38.2217C58.2991 38.3967 58.0367 38.4623 57.7743 38.4185Z" fill="#D4D4D8"/>
<path d="M9.22768 38.352H7.9375V38.2208C8.0687 38.2208 8.19991 38.1771 8.28738 38.0677C8.33111 37.9803 8.37485 37.8709 8.35298 37.7835C8.35298 37.04 8.37485 36.2746 8.35298 35.5311C8.35298 35.3999 8.26551 35.2906 8.15617 35.2468C8.09057 35.225 8.0031 35.2031 7.9375 35.2031V35.0938H9.27142V35.225C9.07461 35.1812 8.8778 35.3124 8.85594 35.5092V35.5311C8.85594 36.2965 8.85594 37.0618 8.85594 37.8272C8.83407 38.0459 8.98714 38.2208 9.20582 38.2427C9.22768 38.2427 9.24955 38.2427 9.27142 38.2427V38.352H9.22768Z" fill="#D4D4D8"/>
<path d="M32.9983 38.3744C32.7797 38.3307 32.561 38.2214 32.386 38.0464C32.0799 37.7621 31.8831 37.3467 31.8612 36.9312C31.7956 36.4501 31.905 35.969 32.1892 35.5754C32.2986 35.4005 32.4516 35.2692 32.6266 35.1818C33.3045 34.7882 34.1792 35.0287 34.5728 35.7066C34.6384 35.8159 34.6821 35.9253 34.704 36.0565C34.7915 36.4064 34.8133 36.7781 34.7477 37.1498C34.6603 37.6965 34.2666 38.1339 33.7418 38.3307C33.6544 38.3526 33.5669 38.3744 33.4794 38.3744C33.3263 38.4182 33.1733 38.4182 32.9983 38.3744ZM33.0421 38.1558C33.2826 38.2432 33.5669 38.2214 33.7856 38.0683C33.8949 37.9808 34.0042 37.8715 34.0698 37.7403C34.2229 37.3904 34.3104 37.0186 34.2885 36.6469C34.2885 36.2533 34.201 35.8815 34.0042 35.5535C33.8512 35.313 33.5888 35.1818 33.3045 35.2036C32.9983 35.2255 32.7359 35.3786 32.6047 35.6629C32.3423 36.2314 32.2986 36.8656 32.4735 37.456C32.5172 37.784 32.7359 38.0464 33.0421 38.1558Z" fill="#D4D4D8"/>
<path d="M15.657 38.352H13.2734V38.2427C13.4921 38.2427 13.6671 38.1333 13.6671 37.8928C13.6671 37.1056 13.6671 36.3183 13.6671 35.553C13.6671 35.4436 13.6014 35.3343 13.4921 35.2687C13.4265 35.2468 13.339 35.225 13.2734 35.225V35.0938H15.6133C15.6351 35.2687 15.6351 35.4436 15.6351 35.6186C15.6351 35.6842 15.6351 35.7716 15.6351 35.8372H15.5258C15.5039 35.6186 15.3727 35.4436 15.1978 35.3562C15.1322 35.3343 15.0666 35.3124 15.001 35.3124H14.2575C14.17 35.3124 14.1263 35.3562 14.1263 35.4218C14.1044 35.7716 14.1263 36.1871 14.1263 36.537C14.4105 36.5589 14.7167 36.5589 15.001 36.5151C15.0884 36.4714 15.154 36.4277 15.1978 36.3402C15.2415 36.2527 15.2634 36.1653 15.2634 36.0559H15.3946V37.193H15.2634C15.2634 37.0181 15.154 36.865 15.001 36.7775C14.7167 36.7338 14.4105 36.7338 14.1263 36.7557C14.1263 37.1493 14.1263 37.521 14.1263 37.9147C14.1263 38.024 14.2137 38.1333 14.3231 38.1333H14.3449C14.6292 38.1552 14.9135 38.1552 15.1759 38.1115C15.4602 38.024 15.6789 37.7835 15.7663 37.4992H15.9194L15.7007 38.352H15.657Z" fill="#D4D4D8"/>
<path d="M29.3682 38.352H28.0124V38.2427C28.1217 38.2427 28.2311 38.2208 28.3185 38.1771C28.3841 38.1333 28.4279 38.0896 28.4497 38.024C28.4935 37.6522 28.4935 37.3024 28.4716 36.9306C28.1873 36.4495 27.8812 35.9903 27.5969 35.5092C27.5094 35.3562 27.3345 35.225 27.1377 35.2031V35.0938H28.4497V35.225C28.3623 35.225 28.2529 35.2468 28.1873 35.3124C28.1436 35.3562 28.1436 35.3999 28.1655 35.4655C28.1655 35.5092 28.1873 35.5311 28.2092 35.553C28.406 35.881 28.6247 36.209 28.8215 36.5589L28.8652 36.6463C29.0839 36.2527 29.3244 35.881 29.5213 35.5092C29.5431 35.4436 29.5431 35.378 29.4994 35.3124C29.4338 35.2468 29.3463 35.225 29.2588 35.2468V35.1156H30.2647V35.2468C30.0679 35.2687 29.9149 35.378 29.8055 35.553C29.5213 35.9903 29.2588 36.4495 28.9964 36.9088C28.9746 37.3024 28.9746 37.6741 29.0183 38.0677C29.062 38.2645 29.2807 38.2864 29.4557 38.2864V38.3957L29.3682 38.352Z" fill="#D4D4D8"/>
<path d="M22.3924 38.3504L22.3705 38.3286C22.3705 38.3067 22.3705 38.263 22.3705 38.2192C22.5892 38.2411 22.7641 38.088 22.786 37.8912C22.786 37.8912 22.786 37.8912 22.786 37.8694C22.786 37.0821 22.8079 36.2949 22.786 35.5295C22.7641 35.3327 22.5892 35.1797 22.3705 35.2015C22.3705 35.2015 22.3705 35.2015 22.3486 35.2015V35.0703H23.6826V35.2015C23.4857 35.1797 23.2889 35.3109 23.2671 35.5295C23.2671 36.3168 23.2671 37.1259 23.2671 37.9131C23.2889 38.1099 23.4857 38.263 23.6826 38.2411V38.3723L22.3924 38.3504Z" fill="#D4D4D8"/>
<path d="M49.0925 38.4176C49.0487 38.3739 49.005 38.3301 48.9831 38.2864C48.4364 37.521 47.8898 36.7775 47.3212 36.0341L47.1244 35.7935C47.1244 36.4933 47.1025 37.2149 47.1244 37.9147C47.1244 38.0021 47.1681 38.0896 47.2556 38.1552C47.3212 38.2208 47.4087 38.2427 47.518 38.2427L47.5617 38.3301C47.5617 38.352 47.5399 38.352 47.518 38.3739H46.4902V38.2427C46.7964 38.2645 46.9057 37.9365 46.9057 37.696C46.9057 36.9744 46.9057 36.2309 46.9057 35.5092V35.4874C46.862 35.4218 46.7964 35.3562 46.7308 35.2906C46.6652 35.2468 46.5777 35.225 46.4902 35.2031V35.0938H47.2337C47.7804 35.8591 48.3271 36.6026 48.8957 37.368H48.9175C48.9175 36.7775 48.9394 36.1653 48.9175 35.5748C48.8957 35.4436 48.8301 35.3124 48.6989 35.2468C48.6332 35.2031 48.5676 35.2031 48.502 35.2031V35.0938H49.5517V35.225C49.333 35.225 49.1362 35.3999 49.1362 35.6186V35.6404C49.1362 35.6842 49.1362 35.7498 49.1362 35.7935C49.1362 36.6682 49.1362 37.5429 49.1362 38.3957C49.1362 38.4176 49.1143 38.3957 49.0925 38.4176Z" fill="#D4D4D8"/>
<path d="M6.75712 38.416C6.12296 37.5632 5.51067 36.7104 4.87652 35.8794C4.85465 35.8575 4.83278 35.8138 4.81092 35.7919C4.81092 36.4917 4.78905 37.1696 4.81092 37.8694C4.81092 38.0662 4.98585 38.2411 5.20453 38.2411L5.2264 38.2848C5.2264 38.3067 5.2264 38.3504 5.2264 38.3723H4.17676V38.263C4.30796 38.263 4.4173 38.1974 4.50477 38.1099C4.57037 38.0224 4.61411 37.9131 4.59224 37.7819C4.61411 37.0384 4.59224 36.273 4.59224 35.5295V35.5077C4.54851 35.4421 4.50477 35.3765 4.43917 35.3109C4.37356 35.2671 4.28609 35.2234 4.19862 35.2234V35.0922H4.94212L6.64778 37.4101V35.6607C6.66965 35.4202 6.47284 35.2234 6.2323 35.2015V35.0703H7.28194V35.2015C7.06327 35.2015 6.86646 35.3765 6.86646 35.5951C6.86646 35.617 6.86646 35.617 6.86646 35.6389C6.84459 36.5573 6.86646 37.4976 6.86646 38.416H6.75712Z" fill="#D4D4D8"/>
<path d="M59.5424 30.9438C59.5424 30.9438 59.4668 30.8681 59.4668 30.7925V22.9998H62.1905L57.4997 15.2071L55.6839 18.1577H57.3484C57.424 18.1577 57.4997 18.2334 57.4997 18.309V25.8748C57.4997 25.9504 57.424 26.0261 57.3484 26.0261C51.9767 26.1017 46.6051 26.0261 41.2334 26.0261H40.4768V18.1577H42.2169L40.4012 15.1314C40.3255 15.2828 40.1742 15.4341 40.0985 15.5854C38.661 18.0064 37.2236 20.4275 35.7861 22.7728C35.7104 22.8485 35.7861 22.9241 35.8617 22.9241C35.9374 22.9241 35.9374 22.8485 35.9374 22.8485C36.7696 22.8485 37.6018 22.8485 38.4341 22.8485V30.6412C38.4341 30.7168 38.3584 30.7925 38.2828 30.7925C33.2137 30.8681 28.069 30.7925 23 30.7925V22.8485H26.1776C26.1776 22.8485 26.2533 22.7728 26.3289 22.7728L26.4046 22.6972C29.3552 17.7038 32.3815 12.7861 35.3321 7.86836H32.8354V0H48.0425V7.86836H45.4702L48.8748 13.5426L52.2794 7.86836H49.934C49.8583 7.7927 49.7826 7.79269 49.7826 7.71703C49.7826 5.14469 49.7826 2.57235 49.7826 0H64.9898V7.86836H62.4931L71.4963 22.8485H74.6739C74.7495 22.9241 74.8252 22.9241 74.8252 22.9998V30.6412C74.7495 30.7168 74.7495 30.7925 74.6739 30.7925H59.5424V30.9438Z" fill="#D4D4D8"/>
<path d="M60.5258 29.8865V24.0609H64.0061C61.8877 20.5806 59.8449 17.1004 57.8022 13.6958L57.4995 13.2419L53.868 19.2188H56.3647C56.3647 21.1859 56.289 23.153 56.4403 25.0444H41.5359V19.2188H44.0326L40.401 13.2419L33.8945 24.0609H37.3747V29.9621H23.9834V24.0609H26.7827C30.1116 18.5379 33.4405 13.0906 36.7695 7.49193C36.8451 7.41628 36.9208 7.34062 36.9964 7.26496C36.9964 7.11364 36.9964 7.03799 36.9964 6.88667H33.8945V1.13672H46.9075V6.96232H43.7299C45.3187 9.68598 46.9832 12.334 48.572 15.0577C48.7233 15.2846 48.799 15.4359 48.9503 15.6629L54.1706 7.03798H50.9173C50.9173 5.14655 50.9173 3.25512 50.9173 1.36369L50.8417 1.21238H63.9304V7.03798H60.6771L70.9665 24.1365H73.7658V30.0378L60.5258 29.8865ZM61.4337 28.8273H72.7823V24.9687H70.4369C66.6541 18.6892 62.9469 12.4096 59.164 6.20575C59.164 6.13009 59.164 6.05444 59.164 5.90313H63.0225V2.12026H51.9009V5.97879H55.9107C53.641 9.76165 51.3713 13.5445 49.0259 17.3274C48.9503 17.403 48.9503 17.4787 48.8746 17.5543L41.9898 5.90313H45.924C45.9996 5.82747 46.0753 5.82747 46.0753 5.75181V2.19593C45.9996 2.12027 45.9996 2.0446 45.924 2.0446H34.9537V5.90313H38.7366L38.8879 6.05444C38.8879 6.1301 38.8122 6.20576 38.7366 6.35707C34.9537 12.561 31.2465 18.7649 27.5393 25.0444H25.1183V28.9029H36.5425V25.0444H32.1544C34.878 20.5806 37.526 16.1168 40.2497 11.5774C40.3254 11.5018 40.401 11.4261 40.4767 11.3504L45.8483 20.278H42.5194V24.0609H55.3811V20.278H52.0522L57.4239 11.3504C57.5752 11.5774 57.6508 11.8044 57.8022 12.0314C60.4502 16.4195 63.0225 20.8076 65.6705 25.1201H61.3581C61.4337 26.3306 61.4337 27.5411 61.4337 28.8273Z" fill="#A7A4A4"/>
</svg>
