<svg  xmlns="http://www.w3.org/2000/svg" viewBox="0 0 16 7" fill="#d4d4d8" role="img" focusable="false" aria-hidden="true">
	<g clip-path="url(#clip0_812_6018)">
		<path d="M0.3125 0.414062H15.6877V5.18958H0.3125V0.414062Z"/>
		<path d="M10.5073 2.03776C10.5073 1.92912 10.6017 1.86299 10.7434 1.86299C10.8899 1.86299 11.0221 1.95746 11.0835 2.09445H11.1166L11.0883 1.88661C11.0174 1.85355 10.8615 1.80631 10.7246 1.80631C10.512 1.80631 10.3561 1.94329 10.3561 2.10389C10.3561 2.43927 11.0269 2.51484 11.0269 2.79353C11.0269 2.94469 10.8757 3.01082 10.7387 3.01082C10.5734 3.01082 10.4222 2.91162 10.3797 2.72268H10.3419L10.3845 3.01082C10.4931 3.03916 10.6395 3.07695 10.7576 3.07695C11.0032 3.07695 11.1827 2.91634 11.1827 2.73213C11.1733 2.37314 10.5073 2.31173 10.5073 2.03776ZM11.2064 1.82993H12.1936L12.2219 2.09445H12.1889C12.1605 1.9244 12.1227 1.9055 12.0471 1.9055H11.7826V2.85966C11.7826 2.96358 11.8157 3.00137 11.9338 3.00137H11.9763V3.03916H11.4236V3.00137H11.4662C11.5842 3.00137 11.6173 2.96358 11.6173 2.85966V1.9055H11.3528C11.2772 1.9055 11.2441 1.9244 11.2158 2.09445H11.1827L11.2064 1.82993ZM10.1813 1.87716C10.153 1.6835 10.0916 1.66933 10.0113 1.66933H9.49171V2.23615H9.89793C9.98296 2.23615 10.0207 2.22671 10.0349 2.08972H10.0774V2.48178H10.0349C10.016 2.31645 9.97351 2.3259 9.87431 2.3259H9.49171V2.82187C9.49171 2.93052 9.53894 2.94941 9.62869 2.94941H9.97823C10.1388 2.94941 10.1908 2.91634 10.2475 2.71796H10.29L10.2522 3.03443H9.09965V2.99192C9.28387 2.9872 9.29804 2.96358 9.29804 2.82187V1.80631C9.29804 1.6646 9.28387 1.63626 9.09965 1.63626V1.59375H10.205L10.2239 1.88189H10.1813V1.87716ZM11.315 4.21532H11.2819C11.2583 4.32869 11.2253 4.35703 11.1308 4.35703H10.6962C10.9277 4.15392 11.2819 3.8894 11.2819 3.61071C11.2819 3.42649 11.1402 3.28478 10.9466 3.28478C10.7482 3.28478 10.597 3.42649 10.5734 3.63905H10.6017C10.6443 3.4879 10.7623 3.3887 10.8899 3.3887C11.0269 3.3887 11.1308 3.49734 11.1308 3.63433C11.1308 3.96497 10.5923 4.3712 10.5451 4.41844V4.47039H11.2772L11.2914 4.35703L11.315 4.21532ZM9.11382 4.47039V4.42788C9.28859 4.42788 9.29804 4.39954 9.29804 4.30507V3.44538C9.23663 3.49734 9.12799 3.56347 9.05714 3.59654L9.04297 3.5682C9.15633 3.49734 9.31694 3.35564 9.36417 3.29423H9.4303V4.27673C9.4303 4.39482 9.45392 4.41844 9.62869 4.42316V4.46567H9.11382V4.47039ZM11.3339 4.13975V4.09723L11.9196 3.29895H11.9763V4.05H12.1274V4.14447H11.9763V4.47512H11.844V4.14447H11.3339M11.844 3.47845L11.4284 4.05H11.844V3.47845ZM10.1766 3.82799C10.3892 3.91302 10.4837 4.00749 10.4837 4.15392C10.4837 4.34758 10.3089 4.49401 10.0869 4.49401C9.86959 4.49401 9.69482 4.35703 9.69482 4.1917C9.69482 4.06417 9.79401 3.95553 9.9924 3.88467C9.80346 3.8091 9.70899 3.71463 9.70899 3.59181C9.70899 3.43121 9.87904 3.29423 10.0774 3.29423C10.2758 3.29423 10.4411 3.41232 10.4411 3.55875C10.4459 3.67211 10.3561 3.76186 10.1766 3.82799ZM10.0302 3.89884C9.89321 3.96497 9.80819 4.06417 9.80819 4.18226C9.80819 4.33813 9.931 4.44205 10.0869 4.44205C10.238 4.44205 10.3656 4.34286 10.3656 4.20115C10.3656 4.07834 10.2664 3.99332 10.0302 3.89884ZM10.0774 3.33202C9.93572 3.33202 9.81763 3.41232 9.81763 3.52568C9.81763 3.6296 9.87431 3.69573 10.1388 3.79965C10.2522 3.73352 10.3325 3.65322 10.3325 3.5493C10.3325 3.41704 10.2191 3.33202 10.0774 3.33202Z" fill="white"/>
		<path d="M13.2699 1.8798L13.251 1.59166H12.1457V1.63417C12.3299 1.63889 12.3441 1.66251 12.3441 1.80422V2.81978C12.3441 2.96149 12.3299 2.98511 12.1457 2.98983V3.03234H13.2982L13.336 2.71586H13.2935C13.2368 2.91425 13.1849 2.94732 13.0243 2.94732H12.6747C12.5897 2.94732 12.5377 2.92842 12.5377 2.81978V2.33326H12.9204C13.0148 2.33326 13.0621 2.32381 13.081 2.48913H13.1235V2.09708H13.081C13.0715 2.23406 13.029 2.24351 12.944 2.24351H12.5377V1.67668H13.0573C13.1376 1.67668 13.199 1.69085 13.2274 1.88452H13.2699M5.53744 1.59166V1.63417C5.72165 1.63889 5.73583 1.66251 5.73583 1.80422V2.73004L4.76277 1.59166H4.41323V1.63417C4.49353 1.63417 4.53604 1.65306 4.59273 1.69085V2.83395C4.59273 2.9237 4.55966 2.98511 4.47936 2.98511C4.41795 2.98511 4.38961 2.91425 4.35655 2.8434L3.81334 1.59166H3.64801L3.14732 2.7631C3.05757 2.95677 3.0434 2.98983 2.99144 2.98983C2.93003 2.98983 2.91114 2.93787 2.90169 2.78199L2.83084 1.75698C2.83084 1.66724 2.85918 1.63417 3.03395 1.63417V1.59166H2.6419L2.13175 2.76782L1.61689 1.59166H1.20594V1.63417C1.38071 1.63417 1.40905 1.66251 1.40905 1.75698L1.34764 2.74893C1.3382 2.96149 1.31458 2.99928 1.14453 2.99928V3.04179H1.63106V2.99928C1.52714 2.99455 1.43739 2.97094 1.44684 2.84812L1.50824 1.79949H1.51297L2.05618 3.04179H2.10814L2.63717 1.79949H2.6419L2.70803 2.8434C2.71747 2.96621 2.60883 2.99928 2.50019 2.99928V3.04179H3.39767V2.99928H3.38822C3.26068 2.99928 3.19928 2.97566 3.19928 2.91425C3.19928 2.88119 3.22762 2.81034 3.24651 2.76782L3.37405 2.46079H3.99283L4.14399 2.82451C4.15343 2.84812 4.16761 2.88119 4.16761 2.91898C4.16761 2.98511 4.12037 2.99928 3.98811 2.99928H3.95505V3.04179H4.90448V2.99928C4.70609 2.99928 4.69664 2.96621 4.69664 2.79616V1.79477L5.77834 3.05596H5.83974V1.75698C5.83974 1.66724 5.84919 1.63417 6.02396 1.63417V1.59166H5.53744ZM3.42128 2.36632L3.6858 1.73337L3.95032 2.36632H3.42128ZM9.06593 2.99455V3.03707H8.48966V2.99455C8.66443 2.98983 8.68805 2.96621 8.68805 2.8434V2.33326H7.83308V2.82451C7.83308 2.96621 7.84725 2.98983 8.03147 2.99455V3.03707H7.4552V2.99455C7.62997 2.99455 7.63942 2.96621 7.63942 2.87174V1.75698C7.63942 1.66724 7.62997 1.63417 7.4552 1.63417V1.59166H8.03147V1.63417C7.84725 1.63889 7.83308 1.66251 7.83308 1.80422V2.23879H8.68805V1.78532C8.68805 1.66251 8.66443 1.63889 8.48966 1.63417V1.59166H9.06593V1.63417C8.89116 1.63417 8.88171 1.66251 8.88171 1.75698V2.87174C8.88171 2.96621 8.89116 2.99455 9.06593 2.99455ZM6.8128 1.55859C7.05842 1.55859 7.23792 1.63889 7.34656 1.68613L7.36545 1.97427H7.32294C7.24736 1.75698 7.08676 1.61528 6.83169 1.61528C6.44436 1.61528 6.25069 1.91758 6.25069 2.30492C6.25069 2.72531 6.50576 3.00872 6.86003 3.00872C6.96395 3.00872 7.23319 2.93787 7.38907 2.65446H7.43158L7.31822 2.92842C7.18123 2.99455 7.06787 3.07013 6.7939 3.07013C6.32155 3.07013 6.03813 2.75838 6.03813 2.32853C6.03813 1.88452 6.32627 1.55859 6.8128 1.55859ZM14.7059 2.76782L14.5216 2.59305C14.413 2.48441 14.3421 2.43245 14.2571 2.36632C14.4508 2.30964 14.5689 2.16321 14.5689 1.98844C14.5689 1.74754 14.3752 1.57276 13.9406 1.57276C13.7895 1.57276 13.7422 1.57276 13.6478 1.58221C13.5533 1.58694 13.4069 1.59638 13.3549 1.59638V1.63889H13.4069C13.5439 1.63889 13.5816 1.68141 13.5816 1.82784V2.80561C13.5816 2.96149 13.5344 2.99928 13.3927 2.99928H13.3549V3.04179H14.0162V2.99928H13.9643C13.832 2.99928 13.7753 2.96621 13.7753 2.82451V2.43717C13.8131 2.4419 13.8414 2.4419 13.8934 2.4419C13.9548 2.4419 13.9926 2.4419 14.0493 2.43717C14.2288 2.54109 14.3658 2.69697 14.4508 2.77255C14.6633 2.97566 14.7153 3.06068 15.1215 3.04179V2.99928C14.9373 2.98511 14.8428 2.90953 14.7059 2.76782ZM13.9123 2.38049C13.8603 2.38049 13.8225 2.38049 13.7659 2.37577V1.62945C13.8084 1.62472 13.8367 1.62472 13.884 1.62472C14.2429 1.62472 14.3421 1.78532 14.3421 2.00261C14.3469 2.2813 14.1721 2.38049 13.9123 2.38049ZM14.7059 2.76782L14.5216 2.59305C14.413 2.48441 14.3421 2.43245 14.2571 2.36632C14.4508 2.30964 14.5689 2.16321 14.5689 1.98844C14.5689 1.74754 14.3752 1.57276 13.9406 1.57276C13.7895 1.57276 13.7422 1.57276 13.6478 1.58221C13.5533 1.58694 13.4069 1.59638 13.3549 1.59638V1.63889H13.4069C13.5439 1.63889 13.5816 1.68141 13.5816 1.82784V2.80561C13.5816 2.96149 13.5344 2.99928 13.3927 2.99928H13.3549V3.04179H14.0162V2.99928H13.9643C13.832 2.99928 13.7753 2.96621 13.7753 2.82451V2.43717C13.8131 2.4419 13.8414 2.4419 13.8934 2.4419C13.9548 2.4419 13.9926 2.4419 14.0493 2.43717C14.2288 2.54109 14.3658 2.69697 14.4508 2.77255C14.6633 2.97566 14.7153 3.06068 15.1215 3.04179V2.99928C14.9373 2.98511 14.8428 2.90953 14.7059 2.76782ZM13.9123 2.38049C13.8603 2.38049 13.8225 2.38049 13.7659 2.37577V1.62945C13.8084 1.62472 13.8367 1.62472 13.884 1.62472C14.2429 1.62472 14.3421 1.78532 14.3421 2.00261C14.3469 2.2813 14.1721 2.38049 13.9123 2.38049Z" fill="white"/>
		<path d="M0.66286 5.81213V6.59151H0.568389V5.81213H0.308594V5.7271H0.922656V5.81213H0.66286ZM1.44697 6.59151V6.18056C1.44697 6.08137 1.41863 6.02469 1.32888 6.02469C1.21552 6.02469 1.13522 6.13805 1.13522 6.28921V6.59624H1.04074V5.6657H1.13522V5.97745C1.13522 6.01996 1.13049 6.07192 1.12577 6.10499H1.13049C1.16828 6.01052 1.24858 5.95383 1.35722 5.95383C1.50365 5.95383 1.54616 6.04358 1.54616 6.15695V6.60096H1.44697M1.96184 6.01996C1.87209 6.01996 1.81068 6.08609 1.79179 6.18529H2.11299C2.11772 6.08609 2.06103 6.01996 1.96184 6.01996ZM2.21219 6.25614H1.78707C1.78234 6.44508 1.85792 6.52538 1.99963 6.52538C2.06576 6.52538 2.13661 6.50649 2.18384 6.48287L2.19329 6.56317C2.13661 6.58679 2.06103 6.60096 1.98546 6.60096C1.79179 6.60096 1.6926 6.49704 1.6926 6.27504C1.6926 6.08609 1.79651 5.94439 1.97128 5.94439C2.14606 5.94439 2.21691 6.0672 2.21691 6.20418C2.21691 6.21835 2.21691 6.23725 2.21219 6.25614ZM2.93961 6.60096C2.67037 6.60096 2.62314 6.44981 2.62314 6.30338V5.7271H2.72233V6.29393C2.72233 6.41674 2.76484 6.52066 2.94906 6.52066C3.10966 6.52066 3.18524 6.45453 3.18524 6.27031V5.7271H3.27971V6.26086C3.27971 6.4876 3.16634 6.60096 2.93961 6.60096ZM3.87488 6.59151V6.18056C3.87488 6.08137 3.84654 6.02469 3.75679 6.02469C3.64342 6.02469 3.56312 6.13805 3.56312 6.28921V6.59624H3.46865V5.96328H3.56312C3.56312 6.00579 3.5584 6.0672 3.55368 6.10499H3.5584C3.59619 6.01524 3.67649 5.94911 3.78513 5.94911C3.93156 5.94911 3.97407 6.03886 3.97407 6.15222V6.59624H3.87488M4.15357 6.59151V5.95856H4.24804V6.59151H4.15357ZM4.2008 5.84047C4.16301 5.84047 4.13467 5.81213 4.13467 5.77434C4.13467 5.73655 4.16301 5.70821 4.2008 5.70821C4.23859 5.70821 4.26693 5.73655 4.26693 5.77434C4.27166 5.81213 4.23859 5.84047 4.2008 5.84047ZM4.69205 6.59151H4.59286L4.35196 5.95856H4.4606L4.60703 6.37423C4.6212 6.41202 4.63065 6.44981 4.64482 6.4876C4.65426 6.45453 4.66843 6.41674 4.67788 6.37895L4.82903 5.95856H4.93768L4.69205 6.59151ZM5.23526 6.01996C5.14551 6.01996 5.08411 6.08609 5.06521 6.18529H5.38641C5.39114 6.08609 5.33446 6.01996 5.23526 6.01996ZM5.48561 6.25614H5.06049C5.05577 6.44508 5.13134 6.52538 5.27305 6.52538C5.33918 6.52538 5.41003 6.50649 5.45727 6.48287L5.46671 6.56317C5.41003 6.58679 5.33446 6.60096 5.25888 6.60096C5.06521 6.60096 4.96602 6.49704 4.96602 6.27504C4.96602 6.08609 5.06994 5.94439 5.24471 5.94439C5.41948 5.94439 5.49033 6.0672 5.49033 6.20418C5.49033 6.21835 5.49033 6.23725 5.48561 6.25614ZM5.94379 6.03886C5.80209 6.01524 5.73596 6.12388 5.73596 6.33644V6.59151H5.64149V5.95856H5.73596C5.73596 6.00107 5.73123 6.06248 5.72179 6.11916C5.7454 6.02469 5.81153 5.93022 5.94852 5.94439L5.94379 6.03886ZM6.1658 6.60096C6.11857 6.60096 6.07133 6.59624 6.03354 6.58679L6.03827 6.49704C6.08078 6.50649 6.12801 6.51594 6.17997 6.51594C6.26972 6.51594 6.33585 6.47342 6.33585 6.4073C6.33585 6.25614 6.02882 6.35061 6.02882 6.12388C6.02882 6.01996 6.11384 5.93966 6.27444 5.93966C6.31223 5.93966 6.35947 5.94439 6.39725 5.95383L6.39253 6.03886C6.35002 6.02469 6.30278 6.01524 6.26027 6.01524C6.1658 6.01524 6.12329 6.05303 6.12329 6.11443C6.12329 6.26559 6.43504 6.18056 6.43504 6.39785C6.43032 6.51594 6.33113 6.60096 6.1658 6.60096ZM6.57675 6.59151V5.95856H6.67122V6.59151H6.57675ZM6.62871 5.84047C6.59092 5.84047 6.56258 5.81213 6.56258 5.77434C6.56258 5.73655 6.59092 5.70821 6.62871 5.70821C6.6665 5.70821 6.69484 5.73655 6.69484 5.77434C6.69484 5.81213 6.66177 5.84047 6.62871 5.84047ZM7.068 6.60096C6.94046 6.60096 6.90268 6.54428 6.90268 6.41202V6.03413H6.76569V5.95856H6.90268V5.746L6.99715 5.71766V5.95383H7.18136V6.02941H6.99715V6.36951C6.99715 6.48287 7.01604 6.51121 7.09162 6.51121C7.12468 6.51121 7.15775 6.50649 7.18136 6.50177V6.58679C7.15302 6.59624 7.11051 6.60096 7.068 6.60096ZM7.53563 6.65764C7.46005 6.85131 7.40337 6.91744 7.26639 6.91744C7.24277 6.91744 7.20971 6.91272 7.18609 6.91272L7.19554 6.82297C7.21915 6.83241 7.24749 6.83714 7.27584 6.83714C7.35141 6.83714 7.3892 6.79935 7.44116 6.66709L7.4695 6.59151L7.2286 5.95856H7.33724L7.4695 6.32227C7.4884 6.37895 7.50257 6.42619 7.51674 6.47342C7.52618 6.43091 7.55453 6.35534 7.58287 6.27976L7.69623 5.95856H7.80015L7.53563 6.65764ZM8.3906 6.02469C8.2914 6.02469 8.19693 6.10026 8.19693 6.27031C8.19693 6.43091 8.26778 6.52066 8.3906 6.52066C8.48979 6.52066 8.57954 6.44508 8.57954 6.27031C8.57954 6.11443 8.51341 6.02469 8.3906 6.02469ZM8.37642 6.60096C8.20638 6.60096 8.09773 6.49704 8.09773 6.27504C8.09773 6.09554 8.2111 5.94439 8.40004 5.94439C8.55592 5.94439 8.68346 6.02941 8.68346 6.26086C8.67873 6.45453 8.56064 6.60096 8.37642 6.60096ZM9.1936 5.746C9.16053 5.73655 9.12747 5.73183 9.0944 5.73183C8.99521 5.73183 8.9527 5.78851 8.9527 5.91132V5.95856H9.14164V6.03413H8.9527V6.59151H8.85823V6.03413H8.72124V5.95856H8.85823V5.91605C8.85823 5.73655 8.94797 5.65625 9.09913 5.65625C9.13692 5.65625 9.16998 5.66097 9.20305 5.6657L9.1936 5.746ZM10.3461 6.59151L10.2706 6.05775C10.2564 5.95383 10.247 5.8877 10.2422 5.84047H10.2375C10.2281 5.87826 10.2139 5.92549 10.195 5.9869L9.99188 6.59151H9.87851L9.68485 6.02469C9.66123 5.96328 9.64234 5.89243 9.62817 5.84047C9.62344 5.91132 9.614 5.97745 9.60455 6.0672L9.54314 6.58679H9.44395L9.56676 5.72238H9.68957L9.88796 6.30338C9.91158 6.36478 9.92575 6.42147 9.9352 6.4687H9.93992C9.95409 6.41202 9.96354 6.36951 9.98716 6.3081L10.1903 5.71766H10.3178L10.4453 6.58207H10.3461M10.946 6.29393C10.7051 6.29393 10.6579 6.36951 10.6579 6.43091C10.6579 6.4876 10.7004 6.52538 10.7618 6.52538C10.8752 6.52538 10.946 6.41202 10.946 6.30338V6.29393ZM10.9508 6.59151C10.9508 6.54428 10.9508 6.49232 10.9555 6.45925H10.9508C10.9224 6.53955 10.8374 6.60568 10.7288 6.60568C10.6296 6.60568 10.554 6.55373 10.554 6.44981C10.554 6.31755 10.691 6.22308 10.9413 6.22308V6.17112C10.9413 6.07665 10.9082 6.01996 10.7949 6.01996C10.7335 6.01996 10.6579 6.03886 10.6012 6.07665L10.5918 5.99162C10.6532 5.96328 10.724 5.94439 10.8138 5.94439C10.9885 5.94439 11.0405 6.02941 11.0405 6.15222V6.40257C11.0405 6.46398 11.0405 6.53483 11.0452 6.59151H10.9508ZM11.6357 6.59151V6.18056C11.6357 6.08137 11.6073 6.02469 11.5176 6.02469C11.4042 6.02469 11.3239 6.13805 11.3239 6.28921V6.59624H11.2295V5.96328H11.3239C11.3239 6.00579 11.3192 6.0672 11.3145 6.10499H11.3192C11.357 6.01524 11.4373 5.94911 11.5459 5.94911C11.6924 5.94911 11.7349 6.03886 11.7349 6.15222V6.59624H11.6357M12.1505 6.60096C12.0088 6.60096 11.8766 6.53955 11.8766 6.29865C11.8766 6.09082 11.9805 5.94911 12.1883 5.94911C12.2403 5.94911 12.2923 5.95856 12.3395 5.97273L12.33 6.05775C12.2875 6.03886 12.2403 6.02941 12.1836 6.02941C12.0466 6.02941 11.9805 6.12861 11.9805 6.28448C11.9805 6.41674 12.023 6.52066 12.1742 6.52066C12.2308 6.52066 12.2923 6.50649 12.3348 6.48287L12.3442 6.5679C12.297 6.58207 12.2308 6.60096 12.1505 6.60096ZM12.8827 6.59151V6.18056C12.8827 6.08137 12.8544 6.02469 12.7646 6.02469C12.6512 6.02469 12.5709 6.13805 12.5709 6.28921V6.59624H12.4765V5.6657H12.5709V5.97745C12.5709 6.01996 12.5662 6.07192 12.5615 6.10499H12.5662C12.604 6.01052 12.6843 5.95383 12.7929 5.95383C12.9394 5.95383 12.9819 6.04358 12.9819 6.15695V6.60096H12.8827M13.3976 6.01996C13.3078 6.01996 13.2464 6.08609 13.2275 6.18529H13.5487C13.5534 6.08609 13.4968 6.01996 13.3976 6.01996ZM13.6479 6.25614H13.2228C13.2181 6.44508 13.2936 6.52538 13.4354 6.52538C13.5015 6.52538 13.5723 6.50649 13.6196 6.48287L13.629 6.56317C13.5723 6.58679 13.4968 6.60096 13.4212 6.60096C13.2275 6.60096 13.1283 6.49704 13.1283 6.27504C13.1283 6.08609 13.2322 5.94439 13.407 5.94439C13.5818 5.94439 13.6526 6.0672 13.6526 6.20418C13.6526 6.21835 13.6526 6.23725 13.6479 6.25614ZM13.903 6.60096C13.8557 6.60096 13.8085 6.59624 13.7707 6.58679L13.7754 6.49704C13.818 6.50649 13.8652 6.51594 13.9172 6.51594C14.0069 6.51594 14.073 6.47342 14.073 6.4073C14.073 6.25614 13.766 6.35061 13.766 6.12388C13.766 6.01996 13.851 5.93966 14.0116 5.93966C14.0494 5.93966 14.0966 5.94439 14.1344 5.95383L14.1297 6.03886C14.0872 6.02469 14.04 6.01524 13.9975 6.01524C13.903 6.01524 13.8605 6.05303 13.8605 6.11443C13.8605 6.26559 14.1722 6.18056 14.1722 6.39785C14.1675 6.51594 14.0683 6.60096 13.903 6.60096ZM14.517 6.60096C14.3895 6.60096 14.3517 6.54428 14.3517 6.41202V6.03413H14.2147V5.95856H14.3517V5.746L14.4462 5.71766V5.95383H14.6304V6.02941H14.4462V6.36951C14.4462 6.48287 14.4651 6.51121 14.5407 6.51121C14.5737 6.51121 14.6068 6.50649 14.6304 6.50177V6.58679C14.6021 6.59624 14.5548 6.60096 14.517 6.60096ZM14.9894 6.01996C14.8997 6.01996 14.8382 6.08609 14.8194 6.18529H15.1406C15.1453 6.08609 15.0839 6.01996 14.9894 6.01996ZM15.2397 6.25614H14.8146C14.8099 6.44508 14.8855 6.52538 15.0272 6.52538C15.0933 6.52538 15.1642 6.50649 15.2114 6.48287L15.2209 6.56317C15.1642 6.58679 15.0886 6.60096 15.013 6.60096C14.8194 6.60096 14.7202 6.49704 14.7202 6.27504C14.7202 6.08609 14.8241 5.94439 14.9988 5.94439C15.1736 5.94439 15.2445 6.0672 15.2445 6.20418C15.2397 6.21835 15.2397 6.23725 15.2397 6.25614ZM15.6885 6.03886C15.5468 6.01524 15.4807 6.12388 15.4807 6.33644V6.59151H15.3862V5.95856H15.4807C15.4807 6.00107 15.4759 6.06248 15.4665 6.11916C15.4901 6.02469 15.5562 5.93022 15.6932 5.94439L15.6885 6.03886Z" />
	</g>
	<defs>
		<clipPath id="clip0_812_6018">
			<rect width="16" height="7" fill="white"/>
		</clipPath>
	</defs>
</svg>
