<svg width="60" height="39" viewBox="0 0 60 39" fill="none" xmlns="http://www.w3.org/2000/svg">
    <g clip-path="url(#clip0_343_13785)">
        <path d="M0 2C0 0.89543 0.895431 0 2 0H58C59.1046 0 60 0.89543 60 2V36.4615C60 37.5661 59.1046 38.4615 58 38.4615H2C0.895432 38.4615 0 37.5661 0 36.4615V2Z" fill="#16366F" />
        <path d="M34.538 19.2296C34.538 26.856 28.3557 33.0373 20.7296 33.0373C13.1034 33.0373 6.92188 26.8556 6.92188 19.2296C6.92188 11.604 13.1036 5.42188 20.7296 5.42188C28.3555 5.42188 34.538 11.6042 34.538 19.2296Z" fill="#D9222A" />
        <path d="M39.267 5.42188C35.6993 5.42188 32.4483 6.77541 29.9978 8.99618C29.4985 9.44918 29.0325 9.93749 28.6035 10.4574H31.3932C31.7752 10.9218 32.1268 11.4103 32.4459 11.92H27.5509C27.2565 12.3908 26.9909 12.8791 26.7555 13.3821H33.241C33.4635 13.8579 33.6588 14.346 33.8256 14.844H26.1708C26.01 15.3236 25.8761 15.8117 25.7695 16.3062H34.2265C34.4333 17.267 34.5375 18.247 34.5373 19.2299C34.5373 20.7633 34.287 22.2386 33.8255 23.616H26.1707C26.3371 24.1144 26.5322 24.6026 26.7549 25.0783H33.2408C33.0051 25.5814 32.7393 26.0698 32.4449 26.5409H27.5507C27.8702 27.0508 28.2222 27.5393 28.6034 28.0021H31.3925C30.964 28.523 30.4978 29.0118 29.9978 29.4646C32.4486 31.6851 35.6992 33.038 39.2671 33.038C46.8931 33.0379 53.0755 26.8563 53.0755 19.2303C53.0755 11.6049 46.8932 5.42257 39.2671 5.42257" fill="#EE9F2D" />
        <path d="M51.237 26.9295C51.237 26.6833 51.4364 26.4833 51.6828 26.4833C51.9293 26.4833 52.1287 26.6833 52.1287 26.9295C52.1287 27.1756 51.9293 27.3756 51.6828 27.3756C51.4365 27.3755 51.2369 27.1758 51.237 26.9295ZM51.6828 27.2686C51.8701 27.2685 52.0218 27.1167 52.0219 26.9295C52.0219 26.7424 51.8702 26.5908 51.6831 26.5908H51.6828C51.496 26.5905 51.3444 26.7418 51.3441 26.9286V26.9296C51.3438 27.1167 51.4954 27.2685 51.6824 27.2687C51.6825 27.2686 51.6827 27.2686 51.6828 27.2686ZM51.6226 27.1255H51.5312V26.7337H51.6965C51.7311 26.7337 51.7664 26.7337 51.7969 26.7532C51.8287 26.7746 51.8466 26.8125 51.8466 26.8515C51.8466 26.8954 51.8207 26.9365 51.7787 26.9525L51.8508 27.1255H51.7496L51.6896 26.9705H51.6227L51.6226 27.1255ZM51.6226 26.9032H51.6732C51.6921 26.9032 51.712 26.9048 51.729 26.8955C51.7441 26.8859 51.7518 26.8679 51.7518 26.8506C51.7518 26.8356 51.7425 26.8183 51.7296 26.8109C51.7137 26.8008 51.6884 26.8032 51.6713 26.8032H51.6226V26.9032ZM17.5072 20.7445C17.3499 20.7263 17.2807 20.7214 17.1726 20.7214C16.323 20.7214 15.8928 21.0128 15.8928 21.5882C15.8928 21.9428 16.1028 22.1686 16.4303 22.1686C17.0409 22.1686 17.481 21.5871 17.5072 20.7445ZM18.5973 23.2827H17.3553L17.3838 22.6922C17.005 23.1589 16.4995 23.3807 15.8127 23.3807C15.0002 23.3807 14.4431 22.7461 14.4431 21.8246C14.4431 20.4382 15.4121 19.6292 17.0752 19.6292C17.2451 19.6292 17.463 19.6446 17.6861 19.673C17.7326 19.4852 17.7448 19.4048 17.7448 19.3038C17.7448 18.9262 17.4835 18.7855 16.7832 18.7855C16.0499 18.7772 15.4451 18.9602 15.1967 19.0419C15.2124 18.9473 15.4044 17.7605 15.4044 17.7605C16.1515 17.5416 16.6441 17.4592 17.1986 17.4592C18.4858 17.4592 19.1675 18.0371 19.1663 19.1294C19.1688 19.4221 19.1204 19.7832 19.0448 20.2579C18.9146 21.0834 18.6355 22.8516 18.5973 23.2827ZM13.8159 23.2827H12.3168L13.1755 17.8983L11.2582 23.2827H10.2367L10.1105 17.9291L9.20792 23.2827H7.80469L8.97684 16.2785H11.1322L11.263 20.199L12.5778 16.2785H14.9752L13.8159 23.2827ZM41.1221 20.7445C40.9654 20.7263 40.8958 20.7214 40.7881 20.7214C39.9388 20.7214 39.5085 21.0128 39.5085 21.5882C39.5085 21.9428 39.7182 22.1686 40.0457 22.1686C40.6564 22.1686 41.0968 21.5871 41.1221 20.7445ZM42.2131 23.2827H40.9711L40.9992 22.6922C40.6204 23.1589 40.1146 23.3807 39.4285 23.3807C38.6157 23.3807 38.0592 22.7461 38.0592 21.8246C38.0592 20.4382 39.0275 19.6292 40.6909 19.6292C40.8608 19.6292 41.0784 19.6446 41.3012 19.673C41.3477 19.4852 41.3599 19.4048 41.3599 19.3038C41.3599 18.9262 41.099 18.7855 40.3987 18.7855C39.6654 18.7772 39.0611 18.9602 38.8118 19.0419C38.8275 18.9473 39.0201 17.7605 39.0201 17.7605C39.7673 17.5416 40.2596 17.4592 40.8134 17.4592C42.1011 17.4592 42.7829 18.0371 42.7817 19.1294C42.7841 19.4221 42.7358 19.7832 42.6601 20.2579C42.5308 21.0834 42.2509 22.8516 42.2131 23.2827ZM25.26 23.1962C24.8497 23.3254 24.5298 23.3807 24.1831 23.3807C23.4167 23.3807 22.9985 22.9403 22.9985 22.1294C22.9875 21.8778 23.1087 21.2156 23.2038 20.6112C23.2904 20.0791 23.8538 16.7242 23.8538 16.7242H25.3439L25.1699 17.5865H26.0699L25.8666 18.9554H24.9634C24.7903 20.0387 24.5438 21.3881 24.541 21.5669C24.541 21.8605 24.6977 21.9887 25.0541 21.9887C25.2249 21.9887 25.3572 21.9713 25.4583 21.9348L25.26 23.1962ZM29.8285 23.15C29.3167 23.3064 28.8228 23.3821 28.2994 23.3808C26.6315 23.3792 25.7619 22.508 25.7619 20.8398C25.7619 18.8927 26.8681 17.4593 28.3696 17.4593C29.5981 17.4593 30.3827 18.2618 30.3827 19.5205C30.3827 19.9382 30.3288 20.3458 30.1991 20.9215H27.2318C27.1315 21.7478 27.6602 22.092 28.5269 22.092C29.0604 22.092 29.5414 21.982 30.0763 21.7333L29.8285 23.15ZM28.9911 19.7731C28.9993 19.6544 29.1491 18.7564 28.2978 18.7564C27.8231 18.7564 27.4837 19.1182 27.3455 19.7731H28.9911ZM19.4972 19.3872C19.4972 20.1077 19.8465 20.6045 20.6388 20.9776C21.2459 21.2629 21.3398 21.3475 21.3398 21.6061C21.3398 21.9612 21.0721 22.1215 20.4789 22.1215C20.0318 22.1215 19.6158 22.0517 19.136 21.8968C19.136 21.8968 18.9388 23.1522 18.9298 23.2123C19.2706 23.2866 19.5745 23.3555 20.4898 23.3808C22.0715 23.3808 22.802 22.7785 22.802 21.4769C22.802 20.6942 22.4962 20.2349 21.7453 19.8898C21.1168 19.6013 21.0446 19.5368 21.0446 19.2708C21.0446 18.9628 21.2937 18.8058 21.7783 18.8058C22.0725 18.8058 22.4745 18.8372 22.8552 18.8914L23.0687 17.5702C22.6805 17.5087 22.0921 17.4593 21.7495 17.4593C20.0725 17.4593 19.4921 18.3352 19.4972 19.3872ZM37.1195 17.609C37.5359 17.609 37.9241 17.7182 38.459 17.9875L38.7041 16.4673C38.4846 16.3812 37.7115 15.875 37.0568 15.875C36.0535 15.875 35.2055 16.3727 34.6091 17.1942C33.7391 16.9061 33.3815 17.4885 32.943 18.0686L32.5536 18.1593C32.5831 17.9683 32.6098 17.7785 32.6008 17.5865H31.2241C31.0361 19.3494 30.7027 21.135 30.4418 22.9L30.3738 23.2828H31.8735C32.1238 21.6564 32.261 20.615 32.3443 19.9103L32.9091 19.5962C32.9934 19.2823 33.2575 19.1763 33.7872 19.1891C33.716 19.5743 33.6804 19.9652 33.6808 20.3571C33.6808 22.2205 34.6863 23.3808 36.3001 23.3808C36.7158 23.3808 37.0725 23.326 37.6248 23.1764L37.8887 21.5795C37.3918 21.8241 36.984 21.9392 36.6148 21.9392C35.7434 21.9392 35.2161 21.2959 35.2161 20.2327C35.216 18.6904 36.0003 17.609 37.1195 17.609Z" fill="#0A0A0A" />
        <path d="M14.2456 22.8626H12.7463L13.6055 17.4789L11.6882 22.8626H10.6665L10.5402 17.5097L9.63768 22.8626H8.23438L9.40653 15.8594H11.5619L11.6225 20.1949L13.0767 15.8594H15.4049L14.2456 22.8626Z" fill="white" />
        <path d="M49.808 16.2773L49.4758 18.301C49.0658 17.7617 48.6255 17.3713 48.0441 17.3713C47.2876 17.3713 46.5992 17.9447 46.1486 18.7886C45.521 18.6584 44.8719 18.4376 44.8719 18.4376L44.8716 18.4427C44.9222 17.971 44.9423 17.6831 44.9379 17.5853H43.5609C43.3735 19.3482 43.0402 21.1338 42.7796 22.8988L42.7109 23.2816H44.2103C44.4129 21.9664 44.568 20.8744 44.6821 20.0084C45.1943 19.5456 45.4507 19.1417 45.9683 19.1687C45.7392 19.723 45.6049 20.3613 45.6049 21.0161C45.6049 22.4402 46.3254 23.3796 47.4152 23.3796C47.9645 23.3796 48.3859 23.1902 48.7972 22.7511L48.727 23.2807H50.1449L51.2866 16.2773H49.808ZM47.9334 21.9652C47.4231 21.9652 47.1655 21.5876 47.1655 20.8423C47.1655 19.7229 47.6479 18.9289 48.3279 18.9289C48.8429 18.9289 49.1218 19.3215 49.1218 20.0449C49.1219 21.1742 48.6319 21.9652 47.9334 21.9652Z" fill="#0A0A0A" />
        <path d="M17.9385 20.3289C17.7814 20.3107 17.7118 20.3058 17.6042 20.3058C16.7545 20.3058 16.3246 20.5972 16.3246 21.1725C16.3246 21.5267 16.5346 21.753 16.8615 21.753C17.4727 21.753 17.9128 21.1716 17.9385 20.3289ZM19.0292 22.8661H17.7872L17.8154 22.2767C17.4368 22.7423 16.9308 22.9651 16.2445 22.9651C15.4317 22.9651 14.875 22.3305 14.875 21.409C14.875 20.022 15.8435 19.2135 17.507 19.2135C17.6769 19.2135 17.8948 19.2289 18.1176 19.2574C18.1641 19.0696 18.1762 18.9892 18.1762 18.8876C18.1762 18.51 17.9154 18.3699 17.215 18.3699C16.4814 18.3616 15.8769 18.5447 15.6282 18.6254C15.6438 18.5311 15.8358 17.3456 15.8358 17.3456C16.5827 17.1257 17.0759 17.0433 17.6298 17.0433C18.9173 17.0433 19.5993 17.6216 19.5981 18.7129C19.6003 19.0067 19.5515 19.3677 19.4762 19.8417C19.3465 20.6667 19.067 22.436 19.0292 22.8661ZM39.1353 16.0513L38.8898 17.5719C38.3552 17.303 37.9667 17.1933 37.5508 17.1933C36.4315 17.1933 35.6469 18.2747 35.6469 19.817C35.6469 20.8801 36.1744 21.5232 37.0456 21.5232C37.4148 21.5232 37.8222 21.4084 38.319 21.1634L38.0559 22.7596C37.5033 22.9103 37.147 22.9651 36.7308 22.9651C35.1173 22.9651 34.1116 21.8048 34.1116 19.9413C34.1116 17.4375 35.5008 15.6875 37.4876 15.6875C38.142 15.6876 38.9155 15.9651 39.1353 16.0513ZM41.5539 20.3289C41.3969 20.3107 41.3277 20.3058 41.2196 20.3058C40.3702 20.3058 39.9401 20.5972 39.9401 21.1725C39.9401 21.5267 40.15 21.753 40.4773 21.753C41.0878 21.753 41.5282 21.1716 41.5539 20.3289ZM42.6446 22.8661H41.4023L41.4308 22.2767C41.052 22.7423 40.5462 22.9651 39.86 22.9651C39.0475 22.9651 38.4905 22.3305 38.4905 21.409C38.4905 20.022 39.4593 19.2135 41.1222 19.2135C41.2924 19.2135 41.51 19.2289 41.733 19.2574C41.7792 19.0696 41.7917 18.9892 41.7917 18.8876C41.7917 18.51 41.5308 18.3699 40.8305 18.3699C40.0972 18.3616 39.4923 18.5447 39.2436 18.6254C39.2593 18.5311 39.4516 17.3456 39.4516 17.3456C40.1985 17.1257 40.6913 17.0433 41.2452 17.0433C42.533 17.0433 43.2147 17.6216 43.2131 18.7129C43.2157 19.0067 43.1673 19.3677 43.0916 19.8417C42.9622 20.6667 42.6821 22.436 42.6446 22.8661ZM25.6915 22.7798C25.2809 22.909 24.9611 22.9651 24.6146 22.9651C23.8482 22.9651 23.43 22.5247 23.43 21.7139C23.4194 21.4615 23.5405 20.8 23.6358 20.1956C23.7219 19.6628 24.2855 16.3084 24.2855 16.3084H25.7752L25.6015 17.1709H26.3662L26.1627 18.5392H25.3954C25.2223 19.6231 24.9752 20.9714 24.9726 21.1507C24.9726 21.4453 25.1297 21.5724 25.4858 21.5724C25.6565 21.5724 25.7887 21.5557 25.8899 21.5192L25.6915 22.7798ZM30.2602 22.7343C29.7486 22.8907 29.254 22.9661 28.7309 22.9651C27.0629 22.9635 26.1935 22.0923 26.1935 20.4241C26.1935 18.4763 27.2996 17.0433 28.8012 17.0433C30.0296 17.0433 30.8142 17.8456 30.8142 19.1049C30.8142 19.5228 30.7604 19.9305 30.631 20.5058H27.6637C27.5632 21.332 28.0921 21.6767 28.9588 21.6767C29.4919 21.6767 29.9733 21.5663 30.5078 21.317L30.2602 22.7343ZM29.4223 19.3565C29.4313 19.2382 29.5807 18.3398 28.729 18.3398C28.2547 18.3398 27.9152 18.7027 27.7771 19.3565H29.4223ZM19.9285 18.9716C19.9285 19.692 20.2778 20.1882 21.0702 20.562C21.6772 20.8472 21.7711 20.9321 21.7711 21.1904C21.7711 21.5456 21.5032 21.7058 20.9105 21.7058C20.4631 21.7058 20.0471 21.636 19.5669 21.4812C19.5669 21.4812 19.3705 22.7366 19.3615 22.7966C19.7015 22.871 20.0057 22.9389 20.9211 22.9651C22.5032 22.9651 23.2333 22.3629 23.2333 21.0616C23.2333 20.2785 22.9278 19.8193 22.1765 19.4741C21.5483 19.185 21.4756 19.1216 21.4756 18.8552C21.4756 18.5475 21.7252 18.3892 22.2095 18.3892C22.5035 18.3892 22.9054 18.4215 23.2868 18.4757L23.4999 17.1542C23.1122 17.0927 22.5237 17.0433 22.181 17.0433C20.5038 17.0433 19.9237 17.9187 19.9285 18.9716ZM50.5785 22.8661H49.1602L49.2308 22.3359C48.8195 22.7757 48.3981 22.9651 47.8487 22.9651C46.7588 22.9651 46.0387 22.0257 46.0387 20.6017C46.0387 18.707 47.1557 17.1099 48.4779 17.1099C49.0592 17.1099 49.4994 17.3474 49.9089 17.8865L50.2416 15.8628H51.7202L50.5785 22.8661ZM48.3673 21.55C49.0654 21.55 49.5558 20.759 49.5558 19.6306C49.5558 18.9071 49.2765 18.5145 48.7615 18.5145C48.0817 18.5145 47.5988 19.3081 47.5988 20.428C47.5987 21.173 47.857 21.55 48.3673 21.55ZM43.9948 17.1709C43.8072 18.9337 43.4738 20.7193 43.2131 22.4834L43.1445 22.8661H44.6438C45.1801 19.3834 45.3098 18.7033 46.1506 18.7885C46.2846 18.0757 46.5338 17.4513 46.7198 17.1363C46.0918 17.0055 45.7412 17.3603 45.2822 18.0343C45.3185 17.743 45.3848 17.46 45.3717 17.1709H43.9948ZM31.6548 17.1709C31.4666 18.9337 31.1332 20.7193 30.8727 22.4834L30.8045 22.8661H32.3045C32.84 19.3834 32.9695 18.7033 33.8098 18.7885C33.9444 18.0757 34.1938 17.4513 34.379 17.1363C33.7518 17.0055 33.4008 17.3603 32.9422 18.0343C32.9784 17.743 33.0442 17.46 33.0316 17.1709H31.6548ZM51.2371 22.4203C51.2371 22.173 51.4368 21.9741 51.6829 21.9741C51.9288 21.9739 52.1285 22.1731 52.1287 22.4191V22.4203C52.1286 22.6664 51.9291 22.866 51.6829 22.8661C51.4368 22.866 51.2372 22.6664 51.2371 22.4203ZM51.6829 22.759C51.87 22.7591 52.0216 22.6075 52.0216 22.4205V22.4203C52.0218 22.2332 51.8702 22.0814 51.6832 22.0813H51.6829C51.4956 22.0813 51.3438 22.2331 51.3438 22.4203C51.344 22.6074 51.4958 22.759 51.6829 22.759ZM51.6226 22.6152H51.5312V22.2241H51.6969C51.7312 22.2241 51.7668 22.2247 51.7966 22.2437C51.8286 22.2654 51.8469 22.3027 51.8469 22.3417C51.8469 22.3859 51.8209 22.4273 51.7786 22.443L51.851 22.615H51.7495L51.6895 22.4605H51.6226V22.615V22.6152ZM51.6226 22.3937H51.6729C51.6918 22.3937 51.7124 22.395 51.729 22.386C51.744 22.3763 51.7517 22.3582 51.7517 22.3408C51.751 22.3247 51.7428 22.3097 51.7296 22.3005C51.7139 22.2915 51.6879 22.294 51.6709 22.294H51.6225L51.6226 22.3937Z" fill="white" />
    </g>
    <defs>
        <clipPath id="clip0_343_13785">
            <rect width="60" height="38.4615" fill="white" />
        </clipPath>
    </defs>
</svg>