<svg width="60" height="39" viewBox="0 0 60 39" fill="none" xmlns="http://www.w3.org/2000/svg">
    <g clip-path="url(#clip0_343_13777)">
        <path d="M55.7692 0H4.23077C1.89792 0 0 1.89792 0 4.23077V34.3077C0 36.6405 1.89792 38.5385 4.23077 38.5385H55.7692C58.1019 38.5385 60 36.6405 60 34.3077V4.23077C60 1.89792 58.1019 0 55.7692 0Z" fill="white" />
        <path d="M12.9518 13.0652C12.3057 12.6211 11.4626 12.3984 10.4225 12.3984H6.39593C6.07708 12.3984 5.90093 12.5579 5.86747 12.8764L4.2317 23.1441C4.2147 23.245 4.23993 23.3372 4.30716 23.4211C4.374 23.5051 4.45808 23.5469 4.55877 23.5469H6.47139C6.80685 23.5469 6.99124 23.3878 7.02508 23.0687L7.478 20.3007C7.49454 20.1665 7.55354 20.0574 7.65424 19.9734C7.75485 19.8896 7.8807 19.8347 8.0317 19.8096C8.1827 19.7847 8.32508 19.7721 8.45954 19.7721C8.59362 19.7721 8.75293 19.7806 8.93777 19.7973C9.12216 19.8141 9.2397 19.8222 9.29008 19.8222C10.7329 19.8222 11.8653 19.4157 12.6875 18.6017C13.5094 17.7881 13.9208 16.6599 13.9208 15.2168C13.9208 14.227 13.5975 13.5097 12.9518 13.0649V13.0652ZM10.8756 16.1483C10.7915 16.7356 10.5736 17.1213 10.2213 17.3059C9.86893 17.4907 9.36562 17.5826 8.71139 17.5826L7.88085 17.6078L8.30877 14.915C8.34216 14.7306 8.45116 14.6383 8.63585 14.6383H9.11416C9.78493 14.6383 10.2718 14.735 10.5738 14.9276C10.8756 15.1207 10.9763 15.5277 10.8756 16.1483Z" fill="#003087" />
        <path d="M55.4442 12.3984H53.5821C53.3971 12.3984 53.2881 12.4907 53.2549 12.6753L51.619 23.1445L51.5938 23.1948C51.5938 23.2791 51.6274 23.3584 51.6946 23.434C51.7614 23.5093 51.8456 23.5471 51.9462 23.5471H53.6074C53.9257 23.5471 54.1019 23.3881 54.1359 23.0691L55.7717 12.776V12.751C55.7715 12.5161 55.6621 12.3987 55.4442 12.3987V12.3984Z" fill="#009CDE" />
        <path d="M32.9486 16.45C32.9486 16.3663 32.9149 16.2864 32.8481 16.211C32.7808 16.1356 32.7053 16.0977 32.6216 16.0977H30.6838C30.4989 16.0977 30.348 16.182 30.2307 16.3493L27.5631 20.2754L26.4559 16.5004C26.3716 16.2321 26.1872 16.0977 25.9022 16.0977H24.0145C23.9304 16.0977 23.8549 16.1355 23.7882 16.211C23.7209 16.2864 23.6875 16.3663 23.6875 16.45C23.6875 16.4838 23.8511 16.9785 24.1782 17.9348C24.5053 18.8913 24.8577 19.9231 25.2352 21.0305C25.6127 22.1377 25.8097 22.7252 25.8266 22.7919C24.4507 24.6711 23.763 25.6779 23.763 25.8119C23.763 26.0302 23.872 26.1391 24.0902 26.1391H26.028C26.2125 26.1391 26.3634 26.0554 26.481 25.8875L32.8985 16.626C32.9318 16.5927 32.9486 16.5342 32.9486 16.4499V16.45Z" fill="#003087" />
        <path d="M50.9913 16.0981H49.0786C48.8435 16.0981 48.7013 16.375 48.6509 16.9286C48.2143 16.2579 47.4178 15.9219 46.2599 15.9219C45.0519 15.9219 44.0242 16.375 43.1771 17.281C42.3297 18.187 41.9062 19.2526 41.9062 20.4772C41.9062 21.4673 42.1956 22.2557 42.7743 22.8427C43.3531 23.4303 44.129 23.7236 45.1025 23.7236C45.5889 23.7236 46.0838 23.6227 46.5871 23.4216C47.0905 23.2203 47.4844 22.952 47.7701 22.6163C47.7701 22.6331 47.753 22.7084 47.7198 22.8426C47.6859 22.977 47.6694 23.078 47.6694 23.1446C47.6694 23.4133 47.7782 23.5472 47.9966 23.5472H49.7333C50.0516 23.5472 50.2364 23.3881 50.2866 23.069L51.3185 16.5006C51.335 16.4 51.3099 16.3078 51.243 16.2238C51.1756 16.1402 51.0919 16.0981 50.9913 16.0981ZM47.7071 21.056C47.2793 21.4754 46.7633 21.6851 46.1594 21.6851C45.6726 21.6851 45.2787 21.5511 44.9766 21.2825C44.6744 21.0146 44.5234 20.6454 44.5234 20.1751C44.5234 19.5548 44.7332 19.0302 45.1527 18.6023C45.5716 18.1745 46.0923 17.9606 46.713 17.9606C47.1824 17.9606 47.5726 18.099 47.8832 18.3757C48.1933 18.6526 48.3489 19.0344 48.3489 19.521C48.3489 20.1249 48.1349 20.6367 47.7071 21.056Z" fill="#009CDE" />
        <path d="M22.4016 16.0981H20.4889C20.2537 16.0981 20.1114 16.375 20.061 16.9286C19.608 16.2579 18.811 15.9219 17.6702 15.9219C16.4622 15.9219 15.4344 16.375 14.5873 17.281C13.7399 18.187 13.3164 19.2526 13.3164 20.4772C13.3164 21.4673 13.6059 22.2557 14.1847 22.8427C14.7636 23.4303 15.5393 23.7236 16.5126 23.7236C16.9821 23.7236 17.4689 23.6227 17.9722 23.4216C18.4755 23.2203 18.8782 22.952 19.1802 22.6163C19.1129 22.8175 19.0795 22.9937 19.0795 23.1446C19.0795 23.4133 19.1885 23.5472 19.4066 23.5472H21.1431C21.4616 23.5472 21.6464 23.3881 21.6968 23.069L22.7286 16.5006C22.7451 16.4 22.7199 16.3078 22.6531 16.2238C22.5859 16.1402 22.5022 16.0981 22.4016 16.0981ZM19.1173 21.0684C18.6894 21.48 18.1649 21.6851 17.5445 21.6851C17.0576 21.6851 16.6676 21.5511 16.3742 21.2825C16.0804 21.0146 15.9337 20.6454 15.9337 20.1751C15.9337 19.5548 16.1433 19.0302 16.5629 18.6023C16.9821 18.1745 17.5023 17.9606 18.1233 17.9606C18.5928 17.9606 18.9829 18.099 19.2936 18.3758C19.6037 18.6526 19.7591 19.0345 19.7591 19.521C19.7591 20.1417 19.5452 20.6578 19.1173 21.0684Z" fill="#003087" />
        <path d="M41.5417 13.0653C40.8957 12.6212 40.0528 12.3986 39.0125 12.3986H35.011C34.6753 12.3986 34.4906 12.558 34.4574 12.8766L32.8215 23.1443C32.8045 23.2452 32.8297 23.3374 32.897 23.4213C32.9635 23.5053 33.0479 23.547 33.1486 23.547H35.2122C35.4135 23.547 35.5476 23.4381 35.6149 23.2199L36.0679 20.3008C36.0845 20.1666 36.1433 20.0576 36.2441 19.9736C36.3448 19.8897 36.4705 19.8349 36.6216 19.8097C36.7725 19.7848 36.9149 19.7723 37.0495 19.7723C37.1835 19.7723 37.3429 19.7807 37.5275 19.7974C37.712 19.8142 37.8299 19.8223 37.8798 19.8223C39.3229 19.8223 40.4551 19.4158 41.2773 18.6019C42.0995 17.7883 42.5105 16.66 42.5105 15.2169C42.5106 14.2272 42.1875 13.5099 41.5417 13.0651V13.0653ZM38.9622 17.2053C38.593 17.4569 38.0393 17.5827 37.3012 17.5827L36.4959 17.6079L36.9237 14.9151C36.9569 14.7307 37.0659 14.6384 37.2508 14.6384H37.7036C38.0727 14.6384 38.3662 14.6552 38.5847 14.6886C38.8025 14.7225 39.0125 14.827 39.2139 15.0032C39.4152 15.1794 39.5159 15.4353 39.5159 15.7709C39.5159 16.4755 39.3311 16.9536 38.9622 17.2053Z" fill="#009CDE" />
    </g>
    <defs>
        <clipPath id="clip0_343_13777">
            <rect width="60" height="38.4615" fill="white" />
        </clipPath>
    </defs>
</svg>