<svg width="60" height="39" viewBox="0 0 60 39" fill="none" xmlns="http://www.w3.org/2000/svg">
    <g clip-path="url(#clip0_343_13773)">
        <path d="M3.07692 0H56.9231C58.6225 0 60 1.37762 60 3.07692V35.3846C60 37.084 58.6225 38.4615 56.9231 38.4615H3.07692C1.37762 38.4615 0 37.084 0 35.3846V3.07692C0 1.37762 1.37762 0 3.07692 0Z" fill="#0E4595" />
        <path d="M22.5531 26.8272L25.1193 11.7688H29.224L26.6559 26.8272H22.5531ZM41.4847 12.0934C40.6716 11.7883 39.3972 11.4609 37.806 11.4609C33.7503 11.4609 30.8933 13.5032 30.8691 16.4304C30.8461 18.5942 32.9087 19.8013 34.4654 20.5216C36.0632 21.2597 36.6002 21.7304 36.5927 22.3896C36.5826 23.3989 35.3168 23.86 34.1371 23.86C32.4943 23.86 31.6215 23.6318 30.2735 23.0696L29.7446 22.8303L29.1685 26.2013C30.1272 26.6216 31.9 26.9858 33.7407 27.0046C38.0553 27.0046 40.856 24.9857 40.888 21.8599C40.9033 20.1469 39.8099 18.8432 37.4418 17.7685C36.0072 17.0719 35.1286 16.607 35.1379 15.9017C35.1379 15.2758 35.8816 14.6064 37.4884 14.6064C38.8307 14.5856 39.803 14.8783 40.5606 15.1833L40.9283 15.3572L41.4847 12.0934ZM52.047 11.7686H48.8753C47.8927 11.7686 47.1574 12.0368 46.726 13.0173L40.6303 26.8173H44.9403C44.9403 26.8173 45.645 24.9617 45.8043 24.5544C46.2755 24.5544 50.4624 24.5609 51.0611 24.5609C51.1839 25.088 51.5603 26.8173 51.5603 26.8173H55.3691L52.047 11.7681V11.7686ZM47.0148 21.4924C47.3542 20.6248 48.6502 17.2829 48.6502 17.2829C48.6259 17.3231 48.987 16.4111 49.1943 15.8457L49.4717 17.1441C49.4717 17.1441 50.2577 20.7386 50.422 21.4924H47.0148ZM19.0687 11.7686L15.0502 22.0378L14.622 19.9509C13.8739 17.5452 11.5431 14.9389 8.9375 13.6341L12.6118 26.8033L16.9546 26.7984L23.4164 11.7684H19.0687" fill="white" />
        <path d="M11.2998 11.7659H4.68129L4.62891 12.0792C9.77798 13.3257 13.1851 16.3379 14.5997 19.9569L13.1604 13.0369C12.912 12.0835 12.1914 11.7989 11.3 11.7656" fill="#F2AE14" />
    </g>
    <defs>
        <clipPath id="clip0_343_13773">
            <rect width="60" height="38.4615" fill="white" />
        </clipPath>
    </defs>
</svg>